G04 MADE WITH FRITZING*
G04 WWW.FRITZING.ORG*
G04 DOUBLE SIDED*
G04 HOLES PLATED*
G04 CONTOUR ON CENTER OF CONTOUR VECTOR*
%ASAXBY*%
%FSLAX23Y23*%
%MOIN*%
%OFA0B0*%
%SFA1.0B1.0*%
%ADD10C,0.075000*%
%ADD11C,0.074000*%
%ADD12C,0.062992*%
%ADD13C,0.078000*%
%ADD14C,0.078833*%
%ADD15R,0.075000X0.075000*%
%ADD16R,0.062992X0.062992*%
%ADD17R,0.078819X0.078847*%
%ADD18C,0.024000*%
%ADD19C,0.016000*%
%LNCOPPER1*%
G90*
G70*
G54D10*
X1427Y1192D03*
X1493Y792D03*
X108Y1245D03*
G54D11*
X1543Y965D03*
X1650Y965D03*
X1757Y965D03*
X1543Y965D03*
X1650Y965D03*
X1757Y965D03*
G54D10*
X1213Y1238D03*
X1213Y938D03*
X1113Y1238D03*
X1113Y938D03*
X1013Y1238D03*
X1013Y938D03*
X913Y1238D03*
X913Y938D03*
X813Y1238D03*
X813Y938D03*
X713Y1238D03*
X713Y938D03*
X613Y1238D03*
X613Y938D03*
G54D12*
X1254Y684D03*
X1156Y684D03*
X758Y685D03*
X659Y685D03*
X292Y682D03*
X194Y682D03*
X1748Y687D03*
X1649Y687D03*
G54D10*
X839Y95D03*
X583Y95D03*
X839Y272D03*
X583Y272D03*
X1315Y97D03*
X1059Y97D03*
X1315Y275D03*
X1059Y275D03*
X1806Y97D03*
X1550Y97D03*
X1806Y274D03*
X1550Y274D03*
X367Y94D03*
X111Y94D03*
X367Y271D03*
X111Y271D03*
X1530Y538D03*
X1830Y538D03*
X1035Y537D03*
X1335Y537D03*
X558Y541D03*
X858Y541D03*
X1532Y423D03*
X1832Y423D03*
X1039Y423D03*
X1339Y423D03*
X559Y423D03*
X859Y423D03*
X96Y424D03*
X396Y424D03*
X92Y535D03*
X392Y535D03*
G54D13*
X1730Y1214D03*
X1830Y1214D03*
G54D12*
X1526Y1115D03*
X1526Y1214D03*
G54D10*
X1325Y1307D03*
X1625Y1307D03*
G54D14*
X269Y976D03*
X269Y1244D03*
G54D15*
X1213Y1238D03*
G54D16*
X1254Y684D03*
X758Y685D03*
X292Y682D03*
X1748Y687D03*
X1526Y1115D03*
G54D17*
X269Y976D03*
G54D18*
X1326Y1192D02*
X1325Y1279D01*
D02*
X1521Y988D02*
X1326Y1192D01*
D02*
X1013Y910D02*
X1013Y750D01*
D02*
X1013Y750D02*
X926Y664D01*
D02*
X926Y664D02*
X926Y487D01*
D02*
X926Y487D02*
X880Y442D01*
D02*
X1114Y910D02*
X1120Y775D01*
D02*
X1120Y775D02*
X968Y623D01*
D02*
X968Y417D02*
X886Y336D01*
D02*
X968Y623D02*
X968Y417D01*
D02*
X886Y336D02*
X479Y337D01*
D02*
X479Y337D02*
X416Y403D01*
D02*
X734Y1219D02*
X809Y1150D01*
D02*
X809Y1150D02*
X1250Y1149D01*
D02*
X1756Y816D02*
X1829Y748D01*
D02*
X1583Y816D02*
X1756Y816D01*
D02*
X1250Y1149D02*
X1583Y816D01*
D02*
X1829Y748D02*
X1830Y567D01*
D02*
X1521Y274D02*
X1343Y275D01*
G54D19*
D02*
X699Y850D02*
X805Y846D01*
D02*
X629Y922D02*
X699Y850D01*
D02*
X861Y785D02*
X858Y564D01*
D02*
X805Y846D02*
X861Y785D01*
G54D18*
D02*
X1353Y559D02*
X1393Y606D01*
D02*
X1393Y939D02*
X1229Y1110D01*
D02*
X1393Y606D02*
X1393Y939D01*
D02*
X1229Y1110D02*
X741Y1110D01*
D02*
X741Y1110D02*
X633Y1218D01*
G54D19*
D02*
X1198Y956D02*
X1139Y1023D01*
D02*
X593Y1022D02*
X532Y973D01*
D02*
X532Y973D02*
X532Y880D01*
D02*
X1139Y1023D02*
X593Y1022D01*
D02*
X761Y813D02*
X826Y749D01*
D02*
X599Y817D02*
X761Y813D01*
D02*
X532Y880D02*
X599Y817D01*
D02*
X822Y623D02*
X621Y423D01*
D02*
X826Y749D02*
X822Y623D01*
D02*
X621Y423D02*
X582Y423D01*
G54D18*
D02*
X112Y140D02*
X112Y122D01*
D02*
X375Y403D02*
X112Y140D01*
D02*
X396Y271D02*
X555Y272D01*
D02*
X1933Y1161D02*
X1890Y1114D01*
D02*
X1890Y1114D02*
X1553Y1115D01*
D02*
X1932Y1258D02*
X1933Y1161D01*
D02*
X1879Y1308D02*
X1932Y1258D01*
D02*
X1654Y1307D02*
X1879Y1308D01*
D02*
X1282Y1307D02*
X1297Y1307D01*
D02*
X1233Y1258D02*
X1282Y1307D01*
D02*
X1699Y1214D02*
X1553Y1214D01*
D02*
X194Y642D02*
X112Y555D01*
D02*
X194Y656D02*
X194Y642D01*
D02*
X681Y753D02*
X738Y703D01*
D02*
X362Y754D02*
X681Y753D01*
D02*
X311Y702D02*
X362Y754D01*
D02*
X1255Y340D02*
X1254Y657D01*
D02*
X1295Y296D02*
X1255Y340D01*
D02*
X1648Y649D02*
X1648Y661D01*
D02*
X1551Y558D02*
X1648Y649D01*
D02*
X1745Y469D02*
X1570Y294D01*
D02*
X1747Y661D02*
X1745Y469D01*
D02*
X268Y721D02*
X278Y705D01*
D02*
X269Y947D02*
X268Y721D01*
G36*
X1370Y1340D02*
X1370Y1318D01*
X1372Y1318D01*
X1372Y1298D01*
X1370Y1298D01*
X1370Y1292D01*
X1368Y1292D01*
X1368Y1288D01*
X1366Y1288D01*
X1366Y1284D01*
X1364Y1284D01*
X1364Y1282D01*
X1362Y1282D01*
X1362Y1278D01*
X1360Y1278D01*
X1360Y1276D01*
X1358Y1276D01*
X1358Y1274D01*
X1356Y1274D01*
X1356Y1272D01*
X1354Y1272D01*
X1354Y1270D01*
X1350Y1270D01*
X1350Y1268D01*
X1348Y1268D01*
X1348Y1260D01*
X1616Y1260D01*
X1616Y1262D01*
X1610Y1262D01*
X1610Y1264D01*
X1606Y1264D01*
X1606Y1266D01*
X1602Y1266D01*
X1602Y1268D01*
X1600Y1268D01*
X1600Y1270D01*
X1598Y1270D01*
X1598Y1272D01*
X1594Y1272D01*
X1594Y1274D01*
X1592Y1274D01*
X1592Y1276D01*
X1590Y1276D01*
X1590Y1280D01*
X1588Y1280D01*
X1588Y1282D01*
X1586Y1282D01*
X1586Y1284D01*
X1584Y1284D01*
X1584Y1288D01*
X1582Y1288D01*
X1582Y1292D01*
X1580Y1292D01*
X1580Y1298D01*
X1578Y1298D01*
X1578Y1318D01*
X1580Y1318D01*
X1580Y1340D01*
X1370Y1340D01*
G37*
D02*
G36*
X1666Y1286D02*
X1666Y1284D01*
X1664Y1284D01*
X1664Y1282D01*
X1662Y1282D01*
X1662Y1278D01*
X1660Y1278D01*
X1660Y1276D01*
X1658Y1276D01*
X1658Y1274D01*
X1656Y1274D01*
X1656Y1272D01*
X1654Y1272D01*
X1654Y1270D01*
X1650Y1270D01*
X1650Y1268D01*
X1648Y1268D01*
X1648Y1266D01*
X1644Y1266D01*
X1644Y1264D01*
X1640Y1264D01*
X1640Y1262D01*
X1842Y1262D01*
X1842Y1260D01*
X1846Y1260D01*
X1846Y1258D01*
X1850Y1258D01*
X1850Y1256D01*
X1854Y1256D01*
X1854Y1254D01*
X1856Y1254D01*
X1856Y1252D01*
X1860Y1252D01*
X1860Y1250D01*
X1862Y1250D01*
X1862Y1248D01*
X1864Y1248D01*
X1864Y1246D01*
X1866Y1246D01*
X1866Y1244D01*
X1868Y1244D01*
X1868Y1240D01*
X1870Y1240D01*
X1870Y1238D01*
X1872Y1238D01*
X1872Y1234D01*
X1874Y1234D01*
X1874Y1230D01*
X1876Y1230D01*
X1876Y1224D01*
X1878Y1224D01*
X1878Y1204D01*
X1876Y1204D01*
X1876Y1198D01*
X1874Y1198D01*
X1874Y1194D01*
X1872Y1194D01*
X1872Y1190D01*
X1870Y1190D01*
X1870Y1188D01*
X1868Y1188D01*
X1868Y1184D01*
X1866Y1184D01*
X1866Y1182D01*
X1864Y1182D01*
X1864Y1180D01*
X1862Y1180D01*
X1862Y1178D01*
X1860Y1178D01*
X1860Y1176D01*
X1856Y1176D01*
X1856Y1174D01*
X1854Y1174D01*
X1854Y1172D01*
X1850Y1172D01*
X1850Y1170D01*
X1846Y1170D01*
X1846Y1168D01*
X1842Y1168D01*
X1842Y1166D01*
X1908Y1166D01*
X1908Y1168D01*
X1910Y1168D01*
X1910Y1250D01*
X1908Y1250D01*
X1908Y1252D01*
X1906Y1252D01*
X1906Y1254D01*
X1902Y1254D01*
X1902Y1256D01*
X1900Y1256D01*
X1900Y1258D01*
X1898Y1258D01*
X1898Y1260D01*
X1896Y1260D01*
X1896Y1262D01*
X1894Y1262D01*
X1894Y1264D01*
X1892Y1264D01*
X1892Y1266D01*
X1890Y1266D01*
X1890Y1268D01*
X1888Y1268D01*
X1888Y1270D01*
X1886Y1270D01*
X1886Y1272D01*
X1884Y1272D01*
X1884Y1274D01*
X1882Y1274D01*
X1882Y1276D01*
X1880Y1276D01*
X1880Y1278D01*
X1878Y1278D01*
X1878Y1280D01*
X1876Y1280D01*
X1876Y1282D01*
X1874Y1282D01*
X1874Y1284D01*
X1872Y1284D01*
X1872Y1286D01*
X1666Y1286D01*
G37*
D02*
G36*
X1634Y1262D02*
X1634Y1260D01*
X1718Y1260D01*
X1718Y1262D01*
X1634Y1262D01*
G37*
D02*
G36*
X1742Y1262D02*
X1742Y1260D01*
X1746Y1260D01*
X1746Y1258D01*
X1750Y1258D01*
X1750Y1256D01*
X1754Y1256D01*
X1754Y1254D01*
X1756Y1254D01*
X1756Y1252D01*
X1760Y1252D01*
X1760Y1250D01*
X1762Y1250D01*
X1762Y1248D01*
X1764Y1248D01*
X1764Y1246D01*
X1766Y1246D01*
X1766Y1244D01*
X1768Y1244D01*
X1768Y1240D01*
X1790Y1240D01*
X1790Y1242D01*
X1792Y1242D01*
X1792Y1244D01*
X1794Y1244D01*
X1794Y1246D01*
X1796Y1246D01*
X1796Y1248D01*
X1798Y1248D01*
X1798Y1250D01*
X1800Y1250D01*
X1800Y1252D01*
X1802Y1252D01*
X1802Y1254D01*
X1806Y1254D01*
X1806Y1256D01*
X1808Y1256D01*
X1808Y1258D01*
X1812Y1258D01*
X1812Y1260D01*
X1818Y1260D01*
X1818Y1262D01*
X1742Y1262D01*
G37*
D02*
G36*
X1348Y1260D02*
X1348Y1258D01*
X1712Y1258D01*
X1712Y1260D01*
X1348Y1260D01*
G37*
D02*
G36*
X1348Y1260D02*
X1348Y1258D01*
X1712Y1258D01*
X1712Y1260D01*
X1348Y1260D01*
G37*
D02*
G36*
X1348Y1258D02*
X1348Y1256D01*
X1532Y1256D01*
X1532Y1254D01*
X1538Y1254D01*
X1538Y1252D01*
X1542Y1252D01*
X1542Y1250D01*
X1546Y1250D01*
X1546Y1248D01*
X1550Y1248D01*
X1550Y1246D01*
X1552Y1246D01*
X1552Y1244D01*
X1554Y1244D01*
X1554Y1242D01*
X1556Y1242D01*
X1556Y1240D01*
X1558Y1240D01*
X1558Y1238D01*
X1560Y1238D01*
X1560Y1234D01*
X1562Y1234D01*
X1562Y1230D01*
X1564Y1230D01*
X1564Y1226D01*
X1566Y1226D01*
X1566Y1220D01*
X1568Y1220D01*
X1568Y1208D01*
X1566Y1208D01*
X1566Y1202D01*
X1564Y1202D01*
X1564Y1198D01*
X1562Y1198D01*
X1562Y1194D01*
X1560Y1194D01*
X1560Y1190D01*
X1558Y1190D01*
X1558Y1188D01*
X1556Y1188D01*
X1556Y1186D01*
X1554Y1186D01*
X1554Y1184D01*
X1552Y1184D01*
X1552Y1182D01*
X1550Y1182D01*
X1550Y1180D01*
X1546Y1180D01*
X1546Y1178D01*
X1542Y1178D01*
X1542Y1166D01*
X1718Y1166D01*
X1718Y1168D01*
X1712Y1168D01*
X1712Y1170D01*
X1708Y1170D01*
X1708Y1172D01*
X1706Y1172D01*
X1706Y1174D01*
X1702Y1174D01*
X1702Y1176D01*
X1700Y1176D01*
X1700Y1178D01*
X1698Y1178D01*
X1698Y1180D01*
X1696Y1180D01*
X1696Y1182D01*
X1694Y1182D01*
X1694Y1184D01*
X1692Y1184D01*
X1692Y1186D01*
X1690Y1186D01*
X1690Y1188D01*
X1688Y1188D01*
X1688Y1192D01*
X1686Y1192D01*
X1686Y1196D01*
X1684Y1196D01*
X1684Y1202D01*
X1682Y1202D01*
X1682Y1208D01*
X1680Y1208D01*
X1680Y1220D01*
X1682Y1220D01*
X1682Y1226D01*
X1684Y1226D01*
X1684Y1232D01*
X1686Y1232D01*
X1686Y1236D01*
X1688Y1236D01*
X1688Y1240D01*
X1690Y1240D01*
X1690Y1242D01*
X1692Y1242D01*
X1692Y1244D01*
X1694Y1244D01*
X1694Y1246D01*
X1696Y1246D01*
X1696Y1248D01*
X1698Y1248D01*
X1698Y1250D01*
X1700Y1250D01*
X1700Y1252D01*
X1702Y1252D01*
X1702Y1254D01*
X1706Y1254D01*
X1706Y1256D01*
X1708Y1256D01*
X1708Y1258D01*
X1348Y1258D01*
G37*
D02*
G36*
X1348Y1256D02*
X1348Y1200D01*
X1350Y1200D01*
X1350Y1198D01*
X1352Y1198D01*
X1352Y1196D01*
X1354Y1196D01*
X1354Y1194D01*
X1356Y1194D01*
X1356Y1192D01*
X1358Y1192D01*
X1358Y1190D01*
X1360Y1190D01*
X1360Y1188D01*
X1362Y1188D01*
X1362Y1186D01*
X1364Y1186D01*
X1364Y1184D01*
X1366Y1184D01*
X1366Y1182D01*
X1368Y1182D01*
X1368Y1180D01*
X1370Y1180D01*
X1370Y1178D01*
X1372Y1178D01*
X1372Y1176D01*
X1374Y1176D01*
X1374Y1174D01*
X1376Y1174D01*
X1376Y1172D01*
X1378Y1172D01*
X1378Y1168D01*
X1380Y1168D01*
X1380Y1166D01*
X1382Y1166D01*
X1382Y1164D01*
X1384Y1164D01*
X1384Y1162D01*
X1386Y1162D01*
X1386Y1160D01*
X1388Y1160D01*
X1388Y1158D01*
X1390Y1158D01*
X1390Y1156D01*
X1392Y1156D01*
X1392Y1154D01*
X1394Y1154D01*
X1394Y1152D01*
X1396Y1152D01*
X1396Y1150D01*
X1398Y1150D01*
X1398Y1148D01*
X1400Y1148D01*
X1400Y1146D01*
X1402Y1146D01*
X1402Y1144D01*
X1404Y1144D01*
X1404Y1142D01*
X1406Y1142D01*
X1406Y1140D01*
X1408Y1140D01*
X1408Y1138D01*
X1410Y1138D01*
X1410Y1136D01*
X1412Y1136D01*
X1412Y1134D01*
X1414Y1134D01*
X1414Y1132D01*
X1416Y1132D01*
X1416Y1130D01*
X1418Y1130D01*
X1418Y1126D01*
X1420Y1126D01*
X1420Y1124D01*
X1422Y1124D01*
X1422Y1122D01*
X1424Y1122D01*
X1424Y1120D01*
X1426Y1120D01*
X1426Y1118D01*
X1428Y1118D01*
X1428Y1116D01*
X1430Y1116D01*
X1430Y1114D01*
X1432Y1114D01*
X1432Y1112D01*
X1434Y1112D01*
X1434Y1110D01*
X1436Y1110D01*
X1436Y1108D01*
X1438Y1108D01*
X1438Y1106D01*
X1440Y1106D01*
X1440Y1104D01*
X1442Y1104D01*
X1442Y1102D01*
X1444Y1102D01*
X1444Y1100D01*
X1446Y1100D01*
X1446Y1098D01*
X1448Y1098D01*
X1448Y1096D01*
X1450Y1096D01*
X1450Y1094D01*
X1452Y1094D01*
X1452Y1092D01*
X1454Y1092D01*
X1454Y1090D01*
X1456Y1090D01*
X1456Y1088D01*
X1458Y1088D01*
X1458Y1084D01*
X1460Y1084D01*
X1460Y1082D01*
X1462Y1082D01*
X1462Y1080D01*
X1464Y1080D01*
X1464Y1078D01*
X1484Y1078D01*
X1484Y1156D01*
X1486Y1156D01*
X1486Y1158D01*
X1510Y1158D01*
X1510Y1178D01*
X1506Y1178D01*
X1506Y1180D01*
X1504Y1180D01*
X1504Y1182D01*
X1500Y1182D01*
X1500Y1184D01*
X1498Y1184D01*
X1498Y1186D01*
X1496Y1186D01*
X1496Y1188D01*
X1494Y1188D01*
X1494Y1192D01*
X1492Y1192D01*
X1492Y1194D01*
X1490Y1194D01*
X1490Y1198D01*
X1488Y1198D01*
X1488Y1202D01*
X1486Y1202D01*
X1486Y1210D01*
X1484Y1210D01*
X1484Y1218D01*
X1486Y1218D01*
X1486Y1226D01*
X1488Y1226D01*
X1488Y1230D01*
X1490Y1230D01*
X1490Y1234D01*
X1492Y1234D01*
X1492Y1236D01*
X1494Y1236D01*
X1494Y1240D01*
X1496Y1240D01*
X1496Y1242D01*
X1498Y1242D01*
X1498Y1244D01*
X1500Y1244D01*
X1500Y1246D01*
X1504Y1246D01*
X1504Y1248D01*
X1506Y1248D01*
X1506Y1250D01*
X1510Y1250D01*
X1510Y1252D01*
X1514Y1252D01*
X1514Y1254D01*
X1520Y1254D01*
X1520Y1256D01*
X1348Y1256D01*
G37*
D02*
G36*
X1768Y1188D02*
X1768Y1184D01*
X1766Y1184D01*
X1766Y1182D01*
X1764Y1182D01*
X1764Y1180D01*
X1762Y1180D01*
X1762Y1178D01*
X1760Y1178D01*
X1760Y1176D01*
X1756Y1176D01*
X1756Y1174D01*
X1754Y1174D01*
X1754Y1172D01*
X1750Y1172D01*
X1750Y1170D01*
X1746Y1170D01*
X1746Y1168D01*
X1742Y1168D01*
X1742Y1166D01*
X1818Y1166D01*
X1818Y1168D01*
X1812Y1168D01*
X1812Y1170D01*
X1808Y1170D01*
X1808Y1172D01*
X1806Y1172D01*
X1806Y1174D01*
X1802Y1174D01*
X1802Y1176D01*
X1800Y1176D01*
X1800Y1178D01*
X1798Y1178D01*
X1798Y1180D01*
X1796Y1180D01*
X1796Y1182D01*
X1794Y1182D01*
X1794Y1184D01*
X1792Y1184D01*
X1792Y1186D01*
X1790Y1186D01*
X1790Y1188D01*
X1768Y1188D01*
G37*
D02*
G36*
X1542Y1166D02*
X1542Y1164D01*
X1906Y1164D01*
X1906Y1166D01*
X1542Y1166D01*
G37*
D02*
G36*
X1542Y1166D02*
X1542Y1164D01*
X1906Y1164D01*
X1906Y1166D01*
X1542Y1166D01*
G37*
D02*
G36*
X1542Y1166D02*
X1542Y1164D01*
X1906Y1164D01*
X1906Y1166D01*
X1542Y1166D01*
G37*
D02*
G36*
X1542Y1164D02*
X1542Y1158D01*
X1566Y1158D01*
X1566Y1156D01*
X1568Y1156D01*
X1568Y1138D01*
X1844Y1138D01*
X1844Y1136D01*
X1880Y1136D01*
X1880Y1138D01*
X1882Y1138D01*
X1882Y1140D01*
X1884Y1140D01*
X1884Y1142D01*
X1886Y1142D01*
X1886Y1144D01*
X1888Y1144D01*
X1888Y1146D01*
X1890Y1146D01*
X1890Y1148D01*
X1892Y1148D01*
X1892Y1152D01*
X1894Y1152D01*
X1894Y1154D01*
X1896Y1154D01*
X1896Y1156D01*
X1898Y1156D01*
X1898Y1158D01*
X1900Y1158D01*
X1900Y1160D01*
X1902Y1160D01*
X1902Y1162D01*
X1904Y1162D01*
X1904Y1164D01*
X1542Y1164D01*
G37*
D02*
G36*
X1276Y1272D02*
X1276Y1270D01*
X1274Y1270D01*
X1274Y1268D01*
X1272Y1268D01*
X1272Y1266D01*
X1270Y1266D01*
X1270Y1264D01*
X1268Y1264D01*
X1268Y1262D01*
X1266Y1262D01*
X1266Y1260D01*
X1264Y1260D01*
X1264Y1258D01*
X1262Y1258D01*
X1262Y1256D01*
X1260Y1256D01*
X1260Y1192D01*
X1304Y1192D01*
X1304Y1266D01*
X1302Y1266D01*
X1302Y1268D01*
X1300Y1268D01*
X1300Y1270D01*
X1298Y1270D01*
X1298Y1272D01*
X1276Y1272D01*
G37*
D02*
G36*
X852Y1216D02*
X852Y1212D01*
X850Y1212D01*
X850Y1210D01*
X848Y1210D01*
X848Y1208D01*
X846Y1208D01*
X846Y1206D01*
X844Y1206D01*
X844Y1204D01*
X842Y1204D01*
X842Y1202D01*
X840Y1202D01*
X840Y1200D01*
X836Y1200D01*
X836Y1198D01*
X834Y1198D01*
X834Y1196D01*
X830Y1196D01*
X830Y1194D01*
X824Y1194D01*
X824Y1192D01*
X902Y1192D01*
X902Y1194D01*
X896Y1194D01*
X896Y1196D01*
X892Y1196D01*
X892Y1198D01*
X888Y1198D01*
X888Y1200D01*
X886Y1200D01*
X886Y1202D01*
X884Y1202D01*
X884Y1204D01*
X882Y1204D01*
X882Y1206D01*
X880Y1206D01*
X880Y1208D01*
X878Y1208D01*
X878Y1210D01*
X876Y1210D01*
X876Y1212D01*
X874Y1212D01*
X874Y1214D01*
X872Y1214D01*
X872Y1216D01*
X852Y1216D01*
G37*
D02*
G36*
X952Y1216D02*
X952Y1212D01*
X950Y1212D01*
X950Y1210D01*
X948Y1210D01*
X948Y1208D01*
X946Y1208D01*
X946Y1206D01*
X944Y1206D01*
X944Y1204D01*
X942Y1204D01*
X942Y1202D01*
X940Y1202D01*
X940Y1200D01*
X936Y1200D01*
X936Y1198D01*
X934Y1198D01*
X934Y1196D01*
X930Y1196D01*
X930Y1194D01*
X924Y1194D01*
X924Y1192D01*
X1002Y1192D01*
X1002Y1194D01*
X996Y1194D01*
X996Y1196D01*
X992Y1196D01*
X992Y1198D01*
X988Y1198D01*
X988Y1200D01*
X986Y1200D01*
X986Y1202D01*
X984Y1202D01*
X984Y1204D01*
X982Y1204D01*
X982Y1206D01*
X980Y1206D01*
X980Y1208D01*
X978Y1208D01*
X978Y1210D01*
X976Y1210D01*
X976Y1212D01*
X974Y1212D01*
X974Y1214D01*
X972Y1214D01*
X972Y1216D01*
X952Y1216D01*
G37*
D02*
G36*
X1052Y1216D02*
X1052Y1212D01*
X1050Y1212D01*
X1050Y1210D01*
X1048Y1210D01*
X1048Y1208D01*
X1046Y1208D01*
X1046Y1206D01*
X1044Y1206D01*
X1044Y1204D01*
X1042Y1204D01*
X1042Y1202D01*
X1040Y1202D01*
X1040Y1200D01*
X1036Y1200D01*
X1036Y1198D01*
X1034Y1198D01*
X1034Y1196D01*
X1030Y1196D01*
X1030Y1194D01*
X1024Y1194D01*
X1024Y1192D01*
X1102Y1192D01*
X1102Y1194D01*
X1096Y1194D01*
X1096Y1196D01*
X1092Y1196D01*
X1092Y1198D01*
X1088Y1198D01*
X1088Y1200D01*
X1086Y1200D01*
X1086Y1202D01*
X1084Y1202D01*
X1084Y1204D01*
X1082Y1204D01*
X1082Y1206D01*
X1080Y1206D01*
X1080Y1208D01*
X1078Y1208D01*
X1078Y1210D01*
X1076Y1210D01*
X1076Y1212D01*
X1074Y1212D01*
X1074Y1214D01*
X1072Y1214D01*
X1072Y1216D01*
X1052Y1216D01*
G37*
D02*
G36*
X1146Y1208D02*
X1146Y1206D01*
X1144Y1206D01*
X1144Y1204D01*
X1142Y1204D01*
X1142Y1202D01*
X1140Y1202D01*
X1140Y1200D01*
X1136Y1200D01*
X1136Y1198D01*
X1134Y1198D01*
X1134Y1196D01*
X1130Y1196D01*
X1130Y1194D01*
X1124Y1194D01*
X1124Y1192D01*
X1166Y1192D01*
X1166Y1208D01*
X1146Y1208D01*
G37*
D02*
G36*
X818Y1192D02*
X818Y1190D01*
X1304Y1190D01*
X1304Y1192D01*
X818Y1192D01*
G37*
D02*
G36*
X818Y1192D02*
X818Y1190D01*
X1304Y1190D01*
X1304Y1192D01*
X818Y1192D01*
G37*
D02*
G36*
X818Y1192D02*
X818Y1190D01*
X1304Y1190D01*
X1304Y1192D01*
X818Y1192D01*
G37*
D02*
G36*
X818Y1192D02*
X818Y1190D01*
X1304Y1190D01*
X1304Y1192D01*
X818Y1192D01*
G37*
D02*
G36*
X818Y1192D02*
X818Y1190D01*
X1304Y1190D01*
X1304Y1192D01*
X818Y1192D01*
G37*
D02*
G36*
X818Y1190D02*
X818Y1172D01*
X1254Y1172D01*
X1254Y1170D01*
X1260Y1170D01*
X1260Y1168D01*
X1264Y1168D01*
X1264Y1166D01*
X1266Y1166D01*
X1266Y1164D01*
X1268Y1164D01*
X1268Y1162D01*
X1270Y1162D01*
X1270Y1160D01*
X1272Y1160D01*
X1272Y1158D01*
X1274Y1158D01*
X1274Y1156D01*
X1276Y1156D01*
X1276Y1154D01*
X1278Y1154D01*
X1278Y1152D01*
X1280Y1152D01*
X1280Y1150D01*
X1282Y1150D01*
X1282Y1148D01*
X1284Y1148D01*
X1284Y1146D01*
X1286Y1146D01*
X1286Y1144D01*
X1288Y1144D01*
X1288Y1142D01*
X1290Y1142D01*
X1290Y1140D01*
X1292Y1140D01*
X1292Y1138D01*
X1294Y1138D01*
X1294Y1136D01*
X1296Y1136D01*
X1296Y1134D01*
X1298Y1134D01*
X1298Y1132D01*
X1300Y1132D01*
X1300Y1130D01*
X1302Y1130D01*
X1302Y1128D01*
X1304Y1128D01*
X1304Y1126D01*
X1306Y1126D01*
X1306Y1124D01*
X1308Y1124D01*
X1308Y1122D01*
X1310Y1122D01*
X1310Y1120D01*
X1312Y1120D01*
X1312Y1118D01*
X1314Y1118D01*
X1314Y1116D01*
X1316Y1116D01*
X1316Y1114D01*
X1318Y1114D01*
X1318Y1112D01*
X1320Y1112D01*
X1320Y1110D01*
X1322Y1110D01*
X1322Y1108D01*
X1324Y1108D01*
X1324Y1106D01*
X1326Y1106D01*
X1326Y1104D01*
X1328Y1104D01*
X1328Y1102D01*
X1330Y1102D01*
X1330Y1100D01*
X1332Y1100D01*
X1332Y1098D01*
X1334Y1098D01*
X1334Y1096D01*
X1336Y1096D01*
X1336Y1094D01*
X1338Y1094D01*
X1338Y1092D01*
X1340Y1092D01*
X1340Y1090D01*
X1342Y1090D01*
X1342Y1088D01*
X1344Y1088D01*
X1344Y1086D01*
X1346Y1086D01*
X1346Y1084D01*
X1348Y1084D01*
X1348Y1082D01*
X1350Y1082D01*
X1350Y1080D01*
X1352Y1080D01*
X1352Y1078D01*
X1354Y1078D01*
X1354Y1076D01*
X1356Y1076D01*
X1356Y1074D01*
X1358Y1074D01*
X1358Y1072D01*
X1360Y1072D01*
X1360Y1070D01*
X1362Y1070D01*
X1362Y1068D01*
X1364Y1068D01*
X1364Y1066D01*
X1366Y1066D01*
X1366Y1064D01*
X1368Y1064D01*
X1368Y1062D01*
X1370Y1062D01*
X1370Y1060D01*
X1372Y1060D01*
X1372Y1058D01*
X1374Y1058D01*
X1374Y1056D01*
X1376Y1056D01*
X1376Y1054D01*
X1378Y1054D01*
X1378Y1052D01*
X1380Y1052D01*
X1380Y1050D01*
X1382Y1050D01*
X1382Y1048D01*
X1384Y1048D01*
X1384Y1046D01*
X1386Y1046D01*
X1386Y1044D01*
X1388Y1044D01*
X1388Y1042D01*
X1390Y1042D01*
X1390Y1040D01*
X1392Y1040D01*
X1392Y1038D01*
X1394Y1038D01*
X1394Y1036D01*
X1396Y1036D01*
X1396Y1034D01*
X1398Y1034D01*
X1398Y1032D01*
X1400Y1032D01*
X1400Y1030D01*
X1402Y1030D01*
X1402Y1028D01*
X1404Y1028D01*
X1404Y1026D01*
X1406Y1026D01*
X1406Y1024D01*
X1408Y1024D01*
X1408Y1022D01*
X1410Y1022D01*
X1410Y1020D01*
X1412Y1020D01*
X1412Y1018D01*
X1414Y1018D01*
X1414Y1016D01*
X1416Y1016D01*
X1416Y1014D01*
X1418Y1014D01*
X1418Y1012D01*
X1420Y1012D01*
X1420Y1010D01*
X1422Y1010D01*
X1422Y1008D01*
X1424Y1008D01*
X1424Y1006D01*
X1426Y1006D01*
X1426Y1004D01*
X1428Y1004D01*
X1428Y1002D01*
X1430Y1002D01*
X1430Y1000D01*
X1432Y1000D01*
X1432Y998D01*
X1434Y998D01*
X1434Y996D01*
X1436Y996D01*
X1436Y994D01*
X1438Y994D01*
X1438Y992D01*
X1440Y992D01*
X1440Y990D01*
X1442Y990D01*
X1442Y988D01*
X1444Y988D01*
X1444Y986D01*
X1446Y986D01*
X1446Y984D01*
X1448Y984D01*
X1448Y982D01*
X1450Y982D01*
X1450Y980D01*
X1452Y980D01*
X1452Y978D01*
X1454Y978D01*
X1454Y976D01*
X1456Y976D01*
X1456Y974D01*
X1458Y974D01*
X1458Y972D01*
X1460Y972D01*
X1460Y970D01*
X1462Y970D01*
X1462Y968D01*
X1464Y968D01*
X1464Y966D01*
X1466Y966D01*
X1466Y964D01*
X1468Y964D01*
X1468Y962D01*
X1470Y962D01*
X1470Y960D01*
X1472Y960D01*
X1472Y958D01*
X1474Y958D01*
X1474Y956D01*
X1476Y956D01*
X1476Y954D01*
X1478Y954D01*
X1478Y952D01*
X1498Y952D01*
X1498Y956D01*
X1496Y956D01*
X1496Y984D01*
X1494Y984D01*
X1494Y986D01*
X1492Y986D01*
X1492Y988D01*
X1490Y988D01*
X1490Y990D01*
X1488Y990D01*
X1488Y992D01*
X1486Y992D01*
X1486Y994D01*
X1484Y994D01*
X1484Y996D01*
X1482Y996D01*
X1482Y998D01*
X1480Y998D01*
X1480Y1000D01*
X1478Y1000D01*
X1478Y1002D01*
X1476Y1002D01*
X1476Y1004D01*
X1474Y1004D01*
X1474Y1006D01*
X1472Y1006D01*
X1472Y1008D01*
X1470Y1008D01*
X1470Y1010D01*
X1468Y1010D01*
X1468Y1012D01*
X1466Y1012D01*
X1466Y1014D01*
X1464Y1014D01*
X1464Y1018D01*
X1462Y1018D01*
X1462Y1020D01*
X1460Y1020D01*
X1460Y1022D01*
X1458Y1022D01*
X1458Y1024D01*
X1456Y1024D01*
X1456Y1026D01*
X1454Y1026D01*
X1454Y1028D01*
X1452Y1028D01*
X1452Y1030D01*
X1450Y1030D01*
X1450Y1032D01*
X1448Y1032D01*
X1448Y1034D01*
X1446Y1034D01*
X1446Y1036D01*
X1444Y1036D01*
X1444Y1038D01*
X1442Y1038D01*
X1442Y1040D01*
X1440Y1040D01*
X1440Y1042D01*
X1438Y1042D01*
X1438Y1044D01*
X1436Y1044D01*
X1436Y1046D01*
X1434Y1046D01*
X1434Y1048D01*
X1432Y1048D01*
X1432Y1050D01*
X1430Y1050D01*
X1430Y1052D01*
X1428Y1052D01*
X1428Y1054D01*
X1426Y1054D01*
X1426Y1056D01*
X1424Y1056D01*
X1424Y1058D01*
X1422Y1058D01*
X1422Y1062D01*
X1420Y1062D01*
X1420Y1064D01*
X1418Y1064D01*
X1418Y1066D01*
X1416Y1066D01*
X1416Y1068D01*
X1414Y1068D01*
X1414Y1070D01*
X1412Y1070D01*
X1412Y1072D01*
X1410Y1072D01*
X1410Y1074D01*
X1408Y1074D01*
X1408Y1076D01*
X1406Y1076D01*
X1406Y1078D01*
X1404Y1078D01*
X1404Y1080D01*
X1402Y1080D01*
X1402Y1082D01*
X1400Y1082D01*
X1400Y1084D01*
X1398Y1084D01*
X1398Y1086D01*
X1396Y1086D01*
X1396Y1088D01*
X1394Y1088D01*
X1394Y1090D01*
X1392Y1090D01*
X1392Y1092D01*
X1390Y1092D01*
X1390Y1094D01*
X1388Y1094D01*
X1388Y1096D01*
X1386Y1096D01*
X1386Y1098D01*
X1384Y1098D01*
X1384Y1100D01*
X1382Y1100D01*
X1382Y1104D01*
X1380Y1104D01*
X1380Y1106D01*
X1378Y1106D01*
X1378Y1108D01*
X1376Y1108D01*
X1376Y1110D01*
X1374Y1110D01*
X1374Y1112D01*
X1372Y1112D01*
X1372Y1114D01*
X1370Y1114D01*
X1370Y1116D01*
X1368Y1116D01*
X1368Y1118D01*
X1366Y1118D01*
X1366Y1120D01*
X1364Y1120D01*
X1364Y1122D01*
X1362Y1122D01*
X1362Y1124D01*
X1360Y1124D01*
X1360Y1126D01*
X1358Y1126D01*
X1358Y1128D01*
X1356Y1128D01*
X1356Y1130D01*
X1354Y1130D01*
X1354Y1132D01*
X1352Y1132D01*
X1352Y1134D01*
X1350Y1134D01*
X1350Y1136D01*
X1348Y1136D01*
X1348Y1138D01*
X1346Y1138D01*
X1346Y1140D01*
X1344Y1140D01*
X1344Y1142D01*
X1342Y1142D01*
X1342Y1146D01*
X1340Y1146D01*
X1340Y1148D01*
X1338Y1148D01*
X1338Y1150D01*
X1336Y1150D01*
X1336Y1152D01*
X1334Y1152D01*
X1334Y1154D01*
X1332Y1154D01*
X1332Y1156D01*
X1330Y1156D01*
X1330Y1158D01*
X1328Y1158D01*
X1328Y1160D01*
X1326Y1160D01*
X1326Y1162D01*
X1324Y1162D01*
X1324Y1164D01*
X1322Y1164D01*
X1322Y1166D01*
X1320Y1166D01*
X1320Y1168D01*
X1318Y1168D01*
X1318Y1170D01*
X1316Y1170D01*
X1316Y1172D01*
X1314Y1172D01*
X1314Y1174D01*
X1312Y1174D01*
X1312Y1176D01*
X1310Y1176D01*
X1310Y1178D01*
X1308Y1178D01*
X1308Y1182D01*
X1306Y1182D01*
X1306Y1186D01*
X1304Y1186D01*
X1304Y1190D01*
X818Y1190D01*
G37*
D02*
G36*
X710Y1192D02*
X710Y1172D01*
X712Y1172D01*
X712Y1170D01*
X714Y1170D01*
X714Y1168D01*
X716Y1168D01*
X716Y1166D01*
X718Y1166D01*
X718Y1164D01*
X720Y1164D01*
X720Y1162D01*
X722Y1162D01*
X722Y1160D01*
X724Y1160D01*
X724Y1158D01*
X726Y1158D01*
X726Y1156D01*
X728Y1156D01*
X728Y1154D01*
X730Y1154D01*
X730Y1152D01*
X732Y1152D01*
X732Y1150D01*
X734Y1150D01*
X734Y1148D01*
X736Y1148D01*
X736Y1146D01*
X738Y1146D01*
X738Y1144D01*
X740Y1144D01*
X740Y1142D01*
X742Y1142D01*
X742Y1140D01*
X744Y1140D01*
X744Y1138D01*
X746Y1138D01*
X746Y1136D01*
X748Y1136D01*
X748Y1134D01*
X750Y1134D01*
X750Y1132D01*
X776Y1132D01*
X776Y1152D01*
X774Y1152D01*
X774Y1154D01*
X772Y1154D01*
X772Y1156D01*
X770Y1156D01*
X770Y1158D01*
X768Y1158D01*
X768Y1160D01*
X766Y1160D01*
X766Y1162D01*
X764Y1162D01*
X764Y1164D01*
X760Y1164D01*
X760Y1166D01*
X758Y1166D01*
X758Y1168D01*
X756Y1168D01*
X756Y1170D01*
X754Y1170D01*
X754Y1172D01*
X752Y1172D01*
X752Y1174D01*
X750Y1174D01*
X750Y1176D01*
X748Y1176D01*
X748Y1178D01*
X746Y1178D01*
X746Y1180D01*
X744Y1180D01*
X744Y1182D01*
X742Y1182D01*
X742Y1184D01*
X738Y1184D01*
X738Y1186D01*
X736Y1186D01*
X736Y1188D01*
X734Y1188D01*
X734Y1190D01*
X732Y1190D01*
X732Y1192D01*
X710Y1192D01*
G37*
D02*
G36*
X752Y916D02*
X752Y912D01*
X750Y912D01*
X750Y910D01*
X748Y910D01*
X748Y908D01*
X746Y908D01*
X746Y906D01*
X744Y906D01*
X744Y904D01*
X742Y904D01*
X742Y902D01*
X740Y902D01*
X740Y900D01*
X736Y900D01*
X736Y898D01*
X734Y898D01*
X734Y896D01*
X730Y896D01*
X730Y894D01*
X724Y894D01*
X724Y892D01*
X802Y892D01*
X802Y894D01*
X796Y894D01*
X796Y896D01*
X792Y896D01*
X792Y898D01*
X788Y898D01*
X788Y900D01*
X786Y900D01*
X786Y902D01*
X784Y902D01*
X784Y904D01*
X782Y904D01*
X782Y906D01*
X780Y906D01*
X780Y908D01*
X778Y908D01*
X778Y910D01*
X776Y910D01*
X776Y912D01*
X774Y912D01*
X774Y914D01*
X772Y914D01*
X772Y916D01*
X752Y916D01*
G37*
D02*
G36*
X852Y916D02*
X852Y912D01*
X850Y912D01*
X850Y910D01*
X848Y910D01*
X848Y908D01*
X846Y908D01*
X846Y906D01*
X844Y906D01*
X844Y904D01*
X842Y904D01*
X842Y902D01*
X840Y902D01*
X840Y900D01*
X836Y900D01*
X836Y898D01*
X834Y898D01*
X834Y896D01*
X830Y896D01*
X830Y894D01*
X824Y894D01*
X824Y892D01*
X902Y892D01*
X902Y894D01*
X896Y894D01*
X896Y896D01*
X892Y896D01*
X892Y898D01*
X888Y898D01*
X888Y900D01*
X886Y900D01*
X886Y902D01*
X884Y902D01*
X884Y904D01*
X882Y904D01*
X882Y906D01*
X880Y906D01*
X880Y908D01*
X878Y908D01*
X878Y910D01*
X876Y910D01*
X876Y912D01*
X874Y912D01*
X874Y914D01*
X872Y914D01*
X872Y916D01*
X852Y916D01*
G37*
D02*
G36*
X952Y916D02*
X952Y912D01*
X950Y912D01*
X950Y910D01*
X948Y910D01*
X948Y908D01*
X946Y908D01*
X946Y906D01*
X944Y906D01*
X944Y904D01*
X942Y904D01*
X942Y902D01*
X940Y902D01*
X940Y900D01*
X936Y900D01*
X936Y898D01*
X934Y898D01*
X934Y896D01*
X930Y896D01*
X930Y894D01*
X924Y894D01*
X924Y892D01*
X990Y892D01*
X990Y898D01*
X988Y898D01*
X988Y900D01*
X986Y900D01*
X986Y902D01*
X984Y902D01*
X984Y904D01*
X982Y904D01*
X982Y906D01*
X980Y906D01*
X980Y908D01*
X978Y908D01*
X978Y910D01*
X976Y910D01*
X976Y912D01*
X974Y912D01*
X974Y914D01*
X972Y914D01*
X972Y916D01*
X952Y916D01*
G37*
D02*
G36*
X700Y892D02*
X700Y890D01*
X990Y890D01*
X990Y892D01*
X700Y892D01*
G37*
D02*
G36*
X700Y892D02*
X700Y890D01*
X990Y890D01*
X990Y892D01*
X700Y892D01*
G37*
D02*
G36*
X700Y892D02*
X700Y890D01*
X990Y890D01*
X990Y892D01*
X700Y892D01*
G37*
D02*
G36*
X700Y890D02*
X700Y874D01*
X702Y874D01*
X702Y872D01*
X704Y872D01*
X704Y870D01*
X706Y870D01*
X706Y868D01*
X742Y868D01*
X742Y866D01*
X790Y866D01*
X790Y864D01*
X812Y864D01*
X812Y862D01*
X816Y862D01*
X816Y860D01*
X818Y860D01*
X818Y858D01*
X820Y858D01*
X820Y856D01*
X822Y856D01*
X822Y854D01*
X824Y854D01*
X824Y852D01*
X826Y852D01*
X826Y850D01*
X828Y850D01*
X828Y848D01*
X830Y848D01*
X830Y844D01*
X832Y844D01*
X832Y842D01*
X834Y842D01*
X834Y840D01*
X836Y840D01*
X836Y838D01*
X838Y838D01*
X838Y836D01*
X840Y836D01*
X840Y834D01*
X842Y834D01*
X842Y832D01*
X844Y832D01*
X844Y830D01*
X846Y830D01*
X846Y828D01*
X848Y828D01*
X848Y826D01*
X850Y826D01*
X850Y824D01*
X852Y824D01*
X852Y822D01*
X854Y822D01*
X854Y818D01*
X856Y818D01*
X856Y816D01*
X858Y816D01*
X858Y814D01*
X860Y814D01*
X860Y812D01*
X862Y812D01*
X862Y810D01*
X864Y810D01*
X864Y808D01*
X866Y808D01*
X866Y806D01*
X868Y806D01*
X868Y804D01*
X870Y804D01*
X870Y802D01*
X872Y802D01*
X872Y800D01*
X874Y800D01*
X874Y798D01*
X876Y798D01*
X876Y794D01*
X878Y794D01*
X878Y788D01*
X880Y788D01*
X880Y760D01*
X878Y760D01*
X878Y610D01*
X876Y610D01*
X876Y584D01*
X878Y584D01*
X878Y582D01*
X882Y582D01*
X882Y580D01*
X884Y580D01*
X884Y578D01*
X904Y578D01*
X904Y668D01*
X906Y668D01*
X906Y674D01*
X908Y674D01*
X908Y678D01*
X910Y678D01*
X910Y680D01*
X912Y680D01*
X912Y682D01*
X914Y682D01*
X914Y684D01*
X916Y684D01*
X916Y686D01*
X918Y686D01*
X918Y688D01*
X920Y688D01*
X920Y690D01*
X922Y690D01*
X922Y692D01*
X924Y692D01*
X924Y694D01*
X926Y694D01*
X926Y696D01*
X928Y696D01*
X928Y698D01*
X930Y698D01*
X930Y700D01*
X932Y700D01*
X932Y702D01*
X934Y702D01*
X934Y704D01*
X936Y704D01*
X936Y706D01*
X938Y706D01*
X938Y708D01*
X940Y708D01*
X940Y710D01*
X942Y710D01*
X942Y712D01*
X944Y712D01*
X944Y714D01*
X946Y714D01*
X946Y716D01*
X948Y716D01*
X948Y718D01*
X950Y718D01*
X950Y720D01*
X952Y720D01*
X952Y722D01*
X954Y722D01*
X954Y724D01*
X956Y724D01*
X956Y726D01*
X958Y726D01*
X958Y728D01*
X960Y728D01*
X960Y730D01*
X962Y730D01*
X962Y732D01*
X964Y732D01*
X964Y734D01*
X966Y734D01*
X966Y736D01*
X968Y736D01*
X968Y738D01*
X970Y738D01*
X970Y740D01*
X972Y740D01*
X972Y742D01*
X974Y742D01*
X974Y744D01*
X976Y744D01*
X976Y746D01*
X978Y746D01*
X978Y748D01*
X980Y748D01*
X980Y750D01*
X982Y750D01*
X982Y752D01*
X984Y752D01*
X984Y754D01*
X986Y754D01*
X986Y756D01*
X988Y756D01*
X988Y758D01*
X990Y758D01*
X990Y890D01*
X700Y890D01*
G37*
D02*
G36*
X1052Y916D02*
X1052Y912D01*
X1050Y912D01*
X1050Y910D01*
X1048Y910D01*
X1048Y908D01*
X1046Y908D01*
X1046Y906D01*
X1044Y906D01*
X1044Y904D01*
X1042Y904D01*
X1042Y902D01*
X1040Y902D01*
X1040Y900D01*
X1036Y900D01*
X1036Y898D01*
X1034Y898D01*
X1034Y778D01*
X1036Y778D01*
X1036Y750D01*
X1034Y750D01*
X1034Y742D01*
X1032Y742D01*
X1032Y738D01*
X1030Y738D01*
X1030Y736D01*
X1028Y736D01*
X1028Y734D01*
X1026Y734D01*
X1026Y732D01*
X1024Y732D01*
X1024Y730D01*
X1022Y730D01*
X1022Y728D01*
X1020Y728D01*
X1020Y726D01*
X1018Y726D01*
X1018Y724D01*
X1016Y724D01*
X1016Y722D01*
X1014Y722D01*
X1014Y720D01*
X1012Y720D01*
X1012Y718D01*
X1010Y718D01*
X1010Y716D01*
X1008Y716D01*
X1008Y714D01*
X1006Y714D01*
X1006Y712D01*
X1004Y712D01*
X1004Y710D01*
X1002Y710D01*
X1002Y708D01*
X1000Y708D01*
X1000Y706D01*
X998Y706D01*
X998Y704D01*
X996Y704D01*
X996Y702D01*
X994Y702D01*
X994Y700D01*
X992Y700D01*
X992Y698D01*
X990Y698D01*
X990Y696D01*
X988Y696D01*
X988Y694D01*
X986Y694D01*
X986Y692D01*
X984Y692D01*
X984Y690D01*
X982Y690D01*
X982Y688D01*
X980Y688D01*
X980Y686D01*
X978Y686D01*
X978Y684D01*
X976Y684D01*
X976Y682D01*
X974Y682D01*
X974Y680D01*
X972Y680D01*
X972Y678D01*
X970Y678D01*
X970Y676D01*
X968Y676D01*
X968Y674D01*
X966Y674D01*
X966Y672D01*
X964Y672D01*
X964Y670D01*
X962Y670D01*
X962Y668D01*
X960Y668D01*
X960Y666D01*
X958Y666D01*
X958Y664D01*
X956Y664D01*
X956Y662D01*
X954Y662D01*
X954Y660D01*
X952Y660D01*
X952Y658D01*
X950Y658D01*
X950Y656D01*
X948Y656D01*
X948Y654D01*
X968Y654D01*
X968Y656D01*
X970Y656D01*
X970Y658D01*
X972Y658D01*
X972Y660D01*
X974Y660D01*
X974Y662D01*
X976Y662D01*
X976Y664D01*
X978Y664D01*
X978Y666D01*
X980Y666D01*
X980Y668D01*
X982Y668D01*
X982Y670D01*
X984Y670D01*
X984Y672D01*
X986Y672D01*
X986Y674D01*
X988Y674D01*
X988Y676D01*
X990Y676D01*
X990Y678D01*
X992Y678D01*
X992Y680D01*
X994Y680D01*
X994Y682D01*
X996Y682D01*
X996Y684D01*
X998Y684D01*
X998Y686D01*
X1000Y686D01*
X1000Y688D01*
X1002Y688D01*
X1002Y690D01*
X1004Y690D01*
X1004Y692D01*
X1006Y692D01*
X1006Y694D01*
X1008Y694D01*
X1008Y696D01*
X1010Y696D01*
X1010Y698D01*
X1012Y698D01*
X1012Y700D01*
X1014Y700D01*
X1014Y702D01*
X1016Y702D01*
X1016Y704D01*
X1018Y704D01*
X1018Y706D01*
X1020Y706D01*
X1020Y708D01*
X1022Y708D01*
X1022Y710D01*
X1024Y710D01*
X1024Y712D01*
X1026Y712D01*
X1026Y714D01*
X1028Y714D01*
X1028Y716D01*
X1030Y716D01*
X1030Y718D01*
X1032Y718D01*
X1032Y720D01*
X1034Y720D01*
X1034Y722D01*
X1036Y722D01*
X1036Y724D01*
X1038Y724D01*
X1038Y726D01*
X1040Y726D01*
X1040Y728D01*
X1042Y728D01*
X1042Y730D01*
X1044Y730D01*
X1044Y732D01*
X1046Y732D01*
X1046Y734D01*
X1048Y734D01*
X1048Y736D01*
X1050Y736D01*
X1050Y738D01*
X1052Y738D01*
X1052Y740D01*
X1054Y740D01*
X1054Y742D01*
X1056Y742D01*
X1056Y744D01*
X1058Y744D01*
X1058Y746D01*
X1060Y746D01*
X1060Y748D01*
X1062Y748D01*
X1062Y750D01*
X1064Y750D01*
X1064Y752D01*
X1066Y752D01*
X1066Y754D01*
X1068Y754D01*
X1068Y756D01*
X1070Y756D01*
X1070Y758D01*
X1072Y758D01*
X1072Y760D01*
X1074Y760D01*
X1074Y762D01*
X1076Y762D01*
X1076Y764D01*
X1078Y764D01*
X1078Y766D01*
X1080Y766D01*
X1080Y768D01*
X1082Y768D01*
X1082Y770D01*
X1084Y770D01*
X1084Y772D01*
X1086Y772D01*
X1086Y774D01*
X1088Y774D01*
X1088Y776D01*
X1090Y776D01*
X1090Y778D01*
X1092Y778D01*
X1092Y780D01*
X1094Y780D01*
X1094Y782D01*
X1096Y782D01*
X1096Y842D01*
X1094Y842D01*
X1094Y886D01*
X1092Y886D01*
X1092Y898D01*
X1088Y898D01*
X1088Y900D01*
X1086Y900D01*
X1086Y902D01*
X1084Y902D01*
X1084Y904D01*
X1082Y904D01*
X1082Y906D01*
X1080Y906D01*
X1080Y908D01*
X1078Y908D01*
X1078Y910D01*
X1076Y910D01*
X1076Y912D01*
X1074Y912D01*
X1074Y914D01*
X1072Y914D01*
X1072Y916D01*
X1052Y916D01*
G37*
D02*
G36*
X1788Y648D02*
X1788Y646D01*
X1768Y646D01*
X1768Y556D01*
X1788Y556D01*
X1788Y560D01*
X1790Y560D01*
X1790Y564D01*
X1792Y564D01*
X1792Y566D01*
X1794Y566D01*
X1794Y568D01*
X1796Y568D01*
X1796Y570D01*
X1798Y570D01*
X1798Y572D01*
X1800Y572D01*
X1800Y574D01*
X1802Y574D01*
X1802Y576D01*
X1804Y576D01*
X1804Y578D01*
X1808Y578D01*
X1808Y648D01*
X1788Y648D01*
G37*
D02*
G36*
X40Y504D02*
X40Y452D01*
X60Y452D01*
X60Y454D01*
X62Y454D01*
X62Y456D01*
X64Y456D01*
X64Y458D01*
X66Y458D01*
X66Y460D01*
X68Y460D01*
X68Y462D01*
X70Y462D01*
X70Y464D01*
X74Y464D01*
X74Y466D01*
X78Y466D01*
X78Y468D01*
X82Y468D01*
X82Y490D01*
X76Y490D01*
X76Y492D01*
X72Y492D01*
X72Y494D01*
X70Y494D01*
X70Y496D01*
X66Y496D01*
X66Y498D01*
X64Y498D01*
X64Y500D01*
X62Y500D01*
X62Y502D01*
X60Y502D01*
X60Y504D01*
X40Y504D01*
G37*
D02*
G36*
X926Y458D02*
X926Y456D01*
X924Y456D01*
X924Y454D01*
X922Y454D01*
X922Y452D01*
X920Y452D01*
X920Y450D01*
X918Y450D01*
X918Y448D01*
X916Y448D01*
X916Y446D01*
X914Y446D01*
X914Y444D01*
X912Y444D01*
X912Y442D01*
X910Y442D01*
X910Y440D01*
X908Y440D01*
X908Y438D01*
X906Y438D01*
X906Y412D01*
X904Y412D01*
X904Y406D01*
X902Y406D01*
X902Y402D01*
X900Y402D01*
X900Y400D01*
X898Y400D01*
X898Y398D01*
X918Y398D01*
X918Y400D01*
X920Y400D01*
X920Y402D01*
X922Y402D01*
X922Y404D01*
X924Y404D01*
X924Y406D01*
X926Y406D01*
X926Y408D01*
X928Y408D01*
X928Y410D01*
X930Y410D01*
X930Y412D01*
X932Y412D01*
X932Y414D01*
X934Y414D01*
X934Y416D01*
X936Y416D01*
X936Y418D01*
X938Y418D01*
X938Y420D01*
X940Y420D01*
X940Y422D01*
X942Y422D01*
X942Y424D01*
X944Y424D01*
X944Y426D01*
X946Y426D01*
X946Y458D01*
X926Y458D01*
G37*
D02*
G36*
X1416Y934D02*
X1416Y730D01*
X1788Y730D01*
X1788Y728D01*
X1808Y728D01*
X1808Y738D01*
X1806Y738D01*
X1806Y740D01*
X1804Y740D01*
X1804Y742D01*
X1802Y742D01*
X1802Y744D01*
X1800Y744D01*
X1800Y746D01*
X1798Y746D01*
X1798Y748D01*
X1796Y748D01*
X1796Y750D01*
X1794Y750D01*
X1794Y752D01*
X1792Y752D01*
X1792Y754D01*
X1790Y754D01*
X1790Y756D01*
X1788Y756D01*
X1788Y758D01*
X1786Y758D01*
X1786Y760D01*
X1784Y760D01*
X1784Y762D01*
X1780Y762D01*
X1780Y764D01*
X1778Y764D01*
X1778Y766D01*
X1776Y766D01*
X1776Y768D01*
X1774Y768D01*
X1774Y770D01*
X1772Y770D01*
X1772Y772D01*
X1770Y772D01*
X1770Y774D01*
X1768Y774D01*
X1768Y776D01*
X1766Y776D01*
X1766Y778D01*
X1764Y778D01*
X1764Y780D01*
X1762Y780D01*
X1762Y782D01*
X1760Y782D01*
X1760Y784D01*
X1758Y784D01*
X1758Y786D01*
X1756Y786D01*
X1756Y788D01*
X1754Y788D01*
X1754Y790D01*
X1750Y790D01*
X1750Y792D01*
X1748Y792D01*
X1748Y794D01*
X1578Y794D01*
X1578Y796D01*
X1572Y796D01*
X1572Y798D01*
X1570Y798D01*
X1570Y800D01*
X1568Y800D01*
X1568Y802D01*
X1566Y802D01*
X1566Y804D01*
X1564Y804D01*
X1564Y806D01*
X1562Y806D01*
X1562Y808D01*
X1560Y808D01*
X1560Y810D01*
X1558Y810D01*
X1558Y812D01*
X1556Y812D01*
X1556Y814D01*
X1554Y814D01*
X1554Y816D01*
X1552Y816D01*
X1552Y818D01*
X1550Y818D01*
X1550Y820D01*
X1548Y820D01*
X1548Y822D01*
X1546Y822D01*
X1546Y824D01*
X1544Y824D01*
X1544Y826D01*
X1542Y826D01*
X1542Y828D01*
X1540Y828D01*
X1540Y830D01*
X1538Y830D01*
X1538Y832D01*
X1536Y832D01*
X1536Y834D01*
X1534Y834D01*
X1534Y836D01*
X1532Y836D01*
X1532Y838D01*
X1530Y838D01*
X1530Y840D01*
X1528Y840D01*
X1528Y842D01*
X1526Y842D01*
X1526Y844D01*
X1524Y844D01*
X1524Y846D01*
X1522Y846D01*
X1522Y848D01*
X1520Y848D01*
X1520Y850D01*
X1518Y850D01*
X1518Y852D01*
X1516Y852D01*
X1516Y854D01*
X1514Y854D01*
X1514Y856D01*
X1512Y856D01*
X1512Y858D01*
X1510Y858D01*
X1510Y860D01*
X1508Y860D01*
X1508Y862D01*
X1506Y862D01*
X1506Y864D01*
X1504Y864D01*
X1504Y866D01*
X1502Y866D01*
X1502Y868D01*
X1500Y868D01*
X1500Y870D01*
X1498Y870D01*
X1498Y872D01*
X1496Y872D01*
X1496Y874D01*
X1494Y874D01*
X1494Y876D01*
X1492Y876D01*
X1492Y878D01*
X1490Y878D01*
X1490Y880D01*
X1488Y880D01*
X1488Y882D01*
X1486Y882D01*
X1486Y884D01*
X1484Y884D01*
X1484Y886D01*
X1482Y886D01*
X1482Y888D01*
X1480Y888D01*
X1480Y890D01*
X1478Y890D01*
X1478Y892D01*
X1476Y892D01*
X1476Y894D01*
X1474Y894D01*
X1474Y896D01*
X1472Y896D01*
X1472Y898D01*
X1470Y898D01*
X1470Y900D01*
X1468Y900D01*
X1468Y902D01*
X1466Y902D01*
X1466Y904D01*
X1464Y904D01*
X1464Y906D01*
X1462Y906D01*
X1462Y908D01*
X1460Y908D01*
X1460Y910D01*
X1458Y910D01*
X1458Y912D01*
X1456Y912D01*
X1456Y914D01*
X1454Y914D01*
X1454Y916D01*
X1452Y916D01*
X1452Y918D01*
X1450Y918D01*
X1450Y920D01*
X1448Y920D01*
X1448Y922D01*
X1446Y922D01*
X1446Y924D01*
X1444Y924D01*
X1444Y926D01*
X1442Y926D01*
X1442Y928D01*
X1440Y928D01*
X1440Y930D01*
X1438Y930D01*
X1438Y932D01*
X1436Y932D01*
X1436Y934D01*
X1416Y934D01*
G37*
D02*
G36*
X1416Y730D02*
X1416Y602D01*
X1414Y602D01*
X1414Y596D01*
X1412Y596D01*
X1412Y594D01*
X1410Y594D01*
X1410Y592D01*
X1408Y592D01*
X1408Y588D01*
X1406Y588D01*
X1406Y586D01*
X1404Y586D01*
X1404Y584D01*
X1402Y584D01*
X1402Y582D01*
X1400Y582D01*
X1400Y580D01*
X1398Y580D01*
X1398Y576D01*
X1396Y576D01*
X1396Y574D01*
X1394Y574D01*
X1394Y572D01*
X1392Y572D01*
X1392Y570D01*
X1390Y570D01*
X1390Y568D01*
X1388Y568D01*
X1388Y564D01*
X1386Y564D01*
X1386Y562D01*
X1384Y562D01*
X1384Y560D01*
X1382Y560D01*
X1382Y526D01*
X1380Y526D01*
X1380Y522D01*
X1378Y522D01*
X1378Y518D01*
X1376Y518D01*
X1376Y514D01*
X1374Y514D01*
X1374Y510D01*
X1372Y510D01*
X1372Y508D01*
X1370Y508D01*
X1370Y506D01*
X1368Y506D01*
X1368Y504D01*
X1366Y504D01*
X1366Y502D01*
X1364Y502D01*
X1364Y500D01*
X1362Y500D01*
X1362Y498D01*
X1358Y498D01*
X1358Y496D01*
X1354Y496D01*
X1354Y494D01*
X1350Y494D01*
X1350Y492D01*
X1518Y492D01*
X1518Y494D01*
X1512Y494D01*
X1512Y496D01*
X1510Y496D01*
X1510Y498D01*
X1506Y498D01*
X1506Y500D01*
X1504Y500D01*
X1504Y502D01*
X1500Y502D01*
X1500Y504D01*
X1498Y504D01*
X1498Y506D01*
X1496Y506D01*
X1496Y508D01*
X1494Y508D01*
X1494Y510D01*
X1492Y510D01*
X1492Y514D01*
X1490Y514D01*
X1490Y516D01*
X1488Y516D01*
X1488Y520D01*
X1486Y520D01*
X1486Y526D01*
X1484Y526D01*
X1484Y532D01*
X1482Y532D01*
X1482Y546D01*
X1484Y546D01*
X1484Y552D01*
X1486Y552D01*
X1486Y556D01*
X1488Y556D01*
X1488Y560D01*
X1490Y560D01*
X1490Y564D01*
X1492Y564D01*
X1492Y566D01*
X1494Y566D01*
X1494Y568D01*
X1496Y568D01*
X1496Y570D01*
X1498Y570D01*
X1498Y572D01*
X1500Y572D01*
X1500Y574D01*
X1502Y574D01*
X1502Y576D01*
X1504Y576D01*
X1504Y578D01*
X1508Y578D01*
X1508Y580D01*
X1512Y580D01*
X1512Y582D01*
X1516Y582D01*
X1516Y584D01*
X1522Y584D01*
X1522Y586D01*
X1550Y586D01*
X1550Y588D01*
X1552Y588D01*
X1552Y590D01*
X1554Y590D01*
X1554Y592D01*
X1556Y592D01*
X1556Y594D01*
X1558Y594D01*
X1558Y596D01*
X1560Y596D01*
X1560Y598D01*
X1562Y598D01*
X1562Y600D01*
X1564Y600D01*
X1564Y602D01*
X1566Y602D01*
X1566Y604D01*
X1568Y604D01*
X1568Y606D01*
X1570Y606D01*
X1570Y608D01*
X1572Y608D01*
X1572Y610D01*
X1574Y610D01*
X1574Y612D01*
X1576Y612D01*
X1576Y614D01*
X1578Y614D01*
X1578Y616D01*
X1580Y616D01*
X1580Y618D01*
X1584Y618D01*
X1584Y620D01*
X1586Y620D01*
X1586Y622D01*
X1588Y622D01*
X1588Y624D01*
X1590Y624D01*
X1590Y626D01*
X1592Y626D01*
X1592Y628D01*
X1594Y628D01*
X1594Y630D01*
X1596Y630D01*
X1596Y632D01*
X1598Y632D01*
X1598Y634D01*
X1600Y634D01*
X1600Y636D01*
X1602Y636D01*
X1602Y638D01*
X1604Y638D01*
X1604Y640D01*
X1606Y640D01*
X1606Y642D01*
X1608Y642D01*
X1608Y644D01*
X1610Y644D01*
X1610Y646D01*
X1612Y646D01*
X1612Y648D01*
X1614Y648D01*
X1614Y670D01*
X1612Y670D01*
X1612Y674D01*
X1610Y674D01*
X1610Y678D01*
X1608Y678D01*
X1608Y696D01*
X1610Y696D01*
X1610Y702D01*
X1612Y702D01*
X1612Y706D01*
X1614Y706D01*
X1614Y710D01*
X1616Y710D01*
X1616Y712D01*
X1618Y712D01*
X1618Y714D01*
X1620Y714D01*
X1620Y716D01*
X1622Y716D01*
X1622Y718D01*
X1624Y718D01*
X1624Y720D01*
X1626Y720D01*
X1626Y722D01*
X1630Y722D01*
X1630Y724D01*
X1632Y724D01*
X1632Y726D01*
X1638Y726D01*
X1638Y728D01*
X1646Y728D01*
X1646Y730D01*
X1416Y730D01*
G37*
D02*
G36*
X1652Y730D02*
X1652Y728D01*
X1660Y728D01*
X1660Y726D01*
X1666Y726D01*
X1666Y724D01*
X1668Y724D01*
X1668Y722D01*
X1672Y722D01*
X1672Y720D01*
X1674Y720D01*
X1674Y718D01*
X1676Y718D01*
X1676Y716D01*
X1678Y716D01*
X1678Y714D01*
X1680Y714D01*
X1680Y712D01*
X1682Y712D01*
X1682Y710D01*
X1684Y710D01*
X1684Y706D01*
X1686Y706D01*
X1686Y702D01*
X1706Y702D01*
X1706Y730D01*
X1652Y730D01*
G37*
D02*
G36*
X1686Y672D02*
X1686Y670D01*
X1684Y670D01*
X1684Y666D01*
X1682Y666D01*
X1682Y664D01*
X1680Y664D01*
X1680Y662D01*
X1678Y662D01*
X1678Y658D01*
X1674Y658D01*
X1674Y656D01*
X1672Y656D01*
X1672Y654D01*
X1670Y654D01*
X1670Y644D01*
X1668Y644D01*
X1668Y640D01*
X1666Y640D01*
X1666Y636D01*
X1664Y636D01*
X1664Y634D01*
X1662Y634D01*
X1662Y632D01*
X1660Y632D01*
X1660Y630D01*
X1658Y630D01*
X1658Y628D01*
X1656Y628D01*
X1656Y626D01*
X1654Y626D01*
X1654Y624D01*
X1652Y624D01*
X1652Y622D01*
X1650Y622D01*
X1650Y620D01*
X1648Y620D01*
X1648Y618D01*
X1646Y618D01*
X1646Y616D01*
X1642Y616D01*
X1642Y614D01*
X1640Y614D01*
X1640Y612D01*
X1638Y612D01*
X1638Y610D01*
X1636Y610D01*
X1636Y608D01*
X1634Y608D01*
X1634Y606D01*
X1632Y606D01*
X1632Y604D01*
X1630Y604D01*
X1630Y602D01*
X1628Y602D01*
X1628Y600D01*
X1626Y600D01*
X1626Y598D01*
X1624Y598D01*
X1624Y596D01*
X1622Y596D01*
X1622Y594D01*
X1620Y594D01*
X1620Y592D01*
X1618Y592D01*
X1618Y590D01*
X1616Y590D01*
X1616Y588D01*
X1614Y588D01*
X1614Y586D01*
X1612Y586D01*
X1612Y584D01*
X1610Y584D01*
X1610Y582D01*
X1606Y582D01*
X1606Y580D01*
X1604Y580D01*
X1604Y578D01*
X1602Y578D01*
X1602Y576D01*
X1600Y576D01*
X1600Y574D01*
X1598Y574D01*
X1598Y572D01*
X1596Y572D01*
X1596Y570D01*
X1594Y570D01*
X1594Y568D01*
X1592Y568D01*
X1592Y566D01*
X1590Y566D01*
X1590Y564D01*
X1588Y564D01*
X1588Y562D01*
X1586Y562D01*
X1586Y560D01*
X1584Y560D01*
X1584Y558D01*
X1582Y558D01*
X1582Y556D01*
X1580Y556D01*
X1580Y554D01*
X1578Y554D01*
X1578Y534D01*
X1576Y534D01*
X1576Y526D01*
X1574Y526D01*
X1574Y520D01*
X1572Y520D01*
X1572Y518D01*
X1570Y518D01*
X1570Y514D01*
X1568Y514D01*
X1568Y512D01*
X1566Y512D01*
X1566Y508D01*
X1564Y508D01*
X1564Y506D01*
X1562Y506D01*
X1562Y504D01*
X1558Y504D01*
X1558Y502D01*
X1556Y502D01*
X1556Y500D01*
X1554Y500D01*
X1554Y498D01*
X1550Y498D01*
X1550Y496D01*
X1546Y496D01*
X1546Y494D01*
X1542Y494D01*
X1542Y492D01*
X1724Y492D01*
X1724Y646D01*
X1706Y646D01*
X1706Y672D01*
X1686Y672D01*
G37*
D02*
G36*
X1276Y514D02*
X1276Y490D01*
X1326Y490D01*
X1326Y492D01*
X1320Y492D01*
X1320Y494D01*
X1316Y494D01*
X1316Y496D01*
X1312Y496D01*
X1312Y498D01*
X1310Y498D01*
X1310Y500D01*
X1306Y500D01*
X1306Y502D01*
X1304Y502D01*
X1304Y504D01*
X1302Y504D01*
X1302Y506D01*
X1300Y506D01*
X1300Y508D01*
X1298Y508D01*
X1298Y512D01*
X1296Y512D01*
X1296Y514D01*
X1276Y514D01*
G37*
D02*
G36*
X1346Y492D02*
X1346Y490D01*
X1722Y490D01*
X1722Y492D01*
X1346Y492D01*
G37*
D02*
G36*
X1346Y492D02*
X1346Y490D01*
X1722Y490D01*
X1722Y492D01*
X1346Y492D01*
G37*
D02*
G36*
X1276Y490D02*
X1276Y488D01*
X1722Y488D01*
X1722Y490D01*
X1276Y490D01*
G37*
D02*
G36*
X1276Y490D02*
X1276Y488D01*
X1722Y488D01*
X1722Y490D01*
X1276Y490D01*
G37*
D02*
G36*
X1276Y488D02*
X1276Y470D01*
X1544Y470D01*
X1544Y468D01*
X1548Y468D01*
X1548Y466D01*
X1552Y466D01*
X1552Y464D01*
X1556Y464D01*
X1556Y462D01*
X1558Y462D01*
X1558Y460D01*
X1560Y460D01*
X1560Y458D01*
X1564Y458D01*
X1564Y456D01*
X1566Y456D01*
X1566Y454D01*
X1568Y454D01*
X1568Y450D01*
X1570Y450D01*
X1570Y448D01*
X1572Y448D01*
X1572Y444D01*
X1574Y444D01*
X1574Y442D01*
X1576Y442D01*
X1576Y436D01*
X1578Y436D01*
X1578Y430D01*
X1580Y430D01*
X1580Y418D01*
X1578Y418D01*
X1578Y410D01*
X1576Y410D01*
X1576Y406D01*
X1574Y406D01*
X1574Y402D01*
X1572Y402D01*
X1572Y398D01*
X1570Y398D01*
X1570Y396D01*
X1568Y396D01*
X1568Y394D01*
X1566Y394D01*
X1566Y392D01*
X1564Y392D01*
X1564Y390D01*
X1562Y390D01*
X1562Y388D01*
X1560Y388D01*
X1560Y386D01*
X1558Y386D01*
X1558Y384D01*
X1554Y384D01*
X1554Y382D01*
X1552Y382D01*
X1552Y380D01*
X1546Y380D01*
X1546Y378D01*
X1542Y378D01*
X1542Y376D01*
X1622Y376D01*
X1622Y378D01*
X1624Y378D01*
X1624Y380D01*
X1626Y380D01*
X1626Y382D01*
X1628Y382D01*
X1628Y384D01*
X1630Y384D01*
X1630Y386D01*
X1632Y386D01*
X1632Y388D01*
X1634Y388D01*
X1634Y390D01*
X1636Y390D01*
X1636Y392D01*
X1638Y392D01*
X1638Y394D01*
X1640Y394D01*
X1640Y396D01*
X1642Y396D01*
X1642Y398D01*
X1644Y398D01*
X1644Y400D01*
X1646Y400D01*
X1646Y402D01*
X1648Y402D01*
X1648Y404D01*
X1650Y404D01*
X1650Y406D01*
X1652Y406D01*
X1652Y408D01*
X1654Y408D01*
X1654Y410D01*
X1656Y410D01*
X1656Y412D01*
X1658Y412D01*
X1658Y414D01*
X1660Y414D01*
X1660Y416D01*
X1662Y416D01*
X1662Y418D01*
X1664Y418D01*
X1664Y420D01*
X1666Y420D01*
X1666Y422D01*
X1668Y422D01*
X1668Y424D01*
X1670Y424D01*
X1670Y426D01*
X1672Y426D01*
X1672Y428D01*
X1674Y428D01*
X1674Y430D01*
X1676Y430D01*
X1676Y432D01*
X1678Y432D01*
X1678Y434D01*
X1680Y434D01*
X1680Y436D01*
X1682Y436D01*
X1682Y438D01*
X1684Y438D01*
X1684Y440D01*
X1686Y440D01*
X1686Y442D01*
X1688Y442D01*
X1688Y444D01*
X1690Y444D01*
X1690Y446D01*
X1692Y446D01*
X1692Y448D01*
X1694Y448D01*
X1694Y450D01*
X1696Y450D01*
X1696Y452D01*
X1698Y452D01*
X1698Y454D01*
X1700Y454D01*
X1700Y456D01*
X1702Y456D01*
X1702Y458D01*
X1704Y458D01*
X1704Y460D01*
X1706Y460D01*
X1706Y462D01*
X1708Y462D01*
X1708Y464D01*
X1710Y464D01*
X1710Y466D01*
X1712Y466D01*
X1712Y468D01*
X1714Y468D01*
X1714Y470D01*
X1716Y470D01*
X1716Y472D01*
X1718Y472D01*
X1718Y474D01*
X1720Y474D01*
X1720Y476D01*
X1722Y476D01*
X1722Y488D01*
X1276Y488D01*
G37*
D02*
G36*
X1276Y470D02*
X1276Y440D01*
X1296Y440D01*
X1296Y444D01*
X1298Y444D01*
X1298Y446D01*
X1300Y446D01*
X1300Y450D01*
X1302Y450D01*
X1302Y452D01*
X1304Y452D01*
X1304Y454D01*
X1306Y454D01*
X1306Y456D01*
X1308Y456D01*
X1308Y458D01*
X1310Y458D01*
X1310Y460D01*
X1312Y460D01*
X1312Y462D01*
X1316Y462D01*
X1316Y464D01*
X1318Y464D01*
X1318Y466D01*
X1322Y466D01*
X1322Y468D01*
X1328Y468D01*
X1328Y470D01*
X1276Y470D01*
G37*
D02*
G36*
X1350Y470D02*
X1350Y468D01*
X1356Y468D01*
X1356Y466D01*
X1360Y466D01*
X1360Y464D01*
X1362Y464D01*
X1362Y462D01*
X1366Y462D01*
X1366Y460D01*
X1368Y460D01*
X1368Y458D01*
X1370Y458D01*
X1370Y456D01*
X1372Y456D01*
X1372Y454D01*
X1374Y454D01*
X1374Y452D01*
X1376Y452D01*
X1376Y450D01*
X1378Y450D01*
X1378Y446D01*
X1380Y446D01*
X1380Y442D01*
X1382Y442D01*
X1382Y438D01*
X1384Y438D01*
X1384Y432D01*
X1386Y432D01*
X1386Y414D01*
X1384Y414D01*
X1384Y408D01*
X1382Y408D01*
X1382Y404D01*
X1380Y404D01*
X1380Y400D01*
X1378Y400D01*
X1378Y398D01*
X1376Y398D01*
X1376Y394D01*
X1374Y394D01*
X1374Y392D01*
X1372Y392D01*
X1372Y390D01*
X1370Y390D01*
X1370Y388D01*
X1368Y388D01*
X1368Y386D01*
X1364Y386D01*
X1364Y384D01*
X1362Y384D01*
X1362Y382D01*
X1358Y382D01*
X1358Y380D01*
X1354Y380D01*
X1354Y378D01*
X1348Y378D01*
X1348Y376D01*
X1524Y376D01*
X1524Y378D01*
X1518Y378D01*
X1518Y380D01*
X1514Y380D01*
X1514Y382D01*
X1510Y382D01*
X1510Y384D01*
X1506Y384D01*
X1506Y386D01*
X1504Y386D01*
X1504Y388D01*
X1502Y388D01*
X1502Y390D01*
X1500Y390D01*
X1500Y392D01*
X1498Y392D01*
X1498Y394D01*
X1496Y394D01*
X1496Y396D01*
X1494Y396D01*
X1494Y398D01*
X1492Y398D01*
X1492Y402D01*
X1490Y402D01*
X1490Y406D01*
X1488Y406D01*
X1488Y410D01*
X1486Y410D01*
X1486Y418D01*
X1484Y418D01*
X1484Y428D01*
X1486Y428D01*
X1486Y436D01*
X1488Y436D01*
X1488Y442D01*
X1490Y442D01*
X1490Y444D01*
X1492Y444D01*
X1492Y448D01*
X1494Y448D01*
X1494Y450D01*
X1496Y450D01*
X1496Y452D01*
X1498Y452D01*
X1498Y456D01*
X1500Y456D01*
X1500Y458D01*
X1504Y458D01*
X1504Y460D01*
X1506Y460D01*
X1506Y462D01*
X1508Y462D01*
X1508Y464D01*
X1512Y464D01*
X1512Y466D01*
X1516Y466D01*
X1516Y468D01*
X1522Y468D01*
X1522Y470D01*
X1350Y470D01*
G37*
D02*
G36*
X1276Y408D02*
X1276Y394D01*
X1278Y394D01*
X1278Y376D01*
X1330Y376D01*
X1330Y378D01*
X1324Y378D01*
X1324Y380D01*
X1320Y380D01*
X1320Y382D01*
X1316Y382D01*
X1316Y384D01*
X1314Y384D01*
X1314Y386D01*
X1310Y386D01*
X1310Y388D01*
X1308Y388D01*
X1308Y390D01*
X1306Y390D01*
X1306Y392D01*
X1304Y392D01*
X1304Y394D01*
X1302Y394D01*
X1302Y398D01*
X1300Y398D01*
X1300Y400D01*
X1298Y400D01*
X1298Y404D01*
X1296Y404D01*
X1296Y408D01*
X1276Y408D01*
G37*
D02*
G36*
X1278Y376D02*
X1278Y374D01*
X1620Y374D01*
X1620Y376D01*
X1278Y376D01*
G37*
D02*
G36*
X1278Y376D02*
X1278Y374D01*
X1620Y374D01*
X1620Y376D01*
X1278Y376D01*
G37*
D02*
G36*
X1278Y376D02*
X1278Y374D01*
X1620Y374D01*
X1620Y376D01*
X1278Y376D01*
G37*
D02*
G36*
X1278Y374D02*
X1278Y348D01*
X1280Y348D01*
X1280Y344D01*
X1282Y344D01*
X1282Y342D01*
X1284Y342D01*
X1284Y340D01*
X1286Y340D01*
X1286Y338D01*
X1288Y338D01*
X1288Y336D01*
X1290Y336D01*
X1290Y334D01*
X1292Y334D01*
X1292Y332D01*
X1294Y332D01*
X1294Y330D01*
X1296Y330D01*
X1296Y328D01*
X1298Y328D01*
X1298Y324D01*
X1300Y324D01*
X1300Y322D01*
X1324Y322D01*
X1324Y320D01*
X1330Y320D01*
X1330Y318D01*
X1334Y318D01*
X1334Y316D01*
X1338Y316D01*
X1338Y314D01*
X1340Y314D01*
X1340Y312D01*
X1344Y312D01*
X1344Y310D01*
X1346Y310D01*
X1346Y308D01*
X1348Y308D01*
X1348Y306D01*
X1350Y306D01*
X1350Y302D01*
X1352Y302D01*
X1352Y300D01*
X1354Y300D01*
X1354Y298D01*
X1356Y298D01*
X1356Y296D01*
X1510Y296D01*
X1510Y300D01*
X1512Y300D01*
X1512Y302D01*
X1514Y302D01*
X1514Y304D01*
X1516Y304D01*
X1516Y306D01*
X1518Y306D01*
X1518Y308D01*
X1520Y308D01*
X1520Y310D01*
X1522Y310D01*
X1522Y312D01*
X1524Y312D01*
X1524Y314D01*
X1528Y314D01*
X1528Y316D01*
X1530Y316D01*
X1530Y318D01*
X1536Y318D01*
X1536Y320D01*
X1542Y320D01*
X1542Y322D01*
X1568Y322D01*
X1568Y324D01*
X1570Y324D01*
X1570Y326D01*
X1572Y326D01*
X1572Y328D01*
X1574Y328D01*
X1574Y330D01*
X1576Y330D01*
X1576Y332D01*
X1578Y332D01*
X1578Y334D01*
X1580Y334D01*
X1580Y336D01*
X1582Y336D01*
X1582Y338D01*
X1584Y338D01*
X1584Y340D01*
X1586Y340D01*
X1586Y342D01*
X1588Y342D01*
X1588Y344D01*
X1590Y344D01*
X1590Y346D01*
X1592Y346D01*
X1592Y348D01*
X1594Y348D01*
X1594Y350D01*
X1596Y350D01*
X1596Y352D01*
X1598Y352D01*
X1598Y354D01*
X1600Y354D01*
X1600Y356D01*
X1602Y356D01*
X1602Y358D01*
X1604Y358D01*
X1604Y360D01*
X1606Y360D01*
X1606Y362D01*
X1608Y362D01*
X1608Y364D01*
X1610Y364D01*
X1610Y366D01*
X1612Y366D01*
X1612Y368D01*
X1614Y368D01*
X1614Y370D01*
X1616Y370D01*
X1616Y372D01*
X1618Y372D01*
X1618Y374D01*
X1278Y374D01*
G37*
D02*
G36*
X40Y1340D02*
X40Y1294D01*
X278Y1294D01*
X278Y1292D01*
X284Y1292D01*
X284Y1290D01*
X288Y1290D01*
X288Y1288D01*
X292Y1288D01*
X292Y1286D01*
X1122Y1286D01*
X1122Y1284D01*
X1128Y1284D01*
X1128Y1282D01*
X1132Y1282D01*
X1132Y1280D01*
X1134Y1280D01*
X1134Y1278D01*
X1138Y1278D01*
X1138Y1276D01*
X1140Y1276D01*
X1140Y1274D01*
X1142Y1274D01*
X1142Y1272D01*
X1146Y1272D01*
X1146Y1268D01*
X1166Y1268D01*
X1166Y1286D01*
X1230Y1286D01*
X1230Y1288D01*
X1232Y1288D01*
X1232Y1290D01*
X1234Y1290D01*
X1234Y1292D01*
X1236Y1292D01*
X1236Y1294D01*
X1238Y1294D01*
X1238Y1296D01*
X1240Y1296D01*
X1240Y1298D01*
X1242Y1298D01*
X1242Y1300D01*
X1244Y1300D01*
X1244Y1302D01*
X1246Y1302D01*
X1246Y1304D01*
X1248Y1304D01*
X1248Y1306D01*
X1250Y1306D01*
X1250Y1308D01*
X1252Y1308D01*
X1252Y1310D01*
X1254Y1310D01*
X1254Y1312D01*
X1256Y1312D01*
X1256Y1314D01*
X1258Y1314D01*
X1258Y1316D01*
X1260Y1316D01*
X1260Y1318D01*
X1262Y1318D01*
X1262Y1320D01*
X1264Y1320D01*
X1264Y1340D01*
X40Y1340D01*
G37*
D02*
G36*
X40Y1294D02*
X40Y1196D01*
X258Y1196D01*
X258Y1198D01*
X252Y1198D01*
X252Y1200D01*
X248Y1200D01*
X248Y1202D01*
X246Y1202D01*
X246Y1204D01*
X242Y1204D01*
X242Y1206D01*
X240Y1206D01*
X240Y1208D01*
X238Y1208D01*
X238Y1210D01*
X236Y1210D01*
X236Y1212D01*
X234Y1212D01*
X234Y1214D01*
X232Y1214D01*
X232Y1216D01*
X230Y1216D01*
X230Y1218D01*
X228Y1218D01*
X228Y1222D01*
X226Y1222D01*
X226Y1224D01*
X224Y1224D01*
X224Y1228D01*
X222Y1228D01*
X222Y1234D01*
X220Y1234D01*
X220Y1254D01*
X222Y1254D01*
X222Y1260D01*
X224Y1260D01*
X224Y1264D01*
X226Y1264D01*
X226Y1268D01*
X228Y1268D01*
X228Y1272D01*
X230Y1272D01*
X230Y1274D01*
X232Y1274D01*
X232Y1276D01*
X234Y1276D01*
X234Y1278D01*
X236Y1278D01*
X236Y1280D01*
X238Y1280D01*
X238Y1282D01*
X240Y1282D01*
X240Y1284D01*
X244Y1284D01*
X244Y1286D01*
X246Y1286D01*
X246Y1288D01*
X250Y1288D01*
X250Y1290D01*
X254Y1290D01*
X254Y1292D01*
X260Y1292D01*
X260Y1294D01*
X40Y1294D01*
G37*
D02*
G36*
X296Y1286D02*
X296Y1284D01*
X298Y1284D01*
X298Y1282D01*
X300Y1282D01*
X300Y1280D01*
X302Y1280D01*
X302Y1278D01*
X304Y1278D01*
X304Y1276D01*
X306Y1276D01*
X306Y1274D01*
X308Y1274D01*
X308Y1272D01*
X310Y1272D01*
X310Y1268D01*
X312Y1268D01*
X312Y1264D01*
X314Y1264D01*
X314Y1260D01*
X316Y1260D01*
X316Y1256D01*
X318Y1256D01*
X318Y1234D01*
X316Y1234D01*
X316Y1228D01*
X314Y1228D01*
X314Y1224D01*
X312Y1224D01*
X312Y1220D01*
X310Y1220D01*
X310Y1218D01*
X308Y1218D01*
X308Y1216D01*
X306Y1216D01*
X306Y1214D01*
X304Y1214D01*
X304Y1210D01*
X302Y1210D01*
X302Y1208D01*
X298Y1208D01*
X298Y1206D01*
X296Y1206D01*
X296Y1204D01*
X294Y1204D01*
X294Y1202D01*
X290Y1202D01*
X290Y1200D01*
X286Y1200D01*
X286Y1198D01*
X280Y1198D01*
X280Y1196D01*
X592Y1196D01*
X592Y1198D01*
X588Y1198D01*
X588Y1200D01*
X586Y1200D01*
X586Y1202D01*
X584Y1202D01*
X584Y1204D01*
X582Y1204D01*
X582Y1206D01*
X580Y1206D01*
X580Y1208D01*
X578Y1208D01*
X578Y1210D01*
X576Y1210D01*
X576Y1212D01*
X574Y1212D01*
X574Y1214D01*
X572Y1214D01*
X572Y1218D01*
X570Y1218D01*
X570Y1222D01*
X568Y1222D01*
X568Y1228D01*
X566Y1228D01*
X566Y1250D01*
X568Y1250D01*
X568Y1256D01*
X570Y1256D01*
X570Y1258D01*
X572Y1258D01*
X572Y1262D01*
X574Y1262D01*
X574Y1266D01*
X576Y1266D01*
X576Y1268D01*
X578Y1268D01*
X578Y1270D01*
X580Y1270D01*
X580Y1272D01*
X582Y1272D01*
X582Y1274D01*
X584Y1274D01*
X584Y1276D01*
X588Y1276D01*
X588Y1278D01*
X590Y1278D01*
X590Y1280D01*
X594Y1280D01*
X594Y1282D01*
X598Y1282D01*
X598Y1284D01*
X604Y1284D01*
X604Y1286D01*
X296Y1286D01*
G37*
D02*
G36*
X622Y1286D02*
X622Y1284D01*
X628Y1284D01*
X628Y1282D01*
X632Y1282D01*
X632Y1280D01*
X634Y1280D01*
X634Y1278D01*
X638Y1278D01*
X638Y1276D01*
X640Y1276D01*
X640Y1274D01*
X642Y1274D01*
X642Y1272D01*
X646Y1272D01*
X646Y1268D01*
X648Y1268D01*
X648Y1266D01*
X650Y1266D01*
X650Y1264D01*
X652Y1264D01*
X652Y1260D01*
X672Y1260D01*
X672Y1262D01*
X674Y1262D01*
X674Y1266D01*
X676Y1266D01*
X676Y1268D01*
X678Y1268D01*
X678Y1270D01*
X680Y1270D01*
X680Y1272D01*
X682Y1272D01*
X682Y1274D01*
X684Y1274D01*
X684Y1276D01*
X688Y1276D01*
X688Y1278D01*
X690Y1278D01*
X690Y1280D01*
X694Y1280D01*
X694Y1282D01*
X698Y1282D01*
X698Y1284D01*
X704Y1284D01*
X704Y1286D01*
X622Y1286D01*
G37*
D02*
G36*
X722Y1286D02*
X722Y1284D01*
X728Y1284D01*
X728Y1282D01*
X732Y1282D01*
X732Y1280D01*
X734Y1280D01*
X734Y1278D01*
X738Y1278D01*
X738Y1276D01*
X740Y1276D01*
X740Y1274D01*
X742Y1274D01*
X742Y1272D01*
X746Y1272D01*
X746Y1268D01*
X748Y1268D01*
X748Y1266D01*
X750Y1266D01*
X750Y1264D01*
X752Y1264D01*
X752Y1260D01*
X772Y1260D01*
X772Y1262D01*
X774Y1262D01*
X774Y1266D01*
X776Y1266D01*
X776Y1268D01*
X778Y1268D01*
X778Y1270D01*
X780Y1270D01*
X780Y1272D01*
X782Y1272D01*
X782Y1274D01*
X784Y1274D01*
X784Y1276D01*
X788Y1276D01*
X788Y1278D01*
X790Y1278D01*
X790Y1280D01*
X794Y1280D01*
X794Y1282D01*
X798Y1282D01*
X798Y1284D01*
X804Y1284D01*
X804Y1286D01*
X722Y1286D01*
G37*
D02*
G36*
X822Y1286D02*
X822Y1284D01*
X828Y1284D01*
X828Y1282D01*
X832Y1282D01*
X832Y1280D01*
X834Y1280D01*
X834Y1278D01*
X838Y1278D01*
X838Y1276D01*
X840Y1276D01*
X840Y1274D01*
X842Y1274D01*
X842Y1272D01*
X846Y1272D01*
X846Y1268D01*
X848Y1268D01*
X848Y1266D01*
X850Y1266D01*
X850Y1264D01*
X852Y1264D01*
X852Y1260D01*
X872Y1260D01*
X872Y1262D01*
X874Y1262D01*
X874Y1266D01*
X876Y1266D01*
X876Y1268D01*
X878Y1268D01*
X878Y1270D01*
X880Y1270D01*
X880Y1272D01*
X882Y1272D01*
X882Y1274D01*
X884Y1274D01*
X884Y1276D01*
X888Y1276D01*
X888Y1278D01*
X890Y1278D01*
X890Y1280D01*
X894Y1280D01*
X894Y1282D01*
X898Y1282D01*
X898Y1284D01*
X904Y1284D01*
X904Y1286D01*
X822Y1286D01*
G37*
D02*
G36*
X922Y1286D02*
X922Y1284D01*
X928Y1284D01*
X928Y1282D01*
X932Y1282D01*
X932Y1280D01*
X934Y1280D01*
X934Y1278D01*
X938Y1278D01*
X938Y1276D01*
X940Y1276D01*
X940Y1274D01*
X942Y1274D01*
X942Y1272D01*
X946Y1272D01*
X946Y1268D01*
X948Y1268D01*
X948Y1266D01*
X950Y1266D01*
X950Y1264D01*
X952Y1264D01*
X952Y1260D01*
X972Y1260D01*
X972Y1262D01*
X974Y1262D01*
X974Y1266D01*
X976Y1266D01*
X976Y1268D01*
X978Y1268D01*
X978Y1270D01*
X980Y1270D01*
X980Y1272D01*
X982Y1272D01*
X982Y1274D01*
X984Y1274D01*
X984Y1276D01*
X988Y1276D01*
X988Y1278D01*
X990Y1278D01*
X990Y1280D01*
X994Y1280D01*
X994Y1282D01*
X998Y1282D01*
X998Y1284D01*
X1004Y1284D01*
X1004Y1286D01*
X922Y1286D01*
G37*
D02*
G36*
X1022Y1286D02*
X1022Y1284D01*
X1028Y1284D01*
X1028Y1282D01*
X1032Y1282D01*
X1032Y1280D01*
X1034Y1280D01*
X1034Y1278D01*
X1038Y1278D01*
X1038Y1276D01*
X1040Y1276D01*
X1040Y1274D01*
X1042Y1274D01*
X1042Y1272D01*
X1046Y1272D01*
X1046Y1268D01*
X1048Y1268D01*
X1048Y1266D01*
X1050Y1266D01*
X1050Y1264D01*
X1052Y1264D01*
X1052Y1260D01*
X1072Y1260D01*
X1072Y1262D01*
X1074Y1262D01*
X1074Y1266D01*
X1076Y1266D01*
X1076Y1268D01*
X1078Y1268D01*
X1078Y1270D01*
X1080Y1270D01*
X1080Y1272D01*
X1082Y1272D01*
X1082Y1274D01*
X1084Y1274D01*
X1084Y1276D01*
X1088Y1276D01*
X1088Y1278D01*
X1090Y1278D01*
X1090Y1280D01*
X1094Y1280D01*
X1094Y1282D01*
X1098Y1282D01*
X1098Y1284D01*
X1104Y1284D01*
X1104Y1286D01*
X1022Y1286D01*
G37*
D02*
G36*
X40Y1196D02*
X40Y1194D01*
X596Y1194D01*
X596Y1196D01*
X40Y1196D01*
G37*
D02*
G36*
X40Y1196D02*
X40Y1194D01*
X596Y1194D01*
X596Y1196D01*
X40Y1196D01*
G37*
D02*
G36*
X40Y1194D02*
X40Y1026D01*
X318Y1026D01*
X318Y986D01*
X1222Y986D01*
X1222Y984D01*
X1228Y984D01*
X1228Y982D01*
X1232Y982D01*
X1232Y980D01*
X1234Y980D01*
X1234Y978D01*
X1238Y978D01*
X1238Y976D01*
X1240Y976D01*
X1240Y974D01*
X1242Y974D01*
X1242Y972D01*
X1246Y972D01*
X1246Y968D01*
X1248Y968D01*
X1248Y966D01*
X1250Y966D01*
X1250Y964D01*
X1252Y964D01*
X1252Y962D01*
X1254Y962D01*
X1254Y958D01*
X1256Y958D01*
X1256Y954D01*
X1258Y954D01*
X1258Y948D01*
X1260Y948D01*
X1260Y930D01*
X1258Y930D01*
X1258Y924D01*
X1256Y924D01*
X1256Y920D01*
X1254Y920D01*
X1254Y916D01*
X1252Y916D01*
X1252Y912D01*
X1250Y912D01*
X1250Y910D01*
X1248Y910D01*
X1248Y908D01*
X1246Y908D01*
X1246Y906D01*
X1244Y906D01*
X1244Y904D01*
X1242Y904D01*
X1242Y902D01*
X1240Y902D01*
X1240Y900D01*
X1236Y900D01*
X1236Y898D01*
X1234Y898D01*
X1234Y896D01*
X1230Y896D01*
X1230Y894D01*
X1224Y894D01*
X1224Y892D01*
X1372Y892D01*
X1372Y932D01*
X1370Y932D01*
X1370Y934D01*
X1368Y934D01*
X1368Y936D01*
X1366Y936D01*
X1366Y938D01*
X1364Y938D01*
X1364Y940D01*
X1362Y940D01*
X1362Y942D01*
X1360Y942D01*
X1360Y944D01*
X1358Y944D01*
X1358Y946D01*
X1356Y946D01*
X1356Y948D01*
X1354Y948D01*
X1354Y950D01*
X1352Y950D01*
X1352Y952D01*
X1350Y952D01*
X1350Y954D01*
X1348Y954D01*
X1348Y956D01*
X1346Y956D01*
X1346Y958D01*
X1344Y958D01*
X1344Y960D01*
X1342Y960D01*
X1342Y962D01*
X1340Y962D01*
X1340Y964D01*
X1338Y964D01*
X1338Y966D01*
X1336Y966D01*
X1336Y968D01*
X1334Y968D01*
X1334Y970D01*
X1332Y970D01*
X1332Y972D01*
X1330Y972D01*
X1330Y974D01*
X1328Y974D01*
X1328Y976D01*
X1326Y976D01*
X1326Y980D01*
X1324Y980D01*
X1324Y982D01*
X1322Y982D01*
X1322Y984D01*
X1320Y984D01*
X1320Y986D01*
X1318Y986D01*
X1318Y988D01*
X1316Y988D01*
X1316Y990D01*
X1314Y990D01*
X1314Y992D01*
X1312Y992D01*
X1312Y994D01*
X1310Y994D01*
X1310Y996D01*
X1308Y996D01*
X1308Y998D01*
X1306Y998D01*
X1306Y1000D01*
X1304Y1000D01*
X1304Y1002D01*
X1302Y1002D01*
X1302Y1004D01*
X1300Y1004D01*
X1300Y1006D01*
X1298Y1006D01*
X1298Y1008D01*
X1296Y1008D01*
X1296Y1010D01*
X1294Y1010D01*
X1294Y1012D01*
X1292Y1012D01*
X1292Y1014D01*
X1290Y1014D01*
X1290Y1016D01*
X1288Y1016D01*
X1288Y1018D01*
X1286Y1018D01*
X1286Y1020D01*
X1284Y1020D01*
X1284Y1022D01*
X1282Y1022D01*
X1282Y1024D01*
X1280Y1024D01*
X1280Y1026D01*
X1278Y1026D01*
X1278Y1028D01*
X1276Y1028D01*
X1276Y1032D01*
X1274Y1032D01*
X1274Y1034D01*
X1272Y1034D01*
X1272Y1036D01*
X1270Y1036D01*
X1270Y1038D01*
X1268Y1038D01*
X1268Y1040D01*
X1266Y1040D01*
X1266Y1042D01*
X1264Y1042D01*
X1264Y1044D01*
X1262Y1044D01*
X1262Y1046D01*
X1260Y1046D01*
X1260Y1048D01*
X1258Y1048D01*
X1258Y1050D01*
X1256Y1050D01*
X1256Y1052D01*
X1254Y1052D01*
X1254Y1054D01*
X1252Y1054D01*
X1252Y1056D01*
X1250Y1056D01*
X1250Y1058D01*
X1248Y1058D01*
X1248Y1060D01*
X1246Y1060D01*
X1246Y1062D01*
X1244Y1062D01*
X1244Y1064D01*
X1242Y1064D01*
X1242Y1066D01*
X1240Y1066D01*
X1240Y1068D01*
X1238Y1068D01*
X1238Y1070D01*
X1236Y1070D01*
X1236Y1072D01*
X1234Y1072D01*
X1234Y1074D01*
X1232Y1074D01*
X1232Y1076D01*
X1230Y1076D01*
X1230Y1078D01*
X1228Y1078D01*
X1228Y1080D01*
X1226Y1080D01*
X1226Y1082D01*
X1224Y1082D01*
X1224Y1086D01*
X1222Y1086D01*
X1222Y1088D01*
X736Y1088D01*
X736Y1090D01*
X730Y1090D01*
X730Y1092D01*
X728Y1092D01*
X728Y1094D01*
X726Y1094D01*
X726Y1096D01*
X724Y1096D01*
X724Y1098D01*
X722Y1098D01*
X722Y1100D01*
X720Y1100D01*
X720Y1102D01*
X718Y1102D01*
X718Y1104D01*
X716Y1104D01*
X716Y1106D01*
X714Y1106D01*
X714Y1108D01*
X712Y1108D01*
X712Y1110D01*
X710Y1110D01*
X710Y1112D01*
X708Y1112D01*
X708Y1114D01*
X706Y1114D01*
X706Y1116D01*
X704Y1116D01*
X704Y1118D01*
X702Y1118D01*
X702Y1120D01*
X700Y1120D01*
X700Y1122D01*
X698Y1122D01*
X698Y1124D01*
X696Y1124D01*
X696Y1126D01*
X694Y1126D01*
X694Y1128D01*
X692Y1128D01*
X692Y1130D01*
X690Y1130D01*
X690Y1132D01*
X688Y1132D01*
X688Y1134D01*
X686Y1134D01*
X686Y1136D01*
X684Y1136D01*
X684Y1138D01*
X682Y1138D01*
X682Y1140D01*
X680Y1140D01*
X680Y1142D01*
X678Y1142D01*
X678Y1144D01*
X676Y1144D01*
X676Y1146D01*
X674Y1146D01*
X674Y1148D01*
X672Y1148D01*
X672Y1150D01*
X670Y1150D01*
X670Y1152D01*
X668Y1152D01*
X668Y1154D01*
X666Y1154D01*
X666Y1156D01*
X664Y1156D01*
X664Y1158D01*
X662Y1158D01*
X662Y1160D01*
X660Y1160D01*
X660Y1162D01*
X658Y1162D01*
X658Y1164D01*
X656Y1164D01*
X656Y1166D01*
X654Y1166D01*
X654Y1168D01*
X652Y1168D01*
X652Y1170D01*
X650Y1170D01*
X650Y1172D01*
X648Y1172D01*
X648Y1174D01*
X646Y1174D01*
X646Y1176D01*
X644Y1176D01*
X644Y1178D01*
X642Y1178D01*
X642Y1180D01*
X640Y1180D01*
X640Y1182D01*
X638Y1182D01*
X638Y1184D01*
X636Y1184D01*
X636Y1186D01*
X634Y1186D01*
X634Y1188D01*
X632Y1188D01*
X632Y1190D01*
X630Y1190D01*
X630Y1192D01*
X602Y1192D01*
X602Y1194D01*
X40Y1194D01*
G37*
D02*
G36*
X1908Y1104D02*
X1908Y1102D01*
X1906Y1102D01*
X1906Y1100D01*
X1904Y1100D01*
X1904Y1098D01*
X1902Y1098D01*
X1902Y1096D01*
X1898Y1096D01*
X1898Y1094D01*
X1892Y1094D01*
X1892Y1092D01*
X1928Y1092D01*
X1928Y1104D01*
X1908Y1104D01*
G37*
D02*
G36*
X1568Y1094D02*
X1568Y1092D01*
X1838Y1092D01*
X1838Y1094D01*
X1568Y1094D01*
G37*
D02*
G36*
X1568Y1092D02*
X1568Y1090D01*
X1928Y1090D01*
X1928Y1092D01*
X1568Y1092D01*
G37*
D02*
G36*
X1568Y1092D02*
X1568Y1090D01*
X1928Y1090D01*
X1928Y1092D01*
X1568Y1092D01*
G37*
D02*
G36*
X1568Y1090D02*
X1568Y1074D01*
X1488Y1074D01*
X1488Y1054D01*
X1490Y1054D01*
X1490Y1052D01*
X1492Y1052D01*
X1492Y1050D01*
X1494Y1050D01*
X1494Y1048D01*
X1496Y1048D01*
X1496Y1046D01*
X1498Y1046D01*
X1498Y1044D01*
X1500Y1044D01*
X1500Y1040D01*
X1502Y1040D01*
X1502Y1038D01*
X1504Y1038D01*
X1504Y1036D01*
X1506Y1036D01*
X1506Y1034D01*
X1508Y1034D01*
X1508Y1032D01*
X1510Y1032D01*
X1510Y1030D01*
X1512Y1030D01*
X1512Y1028D01*
X1514Y1028D01*
X1514Y1026D01*
X1516Y1026D01*
X1516Y1024D01*
X1518Y1024D01*
X1518Y1022D01*
X1520Y1022D01*
X1520Y1020D01*
X1522Y1020D01*
X1522Y1018D01*
X1524Y1018D01*
X1524Y1016D01*
X1526Y1016D01*
X1526Y1014D01*
X1528Y1014D01*
X1528Y1012D01*
X1766Y1012D01*
X1766Y1010D01*
X1772Y1010D01*
X1772Y1008D01*
X1776Y1008D01*
X1776Y1006D01*
X1780Y1006D01*
X1780Y1004D01*
X1782Y1004D01*
X1782Y1002D01*
X1784Y1002D01*
X1784Y1000D01*
X1788Y1000D01*
X1788Y998D01*
X1790Y998D01*
X1790Y996D01*
X1792Y996D01*
X1792Y992D01*
X1794Y992D01*
X1794Y990D01*
X1796Y990D01*
X1796Y986D01*
X1798Y986D01*
X1798Y984D01*
X1800Y984D01*
X1800Y978D01*
X1802Y978D01*
X1802Y972D01*
X1804Y972D01*
X1804Y960D01*
X1802Y960D01*
X1802Y952D01*
X1800Y952D01*
X1800Y948D01*
X1798Y948D01*
X1798Y944D01*
X1796Y944D01*
X1796Y940D01*
X1794Y940D01*
X1794Y938D01*
X1792Y938D01*
X1792Y936D01*
X1790Y936D01*
X1790Y934D01*
X1788Y934D01*
X1788Y932D01*
X1786Y932D01*
X1786Y930D01*
X1784Y930D01*
X1784Y928D01*
X1782Y928D01*
X1782Y926D01*
X1778Y926D01*
X1778Y924D01*
X1774Y924D01*
X1774Y922D01*
X1770Y922D01*
X1770Y920D01*
X1762Y920D01*
X1762Y918D01*
X1928Y918D01*
X1928Y1090D01*
X1568Y1090D01*
G37*
D02*
G36*
X40Y1026D02*
X40Y724D01*
X202Y724D01*
X202Y722D01*
X208Y722D01*
X208Y720D01*
X212Y720D01*
X212Y718D01*
X216Y718D01*
X216Y716D01*
X218Y716D01*
X218Y714D01*
X220Y714D01*
X220Y712D01*
X222Y712D01*
X222Y710D01*
X224Y710D01*
X224Y708D01*
X226Y708D01*
X226Y706D01*
X228Y706D01*
X228Y702D01*
X230Y702D01*
X230Y698D01*
X250Y698D01*
X250Y710D01*
X248Y710D01*
X248Y716D01*
X246Y716D01*
X246Y928D01*
X220Y928D01*
X220Y1026D01*
X40Y1026D01*
G37*
D02*
G36*
X1552Y1012D02*
X1552Y1010D01*
X1558Y1010D01*
X1558Y1008D01*
X1562Y1008D01*
X1562Y1006D01*
X1566Y1006D01*
X1566Y1004D01*
X1568Y1004D01*
X1568Y1002D01*
X1570Y1002D01*
X1570Y1000D01*
X1574Y1000D01*
X1574Y998D01*
X1576Y998D01*
X1576Y996D01*
X1578Y996D01*
X1578Y992D01*
X1580Y992D01*
X1580Y990D01*
X1582Y990D01*
X1582Y986D01*
X1584Y986D01*
X1584Y984D01*
X1586Y984D01*
X1586Y978D01*
X1606Y978D01*
X1606Y984D01*
X1608Y984D01*
X1608Y986D01*
X1610Y986D01*
X1610Y990D01*
X1612Y990D01*
X1612Y992D01*
X1614Y992D01*
X1614Y994D01*
X1616Y994D01*
X1616Y998D01*
X1618Y998D01*
X1618Y1000D01*
X1622Y1000D01*
X1622Y1002D01*
X1624Y1002D01*
X1624Y1004D01*
X1626Y1004D01*
X1626Y1006D01*
X1630Y1006D01*
X1630Y1008D01*
X1634Y1008D01*
X1634Y1010D01*
X1640Y1010D01*
X1640Y1012D01*
X1552Y1012D01*
G37*
D02*
G36*
X1660Y1012D02*
X1660Y1010D01*
X1666Y1010D01*
X1666Y1008D01*
X1670Y1008D01*
X1670Y1006D01*
X1672Y1006D01*
X1672Y1004D01*
X1676Y1004D01*
X1676Y1002D01*
X1678Y1002D01*
X1678Y1000D01*
X1680Y1000D01*
X1680Y998D01*
X1682Y998D01*
X1682Y996D01*
X1684Y996D01*
X1684Y994D01*
X1686Y994D01*
X1686Y992D01*
X1688Y992D01*
X1688Y988D01*
X1690Y988D01*
X1690Y986D01*
X1692Y986D01*
X1692Y982D01*
X1694Y982D01*
X1694Y980D01*
X1714Y980D01*
X1714Y984D01*
X1716Y984D01*
X1716Y988D01*
X1718Y988D01*
X1718Y992D01*
X1720Y992D01*
X1720Y994D01*
X1722Y994D01*
X1722Y996D01*
X1724Y996D01*
X1724Y998D01*
X1726Y998D01*
X1726Y1000D01*
X1728Y1000D01*
X1728Y1002D01*
X1730Y1002D01*
X1730Y1004D01*
X1734Y1004D01*
X1734Y1006D01*
X1738Y1006D01*
X1738Y1008D01*
X1742Y1008D01*
X1742Y1010D01*
X1746Y1010D01*
X1746Y1012D01*
X1660Y1012D01*
G37*
D02*
G36*
X318Y986D02*
X318Y928D01*
X290Y928D01*
X290Y776D01*
X686Y776D01*
X686Y774D01*
X692Y774D01*
X692Y772D01*
X694Y772D01*
X694Y770D01*
X696Y770D01*
X696Y768D01*
X700Y768D01*
X700Y766D01*
X702Y766D01*
X702Y764D01*
X704Y764D01*
X704Y762D01*
X706Y762D01*
X706Y760D01*
X708Y760D01*
X708Y758D01*
X710Y758D01*
X710Y756D01*
X712Y756D01*
X712Y754D01*
X714Y754D01*
X714Y752D01*
X718Y752D01*
X718Y750D01*
X720Y750D01*
X720Y748D01*
X722Y748D01*
X722Y746D01*
X724Y746D01*
X724Y744D01*
X726Y744D01*
X726Y742D01*
X728Y742D01*
X728Y740D01*
X730Y740D01*
X730Y738D01*
X732Y738D01*
X732Y736D01*
X734Y736D01*
X734Y734D01*
X738Y734D01*
X738Y732D01*
X740Y732D01*
X740Y730D01*
X742Y730D01*
X742Y728D01*
X744Y728D01*
X744Y726D01*
X800Y726D01*
X800Y644D01*
X842Y644D01*
X842Y782D01*
X840Y782D01*
X840Y784D01*
X838Y784D01*
X838Y786D01*
X836Y786D01*
X836Y788D01*
X834Y788D01*
X834Y790D01*
X832Y790D01*
X832Y792D01*
X830Y792D01*
X830Y794D01*
X828Y794D01*
X828Y796D01*
X826Y796D01*
X826Y798D01*
X824Y798D01*
X824Y800D01*
X822Y800D01*
X822Y802D01*
X820Y802D01*
X820Y804D01*
X818Y804D01*
X818Y808D01*
X816Y808D01*
X816Y810D01*
X814Y810D01*
X814Y812D01*
X812Y812D01*
X812Y814D01*
X810Y814D01*
X810Y816D01*
X808Y816D01*
X808Y818D01*
X806Y818D01*
X806Y820D01*
X804Y820D01*
X804Y822D01*
X802Y822D01*
X802Y824D01*
X800Y824D01*
X800Y826D01*
X798Y826D01*
X798Y828D01*
X788Y828D01*
X788Y830D01*
X742Y830D01*
X742Y832D01*
X698Y832D01*
X698Y834D01*
X690Y834D01*
X690Y836D01*
X688Y836D01*
X688Y838D01*
X686Y838D01*
X686Y840D01*
X684Y840D01*
X684Y842D01*
X682Y842D01*
X682Y844D01*
X680Y844D01*
X680Y846D01*
X678Y846D01*
X678Y848D01*
X676Y848D01*
X676Y850D01*
X674Y850D01*
X674Y852D01*
X672Y852D01*
X672Y854D01*
X670Y854D01*
X670Y856D01*
X668Y856D01*
X668Y858D01*
X666Y858D01*
X666Y860D01*
X664Y860D01*
X664Y862D01*
X662Y862D01*
X662Y864D01*
X660Y864D01*
X660Y866D01*
X658Y866D01*
X658Y868D01*
X656Y868D01*
X656Y870D01*
X654Y870D01*
X654Y872D01*
X652Y872D01*
X652Y874D01*
X650Y874D01*
X650Y876D01*
X648Y876D01*
X648Y878D01*
X646Y878D01*
X646Y880D01*
X644Y880D01*
X644Y882D01*
X642Y882D01*
X642Y884D01*
X640Y884D01*
X640Y886D01*
X638Y886D01*
X638Y888D01*
X636Y888D01*
X636Y890D01*
X634Y890D01*
X634Y892D01*
X602Y892D01*
X602Y894D01*
X596Y894D01*
X596Y896D01*
X592Y896D01*
X592Y898D01*
X588Y898D01*
X588Y900D01*
X586Y900D01*
X586Y902D01*
X584Y902D01*
X584Y904D01*
X582Y904D01*
X582Y906D01*
X580Y906D01*
X580Y908D01*
X578Y908D01*
X578Y910D01*
X576Y910D01*
X576Y912D01*
X574Y912D01*
X574Y914D01*
X572Y914D01*
X572Y918D01*
X570Y918D01*
X570Y922D01*
X568Y922D01*
X568Y928D01*
X566Y928D01*
X566Y950D01*
X568Y950D01*
X568Y956D01*
X570Y956D01*
X570Y958D01*
X572Y958D01*
X572Y962D01*
X574Y962D01*
X574Y966D01*
X576Y966D01*
X576Y968D01*
X578Y968D01*
X578Y970D01*
X580Y970D01*
X580Y972D01*
X582Y972D01*
X582Y974D01*
X584Y974D01*
X584Y976D01*
X588Y976D01*
X588Y978D01*
X590Y978D01*
X590Y980D01*
X594Y980D01*
X594Y982D01*
X598Y982D01*
X598Y984D01*
X604Y984D01*
X604Y986D01*
X318Y986D01*
G37*
D02*
G36*
X622Y986D02*
X622Y984D01*
X628Y984D01*
X628Y982D01*
X632Y982D01*
X632Y980D01*
X634Y980D01*
X634Y978D01*
X638Y978D01*
X638Y976D01*
X640Y976D01*
X640Y974D01*
X642Y974D01*
X642Y972D01*
X646Y972D01*
X646Y968D01*
X648Y968D01*
X648Y966D01*
X650Y966D01*
X650Y964D01*
X652Y964D01*
X652Y960D01*
X672Y960D01*
X672Y962D01*
X674Y962D01*
X674Y966D01*
X676Y966D01*
X676Y968D01*
X678Y968D01*
X678Y970D01*
X680Y970D01*
X680Y972D01*
X682Y972D01*
X682Y974D01*
X684Y974D01*
X684Y976D01*
X688Y976D01*
X688Y978D01*
X690Y978D01*
X690Y980D01*
X694Y980D01*
X694Y982D01*
X698Y982D01*
X698Y984D01*
X704Y984D01*
X704Y986D01*
X622Y986D01*
G37*
D02*
G36*
X722Y986D02*
X722Y984D01*
X728Y984D01*
X728Y982D01*
X732Y982D01*
X732Y980D01*
X734Y980D01*
X734Y978D01*
X738Y978D01*
X738Y976D01*
X740Y976D01*
X740Y974D01*
X742Y974D01*
X742Y972D01*
X746Y972D01*
X746Y968D01*
X748Y968D01*
X748Y966D01*
X750Y966D01*
X750Y964D01*
X752Y964D01*
X752Y960D01*
X772Y960D01*
X772Y962D01*
X774Y962D01*
X774Y966D01*
X776Y966D01*
X776Y968D01*
X778Y968D01*
X778Y970D01*
X780Y970D01*
X780Y972D01*
X782Y972D01*
X782Y974D01*
X784Y974D01*
X784Y976D01*
X788Y976D01*
X788Y978D01*
X790Y978D01*
X790Y980D01*
X794Y980D01*
X794Y982D01*
X798Y982D01*
X798Y984D01*
X804Y984D01*
X804Y986D01*
X722Y986D01*
G37*
D02*
G36*
X822Y986D02*
X822Y984D01*
X828Y984D01*
X828Y982D01*
X832Y982D01*
X832Y980D01*
X834Y980D01*
X834Y978D01*
X838Y978D01*
X838Y976D01*
X840Y976D01*
X840Y974D01*
X842Y974D01*
X842Y972D01*
X846Y972D01*
X846Y968D01*
X848Y968D01*
X848Y966D01*
X850Y966D01*
X850Y964D01*
X852Y964D01*
X852Y960D01*
X872Y960D01*
X872Y962D01*
X874Y962D01*
X874Y966D01*
X876Y966D01*
X876Y968D01*
X878Y968D01*
X878Y970D01*
X880Y970D01*
X880Y972D01*
X882Y972D01*
X882Y974D01*
X884Y974D01*
X884Y976D01*
X888Y976D01*
X888Y978D01*
X890Y978D01*
X890Y980D01*
X894Y980D01*
X894Y982D01*
X898Y982D01*
X898Y984D01*
X904Y984D01*
X904Y986D01*
X822Y986D01*
G37*
D02*
G36*
X922Y986D02*
X922Y984D01*
X928Y984D01*
X928Y982D01*
X932Y982D01*
X932Y980D01*
X934Y980D01*
X934Y978D01*
X938Y978D01*
X938Y976D01*
X940Y976D01*
X940Y974D01*
X942Y974D01*
X942Y972D01*
X946Y972D01*
X946Y968D01*
X948Y968D01*
X948Y966D01*
X950Y966D01*
X950Y964D01*
X952Y964D01*
X952Y960D01*
X972Y960D01*
X972Y962D01*
X974Y962D01*
X974Y966D01*
X976Y966D01*
X976Y968D01*
X978Y968D01*
X978Y970D01*
X980Y970D01*
X980Y972D01*
X982Y972D01*
X982Y974D01*
X984Y974D01*
X984Y976D01*
X988Y976D01*
X988Y978D01*
X990Y978D01*
X990Y980D01*
X994Y980D01*
X994Y982D01*
X998Y982D01*
X998Y984D01*
X1004Y984D01*
X1004Y986D01*
X922Y986D01*
G37*
D02*
G36*
X1022Y986D02*
X1022Y984D01*
X1028Y984D01*
X1028Y982D01*
X1032Y982D01*
X1032Y980D01*
X1034Y980D01*
X1034Y978D01*
X1038Y978D01*
X1038Y976D01*
X1040Y976D01*
X1040Y974D01*
X1042Y974D01*
X1042Y972D01*
X1046Y972D01*
X1046Y968D01*
X1048Y968D01*
X1048Y966D01*
X1050Y966D01*
X1050Y964D01*
X1052Y964D01*
X1052Y960D01*
X1072Y960D01*
X1072Y962D01*
X1074Y962D01*
X1074Y966D01*
X1076Y966D01*
X1076Y968D01*
X1078Y968D01*
X1078Y970D01*
X1080Y970D01*
X1080Y972D01*
X1082Y972D01*
X1082Y974D01*
X1084Y974D01*
X1084Y976D01*
X1088Y976D01*
X1088Y978D01*
X1090Y978D01*
X1090Y980D01*
X1094Y980D01*
X1094Y982D01*
X1098Y982D01*
X1098Y984D01*
X1104Y984D01*
X1104Y986D01*
X1022Y986D01*
G37*
D02*
G36*
X1122Y986D02*
X1122Y984D01*
X1128Y984D01*
X1128Y982D01*
X1132Y982D01*
X1132Y980D01*
X1134Y980D01*
X1134Y978D01*
X1138Y978D01*
X1138Y976D01*
X1140Y976D01*
X1140Y974D01*
X1142Y974D01*
X1142Y972D01*
X1146Y972D01*
X1146Y968D01*
X1148Y968D01*
X1148Y966D01*
X1150Y966D01*
X1150Y964D01*
X1152Y964D01*
X1152Y960D01*
X1172Y960D01*
X1172Y962D01*
X1174Y962D01*
X1174Y966D01*
X1176Y966D01*
X1176Y968D01*
X1178Y968D01*
X1178Y970D01*
X1180Y970D01*
X1180Y972D01*
X1182Y972D01*
X1182Y974D01*
X1184Y974D01*
X1184Y976D01*
X1188Y976D01*
X1188Y978D01*
X1190Y978D01*
X1190Y980D01*
X1194Y980D01*
X1194Y982D01*
X1198Y982D01*
X1198Y984D01*
X1204Y984D01*
X1204Y986D01*
X1122Y986D01*
G37*
D02*
G36*
X1586Y952D02*
X1586Y948D01*
X1584Y948D01*
X1584Y944D01*
X1582Y944D01*
X1582Y940D01*
X1580Y940D01*
X1580Y938D01*
X1578Y938D01*
X1578Y936D01*
X1576Y936D01*
X1576Y934D01*
X1574Y934D01*
X1574Y932D01*
X1572Y932D01*
X1572Y930D01*
X1570Y930D01*
X1570Y928D01*
X1568Y928D01*
X1568Y926D01*
X1564Y926D01*
X1564Y924D01*
X1560Y924D01*
X1560Y922D01*
X1556Y922D01*
X1556Y920D01*
X1548Y920D01*
X1548Y918D01*
X1644Y918D01*
X1644Y920D01*
X1636Y920D01*
X1636Y922D01*
X1632Y922D01*
X1632Y924D01*
X1628Y924D01*
X1628Y926D01*
X1624Y926D01*
X1624Y928D01*
X1622Y928D01*
X1622Y930D01*
X1620Y930D01*
X1620Y932D01*
X1618Y932D01*
X1618Y934D01*
X1616Y934D01*
X1616Y936D01*
X1614Y936D01*
X1614Y938D01*
X1612Y938D01*
X1612Y940D01*
X1610Y940D01*
X1610Y944D01*
X1608Y944D01*
X1608Y948D01*
X1606Y948D01*
X1606Y952D01*
X1586Y952D01*
G37*
D02*
G36*
X1692Y950D02*
X1692Y946D01*
X1690Y946D01*
X1690Y942D01*
X1688Y942D01*
X1688Y940D01*
X1686Y940D01*
X1686Y936D01*
X1684Y936D01*
X1684Y934D01*
X1682Y934D01*
X1682Y932D01*
X1680Y932D01*
X1680Y930D01*
X1678Y930D01*
X1678Y928D01*
X1674Y928D01*
X1674Y926D01*
X1672Y926D01*
X1672Y924D01*
X1668Y924D01*
X1668Y922D01*
X1662Y922D01*
X1662Y920D01*
X1656Y920D01*
X1656Y918D01*
X1750Y918D01*
X1750Y920D01*
X1744Y920D01*
X1744Y922D01*
X1738Y922D01*
X1738Y924D01*
X1736Y924D01*
X1736Y926D01*
X1732Y926D01*
X1732Y928D01*
X1730Y928D01*
X1730Y930D01*
X1726Y930D01*
X1726Y932D01*
X1724Y932D01*
X1724Y934D01*
X1722Y934D01*
X1722Y938D01*
X1720Y938D01*
X1720Y940D01*
X1718Y940D01*
X1718Y942D01*
X1716Y942D01*
X1716Y946D01*
X1714Y946D01*
X1714Y950D01*
X1692Y950D01*
G37*
D02*
G36*
X1528Y918D02*
X1528Y916D01*
X1928Y916D01*
X1928Y918D01*
X1528Y918D01*
G37*
D02*
G36*
X1528Y918D02*
X1528Y916D01*
X1928Y916D01*
X1928Y918D01*
X1528Y918D01*
G37*
D02*
G36*
X1528Y918D02*
X1528Y916D01*
X1928Y916D01*
X1928Y918D01*
X1528Y918D01*
G37*
D02*
G36*
X1152Y916D02*
X1152Y912D01*
X1150Y912D01*
X1150Y910D01*
X1148Y910D01*
X1148Y908D01*
X1146Y908D01*
X1146Y906D01*
X1144Y906D01*
X1144Y904D01*
X1142Y904D01*
X1142Y902D01*
X1140Y902D01*
X1140Y900D01*
X1138Y900D01*
X1138Y892D01*
X1202Y892D01*
X1202Y894D01*
X1196Y894D01*
X1196Y896D01*
X1192Y896D01*
X1192Y898D01*
X1188Y898D01*
X1188Y900D01*
X1186Y900D01*
X1186Y902D01*
X1184Y902D01*
X1184Y904D01*
X1182Y904D01*
X1182Y906D01*
X1180Y906D01*
X1180Y908D01*
X1178Y908D01*
X1178Y910D01*
X1176Y910D01*
X1176Y912D01*
X1174Y912D01*
X1174Y914D01*
X1172Y914D01*
X1172Y916D01*
X1152Y916D01*
G37*
D02*
G36*
X1528Y916D02*
X1528Y902D01*
X1530Y902D01*
X1530Y900D01*
X1532Y900D01*
X1532Y898D01*
X1534Y898D01*
X1534Y896D01*
X1536Y896D01*
X1536Y894D01*
X1538Y894D01*
X1538Y892D01*
X1540Y892D01*
X1540Y890D01*
X1542Y890D01*
X1542Y888D01*
X1544Y888D01*
X1544Y886D01*
X1546Y886D01*
X1546Y884D01*
X1548Y884D01*
X1548Y882D01*
X1550Y882D01*
X1550Y880D01*
X1552Y880D01*
X1552Y878D01*
X1554Y878D01*
X1554Y876D01*
X1556Y876D01*
X1556Y874D01*
X1558Y874D01*
X1558Y872D01*
X1560Y872D01*
X1560Y870D01*
X1562Y870D01*
X1562Y868D01*
X1564Y868D01*
X1564Y866D01*
X1566Y866D01*
X1566Y864D01*
X1568Y864D01*
X1568Y862D01*
X1570Y862D01*
X1570Y860D01*
X1572Y860D01*
X1572Y858D01*
X1574Y858D01*
X1574Y856D01*
X1576Y856D01*
X1576Y854D01*
X1578Y854D01*
X1578Y852D01*
X1580Y852D01*
X1580Y850D01*
X1582Y850D01*
X1582Y848D01*
X1584Y848D01*
X1584Y846D01*
X1586Y846D01*
X1586Y844D01*
X1588Y844D01*
X1588Y842D01*
X1590Y842D01*
X1590Y840D01*
X1592Y840D01*
X1592Y838D01*
X1764Y838D01*
X1764Y836D01*
X1768Y836D01*
X1768Y834D01*
X1770Y834D01*
X1770Y832D01*
X1772Y832D01*
X1772Y830D01*
X1774Y830D01*
X1774Y828D01*
X1776Y828D01*
X1776Y826D01*
X1780Y826D01*
X1780Y824D01*
X1782Y824D01*
X1782Y822D01*
X1784Y822D01*
X1784Y820D01*
X1786Y820D01*
X1786Y818D01*
X1788Y818D01*
X1788Y816D01*
X1790Y816D01*
X1790Y814D01*
X1792Y814D01*
X1792Y812D01*
X1794Y812D01*
X1794Y810D01*
X1796Y810D01*
X1796Y808D01*
X1798Y808D01*
X1798Y806D01*
X1800Y806D01*
X1800Y804D01*
X1802Y804D01*
X1802Y802D01*
X1804Y802D01*
X1804Y800D01*
X1806Y800D01*
X1806Y798D01*
X1810Y798D01*
X1810Y796D01*
X1812Y796D01*
X1812Y794D01*
X1814Y794D01*
X1814Y792D01*
X1816Y792D01*
X1816Y790D01*
X1818Y790D01*
X1818Y788D01*
X1820Y788D01*
X1820Y786D01*
X1822Y786D01*
X1822Y784D01*
X1824Y784D01*
X1824Y782D01*
X1826Y782D01*
X1826Y780D01*
X1828Y780D01*
X1828Y778D01*
X1830Y778D01*
X1830Y776D01*
X1832Y776D01*
X1832Y774D01*
X1834Y774D01*
X1834Y772D01*
X1836Y772D01*
X1836Y770D01*
X1840Y770D01*
X1840Y768D01*
X1842Y768D01*
X1842Y766D01*
X1844Y766D01*
X1844Y764D01*
X1846Y764D01*
X1846Y760D01*
X1848Y760D01*
X1848Y758D01*
X1850Y758D01*
X1850Y750D01*
X1852Y750D01*
X1852Y578D01*
X1856Y578D01*
X1856Y576D01*
X1858Y576D01*
X1858Y574D01*
X1860Y574D01*
X1860Y572D01*
X1862Y572D01*
X1862Y570D01*
X1864Y570D01*
X1864Y568D01*
X1866Y568D01*
X1866Y566D01*
X1868Y566D01*
X1868Y562D01*
X1870Y562D01*
X1870Y560D01*
X1872Y560D01*
X1872Y556D01*
X1874Y556D01*
X1874Y550D01*
X1876Y550D01*
X1876Y544D01*
X1878Y544D01*
X1878Y534D01*
X1876Y534D01*
X1876Y526D01*
X1874Y526D01*
X1874Y520D01*
X1872Y520D01*
X1872Y518D01*
X1870Y518D01*
X1870Y514D01*
X1868Y514D01*
X1868Y512D01*
X1866Y512D01*
X1866Y508D01*
X1864Y508D01*
X1864Y506D01*
X1862Y506D01*
X1862Y504D01*
X1858Y504D01*
X1858Y502D01*
X1856Y502D01*
X1856Y500D01*
X1854Y500D01*
X1854Y498D01*
X1850Y498D01*
X1850Y496D01*
X1846Y496D01*
X1846Y494D01*
X1842Y494D01*
X1842Y492D01*
X1928Y492D01*
X1928Y916D01*
X1528Y916D01*
G37*
D02*
G36*
X1138Y892D02*
X1138Y890D01*
X1372Y890D01*
X1372Y892D01*
X1138Y892D01*
G37*
D02*
G36*
X1138Y892D02*
X1138Y890D01*
X1372Y890D01*
X1372Y892D01*
X1138Y892D01*
G37*
D02*
G36*
X1138Y890D02*
X1138Y842D01*
X1140Y842D01*
X1140Y798D01*
X1142Y798D01*
X1142Y770D01*
X1140Y770D01*
X1140Y764D01*
X1138Y764D01*
X1138Y762D01*
X1136Y762D01*
X1136Y760D01*
X1134Y760D01*
X1134Y758D01*
X1132Y758D01*
X1132Y756D01*
X1130Y756D01*
X1130Y754D01*
X1128Y754D01*
X1128Y752D01*
X1126Y752D01*
X1126Y750D01*
X1124Y750D01*
X1124Y748D01*
X1122Y748D01*
X1122Y746D01*
X1120Y746D01*
X1120Y744D01*
X1118Y744D01*
X1118Y742D01*
X1116Y742D01*
X1116Y740D01*
X1114Y740D01*
X1114Y738D01*
X1112Y738D01*
X1112Y736D01*
X1110Y736D01*
X1110Y734D01*
X1108Y734D01*
X1108Y732D01*
X1106Y732D01*
X1106Y730D01*
X1104Y730D01*
X1104Y728D01*
X1102Y728D01*
X1102Y726D01*
X1296Y726D01*
X1296Y644D01*
X1294Y644D01*
X1294Y642D01*
X1276Y642D01*
X1276Y560D01*
X1296Y560D01*
X1296Y562D01*
X1298Y562D01*
X1298Y566D01*
X1300Y566D01*
X1300Y568D01*
X1302Y568D01*
X1302Y570D01*
X1304Y570D01*
X1304Y572D01*
X1306Y572D01*
X1306Y574D01*
X1308Y574D01*
X1308Y576D01*
X1312Y576D01*
X1312Y578D01*
X1316Y578D01*
X1316Y580D01*
X1320Y580D01*
X1320Y582D01*
X1326Y582D01*
X1326Y584D01*
X1346Y584D01*
X1346Y586D01*
X1348Y586D01*
X1348Y588D01*
X1350Y588D01*
X1350Y590D01*
X1352Y590D01*
X1352Y592D01*
X1354Y592D01*
X1354Y596D01*
X1356Y596D01*
X1356Y598D01*
X1358Y598D01*
X1358Y600D01*
X1360Y600D01*
X1360Y602D01*
X1362Y602D01*
X1362Y604D01*
X1364Y604D01*
X1364Y608D01*
X1366Y608D01*
X1366Y610D01*
X1368Y610D01*
X1368Y612D01*
X1370Y612D01*
X1370Y614D01*
X1372Y614D01*
X1372Y890D01*
X1138Y890D01*
G37*
D02*
G36*
X290Y776D02*
X290Y732D01*
X310Y732D01*
X310Y734D01*
X312Y734D01*
X312Y736D01*
X314Y736D01*
X314Y738D01*
X316Y738D01*
X316Y740D01*
X318Y740D01*
X318Y742D01*
X320Y742D01*
X320Y744D01*
X322Y744D01*
X322Y746D01*
X324Y746D01*
X324Y748D01*
X326Y748D01*
X326Y750D01*
X328Y750D01*
X328Y752D01*
X330Y752D01*
X330Y754D01*
X332Y754D01*
X332Y756D01*
X334Y756D01*
X334Y758D01*
X336Y758D01*
X336Y760D01*
X338Y760D01*
X338Y762D01*
X340Y762D01*
X340Y764D01*
X342Y764D01*
X342Y766D01*
X344Y766D01*
X344Y768D01*
X346Y768D01*
X346Y770D01*
X348Y770D01*
X348Y772D01*
X350Y772D01*
X350Y774D01*
X356Y774D01*
X356Y776D01*
X290Y776D01*
G37*
D02*
G36*
X370Y732D02*
X370Y730D01*
X368Y730D01*
X368Y728D01*
X366Y728D01*
X366Y726D01*
X364Y726D01*
X364Y724D01*
X362Y724D01*
X362Y722D01*
X360Y722D01*
X360Y720D01*
X358Y720D01*
X358Y718D01*
X356Y718D01*
X356Y716D01*
X354Y716D01*
X354Y714D01*
X352Y714D01*
X352Y712D01*
X350Y712D01*
X350Y710D01*
X348Y710D01*
X348Y708D01*
X346Y708D01*
X346Y706D01*
X344Y706D01*
X344Y704D01*
X342Y704D01*
X342Y702D01*
X340Y702D01*
X340Y700D01*
X338Y700D01*
X338Y698D01*
X336Y698D01*
X336Y696D01*
X334Y696D01*
X334Y644D01*
X650Y644D01*
X650Y646D01*
X646Y646D01*
X646Y648D01*
X642Y648D01*
X642Y650D01*
X638Y650D01*
X638Y652D01*
X636Y652D01*
X636Y654D01*
X634Y654D01*
X634Y656D01*
X630Y656D01*
X630Y658D01*
X628Y658D01*
X628Y662D01*
X626Y662D01*
X626Y664D01*
X624Y664D01*
X624Y668D01*
X622Y668D01*
X622Y670D01*
X620Y670D01*
X620Y676D01*
X618Y676D01*
X618Y694D01*
X620Y694D01*
X620Y700D01*
X622Y700D01*
X622Y704D01*
X624Y704D01*
X624Y706D01*
X626Y706D01*
X626Y710D01*
X628Y710D01*
X628Y712D01*
X630Y712D01*
X630Y732D01*
X370Y732D01*
G37*
D02*
G36*
X1100Y726D02*
X1100Y724D01*
X1098Y724D01*
X1098Y722D01*
X1096Y722D01*
X1096Y720D01*
X1094Y720D01*
X1094Y718D01*
X1092Y718D01*
X1092Y716D01*
X1090Y716D01*
X1090Y714D01*
X1088Y714D01*
X1088Y712D01*
X1086Y712D01*
X1086Y710D01*
X1084Y710D01*
X1084Y708D01*
X1082Y708D01*
X1082Y706D01*
X1080Y706D01*
X1080Y704D01*
X1078Y704D01*
X1078Y702D01*
X1076Y702D01*
X1076Y700D01*
X1074Y700D01*
X1074Y698D01*
X1072Y698D01*
X1072Y696D01*
X1070Y696D01*
X1070Y694D01*
X1068Y694D01*
X1068Y692D01*
X1066Y692D01*
X1066Y690D01*
X1064Y690D01*
X1064Y688D01*
X1062Y688D01*
X1062Y686D01*
X1060Y686D01*
X1060Y684D01*
X1058Y684D01*
X1058Y682D01*
X1056Y682D01*
X1056Y680D01*
X1054Y680D01*
X1054Y678D01*
X1052Y678D01*
X1052Y676D01*
X1050Y676D01*
X1050Y674D01*
X1048Y674D01*
X1048Y672D01*
X1046Y672D01*
X1046Y670D01*
X1044Y670D01*
X1044Y668D01*
X1042Y668D01*
X1042Y666D01*
X1040Y666D01*
X1040Y664D01*
X1038Y664D01*
X1038Y662D01*
X1036Y662D01*
X1036Y660D01*
X1034Y660D01*
X1034Y658D01*
X1032Y658D01*
X1032Y656D01*
X1030Y656D01*
X1030Y654D01*
X1028Y654D01*
X1028Y652D01*
X1026Y652D01*
X1026Y650D01*
X1024Y650D01*
X1024Y648D01*
X1022Y648D01*
X1022Y646D01*
X1020Y646D01*
X1020Y644D01*
X1018Y644D01*
X1018Y642D01*
X1154Y642D01*
X1154Y644D01*
X1144Y644D01*
X1144Y646D01*
X1140Y646D01*
X1140Y648D01*
X1136Y648D01*
X1136Y650D01*
X1134Y650D01*
X1134Y652D01*
X1130Y652D01*
X1130Y654D01*
X1128Y654D01*
X1128Y656D01*
X1126Y656D01*
X1126Y658D01*
X1124Y658D01*
X1124Y660D01*
X1122Y660D01*
X1122Y664D01*
X1120Y664D01*
X1120Y668D01*
X1118Y668D01*
X1118Y672D01*
X1116Y672D01*
X1116Y678D01*
X1114Y678D01*
X1114Y692D01*
X1116Y692D01*
X1116Y698D01*
X1118Y698D01*
X1118Y702D01*
X1120Y702D01*
X1120Y704D01*
X1122Y704D01*
X1122Y708D01*
X1124Y708D01*
X1124Y710D01*
X1126Y710D01*
X1126Y712D01*
X1128Y712D01*
X1128Y714D01*
X1130Y714D01*
X1130Y716D01*
X1132Y716D01*
X1132Y718D01*
X1136Y718D01*
X1136Y720D01*
X1138Y720D01*
X1138Y722D01*
X1142Y722D01*
X1142Y724D01*
X1148Y724D01*
X1148Y726D01*
X1100Y726D01*
G37*
D02*
G36*
X1162Y726D02*
X1162Y724D01*
X1168Y724D01*
X1168Y722D01*
X1172Y722D01*
X1172Y720D01*
X1176Y720D01*
X1176Y718D01*
X1180Y718D01*
X1180Y716D01*
X1182Y716D01*
X1182Y714D01*
X1184Y714D01*
X1184Y712D01*
X1186Y712D01*
X1186Y710D01*
X1188Y710D01*
X1188Y708D01*
X1190Y708D01*
X1190Y704D01*
X1192Y704D01*
X1192Y700D01*
X1212Y700D01*
X1212Y726D01*
X1162Y726D01*
G37*
D02*
G36*
X40Y724D02*
X40Y568D01*
X62Y568D01*
X62Y570D01*
X64Y570D01*
X64Y572D01*
X66Y572D01*
X66Y574D01*
X68Y574D01*
X68Y576D01*
X72Y576D01*
X72Y578D01*
X76Y578D01*
X76Y580D01*
X82Y580D01*
X82Y582D01*
X108Y582D01*
X108Y584D01*
X110Y584D01*
X110Y586D01*
X112Y586D01*
X112Y590D01*
X114Y590D01*
X114Y592D01*
X116Y592D01*
X116Y594D01*
X118Y594D01*
X118Y596D01*
X120Y596D01*
X120Y598D01*
X122Y598D01*
X122Y600D01*
X124Y600D01*
X124Y602D01*
X126Y602D01*
X126Y604D01*
X128Y604D01*
X128Y606D01*
X130Y606D01*
X130Y608D01*
X132Y608D01*
X132Y610D01*
X134Y610D01*
X134Y612D01*
X136Y612D01*
X136Y614D01*
X138Y614D01*
X138Y616D01*
X140Y616D01*
X140Y618D01*
X142Y618D01*
X142Y620D01*
X144Y620D01*
X144Y622D01*
X146Y622D01*
X146Y624D01*
X148Y624D01*
X148Y626D01*
X150Y626D01*
X150Y630D01*
X152Y630D01*
X152Y632D01*
X154Y632D01*
X154Y634D01*
X156Y634D01*
X156Y636D01*
X158Y636D01*
X158Y638D01*
X160Y638D01*
X160Y640D01*
X162Y640D01*
X162Y660D01*
X160Y660D01*
X160Y662D01*
X158Y662D01*
X158Y666D01*
X156Y666D01*
X156Y670D01*
X154Y670D01*
X154Y676D01*
X152Y676D01*
X152Y690D01*
X154Y690D01*
X154Y696D01*
X156Y696D01*
X156Y700D01*
X158Y700D01*
X158Y704D01*
X160Y704D01*
X160Y706D01*
X162Y706D01*
X162Y708D01*
X164Y708D01*
X164Y710D01*
X166Y710D01*
X166Y712D01*
X168Y712D01*
X168Y714D01*
X170Y714D01*
X170Y716D01*
X172Y716D01*
X172Y718D01*
X176Y718D01*
X176Y720D01*
X180Y720D01*
X180Y722D01*
X186Y722D01*
X186Y724D01*
X40Y724D01*
G37*
D02*
G36*
X696Y670D02*
X696Y666D01*
X694Y666D01*
X694Y664D01*
X692Y664D01*
X692Y660D01*
X690Y660D01*
X690Y658D01*
X688Y658D01*
X688Y656D01*
X686Y656D01*
X686Y654D01*
X682Y654D01*
X682Y652D01*
X680Y652D01*
X680Y650D01*
X676Y650D01*
X676Y648D01*
X672Y648D01*
X672Y646D01*
X668Y646D01*
X668Y644D01*
X716Y644D01*
X716Y670D01*
X696Y670D01*
G37*
D02*
G36*
X1192Y668D02*
X1192Y664D01*
X1190Y664D01*
X1190Y662D01*
X1188Y662D01*
X1188Y660D01*
X1186Y660D01*
X1186Y656D01*
X1184Y656D01*
X1184Y654D01*
X1180Y654D01*
X1180Y652D01*
X1178Y652D01*
X1178Y650D01*
X1176Y650D01*
X1176Y648D01*
X1172Y648D01*
X1172Y646D01*
X1166Y646D01*
X1166Y644D01*
X1158Y644D01*
X1158Y642D01*
X1214Y642D01*
X1214Y644D01*
X1212Y644D01*
X1212Y668D01*
X1192Y668D01*
G37*
D02*
G36*
X230Y666D02*
X230Y664D01*
X228Y664D01*
X228Y660D01*
X226Y660D01*
X226Y658D01*
X224Y658D01*
X224Y656D01*
X222Y656D01*
X222Y654D01*
X220Y654D01*
X220Y652D01*
X218Y652D01*
X218Y650D01*
X216Y650D01*
X216Y642D01*
X250Y642D01*
X250Y666D01*
X230Y666D01*
G37*
D02*
G36*
X334Y644D02*
X334Y642D01*
X842Y642D01*
X842Y644D01*
X334Y644D01*
G37*
D02*
G36*
X334Y644D02*
X334Y642D01*
X842Y642D01*
X842Y644D01*
X334Y644D01*
G37*
D02*
G36*
X334Y644D02*
X334Y642D01*
X842Y642D01*
X842Y644D01*
X334Y644D01*
G37*
D02*
G36*
X216Y642D02*
X216Y640D01*
X842Y640D01*
X842Y642D01*
X216Y642D01*
G37*
D02*
G36*
X216Y642D02*
X216Y640D01*
X842Y640D01*
X842Y642D01*
X216Y642D01*
G37*
D02*
G36*
X1016Y642D02*
X1016Y640D01*
X1232Y640D01*
X1232Y642D01*
X1016Y642D01*
G37*
D02*
G36*
X1016Y642D02*
X1016Y640D01*
X1232Y640D01*
X1232Y642D01*
X1016Y642D01*
G37*
D02*
G36*
X216Y640D02*
X216Y636D01*
X214Y636D01*
X214Y632D01*
X212Y632D01*
X212Y628D01*
X210Y628D01*
X210Y626D01*
X208Y626D01*
X208Y624D01*
X206Y624D01*
X206Y622D01*
X204Y622D01*
X204Y620D01*
X202Y620D01*
X202Y618D01*
X200Y618D01*
X200Y616D01*
X198Y616D01*
X198Y614D01*
X196Y614D01*
X196Y612D01*
X194Y612D01*
X194Y610D01*
X192Y610D01*
X192Y608D01*
X190Y608D01*
X190Y606D01*
X188Y606D01*
X188Y604D01*
X186Y604D01*
X186Y600D01*
X184Y600D01*
X184Y598D01*
X182Y598D01*
X182Y596D01*
X180Y596D01*
X180Y594D01*
X178Y594D01*
X178Y592D01*
X176Y592D01*
X176Y590D01*
X560Y590D01*
X560Y588D01*
X570Y588D01*
X570Y586D01*
X576Y586D01*
X576Y584D01*
X578Y584D01*
X578Y582D01*
X582Y582D01*
X582Y580D01*
X584Y580D01*
X584Y578D01*
X588Y578D01*
X588Y576D01*
X590Y576D01*
X590Y574D01*
X592Y574D01*
X592Y572D01*
X594Y572D01*
X594Y570D01*
X596Y570D01*
X596Y566D01*
X598Y566D01*
X598Y564D01*
X600Y564D01*
X600Y560D01*
X602Y560D01*
X602Y554D01*
X604Y554D01*
X604Y548D01*
X606Y548D01*
X606Y536D01*
X604Y536D01*
X604Y528D01*
X602Y528D01*
X602Y524D01*
X600Y524D01*
X600Y520D01*
X598Y520D01*
X598Y516D01*
X596Y516D01*
X596Y514D01*
X594Y514D01*
X594Y512D01*
X592Y512D01*
X592Y510D01*
X590Y510D01*
X590Y508D01*
X588Y508D01*
X588Y506D01*
X586Y506D01*
X586Y504D01*
X584Y504D01*
X584Y502D01*
X580Y502D01*
X580Y500D01*
X576Y500D01*
X576Y498D01*
X572Y498D01*
X572Y496D01*
X566Y496D01*
X566Y494D01*
X850Y494D01*
X850Y496D01*
X844Y496D01*
X844Y498D01*
X840Y498D01*
X840Y500D01*
X836Y500D01*
X836Y502D01*
X832Y502D01*
X832Y504D01*
X830Y504D01*
X830Y506D01*
X828Y506D01*
X828Y508D01*
X826Y508D01*
X826Y510D01*
X824Y510D01*
X824Y512D01*
X822Y512D01*
X822Y514D01*
X820Y514D01*
X820Y516D01*
X818Y516D01*
X818Y520D01*
X816Y520D01*
X816Y524D01*
X814Y524D01*
X814Y530D01*
X812Y530D01*
X812Y536D01*
X810Y536D01*
X810Y546D01*
X812Y546D01*
X812Y554D01*
X814Y554D01*
X814Y560D01*
X816Y560D01*
X816Y562D01*
X818Y562D01*
X818Y566D01*
X820Y566D01*
X820Y568D01*
X822Y568D01*
X822Y572D01*
X824Y572D01*
X824Y574D01*
X826Y574D01*
X826Y576D01*
X828Y576D01*
X828Y578D01*
X832Y578D01*
X832Y580D01*
X834Y580D01*
X834Y582D01*
X838Y582D01*
X838Y584D01*
X840Y584D01*
X840Y612D01*
X842Y612D01*
X842Y640D01*
X216Y640D01*
G37*
D02*
G36*
X1014Y640D02*
X1014Y638D01*
X1012Y638D01*
X1012Y636D01*
X1010Y636D01*
X1010Y634D01*
X1008Y634D01*
X1008Y632D01*
X1006Y632D01*
X1006Y630D01*
X1004Y630D01*
X1004Y628D01*
X1002Y628D01*
X1002Y626D01*
X1000Y626D01*
X1000Y624D01*
X998Y624D01*
X998Y622D01*
X996Y622D01*
X996Y620D01*
X994Y620D01*
X994Y618D01*
X992Y618D01*
X992Y616D01*
X990Y616D01*
X990Y584D01*
X1046Y584D01*
X1046Y582D01*
X1050Y582D01*
X1050Y580D01*
X1054Y580D01*
X1054Y578D01*
X1058Y578D01*
X1058Y576D01*
X1062Y576D01*
X1062Y574D01*
X1064Y574D01*
X1064Y572D01*
X1066Y572D01*
X1066Y570D01*
X1068Y570D01*
X1068Y568D01*
X1070Y568D01*
X1070Y566D01*
X1072Y566D01*
X1072Y564D01*
X1074Y564D01*
X1074Y560D01*
X1076Y560D01*
X1076Y556D01*
X1078Y556D01*
X1078Y552D01*
X1080Y552D01*
X1080Y548D01*
X1082Y548D01*
X1082Y526D01*
X1080Y526D01*
X1080Y522D01*
X1078Y522D01*
X1078Y518D01*
X1076Y518D01*
X1076Y514D01*
X1074Y514D01*
X1074Y510D01*
X1072Y510D01*
X1072Y508D01*
X1070Y508D01*
X1070Y506D01*
X1068Y506D01*
X1068Y504D01*
X1066Y504D01*
X1066Y502D01*
X1064Y502D01*
X1064Y500D01*
X1062Y500D01*
X1062Y498D01*
X1058Y498D01*
X1058Y496D01*
X1054Y496D01*
X1054Y494D01*
X1050Y494D01*
X1050Y492D01*
X1046Y492D01*
X1046Y490D01*
X1232Y490D01*
X1232Y640D01*
X1014Y640D01*
G37*
D02*
G36*
X174Y590D02*
X174Y588D01*
X172Y588D01*
X172Y586D01*
X170Y586D01*
X170Y584D01*
X168Y584D01*
X168Y582D01*
X402Y582D01*
X402Y580D01*
X408Y580D01*
X408Y578D01*
X412Y578D01*
X412Y576D01*
X416Y576D01*
X416Y574D01*
X418Y574D01*
X418Y572D01*
X420Y572D01*
X420Y570D01*
X424Y570D01*
X424Y568D01*
X426Y568D01*
X426Y564D01*
X428Y564D01*
X428Y562D01*
X430Y562D01*
X430Y560D01*
X432Y560D01*
X432Y556D01*
X434Y556D01*
X434Y554D01*
X436Y554D01*
X436Y548D01*
X438Y548D01*
X438Y542D01*
X440Y542D01*
X440Y530D01*
X438Y530D01*
X438Y522D01*
X436Y522D01*
X436Y518D01*
X434Y518D01*
X434Y514D01*
X432Y514D01*
X432Y510D01*
X430Y510D01*
X430Y508D01*
X428Y508D01*
X428Y506D01*
X426Y506D01*
X426Y504D01*
X424Y504D01*
X424Y502D01*
X422Y502D01*
X422Y500D01*
X420Y500D01*
X420Y498D01*
X418Y498D01*
X418Y496D01*
X414Y496D01*
X414Y494D01*
X550Y494D01*
X550Y496D01*
X544Y496D01*
X544Y498D01*
X540Y498D01*
X540Y500D01*
X536Y500D01*
X536Y502D01*
X532Y502D01*
X532Y504D01*
X530Y504D01*
X530Y506D01*
X528Y506D01*
X528Y508D01*
X526Y508D01*
X526Y510D01*
X524Y510D01*
X524Y512D01*
X522Y512D01*
X522Y514D01*
X520Y514D01*
X520Y516D01*
X518Y516D01*
X518Y520D01*
X516Y520D01*
X516Y524D01*
X514Y524D01*
X514Y530D01*
X512Y530D01*
X512Y536D01*
X510Y536D01*
X510Y546D01*
X512Y546D01*
X512Y554D01*
X514Y554D01*
X514Y560D01*
X516Y560D01*
X516Y562D01*
X518Y562D01*
X518Y566D01*
X520Y566D01*
X520Y568D01*
X522Y568D01*
X522Y572D01*
X524Y572D01*
X524Y574D01*
X526Y574D01*
X526Y576D01*
X528Y576D01*
X528Y578D01*
X532Y578D01*
X532Y580D01*
X534Y580D01*
X534Y582D01*
X538Y582D01*
X538Y584D01*
X540Y584D01*
X540Y586D01*
X546Y586D01*
X546Y588D01*
X556Y588D01*
X556Y590D01*
X174Y590D01*
G37*
D02*
G36*
X990Y584D02*
X990Y576D01*
X1012Y576D01*
X1012Y578D01*
X1016Y578D01*
X1016Y580D01*
X1020Y580D01*
X1020Y582D01*
X1026Y582D01*
X1026Y584D01*
X990Y584D01*
G37*
D02*
G36*
X166Y582D02*
X166Y580D01*
X164Y580D01*
X164Y578D01*
X162Y578D01*
X162Y576D01*
X160Y576D01*
X160Y574D01*
X158Y574D01*
X158Y572D01*
X156Y572D01*
X156Y570D01*
X154Y570D01*
X154Y568D01*
X152Y568D01*
X152Y566D01*
X150Y566D01*
X150Y564D01*
X148Y564D01*
X148Y560D01*
X146Y560D01*
X146Y558D01*
X144Y558D01*
X144Y556D01*
X142Y556D01*
X142Y554D01*
X140Y554D01*
X140Y530D01*
X138Y530D01*
X138Y522D01*
X136Y522D01*
X136Y518D01*
X134Y518D01*
X134Y514D01*
X132Y514D01*
X132Y510D01*
X130Y510D01*
X130Y508D01*
X128Y508D01*
X128Y506D01*
X126Y506D01*
X126Y504D01*
X124Y504D01*
X124Y502D01*
X122Y502D01*
X122Y500D01*
X120Y500D01*
X120Y498D01*
X118Y498D01*
X118Y496D01*
X114Y496D01*
X114Y494D01*
X112Y494D01*
X112Y492D01*
X108Y492D01*
X108Y490D01*
X102Y490D01*
X102Y470D01*
X108Y470D01*
X108Y468D01*
X114Y468D01*
X114Y466D01*
X118Y466D01*
X118Y464D01*
X120Y464D01*
X120Y462D01*
X124Y462D01*
X124Y460D01*
X126Y460D01*
X126Y458D01*
X128Y458D01*
X128Y456D01*
X130Y456D01*
X130Y454D01*
X132Y454D01*
X132Y450D01*
X134Y450D01*
X134Y448D01*
X136Y448D01*
X136Y444D01*
X138Y444D01*
X138Y442D01*
X140Y442D01*
X140Y436D01*
X142Y436D01*
X142Y426D01*
X144Y426D01*
X144Y422D01*
X142Y422D01*
X142Y412D01*
X140Y412D01*
X140Y406D01*
X138Y406D01*
X138Y404D01*
X136Y404D01*
X136Y400D01*
X134Y400D01*
X134Y398D01*
X132Y398D01*
X132Y394D01*
X130Y394D01*
X130Y392D01*
X128Y392D01*
X128Y390D01*
X126Y390D01*
X126Y388D01*
X122Y388D01*
X122Y386D01*
X120Y386D01*
X120Y384D01*
X116Y384D01*
X116Y382D01*
X114Y382D01*
X114Y380D01*
X108Y380D01*
X108Y378D01*
X100Y378D01*
X100Y376D01*
X318Y376D01*
X318Y378D01*
X320Y378D01*
X320Y380D01*
X322Y380D01*
X322Y382D01*
X324Y382D01*
X324Y384D01*
X326Y384D01*
X326Y386D01*
X328Y386D01*
X328Y388D01*
X330Y388D01*
X330Y390D01*
X332Y390D01*
X332Y392D01*
X334Y392D01*
X334Y394D01*
X336Y394D01*
X336Y396D01*
X338Y396D01*
X338Y398D01*
X340Y398D01*
X340Y400D01*
X342Y400D01*
X342Y402D01*
X344Y402D01*
X344Y404D01*
X346Y404D01*
X346Y406D01*
X348Y406D01*
X348Y432D01*
X350Y432D01*
X350Y438D01*
X352Y438D01*
X352Y442D01*
X354Y442D01*
X354Y446D01*
X356Y446D01*
X356Y450D01*
X358Y450D01*
X358Y452D01*
X360Y452D01*
X360Y454D01*
X362Y454D01*
X362Y456D01*
X364Y456D01*
X364Y458D01*
X366Y458D01*
X366Y460D01*
X368Y460D01*
X368Y462D01*
X370Y462D01*
X370Y464D01*
X374Y464D01*
X374Y466D01*
X378Y466D01*
X378Y468D01*
X382Y468D01*
X382Y490D01*
X376Y490D01*
X376Y492D01*
X372Y492D01*
X372Y494D01*
X370Y494D01*
X370Y496D01*
X366Y496D01*
X366Y498D01*
X364Y498D01*
X364Y500D01*
X362Y500D01*
X362Y502D01*
X360Y502D01*
X360Y504D01*
X358Y504D01*
X358Y506D01*
X356Y506D01*
X356Y508D01*
X354Y508D01*
X354Y510D01*
X352Y510D01*
X352Y514D01*
X350Y514D01*
X350Y518D01*
X348Y518D01*
X348Y522D01*
X346Y522D01*
X346Y530D01*
X344Y530D01*
X344Y540D01*
X346Y540D01*
X346Y548D01*
X348Y548D01*
X348Y552D01*
X350Y552D01*
X350Y556D01*
X352Y556D01*
X352Y560D01*
X354Y560D01*
X354Y562D01*
X356Y562D01*
X356Y564D01*
X358Y564D01*
X358Y568D01*
X362Y568D01*
X362Y570D01*
X364Y570D01*
X364Y572D01*
X366Y572D01*
X366Y574D01*
X368Y574D01*
X368Y576D01*
X372Y576D01*
X372Y578D01*
X376Y578D01*
X376Y580D01*
X382Y580D01*
X382Y582D01*
X166Y582D01*
G37*
D02*
G36*
X1768Y520D02*
X1768Y492D01*
X1818Y492D01*
X1818Y494D01*
X1812Y494D01*
X1812Y496D01*
X1810Y496D01*
X1810Y498D01*
X1806Y498D01*
X1806Y500D01*
X1804Y500D01*
X1804Y502D01*
X1800Y502D01*
X1800Y504D01*
X1798Y504D01*
X1798Y506D01*
X1796Y506D01*
X1796Y508D01*
X1794Y508D01*
X1794Y510D01*
X1792Y510D01*
X1792Y514D01*
X1790Y514D01*
X1790Y516D01*
X1788Y516D01*
X1788Y520D01*
X1768Y520D01*
G37*
D02*
G36*
X884Y504D02*
X884Y502D01*
X880Y502D01*
X880Y500D01*
X876Y500D01*
X876Y498D01*
X872Y498D01*
X872Y496D01*
X866Y496D01*
X866Y494D01*
X902Y494D01*
X902Y496D01*
X904Y496D01*
X904Y504D01*
X884Y504D01*
G37*
D02*
G36*
X990Y500D02*
X990Y490D01*
X1026Y490D01*
X1026Y492D01*
X1020Y492D01*
X1020Y494D01*
X1016Y494D01*
X1016Y496D01*
X1012Y496D01*
X1012Y498D01*
X1010Y498D01*
X1010Y500D01*
X990Y500D01*
G37*
D02*
G36*
X412Y494D02*
X412Y492D01*
X900Y492D01*
X900Y494D01*
X412Y494D01*
G37*
D02*
G36*
X412Y494D02*
X412Y492D01*
X900Y492D01*
X900Y494D01*
X412Y494D01*
G37*
D02*
G36*
X412Y494D02*
X412Y492D01*
X900Y492D01*
X900Y494D01*
X412Y494D01*
G37*
D02*
G36*
X408Y492D02*
X408Y490D01*
X402Y490D01*
X402Y470D01*
X570Y470D01*
X570Y468D01*
X574Y468D01*
X574Y466D01*
X578Y466D01*
X578Y464D01*
X582Y464D01*
X582Y462D01*
X586Y462D01*
X586Y460D01*
X588Y460D01*
X588Y458D01*
X590Y458D01*
X590Y456D01*
X592Y456D01*
X592Y454D01*
X594Y454D01*
X594Y452D01*
X596Y452D01*
X596Y450D01*
X598Y450D01*
X598Y446D01*
X600Y446D01*
X600Y442D01*
X602Y442D01*
X602Y440D01*
X604Y440D01*
X604Y434D01*
X606Y434D01*
X606Y412D01*
X604Y412D01*
X604Y406D01*
X602Y406D01*
X602Y402D01*
X600Y402D01*
X600Y400D01*
X598Y400D01*
X598Y396D01*
X596Y396D01*
X596Y394D01*
X594Y394D01*
X594Y392D01*
X592Y392D01*
X592Y390D01*
X590Y390D01*
X590Y388D01*
X588Y388D01*
X588Y386D01*
X586Y386D01*
X586Y384D01*
X582Y384D01*
X582Y382D01*
X578Y382D01*
X578Y380D01*
X574Y380D01*
X574Y378D01*
X570Y378D01*
X570Y358D01*
X850Y358D01*
X850Y378D01*
X844Y378D01*
X844Y380D01*
X840Y380D01*
X840Y382D01*
X836Y382D01*
X836Y384D01*
X834Y384D01*
X834Y386D01*
X830Y386D01*
X830Y388D01*
X828Y388D01*
X828Y390D01*
X826Y390D01*
X826Y392D01*
X824Y392D01*
X824Y394D01*
X822Y394D01*
X822Y398D01*
X820Y398D01*
X820Y400D01*
X818Y400D01*
X818Y404D01*
X816Y404D01*
X816Y408D01*
X814Y408D01*
X814Y414D01*
X812Y414D01*
X812Y432D01*
X814Y432D01*
X814Y438D01*
X816Y438D01*
X816Y442D01*
X818Y442D01*
X818Y446D01*
X820Y446D01*
X820Y448D01*
X822Y448D01*
X822Y452D01*
X824Y452D01*
X824Y454D01*
X826Y454D01*
X826Y456D01*
X828Y456D01*
X828Y458D01*
X830Y458D01*
X830Y460D01*
X834Y460D01*
X834Y462D01*
X836Y462D01*
X836Y464D01*
X840Y464D01*
X840Y466D01*
X844Y466D01*
X844Y468D01*
X850Y468D01*
X850Y470D01*
X878Y470D01*
X878Y472D01*
X880Y472D01*
X880Y474D01*
X882Y474D01*
X882Y476D01*
X884Y476D01*
X884Y478D01*
X886Y478D01*
X886Y480D01*
X888Y480D01*
X888Y482D01*
X890Y482D01*
X890Y484D01*
X892Y484D01*
X892Y486D01*
X894Y486D01*
X894Y488D01*
X896Y488D01*
X896Y490D01*
X898Y490D01*
X898Y492D01*
X408Y492D01*
G37*
D02*
G36*
X1768Y492D02*
X1768Y490D01*
X1928Y490D01*
X1928Y492D01*
X1768Y492D01*
G37*
D02*
G36*
X1768Y492D02*
X1768Y490D01*
X1928Y490D01*
X1928Y492D01*
X1768Y492D01*
G37*
D02*
G36*
X990Y490D02*
X990Y488D01*
X1232Y488D01*
X1232Y490D01*
X990Y490D01*
G37*
D02*
G36*
X990Y490D02*
X990Y488D01*
X1232Y488D01*
X1232Y490D01*
X990Y490D01*
G37*
D02*
G36*
X1766Y490D02*
X1766Y470D01*
X1844Y470D01*
X1844Y468D01*
X1848Y468D01*
X1848Y466D01*
X1852Y466D01*
X1852Y464D01*
X1856Y464D01*
X1856Y462D01*
X1858Y462D01*
X1858Y460D01*
X1860Y460D01*
X1860Y458D01*
X1864Y458D01*
X1864Y456D01*
X1866Y456D01*
X1866Y454D01*
X1868Y454D01*
X1868Y450D01*
X1870Y450D01*
X1870Y448D01*
X1872Y448D01*
X1872Y444D01*
X1874Y444D01*
X1874Y442D01*
X1876Y442D01*
X1876Y436D01*
X1878Y436D01*
X1878Y430D01*
X1880Y430D01*
X1880Y418D01*
X1878Y418D01*
X1878Y410D01*
X1876Y410D01*
X1876Y406D01*
X1874Y406D01*
X1874Y402D01*
X1872Y402D01*
X1872Y398D01*
X1870Y398D01*
X1870Y396D01*
X1868Y396D01*
X1868Y394D01*
X1866Y394D01*
X1866Y392D01*
X1864Y392D01*
X1864Y390D01*
X1862Y390D01*
X1862Y388D01*
X1860Y388D01*
X1860Y386D01*
X1858Y386D01*
X1858Y384D01*
X1854Y384D01*
X1854Y382D01*
X1852Y382D01*
X1852Y380D01*
X1846Y380D01*
X1846Y378D01*
X1842Y378D01*
X1842Y376D01*
X1928Y376D01*
X1928Y490D01*
X1766Y490D01*
G37*
D02*
G36*
X990Y488D02*
X990Y470D01*
X1050Y470D01*
X1050Y468D01*
X1056Y468D01*
X1056Y466D01*
X1060Y466D01*
X1060Y464D01*
X1062Y464D01*
X1062Y462D01*
X1066Y462D01*
X1066Y460D01*
X1068Y460D01*
X1068Y458D01*
X1070Y458D01*
X1070Y456D01*
X1072Y456D01*
X1072Y454D01*
X1074Y454D01*
X1074Y452D01*
X1076Y452D01*
X1076Y450D01*
X1078Y450D01*
X1078Y446D01*
X1080Y446D01*
X1080Y442D01*
X1082Y442D01*
X1082Y438D01*
X1084Y438D01*
X1084Y432D01*
X1086Y432D01*
X1086Y414D01*
X1084Y414D01*
X1084Y408D01*
X1082Y408D01*
X1082Y404D01*
X1080Y404D01*
X1080Y400D01*
X1078Y400D01*
X1078Y398D01*
X1076Y398D01*
X1076Y394D01*
X1074Y394D01*
X1074Y392D01*
X1072Y392D01*
X1072Y390D01*
X1070Y390D01*
X1070Y388D01*
X1068Y388D01*
X1068Y386D01*
X1064Y386D01*
X1064Y384D01*
X1062Y384D01*
X1062Y382D01*
X1058Y382D01*
X1058Y380D01*
X1054Y380D01*
X1054Y378D01*
X1048Y378D01*
X1048Y376D01*
X1234Y376D01*
X1234Y390D01*
X1232Y390D01*
X1232Y488D01*
X990Y488D01*
G37*
D02*
G36*
X408Y470D02*
X408Y468D01*
X414Y468D01*
X414Y466D01*
X418Y466D01*
X418Y464D01*
X420Y464D01*
X420Y462D01*
X424Y462D01*
X424Y460D01*
X426Y460D01*
X426Y458D01*
X428Y458D01*
X428Y456D01*
X430Y456D01*
X430Y454D01*
X432Y454D01*
X432Y450D01*
X434Y450D01*
X434Y448D01*
X436Y448D01*
X436Y444D01*
X438Y444D01*
X438Y442D01*
X440Y442D01*
X440Y436D01*
X442Y436D01*
X442Y426D01*
X444Y426D01*
X444Y404D01*
X446Y404D01*
X446Y402D01*
X448Y402D01*
X448Y400D01*
X450Y400D01*
X450Y398D01*
X452Y398D01*
X452Y396D01*
X454Y396D01*
X454Y394D01*
X456Y394D01*
X456Y392D01*
X458Y392D01*
X458Y390D01*
X460Y390D01*
X460Y388D01*
X462Y388D01*
X462Y386D01*
X464Y386D01*
X464Y384D01*
X466Y384D01*
X466Y382D01*
X468Y382D01*
X468Y380D01*
X470Y380D01*
X470Y378D01*
X472Y378D01*
X472Y376D01*
X474Y376D01*
X474Y374D01*
X476Y374D01*
X476Y372D01*
X478Y372D01*
X478Y370D01*
X480Y370D01*
X480Y368D01*
X482Y368D01*
X482Y366D01*
X484Y366D01*
X484Y362D01*
X486Y362D01*
X486Y360D01*
X544Y360D01*
X544Y380D01*
X540Y380D01*
X540Y382D01*
X536Y382D01*
X536Y384D01*
X534Y384D01*
X534Y386D01*
X530Y386D01*
X530Y388D01*
X528Y388D01*
X528Y390D01*
X526Y390D01*
X526Y392D01*
X524Y392D01*
X524Y394D01*
X522Y394D01*
X522Y398D01*
X520Y398D01*
X520Y400D01*
X518Y400D01*
X518Y404D01*
X516Y404D01*
X516Y408D01*
X514Y408D01*
X514Y414D01*
X512Y414D01*
X512Y432D01*
X514Y432D01*
X514Y438D01*
X516Y438D01*
X516Y442D01*
X518Y442D01*
X518Y446D01*
X520Y446D01*
X520Y448D01*
X522Y448D01*
X522Y452D01*
X524Y452D01*
X524Y454D01*
X526Y454D01*
X526Y456D01*
X528Y456D01*
X528Y458D01*
X530Y458D01*
X530Y460D01*
X534Y460D01*
X534Y462D01*
X536Y462D01*
X536Y464D01*
X540Y464D01*
X540Y466D01*
X544Y466D01*
X544Y468D01*
X550Y468D01*
X550Y470D01*
X408Y470D01*
G37*
D02*
G36*
X990Y470D02*
X990Y458D01*
X1010Y458D01*
X1010Y460D01*
X1012Y460D01*
X1012Y462D01*
X1016Y462D01*
X1016Y464D01*
X1018Y464D01*
X1018Y466D01*
X1022Y466D01*
X1022Y468D01*
X1028Y468D01*
X1028Y470D01*
X990Y470D01*
G37*
D02*
G36*
X1766Y470D02*
X1766Y462D01*
X1764Y462D01*
X1764Y458D01*
X1762Y458D01*
X1762Y454D01*
X1760Y454D01*
X1760Y452D01*
X1758Y452D01*
X1758Y450D01*
X1756Y450D01*
X1756Y448D01*
X1754Y448D01*
X1754Y446D01*
X1752Y446D01*
X1752Y444D01*
X1750Y444D01*
X1750Y442D01*
X1748Y442D01*
X1748Y440D01*
X1746Y440D01*
X1746Y438D01*
X1744Y438D01*
X1744Y436D01*
X1742Y436D01*
X1742Y434D01*
X1740Y434D01*
X1740Y432D01*
X1738Y432D01*
X1738Y430D01*
X1736Y430D01*
X1736Y428D01*
X1734Y428D01*
X1734Y426D01*
X1732Y426D01*
X1732Y424D01*
X1730Y424D01*
X1730Y422D01*
X1728Y422D01*
X1728Y420D01*
X1726Y420D01*
X1726Y418D01*
X1724Y418D01*
X1724Y416D01*
X1722Y416D01*
X1722Y414D01*
X1720Y414D01*
X1720Y412D01*
X1718Y412D01*
X1718Y410D01*
X1716Y410D01*
X1716Y408D01*
X1714Y408D01*
X1714Y406D01*
X1712Y406D01*
X1712Y404D01*
X1710Y404D01*
X1710Y402D01*
X1708Y402D01*
X1708Y400D01*
X1706Y400D01*
X1706Y398D01*
X1704Y398D01*
X1704Y396D01*
X1702Y396D01*
X1702Y394D01*
X1700Y394D01*
X1700Y392D01*
X1698Y392D01*
X1698Y390D01*
X1696Y390D01*
X1696Y388D01*
X1694Y388D01*
X1694Y386D01*
X1692Y386D01*
X1692Y384D01*
X1690Y384D01*
X1690Y382D01*
X1688Y382D01*
X1688Y380D01*
X1686Y380D01*
X1686Y378D01*
X1684Y378D01*
X1684Y376D01*
X1824Y376D01*
X1824Y378D01*
X1818Y378D01*
X1818Y380D01*
X1814Y380D01*
X1814Y382D01*
X1810Y382D01*
X1810Y384D01*
X1806Y384D01*
X1806Y386D01*
X1804Y386D01*
X1804Y388D01*
X1802Y388D01*
X1802Y390D01*
X1800Y390D01*
X1800Y392D01*
X1798Y392D01*
X1798Y394D01*
X1796Y394D01*
X1796Y396D01*
X1794Y396D01*
X1794Y398D01*
X1792Y398D01*
X1792Y402D01*
X1790Y402D01*
X1790Y406D01*
X1788Y406D01*
X1788Y410D01*
X1786Y410D01*
X1786Y418D01*
X1784Y418D01*
X1784Y428D01*
X1786Y428D01*
X1786Y436D01*
X1788Y436D01*
X1788Y442D01*
X1790Y442D01*
X1790Y444D01*
X1792Y444D01*
X1792Y448D01*
X1794Y448D01*
X1794Y450D01*
X1796Y450D01*
X1796Y452D01*
X1798Y452D01*
X1798Y456D01*
X1800Y456D01*
X1800Y458D01*
X1804Y458D01*
X1804Y460D01*
X1806Y460D01*
X1806Y462D01*
X1808Y462D01*
X1808Y464D01*
X1812Y464D01*
X1812Y466D01*
X1816Y466D01*
X1816Y468D01*
X1822Y468D01*
X1822Y470D01*
X1766Y470D01*
G37*
D02*
G36*
X980Y398D02*
X980Y396D01*
X978Y396D01*
X978Y394D01*
X976Y394D01*
X976Y392D01*
X974Y392D01*
X974Y390D01*
X972Y390D01*
X972Y388D01*
X970Y388D01*
X970Y386D01*
X966Y386D01*
X966Y384D01*
X964Y384D01*
X964Y382D01*
X962Y382D01*
X962Y380D01*
X960Y380D01*
X960Y378D01*
X958Y378D01*
X958Y376D01*
X1030Y376D01*
X1030Y378D01*
X1024Y378D01*
X1024Y380D01*
X1020Y380D01*
X1020Y382D01*
X1016Y382D01*
X1016Y384D01*
X1014Y384D01*
X1014Y386D01*
X1010Y386D01*
X1010Y388D01*
X1008Y388D01*
X1008Y390D01*
X1006Y390D01*
X1006Y392D01*
X1004Y392D01*
X1004Y394D01*
X1002Y394D01*
X1002Y398D01*
X980Y398D01*
G37*
D02*
G36*
X40Y396D02*
X40Y376D01*
X90Y376D01*
X90Y378D01*
X84Y378D01*
X84Y380D01*
X78Y380D01*
X78Y382D01*
X74Y382D01*
X74Y384D01*
X72Y384D01*
X72Y386D01*
X68Y386D01*
X68Y388D01*
X66Y388D01*
X66Y390D01*
X64Y390D01*
X64Y392D01*
X62Y392D01*
X62Y394D01*
X60Y394D01*
X60Y396D01*
X40Y396D01*
G37*
D02*
G36*
X40Y376D02*
X40Y374D01*
X316Y374D01*
X316Y376D01*
X40Y376D01*
G37*
D02*
G36*
X40Y376D02*
X40Y374D01*
X316Y374D01*
X316Y376D01*
X40Y376D01*
G37*
D02*
G36*
X378Y376D02*
X378Y374D01*
X376Y374D01*
X376Y372D01*
X374Y372D01*
X374Y370D01*
X372Y370D01*
X372Y368D01*
X370Y368D01*
X370Y366D01*
X368Y366D01*
X368Y364D01*
X366Y364D01*
X366Y362D01*
X364Y362D01*
X364Y360D01*
X362Y360D01*
X362Y358D01*
X360Y358D01*
X360Y356D01*
X358Y356D01*
X358Y354D01*
X356Y354D01*
X356Y352D01*
X354Y352D01*
X354Y350D01*
X352Y350D01*
X352Y348D01*
X350Y348D01*
X350Y346D01*
X348Y346D01*
X348Y344D01*
X346Y344D01*
X346Y342D01*
X344Y342D01*
X344Y340D01*
X342Y340D01*
X342Y338D01*
X340Y338D01*
X340Y336D01*
X338Y336D01*
X338Y334D01*
X336Y334D01*
X336Y332D01*
X334Y332D01*
X334Y330D01*
X332Y330D01*
X332Y328D01*
X330Y328D01*
X330Y326D01*
X328Y326D01*
X328Y324D01*
X326Y324D01*
X326Y322D01*
X324Y322D01*
X324Y320D01*
X322Y320D01*
X322Y318D01*
X378Y318D01*
X378Y316D01*
X384Y316D01*
X384Y314D01*
X388Y314D01*
X388Y312D01*
X392Y312D01*
X392Y310D01*
X394Y310D01*
X394Y308D01*
X396Y308D01*
X396Y306D01*
X398Y306D01*
X398Y304D01*
X400Y304D01*
X400Y302D01*
X402Y302D01*
X402Y300D01*
X404Y300D01*
X404Y298D01*
X406Y298D01*
X406Y296D01*
X408Y296D01*
X408Y294D01*
X544Y294D01*
X544Y316D01*
X470Y316D01*
X470Y318D01*
X468Y318D01*
X468Y320D01*
X464Y320D01*
X464Y322D01*
X462Y322D01*
X462Y324D01*
X460Y324D01*
X460Y326D01*
X458Y326D01*
X458Y328D01*
X456Y328D01*
X456Y330D01*
X454Y330D01*
X454Y332D01*
X452Y332D01*
X452Y334D01*
X450Y334D01*
X450Y336D01*
X448Y336D01*
X448Y338D01*
X446Y338D01*
X446Y342D01*
X444Y342D01*
X444Y344D01*
X442Y344D01*
X442Y346D01*
X440Y346D01*
X440Y348D01*
X438Y348D01*
X438Y350D01*
X436Y350D01*
X436Y352D01*
X434Y352D01*
X434Y354D01*
X432Y354D01*
X432Y356D01*
X430Y356D01*
X430Y358D01*
X428Y358D01*
X428Y360D01*
X426Y360D01*
X426Y362D01*
X424Y362D01*
X424Y364D01*
X422Y364D01*
X422Y366D01*
X420Y366D01*
X420Y368D01*
X418Y368D01*
X418Y370D01*
X416Y370D01*
X416Y372D01*
X414Y372D01*
X414Y374D01*
X412Y374D01*
X412Y376D01*
X378Y376D01*
G37*
D02*
G36*
X956Y376D02*
X956Y374D01*
X1234Y374D01*
X1234Y376D01*
X956Y376D01*
G37*
D02*
G36*
X956Y376D02*
X956Y374D01*
X1234Y374D01*
X1234Y376D01*
X956Y376D01*
G37*
D02*
G36*
X1682Y376D02*
X1682Y374D01*
X1928Y374D01*
X1928Y376D01*
X1682Y376D01*
G37*
D02*
G36*
X1682Y376D02*
X1682Y374D01*
X1928Y374D01*
X1928Y376D01*
X1682Y376D01*
G37*
D02*
G36*
X40Y374D02*
X40Y318D01*
X122Y318D01*
X122Y316D01*
X128Y316D01*
X128Y314D01*
X132Y314D01*
X132Y312D01*
X136Y312D01*
X136Y310D01*
X138Y310D01*
X138Y308D01*
X140Y308D01*
X140Y306D01*
X142Y306D01*
X142Y304D01*
X144Y304D01*
X144Y302D01*
X146Y302D01*
X146Y300D01*
X148Y300D01*
X148Y298D01*
X150Y298D01*
X150Y296D01*
X152Y296D01*
X152Y292D01*
X154Y292D01*
X154Y288D01*
X156Y288D01*
X156Y282D01*
X158Y282D01*
X158Y260D01*
X156Y260D01*
X156Y254D01*
X154Y254D01*
X154Y252D01*
X152Y252D01*
X152Y248D01*
X150Y248D01*
X150Y244D01*
X148Y244D01*
X148Y242D01*
X146Y242D01*
X146Y240D01*
X144Y240D01*
X144Y238D01*
X142Y238D01*
X142Y236D01*
X140Y236D01*
X140Y234D01*
X136Y234D01*
X136Y232D01*
X134Y232D01*
X134Y230D01*
X130Y230D01*
X130Y228D01*
X126Y228D01*
X126Y226D01*
X120Y226D01*
X120Y224D01*
X166Y224D01*
X166Y226D01*
X168Y226D01*
X168Y228D01*
X170Y228D01*
X170Y230D01*
X172Y230D01*
X172Y232D01*
X174Y232D01*
X174Y234D01*
X176Y234D01*
X176Y236D01*
X178Y236D01*
X178Y238D01*
X180Y238D01*
X180Y240D01*
X182Y240D01*
X182Y242D01*
X184Y242D01*
X184Y244D01*
X186Y244D01*
X186Y246D01*
X188Y246D01*
X188Y248D01*
X190Y248D01*
X190Y250D01*
X192Y250D01*
X192Y252D01*
X194Y252D01*
X194Y254D01*
X196Y254D01*
X196Y256D01*
X198Y256D01*
X198Y258D01*
X200Y258D01*
X200Y260D01*
X202Y260D01*
X202Y262D01*
X204Y262D01*
X204Y264D01*
X206Y264D01*
X206Y266D01*
X208Y266D01*
X208Y268D01*
X210Y268D01*
X210Y270D01*
X212Y270D01*
X212Y272D01*
X214Y272D01*
X214Y274D01*
X216Y274D01*
X216Y276D01*
X218Y276D01*
X218Y278D01*
X220Y278D01*
X220Y280D01*
X222Y280D01*
X222Y282D01*
X224Y282D01*
X224Y284D01*
X226Y284D01*
X226Y286D01*
X228Y286D01*
X228Y288D01*
X230Y288D01*
X230Y290D01*
X232Y290D01*
X232Y292D01*
X234Y292D01*
X234Y294D01*
X236Y294D01*
X236Y296D01*
X238Y296D01*
X238Y298D01*
X240Y298D01*
X240Y300D01*
X242Y300D01*
X242Y302D01*
X244Y302D01*
X244Y304D01*
X246Y304D01*
X246Y306D01*
X248Y306D01*
X248Y308D01*
X250Y308D01*
X250Y310D01*
X252Y310D01*
X252Y312D01*
X254Y312D01*
X254Y314D01*
X256Y314D01*
X256Y316D01*
X258Y316D01*
X258Y318D01*
X260Y318D01*
X260Y320D01*
X262Y320D01*
X262Y322D01*
X264Y322D01*
X264Y324D01*
X266Y324D01*
X266Y326D01*
X268Y326D01*
X268Y328D01*
X270Y328D01*
X270Y330D01*
X272Y330D01*
X272Y332D01*
X274Y332D01*
X274Y334D01*
X276Y334D01*
X276Y336D01*
X278Y336D01*
X278Y338D01*
X280Y338D01*
X280Y340D01*
X282Y340D01*
X282Y342D01*
X284Y342D01*
X284Y344D01*
X286Y344D01*
X286Y346D01*
X288Y346D01*
X288Y348D01*
X290Y348D01*
X290Y350D01*
X292Y350D01*
X292Y352D01*
X294Y352D01*
X294Y354D01*
X296Y354D01*
X296Y356D01*
X298Y356D01*
X298Y358D01*
X300Y358D01*
X300Y360D01*
X302Y360D01*
X302Y362D01*
X304Y362D01*
X304Y364D01*
X306Y364D01*
X306Y366D01*
X308Y366D01*
X308Y368D01*
X310Y368D01*
X310Y370D01*
X312Y370D01*
X312Y372D01*
X314Y372D01*
X314Y374D01*
X40Y374D01*
G37*
D02*
G36*
X954Y374D02*
X954Y372D01*
X952Y372D01*
X952Y370D01*
X950Y370D01*
X950Y368D01*
X948Y368D01*
X948Y366D01*
X946Y366D01*
X946Y364D01*
X944Y364D01*
X944Y362D01*
X942Y362D01*
X942Y360D01*
X940Y360D01*
X940Y358D01*
X938Y358D01*
X938Y356D01*
X936Y356D01*
X936Y354D01*
X934Y354D01*
X934Y352D01*
X932Y352D01*
X932Y350D01*
X930Y350D01*
X930Y348D01*
X928Y348D01*
X928Y346D01*
X926Y346D01*
X926Y344D01*
X924Y344D01*
X924Y342D01*
X922Y342D01*
X922Y340D01*
X920Y340D01*
X920Y338D01*
X918Y338D01*
X918Y336D01*
X916Y336D01*
X916Y334D01*
X914Y334D01*
X914Y332D01*
X912Y332D01*
X912Y330D01*
X910Y330D01*
X910Y328D01*
X908Y328D01*
X908Y326D01*
X906Y326D01*
X906Y324D01*
X904Y324D01*
X904Y322D01*
X1068Y322D01*
X1068Y320D01*
X1074Y320D01*
X1074Y318D01*
X1078Y318D01*
X1078Y316D01*
X1082Y316D01*
X1082Y314D01*
X1084Y314D01*
X1084Y312D01*
X1088Y312D01*
X1088Y310D01*
X1090Y310D01*
X1090Y308D01*
X1092Y308D01*
X1092Y306D01*
X1094Y306D01*
X1094Y304D01*
X1096Y304D01*
X1096Y300D01*
X1098Y300D01*
X1098Y298D01*
X1100Y298D01*
X1100Y294D01*
X1102Y294D01*
X1102Y290D01*
X1104Y290D01*
X1104Y284D01*
X1106Y284D01*
X1106Y266D01*
X1104Y266D01*
X1104Y260D01*
X1102Y260D01*
X1102Y256D01*
X1100Y256D01*
X1100Y252D01*
X1098Y252D01*
X1098Y250D01*
X1096Y250D01*
X1096Y246D01*
X1094Y246D01*
X1094Y244D01*
X1092Y244D01*
X1092Y242D01*
X1090Y242D01*
X1090Y240D01*
X1088Y240D01*
X1088Y238D01*
X1084Y238D01*
X1084Y236D01*
X1082Y236D01*
X1082Y234D01*
X1078Y234D01*
X1078Y232D01*
X1074Y232D01*
X1074Y230D01*
X1068Y230D01*
X1068Y228D01*
X1304Y228D01*
X1304Y230D01*
X1298Y230D01*
X1298Y232D01*
X1294Y232D01*
X1294Y234D01*
X1292Y234D01*
X1292Y236D01*
X1288Y236D01*
X1288Y238D01*
X1286Y238D01*
X1286Y240D01*
X1284Y240D01*
X1284Y242D01*
X1282Y242D01*
X1282Y244D01*
X1280Y244D01*
X1280Y246D01*
X1278Y246D01*
X1278Y248D01*
X1276Y248D01*
X1276Y252D01*
X1274Y252D01*
X1274Y254D01*
X1272Y254D01*
X1272Y258D01*
X1270Y258D01*
X1270Y264D01*
X1268Y264D01*
X1268Y294D01*
X1266Y294D01*
X1266Y296D01*
X1264Y296D01*
X1264Y300D01*
X1262Y300D01*
X1262Y302D01*
X1260Y302D01*
X1260Y304D01*
X1258Y304D01*
X1258Y306D01*
X1256Y306D01*
X1256Y308D01*
X1254Y308D01*
X1254Y310D01*
X1252Y310D01*
X1252Y312D01*
X1250Y312D01*
X1250Y314D01*
X1248Y314D01*
X1248Y316D01*
X1246Y316D01*
X1246Y318D01*
X1244Y318D01*
X1244Y322D01*
X1242Y322D01*
X1242Y324D01*
X1240Y324D01*
X1240Y326D01*
X1238Y326D01*
X1238Y328D01*
X1236Y328D01*
X1236Y332D01*
X1234Y332D01*
X1234Y374D01*
X954Y374D01*
G37*
D02*
G36*
X1680Y374D02*
X1680Y372D01*
X1678Y372D01*
X1678Y370D01*
X1676Y370D01*
X1676Y368D01*
X1674Y368D01*
X1674Y366D01*
X1672Y366D01*
X1672Y364D01*
X1670Y364D01*
X1670Y362D01*
X1668Y362D01*
X1668Y360D01*
X1666Y360D01*
X1666Y358D01*
X1664Y358D01*
X1664Y356D01*
X1662Y356D01*
X1662Y354D01*
X1660Y354D01*
X1660Y352D01*
X1658Y352D01*
X1658Y350D01*
X1656Y350D01*
X1656Y348D01*
X1654Y348D01*
X1654Y346D01*
X1652Y346D01*
X1652Y344D01*
X1650Y344D01*
X1650Y342D01*
X1648Y342D01*
X1648Y340D01*
X1646Y340D01*
X1646Y338D01*
X1644Y338D01*
X1644Y336D01*
X1642Y336D01*
X1642Y334D01*
X1640Y334D01*
X1640Y332D01*
X1638Y332D01*
X1638Y330D01*
X1636Y330D01*
X1636Y328D01*
X1634Y328D01*
X1634Y326D01*
X1632Y326D01*
X1632Y324D01*
X1630Y324D01*
X1630Y322D01*
X1814Y322D01*
X1814Y320D01*
X1820Y320D01*
X1820Y318D01*
X1824Y318D01*
X1824Y316D01*
X1828Y316D01*
X1828Y314D01*
X1830Y314D01*
X1830Y312D01*
X1834Y312D01*
X1834Y310D01*
X1836Y310D01*
X1836Y308D01*
X1838Y308D01*
X1838Y306D01*
X1840Y306D01*
X1840Y304D01*
X1842Y304D01*
X1842Y302D01*
X1844Y302D01*
X1844Y298D01*
X1846Y298D01*
X1846Y294D01*
X1848Y294D01*
X1848Y292D01*
X1850Y292D01*
X1850Y286D01*
X1852Y286D01*
X1852Y264D01*
X1850Y264D01*
X1850Y258D01*
X1848Y258D01*
X1848Y254D01*
X1846Y254D01*
X1846Y250D01*
X1844Y250D01*
X1844Y248D01*
X1842Y248D01*
X1842Y246D01*
X1840Y246D01*
X1840Y242D01*
X1838Y242D01*
X1838Y240D01*
X1834Y240D01*
X1834Y238D01*
X1832Y238D01*
X1832Y236D01*
X1830Y236D01*
X1830Y234D01*
X1826Y234D01*
X1826Y232D01*
X1822Y232D01*
X1822Y230D01*
X1818Y230D01*
X1818Y228D01*
X1808Y228D01*
X1808Y226D01*
X1928Y226D01*
X1928Y374D01*
X1680Y374D01*
G37*
D02*
G36*
X902Y322D02*
X902Y320D01*
X900Y320D01*
X900Y318D01*
X896Y318D01*
X896Y316D01*
X892Y316D01*
X892Y314D01*
X880Y314D01*
X880Y292D01*
X882Y292D01*
X882Y288D01*
X884Y288D01*
X884Y282D01*
X886Y282D01*
X886Y262D01*
X884Y262D01*
X884Y256D01*
X882Y256D01*
X882Y252D01*
X880Y252D01*
X880Y248D01*
X878Y248D01*
X878Y246D01*
X876Y246D01*
X876Y244D01*
X874Y244D01*
X874Y242D01*
X872Y242D01*
X872Y238D01*
X868Y238D01*
X868Y236D01*
X866Y236D01*
X866Y234D01*
X864Y234D01*
X864Y232D01*
X860Y232D01*
X860Y230D01*
X856Y230D01*
X856Y228D01*
X1048Y228D01*
X1048Y230D01*
X1044Y230D01*
X1044Y232D01*
X1038Y232D01*
X1038Y234D01*
X1036Y234D01*
X1036Y236D01*
X1032Y236D01*
X1032Y238D01*
X1030Y238D01*
X1030Y240D01*
X1028Y240D01*
X1028Y242D01*
X1026Y242D01*
X1026Y244D01*
X1024Y244D01*
X1024Y246D01*
X1022Y246D01*
X1022Y248D01*
X1020Y248D01*
X1020Y252D01*
X1018Y252D01*
X1018Y254D01*
X1016Y254D01*
X1016Y258D01*
X1014Y258D01*
X1014Y264D01*
X1012Y264D01*
X1012Y286D01*
X1014Y286D01*
X1014Y292D01*
X1016Y292D01*
X1016Y296D01*
X1018Y296D01*
X1018Y298D01*
X1020Y298D01*
X1020Y302D01*
X1022Y302D01*
X1022Y304D01*
X1024Y304D01*
X1024Y306D01*
X1026Y306D01*
X1026Y308D01*
X1028Y308D01*
X1028Y310D01*
X1030Y310D01*
X1030Y312D01*
X1032Y312D01*
X1032Y314D01*
X1036Y314D01*
X1036Y316D01*
X1040Y316D01*
X1040Y318D01*
X1044Y318D01*
X1044Y320D01*
X1048Y320D01*
X1048Y322D01*
X902Y322D01*
G37*
D02*
G36*
X1628Y322D02*
X1628Y320D01*
X1626Y320D01*
X1626Y318D01*
X1624Y318D01*
X1624Y316D01*
X1622Y316D01*
X1622Y314D01*
X1620Y314D01*
X1620Y312D01*
X1618Y312D01*
X1618Y310D01*
X1616Y310D01*
X1616Y308D01*
X1614Y308D01*
X1614Y306D01*
X1612Y306D01*
X1612Y304D01*
X1610Y304D01*
X1610Y302D01*
X1608Y302D01*
X1608Y300D01*
X1606Y300D01*
X1606Y298D01*
X1604Y298D01*
X1604Y296D01*
X1602Y296D01*
X1602Y294D01*
X1600Y294D01*
X1600Y292D01*
X1598Y292D01*
X1598Y272D01*
X1596Y272D01*
X1596Y262D01*
X1594Y262D01*
X1594Y258D01*
X1592Y258D01*
X1592Y254D01*
X1590Y254D01*
X1590Y250D01*
X1588Y250D01*
X1588Y248D01*
X1586Y248D01*
X1586Y246D01*
X1584Y246D01*
X1584Y242D01*
X1582Y242D01*
X1582Y240D01*
X1578Y240D01*
X1578Y238D01*
X1576Y238D01*
X1576Y236D01*
X1574Y236D01*
X1574Y234D01*
X1570Y234D01*
X1570Y232D01*
X1566Y232D01*
X1566Y230D01*
X1562Y230D01*
X1562Y228D01*
X1552Y228D01*
X1552Y226D01*
X1804Y226D01*
X1804Y228D01*
X1794Y228D01*
X1794Y230D01*
X1788Y230D01*
X1788Y232D01*
X1784Y232D01*
X1784Y234D01*
X1782Y234D01*
X1782Y236D01*
X1778Y236D01*
X1778Y238D01*
X1776Y238D01*
X1776Y240D01*
X1774Y240D01*
X1774Y242D01*
X1772Y242D01*
X1772Y244D01*
X1770Y244D01*
X1770Y246D01*
X1768Y246D01*
X1768Y248D01*
X1766Y248D01*
X1766Y252D01*
X1764Y252D01*
X1764Y256D01*
X1762Y256D01*
X1762Y260D01*
X1760Y260D01*
X1760Y266D01*
X1758Y266D01*
X1758Y282D01*
X1760Y282D01*
X1760Y288D01*
X1762Y288D01*
X1762Y294D01*
X1764Y294D01*
X1764Y296D01*
X1766Y296D01*
X1766Y300D01*
X1768Y300D01*
X1768Y302D01*
X1770Y302D01*
X1770Y304D01*
X1772Y304D01*
X1772Y306D01*
X1774Y306D01*
X1774Y308D01*
X1776Y308D01*
X1776Y310D01*
X1778Y310D01*
X1778Y312D01*
X1780Y312D01*
X1780Y314D01*
X1784Y314D01*
X1784Y316D01*
X1786Y316D01*
X1786Y318D01*
X1792Y318D01*
X1792Y320D01*
X1798Y320D01*
X1798Y322D01*
X1628Y322D01*
G37*
D02*
G36*
X40Y318D02*
X40Y224D01*
X102Y224D01*
X102Y226D01*
X98Y226D01*
X98Y228D01*
X92Y228D01*
X92Y230D01*
X90Y230D01*
X90Y232D01*
X86Y232D01*
X86Y234D01*
X84Y234D01*
X84Y236D01*
X82Y236D01*
X82Y238D01*
X78Y238D01*
X78Y242D01*
X76Y242D01*
X76Y244D01*
X74Y244D01*
X74Y246D01*
X72Y246D01*
X72Y250D01*
X70Y250D01*
X70Y252D01*
X68Y252D01*
X68Y256D01*
X66Y256D01*
X66Y262D01*
X64Y262D01*
X64Y280D01*
X66Y280D01*
X66Y286D01*
X68Y286D01*
X68Y290D01*
X70Y290D01*
X70Y294D01*
X72Y294D01*
X72Y298D01*
X74Y298D01*
X74Y300D01*
X76Y300D01*
X76Y302D01*
X78Y302D01*
X78Y304D01*
X80Y304D01*
X80Y306D01*
X82Y306D01*
X82Y308D01*
X84Y308D01*
X84Y310D01*
X88Y310D01*
X88Y312D01*
X90Y312D01*
X90Y314D01*
X94Y314D01*
X94Y316D01*
X100Y316D01*
X100Y318D01*
X40Y318D01*
G37*
D02*
G36*
X320Y318D02*
X320Y316D01*
X318Y316D01*
X318Y314D01*
X316Y314D01*
X316Y312D01*
X314Y312D01*
X314Y310D01*
X312Y310D01*
X312Y308D01*
X310Y308D01*
X310Y306D01*
X308Y306D01*
X308Y304D01*
X306Y304D01*
X306Y302D01*
X304Y302D01*
X304Y300D01*
X302Y300D01*
X302Y298D01*
X300Y298D01*
X300Y296D01*
X298Y296D01*
X298Y294D01*
X296Y294D01*
X296Y292D01*
X294Y292D01*
X294Y290D01*
X292Y290D01*
X292Y288D01*
X290Y288D01*
X290Y286D01*
X288Y286D01*
X288Y284D01*
X286Y284D01*
X286Y282D01*
X284Y282D01*
X284Y280D01*
X282Y280D01*
X282Y278D01*
X280Y278D01*
X280Y276D01*
X278Y276D01*
X278Y274D01*
X276Y274D01*
X276Y272D01*
X274Y272D01*
X274Y270D01*
X272Y270D01*
X272Y268D01*
X270Y268D01*
X270Y266D01*
X268Y266D01*
X268Y264D01*
X266Y264D01*
X266Y262D01*
X264Y262D01*
X264Y260D01*
X262Y260D01*
X262Y258D01*
X260Y258D01*
X260Y256D01*
X258Y256D01*
X258Y254D01*
X256Y254D01*
X256Y252D01*
X254Y252D01*
X254Y250D01*
X252Y250D01*
X252Y248D01*
X250Y248D01*
X250Y246D01*
X248Y246D01*
X248Y244D01*
X246Y244D01*
X246Y242D01*
X244Y242D01*
X244Y240D01*
X242Y240D01*
X242Y238D01*
X240Y238D01*
X240Y236D01*
X238Y236D01*
X238Y234D01*
X236Y234D01*
X236Y232D01*
X234Y232D01*
X234Y230D01*
X232Y230D01*
X232Y228D01*
X230Y228D01*
X230Y226D01*
X228Y226D01*
X228Y224D01*
X358Y224D01*
X358Y226D01*
X352Y226D01*
X352Y228D01*
X348Y228D01*
X348Y230D01*
X344Y230D01*
X344Y232D01*
X342Y232D01*
X342Y234D01*
X340Y234D01*
X340Y236D01*
X336Y236D01*
X336Y238D01*
X334Y238D01*
X334Y240D01*
X332Y240D01*
X332Y244D01*
X330Y244D01*
X330Y246D01*
X328Y246D01*
X328Y248D01*
X326Y248D01*
X326Y252D01*
X324Y252D01*
X324Y256D01*
X322Y256D01*
X322Y262D01*
X320Y262D01*
X320Y280D01*
X322Y280D01*
X322Y286D01*
X324Y286D01*
X324Y290D01*
X326Y290D01*
X326Y294D01*
X328Y294D01*
X328Y298D01*
X330Y298D01*
X330Y300D01*
X332Y300D01*
X332Y302D01*
X334Y302D01*
X334Y304D01*
X336Y304D01*
X336Y306D01*
X338Y306D01*
X338Y308D01*
X340Y308D01*
X340Y310D01*
X344Y310D01*
X344Y312D01*
X346Y312D01*
X346Y314D01*
X350Y314D01*
X350Y316D01*
X356Y316D01*
X356Y318D01*
X320Y318D01*
G37*
D02*
G36*
X624Y314D02*
X624Y292D01*
X626Y292D01*
X626Y288D01*
X628Y288D01*
X628Y282D01*
X630Y282D01*
X630Y262D01*
X628Y262D01*
X628Y256D01*
X626Y256D01*
X626Y252D01*
X624Y252D01*
X624Y248D01*
X622Y248D01*
X622Y246D01*
X620Y246D01*
X620Y244D01*
X618Y244D01*
X618Y240D01*
X616Y240D01*
X616Y238D01*
X612Y238D01*
X612Y236D01*
X610Y236D01*
X610Y234D01*
X608Y234D01*
X608Y232D01*
X604Y232D01*
X604Y230D01*
X600Y230D01*
X600Y228D01*
X596Y228D01*
X596Y226D01*
X588Y226D01*
X588Y224D01*
X834Y224D01*
X834Y226D01*
X826Y226D01*
X826Y228D01*
X822Y228D01*
X822Y230D01*
X818Y230D01*
X818Y232D01*
X814Y232D01*
X814Y234D01*
X812Y234D01*
X812Y236D01*
X810Y236D01*
X810Y238D01*
X808Y238D01*
X808Y240D01*
X806Y240D01*
X806Y242D01*
X804Y242D01*
X804Y244D01*
X802Y244D01*
X802Y246D01*
X800Y246D01*
X800Y250D01*
X798Y250D01*
X798Y252D01*
X796Y252D01*
X796Y258D01*
X794Y258D01*
X794Y262D01*
X792Y262D01*
X792Y282D01*
X794Y282D01*
X794Y288D01*
X796Y288D01*
X796Y292D01*
X798Y292D01*
X798Y294D01*
X800Y294D01*
X800Y314D01*
X624Y314D01*
G37*
D02*
G36*
X1354Y252D02*
X1354Y250D01*
X1352Y250D01*
X1352Y246D01*
X1350Y246D01*
X1350Y244D01*
X1348Y244D01*
X1348Y242D01*
X1346Y242D01*
X1346Y240D01*
X1344Y240D01*
X1344Y238D01*
X1340Y238D01*
X1340Y236D01*
X1338Y236D01*
X1338Y234D01*
X1334Y234D01*
X1334Y232D01*
X1330Y232D01*
X1330Y230D01*
X1324Y230D01*
X1324Y228D01*
X1538Y228D01*
X1538Y230D01*
X1532Y230D01*
X1532Y232D01*
X1528Y232D01*
X1528Y234D01*
X1526Y234D01*
X1526Y236D01*
X1522Y236D01*
X1522Y238D01*
X1520Y238D01*
X1520Y240D01*
X1518Y240D01*
X1518Y242D01*
X1516Y242D01*
X1516Y244D01*
X1514Y244D01*
X1514Y246D01*
X1512Y246D01*
X1512Y250D01*
X1510Y250D01*
X1510Y252D01*
X1354Y252D01*
G37*
D02*
G36*
X408Y250D02*
X408Y248D01*
X406Y248D01*
X406Y244D01*
X404Y244D01*
X404Y242D01*
X402Y242D01*
X402Y240D01*
X400Y240D01*
X400Y238D01*
X398Y238D01*
X398Y236D01*
X396Y236D01*
X396Y234D01*
X392Y234D01*
X392Y232D01*
X390Y232D01*
X390Y230D01*
X386Y230D01*
X386Y228D01*
X382Y228D01*
X382Y226D01*
X376Y226D01*
X376Y224D01*
X578Y224D01*
X578Y226D01*
X572Y226D01*
X572Y228D01*
X566Y228D01*
X566Y230D01*
X562Y230D01*
X562Y232D01*
X558Y232D01*
X558Y234D01*
X556Y234D01*
X556Y236D01*
X554Y236D01*
X554Y238D01*
X552Y238D01*
X552Y240D01*
X550Y240D01*
X550Y242D01*
X548Y242D01*
X548Y244D01*
X546Y244D01*
X546Y246D01*
X544Y246D01*
X544Y250D01*
X408Y250D01*
G37*
D02*
G36*
X852Y228D02*
X852Y226D01*
X1548Y226D01*
X1548Y228D01*
X852Y228D01*
G37*
D02*
G36*
X852Y228D02*
X852Y226D01*
X1548Y226D01*
X1548Y228D01*
X852Y228D01*
G37*
D02*
G36*
X852Y228D02*
X852Y226D01*
X1548Y226D01*
X1548Y228D01*
X852Y228D01*
G37*
D02*
G36*
X844Y226D02*
X844Y224D01*
X1928Y224D01*
X1928Y226D01*
X844Y226D01*
G37*
D02*
G36*
X844Y226D02*
X844Y224D01*
X1928Y224D01*
X1928Y226D01*
X844Y226D01*
G37*
D02*
G36*
X844Y226D02*
X844Y224D01*
X1928Y224D01*
X1928Y226D01*
X844Y226D01*
G37*
D02*
G36*
X40Y224D02*
X40Y222D01*
X164Y222D01*
X164Y224D01*
X40Y224D01*
G37*
D02*
G36*
X40Y224D02*
X40Y222D01*
X164Y222D01*
X164Y224D01*
X40Y224D01*
G37*
D02*
G36*
X226Y224D02*
X226Y222D01*
X1928Y222D01*
X1928Y224D01*
X226Y224D01*
G37*
D02*
G36*
X226Y224D02*
X226Y222D01*
X1928Y222D01*
X1928Y224D01*
X226Y224D01*
G37*
D02*
G36*
X226Y224D02*
X226Y222D01*
X1928Y222D01*
X1928Y224D01*
X226Y224D01*
G37*
D02*
G36*
X226Y224D02*
X226Y222D01*
X1928Y222D01*
X1928Y224D01*
X226Y224D01*
G37*
D02*
G36*
X40Y222D02*
X40Y42D01*
X80Y42D01*
X80Y62D01*
X78Y62D01*
X78Y64D01*
X76Y64D01*
X76Y66D01*
X74Y66D01*
X74Y68D01*
X72Y68D01*
X72Y72D01*
X70Y72D01*
X70Y76D01*
X68Y76D01*
X68Y80D01*
X66Y80D01*
X66Y86D01*
X64Y86D01*
X64Y104D01*
X66Y104D01*
X66Y108D01*
X68Y108D01*
X68Y114D01*
X70Y114D01*
X70Y116D01*
X72Y116D01*
X72Y120D01*
X74Y120D01*
X74Y122D01*
X76Y122D01*
X76Y124D01*
X78Y124D01*
X78Y126D01*
X80Y126D01*
X80Y128D01*
X82Y128D01*
X82Y130D01*
X84Y130D01*
X84Y132D01*
X86Y132D01*
X86Y134D01*
X90Y134D01*
X90Y146D01*
X92Y146D01*
X92Y152D01*
X94Y152D01*
X94Y154D01*
X96Y154D01*
X96Y156D01*
X98Y156D01*
X98Y158D01*
X100Y158D01*
X100Y160D01*
X102Y160D01*
X102Y162D01*
X104Y162D01*
X104Y164D01*
X106Y164D01*
X106Y166D01*
X108Y166D01*
X108Y168D01*
X110Y168D01*
X110Y170D01*
X112Y170D01*
X112Y172D01*
X114Y172D01*
X114Y174D01*
X116Y174D01*
X116Y176D01*
X118Y176D01*
X118Y178D01*
X120Y178D01*
X120Y180D01*
X122Y180D01*
X122Y182D01*
X124Y182D01*
X124Y184D01*
X126Y184D01*
X126Y186D01*
X128Y186D01*
X128Y188D01*
X130Y188D01*
X130Y190D01*
X132Y190D01*
X132Y192D01*
X134Y192D01*
X134Y194D01*
X136Y194D01*
X136Y196D01*
X138Y196D01*
X138Y198D01*
X140Y198D01*
X140Y200D01*
X142Y200D01*
X142Y202D01*
X144Y202D01*
X144Y204D01*
X146Y204D01*
X146Y206D01*
X148Y206D01*
X148Y208D01*
X150Y208D01*
X150Y210D01*
X152Y210D01*
X152Y212D01*
X154Y212D01*
X154Y214D01*
X156Y214D01*
X156Y216D01*
X158Y216D01*
X158Y218D01*
X160Y218D01*
X160Y220D01*
X162Y220D01*
X162Y222D01*
X40Y222D01*
G37*
D02*
G36*
X224Y222D02*
X224Y220D01*
X222Y220D01*
X222Y218D01*
X220Y218D01*
X220Y216D01*
X218Y216D01*
X218Y214D01*
X216Y214D01*
X216Y212D01*
X214Y212D01*
X214Y210D01*
X212Y210D01*
X212Y208D01*
X210Y208D01*
X210Y206D01*
X208Y206D01*
X208Y204D01*
X206Y204D01*
X206Y202D01*
X204Y202D01*
X204Y200D01*
X202Y200D01*
X202Y198D01*
X200Y198D01*
X200Y196D01*
X198Y196D01*
X198Y194D01*
X196Y194D01*
X196Y192D01*
X194Y192D01*
X194Y190D01*
X192Y190D01*
X192Y188D01*
X190Y188D01*
X190Y186D01*
X188Y186D01*
X188Y184D01*
X186Y184D01*
X186Y182D01*
X184Y182D01*
X184Y180D01*
X182Y180D01*
X182Y178D01*
X180Y178D01*
X180Y176D01*
X178Y176D01*
X178Y174D01*
X176Y174D01*
X176Y172D01*
X174Y172D01*
X174Y170D01*
X172Y170D01*
X172Y168D01*
X170Y168D01*
X170Y166D01*
X168Y166D01*
X168Y164D01*
X166Y164D01*
X166Y162D01*
X164Y162D01*
X164Y160D01*
X162Y160D01*
X162Y158D01*
X160Y158D01*
X160Y156D01*
X158Y156D01*
X158Y154D01*
X156Y154D01*
X156Y152D01*
X154Y152D01*
X154Y150D01*
X152Y150D01*
X152Y148D01*
X150Y148D01*
X150Y146D01*
X1320Y146D01*
X1320Y144D01*
X1816Y144D01*
X1816Y142D01*
X1822Y142D01*
X1822Y140D01*
X1826Y140D01*
X1826Y138D01*
X1828Y138D01*
X1828Y136D01*
X1832Y136D01*
X1832Y134D01*
X1834Y134D01*
X1834Y132D01*
X1836Y132D01*
X1836Y130D01*
X1838Y130D01*
X1838Y128D01*
X1840Y128D01*
X1840Y126D01*
X1842Y126D01*
X1842Y124D01*
X1844Y124D01*
X1844Y122D01*
X1846Y122D01*
X1846Y118D01*
X1848Y118D01*
X1848Y114D01*
X1850Y114D01*
X1850Y108D01*
X1852Y108D01*
X1852Y86D01*
X1850Y86D01*
X1850Y80D01*
X1848Y80D01*
X1848Y76D01*
X1846Y76D01*
X1846Y74D01*
X1844Y74D01*
X1844Y70D01*
X1842Y70D01*
X1842Y68D01*
X1840Y68D01*
X1840Y66D01*
X1838Y66D01*
X1838Y64D01*
X1836Y64D01*
X1836Y62D01*
X1834Y62D01*
X1834Y42D01*
X1928Y42D01*
X1928Y222D01*
X224Y222D01*
G37*
D02*
G36*
X148Y146D02*
X148Y144D01*
X146Y144D01*
X146Y142D01*
X850Y142D01*
X850Y140D01*
X854Y140D01*
X854Y138D01*
X858Y138D01*
X858Y136D01*
X862Y136D01*
X862Y134D01*
X866Y134D01*
X866Y132D01*
X868Y132D01*
X868Y130D01*
X870Y130D01*
X870Y128D01*
X872Y128D01*
X872Y126D01*
X874Y126D01*
X874Y124D01*
X876Y124D01*
X876Y122D01*
X878Y122D01*
X878Y118D01*
X880Y118D01*
X880Y116D01*
X882Y116D01*
X882Y112D01*
X884Y112D01*
X884Y106D01*
X886Y106D01*
X886Y84D01*
X884Y84D01*
X884Y78D01*
X882Y78D01*
X882Y76D01*
X880Y76D01*
X880Y72D01*
X878Y72D01*
X878Y68D01*
X876Y68D01*
X876Y66D01*
X874Y66D01*
X874Y64D01*
X872Y64D01*
X872Y62D01*
X870Y62D01*
X870Y42D01*
X1032Y42D01*
X1032Y62D01*
X1028Y62D01*
X1028Y64D01*
X1026Y64D01*
X1026Y66D01*
X1024Y66D01*
X1024Y68D01*
X1022Y68D01*
X1022Y72D01*
X1020Y72D01*
X1020Y74D01*
X1018Y74D01*
X1018Y78D01*
X1016Y78D01*
X1016Y82D01*
X1014Y82D01*
X1014Y86D01*
X1012Y86D01*
X1012Y108D01*
X1014Y108D01*
X1014Y114D01*
X1016Y114D01*
X1016Y118D01*
X1018Y118D01*
X1018Y122D01*
X1020Y122D01*
X1020Y124D01*
X1022Y124D01*
X1022Y126D01*
X1024Y126D01*
X1024Y130D01*
X1026Y130D01*
X1026Y132D01*
X1030Y132D01*
X1030Y134D01*
X1032Y134D01*
X1032Y136D01*
X1034Y136D01*
X1034Y138D01*
X1038Y138D01*
X1038Y140D01*
X1042Y140D01*
X1042Y142D01*
X1046Y142D01*
X1046Y144D01*
X1054Y144D01*
X1054Y146D01*
X148Y146D01*
G37*
D02*
G36*
X1064Y146D02*
X1064Y144D01*
X1070Y144D01*
X1070Y142D01*
X1076Y142D01*
X1076Y140D01*
X1080Y140D01*
X1080Y138D01*
X1084Y138D01*
X1084Y136D01*
X1086Y136D01*
X1086Y134D01*
X1088Y134D01*
X1088Y132D01*
X1090Y132D01*
X1090Y130D01*
X1092Y130D01*
X1092Y128D01*
X1094Y128D01*
X1094Y126D01*
X1096Y126D01*
X1096Y124D01*
X1098Y124D01*
X1098Y120D01*
X1100Y120D01*
X1100Y116D01*
X1102Y116D01*
X1102Y112D01*
X1104Y112D01*
X1104Y106D01*
X1106Y106D01*
X1106Y88D01*
X1104Y88D01*
X1104Y84D01*
X1102Y84D01*
X1102Y78D01*
X1100Y78D01*
X1100Y76D01*
X1098Y76D01*
X1098Y72D01*
X1096Y72D01*
X1096Y70D01*
X1094Y70D01*
X1094Y68D01*
X1092Y68D01*
X1092Y66D01*
X1090Y66D01*
X1090Y64D01*
X1088Y64D01*
X1088Y62D01*
X1086Y62D01*
X1086Y42D01*
X1288Y42D01*
X1288Y62D01*
X1284Y62D01*
X1284Y64D01*
X1282Y64D01*
X1282Y66D01*
X1280Y66D01*
X1280Y68D01*
X1278Y68D01*
X1278Y72D01*
X1276Y72D01*
X1276Y74D01*
X1274Y74D01*
X1274Y78D01*
X1272Y78D01*
X1272Y82D01*
X1270Y82D01*
X1270Y86D01*
X1268Y86D01*
X1268Y108D01*
X1270Y108D01*
X1270Y114D01*
X1272Y114D01*
X1272Y118D01*
X1274Y118D01*
X1274Y122D01*
X1276Y122D01*
X1276Y124D01*
X1278Y124D01*
X1278Y126D01*
X1280Y126D01*
X1280Y130D01*
X1282Y130D01*
X1282Y132D01*
X1286Y132D01*
X1286Y134D01*
X1288Y134D01*
X1288Y136D01*
X1290Y136D01*
X1290Y138D01*
X1294Y138D01*
X1294Y140D01*
X1296Y140D01*
X1296Y142D01*
X1302Y142D01*
X1302Y144D01*
X1310Y144D01*
X1310Y146D01*
X1064Y146D01*
G37*
D02*
G36*
X1326Y144D02*
X1326Y142D01*
X1332Y142D01*
X1332Y140D01*
X1336Y140D01*
X1336Y138D01*
X1340Y138D01*
X1340Y136D01*
X1342Y136D01*
X1342Y134D01*
X1344Y134D01*
X1344Y132D01*
X1346Y132D01*
X1346Y130D01*
X1348Y130D01*
X1348Y128D01*
X1350Y128D01*
X1350Y126D01*
X1352Y126D01*
X1352Y124D01*
X1354Y124D01*
X1354Y120D01*
X1356Y120D01*
X1356Y116D01*
X1358Y116D01*
X1358Y112D01*
X1360Y112D01*
X1360Y106D01*
X1362Y106D01*
X1362Y90D01*
X1360Y90D01*
X1360Y84D01*
X1358Y84D01*
X1358Y78D01*
X1356Y78D01*
X1356Y76D01*
X1354Y76D01*
X1354Y72D01*
X1352Y72D01*
X1352Y70D01*
X1350Y70D01*
X1350Y68D01*
X1348Y68D01*
X1348Y66D01*
X1346Y66D01*
X1346Y64D01*
X1344Y64D01*
X1344Y62D01*
X1342Y62D01*
X1342Y42D01*
X1522Y42D01*
X1522Y62D01*
X1518Y62D01*
X1518Y64D01*
X1516Y64D01*
X1516Y68D01*
X1514Y68D01*
X1514Y70D01*
X1512Y70D01*
X1512Y72D01*
X1510Y72D01*
X1510Y76D01*
X1508Y76D01*
X1508Y78D01*
X1506Y78D01*
X1506Y84D01*
X1504Y84D01*
X1504Y90D01*
X1502Y90D01*
X1502Y106D01*
X1504Y106D01*
X1504Y112D01*
X1506Y112D01*
X1506Y116D01*
X1508Y116D01*
X1508Y120D01*
X1510Y120D01*
X1510Y122D01*
X1512Y122D01*
X1512Y126D01*
X1514Y126D01*
X1514Y128D01*
X1516Y128D01*
X1516Y130D01*
X1518Y130D01*
X1518Y132D01*
X1520Y132D01*
X1520Y134D01*
X1524Y134D01*
X1524Y136D01*
X1526Y136D01*
X1526Y138D01*
X1530Y138D01*
X1530Y140D01*
X1534Y140D01*
X1534Y142D01*
X1538Y142D01*
X1538Y144D01*
X1326Y144D01*
G37*
D02*
G36*
X1560Y144D02*
X1560Y142D01*
X1566Y142D01*
X1566Y140D01*
X1570Y140D01*
X1570Y138D01*
X1574Y138D01*
X1574Y136D01*
X1576Y136D01*
X1576Y134D01*
X1578Y134D01*
X1578Y132D01*
X1580Y132D01*
X1580Y130D01*
X1582Y130D01*
X1582Y128D01*
X1584Y128D01*
X1584Y126D01*
X1586Y126D01*
X1586Y124D01*
X1588Y124D01*
X1588Y122D01*
X1590Y122D01*
X1590Y118D01*
X1592Y118D01*
X1592Y114D01*
X1594Y114D01*
X1594Y108D01*
X1596Y108D01*
X1596Y98D01*
X1598Y98D01*
X1598Y96D01*
X1596Y96D01*
X1596Y86D01*
X1594Y86D01*
X1594Y80D01*
X1592Y80D01*
X1592Y76D01*
X1590Y76D01*
X1590Y74D01*
X1588Y74D01*
X1588Y70D01*
X1586Y70D01*
X1586Y68D01*
X1584Y68D01*
X1584Y66D01*
X1582Y66D01*
X1582Y64D01*
X1580Y64D01*
X1580Y62D01*
X1578Y62D01*
X1578Y42D01*
X1778Y42D01*
X1778Y62D01*
X1774Y62D01*
X1774Y64D01*
X1772Y64D01*
X1772Y66D01*
X1770Y66D01*
X1770Y70D01*
X1768Y70D01*
X1768Y72D01*
X1766Y72D01*
X1766Y74D01*
X1764Y74D01*
X1764Y78D01*
X1762Y78D01*
X1762Y84D01*
X1760Y84D01*
X1760Y88D01*
X1758Y88D01*
X1758Y106D01*
X1760Y106D01*
X1760Y112D01*
X1762Y112D01*
X1762Y116D01*
X1764Y116D01*
X1764Y120D01*
X1766Y120D01*
X1766Y122D01*
X1768Y122D01*
X1768Y126D01*
X1770Y126D01*
X1770Y128D01*
X1772Y128D01*
X1772Y130D01*
X1774Y130D01*
X1774Y132D01*
X1776Y132D01*
X1776Y134D01*
X1780Y134D01*
X1780Y136D01*
X1782Y136D01*
X1782Y138D01*
X1786Y138D01*
X1786Y140D01*
X1790Y140D01*
X1790Y142D01*
X1794Y142D01*
X1794Y144D01*
X1560Y144D01*
G37*
D02*
G36*
X146Y142D02*
X146Y124D01*
X148Y124D01*
X148Y120D01*
X150Y120D01*
X150Y118D01*
X152Y118D01*
X152Y114D01*
X154Y114D01*
X154Y110D01*
X156Y110D01*
X156Y106D01*
X158Y106D01*
X158Y84D01*
X156Y84D01*
X156Y78D01*
X154Y78D01*
X154Y74D01*
X152Y74D01*
X152Y70D01*
X150Y70D01*
X150Y68D01*
X148Y68D01*
X148Y66D01*
X146Y66D01*
X146Y62D01*
X144Y62D01*
X144Y42D01*
X336Y42D01*
X336Y62D01*
X334Y62D01*
X334Y64D01*
X332Y64D01*
X332Y66D01*
X330Y66D01*
X330Y68D01*
X328Y68D01*
X328Y72D01*
X326Y72D01*
X326Y76D01*
X324Y76D01*
X324Y80D01*
X322Y80D01*
X322Y86D01*
X320Y86D01*
X320Y104D01*
X322Y104D01*
X322Y110D01*
X324Y110D01*
X324Y114D01*
X326Y114D01*
X326Y116D01*
X328Y116D01*
X328Y120D01*
X330Y120D01*
X330Y122D01*
X332Y122D01*
X332Y124D01*
X334Y124D01*
X334Y128D01*
X338Y128D01*
X338Y130D01*
X340Y130D01*
X340Y132D01*
X342Y132D01*
X342Y134D01*
X346Y134D01*
X346Y136D01*
X348Y136D01*
X348Y138D01*
X354Y138D01*
X354Y140D01*
X360Y140D01*
X360Y142D01*
X146Y142D01*
G37*
D02*
G36*
X374Y142D02*
X374Y140D01*
X380Y140D01*
X380Y138D01*
X386Y138D01*
X386Y136D01*
X390Y136D01*
X390Y134D01*
X392Y134D01*
X392Y132D01*
X394Y132D01*
X394Y130D01*
X398Y130D01*
X398Y128D01*
X400Y128D01*
X400Y126D01*
X402Y126D01*
X402Y124D01*
X404Y124D01*
X404Y120D01*
X406Y120D01*
X406Y118D01*
X408Y118D01*
X408Y114D01*
X410Y114D01*
X410Y110D01*
X412Y110D01*
X412Y106D01*
X414Y106D01*
X414Y84D01*
X412Y84D01*
X412Y78D01*
X410Y78D01*
X410Y74D01*
X408Y74D01*
X408Y70D01*
X406Y70D01*
X406Y68D01*
X404Y68D01*
X404Y66D01*
X402Y66D01*
X402Y64D01*
X400Y64D01*
X400Y62D01*
X398Y62D01*
X398Y42D01*
X552Y42D01*
X552Y62D01*
X550Y62D01*
X550Y64D01*
X548Y64D01*
X548Y66D01*
X546Y66D01*
X546Y70D01*
X544Y70D01*
X544Y72D01*
X542Y72D01*
X542Y76D01*
X540Y76D01*
X540Y80D01*
X538Y80D01*
X538Y86D01*
X536Y86D01*
X536Y104D01*
X538Y104D01*
X538Y110D01*
X540Y110D01*
X540Y114D01*
X542Y114D01*
X542Y118D01*
X544Y118D01*
X544Y120D01*
X546Y120D01*
X546Y124D01*
X548Y124D01*
X548Y126D01*
X550Y126D01*
X550Y128D01*
X552Y128D01*
X552Y130D01*
X554Y130D01*
X554Y132D01*
X558Y132D01*
X558Y134D01*
X560Y134D01*
X560Y136D01*
X564Y136D01*
X564Y138D01*
X568Y138D01*
X568Y140D01*
X574Y140D01*
X574Y142D01*
X374Y142D01*
G37*
D02*
G36*
X594Y142D02*
X594Y140D01*
X598Y140D01*
X598Y138D01*
X604Y138D01*
X604Y136D01*
X606Y136D01*
X606Y134D01*
X610Y134D01*
X610Y132D01*
X612Y132D01*
X612Y130D01*
X614Y130D01*
X614Y128D01*
X616Y128D01*
X616Y126D01*
X618Y126D01*
X618Y124D01*
X620Y124D01*
X620Y122D01*
X622Y122D01*
X622Y118D01*
X624Y118D01*
X624Y116D01*
X626Y116D01*
X626Y112D01*
X628Y112D01*
X628Y106D01*
X630Y106D01*
X630Y84D01*
X628Y84D01*
X628Y78D01*
X626Y78D01*
X626Y74D01*
X624Y74D01*
X624Y72D01*
X622Y72D01*
X622Y68D01*
X620Y68D01*
X620Y66D01*
X618Y66D01*
X618Y64D01*
X616Y64D01*
X616Y62D01*
X614Y62D01*
X614Y42D01*
X808Y42D01*
X808Y62D01*
X806Y62D01*
X806Y64D01*
X804Y64D01*
X804Y66D01*
X802Y66D01*
X802Y70D01*
X800Y70D01*
X800Y72D01*
X798Y72D01*
X798Y76D01*
X796Y76D01*
X796Y80D01*
X794Y80D01*
X794Y86D01*
X792Y86D01*
X792Y104D01*
X794Y104D01*
X794Y110D01*
X796Y110D01*
X796Y114D01*
X798Y114D01*
X798Y118D01*
X800Y118D01*
X800Y120D01*
X802Y120D01*
X802Y124D01*
X804Y124D01*
X804Y126D01*
X806Y126D01*
X806Y128D01*
X808Y128D01*
X808Y130D01*
X810Y130D01*
X810Y132D01*
X814Y132D01*
X814Y134D01*
X816Y134D01*
X816Y136D01*
X820Y136D01*
X820Y138D01*
X824Y138D01*
X824Y140D01*
X830Y140D01*
X830Y142D01*
X594Y142D01*
G37*
D02*
G36*
X44Y448D02*
X76Y448D01*
X76Y405D01*
X44Y405D01*
X44Y448D01*
G37*
D02*
G36*
X110Y448D02*
X144Y448D01*
X144Y405D01*
X110Y405D01*
X110Y448D01*
G37*
D02*
G36*
X1054Y448D02*
X1086Y448D01*
X1086Y405D01*
X1054Y405D01*
X1054Y448D01*
G37*
D02*
G36*
X1505Y1260D02*
X1542Y1260D01*
X1542Y1232D01*
X1505Y1232D01*
X1505Y1260D01*
G37*
D02*
G36*
X1480Y1235D02*
X1508Y1235D01*
X1508Y1198D01*
X1480Y1198D01*
X1480Y1235D01*
G37*
D02*
G36*
X1480Y448D02*
X1512Y448D01*
X1512Y405D01*
X1480Y405D01*
X1480Y448D01*
G37*
D02*
G36*
X1190Y924D02*
X1233Y924D01*
X1233Y892D01*
X1190Y892D01*
X1190Y924D01*
G37*
D02*
G04 End of Copper1*
M02*