; NON-PLATED HOLES START AT T1
; THROUGH (PLATED) HOLES START AT T100
M48
INCH
T100C0.040000
T101C0.035000
T102C0.037167
T103C0.031497
T104C0.038000
%
T100
X016496Y009649
X017566Y009649
X015426Y009649
T101
X011126Y009381
X003920Y005347
X003673Y002710
X013351Y005365
X015496Y000968
X018055Y000968
X016251Y013071
X015298Y005380
X010587Y000974
X013251Y013071
X018298Y005380
X010388Y004228
X003956Y004236
X013388Y004228
X005833Y002717
X000956Y004236
X001114Y002710
X013146Y000974
X003673Y000938
X015321Y004229
X005591Y004225
X018321Y004229
X008591Y004225
X008392Y000946
X015496Y002739
X007126Y012381
X009126Y012381
X018055Y002739
X006126Y012381
X008126Y012381
X010587Y002745
X007126Y009381
X009126Y009381
X001114Y000938
X006126Y009381
X008126Y009381
X013146Y002745
X010126Y012381
X012126Y012381
X005580Y005412
X011126Y012381
X005833Y000946
X008580Y005412
X010126Y009381
X012126Y009381
X000920Y005347
X010351Y005365
X008392Y002717
T102
X002691Y012441
X002691Y009764
T103
X015261Y011151
X016491Y006873
X002921Y006823
X017475Y006873
X001937Y006823
X011557Y006839
X012541Y006839
X015261Y012136
X006591Y006849
X007575Y006849
T104
X018295Y012135
X017295Y012135
T00
M30
