G04 MADE WITH FRITZING*
G04 WWW.FRITZING.ORG*
G04 DOUBLE SIDED*
G04 HOLES PLATED*
G04 CONTOUR ON CENTER OF CONTOUR VECTOR*
%ASAXBY*%
%FSLAX23Y23*%
%MOIN*%
%OFA0B0*%
%SFA1.0B1.0*%
%ADD10R,1.968500X1.379610X1.952500X1.363610*%
%ADD11C,0.008000*%
%ADD12R,0.001000X0.001000*%
%LNSILK0*%
G90*
G70*
G54D11*
X4Y1376D02*
X1965Y1376D01*
X1965Y4D01*
X4Y4D01*
X4Y1376D01*
D02*
G36*
X1296Y1164D02*
X1296Y1163D01*
X1298Y1163D01*
X1298Y1162D01*
X1299Y1162D01*
X1299Y1162D01*
X1299Y1162D01*
X1299Y1161D01*
X1300Y1161D01*
X1300Y1161D01*
X1300Y1161D01*
X1300Y1160D01*
X1301Y1160D01*
X1301Y1159D01*
X1302Y1159D01*
X1302Y1159D01*
X1281Y1159D01*
X1281Y1158D01*
X1277Y1158D01*
X1277Y1158D01*
X1274Y1158D01*
X1274Y1157D01*
X1272Y1157D01*
X1272Y1156D01*
X1270Y1156D01*
X1270Y1156D01*
X1268Y1156D01*
X1268Y1155D01*
X1267Y1155D01*
X1267Y1155D01*
X1266Y1155D01*
X1266Y1154D01*
X1265Y1154D01*
X1265Y1154D01*
X1265Y1154D01*
X1265Y1152D01*
X1264Y1152D01*
X1264Y1152D01*
X1264Y1152D01*
X1264Y1151D01*
X1263Y1151D01*
X1263Y1149D01*
X1263Y1149D01*
X1263Y1148D01*
X1262Y1148D01*
X1262Y1146D01*
X1261Y1146D01*
X1261Y1145D01*
X1261Y1145D01*
X1261Y1143D01*
X1260Y1143D01*
X1260Y1140D01*
X1260Y1140D01*
X1260Y1139D01*
X1259Y1139D01*
X1259Y1136D01*
X1258Y1136D01*
X1258Y1133D01*
X1258Y1133D01*
X1258Y1130D01*
X1257Y1130D01*
X1257Y1127D01*
X1257Y1127D01*
X1257Y1125D01*
X1256Y1125D01*
X1256Y1121D01*
X1255Y1121D01*
X1255Y1117D01*
X1255Y1117D01*
X1255Y1116D01*
X1251Y1116D01*
X1251Y1119D01*
X1251Y1119D01*
X1251Y1122D01*
X1252Y1122D01*
X1252Y1126D01*
X1252Y1126D01*
X1252Y1129D01*
X1253Y1129D01*
X1253Y1131D01*
X1254Y1131D01*
X1254Y1134D01*
X1254Y1134D01*
X1254Y1136D01*
X1255Y1136D01*
X1255Y1138D01*
X1255Y1138D01*
X1255Y1140D01*
X1256Y1140D01*
X1256Y1142D01*
X1257Y1142D01*
X1257Y1144D01*
X1257Y1144D01*
X1257Y1146D01*
X1258Y1146D01*
X1258Y1148D01*
X1258Y1148D01*
X1258Y1149D01*
X1259Y1149D01*
X1259Y1151D01*
X1260Y1151D01*
X1260Y1152D01*
X1260Y1152D01*
X1260Y1154D01*
X1261Y1154D01*
X1261Y1155D01*
X1261Y1155D01*
X1261Y1156D01*
X1262Y1156D01*
X1262Y1157D01*
X1263Y1157D01*
X1263Y1158D01*
X1264Y1158D01*
X1264Y1158D01*
X1265Y1158D01*
X1265Y1159D01*
X1267Y1159D01*
X1267Y1159D01*
X1269Y1159D01*
X1269Y1160D01*
X1271Y1160D01*
X1271Y1161D01*
X1273Y1161D01*
X1273Y1161D01*
X1275Y1161D01*
X1275Y1162D01*
X1277Y1162D01*
X1277Y1162D01*
X1280Y1162D01*
X1280Y1163D01*
X1283Y1163D01*
X1283Y1164D01*
X1296Y1164D01*
G37*
D02*
G36*
X1303Y1159D02*
X1303Y1158D01*
X1303Y1158D01*
X1303Y1158D01*
X1304Y1158D01*
X1304Y1157D01*
X1305Y1157D01*
X1305Y1156D01*
X1298Y1156D01*
X1298Y1154D01*
X1299Y1154D01*
X1299Y1150D01*
X1299Y1150D01*
X1299Y1146D01*
X1300Y1146D01*
X1300Y1142D01*
X1300Y1142D01*
X1300Y1139D01*
X1301Y1139D01*
X1301Y1135D01*
X1302Y1135D01*
X1302Y1132D01*
X1302Y1132D01*
X1302Y1125D01*
X1303Y1125D01*
X1303Y1119D01*
X1303Y1119D01*
X1303Y1113D01*
X1304Y1113D01*
X1304Y1109D01*
X1305Y1109D01*
X1305Y1106D01*
X1305Y1106D01*
X1305Y1104D01*
X1301Y1104D01*
X1301Y1107D01*
X1300Y1107D01*
X1300Y1112D01*
X1300Y1112D01*
X1300Y1116D01*
X1299Y1116D01*
X1299Y1121D01*
X1299Y1121D01*
X1299Y1126D01*
X1298Y1126D01*
X1298Y1130D01*
X1297Y1130D01*
X1297Y1135D01*
X1297Y1135D01*
X1297Y1138D01*
X1296Y1138D01*
X1296Y1142D01*
X1296Y1142D01*
X1296Y1146D01*
X1295Y1146D01*
X1295Y1149D01*
X1294Y1149D01*
X1294Y1152D01*
X1294Y1152D01*
X1294Y1155D01*
X1293Y1155D01*
X1293Y1157D01*
X1293Y1157D01*
X1293Y1159D01*
X1303Y1159D01*
G37*
D02*
G36*
X1305Y1156D02*
X1305Y1155D01*
X1306Y1155D01*
X1306Y1154D01*
X1306Y1154D01*
X1306Y1152D01*
X1307Y1152D01*
X1307Y1151D01*
X1307Y1151D01*
X1307Y1148D01*
X1308Y1148D01*
X1308Y1146D01*
X1309Y1146D01*
X1309Y1143D01*
X1309Y1143D01*
X1309Y1140D01*
X1310Y1140D01*
X1310Y1137D01*
X1310Y1137D01*
X1310Y1133D01*
X1311Y1133D01*
X1311Y1129D01*
X1312Y1129D01*
X1312Y1126D01*
X1312Y1126D01*
X1312Y1121D01*
X1313Y1121D01*
X1313Y1117D01*
X1313Y1117D01*
X1313Y1116D01*
X1313Y1116D01*
X1313Y1106D01*
X1313Y1106D01*
X1313Y1104D01*
X1309Y1104D01*
X1309Y1116D01*
X1308Y1116D01*
X1308Y1125D01*
X1307Y1125D01*
X1307Y1130D01*
X1307Y1130D01*
X1307Y1135D01*
X1306Y1135D01*
X1306Y1139D01*
X1306Y1139D01*
X1306Y1142D01*
X1305Y1142D01*
X1305Y1144D01*
X1305Y1144D01*
X1305Y1146D01*
X1304Y1146D01*
X1304Y1148D01*
X1303Y1148D01*
X1303Y1150D01*
X1303Y1150D01*
X1303Y1151D01*
X1302Y1151D01*
X1302Y1152D01*
X1302Y1152D01*
X1302Y1154D01*
X1301Y1154D01*
X1301Y1155D01*
X1300Y1155D01*
X1300Y1155D01*
X1300Y1155D01*
X1300Y1156D01*
X1299Y1156D01*
X1299Y1156D01*
X1305Y1156D01*
G37*
D02*
G36*
X1229Y1152D02*
X1229Y1151D01*
X1230Y1151D01*
X1230Y1151D01*
X1231Y1151D01*
X1231Y1150D01*
X1232Y1150D01*
X1232Y1149D01*
X1233Y1149D01*
X1233Y1149D01*
X1234Y1149D01*
X1234Y1148D01*
X1235Y1148D01*
X1235Y1148D01*
X1236Y1148D01*
X1236Y1147D01*
X1237Y1147D01*
X1237Y1146D01*
X1226Y1146D01*
X1226Y1146D01*
X1225Y1146D01*
X1225Y1145D01*
X1224Y1145D01*
X1224Y1145D01*
X1223Y1145D01*
X1223Y1144D01*
X1222Y1144D01*
X1222Y1143D01*
X1221Y1143D01*
X1221Y1143D01*
X1221Y1143D01*
X1221Y1142D01*
X1219Y1142D01*
X1219Y1142D01*
X1218Y1142D01*
X1218Y1141D01*
X1218Y1141D01*
X1218Y1140D01*
X1216Y1140D01*
X1216Y1140D01*
X1216Y1140D01*
X1216Y1139D01*
X1215Y1139D01*
X1215Y1139D01*
X1213Y1139D01*
X1213Y1138D01*
X1213Y1138D01*
X1213Y1138D01*
X1212Y1138D01*
X1212Y1137D01*
X1210Y1137D01*
X1210Y1136D01*
X1209Y1136D01*
X1209Y1136D01*
X1209Y1136D01*
X1209Y1135D01*
X1208Y1135D01*
X1208Y1135D01*
X1207Y1135D01*
X1207Y1133D01*
X1206Y1133D01*
X1206Y1122D01*
X1207Y1122D01*
X1207Y1113D01*
X1208Y1113D01*
X1208Y1106D01*
X1208Y1106D01*
X1208Y1100D01*
X1209Y1100D01*
X1209Y1095D01*
X1209Y1095D01*
X1209Y1090D01*
X1210Y1090D01*
X1210Y1085D01*
X1210Y1085D01*
X1210Y1081D01*
X1211Y1081D01*
X1211Y1076D01*
X1212Y1076D01*
X1212Y1072D01*
X1212Y1072D01*
X1212Y1056D01*
X1213Y1056D01*
X1213Y1046D01*
X1213Y1046D01*
X1213Y1042D01*
X1214Y1042D01*
X1214Y1038D01*
X1215Y1038D01*
X1215Y1036D01*
X1215Y1036D01*
X1215Y1034D01*
X1216Y1034D01*
X1216Y1033D01*
X1216Y1033D01*
X1216Y1032D01*
X1212Y1032D01*
X1212Y1033D01*
X1211Y1033D01*
X1211Y1035D01*
X1210Y1035D01*
X1210Y1038D01*
X1210Y1038D01*
X1210Y1042D01*
X1209Y1042D01*
X1209Y1047D01*
X1209Y1047D01*
X1209Y1056D01*
X1208Y1056D01*
X1208Y1074D01*
X1208Y1074D01*
X1208Y1079D01*
X1207Y1079D01*
X1207Y1084D01*
X1206Y1084D01*
X1206Y1088D01*
X1206Y1088D01*
X1206Y1093D01*
X1205Y1093D01*
X1205Y1098D01*
X1205Y1098D01*
X1205Y1103D01*
X1204Y1103D01*
X1204Y1109D01*
X1203Y1109D01*
X1203Y1114D01*
X1203Y1114D01*
X1203Y1119D01*
X1202Y1119D01*
X1202Y1125D01*
X1202Y1125D01*
X1202Y1131D01*
X1201Y1131D01*
X1201Y1138D01*
X1203Y1138D01*
X1203Y1139D01*
X1206Y1139D01*
X1206Y1139D01*
X1208Y1139D01*
X1208Y1140D01*
X1209Y1140D01*
X1209Y1140D01*
X1210Y1140D01*
X1210Y1141D01*
X1211Y1141D01*
X1211Y1142D01*
X1212Y1142D01*
X1212Y1142D01*
X1213Y1142D01*
X1213Y1143D01*
X1213Y1143D01*
X1213Y1143D01*
X1215Y1143D01*
X1215Y1144D01*
X1215Y1144D01*
X1215Y1145D01*
X1216Y1145D01*
X1216Y1145D01*
X1217Y1145D01*
X1217Y1146D01*
X1218Y1146D01*
X1218Y1146D01*
X1219Y1146D01*
X1219Y1147D01*
X1220Y1147D01*
X1220Y1148D01*
X1221Y1148D01*
X1221Y1148D01*
X1222Y1148D01*
X1222Y1149D01*
X1223Y1149D01*
X1223Y1149D01*
X1223Y1149D01*
X1223Y1150D01*
X1225Y1150D01*
X1225Y1151D01*
X1226Y1151D01*
X1226Y1151D01*
X1227Y1151D01*
X1227Y1152D01*
X1229Y1152D01*
G37*
D02*
G36*
X1280Y1148D02*
X1280Y1148D01*
X1281Y1148D01*
X1281Y1146D01*
X1281Y1146D01*
X1281Y1145D01*
X1282Y1145D01*
X1282Y1143D01*
X1283Y1143D01*
X1283Y1140D01*
X1283Y1140D01*
X1283Y1137D01*
X1284Y1137D01*
X1284Y1133D01*
X1284Y1133D01*
X1284Y1132D01*
X1279Y1132D01*
X1279Y1126D01*
X1280Y1126D01*
X1280Y1126D01*
X1274Y1126D01*
X1274Y1126D01*
X1275Y1126D01*
X1275Y1131D01*
X1276Y1131D01*
X1276Y1135D01*
X1276Y1135D01*
X1276Y1140D01*
X1277Y1140D01*
X1277Y1144D01*
X1277Y1144D01*
X1277Y1148D01*
X1278Y1148D01*
X1278Y1148D01*
X1280Y1148D01*
G37*
D02*
G36*
X1238Y1146D02*
X1238Y1146D01*
X1239Y1146D01*
X1239Y1145D01*
X1241Y1145D01*
X1241Y1145D01*
X1241Y1145D01*
X1241Y1144D01*
X1233Y1144D01*
X1233Y1142D01*
X1234Y1142D01*
X1234Y1140D01*
X1234Y1140D01*
X1234Y1139D01*
X1235Y1139D01*
X1235Y1138D01*
X1235Y1138D01*
X1235Y1137D01*
X1236Y1137D01*
X1236Y1136D01*
X1236Y1136D01*
X1236Y1135D01*
X1237Y1135D01*
X1237Y1134D01*
X1238Y1134D01*
X1238Y1133D01*
X1238Y1133D01*
X1238Y1133D01*
X1239Y1133D01*
X1239Y1132D01*
X1233Y1132D01*
X1233Y1133D01*
X1232Y1133D01*
X1232Y1135D01*
X1232Y1135D01*
X1232Y1136D01*
X1231Y1136D01*
X1231Y1138D01*
X1231Y1138D01*
X1231Y1139D01*
X1230Y1139D01*
X1230Y1140D01*
X1229Y1140D01*
X1229Y1142D01*
X1229Y1142D01*
X1229Y1143D01*
X1228Y1143D01*
X1228Y1145D01*
X1228Y1145D01*
X1228Y1146D01*
X1227Y1146D01*
X1227Y1146D01*
X1238Y1146D01*
G37*
D02*
G36*
X1242Y1144D02*
X1242Y1143D01*
X1242Y1143D01*
X1242Y1142D01*
X1243Y1142D01*
X1243Y1140D01*
X1244Y1140D01*
X1244Y1139D01*
X1244Y1139D01*
X1244Y1137D01*
X1245Y1137D01*
X1245Y1135D01*
X1245Y1135D01*
X1245Y1133D01*
X1246Y1133D01*
X1246Y1132D01*
X1241Y1132D01*
X1241Y1138D01*
X1240Y1138D01*
X1240Y1139D01*
X1239Y1139D01*
X1239Y1140D01*
X1239Y1140D01*
X1239Y1141D01*
X1238Y1141D01*
X1238Y1142D01*
X1238Y1142D01*
X1238Y1142D01*
X1237Y1142D01*
X1237Y1143D01*
X1236Y1143D01*
X1236Y1143D01*
X1235Y1143D01*
X1235Y1144D01*
X1242Y1144D01*
G37*
D02*
G36*
X1246Y1132D02*
X1246Y1132D01*
X1234Y1132D01*
X1234Y1132D01*
X1246Y1132D01*
G37*
D02*
G36*
X1246Y1132D02*
X1246Y1132D01*
X1234Y1132D01*
X1234Y1132D01*
X1246Y1132D01*
G37*
D02*
G36*
X1284Y1132D02*
X1284Y1126D01*
X1281Y1126D01*
X1281Y1129D01*
X1280Y1129D01*
X1280Y1132D01*
X1284Y1132D01*
G37*
D02*
G36*
X1246Y1132D02*
X1246Y1131D01*
X1247Y1131D01*
X1247Y1128D01*
X1247Y1128D01*
X1247Y1126D01*
X1248Y1126D01*
X1248Y1123D01*
X1248Y1123D01*
X1248Y1121D01*
X1242Y1121D01*
X1242Y1120D01*
X1243Y1120D01*
X1243Y1119D01*
X1244Y1119D01*
X1244Y1119D01*
X1239Y1119D01*
X1239Y1120D01*
X1238Y1120D01*
X1238Y1121D01*
X1238Y1121D01*
X1238Y1122D01*
X1237Y1122D01*
X1237Y1124D01*
X1236Y1124D01*
X1236Y1125D01*
X1236Y1125D01*
X1236Y1126D01*
X1235Y1126D01*
X1235Y1128D01*
X1235Y1128D01*
X1235Y1129D01*
X1234Y1129D01*
X1234Y1130D01*
X1234Y1130D01*
X1234Y1132D01*
X1246Y1132D01*
G37*
D02*
G36*
X1284Y1126D02*
X1284Y1125D01*
X1274Y1125D01*
X1274Y1126D01*
X1284Y1126D01*
G37*
D02*
G36*
X1284Y1126D02*
X1284Y1125D01*
X1274Y1125D01*
X1274Y1126D01*
X1284Y1126D01*
G37*
D02*
G36*
X1285Y1125D02*
X1285Y1117D01*
X1286Y1117D01*
X1286Y1114D01*
X1277Y1114D01*
X1277Y1112D01*
X1273Y1112D01*
X1273Y1113D01*
X1273Y1113D01*
X1273Y1117D01*
X1274Y1117D01*
X1274Y1122D01*
X1274Y1122D01*
X1274Y1125D01*
X1285Y1125D01*
G37*
D02*
G36*
X1248Y1121D02*
X1248Y1120D01*
X1249Y1120D01*
X1249Y1119D01*
X1244Y1119D01*
X1244Y1121D01*
X1248Y1121D01*
G37*
D02*
G36*
X1225Y1119D02*
X1225Y1117D01*
X1225Y1117D01*
X1225Y1116D01*
X1226Y1116D01*
X1226Y1114D01*
X1226Y1114D01*
X1226Y1113D01*
X1227Y1113D01*
X1227Y1111D01*
X1228Y1111D01*
X1228Y1109D01*
X1228Y1109D01*
X1228Y1108D01*
X1229Y1108D01*
X1229Y1106D01*
X1229Y1106D01*
X1229Y1104D01*
X1230Y1104D01*
X1230Y1103D01*
X1231Y1103D01*
X1231Y1102D01*
X1226Y1102D01*
X1226Y1095D01*
X1226Y1095D01*
X1226Y1084D01*
X1227Y1084D01*
X1227Y1072D01*
X1228Y1072D01*
X1228Y1068D01*
X1229Y1068D01*
X1229Y1068D01*
X1223Y1068D01*
X1223Y1074D01*
X1223Y1074D01*
X1223Y1083D01*
X1222Y1083D01*
X1222Y1091D01*
X1222Y1091D01*
X1222Y1098D01*
X1221Y1098D01*
X1221Y1105D01*
X1221Y1105D01*
X1221Y1110D01*
X1220Y1110D01*
X1220Y1113D01*
X1221Y1113D01*
X1221Y1116D01*
X1221Y1116D01*
X1221Y1117D01*
X1222Y1117D01*
X1222Y1119D01*
X1222Y1119D01*
X1222Y1119D01*
X1225Y1119D01*
G37*
D02*
G36*
X1249Y1119D02*
X1249Y1118D01*
X1239Y1118D01*
X1239Y1119D01*
X1249Y1119D01*
G37*
D02*
G36*
X1249Y1119D02*
X1249Y1118D01*
X1239Y1118D01*
X1239Y1119D01*
X1249Y1119D01*
G37*
D02*
G36*
X1249Y1118D02*
X1249Y1117D01*
X1250Y1117D01*
X1250Y1116D01*
X1240Y1116D01*
X1240Y1117D01*
X1239Y1117D01*
X1239Y1118D01*
X1249Y1118D01*
G37*
D02*
G36*
X1255Y1116D02*
X1255Y1115D01*
X1241Y1115D01*
X1241Y1116D01*
X1255Y1116D01*
G37*
D02*
G36*
X1255Y1116D02*
X1255Y1115D01*
X1241Y1115D01*
X1241Y1116D01*
X1255Y1116D01*
G37*
D02*
G36*
X1255Y1115D02*
X1255Y1113D01*
X1254Y1113D01*
X1254Y1109D01*
X1254Y1109D01*
X1254Y1104D01*
X1253Y1104D01*
X1253Y1094D01*
X1250Y1094D01*
X1250Y1095D01*
X1250Y1095D01*
X1250Y1096D01*
X1249Y1096D01*
X1249Y1097D01*
X1248Y1097D01*
X1248Y1098D01*
X1248Y1098D01*
X1248Y1100D01*
X1247Y1100D01*
X1247Y1101D01*
X1247Y1101D01*
X1247Y1103D01*
X1246Y1103D01*
X1246Y1104D01*
X1245Y1104D01*
X1245Y1105D01*
X1245Y1105D01*
X1245Y1106D01*
X1244Y1106D01*
X1244Y1108D01*
X1244Y1108D01*
X1244Y1109D01*
X1243Y1109D01*
X1243Y1110D01*
X1242Y1110D01*
X1242Y1112D01*
X1242Y1112D01*
X1242Y1113D01*
X1241Y1113D01*
X1241Y1114D01*
X1241Y1114D01*
X1241Y1115D01*
X1255Y1115D01*
G37*
D02*
G36*
X1286Y1114D02*
X1286Y1112D01*
X1278Y1112D01*
X1278Y1113D01*
X1278Y1113D01*
X1278Y1114D01*
X1286Y1114D01*
G37*
D02*
G36*
X1286Y1112D02*
X1286Y1112D01*
X1273Y1112D01*
X1273Y1112D01*
X1286Y1112D01*
G37*
D02*
G36*
X1286Y1112D02*
X1286Y1112D01*
X1273Y1112D01*
X1273Y1112D01*
X1286Y1112D01*
G37*
D02*
G36*
X1286Y1112D02*
X1286Y1110D01*
X1286Y1110D01*
X1286Y1108D01*
X1277Y1108D01*
X1277Y1107D01*
X1276Y1107D01*
X1276Y1103D01*
X1276Y1103D01*
X1276Y1103D01*
X1277Y1103D01*
X1277Y1102D01*
X1278Y1102D01*
X1278Y1101D01*
X1280Y1101D01*
X1280Y1101D01*
X1280Y1101D01*
X1280Y1100D01*
X1281Y1100D01*
X1281Y1100D01*
X1271Y1100D01*
X1271Y1104D01*
X1272Y1104D01*
X1272Y1109D01*
X1273Y1109D01*
X1273Y1112D01*
X1286Y1112D01*
G37*
D02*
G36*
X1286Y1108D02*
X1286Y1102D01*
X1287Y1102D01*
X1287Y1100D01*
X1283Y1100D01*
X1283Y1101D01*
X1282Y1101D01*
X1282Y1101D01*
X1281Y1101D01*
X1281Y1102D01*
X1281Y1102D01*
X1281Y1103D01*
X1280Y1103D01*
X1280Y1104D01*
X1280Y1104D01*
X1280Y1104D01*
X1279Y1104D01*
X1279Y1106D01*
X1278Y1106D01*
X1278Y1106D01*
X1278Y1106D01*
X1278Y1107D01*
X1277Y1107D01*
X1277Y1108D01*
X1286Y1108D01*
G37*
D02*
G36*
X1313Y1104D02*
X1313Y1104D01*
X1301Y1104D01*
X1301Y1104D01*
X1313Y1104D01*
G37*
D02*
G36*
X1313Y1104D02*
X1313Y1104D01*
X1301Y1104D01*
X1301Y1104D01*
X1313Y1104D01*
G37*
D02*
G36*
X1313Y1104D02*
X1313Y1098D01*
X1307Y1098D01*
X1307Y1097D01*
X1308Y1097D01*
X1308Y1097D01*
X1302Y1097D01*
X1302Y1101D01*
X1301Y1101D01*
X1301Y1104D01*
X1313Y1104D01*
G37*
D02*
G36*
X1231Y1102D02*
X1231Y1101D01*
X1231Y1101D01*
X1231Y1100D01*
X1232Y1100D01*
X1232Y1098D01*
X1232Y1098D01*
X1232Y1096D01*
X1233Y1096D01*
X1233Y1095D01*
X1234Y1095D01*
X1234Y1093D01*
X1234Y1093D01*
X1234Y1091D01*
X1235Y1091D01*
X1235Y1090D01*
X1235Y1090D01*
X1235Y1088D01*
X1236Y1088D01*
X1236Y1087D01*
X1236Y1087D01*
X1236Y1085D01*
X1237Y1085D01*
X1237Y1083D01*
X1238Y1083D01*
X1238Y1082D01*
X1238Y1082D01*
X1238Y1080D01*
X1239Y1080D01*
X1239Y1079D01*
X1234Y1079D01*
X1234Y1074D01*
X1235Y1074D01*
X1235Y1070D01*
X1235Y1070D01*
X1235Y1068D01*
X1231Y1068D01*
X1231Y1072D01*
X1231Y1072D01*
X1231Y1077D01*
X1230Y1077D01*
X1230Y1082D01*
X1229Y1082D01*
X1229Y1087D01*
X1229Y1087D01*
X1229Y1092D01*
X1229Y1092D01*
X1229Y1094D01*
X1229Y1094D01*
X1229Y1095D01*
X1228Y1095D01*
X1228Y1097D01*
X1228Y1097D01*
X1228Y1099D01*
X1227Y1099D01*
X1227Y1102D01*
X1231Y1102D01*
G37*
D02*
G36*
X1287Y1100D02*
X1287Y1099D01*
X1271Y1099D01*
X1271Y1100D01*
X1287Y1100D01*
G37*
D02*
G36*
X1287Y1100D02*
X1287Y1099D01*
X1271Y1099D01*
X1271Y1100D01*
X1287Y1100D01*
G37*
D02*
G36*
X1287Y1099D02*
X1287Y1094D01*
X1287Y1094D01*
X1287Y1087D01*
X1282Y1087D01*
X1282Y1086D01*
X1281Y1086D01*
X1281Y1083D01*
X1281Y1083D01*
X1281Y1080D01*
X1280Y1080D01*
X1280Y1077D01*
X1280Y1077D01*
X1280Y1074D01*
X1279Y1074D01*
X1279Y1071D01*
X1278Y1071D01*
X1278Y1068D01*
X1278Y1068D01*
X1278Y1065D01*
X1277Y1065D01*
X1277Y1062D01*
X1277Y1062D01*
X1277Y1059D01*
X1276Y1059D01*
X1276Y1056D01*
X1276Y1056D01*
X1276Y1052D01*
X1275Y1052D01*
X1275Y1049D01*
X1274Y1049D01*
X1274Y1046D01*
X1270Y1046D01*
X1270Y1049D01*
X1271Y1049D01*
X1271Y1052D01*
X1271Y1052D01*
X1271Y1055D01*
X1272Y1055D01*
X1272Y1058D01*
X1273Y1058D01*
X1273Y1062D01*
X1273Y1062D01*
X1273Y1065D01*
X1274Y1065D01*
X1274Y1068D01*
X1274Y1068D01*
X1274Y1071D01*
X1275Y1071D01*
X1275Y1074D01*
X1276Y1074D01*
X1276Y1077D01*
X1276Y1077D01*
X1276Y1080D01*
X1277Y1080D01*
X1277Y1083D01*
X1277Y1083D01*
X1277Y1085D01*
X1278Y1085D01*
X1278Y1087D01*
X1278Y1087D01*
X1278Y1090D01*
X1279Y1090D01*
X1279Y1091D01*
X1280Y1091D01*
X1280Y1096D01*
X1279Y1096D01*
X1279Y1097D01*
X1278Y1097D01*
X1278Y1097D01*
X1278Y1097D01*
X1278Y1098D01*
X1277Y1098D01*
X1277Y1098D01*
X1276Y1098D01*
X1276Y1099D01*
X1287Y1099D01*
G37*
D02*
G36*
X1275Y1099D02*
X1275Y1095D01*
X1274Y1095D01*
X1274Y1091D01*
X1274Y1091D01*
X1274Y1088D01*
X1273Y1088D01*
X1273Y1085D01*
X1273Y1085D01*
X1273Y1082D01*
X1272Y1082D01*
X1272Y1080D01*
X1271Y1080D01*
X1271Y1077D01*
X1271Y1077D01*
X1271Y1074D01*
X1270Y1074D01*
X1270Y1072D01*
X1270Y1072D01*
X1270Y1070D01*
X1269Y1070D01*
X1269Y1067D01*
X1268Y1067D01*
X1268Y1064D01*
X1268Y1064D01*
X1268Y1062D01*
X1267Y1062D01*
X1267Y1059D01*
X1267Y1059D01*
X1267Y1055D01*
X1266Y1055D01*
X1266Y1050D01*
X1267Y1050D01*
X1267Y1049D01*
X1257Y1049D01*
X1257Y1050D01*
X1258Y1050D01*
X1258Y1051D01*
X1259Y1051D01*
X1259Y1051D01*
X1260Y1051D01*
X1260Y1052D01*
X1261Y1052D01*
X1261Y1052D01*
X1262Y1052D01*
X1262Y1055D01*
X1263Y1055D01*
X1263Y1059D01*
X1263Y1059D01*
X1263Y1062D01*
X1264Y1062D01*
X1264Y1065D01*
X1264Y1065D01*
X1264Y1067D01*
X1265Y1067D01*
X1265Y1070D01*
X1265Y1070D01*
X1265Y1072D01*
X1266Y1072D01*
X1266Y1075D01*
X1267Y1075D01*
X1267Y1078D01*
X1267Y1078D01*
X1267Y1081D01*
X1268Y1081D01*
X1268Y1083D01*
X1268Y1083D01*
X1268Y1086D01*
X1269Y1086D01*
X1269Y1088D01*
X1270Y1088D01*
X1270Y1091D01*
X1270Y1091D01*
X1270Y1096D01*
X1271Y1096D01*
X1271Y1099D01*
X1275Y1099D01*
G37*
D02*
G36*
X1313Y1098D02*
X1313Y1098D01*
X1314Y1098D01*
X1314Y1097D01*
X1309Y1097D01*
X1309Y1098D01*
X1313Y1098D01*
G37*
D02*
G36*
X1314Y1097D02*
X1314Y1096D01*
X1302Y1096D01*
X1302Y1097D01*
X1314Y1097D01*
G37*
D02*
G36*
X1314Y1097D02*
X1314Y1096D01*
X1302Y1096D01*
X1302Y1097D01*
X1314Y1097D01*
G37*
D02*
G36*
X1314Y1096D02*
X1314Y1093D01*
X1307Y1093D01*
X1307Y1092D01*
X1307Y1092D01*
X1307Y1091D01*
X1308Y1091D01*
X1308Y1090D01*
X1309Y1090D01*
X1309Y1089D01*
X1309Y1089D01*
X1309Y1088D01*
X1303Y1088D01*
X1303Y1091D01*
X1302Y1091D01*
X1302Y1096D01*
X1314Y1096D01*
G37*
D02*
G36*
X1314Y1093D02*
X1314Y1092D01*
X1315Y1092D01*
X1315Y1088D01*
X1310Y1088D01*
X1310Y1091D01*
X1310Y1091D01*
X1310Y1093D01*
X1314Y1093D01*
G37*
D02*
G36*
X1315Y1088D02*
X1315Y1088D01*
X1303Y1088D01*
X1303Y1088D01*
X1315Y1088D01*
G37*
D02*
G36*
X1315Y1088D02*
X1315Y1088D01*
X1303Y1088D01*
X1303Y1088D01*
X1315Y1088D01*
G37*
D02*
G36*
X1315Y1088D02*
X1315Y1086D01*
X1315Y1086D01*
X1315Y1084D01*
X1308Y1084D01*
X1308Y1081D01*
X1309Y1081D01*
X1309Y1080D01*
X1309Y1080D01*
X1309Y1079D01*
X1310Y1079D01*
X1310Y1078D01*
X1310Y1078D01*
X1310Y1077D01*
X1311Y1077D01*
X1311Y1077D01*
X1305Y1077D01*
X1305Y1080D01*
X1304Y1080D01*
X1304Y1084D01*
X1303Y1084D01*
X1303Y1087D01*
X1303Y1087D01*
X1303Y1088D01*
X1315Y1088D01*
G37*
D02*
G36*
X1288Y1087D02*
X1288Y1079D01*
X1289Y1079D01*
X1289Y1071D01*
X1289Y1071D01*
X1289Y1064D01*
X1290Y1064D01*
X1290Y1056D01*
X1290Y1056D01*
X1290Y1049D01*
X1286Y1049D01*
X1286Y1055D01*
X1286Y1055D01*
X1286Y1064D01*
X1285Y1064D01*
X1285Y1071D01*
X1284Y1071D01*
X1284Y1077D01*
X1284Y1077D01*
X1284Y1083D01*
X1283Y1083D01*
X1283Y1085D01*
X1283Y1085D01*
X1283Y1087D01*
X1288Y1087D01*
G37*
D02*
G36*
X1315Y1084D02*
X1315Y1081D01*
X1316Y1081D01*
X1316Y1077D01*
X1312Y1077D01*
X1312Y1077D01*
X1312Y1077D01*
X1312Y1080D01*
X1312Y1080D01*
X1312Y1081D01*
X1311Y1081D01*
X1311Y1082D01*
X1310Y1082D01*
X1310Y1083D01*
X1310Y1083D01*
X1310Y1083D01*
X1309Y1083D01*
X1309Y1084D01*
X1315Y1084D01*
G37*
D02*
G36*
X1239Y1079D02*
X1239Y1077D01*
X1240Y1077D01*
X1240Y1076D01*
X1241Y1076D01*
X1241Y1075D01*
X1241Y1075D01*
X1241Y1074D01*
X1242Y1074D01*
X1242Y1072D01*
X1242Y1072D01*
X1242Y1071D01*
X1243Y1071D01*
X1243Y1070D01*
X1244Y1070D01*
X1244Y1069D01*
X1244Y1069D01*
X1244Y1068D01*
X1245Y1068D01*
X1245Y1067D01*
X1245Y1067D01*
X1245Y1065D01*
X1246Y1065D01*
X1246Y1064D01*
X1247Y1064D01*
X1247Y1063D01*
X1247Y1063D01*
X1247Y1062D01*
X1248Y1062D01*
X1248Y1061D01*
X1248Y1061D01*
X1248Y1060D01*
X1249Y1060D01*
X1249Y1059D01*
X1250Y1059D01*
X1250Y1058D01*
X1250Y1058D01*
X1250Y1056D01*
X1251Y1056D01*
X1251Y1055D01*
X1251Y1055D01*
X1251Y1055D01*
X1252Y1055D01*
X1252Y1054D01*
X1252Y1054D01*
X1252Y1053D01*
X1253Y1053D01*
X1253Y1052D01*
X1254Y1052D01*
X1254Y1051D01*
X1254Y1051D01*
X1254Y1051D01*
X1255Y1051D01*
X1255Y1050D01*
X1255Y1050D01*
X1255Y1049D01*
X1250Y1049D01*
X1250Y1050D01*
X1249Y1050D01*
X1249Y1051D01*
X1248Y1051D01*
X1248Y1052D01*
X1248Y1052D01*
X1248Y1054D01*
X1247Y1054D01*
X1247Y1054D01*
X1247Y1054D01*
X1247Y1055D01*
X1246Y1055D01*
X1246Y1056D01*
X1245Y1056D01*
X1245Y1058D01*
X1245Y1058D01*
X1245Y1059D01*
X1244Y1059D01*
X1244Y1060D01*
X1244Y1060D01*
X1244Y1061D01*
X1243Y1061D01*
X1243Y1062D01*
X1242Y1062D01*
X1242Y1064D01*
X1242Y1064D01*
X1242Y1065D01*
X1241Y1065D01*
X1241Y1066D01*
X1241Y1066D01*
X1241Y1067D01*
X1240Y1067D01*
X1240Y1068D01*
X1239Y1068D01*
X1239Y1070D01*
X1239Y1070D01*
X1239Y1071D01*
X1238Y1071D01*
X1238Y1072D01*
X1238Y1072D01*
X1238Y1073D01*
X1237Y1073D01*
X1237Y1074D01*
X1236Y1074D01*
X1236Y1076D01*
X1236Y1076D01*
X1236Y1077D01*
X1235Y1077D01*
X1235Y1079D01*
X1239Y1079D01*
G37*
D02*
G36*
X1316Y1077D02*
X1316Y1076D01*
X1305Y1076D01*
X1305Y1077D01*
X1316Y1077D01*
G37*
D02*
G36*
X1316Y1077D02*
X1316Y1076D01*
X1305Y1076D01*
X1305Y1077D01*
X1316Y1077D01*
G37*
D02*
G36*
X1316Y1076D02*
X1316Y1073D01*
X1312Y1073D01*
X1312Y1072D01*
X1311Y1072D01*
X1311Y1071D01*
X1306Y1071D01*
X1306Y1072D01*
X1305Y1072D01*
X1305Y1076D01*
X1316Y1076D01*
G37*
D02*
G36*
X1316Y1073D02*
X1316Y1072D01*
X1317Y1072D01*
X1317Y1071D01*
X1313Y1071D01*
X1313Y1071D01*
X1313Y1071D01*
X1313Y1073D01*
X1316Y1073D01*
G37*
D02*
G36*
X1317Y1071D02*
X1317Y1070D01*
X1306Y1070D01*
X1306Y1071D01*
X1317Y1071D01*
G37*
D02*
G36*
X1317Y1071D02*
X1317Y1070D01*
X1306Y1070D01*
X1306Y1071D01*
X1317Y1071D01*
G37*
D02*
G36*
X1317Y1070D02*
X1317Y1068D01*
X1318Y1068D01*
X1318Y1067D01*
X1310Y1067D01*
X1310Y1065D01*
X1310Y1065D01*
X1310Y1064D01*
X1311Y1064D01*
X1311Y1062D01*
X1312Y1062D01*
X1312Y1062D01*
X1312Y1062D01*
X1312Y1061D01*
X1313Y1061D01*
X1313Y1061D01*
X1313Y1061D01*
X1313Y1060D01*
X1307Y1060D01*
X1307Y1062D01*
X1306Y1062D01*
X1306Y1068D01*
X1306Y1068D01*
X1306Y1070D01*
X1317Y1070D01*
G37*
D02*
G36*
X1235Y1068D02*
X1235Y1067D01*
X1223Y1067D01*
X1223Y1068D01*
X1235Y1068D01*
G37*
D02*
G36*
X1235Y1068D02*
X1235Y1067D01*
X1223Y1067D01*
X1223Y1068D01*
X1235Y1068D01*
G37*
D02*
G36*
X1236Y1067D02*
X1236Y1065D01*
X1236Y1065D01*
X1236Y1064D01*
X1228Y1064D01*
X1228Y1062D01*
X1228Y1062D01*
X1228Y1061D01*
X1229Y1061D01*
X1229Y1060D01*
X1231Y1060D01*
X1231Y1059D01*
X1224Y1059D01*
X1224Y1065D01*
X1223Y1065D01*
X1223Y1067D01*
X1236Y1067D01*
G37*
D02*
G36*
X1318Y1067D02*
X1318Y1063D01*
X1318Y1063D01*
X1318Y1060D01*
X1314Y1060D01*
X1314Y1061D01*
X1315Y1061D01*
X1315Y1062D01*
X1314Y1062D01*
X1314Y1063D01*
X1313Y1063D01*
X1313Y1064D01*
X1313Y1064D01*
X1313Y1065D01*
X1312Y1065D01*
X1312Y1065D01*
X1312Y1065D01*
X1312Y1066D01*
X1311Y1066D01*
X1311Y1067D01*
X1318Y1067D01*
G37*
D02*
G36*
X1237Y1064D02*
X1237Y1062D01*
X1236Y1062D01*
X1236Y1061D01*
X1236Y1061D01*
X1236Y1059D01*
X1232Y1059D01*
X1232Y1061D01*
X1232Y1061D01*
X1232Y1062D01*
X1232Y1062D01*
X1232Y1062D01*
X1231Y1062D01*
X1231Y1063D01*
X1231Y1063D01*
X1231Y1064D01*
X1229Y1064D01*
X1229Y1064D01*
X1237Y1064D01*
G37*
D02*
G36*
X1318Y1060D02*
X1318Y1059D01*
X1307Y1059D01*
X1307Y1060D01*
X1318Y1060D01*
G37*
D02*
G36*
X1318Y1060D02*
X1318Y1059D01*
X1307Y1059D01*
X1307Y1060D01*
X1318Y1060D01*
G37*
D02*
G36*
X1318Y1059D02*
X1318Y1059D01*
X1319Y1059D01*
X1319Y1055D01*
X1319Y1055D01*
X1319Y1051D01*
X1309Y1051D01*
X1309Y1050D01*
X1307Y1050D01*
X1307Y1049D01*
X1293Y1049D01*
X1293Y1050D01*
X1296Y1050D01*
X1296Y1051D01*
X1298Y1051D01*
X1298Y1051D01*
X1300Y1051D01*
X1300Y1052D01*
X1302Y1052D01*
X1302Y1052D01*
X1303Y1052D01*
X1303Y1053D01*
X1305Y1053D01*
X1305Y1054D01*
X1306Y1054D01*
X1306Y1055D01*
X1307Y1055D01*
X1307Y1059D01*
X1318Y1059D01*
G37*
D02*
G36*
X1236Y1059D02*
X1236Y1059D01*
X1224Y1059D01*
X1224Y1059D01*
X1236Y1059D01*
G37*
D02*
G36*
X1236Y1059D02*
X1236Y1059D01*
X1224Y1059D01*
X1224Y1059D01*
X1236Y1059D01*
G37*
D02*
G36*
X1236Y1059D02*
X1236Y1056D01*
X1229Y1056D01*
X1229Y1051D01*
X1229Y1051D01*
X1229Y1049D01*
X1230Y1049D01*
X1230Y1048D01*
X1231Y1048D01*
X1231Y1048D01*
X1231Y1048D01*
X1231Y1046D01*
X1232Y1046D01*
X1232Y1046D01*
X1232Y1046D01*
X1232Y1045D01*
X1233Y1045D01*
X1233Y1045D01*
X1234Y1045D01*
X1234Y1044D01*
X1226Y1044D01*
X1226Y1048D01*
X1225Y1048D01*
X1225Y1051D01*
X1225Y1051D01*
X1225Y1056D01*
X1224Y1056D01*
X1224Y1059D01*
X1236Y1059D01*
G37*
D02*
G36*
X1236Y1056D02*
X1236Y1055D01*
X1237Y1055D01*
X1237Y1051D01*
X1238Y1051D01*
X1238Y1048D01*
X1238Y1048D01*
X1238Y1045D01*
X1239Y1045D01*
X1239Y1044D01*
X1234Y1044D01*
X1234Y1048D01*
X1234Y1048D01*
X1234Y1051D01*
X1233Y1051D01*
X1233Y1052D01*
X1232Y1052D01*
X1232Y1053D01*
X1232Y1053D01*
X1232Y1054D01*
X1231Y1054D01*
X1231Y1055D01*
X1231Y1055D01*
X1231Y1055D01*
X1230Y1055D01*
X1230Y1056D01*
X1236Y1056D01*
G37*
D02*
G36*
X1319Y1051D02*
X1319Y1049D01*
X1319Y1049D01*
X1319Y1048D01*
X1318Y1048D01*
X1318Y1047D01*
X1317Y1047D01*
X1317Y1046D01*
X1316Y1046D01*
X1316Y1046D01*
X1315Y1046D01*
X1315Y1045D01*
X1314Y1045D01*
X1314Y1045D01*
X1313Y1045D01*
X1313Y1044D01*
X1312Y1044D01*
X1312Y1043D01*
X1311Y1043D01*
X1311Y1043D01*
X1310Y1043D01*
X1310Y1042D01*
X1309Y1042D01*
X1309Y1042D01*
X1300Y1042D01*
X1300Y1042D01*
X1302Y1042D01*
X1302Y1043D01*
X1303Y1043D01*
X1303Y1043D01*
X1305Y1043D01*
X1305Y1044D01*
X1306Y1044D01*
X1306Y1045D01*
X1307Y1045D01*
X1307Y1045D01*
X1307Y1045D01*
X1307Y1046D01*
X1309Y1046D01*
X1309Y1046D01*
X1309Y1046D01*
X1309Y1047D01*
X1310Y1047D01*
X1310Y1048D01*
X1311Y1048D01*
X1311Y1048D01*
X1312Y1048D01*
X1312Y1049D01*
X1312Y1049D01*
X1312Y1050D01*
X1311Y1050D01*
X1311Y1051D01*
X1319Y1051D01*
G37*
D02*
G36*
X1306Y1049D02*
X1306Y1049D01*
X1286Y1049D01*
X1286Y1049D01*
X1306Y1049D01*
G37*
D02*
G36*
X1306Y1049D02*
X1306Y1049D01*
X1286Y1049D01*
X1286Y1049D01*
X1306Y1049D01*
G37*
D02*
G36*
X1267Y1049D02*
X1267Y1049D01*
X1250Y1049D01*
X1250Y1049D01*
X1267Y1049D01*
G37*
D02*
G36*
X1267Y1049D02*
X1267Y1049D01*
X1250Y1049D01*
X1250Y1049D01*
X1267Y1049D01*
G37*
D02*
G36*
X1304Y1049D02*
X1304Y1048D01*
X1302Y1048D01*
X1302Y1048D01*
X1300Y1048D01*
X1300Y1047D01*
X1298Y1047D01*
X1298Y1046D01*
X1293Y1046D01*
X1293Y1044D01*
X1294Y1044D01*
X1294Y1043D01*
X1295Y1043D01*
X1295Y1043D01*
X1296Y1043D01*
X1296Y1042D01*
X1297Y1042D01*
X1297Y1042D01*
X1290Y1042D01*
X1290Y1042D01*
X1289Y1042D01*
X1289Y1043D01*
X1289Y1043D01*
X1289Y1043D01*
X1288Y1043D01*
X1288Y1044D01*
X1287Y1044D01*
X1287Y1045D01*
X1287Y1045D01*
X1287Y1046D01*
X1286Y1046D01*
X1286Y1049D01*
X1304Y1049D01*
G37*
D02*
G36*
X1267Y1049D02*
X1267Y1048D01*
X1262Y1048D01*
X1262Y1048D01*
X1261Y1048D01*
X1261Y1047D01*
X1259Y1047D01*
X1259Y1046D01*
X1258Y1046D01*
X1258Y1046D01*
X1257Y1046D01*
X1257Y1044D01*
X1258Y1044D01*
X1258Y1041D01*
X1254Y1041D01*
X1254Y1042D01*
X1254Y1042D01*
X1254Y1042D01*
X1253Y1042D01*
X1253Y1043D01*
X1252Y1043D01*
X1252Y1045D01*
X1252Y1045D01*
X1252Y1046D01*
X1251Y1046D01*
X1251Y1047D01*
X1251Y1047D01*
X1251Y1048D01*
X1250Y1048D01*
X1250Y1049D01*
X1267Y1049D01*
G37*
D02*
G36*
X1268Y1048D02*
X1268Y1048D01*
X1268Y1048D01*
X1268Y1047D01*
X1269Y1047D01*
X1269Y1046D01*
X1270Y1046D01*
X1270Y1046D01*
X1265Y1046D01*
X1265Y1046D01*
X1264Y1046D01*
X1264Y1047D01*
X1264Y1047D01*
X1264Y1048D01*
X1263Y1048D01*
X1263Y1048D01*
X1268Y1048D01*
G37*
D02*
G36*
X1274Y1046D02*
X1274Y1045D01*
X1265Y1045D01*
X1265Y1046D01*
X1274Y1046D01*
G37*
D02*
G36*
X1274Y1046D02*
X1274Y1045D01*
X1265Y1045D01*
X1265Y1046D01*
X1274Y1046D01*
G37*
D02*
G36*
X1274Y1045D02*
X1274Y1044D01*
X1274Y1044D01*
X1274Y1042D01*
X1273Y1042D01*
X1273Y1042D01*
X1273Y1042D01*
X1273Y1041D01*
X1261Y1041D01*
X1261Y1042D01*
X1264Y1042D01*
X1264Y1042D01*
X1266Y1042D01*
X1266Y1043D01*
X1267Y1043D01*
X1267Y1043D01*
X1266Y1043D01*
X1266Y1044D01*
X1265Y1044D01*
X1265Y1045D01*
X1274Y1045D01*
G37*
D02*
G36*
X1239Y1044D02*
X1239Y1043D01*
X1226Y1043D01*
X1226Y1044D01*
X1239Y1044D01*
G37*
D02*
G36*
X1239Y1044D02*
X1239Y1043D01*
X1226Y1043D01*
X1226Y1044D01*
X1239Y1044D01*
G37*
D02*
G36*
X1239Y1043D02*
X1239Y1042D01*
X1239Y1042D01*
X1239Y1039D01*
X1234Y1039D01*
X1234Y1038D01*
X1235Y1038D01*
X1235Y1037D01*
X1226Y1037D01*
X1226Y1042D01*
X1226Y1042D01*
X1226Y1043D01*
X1239Y1043D01*
G37*
D02*
G36*
X1308Y1042D02*
X1308Y1041D01*
X1291Y1041D01*
X1291Y1042D01*
X1308Y1042D01*
G37*
D02*
G36*
X1308Y1042D02*
X1308Y1041D01*
X1291Y1041D01*
X1291Y1042D01*
X1308Y1042D01*
G37*
D02*
G36*
X1307Y1041D02*
X1307Y1041D01*
X1306Y1041D01*
X1306Y1040D01*
X1305Y1040D01*
X1305Y1039D01*
X1303Y1039D01*
X1303Y1039D01*
X1302Y1039D01*
X1302Y1038D01*
X1300Y1038D01*
X1300Y1038D01*
X1295Y1038D01*
X1295Y1038D01*
X1294Y1038D01*
X1294Y1039D01*
X1294Y1039D01*
X1294Y1039D01*
X1293Y1039D01*
X1293Y1040D01*
X1292Y1040D01*
X1292Y1041D01*
X1292Y1041D01*
X1292Y1041D01*
X1307Y1041D01*
G37*
D02*
G36*
X1271Y1041D02*
X1271Y1041D01*
X1254Y1041D01*
X1254Y1041D01*
X1271Y1041D01*
G37*
D02*
G36*
X1271Y1041D02*
X1271Y1041D01*
X1254Y1041D01*
X1254Y1041D01*
X1271Y1041D01*
G37*
D02*
G36*
X1270Y1041D02*
X1270Y1040D01*
X1269Y1040D01*
X1269Y1039D01*
X1267Y1039D01*
X1267Y1039D01*
X1265Y1039D01*
X1265Y1038D01*
X1264Y1038D01*
X1264Y1038D01*
X1261Y1038D01*
X1261Y1037D01*
X1259Y1037D01*
X1259Y1036D01*
X1256Y1036D01*
X1256Y1037D01*
X1255Y1037D01*
X1255Y1038D01*
X1255Y1038D01*
X1255Y1038D01*
X1254Y1038D01*
X1254Y1041D01*
X1270Y1041D01*
G37*
D02*
G36*
X1239Y1039D02*
X1239Y1039D01*
X1240Y1039D01*
X1240Y1037D01*
X1236Y1037D01*
X1236Y1039D01*
X1235Y1039D01*
X1235Y1039D01*
X1239Y1039D01*
G37*
D02*
G36*
X1240Y1037D02*
X1240Y1036D01*
X1226Y1036D01*
X1226Y1037D01*
X1240Y1037D01*
G37*
D02*
G36*
X1240Y1037D02*
X1240Y1036D01*
X1226Y1036D01*
X1226Y1037D01*
X1240Y1037D01*
G37*
D02*
G36*
X1240Y1036D02*
X1240Y1036D01*
X1241Y1036D01*
X1241Y1033D01*
X1236Y1033D01*
X1236Y1033D01*
X1235Y1033D01*
X1235Y1032D01*
X1219Y1032D01*
X1219Y1033D01*
X1222Y1033D01*
X1222Y1033D01*
X1226Y1033D01*
X1226Y1034D01*
X1227Y1034D01*
X1227Y1036D01*
X1226Y1036D01*
X1226Y1036D01*
X1240Y1036D01*
G37*
D02*
G36*
X1241Y1033D02*
X1241Y1031D01*
X1238Y1031D01*
X1238Y1033D01*
X1237Y1033D01*
X1237Y1033D01*
X1241Y1033D01*
G37*
D02*
G36*
X1235Y1032D02*
X1235Y1032D01*
X1212Y1032D01*
X1212Y1032D01*
X1235Y1032D01*
G37*
D02*
G36*
X1235Y1032D02*
X1235Y1032D01*
X1212Y1032D01*
X1212Y1032D01*
X1235Y1032D01*
G37*
D02*
G36*
X1236Y1032D02*
X1236Y1031D01*
X1212Y1031D01*
X1212Y1032D01*
X1236Y1032D01*
G37*
D02*
G36*
X1241Y1031D02*
X1241Y1030D01*
X1212Y1030D01*
X1212Y1031D01*
X1241Y1031D01*
G37*
D02*
G36*
X1241Y1031D02*
X1241Y1030D01*
X1212Y1030D01*
X1212Y1031D01*
X1241Y1031D01*
G37*
D02*
G36*
X1242Y1030D02*
X1242Y1029D01*
X1227Y1029D01*
X1227Y1029D01*
X1221Y1029D01*
X1221Y1028D01*
X1221Y1028D01*
X1221Y1027D01*
X1222Y1027D01*
X1222Y1026D01*
X1222Y1026D01*
X1222Y1025D01*
X1223Y1025D01*
X1223Y1024D01*
X1223Y1024D01*
X1223Y1023D01*
X1218Y1023D01*
X1218Y1025D01*
X1217Y1025D01*
X1217Y1025D01*
X1216Y1025D01*
X1216Y1026D01*
X1215Y1026D01*
X1215Y1027D01*
X1214Y1027D01*
X1214Y1028D01*
X1213Y1028D01*
X1213Y1029D01*
X1213Y1029D01*
X1213Y1030D01*
X1212Y1030D01*
X1212Y1030D01*
X1242Y1030D01*
G37*
D02*
G36*
X1242Y1029D02*
X1242Y1028D01*
X1242Y1028D01*
X1242Y1026D01*
X1229Y1026D01*
X1229Y1027D01*
X1229Y1027D01*
X1229Y1028D01*
X1228Y1028D01*
X1228Y1029D01*
X1242Y1029D01*
G37*
D02*
G36*
X1227Y1029D02*
X1227Y1028D01*
X1228Y1028D01*
X1228Y1027D01*
X1228Y1027D01*
X1228Y1026D01*
X1229Y1026D01*
X1229Y1026D01*
X1224Y1026D01*
X1224Y1026D01*
X1223Y1026D01*
X1223Y1028D01*
X1223Y1028D01*
X1223Y1029D01*
X1227Y1029D01*
G37*
D02*
G36*
X1241Y1026D02*
X1241Y1025D01*
X1224Y1025D01*
X1224Y1026D01*
X1241Y1026D01*
G37*
D02*
G36*
X1241Y1026D02*
X1241Y1025D01*
X1224Y1025D01*
X1224Y1026D01*
X1241Y1026D01*
G37*
D02*
G36*
X1241Y1025D02*
X1241Y1025D01*
X1239Y1025D01*
X1239Y1024D01*
X1238Y1024D01*
X1238Y1023D01*
X1225Y1023D01*
X1225Y1025D01*
X1241Y1025D01*
G37*
D02*
G36*
X1237Y1023D02*
X1237Y1023D01*
X1219Y1023D01*
X1219Y1023D01*
X1237Y1023D01*
G37*
D02*
G36*
X1237Y1023D02*
X1237Y1023D01*
X1219Y1023D01*
X1219Y1023D01*
X1237Y1023D01*
G37*
D02*
G36*
X1236Y1023D02*
X1236Y1022D01*
X1234Y1022D01*
X1234Y1022D01*
X1232Y1022D01*
X1232Y1021D01*
X1231Y1021D01*
X1231Y1020D01*
X1228Y1020D01*
X1228Y1020D01*
X1223Y1020D01*
X1223Y1019D01*
X1222Y1019D01*
X1222Y1020D01*
X1221Y1020D01*
X1221Y1020D01*
X1221Y1020D01*
X1221Y1021D01*
X1220Y1021D01*
X1220Y1022D01*
X1219Y1022D01*
X1219Y1023D01*
X1236Y1023D01*
G37*
D02*
G36*
X1364Y1165D02*
X1364Y1165D01*
X1364Y1165D01*
X1364Y1164D01*
X1367Y1164D01*
X1367Y1163D01*
X1369Y1163D01*
X1369Y1162D01*
X1371Y1162D01*
X1371Y1162D01*
X1374Y1162D01*
X1374Y1161D01*
X1376Y1161D01*
X1376Y1161D01*
X1378Y1161D01*
X1378Y1160D01*
X1380Y1160D01*
X1380Y1159D01*
X1382Y1159D01*
X1382Y1159D01*
X1367Y1159D01*
X1367Y1158D01*
X1361Y1158D01*
X1361Y1158D01*
X1360Y1158D01*
X1360Y1157D01*
X1360Y1157D01*
X1360Y1156D01*
X1359Y1156D01*
X1359Y1156D01*
X1358Y1156D01*
X1358Y1155D01*
X1358Y1155D01*
X1358Y1155D01*
X1357Y1155D01*
X1357Y1154D01*
X1357Y1154D01*
X1357Y1154D01*
X1356Y1154D01*
X1356Y1153D01*
X1355Y1153D01*
X1355Y1152D01*
X1355Y1152D01*
X1355Y1152D01*
X1354Y1152D01*
X1354Y1151D01*
X1354Y1151D01*
X1354Y1150D01*
X1353Y1150D01*
X1353Y1149D01*
X1352Y1149D01*
X1352Y1148D01*
X1352Y1148D01*
X1352Y1133D01*
X1347Y1133D01*
X1347Y1136D01*
X1348Y1136D01*
X1348Y1145D01*
X1348Y1145D01*
X1348Y1149D01*
X1349Y1149D01*
X1349Y1151D01*
X1349Y1151D01*
X1349Y1152D01*
X1350Y1152D01*
X1350Y1152D01*
X1351Y1152D01*
X1351Y1154D01*
X1351Y1154D01*
X1351Y1154D01*
X1352Y1154D01*
X1352Y1155D01*
X1352Y1155D01*
X1352Y1156D01*
X1353Y1156D01*
X1353Y1156D01*
X1354Y1156D01*
X1354Y1157D01*
X1354Y1157D01*
X1354Y1158D01*
X1355Y1158D01*
X1355Y1158D01*
X1355Y1158D01*
X1355Y1159D01*
X1356Y1159D01*
X1356Y1159D01*
X1357Y1159D01*
X1357Y1160D01*
X1357Y1160D01*
X1357Y1161D01*
X1358Y1161D01*
X1358Y1161D01*
X1358Y1161D01*
X1358Y1162D01*
X1359Y1162D01*
X1359Y1162D01*
X1360Y1162D01*
X1360Y1163D01*
X1360Y1163D01*
X1360Y1164D01*
X1361Y1164D01*
X1361Y1164D01*
X1361Y1164D01*
X1361Y1165D01*
X1362Y1165D01*
X1362Y1165D01*
X1364Y1165D01*
G37*
D02*
G36*
X1384Y1159D02*
X1384Y1158D01*
X1386Y1158D01*
X1386Y1158D01*
X1388Y1158D01*
X1388Y1157D01*
X1390Y1157D01*
X1390Y1156D01*
X1391Y1156D01*
X1391Y1156D01*
X1393Y1156D01*
X1393Y1155D01*
X1395Y1155D01*
X1395Y1155D01*
X1397Y1155D01*
X1397Y1154D01*
X1399Y1154D01*
X1399Y1154D01*
X1400Y1154D01*
X1400Y1153D01*
X1401Y1153D01*
X1401Y1152D01*
X1402Y1152D01*
X1402Y1152D01*
X1403Y1152D01*
X1403Y1151D01*
X1404Y1151D01*
X1404Y1151D01*
X1403Y1151D01*
X1403Y1148D01*
X1403Y1148D01*
X1403Y1146D01*
X1402Y1146D01*
X1402Y1146D01*
X1403Y1146D01*
X1403Y1140D01*
X1403Y1140D01*
X1403Y1139D01*
X1399Y1139D01*
X1399Y1139D01*
X1399Y1139D01*
X1399Y1145D01*
X1398Y1145D01*
X1398Y1146D01*
X1399Y1146D01*
X1399Y1149D01*
X1399Y1149D01*
X1399Y1150D01*
X1398Y1150D01*
X1398Y1151D01*
X1396Y1151D01*
X1396Y1151D01*
X1394Y1151D01*
X1394Y1152D01*
X1391Y1152D01*
X1391Y1152D01*
X1390Y1152D01*
X1390Y1153D01*
X1387Y1153D01*
X1387Y1154D01*
X1385Y1154D01*
X1385Y1154D01*
X1383Y1154D01*
X1383Y1155D01*
X1381Y1155D01*
X1381Y1155D01*
X1379Y1155D01*
X1379Y1156D01*
X1377Y1156D01*
X1377Y1156D01*
X1374Y1156D01*
X1374Y1157D01*
X1373Y1157D01*
X1373Y1158D01*
X1370Y1158D01*
X1370Y1158D01*
X1368Y1158D01*
X1368Y1159D01*
X1384Y1159D01*
G37*
D02*
G36*
X1367Y1158D02*
X1367Y1158D01*
X1366Y1158D01*
X1366Y1155D01*
X1365Y1155D01*
X1365Y1151D01*
X1365Y1151D01*
X1365Y1149D01*
X1364Y1149D01*
X1364Y1146D01*
X1364Y1146D01*
X1364Y1145D01*
X1363Y1145D01*
X1363Y1143D01*
X1362Y1143D01*
X1362Y1140D01*
X1362Y1140D01*
X1362Y1138D01*
X1361Y1138D01*
X1361Y1135D01*
X1361Y1135D01*
X1361Y1133D01*
X1352Y1133D01*
X1352Y1134D01*
X1354Y1134D01*
X1354Y1135D01*
X1355Y1135D01*
X1355Y1135D01*
X1355Y1135D01*
X1355Y1136D01*
X1357Y1136D01*
X1357Y1136D01*
X1357Y1136D01*
X1357Y1138D01*
X1358Y1138D01*
X1358Y1139D01*
X1358Y1139D01*
X1358Y1140D01*
X1359Y1140D01*
X1359Y1143D01*
X1360Y1143D01*
X1360Y1146D01*
X1360Y1146D01*
X1360Y1149D01*
X1361Y1149D01*
X1361Y1152D01*
X1361Y1152D01*
X1361Y1158D01*
X1367Y1158D01*
G37*
D02*
G36*
X1383Y1143D02*
X1383Y1143D01*
X1386Y1143D01*
X1386Y1142D01*
X1388Y1142D01*
X1388Y1142D01*
X1390Y1142D01*
X1390Y1141D01*
X1392Y1141D01*
X1392Y1140D01*
X1394Y1140D01*
X1394Y1140D01*
X1396Y1140D01*
X1396Y1139D01*
X1379Y1139D01*
X1379Y1136D01*
X1375Y1136D01*
X1375Y1137D01*
X1376Y1137D01*
X1376Y1139D01*
X1376Y1139D01*
X1376Y1142D01*
X1377Y1142D01*
X1377Y1143D01*
X1383Y1143D01*
G37*
D02*
G36*
X1397Y1139D02*
X1397Y1139D01*
X1383Y1139D01*
X1383Y1139D01*
X1397Y1139D01*
G37*
D02*
G36*
X1403Y1139D02*
X1403Y1138D01*
X1383Y1138D01*
X1383Y1139D01*
X1403Y1139D01*
G37*
D02*
G36*
X1403Y1139D02*
X1403Y1138D01*
X1383Y1138D01*
X1383Y1139D01*
X1403Y1139D01*
G37*
D02*
G36*
X1403Y1138D02*
X1403Y1138D01*
X1387Y1138D01*
X1387Y1137D01*
X1387Y1137D01*
X1387Y1136D01*
X1386Y1136D01*
X1386Y1136D01*
X1380Y1136D01*
X1380Y1136D01*
X1381Y1136D01*
X1381Y1137D01*
X1382Y1137D01*
X1382Y1138D01*
X1403Y1138D01*
G37*
D02*
G36*
X1403Y1138D02*
X1403Y1137D01*
X1402Y1137D01*
X1402Y1136D01*
X1402Y1136D01*
X1402Y1135D01*
X1401Y1135D01*
X1401Y1135D01*
X1400Y1135D01*
X1400Y1134D01*
X1400Y1134D01*
X1400Y1133D01*
X1399Y1133D01*
X1399Y1133D01*
X1399Y1133D01*
X1399Y1132D01*
X1398Y1132D01*
X1398Y1132D01*
X1392Y1132D01*
X1392Y1133D01*
X1387Y1133D01*
X1387Y1135D01*
X1388Y1135D01*
X1388Y1136D01*
X1389Y1136D01*
X1389Y1136D01*
X1389Y1136D01*
X1389Y1138D01*
X1403Y1138D01*
G37*
D02*
G36*
X1385Y1136D02*
X1385Y1135D01*
X1375Y1135D01*
X1375Y1136D01*
X1385Y1136D01*
G37*
D02*
G36*
X1385Y1136D02*
X1385Y1135D01*
X1375Y1135D01*
X1375Y1136D01*
X1385Y1136D01*
G37*
D02*
G36*
X1384Y1135D02*
X1384Y1133D01*
X1374Y1133D01*
X1374Y1134D01*
X1375Y1134D01*
X1375Y1135D01*
X1384Y1135D01*
G37*
D02*
G36*
X1391Y1133D02*
X1391Y1133D01*
X1374Y1133D01*
X1374Y1133D01*
X1391Y1133D01*
G37*
D02*
G36*
X1391Y1133D02*
X1391Y1133D01*
X1374Y1133D01*
X1374Y1133D01*
X1391Y1133D01*
G37*
D02*
G36*
X1361Y1133D02*
X1361Y1133D01*
X1347Y1133D01*
X1347Y1133D01*
X1361Y1133D01*
G37*
D02*
G36*
X1361Y1133D02*
X1361Y1133D01*
X1347Y1133D01*
X1347Y1133D01*
X1361Y1133D01*
G37*
D02*
G36*
X1391Y1133D02*
X1391Y1132D01*
X1374Y1132D01*
X1374Y1133D01*
X1391Y1133D01*
G37*
D02*
G36*
X1361Y1133D02*
X1361Y1132D01*
X1360Y1132D01*
X1360Y1130D01*
X1355Y1130D01*
X1355Y1130D01*
X1354Y1130D01*
X1354Y1129D01*
X1353Y1129D01*
X1353Y1129D01*
X1352Y1129D01*
X1352Y1128D01*
X1351Y1128D01*
X1351Y1127D01*
X1351Y1127D01*
X1351Y1126D01*
X1347Y1126D01*
X1347Y1130D01*
X1347Y1130D01*
X1347Y1133D01*
X1361Y1133D01*
G37*
D02*
G36*
X1397Y1132D02*
X1397Y1131D01*
X1374Y1131D01*
X1374Y1132D01*
X1397Y1132D01*
G37*
D02*
G36*
X1397Y1132D02*
X1397Y1131D01*
X1374Y1131D01*
X1374Y1132D01*
X1397Y1132D01*
G37*
D02*
G36*
X1396Y1131D02*
X1396Y1130D01*
X1378Y1130D01*
X1378Y1129D01*
X1378Y1129D01*
X1378Y1126D01*
X1377Y1126D01*
X1377Y1122D01*
X1377Y1122D01*
X1377Y1119D01*
X1376Y1119D01*
X1376Y1115D01*
X1376Y1115D01*
X1376Y1112D01*
X1375Y1112D01*
X1375Y1109D01*
X1374Y1109D01*
X1374Y1105D01*
X1374Y1105D01*
X1374Y1101D01*
X1373Y1101D01*
X1373Y1098D01*
X1373Y1098D01*
X1373Y1094D01*
X1372Y1094D01*
X1372Y1091D01*
X1371Y1091D01*
X1371Y1087D01*
X1371Y1087D01*
X1371Y1083D01*
X1370Y1083D01*
X1370Y1080D01*
X1370Y1080D01*
X1370Y1075D01*
X1369Y1075D01*
X1369Y1071D01*
X1368Y1071D01*
X1368Y1066D01*
X1368Y1066D01*
X1368Y1058D01*
X1368Y1058D01*
X1368Y1056D01*
X1369Y1056D01*
X1369Y1054D01*
X1370Y1054D01*
X1370Y1053D01*
X1370Y1053D01*
X1370Y1052D01*
X1371Y1052D01*
X1371Y1051D01*
X1371Y1051D01*
X1371Y1049D01*
X1372Y1049D01*
X1372Y1049D01*
X1373Y1049D01*
X1373Y1048D01*
X1373Y1048D01*
X1373Y1047D01*
X1374Y1047D01*
X1374Y1046D01*
X1374Y1046D01*
X1374Y1046D01*
X1375Y1046D01*
X1375Y1045D01*
X1376Y1045D01*
X1376Y1045D01*
X1377Y1045D01*
X1377Y1044D01*
X1379Y1044D01*
X1379Y1043D01*
X1372Y1043D01*
X1372Y1044D01*
X1371Y1044D01*
X1371Y1045D01*
X1370Y1045D01*
X1370Y1045D01*
X1370Y1045D01*
X1370Y1046D01*
X1369Y1046D01*
X1369Y1047D01*
X1368Y1047D01*
X1368Y1048D01*
X1368Y1048D01*
X1368Y1048D01*
X1367Y1048D01*
X1367Y1049D01*
X1367Y1049D01*
X1367Y1051D01*
X1366Y1051D01*
X1366Y1052D01*
X1365Y1052D01*
X1365Y1053D01*
X1365Y1053D01*
X1365Y1055D01*
X1364Y1055D01*
X1364Y1059D01*
X1364Y1059D01*
X1364Y1067D01*
X1364Y1067D01*
X1364Y1071D01*
X1365Y1071D01*
X1365Y1075D01*
X1365Y1075D01*
X1365Y1080D01*
X1366Y1080D01*
X1366Y1083D01*
X1367Y1083D01*
X1367Y1087D01*
X1367Y1087D01*
X1367Y1090D01*
X1368Y1090D01*
X1368Y1094D01*
X1368Y1094D01*
X1368Y1098D01*
X1369Y1098D01*
X1369Y1101D01*
X1370Y1101D01*
X1370Y1105D01*
X1370Y1105D01*
X1370Y1109D01*
X1371Y1109D01*
X1371Y1112D01*
X1371Y1112D01*
X1371Y1115D01*
X1372Y1115D01*
X1372Y1119D01*
X1373Y1119D01*
X1373Y1123D01*
X1373Y1123D01*
X1373Y1127D01*
X1374Y1127D01*
X1374Y1130D01*
X1374Y1130D01*
X1374Y1131D01*
X1396Y1131D01*
G37*
D02*
G36*
X1396Y1130D02*
X1396Y1130D01*
X1395Y1130D01*
X1395Y1129D01*
X1394Y1129D01*
X1394Y1129D01*
X1393Y1129D01*
X1393Y1128D01*
X1390Y1128D01*
X1390Y1129D01*
X1386Y1129D01*
X1386Y1129D01*
X1383Y1129D01*
X1383Y1130D01*
X1380Y1130D01*
X1380Y1130D01*
X1396Y1130D01*
G37*
D02*
G36*
X1360Y1130D02*
X1360Y1129D01*
X1360Y1129D01*
X1360Y1126D01*
X1352Y1126D01*
X1352Y1127D01*
X1354Y1127D01*
X1354Y1127D01*
X1355Y1127D01*
X1355Y1128D01*
X1355Y1128D01*
X1355Y1130D01*
X1360Y1130D01*
G37*
D02*
G36*
X1360Y1126D02*
X1360Y1126D01*
X1347Y1126D01*
X1347Y1126D01*
X1360Y1126D01*
G37*
D02*
G36*
X1360Y1126D02*
X1360Y1126D01*
X1347Y1126D01*
X1347Y1126D01*
X1360Y1126D01*
G37*
D02*
G36*
X1359Y1126D02*
X1359Y1123D01*
X1352Y1123D01*
X1352Y1122D01*
X1352Y1122D01*
X1352Y1122D01*
X1351Y1122D01*
X1351Y1121D01*
X1350Y1121D01*
X1350Y1120D01*
X1346Y1120D01*
X1346Y1122D01*
X1347Y1122D01*
X1347Y1124D01*
X1346Y1124D01*
X1346Y1126D01*
X1359Y1126D01*
G37*
D02*
G36*
X1359Y1123D02*
X1359Y1122D01*
X1358Y1122D01*
X1358Y1120D01*
X1352Y1120D01*
X1352Y1120D01*
X1353Y1120D01*
X1353Y1121D01*
X1354Y1121D01*
X1354Y1122D01*
X1354Y1122D01*
X1354Y1123D01*
X1359Y1123D01*
G37*
D02*
G36*
X1358Y1120D02*
X1358Y1119D01*
X1346Y1119D01*
X1346Y1120D01*
X1358Y1120D01*
G37*
D02*
G36*
X1358Y1120D02*
X1358Y1119D01*
X1346Y1119D01*
X1346Y1120D01*
X1358Y1120D01*
G37*
D02*
G36*
X1358Y1119D02*
X1358Y1118D01*
X1358Y1118D01*
X1358Y1116D01*
X1352Y1116D01*
X1352Y1116D01*
X1352Y1116D01*
X1352Y1115D01*
X1351Y1115D01*
X1351Y1114D01*
X1350Y1114D01*
X1350Y1113D01*
X1349Y1113D01*
X1349Y1112D01*
X1349Y1112D01*
X1349Y1110D01*
X1348Y1110D01*
X1348Y1108D01*
X1348Y1108D01*
X1348Y1106D01*
X1347Y1106D01*
X1347Y1104D01*
X1347Y1104D01*
X1347Y1101D01*
X1346Y1101D01*
X1346Y1100D01*
X1345Y1100D01*
X1345Y1097D01*
X1345Y1097D01*
X1345Y1094D01*
X1344Y1094D01*
X1344Y1091D01*
X1344Y1091D01*
X1344Y1088D01*
X1343Y1088D01*
X1343Y1085D01*
X1342Y1085D01*
X1342Y1081D01*
X1342Y1081D01*
X1342Y1077D01*
X1341Y1077D01*
X1341Y1071D01*
X1341Y1071D01*
X1341Y1046D01*
X1341Y1046D01*
X1341Y1045D01*
X1342Y1045D01*
X1342Y1043D01*
X1342Y1043D01*
X1342Y1042D01*
X1343Y1042D01*
X1343Y1040D01*
X1344Y1040D01*
X1344Y1039D01*
X1344Y1039D01*
X1344Y1038D01*
X1345Y1038D01*
X1345Y1036D01*
X1345Y1036D01*
X1345Y1035D01*
X1346Y1035D01*
X1346Y1034D01*
X1347Y1034D01*
X1347Y1033D01*
X1347Y1033D01*
X1347Y1032D01*
X1348Y1032D01*
X1348Y1032D01*
X1348Y1032D01*
X1348Y1030D01*
X1349Y1030D01*
X1349Y1030D01*
X1349Y1030D01*
X1349Y1029D01*
X1350Y1029D01*
X1350Y1029D01*
X1351Y1029D01*
X1351Y1028D01*
X1352Y1028D01*
X1352Y1028D01*
X1352Y1028D01*
X1352Y1027D01*
X1354Y1027D01*
X1354Y1026D01*
X1348Y1026D01*
X1348Y1027D01*
X1347Y1027D01*
X1347Y1028D01*
X1347Y1028D01*
X1347Y1028D01*
X1346Y1028D01*
X1346Y1029D01*
X1345Y1029D01*
X1345Y1029D01*
X1345Y1029D01*
X1345Y1030D01*
X1344Y1030D01*
X1344Y1031D01*
X1344Y1031D01*
X1344Y1032D01*
X1343Y1032D01*
X1343Y1032D01*
X1342Y1032D01*
X1342Y1033D01*
X1342Y1033D01*
X1342Y1034D01*
X1341Y1034D01*
X1341Y1035D01*
X1341Y1035D01*
X1341Y1036D01*
X1340Y1036D01*
X1340Y1037D01*
X1339Y1037D01*
X1339Y1038D01*
X1339Y1038D01*
X1339Y1039D01*
X1338Y1039D01*
X1338Y1041D01*
X1338Y1041D01*
X1338Y1042D01*
X1337Y1042D01*
X1337Y1045D01*
X1336Y1045D01*
X1336Y1049D01*
X1336Y1049D01*
X1336Y1060D01*
X1336Y1060D01*
X1336Y1070D01*
X1337Y1070D01*
X1337Y1075D01*
X1338Y1075D01*
X1338Y1080D01*
X1338Y1080D01*
X1338Y1083D01*
X1339Y1083D01*
X1339Y1087D01*
X1339Y1087D01*
X1339Y1090D01*
X1340Y1090D01*
X1340Y1094D01*
X1341Y1094D01*
X1341Y1097D01*
X1341Y1097D01*
X1341Y1100D01*
X1342Y1100D01*
X1342Y1103D01*
X1342Y1103D01*
X1342Y1106D01*
X1343Y1106D01*
X1343Y1109D01*
X1344Y1109D01*
X1344Y1112D01*
X1344Y1112D01*
X1344Y1114D01*
X1345Y1114D01*
X1345Y1117D01*
X1345Y1117D01*
X1345Y1119D01*
X1358Y1119D01*
G37*
D02*
G36*
X1358Y1116D02*
X1358Y1114D01*
X1357Y1114D01*
X1357Y1110D01*
X1357Y1110D01*
X1357Y1105D01*
X1356Y1105D01*
X1356Y1100D01*
X1355Y1100D01*
X1355Y1096D01*
X1355Y1096D01*
X1355Y1090D01*
X1354Y1090D01*
X1354Y1084D01*
X1354Y1084D01*
X1354Y1078D01*
X1353Y1078D01*
X1353Y1072D01*
X1352Y1072D01*
X1352Y1065D01*
X1352Y1065D01*
X1352Y1058D01*
X1351Y1058D01*
X1351Y1049D01*
X1351Y1049D01*
X1351Y1044D01*
X1351Y1044D01*
X1351Y1041D01*
X1352Y1041D01*
X1352Y1039D01*
X1352Y1039D01*
X1352Y1038D01*
X1353Y1038D01*
X1353Y1037D01*
X1354Y1037D01*
X1354Y1035D01*
X1354Y1035D01*
X1354Y1033D01*
X1355Y1033D01*
X1355Y1033D01*
X1355Y1033D01*
X1355Y1032D01*
X1356Y1032D01*
X1356Y1032D01*
X1357Y1032D01*
X1357Y1031D01*
X1357Y1031D01*
X1357Y1030D01*
X1358Y1030D01*
X1358Y1030D01*
X1360Y1030D01*
X1360Y1029D01*
X1361Y1029D01*
X1361Y1029D01*
X1362Y1029D01*
X1362Y1028D01*
X1364Y1028D01*
X1364Y1028D01*
X1365Y1028D01*
X1365Y1027D01*
X1367Y1027D01*
X1367Y1026D01*
X1356Y1026D01*
X1356Y1028D01*
X1355Y1028D01*
X1355Y1028D01*
X1355Y1028D01*
X1355Y1029D01*
X1354Y1029D01*
X1354Y1029D01*
X1354Y1029D01*
X1354Y1030D01*
X1353Y1030D01*
X1353Y1030D01*
X1352Y1030D01*
X1352Y1032D01*
X1352Y1032D01*
X1352Y1032D01*
X1351Y1032D01*
X1351Y1033D01*
X1351Y1033D01*
X1351Y1034D01*
X1350Y1034D01*
X1350Y1035D01*
X1349Y1035D01*
X1349Y1036D01*
X1349Y1036D01*
X1349Y1037D01*
X1348Y1037D01*
X1348Y1038D01*
X1348Y1038D01*
X1348Y1041D01*
X1347Y1041D01*
X1347Y1049D01*
X1348Y1049D01*
X1348Y1059D01*
X1348Y1059D01*
X1348Y1068D01*
X1349Y1068D01*
X1349Y1075D01*
X1349Y1075D01*
X1349Y1083D01*
X1350Y1083D01*
X1350Y1089D01*
X1351Y1089D01*
X1351Y1095D01*
X1351Y1095D01*
X1351Y1101D01*
X1352Y1101D01*
X1352Y1106D01*
X1352Y1106D01*
X1352Y1111D01*
X1353Y1111D01*
X1353Y1115D01*
X1354Y1115D01*
X1354Y1116D01*
X1358Y1116D01*
G37*
D02*
G36*
X1420Y1074D02*
X1420Y1073D01*
X1420Y1073D01*
X1420Y1072D01*
X1421Y1072D01*
X1421Y1072D01*
X1422Y1072D01*
X1422Y1071D01*
X1423Y1071D01*
X1423Y1069D01*
X1399Y1069D01*
X1399Y1068D01*
X1399Y1068D01*
X1399Y1065D01*
X1400Y1065D01*
X1400Y1062D01*
X1394Y1062D01*
X1394Y1060D01*
X1390Y1060D01*
X1390Y1058D01*
X1386Y1058D01*
X1386Y1063D01*
X1386Y1063D01*
X1386Y1064D01*
X1387Y1064D01*
X1387Y1064D01*
X1387Y1064D01*
X1387Y1065D01*
X1388Y1065D01*
X1388Y1065D01*
X1389Y1065D01*
X1389Y1066D01*
X1389Y1066D01*
X1389Y1067D01*
X1390Y1067D01*
X1390Y1067D01*
X1390Y1067D01*
X1390Y1068D01*
X1391Y1068D01*
X1391Y1068D01*
X1391Y1068D01*
X1391Y1069D01*
X1392Y1069D01*
X1392Y1070D01*
X1393Y1070D01*
X1393Y1070D01*
X1393Y1070D01*
X1393Y1071D01*
X1394Y1071D01*
X1394Y1071D01*
X1394Y1071D01*
X1394Y1072D01*
X1395Y1072D01*
X1395Y1072D01*
X1396Y1072D01*
X1396Y1073D01*
X1396Y1073D01*
X1396Y1074D01*
X1420Y1074D01*
G37*
D02*
G36*
X1423Y1069D02*
X1423Y1055D01*
X1422Y1055D01*
X1422Y1048D01*
X1422Y1048D01*
X1422Y1045D01*
X1421Y1045D01*
X1421Y1042D01*
X1420Y1042D01*
X1420Y1041D01*
X1420Y1041D01*
X1420Y1039D01*
X1419Y1039D01*
X1419Y1038D01*
X1419Y1038D01*
X1419Y1036D01*
X1418Y1036D01*
X1418Y1035D01*
X1418Y1035D01*
X1418Y1034D01*
X1417Y1034D01*
X1417Y1033D01*
X1416Y1033D01*
X1416Y1032D01*
X1416Y1032D01*
X1416Y1031D01*
X1415Y1031D01*
X1415Y1030D01*
X1415Y1030D01*
X1415Y1030D01*
X1414Y1030D01*
X1414Y1029D01*
X1413Y1029D01*
X1413Y1028D01*
X1413Y1028D01*
X1413Y1028D01*
X1412Y1028D01*
X1412Y1027D01*
X1411Y1027D01*
X1411Y1026D01*
X1410Y1026D01*
X1410Y1026D01*
X1410Y1026D01*
X1410Y1025D01*
X1409Y1025D01*
X1409Y1025D01*
X1409Y1025D01*
X1409Y1024D01*
X1407Y1024D01*
X1407Y1023D01*
X1391Y1023D01*
X1391Y1024D01*
X1394Y1024D01*
X1394Y1025D01*
X1396Y1025D01*
X1396Y1025D01*
X1397Y1025D01*
X1397Y1026D01*
X1399Y1026D01*
X1399Y1026D01*
X1400Y1026D01*
X1400Y1027D01*
X1402Y1027D01*
X1402Y1028D01*
X1403Y1028D01*
X1403Y1028D01*
X1405Y1028D01*
X1405Y1029D01*
X1406Y1029D01*
X1406Y1029D01*
X1407Y1029D01*
X1407Y1030D01*
X1408Y1030D01*
X1408Y1030D01*
X1409Y1030D01*
X1409Y1031D01*
X1410Y1031D01*
X1410Y1032D01*
X1410Y1032D01*
X1410Y1032D01*
X1411Y1032D01*
X1411Y1033D01*
X1412Y1033D01*
X1412Y1033D01*
X1412Y1033D01*
X1412Y1034D01*
X1413Y1034D01*
X1413Y1035D01*
X1413Y1035D01*
X1413Y1036D01*
X1414Y1036D01*
X1414Y1037D01*
X1415Y1037D01*
X1415Y1038D01*
X1415Y1038D01*
X1415Y1039D01*
X1416Y1039D01*
X1416Y1041D01*
X1416Y1041D01*
X1416Y1042D01*
X1417Y1042D01*
X1417Y1045D01*
X1418Y1045D01*
X1418Y1048D01*
X1418Y1048D01*
X1418Y1055D01*
X1419Y1055D01*
X1419Y1069D01*
X1423Y1069D01*
G37*
D02*
G36*
X1400Y1062D02*
X1400Y1060D01*
X1395Y1060D01*
X1395Y1062D01*
X1400Y1062D01*
G37*
D02*
G36*
X1400Y1060D02*
X1400Y1059D01*
X1391Y1059D01*
X1391Y1060D01*
X1400Y1060D01*
G37*
D02*
G36*
X1400Y1060D02*
X1400Y1059D01*
X1391Y1059D01*
X1391Y1060D01*
X1400Y1060D01*
G37*
D02*
G36*
X1400Y1059D02*
X1400Y1058D01*
X1391Y1058D01*
X1391Y1059D01*
X1391Y1059D01*
X1391Y1059D01*
X1400Y1059D01*
G37*
D02*
G36*
X1400Y1058D02*
X1400Y1058D01*
X1386Y1058D01*
X1386Y1058D01*
X1400Y1058D01*
G37*
D02*
G36*
X1400Y1058D02*
X1400Y1058D01*
X1386Y1058D01*
X1386Y1058D01*
X1400Y1058D01*
G37*
D02*
G36*
X1400Y1058D02*
X1400Y1057D01*
X1396Y1057D01*
X1396Y1056D01*
X1394Y1056D01*
X1394Y1056D01*
X1393Y1056D01*
X1393Y1055D01*
X1393Y1055D01*
X1393Y1055D01*
X1391Y1055D01*
X1391Y1054D01*
X1391Y1054D01*
X1391Y1054D01*
X1390Y1054D01*
X1390Y1052D01*
X1386Y1052D01*
X1386Y1058D01*
X1400Y1058D01*
G37*
D02*
G36*
X1400Y1057D02*
X1400Y1052D01*
X1394Y1052D01*
X1394Y1054D01*
X1395Y1054D01*
X1395Y1055D01*
X1396Y1055D01*
X1396Y1055D01*
X1396Y1055D01*
X1396Y1056D01*
X1397Y1056D01*
X1397Y1057D01*
X1400Y1057D01*
G37*
D02*
G36*
X1400Y1052D02*
X1400Y1052D01*
X1386Y1052D01*
X1386Y1052D01*
X1400Y1052D01*
G37*
D02*
G36*
X1400Y1052D02*
X1400Y1052D01*
X1386Y1052D01*
X1386Y1052D01*
X1400Y1052D01*
G37*
D02*
G36*
X1400Y1052D02*
X1400Y1050D01*
X1399Y1050D01*
X1399Y1048D01*
X1392Y1048D01*
X1392Y1048D01*
X1390Y1048D01*
X1390Y1047D01*
X1389Y1047D01*
X1389Y1045D01*
X1385Y1045D01*
X1385Y1049D01*
X1386Y1049D01*
X1386Y1052D01*
X1400Y1052D01*
G37*
D02*
G36*
X1399Y1048D02*
X1399Y1047D01*
X1398Y1047D01*
X1398Y1046D01*
X1397Y1046D01*
X1397Y1045D01*
X1390Y1045D01*
X1390Y1046D01*
X1391Y1046D01*
X1391Y1046D01*
X1392Y1046D01*
X1392Y1047D01*
X1394Y1047D01*
X1394Y1048D01*
X1399Y1048D01*
G37*
D02*
G36*
X1397Y1045D02*
X1397Y1045D01*
X1384Y1045D01*
X1384Y1045D01*
X1397Y1045D01*
G37*
D02*
G36*
X1397Y1045D02*
X1397Y1045D01*
X1384Y1045D01*
X1384Y1045D01*
X1397Y1045D01*
G37*
D02*
G36*
X1396Y1045D02*
X1396Y1044D01*
X1394Y1044D01*
X1394Y1043D01*
X1384Y1043D01*
X1384Y1044D01*
X1384Y1044D01*
X1384Y1045D01*
X1396Y1045D01*
G37*
D02*
G36*
X1394Y1043D02*
X1394Y1043D01*
X1373Y1043D01*
X1373Y1043D01*
X1394Y1043D01*
G37*
D02*
G36*
X1394Y1043D02*
X1394Y1043D01*
X1373Y1043D01*
X1373Y1043D01*
X1394Y1043D01*
G37*
D02*
G36*
X1393Y1043D02*
X1393Y1042D01*
X1392Y1042D01*
X1392Y1042D01*
X1391Y1042D01*
X1391Y1041D01*
X1390Y1041D01*
X1390Y1041D01*
X1389Y1041D01*
X1389Y1040D01*
X1383Y1040D01*
X1383Y1039D01*
X1380Y1039D01*
X1380Y1040D01*
X1378Y1040D01*
X1378Y1041D01*
X1377Y1041D01*
X1377Y1041D01*
X1376Y1041D01*
X1376Y1042D01*
X1374Y1042D01*
X1374Y1042D01*
X1374Y1042D01*
X1374Y1043D01*
X1393Y1043D01*
G37*
D02*
G36*
X1388Y1040D02*
X1388Y1039D01*
X1387Y1039D01*
X1387Y1039D01*
X1387Y1039D01*
X1387Y1038D01*
X1386Y1038D01*
X1386Y1038D01*
X1386Y1038D01*
X1386Y1038D01*
X1384Y1038D01*
X1384Y1039D01*
X1384Y1039D01*
X1384Y1039D01*
X1383Y1039D01*
X1383Y1040D01*
X1388Y1040D01*
G37*
D02*
G36*
X1370Y1026D02*
X1370Y1026D01*
X1348Y1026D01*
X1348Y1026D01*
X1370Y1026D01*
G37*
D02*
G36*
X1370Y1026D02*
X1370Y1026D01*
X1348Y1026D01*
X1348Y1026D01*
X1370Y1026D01*
G37*
D02*
G36*
X1372Y1026D02*
X1372Y1025D01*
X1374Y1025D01*
X1374Y1025D01*
X1377Y1025D01*
X1377Y1024D01*
X1381Y1024D01*
X1381Y1023D01*
X1361Y1023D01*
X1361Y1023D01*
X1360Y1023D01*
X1360Y1022D01*
X1360Y1022D01*
X1360Y1021D01*
X1353Y1021D01*
X1353Y1022D01*
X1352Y1022D01*
X1352Y1022D01*
X1352Y1022D01*
X1352Y1023D01*
X1351Y1023D01*
X1351Y1023D01*
X1351Y1023D01*
X1351Y1024D01*
X1350Y1024D01*
X1350Y1025D01*
X1349Y1025D01*
X1349Y1025D01*
X1349Y1025D01*
X1349Y1026D01*
X1372Y1026D01*
G37*
D02*
G36*
X1407Y1023D02*
X1407Y1023D01*
X1364Y1023D01*
X1364Y1023D01*
X1407Y1023D01*
G37*
D02*
G36*
X1407Y1023D02*
X1407Y1023D01*
X1364Y1023D01*
X1364Y1023D01*
X1407Y1023D01*
G37*
D02*
G36*
X1406Y1023D02*
X1406Y1022D01*
X1405Y1022D01*
X1405Y1022D01*
X1370Y1022D01*
X1370Y1021D01*
X1361Y1021D01*
X1361Y1022D01*
X1363Y1022D01*
X1363Y1022D01*
X1364Y1022D01*
X1364Y1023D01*
X1406Y1023D01*
G37*
D02*
G36*
X1404Y1022D02*
X1404Y1021D01*
X1404Y1021D01*
X1404Y1020D01*
X1403Y1020D01*
X1403Y1020D01*
X1379Y1020D01*
X1379Y1019D01*
X1378Y1019D01*
X1378Y1019D01*
X1368Y1019D01*
X1368Y1019D01*
X1370Y1019D01*
X1370Y1020D01*
X1370Y1020D01*
X1370Y1020D01*
X1371Y1020D01*
X1371Y1022D01*
X1404Y1022D01*
G37*
D02*
G36*
X1368Y1021D02*
X1368Y1020D01*
X1354Y1020D01*
X1354Y1021D01*
X1368Y1021D01*
G37*
D02*
G36*
X1368Y1021D02*
X1368Y1020D01*
X1354Y1020D01*
X1354Y1021D01*
X1368Y1021D01*
G37*
D02*
G36*
X1368Y1020D02*
X1368Y1020D01*
X1367Y1020D01*
X1367Y1019D01*
X1357Y1019D01*
X1357Y1019D01*
X1355Y1019D01*
X1355Y1020D01*
X1355Y1020D01*
X1355Y1020D01*
X1368Y1020D01*
G37*
D02*
G36*
X1402Y1020D02*
X1402Y1019D01*
X1401Y1019D01*
X1401Y1019D01*
X1400Y1019D01*
X1400Y1018D01*
X1399Y1018D01*
X1399Y1017D01*
X1398Y1017D01*
X1398Y1017D01*
X1378Y1017D01*
X1378Y1017D01*
X1380Y1017D01*
X1380Y1018D01*
X1381Y1018D01*
X1381Y1019D01*
X1382Y1019D01*
X1382Y1019D01*
X1383Y1019D01*
X1383Y1020D01*
X1402Y1020D01*
G37*
D02*
G36*
X1377Y1019D02*
X1377Y1018D01*
X1357Y1018D01*
X1357Y1019D01*
X1377Y1019D01*
G37*
D02*
G36*
X1377Y1019D02*
X1377Y1018D01*
X1357Y1018D01*
X1357Y1019D01*
X1377Y1019D01*
G37*
D02*
G36*
X1376Y1018D02*
X1376Y1017D01*
X1375Y1017D01*
X1375Y1017D01*
X1360Y1017D01*
X1360Y1017D01*
X1358Y1017D01*
X1358Y1018D01*
X1376Y1018D01*
G37*
D02*
G36*
X1397Y1017D02*
X1397Y1016D01*
X1361Y1016D01*
X1361Y1017D01*
X1397Y1017D01*
G37*
D02*
G36*
X1397Y1017D02*
X1397Y1016D01*
X1361Y1016D01*
X1361Y1017D01*
X1397Y1017D01*
G37*
D02*
G36*
X1396Y1016D02*
X1396Y1016D01*
X1394Y1016D01*
X1394Y1015D01*
X1393Y1015D01*
X1393Y1014D01*
X1391Y1014D01*
X1391Y1014D01*
X1389Y1014D01*
X1389Y1013D01*
X1387Y1013D01*
X1387Y1013D01*
X1383Y1013D01*
X1383Y1012D01*
X1381Y1012D01*
X1381Y1013D01*
X1374Y1013D01*
X1374Y1013D01*
X1371Y1013D01*
X1371Y1014D01*
X1368Y1014D01*
X1368Y1014D01*
X1366Y1014D01*
X1366Y1015D01*
X1364Y1015D01*
X1364Y1016D01*
X1362Y1016D01*
X1362Y1016D01*
X1396Y1016D01*
G37*
D02*
G54D12*
X364Y1151D02*
X368Y1151D01*
X1029Y1151D02*
X1033Y1151D01*
X363Y1150D02*
X369Y1150D01*
X1028Y1150D02*
X1034Y1150D01*
X363Y1149D02*
X369Y1149D01*
X408Y1149D02*
X410Y1149D01*
X528Y1149D02*
X533Y1149D01*
X546Y1149D02*
X551Y1149D01*
X600Y1149D02*
X609Y1149D01*
X635Y1149D02*
X644Y1149D01*
X707Y1149D02*
X708Y1149D01*
X815Y1149D02*
X831Y1149D01*
X879Y1149D02*
X881Y1149D01*
X1028Y1149D02*
X1034Y1149D01*
X1134Y1149D02*
X1145Y1149D01*
X363Y1148D02*
X369Y1148D01*
X407Y1148D02*
X411Y1148D01*
X528Y1148D02*
X534Y1148D01*
X545Y1148D02*
X551Y1148D01*
X600Y1148D02*
X611Y1148D01*
X635Y1148D02*
X646Y1148D01*
X706Y1148D02*
X709Y1148D01*
X813Y1148D02*
X831Y1148D01*
X879Y1148D02*
X882Y1148D01*
X1028Y1148D02*
X1034Y1148D01*
X1132Y1148D02*
X1146Y1148D01*
X363Y1147D02*
X369Y1147D01*
X407Y1147D02*
X411Y1147D01*
X528Y1147D02*
X535Y1147D01*
X544Y1147D02*
X551Y1147D01*
X599Y1147D02*
X613Y1147D01*
X634Y1147D02*
X648Y1147D01*
X706Y1147D02*
X709Y1147D01*
X812Y1147D02*
X831Y1147D01*
X878Y1147D02*
X882Y1147D01*
X1028Y1147D02*
X1034Y1147D01*
X1131Y1147D02*
X1146Y1147D01*
X363Y1146D02*
X369Y1146D01*
X407Y1146D02*
X411Y1146D01*
X528Y1146D02*
X536Y1146D01*
X544Y1146D02*
X551Y1146D01*
X600Y1146D02*
X613Y1146D01*
X635Y1146D02*
X648Y1146D01*
X706Y1146D02*
X709Y1146D01*
X811Y1146D02*
X831Y1146D01*
X878Y1146D02*
X882Y1146D01*
X1028Y1146D02*
X1034Y1146D01*
X1130Y1146D02*
X1146Y1146D01*
X364Y1145D02*
X368Y1145D01*
X407Y1145D02*
X411Y1145D01*
X528Y1145D02*
X536Y1145D01*
X543Y1145D02*
X551Y1145D01*
X600Y1145D02*
X614Y1145D01*
X635Y1145D02*
X649Y1145D01*
X706Y1145D02*
X709Y1145D01*
X810Y1145D02*
X831Y1145D01*
X878Y1145D02*
X882Y1145D01*
X1029Y1145D02*
X1033Y1145D01*
X1129Y1145D02*
X1145Y1145D01*
X407Y1144D02*
X411Y1144D01*
X528Y1144D02*
X537Y1144D01*
X542Y1144D02*
X551Y1144D01*
X609Y1144D02*
X615Y1144D01*
X644Y1144D02*
X650Y1144D01*
X706Y1144D02*
X709Y1144D01*
X809Y1144D02*
X815Y1144D01*
X827Y1144D02*
X831Y1144D01*
X878Y1144D02*
X882Y1144D01*
X1129Y1144D02*
X1134Y1144D01*
X1138Y1144D02*
X1142Y1144D01*
X407Y1143D02*
X411Y1143D01*
X528Y1143D02*
X538Y1143D01*
X541Y1143D02*
X551Y1143D01*
X611Y1143D02*
X615Y1143D01*
X646Y1143D02*
X650Y1143D01*
X706Y1143D02*
X709Y1143D01*
X809Y1143D02*
X814Y1143D01*
X827Y1143D02*
X831Y1143D01*
X878Y1143D02*
X882Y1143D01*
X1128Y1143D02*
X1133Y1143D01*
X1138Y1143D02*
X1142Y1143D01*
X407Y1142D02*
X411Y1142D01*
X528Y1142D02*
X538Y1142D01*
X541Y1142D02*
X551Y1142D01*
X611Y1142D02*
X615Y1142D01*
X646Y1142D02*
X650Y1142D01*
X706Y1142D02*
X709Y1142D01*
X808Y1142D02*
X813Y1142D01*
X827Y1142D02*
X831Y1142D01*
X878Y1142D02*
X882Y1142D01*
X1128Y1142D02*
X1132Y1142D01*
X1138Y1142D02*
X1142Y1142D01*
X407Y1141D02*
X411Y1141D01*
X528Y1141D02*
X532Y1141D01*
X534Y1141D02*
X545Y1141D01*
X547Y1141D02*
X551Y1141D01*
X611Y1141D02*
X615Y1141D01*
X646Y1141D02*
X650Y1141D01*
X706Y1141D02*
X709Y1141D01*
X808Y1141D02*
X812Y1141D01*
X827Y1141D02*
X831Y1141D01*
X878Y1141D02*
X882Y1141D01*
X1127Y1141D02*
X1132Y1141D01*
X1138Y1141D02*
X1142Y1141D01*
X407Y1140D02*
X411Y1140D01*
X528Y1140D02*
X532Y1140D01*
X535Y1140D02*
X544Y1140D01*
X547Y1140D02*
X551Y1140D01*
X611Y1140D02*
X615Y1140D01*
X646Y1140D02*
X650Y1140D01*
X706Y1140D02*
X709Y1140D01*
X808Y1140D02*
X812Y1140D01*
X827Y1140D02*
X831Y1140D01*
X878Y1140D02*
X882Y1140D01*
X1127Y1140D02*
X1131Y1140D01*
X1138Y1140D02*
X1142Y1140D01*
X254Y1139D02*
X259Y1139D01*
X269Y1139D02*
X269Y1139D01*
X290Y1139D02*
X298Y1139D01*
X323Y1139D02*
X336Y1139D01*
X364Y1139D02*
X372Y1139D01*
X394Y1139D02*
X399Y1139D01*
X407Y1139D02*
X411Y1139D01*
X425Y1139D02*
X436Y1139D01*
X464Y1139D02*
X470Y1139D01*
X479Y1139D02*
X479Y1139D01*
X495Y1139D02*
X495Y1139D01*
X514Y1139D02*
X514Y1139D01*
X528Y1139D02*
X532Y1139D01*
X535Y1139D02*
X544Y1139D01*
X547Y1139D02*
X551Y1139D01*
X606Y1139D02*
X618Y1139D01*
X641Y1139D02*
X653Y1139D01*
X676Y1139D02*
X684Y1139D01*
X706Y1139D02*
X709Y1139D01*
X775Y1139D02*
X775Y1139D01*
X794Y1139D02*
X795Y1139D01*
X808Y1139D02*
X812Y1139D01*
X827Y1139D02*
X831Y1139D01*
X878Y1139D02*
X882Y1139D01*
X888Y1139D02*
X894Y1139D01*
X921Y1139D02*
X929Y1139D01*
X955Y1139D02*
X959Y1139D01*
X969Y1139D02*
X970Y1139D01*
X985Y1139D02*
X985Y1139D01*
X993Y1139D02*
X999Y1139D01*
X1030Y1139D02*
X1037Y1139D01*
X1059Y1139D02*
X1071Y1139D01*
X1096Y1139D02*
X1104Y1139D01*
X1126Y1139D02*
X1131Y1139D01*
X1138Y1139D02*
X1142Y1139D01*
X252Y1138D02*
X261Y1138D01*
X267Y1138D02*
X271Y1138D01*
X288Y1138D02*
X301Y1138D01*
X321Y1138D02*
X338Y1138D01*
X363Y1138D02*
X373Y1138D01*
X392Y1138D02*
X401Y1138D01*
X407Y1138D02*
X411Y1138D01*
X423Y1138D02*
X439Y1138D01*
X461Y1138D02*
X471Y1138D01*
X478Y1138D02*
X481Y1138D01*
X493Y1138D02*
X496Y1138D01*
X513Y1138D02*
X516Y1138D01*
X528Y1138D02*
X532Y1138D01*
X536Y1138D02*
X543Y1138D01*
X547Y1138D02*
X551Y1138D01*
X605Y1138D02*
X620Y1138D01*
X640Y1138D02*
X655Y1138D01*
X673Y1138D02*
X686Y1138D01*
X706Y1138D02*
X709Y1138D01*
X774Y1138D02*
X777Y1138D01*
X793Y1138D02*
X796Y1138D01*
X808Y1138D02*
X812Y1138D01*
X827Y1138D02*
X831Y1138D01*
X878Y1138D02*
X882Y1138D01*
X886Y1138D02*
X896Y1138D01*
X918Y1138D02*
X931Y1138D01*
X952Y1138D02*
X962Y1138D01*
X968Y1138D02*
X971Y1138D01*
X984Y1138D02*
X987Y1138D01*
X991Y1138D02*
X1001Y1138D01*
X1028Y1138D02*
X1039Y1138D01*
X1056Y1138D02*
X1073Y1138D01*
X1094Y1138D02*
X1106Y1138D01*
X1126Y1138D02*
X1130Y1138D01*
X1138Y1138D02*
X1142Y1138D01*
X251Y1137D02*
X263Y1137D01*
X267Y1137D02*
X271Y1137D01*
X287Y1137D02*
X302Y1137D01*
X320Y1137D02*
X339Y1137D01*
X363Y1137D02*
X374Y1137D01*
X391Y1137D02*
X403Y1137D01*
X407Y1137D02*
X411Y1137D01*
X423Y1137D02*
X440Y1137D01*
X460Y1137D02*
X472Y1137D01*
X477Y1137D02*
X481Y1137D01*
X493Y1137D02*
X497Y1137D01*
X512Y1137D02*
X516Y1137D01*
X528Y1137D02*
X532Y1137D01*
X537Y1137D02*
X542Y1137D01*
X547Y1137D02*
X551Y1137D01*
X604Y1137D02*
X620Y1137D01*
X639Y1137D02*
X655Y1137D01*
X672Y1137D02*
X687Y1137D01*
X706Y1137D02*
X709Y1137D01*
X773Y1137D02*
X777Y1137D01*
X792Y1137D02*
X796Y1137D01*
X808Y1137D02*
X812Y1137D01*
X827Y1137D02*
X831Y1137D01*
X878Y1137D02*
X882Y1137D01*
X884Y1137D02*
X898Y1137D01*
X917Y1137D02*
X933Y1137D01*
X951Y1137D02*
X963Y1137D01*
X968Y1137D02*
X971Y1137D01*
X983Y1137D02*
X987Y1137D01*
X990Y1137D02*
X1003Y1137D01*
X1028Y1137D02*
X1039Y1137D01*
X1055Y1137D02*
X1074Y1137D01*
X1092Y1137D02*
X1108Y1137D01*
X1125Y1137D02*
X1130Y1137D01*
X1138Y1137D02*
X1142Y1137D01*
X250Y1136D02*
X265Y1136D01*
X267Y1136D02*
X271Y1136D01*
X286Y1136D02*
X303Y1136D01*
X319Y1136D02*
X340Y1136D01*
X363Y1136D02*
X373Y1136D01*
X390Y1136D02*
X405Y1136D01*
X407Y1136D02*
X411Y1136D01*
X423Y1136D02*
X441Y1136D01*
X459Y1136D02*
X474Y1136D01*
X477Y1136D02*
X481Y1136D01*
X493Y1136D02*
X497Y1136D01*
X512Y1136D02*
X516Y1136D01*
X528Y1136D02*
X532Y1136D01*
X538Y1136D02*
X542Y1136D01*
X547Y1136D02*
X551Y1136D01*
X604Y1136D02*
X620Y1136D01*
X639Y1136D02*
X655Y1136D01*
X671Y1136D02*
X689Y1136D01*
X706Y1136D02*
X709Y1136D01*
X773Y1136D02*
X777Y1136D01*
X792Y1136D02*
X796Y1136D01*
X808Y1136D02*
X813Y1136D01*
X827Y1136D02*
X831Y1136D01*
X878Y1136D02*
X899Y1136D01*
X916Y1136D02*
X934Y1136D01*
X950Y1136D02*
X965Y1136D01*
X967Y1136D02*
X971Y1136D01*
X983Y1136D02*
X1004Y1136D01*
X1028Y1136D02*
X1039Y1136D01*
X1054Y1136D02*
X1075Y1136D01*
X1091Y1136D02*
X1109Y1136D01*
X1125Y1136D02*
X1129Y1136D01*
X1138Y1136D02*
X1142Y1136D01*
X249Y1135D02*
X271Y1135D01*
X285Y1135D02*
X304Y1135D01*
X318Y1135D02*
X340Y1135D01*
X363Y1135D02*
X373Y1135D01*
X389Y1135D02*
X411Y1135D01*
X424Y1135D02*
X442Y1135D01*
X459Y1135D02*
X475Y1135D01*
X477Y1135D02*
X481Y1135D01*
X493Y1135D02*
X497Y1135D01*
X512Y1135D02*
X516Y1135D01*
X528Y1135D02*
X532Y1135D01*
X538Y1135D02*
X542Y1135D01*
X547Y1135D02*
X551Y1135D01*
X605Y1135D02*
X619Y1135D01*
X640Y1135D02*
X654Y1135D01*
X670Y1135D02*
X689Y1135D01*
X706Y1135D02*
X709Y1135D01*
X773Y1135D02*
X777Y1135D01*
X792Y1135D02*
X796Y1135D01*
X809Y1135D02*
X813Y1135D01*
X827Y1135D02*
X831Y1135D01*
X878Y1135D02*
X900Y1135D01*
X915Y1135D02*
X935Y1135D01*
X950Y1135D02*
X971Y1135D01*
X983Y1135D02*
X1005Y1135D01*
X1028Y1135D02*
X1038Y1135D01*
X1054Y1135D02*
X1076Y1135D01*
X1090Y1135D02*
X1110Y1135D01*
X1124Y1135D02*
X1129Y1135D01*
X1138Y1135D02*
X1142Y1135D01*
X249Y1134D02*
X254Y1134D01*
X260Y1134D02*
X271Y1134D01*
X284Y1134D02*
X290Y1134D01*
X299Y1134D02*
X305Y1134D01*
X319Y1134D02*
X323Y1134D01*
X336Y1134D02*
X340Y1134D01*
X363Y1134D02*
X367Y1134D01*
X389Y1134D02*
X394Y1134D01*
X400Y1134D02*
X411Y1134D01*
X437Y1134D02*
X443Y1134D01*
X458Y1134D02*
X463Y1134D01*
X469Y1134D02*
X481Y1134D01*
X493Y1134D02*
X497Y1134D01*
X512Y1134D02*
X516Y1134D01*
X528Y1134D02*
X532Y1134D01*
X538Y1134D02*
X541Y1134D01*
X547Y1134D02*
X551Y1134D01*
X611Y1134D02*
X615Y1134D01*
X646Y1134D02*
X650Y1134D01*
X669Y1134D02*
X675Y1134D01*
X684Y1134D02*
X690Y1134D01*
X706Y1134D02*
X709Y1134D01*
X773Y1134D02*
X777Y1134D01*
X792Y1134D02*
X796Y1134D01*
X809Y1134D02*
X814Y1134D01*
X827Y1134D02*
X831Y1134D01*
X878Y1134D02*
X888Y1134D01*
X894Y1134D02*
X900Y1134D01*
X914Y1134D02*
X920Y1134D01*
X929Y1134D02*
X935Y1134D01*
X949Y1134D02*
X954Y1134D01*
X960Y1134D02*
X971Y1134D01*
X983Y1134D02*
X993Y1134D01*
X999Y1134D02*
X1005Y1134D01*
X1028Y1134D02*
X1032Y1134D01*
X1054Y1134D02*
X1058Y1134D01*
X1071Y1134D02*
X1076Y1134D01*
X1089Y1134D02*
X1095Y1134D01*
X1105Y1134D02*
X1110Y1134D01*
X1124Y1134D02*
X1128Y1134D01*
X1138Y1134D02*
X1142Y1134D01*
X249Y1133D02*
X253Y1133D01*
X261Y1133D02*
X271Y1133D01*
X283Y1133D02*
X288Y1133D01*
X300Y1133D02*
X305Y1133D01*
X319Y1133D02*
X322Y1133D01*
X336Y1133D02*
X340Y1133D01*
X363Y1133D02*
X366Y1133D01*
X389Y1133D02*
X393Y1133D01*
X401Y1133D02*
X411Y1133D01*
X438Y1133D02*
X444Y1133D01*
X458Y1133D02*
X462Y1133D01*
X471Y1133D02*
X481Y1133D01*
X493Y1133D02*
X497Y1133D01*
X512Y1133D02*
X516Y1133D01*
X528Y1133D02*
X532Y1133D01*
X538Y1133D02*
X541Y1133D01*
X547Y1133D02*
X551Y1133D01*
X611Y1133D02*
X615Y1133D01*
X646Y1133D02*
X650Y1133D01*
X669Y1133D02*
X674Y1133D01*
X686Y1133D02*
X691Y1133D01*
X706Y1133D02*
X709Y1133D01*
X773Y1133D02*
X777Y1133D01*
X792Y1133D02*
X796Y1133D01*
X810Y1133D02*
X831Y1133D01*
X878Y1133D02*
X886Y1133D01*
X896Y1133D02*
X901Y1133D01*
X914Y1133D02*
X919Y1133D01*
X931Y1133D02*
X936Y1133D01*
X949Y1133D02*
X953Y1133D01*
X962Y1133D02*
X971Y1133D01*
X983Y1133D02*
X991Y1133D01*
X1001Y1133D02*
X1006Y1133D01*
X1028Y1133D02*
X1032Y1133D01*
X1055Y1133D02*
X1057Y1133D01*
X1072Y1133D02*
X1076Y1133D01*
X1089Y1133D02*
X1094Y1133D01*
X1106Y1133D02*
X1111Y1133D01*
X1124Y1133D02*
X1128Y1133D01*
X1138Y1133D02*
X1142Y1133D01*
X248Y1132D02*
X252Y1132D01*
X263Y1132D02*
X271Y1132D01*
X283Y1132D02*
X287Y1132D01*
X301Y1132D02*
X306Y1132D01*
X336Y1132D02*
X340Y1132D01*
X363Y1132D02*
X366Y1132D01*
X389Y1132D02*
X392Y1132D01*
X403Y1132D02*
X411Y1132D01*
X439Y1132D02*
X445Y1132D01*
X458Y1132D02*
X462Y1132D01*
X472Y1132D02*
X481Y1132D01*
X493Y1132D02*
X497Y1132D01*
X512Y1132D02*
X516Y1132D01*
X528Y1132D02*
X532Y1132D01*
X547Y1132D02*
X551Y1132D01*
X611Y1132D02*
X615Y1132D01*
X646Y1132D02*
X650Y1132D01*
X668Y1132D02*
X673Y1132D01*
X687Y1132D02*
X691Y1132D01*
X706Y1132D02*
X709Y1132D01*
X773Y1132D02*
X778Y1132D01*
X792Y1132D02*
X796Y1132D01*
X810Y1132D02*
X831Y1132D01*
X878Y1132D02*
X885Y1132D01*
X897Y1132D02*
X901Y1132D01*
X913Y1132D02*
X918Y1132D01*
X932Y1132D02*
X936Y1132D01*
X949Y1132D02*
X953Y1132D01*
X963Y1132D02*
X971Y1132D01*
X983Y1132D02*
X990Y1132D01*
X1002Y1132D02*
X1006Y1132D01*
X1028Y1132D02*
X1032Y1132D01*
X1072Y1132D02*
X1076Y1132D01*
X1089Y1132D02*
X1093Y1132D01*
X1107Y1132D02*
X1111Y1132D01*
X1124Y1132D02*
X1127Y1132D01*
X1138Y1132D02*
X1142Y1132D01*
X248Y1131D02*
X252Y1131D01*
X264Y1131D02*
X271Y1131D01*
X283Y1131D02*
X287Y1131D01*
X302Y1131D02*
X306Y1131D01*
X334Y1131D02*
X340Y1131D01*
X363Y1131D02*
X366Y1131D01*
X388Y1131D02*
X392Y1131D01*
X404Y1131D02*
X411Y1131D01*
X440Y1131D02*
X446Y1131D01*
X458Y1131D02*
X462Y1131D01*
X473Y1131D02*
X481Y1131D01*
X493Y1131D02*
X497Y1131D01*
X512Y1131D02*
X516Y1131D01*
X528Y1131D02*
X532Y1131D01*
X547Y1131D02*
X551Y1131D01*
X611Y1131D02*
X615Y1131D01*
X646Y1131D02*
X650Y1131D01*
X668Y1131D02*
X672Y1131D01*
X687Y1131D02*
X691Y1131D01*
X706Y1131D02*
X709Y1131D01*
X774Y1131D02*
X778Y1131D01*
X791Y1131D02*
X796Y1131D01*
X811Y1131D02*
X831Y1131D01*
X878Y1131D02*
X884Y1131D01*
X897Y1131D02*
X901Y1131D01*
X913Y1131D02*
X917Y1131D01*
X932Y1131D02*
X936Y1131D01*
X949Y1131D02*
X953Y1131D01*
X965Y1131D02*
X971Y1131D01*
X983Y1131D02*
X989Y1131D01*
X1002Y1131D02*
X1006Y1131D01*
X1028Y1131D02*
X1032Y1131D01*
X1070Y1131D02*
X1075Y1131D01*
X1088Y1131D02*
X1092Y1131D01*
X1107Y1131D02*
X1111Y1131D01*
X1123Y1131D02*
X1127Y1131D01*
X1138Y1131D02*
X1142Y1131D01*
X248Y1130D02*
X252Y1130D01*
X266Y1130D02*
X271Y1130D01*
X283Y1130D02*
X287Y1130D01*
X302Y1130D02*
X306Y1130D01*
X332Y1130D02*
X340Y1130D01*
X363Y1130D02*
X366Y1130D01*
X388Y1130D02*
X392Y1130D01*
X406Y1130D02*
X411Y1130D01*
X441Y1130D02*
X446Y1130D01*
X458Y1130D02*
X462Y1130D01*
X474Y1130D02*
X481Y1130D01*
X493Y1130D02*
X497Y1130D01*
X512Y1130D02*
X516Y1130D01*
X528Y1130D02*
X532Y1130D01*
X547Y1130D02*
X551Y1130D01*
X611Y1130D02*
X615Y1130D01*
X646Y1130D02*
X650Y1130D01*
X668Y1130D02*
X672Y1130D01*
X687Y1130D02*
X691Y1130D01*
X706Y1130D02*
X709Y1130D01*
X774Y1130D02*
X778Y1130D01*
X791Y1130D02*
X795Y1130D01*
X811Y1130D02*
X831Y1130D01*
X878Y1130D02*
X883Y1130D01*
X897Y1130D02*
X901Y1130D01*
X913Y1130D02*
X917Y1130D01*
X932Y1130D02*
X936Y1130D01*
X949Y1130D02*
X953Y1130D01*
X966Y1130D02*
X971Y1130D01*
X983Y1130D02*
X988Y1130D01*
X1003Y1130D02*
X1006Y1130D01*
X1028Y1130D02*
X1032Y1130D01*
X1067Y1130D02*
X1075Y1130D01*
X1088Y1130D02*
X1092Y1130D01*
X1108Y1130D02*
X1111Y1130D01*
X1123Y1130D02*
X1127Y1130D01*
X1138Y1130D02*
X1142Y1130D01*
X248Y1129D02*
X252Y1129D01*
X267Y1129D02*
X271Y1129D01*
X283Y1129D02*
X287Y1129D01*
X302Y1129D02*
X306Y1129D01*
X330Y1129D02*
X339Y1129D01*
X363Y1129D02*
X366Y1129D01*
X388Y1129D02*
X392Y1129D01*
X407Y1129D02*
X411Y1129D01*
X442Y1129D02*
X446Y1129D01*
X459Y1129D02*
X461Y1129D01*
X475Y1129D02*
X481Y1129D01*
X493Y1129D02*
X497Y1129D01*
X512Y1129D02*
X516Y1129D01*
X528Y1129D02*
X532Y1129D01*
X547Y1129D02*
X551Y1129D01*
X611Y1129D02*
X615Y1129D01*
X646Y1129D02*
X650Y1129D01*
X668Y1129D02*
X672Y1129D01*
X687Y1129D02*
X691Y1129D01*
X706Y1129D02*
X709Y1129D01*
X775Y1129D02*
X779Y1129D01*
X791Y1129D02*
X795Y1129D01*
X810Y1129D02*
X831Y1129D01*
X878Y1129D02*
X882Y1129D01*
X897Y1129D02*
X901Y1129D01*
X913Y1129D02*
X917Y1129D01*
X932Y1129D02*
X936Y1129D01*
X949Y1129D02*
X953Y1129D01*
X967Y1129D02*
X971Y1129D01*
X983Y1129D02*
X987Y1129D01*
X1003Y1129D02*
X1006Y1129D01*
X1028Y1129D02*
X1032Y1129D01*
X1065Y1129D02*
X1074Y1129D01*
X1088Y1129D02*
X1092Y1129D01*
X1108Y1129D02*
X1111Y1129D01*
X1124Y1129D02*
X1128Y1129D01*
X1138Y1129D02*
X1142Y1129D01*
X248Y1128D02*
X252Y1128D01*
X267Y1128D02*
X271Y1128D01*
X283Y1128D02*
X287Y1128D01*
X302Y1128D02*
X306Y1128D01*
X327Y1128D02*
X338Y1128D01*
X363Y1128D02*
X366Y1128D01*
X388Y1128D02*
X392Y1128D01*
X407Y1128D02*
X411Y1128D01*
X442Y1128D02*
X446Y1128D01*
X476Y1128D02*
X481Y1128D01*
X493Y1128D02*
X497Y1128D01*
X512Y1128D02*
X516Y1128D01*
X528Y1128D02*
X532Y1128D01*
X547Y1128D02*
X551Y1128D01*
X611Y1128D02*
X615Y1128D01*
X646Y1128D02*
X650Y1128D01*
X668Y1128D02*
X672Y1128D01*
X687Y1128D02*
X691Y1128D01*
X706Y1128D02*
X709Y1128D01*
X721Y1128D02*
X723Y1128D01*
X775Y1128D02*
X779Y1128D01*
X790Y1128D02*
X795Y1128D01*
X810Y1128D02*
X816Y1128D01*
X827Y1128D02*
X831Y1128D01*
X878Y1128D02*
X882Y1128D01*
X897Y1128D02*
X901Y1128D01*
X913Y1128D02*
X917Y1128D01*
X932Y1128D02*
X936Y1128D01*
X949Y1128D02*
X953Y1128D01*
X967Y1128D02*
X971Y1128D01*
X983Y1128D02*
X987Y1128D01*
X1003Y1128D02*
X1006Y1128D01*
X1028Y1128D02*
X1032Y1128D01*
X1063Y1128D02*
X1073Y1128D01*
X1088Y1128D02*
X1092Y1128D01*
X1108Y1128D02*
X1111Y1128D01*
X1124Y1128D02*
X1128Y1128D01*
X1138Y1128D02*
X1142Y1128D01*
X248Y1127D02*
X252Y1127D01*
X267Y1127D02*
X271Y1127D01*
X283Y1127D02*
X287Y1127D01*
X302Y1127D02*
X306Y1127D01*
X325Y1127D02*
X336Y1127D01*
X363Y1127D02*
X366Y1127D01*
X388Y1127D02*
X392Y1127D01*
X407Y1127D02*
X411Y1127D01*
X442Y1127D02*
X446Y1127D01*
X477Y1127D02*
X481Y1127D01*
X493Y1127D02*
X497Y1127D01*
X512Y1127D02*
X516Y1127D01*
X528Y1127D02*
X532Y1127D01*
X547Y1127D02*
X551Y1127D01*
X611Y1127D02*
X615Y1127D01*
X646Y1127D02*
X650Y1127D01*
X668Y1127D02*
X672Y1127D01*
X687Y1127D02*
X691Y1127D01*
X706Y1127D02*
X709Y1127D01*
X720Y1127D02*
X724Y1127D01*
X775Y1127D02*
X780Y1127D01*
X790Y1127D02*
X794Y1127D01*
X809Y1127D02*
X814Y1127D01*
X827Y1127D02*
X831Y1127D01*
X878Y1127D02*
X882Y1127D01*
X897Y1127D02*
X901Y1127D01*
X913Y1127D02*
X917Y1127D01*
X932Y1127D02*
X936Y1127D01*
X949Y1127D02*
X953Y1127D01*
X967Y1127D02*
X971Y1127D01*
X983Y1127D02*
X987Y1127D01*
X1003Y1127D02*
X1006Y1127D01*
X1028Y1127D02*
X1032Y1127D01*
X1060Y1127D02*
X1072Y1127D01*
X1088Y1127D02*
X1092Y1127D01*
X1107Y1127D02*
X1111Y1127D01*
X1124Y1127D02*
X1128Y1127D01*
X1138Y1127D02*
X1142Y1127D01*
X248Y1126D02*
X252Y1126D01*
X267Y1126D02*
X271Y1126D01*
X283Y1126D02*
X287Y1126D01*
X302Y1126D02*
X306Y1126D01*
X323Y1126D02*
X334Y1126D01*
X363Y1126D02*
X366Y1126D01*
X388Y1126D02*
X392Y1126D01*
X407Y1126D02*
X411Y1126D01*
X442Y1126D02*
X446Y1126D01*
X477Y1126D02*
X481Y1126D01*
X493Y1126D02*
X497Y1126D01*
X512Y1126D02*
X516Y1126D01*
X528Y1126D02*
X532Y1126D01*
X547Y1126D02*
X551Y1126D01*
X611Y1126D02*
X615Y1126D01*
X646Y1126D02*
X650Y1126D01*
X668Y1126D02*
X691Y1126D01*
X706Y1126D02*
X709Y1126D01*
X720Y1126D02*
X724Y1126D01*
X776Y1126D02*
X780Y1126D01*
X789Y1126D02*
X794Y1126D01*
X809Y1126D02*
X813Y1126D01*
X827Y1126D02*
X831Y1126D01*
X878Y1126D02*
X882Y1126D01*
X897Y1126D02*
X901Y1126D01*
X913Y1126D02*
X936Y1126D01*
X949Y1126D02*
X953Y1126D01*
X967Y1126D02*
X971Y1126D01*
X983Y1126D02*
X987Y1126D01*
X1003Y1126D02*
X1006Y1126D01*
X1028Y1126D02*
X1032Y1126D01*
X1058Y1126D02*
X1069Y1126D01*
X1088Y1126D02*
X1111Y1126D01*
X1124Y1126D02*
X1129Y1126D01*
X1138Y1126D02*
X1142Y1126D01*
X248Y1125D02*
X252Y1125D01*
X267Y1125D02*
X271Y1125D01*
X283Y1125D02*
X287Y1125D01*
X302Y1125D02*
X306Y1125D01*
X321Y1125D02*
X332Y1125D01*
X363Y1125D02*
X366Y1125D01*
X388Y1125D02*
X392Y1125D01*
X407Y1125D02*
X411Y1125D01*
X442Y1125D02*
X446Y1125D01*
X477Y1125D02*
X481Y1125D01*
X493Y1125D02*
X497Y1125D01*
X512Y1125D02*
X516Y1125D01*
X528Y1125D02*
X532Y1125D01*
X547Y1125D02*
X551Y1125D01*
X611Y1125D02*
X615Y1125D01*
X646Y1125D02*
X650Y1125D01*
X668Y1125D02*
X691Y1125D01*
X706Y1125D02*
X709Y1125D01*
X720Y1125D02*
X724Y1125D01*
X776Y1125D02*
X781Y1125D01*
X789Y1125D02*
X793Y1125D01*
X808Y1125D02*
X812Y1125D01*
X827Y1125D02*
X831Y1125D01*
X878Y1125D02*
X882Y1125D01*
X897Y1125D02*
X901Y1125D01*
X913Y1125D02*
X936Y1125D01*
X949Y1125D02*
X953Y1125D01*
X967Y1125D02*
X971Y1125D01*
X983Y1125D02*
X987Y1125D01*
X1003Y1125D02*
X1006Y1125D01*
X1028Y1125D02*
X1032Y1125D01*
X1056Y1125D02*
X1067Y1125D01*
X1088Y1125D02*
X1111Y1125D01*
X1125Y1125D02*
X1129Y1125D01*
X1138Y1125D02*
X1142Y1125D01*
X248Y1124D02*
X252Y1124D01*
X267Y1124D02*
X271Y1124D01*
X283Y1124D02*
X287Y1124D01*
X302Y1124D02*
X306Y1124D01*
X320Y1124D02*
X329Y1124D01*
X363Y1124D02*
X366Y1124D01*
X388Y1124D02*
X392Y1124D01*
X407Y1124D02*
X411Y1124D01*
X442Y1124D02*
X446Y1124D01*
X477Y1124D02*
X481Y1124D01*
X493Y1124D02*
X497Y1124D01*
X512Y1124D02*
X516Y1124D01*
X528Y1124D02*
X532Y1124D01*
X547Y1124D02*
X551Y1124D01*
X611Y1124D02*
X615Y1124D01*
X646Y1124D02*
X650Y1124D01*
X668Y1124D02*
X691Y1124D01*
X706Y1124D02*
X709Y1124D01*
X720Y1124D02*
X724Y1124D01*
X777Y1124D02*
X781Y1124D01*
X788Y1124D02*
X793Y1124D01*
X808Y1124D02*
X812Y1124D01*
X827Y1124D02*
X831Y1124D01*
X878Y1124D02*
X882Y1124D01*
X897Y1124D02*
X901Y1124D01*
X913Y1124D02*
X936Y1124D01*
X949Y1124D02*
X953Y1124D01*
X967Y1124D02*
X971Y1124D01*
X983Y1124D02*
X987Y1124D01*
X1003Y1124D02*
X1006Y1124D01*
X1028Y1124D02*
X1032Y1124D01*
X1055Y1124D02*
X1065Y1124D01*
X1088Y1124D02*
X1111Y1124D01*
X1125Y1124D02*
X1130Y1124D01*
X1138Y1124D02*
X1142Y1124D01*
X248Y1123D02*
X252Y1123D01*
X267Y1123D02*
X271Y1123D01*
X283Y1123D02*
X287Y1123D01*
X302Y1123D02*
X306Y1123D01*
X319Y1123D02*
X327Y1123D01*
X363Y1123D02*
X366Y1123D01*
X388Y1123D02*
X392Y1123D01*
X407Y1123D02*
X411Y1123D01*
X442Y1123D02*
X446Y1123D01*
X477Y1123D02*
X481Y1123D01*
X493Y1123D02*
X497Y1123D01*
X512Y1123D02*
X516Y1123D01*
X528Y1123D02*
X532Y1123D01*
X547Y1123D02*
X551Y1123D01*
X611Y1123D02*
X615Y1123D01*
X646Y1123D02*
X650Y1123D01*
X669Y1123D02*
X691Y1123D01*
X706Y1123D02*
X709Y1123D01*
X720Y1123D02*
X724Y1123D01*
X777Y1123D02*
X782Y1123D01*
X788Y1123D02*
X792Y1123D01*
X808Y1123D02*
X812Y1123D01*
X827Y1123D02*
X831Y1123D01*
X878Y1123D02*
X882Y1123D01*
X897Y1123D02*
X901Y1123D01*
X914Y1123D02*
X936Y1123D01*
X949Y1123D02*
X952Y1123D01*
X967Y1123D02*
X971Y1123D01*
X983Y1123D02*
X988Y1123D01*
X1003Y1123D02*
X1006Y1123D01*
X1028Y1123D02*
X1032Y1123D01*
X1055Y1123D02*
X1062Y1123D01*
X1089Y1123D02*
X1111Y1123D01*
X1126Y1123D02*
X1130Y1123D01*
X1138Y1123D02*
X1142Y1123D01*
X248Y1122D02*
X252Y1122D01*
X267Y1122D02*
X271Y1122D01*
X283Y1122D02*
X287Y1122D01*
X302Y1122D02*
X306Y1122D01*
X319Y1122D02*
X325Y1122D01*
X363Y1122D02*
X366Y1122D01*
X388Y1122D02*
X392Y1122D01*
X407Y1122D02*
X411Y1122D01*
X442Y1122D02*
X446Y1122D01*
X477Y1122D02*
X481Y1122D01*
X493Y1122D02*
X497Y1122D01*
X512Y1122D02*
X516Y1122D01*
X528Y1122D02*
X532Y1122D01*
X547Y1122D02*
X551Y1122D01*
X611Y1122D02*
X615Y1122D01*
X646Y1122D02*
X650Y1122D01*
X670Y1122D02*
X691Y1122D01*
X706Y1122D02*
X709Y1122D01*
X720Y1122D02*
X724Y1122D01*
X778Y1122D02*
X782Y1122D01*
X788Y1122D02*
X792Y1122D01*
X808Y1122D02*
X812Y1122D01*
X827Y1122D02*
X831Y1122D01*
X878Y1122D02*
X882Y1122D01*
X897Y1122D02*
X901Y1122D01*
X915Y1122D02*
X936Y1122D01*
X949Y1122D02*
X952Y1122D01*
X967Y1122D02*
X971Y1122D01*
X983Y1122D02*
X989Y1122D01*
X1002Y1122D02*
X1006Y1122D01*
X1028Y1122D02*
X1032Y1122D01*
X1054Y1122D02*
X1060Y1122D01*
X1090Y1122D02*
X1111Y1122D01*
X1126Y1122D02*
X1131Y1122D01*
X1138Y1122D02*
X1142Y1122D01*
X248Y1121D02*
X252Y1121D01*
X267Y1121D02*
X271Y1121D01*
X283Y1121D02*
X287Y1121D01*
X302Y1121D02*
X306Y1121D01*
X318Y1121D02*
X323Y1121D01*
X363Y1121D02*
X366Y1121D01*
X388Y1121D02*
X392Y1121D01*
X407Y1121D02*
X411Y1121D01*
X442Y1121D02*
X446Y1121D01*
X477Y1121D02*
X481Y1121D01*
X493Y1121D02*
X498Y1121D01*
X512Y1121D02*
X516Y1121D01*
X528Y1121D02*
X532Y1121D01*
X547Y1121D02*
X551Y1121D01*
X611Y1121D02*
X615Y1121D01*
X646Y1121D02*
X650Y1121D01*
X687Y1121D02*
X691Y1121D01*
X706Y1121D02*
X709Y1121D01*
X720Y1121D02*
X724Y1121D01*
X778Y1121D02*
X782Y1121D01*
X787Y1121D02*
X791Y1121D01*
X808Y1121D02*
X812Y1121D01*
X827Y1121D02*
X831Y1121D01*
X878Y1121D02*
X883Y1121D01*
X897Y1121D02*
X901Y1121D01*
X932Y1121D02*
X936Y1121D01*
X949Y1121D02*
X952Y1121D01*
X967Y1121D02*
X971Y1121D01*
X983Y1121D02*
X990Y1121D01*
X1002Y1121D02*
X1006Y1121D01*
X1028Y1121D02*
X1032Y1121D01*
X1054Y1121D02*
X1058Y1121D01*
X1108Y1121D02*
X1111Y1121D01*
X1127Y1121D02*
X1131Y1121D01*
X1138Y1121D02*
X1142Y1121D01*
X248Y1120D02*
X252Y1120D01*
X267Y1120D02*
X271Y1120D01*
X283Y1120D02*
X287Y1120D01*
X302Y1120D02*
X306Y1120D01*
X318Y1120D02*
X322Y1120D01*
X363Y1120D02*
X366Y1120D01*
X388Y1120D02*
X392Y1120D01*
X407Y1120D02*
X411Y1120D01*
X441Y1120D02*
X446Y1120D01*
X477Y1120D02*
X481Y1120D01*
X493Y1120D02*
X499Y1120D01*
X512Y1120D02*
X516Y1120D01*
X528Y1120D02*
X532Y1120D01*
X547Y1120D02*
X551Y1120D01*
X611Y1120D02*
X615Y1120D01*
X646Y1120D02*
X650Y1120D01*
X687Y1120D02*
X691Y1120D01*
X706Y1120D02*
X709Y1120D01*
X720Y1120D02*
X724Y1120D01*
X778Y1120D02*
X783Y1120D01*
X787Y1120D02*
X791Y1120D01*
X808Y1120D02*
X812Y1120D01*
X827Y1120D02*
X831Y1120D01*
X878Y1120D02*
X884Y1120D01*
X897Y1120D02*
X901Y1120D01*
X932Y1120D02*
X936Y1120D01*
X949Y1120D02*
X952Y1120D01*
X967Y1120D02*
X971Y1120D01*
X983Y1120D02*
X991Y1120D01*
X1001Y1120D02*
X1006Y1120D01*
X1028Y1120D02*
X1032Y1120D01*
X1054Y1120D02*
X1058Y1120D01*
X1107Y1120D02*
X1111Y1120D01*
X1127Y1120D02*
X1132Y1120D01*
X1138Y1120D02*
X1142Y1120D01*
X248Y1119D02*
X252Y1119D01*
X267Y1119D02*
X271Y1119D01*
X283Y1119D02*
X287Y1119D01*
X302Y1119D02*
X306Y1119D01*
X318Y1119D02*
X322Y1119D01*
X363Y1119D02*
X366Y1119D01*
X388Y1119D02*
X392Y1119D01*
X407Y1119D02*
X411Y1119D01*
X439Y1119D02*
X445Y1119D01*
X477Y1119D02*
X481Y1119D01*
X493Y1119D02*
X501Y1119D01*
X512Y1119D02*
X516Y1119D01*
X528Y1119D02*
X532Y1119D01*
X547Y1119D02*
X551Y1119D01*
X611Y1119D02*
X615Y1119D01*
X646Y1119D02*
X650Y1119D01*
X687Y1119D02*
X691Y1119D01*
X706Y1119D02*
X709Y1119D01*
X720Y1119D02*
X724Y1119D01*
X779Y1119D02*
X783Y1119D01*
X786Y1119D02*
X791Y1119D01*
X809Y1119D02*
X813Y1119D01*
X827Y1119D02*
X831Y1119D01*
X878Y1119D02*
X885Y1119D01*
X897Y1119D02*
X901Y1119D01*
X932Y1119D02*
X936Y1119D01*
X948Y1119D02*
X952Y1119D01*
X967Y1119D02*
X971Y1119D01*
X983Y1119D02*
X992Y1119D01*
X1000Y1119D02*
X1006Y1119D01*
X1028Y1119D02*
X1032Y1119D01*
X1053Y1119D02*
X1057Y1119D01*
X1107Y1119D02*
X1111Y1119D01*
X1128Y1119D02*
X1132Y1119D01*
X1138Y1119D02*
X1142Y1119D01*
X248Y1118D02*
X252Y1118D01*
X267Y1118D02*
X271Y1118D01*
X283Y1118D02*
X288Y1118D01*
X301Y1118D02*
X306Y1118D01*
X318Y1118D02*
X322Y1118D01*
X338Y1118D02*
X340Y1118D01*
X363Y1118D02*
X366Y1118D01*
X388Y1118D02*
X392Y1118D01*
X407Y1118D02*
X411Y1118D01*
X438Y1118D02*
X444Y1118D01*
X477Y1118D02*
X481Y1118D01*
X493Y1118D02*
X503Y1118D01*
X511Y1118D02*
X515Y1118D01*
X528Y1118D02*
X532Y1118D01*
X547Y1118D02*
X551Y1118D01*
X611Y1118D02*
X615Y1118D01*
X646Y1118D02*
X650Y1118D01*
X686Y1118D02*
X691Y1118D01*
X706Y1118D02*
X710Y1118D01*
X720Y1118D02*
X724Y1118D01*
X779Y1118D02*
X790Y1118D01*
X809Y1118D02*
X814Y1118D01*
X827Y1118D02*
X831Y1118D01*
X878Y1118D02*
X886Y1118D01*
X896Y1118D02*
X901Y1118D01*
X931Y1118D02*
X936Y1118D01*
X948Y1118D02*
X952Y1118D01*
X967Y1118D02*
X971Y1118D01*
X983Y1118D02*
X1005Y1118D01*
X1028Y1118D02*
X1032Y1118D01*
X1053Y1118D02*
X1058Y1118D01*
X1074Y1118D02*
X1076Y1118D01*
X1106Y1118D02*
X1111Y1118D01*
X1128Y1118D02*
X1133Y1118D01*
X1138Y1118D02*
X1142Y1118D01*
X248Y1117D02*
X252Y1117D01*
X267Y1117D02*
X271Y1117D01*
X284Y1117D02*
X290Y1117D01*
X299Y1117D02*
X305Y1117D01*
X318Y1117D02*
X323Y1117D01*
X336Y1117D02*
X341Y1117D01*
X362Y1117D02*
X366Y1117D01*
X388Y1117D02*
X392Y1117D01*
X407Y1117D02*
X411Y1117D01*
X437Y1117D02*
X444Y1117D01*
X477Y1117D02*
X481Y1117D01*
X493Y1117D02*
X504Y1117D01*
X511Y1117D02*
X515Y1117D01*
X528Y1117D02*
X532Y1117D01*
X547Y1117D02*
X551Y1117D01*
X611Y1117D02*
X615Y1117D01*
X646Y1117D02*
X650Y1117D01*
X685Y1117D02*
X690Y1117D01*
X706Y1117D02*
X711Y1117D01*
X719Y1117D02*
X724Y1117D01*
X780Y1117D02*
X790Y1117D01*
X809Y1117D02*
X815Y1117D01*
X827Y1117D02*
X831Y1117D01*
X878Y1117D02*
X887Y1117D01*
X895Y1117D02*
X901Y1117D01*
X930Y1117D02*
X936Y1117D01*
X948Y1117D02*
X952Y1117D01*
X967Y1117D02*
X971Y1117D01*
X983Y1117D02*
X1004Y1117D01*
X1028Y1117D02*
X1032Y1117D01*
X1054Y1117D02*
X1058Y1117D01*
X1072Y1117D02*
X1076Y1117D01*
X1105Y1117D02*
X1111Y1117D01*
X1129Y1117D02*
X1134Y1117D01*
X1138Y1117D02*
X1142Y1117D01*
X248Y1116D02*
X252Y1116D01*
X267Y1116D02*
X271Y1116D01*
X284Y1116D02*
X304Y1116D01*
X319Y1116D02*
X341Y1116D01*
X356Y1116D02*
X373Y1116D01*
X388Y1116D02*
X392Y1116D01*
X407Y1116D02*
X411Y1116D01*
X424Y1116D02*
X442Y1116D01*
X477Y1116D02*
X481Y1116D01*
X493Y1116D02*
X515Y1116D01*
X528Y1116D02*
X532Y1116D01*
X547Y1116D02*
X551Y1116D01*
X611Y1116D02*
X615Y1116D01*
X646Y1116D02*
X650Y1116D01*
X669Y1116D02*
X690Y1116D01*
X706Y1116D02*
X723Y1116D01*
X780Y1116D02*
X789Y1116D01*
X810Y1116D02*
X831Y1116D01*
X878Y1116D02*
X900Y1116D01*
X914Y1116D02*
X935Y1116D01*
X948Y1116D02*
X952Y1116D01*
X967Y1116D02*
X971Y1116D01*
X983Y1116D02*
X987Y1116D01*
X989Y1116D02*
X1003Y1116D01*
X1022Y1116D02*
X1038Y1116D01*
X1054Y1116D02*
X1076Y1116D01*
X1089Y1116D02*
X1110Y1116D01*
X1129Y1116D02*
X1146Y1116D01*
X248Y1115D02*
X252Y1115D01*
X267Y1115D02*
X271Y1115D01*
X285Y1115D02*
X304Y1115D01*
X319Y1115D02*
X341Y1115D01*
X356Y1115D02*
X373Y1115D01*
X388Y1115D02*
X392Y1115D01*
X407Y1115D02*
X411Y1115D01*
X423Y1115D02*
X441Y1115D01*
X477Y1115D02*
X481Y1115D01*
X493Y1115D02*
X497Y1115D01*
X499Y1115D02*
X514Y1115D01*
X528Y1115D02*
X532Y1115D01*
X547Y1115D02*
X551Y1115D01*
X611Y1115D02*
X615Y1115D01*
X646Y1115D02*
X650Y1115D01*
X668Y1115D02*
X689Y1115D01*
X707Y1115D02*
X723Y1115D01*
X781Y1115D02*
X789Y1115D01*
X811Y1115D02*
X831Y1115D01*
X878Y1115D02*
X899Y1115D01*
X913Y1115D02*
X934Y1115D01*
X948Y1115D02*
X952Y1115D01*
X967Y1115D02*
X971Y1115D01*
X983Y1115D02*
X987Y1115D01*
X991Y1115D02*
X1001Y1115D01*
X1021Y1115D02*
X1039Y1115D01*
X1055Y1115D02*
X1076Y1115D01*
X1089Y1115D02*
X1109Y1115D01*
X1130Y1115D02*
X1146Y1115D01*
X248Y1114D02*
X252Y1114D01*
X267Y1114D02*
X271Y1114D01*
X286Y1114D02*
X302Y1114D01*
X320Y1114D02*
X340Y1114D01*
X355Y1114D02*
X374Y1114D01*
X388Y1114D02*
X392Y1114D01*
X407Y1114D02*
X411Y1114D01*
X423Y1114D02*
X440Y1114D01*
X477Y1114D02*
X481Y1114D01*
X493Y1114D02*
X497Y1114D01*
X501Y1114D02*
X514Y1114D01*
X528Y1114D02*
X532Y1114D01*
X547Y1114D02*
X551Y1114D01*
X611Y1114D02*
X615Y1114D01*
X646Y1114D02*
X650Y1114D01*
X668Y1114D02*
X688Y1114D01*
X708Y1114D02*
X722Y1114D01*
X781Y1114D02*
X788Y1114D01*
X812Y1114D02*
X831Y1114D01*
X878Y1114D02*
X882Y1114D01*
X884Y1114D02*
X898Y1114D01*
X913Y1114D02*
X933Y1114D01*
X948Y1114D02*
X952Y1114D01*
X968Y1114D02*
X971Y1114D01*
X983Y1114D02*
X987Y1114D01*
X993Y1114D02*
X999Y1114D01*
X1021Y1114D02*
X1039Y1114D01*
X1055Y1114D02*
X1075Y1114D01*
X1088Y1114D02*
X1108Y1114D01*
X1131Y1114D02*
X1146Y1114D01*
X248Y1113D02*
X251Y1113D01*
X267Y1113D02*
X271Y1113D01*
X288Y1113D02*
X301Y1113D01*
X321Y1113D02*
X338Y1113D01*
X356Y1113D02*
X373Y1113D01*
X388Y1113D02*
X391Y1113D01*
X407Y1113D02*
X411Y1113D01*
X423Y1113D02*
X439Y1113D01*
X478Y1113D02*
X481Y1113D01*
X493Y1113D02*
X497Y1113D01*
X502Y1113D02*
X512Y1113D01*
X528Y1113D02*
X532Y1113D01*
X548Y1113D02*
X551Y1113D01*
X612Y1113D02*
X615Y1113D01*
X647Y1113D02*
X650Y1113D01*
X668Y1113D02*
X686Y1113D01*
X709Y1113D02*
X721Y1113D01*
X782Y1113D02*
X786Y1113D01*
X813Y1113D02*
X831Y1113D01*
X879Y1113D02*
X882Y1113D01*
X885Y1113D02*
X897Y1113D01*
X914Y1113D02*
X932Y1113D01*
X949Y1113D02*
X952Y1113D01*
X968Y1113D02*
X971Y1113D01*
X983Y1113D02*
X987Y1113D01*
X1021Y1113D02*
X1039Y1113D01*
X1057Y1113D02*
X1074Y1113D01*
X1089Y1113D02*
X1107Y1113D01*
X1132Y1113D02*
X1146Y1113D01*
X249Y1112D02*
X250Y1112D01*
X268Y1112D02*
X270Y1112D01*
X290Y1112D02*
X299Y1112D01*
X323Y1112D02*
X336Y1112D01*
X357Y1112D02*
X372Y1112D01*
X389Y1112D02*
X391Y1112D01*
X408Y1112D02*
X410Y1112D01*
X424Y1112D02*
X437Y1112D01*
X478Y1112D02*
X480Y1112D01*
X494Y1112D02*
X496Y1112D01*
X504Y1112D02*
X510Y1112D01*
X529Y1112D02*
X531Y1112D01*
X549Y1112D02*
X550Y1112D01*
X613Y1112D02*
X614Y1112D01*
X648Y1112D02*
X649Y1112D01*
X669Y1112D02*
X684Y1112D01*
X711Y1112D02*
X719Y1112D01*
X782Y1112D02*
X786Y1112D01*
X815Y1112D02*
X831Y1112D01*
X880Y1112D02*
X881Y1112D01*
X888Y1112D02*
X895Y1112D01*
X915Y1112D02*
X930Y1112D01*
X950Y1112D02*
X951Y1112D01*
X969Y1112D02*
X970Y1112D01*
X983Y1112D02*
X987Y1112D01*
X1022Y1112D02*
X1038Y1112D01*
X1059Y1112D02*
X1071Y1112D01*
X1090Y1112D02*
X1105Y1112D01*
X1134Y1112D02*
X1145Y1112D01*
X782Y1111D02*
X787Y1111D01*
X983Y1111D02*
X987Y1111D01*
X783Y1110D02*
X787Y1110D01*
X983Y1110D02*
X987Y1110D01*
X783Y1109D02*
X788Y1109D01*
X983Y1109D02*
X988Y1109D01*
X784Y1108D02*
X788Y1108D01*
X984Y1108D02*
X988Y1108D01*
X784Y1107D02*
X789Y1107D01*
X984Y1107D02*
X990Y1107D01*
X785Y1106D02*
X795Y1106D01*
X985Y1106D02*
X1003Y1106D01*
X785Y1105D02*
X796Y1105D01*
X986Y1105D02*
X1004Y1105D01*
X785Y1104D02*
X796Y1104D01*
X987Y1104D02*
X1004Y1104D01*
X786Y1103D02*
X796Y1103D01*
X988Y1103D02*
X1004Y1103D01*
X787Y1102D02*
X795Y1102D01*
X990Y1102D02*
X1003Y1102D01*
X897Y1087D02*
X898Y1087D01*
X958Y1087D02*
X966Y1087D01*
X1002Y1087D02*
X1004Y1087D01*
X896Y1086D02*
X899Y1086D01*
X957Y1086D02*
X967Y1086D01*
X1001Y1086D02*
X1004Y1086D01*
X896Y1085D02*
X900Y1085D01*
X956Y1085D02*
X967Y1085D01*
X1001Y1085D02*
X1005Y1085D01*
X896Y1084D02*
X900Y1084D01*
X956Y1084D02*
X967Y1084D01*
X1001Y1084D02*
X1005Y1084D01*
X896Y1083D02*
X900Y1083D01*
X956Y1083D02*
X966Y1083D01*
X1001Y1083D02*
X1005Y1083D01*
X896Y1082D02*
X900Y1082D01*
X956Y1082D02*
X960Y1082D01*
X1001Y1082D02*
X1005Y1082D01*
X896Y1081D02*
X900Y1081D01*
X956Y1081D02*
X960Y1081D01*
X1001Y1081D02*
X1005Y1081D01*
X896Y1080D02*
X900Y1080D01*
X956Y1080D02*
X960Y1080D01*
X1001Y1080D02*
X1005Y1080D01*
X896Y1079D02*
X900Y1079D01*
X956Y1079D02*
X960Y1079D01*
X1001Y1079D02*
X1005Y1079D01*
X896Y1078D02*
X900Y1078D01*
X956Y1078D02*
X960Y1078D01*
X1001Y1078D02*
X1005Y1078D01*
X716Y1077D02*
X716Y1077D01*
X723Y1077D02*
X723Y1077D01*
X744Y1077D02*
X752Y1077D01*
X774Y1077D02*
X784Y1077D01*
X848Y1077D02*
X859Y1077D01*
X885Y1077D02*
X889Y1077D01*
X896Y1077D02*
X900Y1077D01*
X919Y1077D02*
X928Y1077D01*
X956Y1077D02*
X960Y1077D01*
X989Y1077D02*
X992Y1077D01*
X1001Y1077D02*
X1005Y1077D01*
X1019Y1077D02*
X1029Y1077D01*
X1058Y1077D02*
X1063Y1077D01*
X1073Y1077D02*
X1073Y1077D01*
X1089Y1077D02*
X1089Y1077D01*
X1108Y1077D02*
X1108Y1077D01*
X1137Y1077D02*
X1137Y1077D01*
X1143Y1077D02*
X1143Y1077D01*
X705Y1076D02*
X710Y1076D01*
X714Y1076D02*
X719Y1076D01*
X722Y1076D02*
X725Y1076D01*
X742Y1076D02*
X754Y1076D01*
X772Y1076D02*
X787Y1076D01*
X845Y1076D02*
X861Y1076D01*
X882Y1076D02*
X892Y1076D01*
X896Y1076D02*
X900Y1076D01*
X916Y1076D02*
X929Y1076D01*
X956Y1076D02*
X960Y1076D01*
X986Y1076D02*
X995Y1076D01*
X1001Y1076D02*
X1005Y1076D01*
X1017Y1076D02*
X1032Y1076D01*
X1055Y1076D02*
X1065Y1076D01*
X1071Y1076D02*
X1074Y1076D01*
X1087Y1076D02*
X1090Y1076D01*
X1106Y1076D02*
X1109Y1076D01*
X1125Y1076D02*
X1130Y1076D01*
X1134Y1076D02*
X1140Y1076D01*
X1142Y1076D02*
X1145Y1076D01*
X703Y1075D02*
X725Y1075D01*
X740Y1075D02*
X756Y1075D01*
X772Y1075D02*
X789Y1075D01*
X843Y1075D02*
X862Y1075D01*
X881Y1075D02*
X894Y1075D01*
X896Y1075D02*
X900Y1075D01*
X914Y1075D02*
X930Y1075D01*
X956Y1075D02*
X960Y1075D01*
X984Y1075D02*
X997Y1075D01*
X1001Y1075D02*
X1005Y1075D01*
X1017Y1075D02*
X1034Y1075D01*
X1054Y1075D02*
X1066Y1075D01*
X1071Y1075D02*
X1075Y1075D01*
X1087Y1075D02*
X1091Y1075D01*
X1106Y1075D02*
X1110Y1075D01*
X1124Y1075D02*
X1145Y1075D01*
X703Y1074D02*
X725Y1074D01*
X739Y1074D02*
X757Y1074D01*
X772Y1074D02*
X790Y1074D01*
X843Y1074D02*
X863Y1074D01*
X879Y1074D02*
X900Y1074D01*
X914Y1074D02*
X930Y1074D01*
X956Y1074D02*
X960Y1074D01*
X984Y1074D02*
X998Y1074D01*
X1001Y1074D02*
X1005Y1074D01*
X1017Y1074D02*
X1035Y1074D01*
X1053Y1074D02*
X1067Y1074D01*
X1071Y1074D02*
X1075Y1074D01*
X1087Y1074D02*
X1091Y1074D01*
X1106Y1074D02*
X1110Y1074D01*
X1123Y1074D02*
X1145Y1074D01*
X702Y1073D02*
X725Y1073D01*
X738Y1073D02*
X758Y1073D01*
X772Y1073D02*
X791Y1073D01*
X842Y1073D02*
X864Y1073D01*
X878Y1073D02*
X900Y1073D01*
X913Y1073D02*
X929Y1073D01*
X956Y1073D02*
X960Y1073D01*
X983Y1073D02*
X1005Y1073D01*
X1017Y1073D02*
X1036Y1073D01*
X1052Y1073D02*
X1068Y1073D01*
X1071Y1073D02*
X1075Y1073D01*
X1087Y1073D02*
X1091Y1073D01*
X1106Y1073D02*
X1110Y1073D01*
X1122Y1073D02*
X1145Y1073D01*
X702Y1072D02*
X706Y1072D01*
X708Y1072D02*
X716Y1072D01*
X718Y1072D02*
X725Y1072D01*
X738Y1072D02*
X744Y1072D01*
X752Y1072D02*
X758Y1072D01*
X785Y1072D02*
X792Y1072D01*
X842Y1072D02*
X847Y1072D01*
X859Y1072D02*
X864Y1072D01*
X878Y1072D02*
X884Y1072D01*
X890Y1072D02*
X900Y1072D01*
X913Y1072D02*
X918Y1072D01*
X956Y1072D02*
X960Y1072D01*
X983Y1072D02*
X988Y1072D01*
X993Y1072D02*
X1005Y1072D01*
X1030Y1072D02*
X1037Y1072D01*
X1052Y1072D02*
X1057Y1072D01*
X1063Y1072D02*
X1075Y1072D01*
X1087Y1072D02*
X1091Y1072D01*
X1106Y1072D02*
X1110Y1072D01*
X1122Y1072D02*
X1126Y1072D01*
X1128Y1072D02*
X1136Y1072D01*
X1138Y1072D02*
X1145Y1072D01*
X702Y1071D02*
X706Y1071D01*
X709Y1071D02*
X715Y1071D01*
X719Y1071D02*
X725Y1071D01*
X737Y1071D02*
X742Y1071D01*
X754Y1071D02*
X759Y1071D01*
X786Y1071D02*
X793Y1071D01*
X843Y1071D02*
X845Y1071D01*
X860Y1071D02*
X864Y1071D01*
X877Y1071D02*
X882Y1071D01*
X892Y1071D02*
X900Y1071D01*
X912Y1071D02*
X917Y1071D01*
X956Y1071D02*
X960Y1071D01*
X982Y1071D02*
X987Y1071D01*
X995Y1071D02*
X1005Y1071D01*
X1032Y1071D02*
X1038Y1071D01*
X1052Y1071D02*
X1056Y1071D01*
X1064Y1071D02*
X1075Y1071D01*
X1087Y1071D02*
X1091Y1071D01*
X1106Y1071D02*
X1110Y1071D01*
X1122Y1071D02*
X1126Y1071D01*
X1129Y1071D02*
X1135Y1071D01*
X1139Y1071D02*
X1145Y1071D01*
X702Y1070D02*
X706Y1070D01*
X710Y1070D02*
X715Y1070D01*
X720Y1070D02*
X725Y1070D01*
X737Y1070D02*
X741Y1070D01*
X755Y1070D02*
X759Y1070D01*
X788Y1070D02*
X794Y1070D01*
X860Y1070D02*
X864Y1070D01*
X877Y1070D02*
X881Y1070D01*
X893Y1070D02*
X900Y1070D01*
X912Y1070D02*
X916Y1070D01*
X956Y1070D02*
X960Y1070D01*
X982Y1070D02*
X986Y1070D01*
X996Y1070D02*
X1005Y1070D01*
X1033Y1070D02*
X1039Y1070D01*
X1052Y1070D02*
X1056Y1070D01*
X1065Y1070D02*
X1075Y1070D01*
X1087Y1070D02*
X1091Y1070D01*
X1106Y1070D02*
X1110Y1070D01*
X1122Y1070D02*
X1126Y1070D01*
X1131Y1070D02*
X1135Y1070D01*
X1140Y1070D02*
X1145Y1070D01*
X702Y1069D02*
X706Y1069D01*
X711Y1069D02*
X715Y1069D01*
X721Y1069D02*
X725Y1069D01*
X737Y1069D02*
X741Y1069D01*
X756Y1069D02*
X760Y1069D01*
X789Y1069D02*
X794Y1069D01*
X858Y1069D02*
X864Y1069D01*
X877Y1069D02*
X881Y1069D01*
X894Y1069D02*
X900Y1069D01*
X912Y1069D02*
X916Y1069D01*
X956Y1069D02*
X960Y1069D01*
X982Y1069D02*
X986Y1069D01*
X998Y1069D02*
X1005Y1069D01*
X1034Y1069D02*
X1039Y1069D01*
X1052Y1069D02*
X1056Y1069D01*
X1067Y1069D02*
X1075Y1069D01*
X1087Y1069D02*
X1091Y1069D01*
X1106Y1069D02*
X1110Y1069D01*
X1122Y1069D02*
X1126Y1069D01*
X1131Y1069D02*
X1135Y1069D01*
X1141Y1069D02*
X1145Y1069D01*
X702Y1068D02*
X706Y1068D01*
X711Y1068D02*
X715Y1068D01*
X721Y1068D02*
X725Y1068D01*
X736Y1068D02*
X740Y1068D01*
X756Y1068D02*
X760Y1068D01*
X790Y1068D02*
X794Y1068D01*
X856Y1068D02*
X863Y1068D01*
X877Y1068D02*
X880Y1068D01*
X895Y1068D02*
X900Y1068D01*
X912Y1068D02*
X916Y1068D01*
X956Y1068D02*
X960Y1068D01*
X982Y1068D02*
X986Y1068D01*
X1000Y1068D02*
X1005Y1068D01*
X1035Y1068D02*
X1040Y1068D01*
X1052Y1068D02*
X1055Y1068D01*
X1068Y1068D02*
X1075Y1068D01*
X1087Y1068D02*
X1091Y1068D01*
X1106Y1068D02*
X1110Y1068D01*
X1122Y1068D02*
X1126Y1068D01*
X1131Y1068D02*
X1135Y1068D01*
X1141Y1068D02*
X1145Y1068D01*
X702Y1067D02*
X706Y1067D01*
X711Y1067D02*
X715Y1067D01*
X721Y1067D02*
X725Y1067D01*
X736Y1067D02*
X740Y1067D01*
X756Y1067D02*
X760Y1067D01*
X791Y1067D02*
X795Y1067D01*
X853Y1067D02*
X863Y1067D01*
X877Y1067D02*
X880Y1067D01*
X896Y1067D02*
X900Y1067D01*
X912Y1067D02*
X916Y1067D01*
X956Y1067D02*
X960Y1067D01*
X982Y1067D02*
X986Y1067D01*
X1001Y1067D02*
X1005Y1067D01*
X1036Y1067D02*
X1040Y1067D01*
X1052Y1067D02*
X1055Y1067D01*
X1069Y1067D02*
X1075Y1067D01*
X1087Y1067D02*
X1091Y1067D01*
X1106Y1067D02*
X1110Y1067D01*
X1122Y1067D02*
X1126Y1067D01*
X1131Y1067D02*
X1135Y1067D01*
X1141Y1067D02*
X1145Y1067D01*
X702Y1066D02*
X706Y1066D01*
X711Y1066D02*
X715Y1066D01*
X721Y1066D02*
X725Y1066D01*
X736Y1066D02*
X740Y1066D01*
X756Y1066D02*
X760Y1066D01*
X791Y1066D02*
X795Y1066D01*
X851Y1066D02*
X862Y1066D01*
X877Y1066D02*
X880Y1066D01*
X896Y1066D02*
X900Y1066D01*
X912Y1066D02*
X931Y1066D01*
X956Y1066D02*
X960Y1066D01*
X982Y1066D02*
X986Y1066D01*
X1001Y1066D02*
X1005Y1066D01*
X1036Y1066D02*
X1040Y1066D01*
X1070Y1066D02*
X1075Y1066D01*
X1087Y1066D02*
X1091Y1066D01*
X1106Y1066D02*
X1110Y1066D01*
X1122Y1066D02*
X1126Y1066D01*
X1131Y1066D02*
X1135Y1066D01*
X1141Y1066D02*
X1145Y1066D01*
X702Y1065D02*
X705Y1065D01*
X711Y1065D02*
X715Y1065D01*
X721Y1065D02*
X725Y1065D01*
X736Y1065D02*
X740Y1065D01*
X756Y1065D02*
X760Y1065D01*
X791Y1065D02*
X795Y1065D01*
X849Y1065D02*
X860Y1065D01*
X877Y1065D02*
X880Y1065D01*
X896Y1065D02*
X900Y1065D01*
X912Y1065D02*
X932Y1065D01*
X956Y1065D02*
X960Y1065D01*
X982Y1065D02*
X986Y1065D01*
X1001Y1065D02*
X1005Y1065D01*
X1036Y1065D02*
X1040Y1065D01*
X1071Y1065D02*
X1075Y1065D01*
X1087Y1065D02*
X1091Y1065D01*
X1106Y1065D02*
X1110Y1065D01*
X1122Y1065D02*
X1126Y1065D01*
X1131Y1065D02*
X1135Y1065D01*
X1141Y1065D02*
X1145Y1065D01*
X702Y1064D02*
X705Y1064D01*
X711Y1064D02*
X715Y1064D01*
X721Y1064D02*
X725Y1064D01*
X736Y1064D02*
X740Y1064D01*
X756Y1064D02*
X760Y1064D01*
X791Y1064D02*
X795Y1064D01*
X815Y1064D02*
X822Y1064D01*
X846Y1064D02*
X858Y1064D01*
X877Y1064D02*
X880Y1064D01*
X896Y1064D02*
X900Y1064D01*
X912Y1064D02*
X933Y1064D01*
X956Y1064D02*
X960Y1064D01*
X982Y1064D02*
X986Y1064D01*
X1001Y1064D02*
X1005Y1064D01*
X1036Y1064D02*
X1040Y1064D01*
X1071Y1064D02*
X1075Y1064D01*
X1087Y1064D02*
X1091Y1064D01*
X1106Y1064D02*
X1110Y1064D01*
X1122Y1064D02*
X1126Y1064D01*
X1131Y1064D02*
X1135Y1064D01*
X1141Y1064D02*
X1145Y1064D01*
X702Y1063D02*
X705Y1063D01*
X711Y1063D02*
X715Y1063D01*
X721Y1063D02*
X725Y1063D01*
X736Y1063D02*
X740Y1063D01*
X756Y1063D02*
X760Y1063D01*
X791Y1063D02*
X795Y1063D01*
X814Y1063D02*
X822Y1063D01*
X845Y1063D02*
X855Y1063D01*
X877Y1063D02*
X880Y1063D01*
X896Y1063D02*
X900Y1063D01*
X912Y1063D02*
X934Y1063D01*
X956Y1063D02*
X960Y1063D01*
X982Y1063D02*
X986Y1063D01*
X1001Y1063D02*
X1005Y1063D01*
X1036Y1063D02*
X1040Y1063D01*
X1071Y1063D02*
X1075Y1063D01*
X1087Y1063D02*
X1091Y1063D01*
X1106Y1063D02*
X1109Y1063D01*
X1122Y1063D02*
X1126Y1063D01*
X1131Y1063D02*
X1135Y1063D01*
X1141Y1063D02*
X1145Y1063D01*
X701Y1062D02*
X705Y1062D01*
X711Y1062D02*
X715Y1062D01*
X721Y1062D02*
X725Y1062D01*
X736Y1062D02*
X740Y1062D01*
X756Y1062D02*
X760Y1062D01*
X791Y1062D02*
X795Y1062D01*
X814Y1062D02*
X822Y1062D01*
X844Y1062D02*
X853Y1062D01*
X877Y1062D02*
X880Y1062D01*
X896Y1062D02*
X900Y1062D01*
X912Y1062D02*
X934Y1062D01*
X956Y1062D02*
X960Y1062D01*
X982Y1062D02*
X986Y1062D01*
X1001Y1062D02*
X1005Y1062D01*
X1036Y1062D02*
X1040Y1062D01*
X1071Y1062D02*
X1075Y1062D01*
X1087Y1062D02*
X1091Y1062D01*
X1106Y1062D02*
X1109Y1062D01*
X1122Y1062D02*
X1126Y1062D01*
X1131Y1062D02*
X1135Y1062D01*
X1141Y1062D02*
X1145Y1062D01*
X701Y1061D02*
X705Y1061D01*
X711Y1061D02*
X715Y1061D01*
X721Y1061D02*
X725Y1061D01*
X736Y1061D02*
X740Y1061D01*
X756Y1061D02*
X760Y1061D01*
X791Y1061D02*
X795Y1061D01*
X814Y1061D02*
X822Y1061D01*
X843Y1061D02*
X851Y1061D01*
X877Y1061D02*
X880Y1061D01*
X896Y1061D02*
X900Y1061D01*
X912Y1061D02*
X916Y1061D01*
X930Y1061D02*
X935Y1061D01*
X956Y1061D02*
X960Y1061D01*
X982Y1061D02*
X986Y1061D01*
X1001Y1061D02*
X1005Y1061D01*
X1036Y1061D02*
X1040Y1061D01*
X1071Y1061D02*
X1075Y1061D01*
X1087Y1061D02*
X1091Y1061D01*
X1106Y1061D02*
X1109Y1061D01*
X1122Y1061D02*
X1126Y1061D01*
X1131Y1061D02*
X1135Y1061D01*
X1141Y1061D02*
X1145Y1061D01*
X701Y1060D02*
X705Y1060D01*
X711Y1060D02*
X715Y1060D01*
X721Y1060D02*
X725Y1060D01*
X736Y1060D02*
X740Y1060D01*
X756Y1060D02*
X760Y1060D01*
X791Y1060D02*
X795Y1060D01*
X814Y1060D02*
X822Y1060D01*
X842Y1060D02*
X848Y1060D01*
X877Y1060D02*
X880Y1060D01*
X896Y1060D02*
X900Y1060D01*
X912Y1060D02*
X916Y1060D01*
X931Y1060D02*
X935Y1060D01*
X956Y1060D02*
X960Y1060D01*
X982Y1060D02*
X986Y1060D01*
X1001Y1060D02*
X1005Y1060D01*
X1036Y1060D02*
X1040Y1060D01*
X1071Y1060D02*
X1075Y1060D01*
X1087Y1060D02*
X1091Y1060D01*
X1105Y1060D02*
X1109Y1060D01*
X1122Y1060D02*
X1126Y1060D01*
X1131Y1060D02*
X1135Y1060D01*
X1141Y1060D02*
X1145Y1060D01*
X701Y1059D02*
X705Y1059D01*
X711Y1059D02*
X715Y1059D01*
X721Y1059D02*
X725Y1059D01*
X736Y1059D02*
X740Y1059D01*
X756Y1059D02*
X760Y1059D01*
X790Y1059D02*
X794Y1059D01*
X814Y1059D02*
X822Y1059D01*
X842Y1059D02*
X847Y1059D01*
X877Y1059D02*
X880Y1059D01*
X895Y1059D02*
X900Y1059D01*
X912Y1059D02*
X916Y1059D01*
X931Y1059D02*
X935Y1059D01*
X956Y1059D02*
X960Y1059D01*
X982Y1059D02*
X986Y1059D01*
X1001Y1059D02*
X1005Y1059D01*
X1035Y1059D02*
X1040Y1059D01*
X1071Y1059D02*
X1075Y1059D01*
X1087Y1059D02*
X1091Y1059D01*
X1105Y1059D02*
X1109Y1059D01*
X1122Y1059D02*
X1126Y1059D01*
X1131Y1059D02*
X1135Y1059D01*
X1141Y1059D02*
X1145Y1059D01*
X701Y1058D02*
X705Y1058D01*
X711Y1058D02*
X715Y1058D01*
X721Y1058D02*
X725Y1058D01*
X737Y1058D02*
X740Y1058D01*
X756Y1058D02*
X760Y1058D01*
X789Y1058D02*
X794Y1058D01*
X814Y1058D02*
X822Y1058D01*
X842Y1058D02*
X846Y1058D01*
X877Y1058D02*
X881Y1058D01*
X894Y1058D02*
X900Y1058D01*
X912Y1058D02*
X916Y1058D01*
X931Y1058D02*
X935Y1058D01*
X956Y1058D02*
X960Y1058D01*
X982Y1058D02*
X986Y1058D01*
X1001Y1058D02*
X1005Y1058D01*
X1034Y1058D02*
X1039Y1058D01*
X1071Y1058D02*
X1075Y1058D01*
X1087Y1058D02*
X1093Y1058D01*
X1105Y1058D02*
X1109Y1058D01*
X1122Y1058D02*
X1126Y1058D01*
X1131Y1058D02*
X1135Y1058D01*
X1141Y1058D02*
X1145Y1058D01*
X701Y1057D02*
X705Y1057D01*
X711Y1057D02*
X715Y1057D01*
X721Y1057D02*
X725Y1057D01*
X737Y1057D02*
X741Y1057D01*
X755Y1057D02*
X759Y1057D01*
X788Y1057D02*
X794Y1057D01*
X814Y1057D02*
X822Y1057D01*
X842Y1057D02*
X846Y1057D01*
X877Y1057D02*
X881Y1057D01*
X893Y1057D02*
X900Y1057D01*
X912Y1057D02*
X917Y1057D01*
X931Y1057D02*
X935Y1057D01*
X956Y1057D02*
X960Y1057D01*
X982Y1057D02*
X986Y1057D01*
X1001Y1057D02*
X1005Y1057D01*
X1033Y1057D02*
X1039Y1057D01*
X1071Y1057D02*
X1075Y1057D01*
X1087Y1057D02*
X1095Y1057D01*
X1105Y1057D02*
X1109Y1057D01*
X1122Y1057D02*
X1125Y1057D01*
X1131Y1057D02*
X1135Y1057D01*
X1141Y1057D02*
X1145Y1057D01*
X701Y1056D02*
X705Y1056D01*
X711Y1056D02*
X715Y1056D01*
X721Y1056D02*
X725Y1056D01*
X737Y1056D02*
X742Y1056D01*
X754Y1056D02*
X759Y1056D01*
X787Y1056D02*
X793Y1056D01*
X815Y1056D02*
X821Y1056D01*
X842Y1056D02*
X846Y1056D01*
X862Y1056D02*
X864Y1056D01*
X877Y1056D02*
X882Y1056D01*
X892Y1056D02*
X900Y1056D01*
X912Y1056D02*
X918Y1056D01*
X931Y1056D02*
X935Y1056D01*
X956Y1056D02*
X960Y1056D01*
X982Y1056D02*
X986Y1056D01*
X1001Y1056D02*
X1005Y1056D01*
X1032Y1056D02*
X1038Y1056D01*
X1071Y1056D02*
X1075Y1056D01*
X1087Y1056D02*
X1096Y1056D01*
X1105Y1056D02*
X1109Y1056D01*
X1122Y1056D02*
X1125Y1056D01*
X1131Y1056D02*
X1135Y1056D01*
X1141Y1056D02*
X1145Y1056D01*
X701Y1055D02*
X705Y1055D01*
X711Y1055D02*
X715Y1055D01*
X721Y1055D02*
X725Y1055D01*
X737Y1055D02*
X743Y1055D01*
X753Y1055D02*
X759Y1055D01*
X786Y1055D02*
X792Y1055D01*
X842Y1055D02*
X847Y1055D01*
X860Y1055D02*
X864Y1055D01*
X877Y1055D02*
X883Y1055D01*
X891Y1055D02*
X900Y1055D01*
X912Y1055D02*
X920Y1055D01*
X930Y1055D02*
X934Y1055D01*
X956Y1055D02*
X960Y1055D01*
X982Y1055D02*
X986Y1055D01*
X1001Y1055D02*
X1005Y1055D01*
X1031Y1055D02*
X1037Y1055D01*
X1071Y1055D02*
X1075Y1055D01*
X1087Y1055D02*
X1098Y1055D01*
X1104Y1055D02*
X1109Y1055D01*
X1122Y1055D02*
X1125Y1055D01*
X1131Y1055D02*
X1135Y1055D01*
X1141Y1055D02*
X1145Y1055D01*
X701Y1054D02*
X705Y1054D01*
X711Y1054D02*
X715Y1054D01*
X721Y1054D02*
X725Y1054D01*
X738Y1054D02*
X758Y1054D01*
X773Y1054D02*
X791Y1054D01*
X842Y1054D02*
X865Y1054D01*
X878Y1054D02*
X900Y1054D01*
X912Y1054D02*
X934Y1054D01*
X950Y1054D02*
X966Y1054D01*
X982Y1054D02*
X986Y1054D01*
X1001Y1054D02*
X1005Y1054D01*
X1018Y1054D02*
X1036Y1054D01*
X1071Y1054D02*
X1075Y1054D01*
X1087Y1054D02*
X1109Y1054D01*
X1121Y1054D02*
X1125Y1054D01*
X1131Y1054D02*
X1135Y1054D01*
X1141Y1054D02*
X1145Y1054D01*
X701Y1053D02*
X705Y1053D01*
X711Y1053D02*
X715Y1053D01*
X721Y1053D02*
X725Y1053D01*
X739Y1053D02*
X757Y1053D01*
X772Y1053D02*
X790Y1053D01*
X843Y1053D02*
X864Y1053D01*
X879Y1053D02*
X900Y1053D01*
X912Y1053D02*
X934Y1053D01*
X949Y1053D02*
X967Y1053D01*
X982Y1053D02*
X986Y1053D01*
X1001Y1053D02*
X1005Y1053D01*
X1017Y1053D02*
X1035Y1053D01*
X1071Y1053D02*
X1075Y1053D01*
X1087Y1053D02*
X1091Y1053D01*
X1093Y1053D02*
X1108Y1053D01*
X1121Y1053D02*
X1125Y1053D01*
X1131Y1053D02*
X1135Y1053D01*
X1141Y1053D02*
X1145Y1053D01*
X701Y1052D02*
X705Y1052D01*
X711Y1052D02*
X715Y1052D01*
X721Y1052D02*
X725Y1052D01*
X740Y1052D02*
X756Y1052D01*
X772Y1052D02*
X789Y1052D01*
X844Y1052D02*
X864Y1052D01*
X880Y1052D02*
X894Y1052D01*
X896Y1052D02*
X900Y1052D01*
X912Y1052D02*
X933Y1052D01*
X949Y1052D02*
X967Y1052D01*
X982Y1052D02*
X986Y1052D01*
X1001Y1052D02*
X1005Y1052D01*
X1017Y1052D02*
X1034Y1052D01*
X1071Y1052D02*
X1075Y1052D01*
X1087Y1052D02*
X1091Y1052D01*
X1094Y1052D02*
X1107Y1052D01*
X1121Y1052D02*
X1125Y1052D01*
X1131Y1052D02*
X1135Y1052D01*
X1141Y1052D02*
X1145Y1052D01*
X701Y1051D02*
X705Y1051D01*
X711Y1051D02*
X715Y1051D01*
X721Y1051D02*
X725Y1051D01*
X741Y1051D02*
X755Y1051D01*
X772Y1051D02*
X787Y1051D01*
X845Y1051D02*
X862Y1051D01*
X881Y1051D02*
X893Y1051D01*
X896Y1051D02*
X899Y1051D01*
X912Y1051D02*
X915Y1051D01*
X918Y1051D02*
X932Y1051D01*
X949Y1051D02*
X967Y1051D01*
X982Y1051D02*
X985Y1051D01*
X1001Y1051D02*
X1004Y1051D01*
X1017Y1051D02*
X1033Y1051D01*
X1071Y1051D02*
X1075Y1051D01*
X1087Y1051D02*
X1090Y1051D01*
X1096Y1051D02*
X1106Y1051D01*
X1122Y1051D02*
X1125Y1051D01*
X1132Y1051D02*
X1135Y1051D01*
X1142Y1051D02*
X1145Y1051D01*
X702Y1050D02*
X704Y1050D01*
X712Y1050D02*
X714Y1050D01*
X722Y1050D02*
X724Y1050D01*
X743Y1050D02*
X753Y1050D01*
X773Y1050D02*
X786Y1050D01*
X847Y1050D02*
X860Y1050D01*
X883Y1050D02*
X891Y1050D01*
X897Y1050D02*
X899Y1050D01*
X913Y1050D02*
X914Y1050D01*
X920Y1050D02*
X930Y1050D01*
X950Y1050D02*
X966Y1050D01*
X983Y1050D02*
X984Y1050D01*
X1002Y1050D02*
X1004Y1050D01*
X1018Y1050D02*
X1031Y1050D01*
X1072Y1050D02*
X1074Y1050D01*
X1088Y1050D02*
X1089Y1050D01*
X1098Y1050D02*
X1104Y1050D01*
X1123Y1050D02*
X1124Y1050D01*
X1133Y1050D02*
X1134Y1050D01*
X1143Y1050D02*
X1144Y1050D01*
X344Y212D02*
X348Y212D01*
X343Y211D02*
X349Y211D01*
X62Y210D02*
X75Y210D01*
X126Y210D02*
X143Y210D01*
X196Y210D02*
X215Y210D01*
X264Y210D02*
X265Y210D01*
X309Y210D02*
X317Y210D01*
X343Y210D02*
X349Y210D01*
X410Y210D02*
X426Y210D01*
X62Y209D02*
X76Y209D01*
X124Y209D02*
X144Y209D01*
X195Y209D02*
X216Y209D01*
X263Y209D02*
X266Y209D01*
X308Y209D02*
X318Y209D01*
X343Y209D02*
X349Y209D01*
X408Y209D02*
X426Y209D01*
X62Y208D02*
X76Y208D01*
X124Y208D02*
X145Y208D01*
X194Y208D02*
X216Y208D01*
X263Y208D02*
X267Y208D01*
X308Y208D02*
X319Y208D01*
X343Y208D02*
X349Y208D01*
X407Y208D02*
X426Y208D01*
X62Y207D02*
X76Y207D01*
X123Y207D02*
X146Y207D01*
X193Y207D02*
X216Y207D01*
X263Y207D02*
X267Y207D01*
X308Y207D02*
X318Y207D01*
X343Y207D02*
X349Y207D01*
X406Y207D02*
X426Y207D01*
X62Y206D02*
X75Y206D01*
X123Y206D02*
X146Y206D01*
X193Y206D02*
X215Y206D01*
X263Y206D02*
X267Y206D01*
X308Y206D02*
X318Y206D01*
X344Y206D02*
X348Y206D01*
X405Y206D02*
X426Y206D01*
X62Y205D02*
X66Y205D01*
X123Y205D02*
X127Y205D01*
X142Y205D02*
X146Y205D01*
X193Y205D02*
X197Y205D01*
X263Y205D02*
X267Y205D01*
X308Y205D02*
X311Y205D01*
X404Y205D02*
X410Y205D01*
X422Y205D02*
X426Y205D01*
X62Y204D02*
X66Y204D01*
X123Y204D02*
X127Y204D01*
X142Y204D02*
X146Y204D01*
X193Y204D02*
X197Y204D01*
X263Y204D02*
X267Y204D01*
X308Y204D02*
X311Y204D01*
X404Y204D02*
X408Y204D01*
X422Y204D02*
X426Y204D01*
X62Y203D02*
X66Y203D01*
X123Y203D02*
X127Y203D01*
X142Y203D02*
X146Y203D01*
X193Y203D02*
X197Y203D01*
X263Y203D02*
X267Y203D01*
X308Y203D02*
X311Y203D01*
X403Y203D02*
X408Y203D01*
X422Y203D02*
X426Y203D01*
X62Y202D02*
X66Y202D01*
X123Y202D02*
X127Y202D01*
X142Y202D02*
X146Y202D01*
X193Y202D02*
X197Y202D01*
X263Y202D02*
X267Y202D01*
X308Y202D02*
X311Y202D01*
X403Y202D02*
X407Y202D01*
X422Y202D02*
X426Y202D01*
X62Y201D02*
X66Y201D01*
X123Y201D02*
X127Y201D01*
X142Y201D02*
X146Y201D01*
X193Y201D02*
X197Y201D01*
X263Y201D02*
X267Y201D01*
X308Y201D02*
X311Y201D01*
X403Y201D02*
X407Y201D01*
X422Y201D02*
X426Y201D01*
X62Y200D02*
X66Y200D01*
X123Y200D02*
X127Y200D01*
X142Y200D02*
X146Y200D01*
X193Y200D02*
X197Y200D01*
X263Y200D02*
X267Y200D01*
X274Y200D02*
X278Y200D01*
X308Y200D02*
X311Y200D01*
X345Y200D02*
X352Y200D01*
X370Y200D02*
X370Y200D01*
X389Y200D02*
X389Y200D01*
X403Y200D02*
X407Y200D01*
X422Y200D02*
X426Y200D01*
X62Y199D02*
X66Y199D01*
X123Y199D02*
X127Y199D01*
X142Y199D02*
X146Y199D01*
X193Y199D02*
X197Y199D01*
X263Y199D02*
X267Y199D01*
X271Y199D02*
X281Y199D01*
X308Y199D02*
X311Y199D01*
X343Y199D02*
X353Y199D01*
X368Y199D02*
X371Y199D01*
X388Y199D02*
X391Y199D01*
X403Y199D02*
X407Y199D01*
X422Y199D02*
X426Y199D01*
X62Y198D02*
X66Y198D01*
X123Y198D02*
X127Y198D01*
X142Y198D02*
X146Y198D01*
X193Y198D02*
X197Y198D01*
X263Y198D02*
X267Y198D01*
X269Y198D02*
X282Y198D01*
X308Y198D02*
X311Y198D01*
X343Y198D02*
X354Y198D01*
X368Y198D02*
X372Y198D01*
X387Y198D02*
X391Y198D01*
X403Y198D02*
X407Y198D01*
X422Y198D02*
X426Y198D01*
X62Y197D02*
X66Y197D01*
X123Y197D02*
X127Y197D01*
X142Y197D02*
X146Y197D01*
X193Y197D02*
X197Y197D01*
X263Y197D02*
X283Y197D01*
X308Y197D02*
X311Y197D01*
X343Y197D02*
X354Y197D01*
X368Y197D02*
X372Y197D01*
X387Y197D02*
X391Y197D01*
X403Y197D02*
X407Y197D01*
X422Y197D02*
X426Y197D01*
X62Y196D02*
X66Y196D01*
X123Y196D02*
X127Y196D01*
X142Y196D02*
X146Y196D01*
X193Y196D02*
X197Y196D01*
X263Y196D02*
X284Y196D01*
X308Y196D02*
X311Y196D01*
X343Y196D02*
X353Y196D01*
X368Y196D02*
X372Y196D01*
X387Y196D02*
X391Y196D01*
X403Y196D02*
X408Y196D01*
X422Y196D02*
X426Y196D01*
X62Y195D02*
X66Y195D01*
X123Y195D02*
X127Y195D01*
X142Y195D02*
X146Y195D01*
X193Y195D02*
X197Y195D01*
X263Y195D02*
X273Y195D01*
X279Y195D02*
X285Y195D01*
X308Y195D02*
X311Y195D01*
X343Y195D02*
X347Y195D01*
X368Y195D02*
X372Y195D01*
X387Y195D02*
X391Y195D01*
X404Y195D02*
X409Y195D01*
X422Y195D02*
X426Y195D01*
X62Y194D02*
X66Y194D01*
X123Y194D02*
X127Y194D01*
X142Y194D02*
X146Y194D01*
X193Y194D02*
X197Y194D01*
X263Y194D02*
X271Y194D01*
X280Y194D02*
X285Y194D01*
X308Y194D02*
X311Y194D01*
X343Y194D02*
X346Y194D01*
X368Y194D02*
X372Y194D01*
X387Y194D02*
X391Y194D01*
X404Y194D02*
X411Y194D01*
X422Y194D02*
X426Y194D01*
X62Y193D02*
X66Y193D01*
X123Y193D02*
X127Y193D01*
X142Y193D02*
X146Y193D01*
X193Y193D02*
X214Y193D01*
X263Y193D02*
X270Y193D01*
X281Y193D02*
X286Y193D01*
X308Y193D02*
X311Y193D01*
X343Y193D02*
X346Y193D01*
X368Y193D02*
X372Y193D01*
X387Y193D02*
X391Y193D01*
X405Y193D02*
X426Y193D01*
X62Y192D02*
X66Y192D01*
X123Y192D02*
X127Y192D01*
X142Y192D02*
X146Y192D01*
X193Y192D02*
X215Y192D01*
X263Y192D02*
X269Y192D01*
X282Y192D02*
X286Y192D01*
X308Y192D02*
X311Y192D01*
X343Y192D02*
X346Y192D01*
X368Y192D02*
X372Y192D01*
X387Y192D02*
X391Y192D01*
X406Y192D02*
X426Y192D01*
X62Y191D02*
X66Y191D01*
X123Y191D02*
X127Y191D01*
X142Y191D02*
X146Y191D01*
X194Y191D02*
X215Y191D01*
X263Y191D02*
X268Y191D01*
X282Y191D02*
X286Y191D01*
X308Y191D02*
X311Y191D01*
X343Y191D02*
X346Y191D01*
X368Y191D02*
X372Y191D01*
X387Y191D02*
X391Y191D01*
X406Y191D02*
X426Y191D01*
X62Y190D02*
X66Y190D01*
X123Y190D02*
X127Y190D01*
X142Y190D02*
X146Y190D01*
X195Y190D02*
X216Y190D01*
X263Y190D02*
X267Y190D01*
X282Y190D02*
X286Y190D01*
X308Y190D02*
X311Y190D01*
X343Y190D02*
X346Y190D01*
X368Y190D02*
X372Y190D01*
X387Y190D02*
X391Y190D01*
X405Y190D02*
X426Y190D01*
X53Y189D02*
X56Y189D01*
X62Y189D02*
X66Y189D01*
X123Y189D02*
X127Y189D01*
X142Y189D02*
X146Y189D01*
X212Y189D02*
X216Y189D01*
X263Y189D02*
X267Y189D01*
X282Y189D02*
X286Y189D01*
X308Y189D02*
X311Y189D01*
X343Y189D02*
X346Y189D01*
X368Y189D02*
X372Y189D01*
X387Y189D02*
X391Y189D01*
X404Y189D02*
X412Y189D01*
X422Y189D02*
X426Y189D01*
X53Y188D02*
X57Y188D01*
X62Y188D02*
X66Y188D01*
X123Y188D02*
X127Y188D01*
X142Y188D02*
X146Y188D01*
X212Y188D02*
X216Y188D01*
X263Y188D02*
X267Y188D01*
X282Y188D02*
X286Y188D01*
X308Y188D02*
X311Y188D01*
X343Y188D02*
X346Y188D01*
X368Y188D02*
X372Y188D01*
X387Y188D02*
X391Y188D01*
X404Y188D02*
X409Y188D01*
X422Y188D02*
X426Y188D01*
X53Y187D02*
X57Y187D01*
X62Y187D02*
X66Y187D01*
X96Y187D02*
X103Y187D01*
X123Y187D02*
X127Y187D01*
X142Y187D02*
X146Y187D01*
X166Y187D02*
X173Y187D01*
X212Y187D02*
X216Y187D01*
X263Y187D02*
X267Y187D01*
X282Y187D02*
X286Y187D01*
X308Y187D02*
X311Y187D01*
X343Y187D02*
X346Y187D01*
X368Y187D02*
X372Y187D01*
X387Y187D02*
X391Y187D01*
X403Y187D02*
X408Y187D01*
X422Y187D02*
X426Y187D01*
X53Y186D02*
X57Y186D01*
X62Y186D02*
X66Y186D01*
X95Y186D02*
X104Y186D01*
X123Y186D02*
X127Y186D01*
X142Y186D02*
X146Y186D01*
X165Y186D02*
X174Y186D01*
X212Y186D02*
X216Y186D01*
X263Y186D02*
X267Y186D01*
X282Y186D02*
X286Y186D01*
X308Y186D02*
X311Y186D01*
X343Y186D02*
X346Y186D01*
X368Y186D02*
X372Y186D01*
X387Y186D02*
X391Y186D01*
X403Y186D02*
X407Y186D01*
X422Y186D02*
X426Y186D01*
X53Y185D02*
X57Y185D01*
X62Y185D02*
X66Y185D01*
X95Y185D02*
X104Y185D01*
X123Y185D02*
X127Y185D01*
X142Y185D02*
X146Y185D01*
X165Y185D02*
X174Y185D01*
X212Y185D02*
X216Y185D01*
X263Y185D02*
X267Y185D01*
X282Y185D02*
X286Y185D01*
X308Y185D02*
X311Y185D01*
X343Y185D02*
X346Y185D01*
X368Y185D02*
X372Y185D01*
X387Y185D02*
X391Y185D01*
X403Y185D02*
X407Y185D01*
X422Y185D02*
X426Y185D01*
X53Y184D02*
X57Y184D01*
X62Y184D02*
X66Y184D01*
X95Y184D02*
X104Y184D01*
X123Y184D02*
X127Y184D01*
X142Y184D02*
X146Y184D01*
X165Y184D02*
X174Y184D01*
X212Y184D02*
X216Y184D01*
X263Y184D02*
X267Y184D01*
X282Y184D02*
X286Y184D01*
X308Y184D02*
X311Y184D01*
X343Y184D02*
X346Y184D01*
X368Y184D02*
X372Y184D01*
X387Y184D02*
X391Y184D01*
X403Y184D02*
X407Y184D01*
X422Y184D02*
X426Y184D01*
X53Y183D02*
X57Y183D01*
X62Y183D02*
X66Y183D01*
X95Y183D02*
X104Y183D01*
X123Y183D02*
X127Y183D01*
X142Y183D02*
X146Y183D01*
X165Y183D02*
X174Y183D01*
X212Y183D02*
X216Y183D01*
X263Y183D02*
X267Y183D01*
X282Y183D02*
X286Y183D01*
X308Y183D02*
X311Y183D01*
X343Y183D02*
X346Y183D01*
X368Y183D02*
X372Y183D01*
X387Y183D02*
X391Y183D01*
X403Y183D02*
X407Y183D01*
X422Y183D02*
X426Y183D01*
X53Y182D02*
X57Y182D01*
X62Y182D02*
X66Y182D01*
X95Y182D02*
X104Y182D01*
X123Y182D02*
X127Y182D01*
X142Y182D02*
X146Y182D01*
X165Y182D02*
X174Y182D01*
X212Y182D02*
X216Y182D01*
X263Y182D02*
X267Y182D01*
X282Y182D02*
X286Y182D01*
X308Y182D02*
X311Y182D01*
X343Y182D02*
X346Y182D01*
X368Y182D02*
X373Y182D01*
X387Y182D02*
X391Y182D01*
X403Y182D02*
X407Y182D01*
X422Y182D02*
X426Y182D01*
X53Y181D02*
X57Y181D01*
X62Y181D02*
X66Y181D01*
X95Y181D02*
X104Y181D01*
X123Y181D02*
X127Y181D01*
X142Y181D02*
X146Y181D01*
X165Y181D02*
X174Y181D01*
X212Y181D02*
X216Y181D01*
X263Y181D02*
X268Y181D01*
X282Y181D02*
X286Y181D01*
X308Y181D02*
X311Y181D01*
X343Y181D02*
X346Y181D01*
X368Y181D02*
X374Y181D01*
X387Y181D02*
X391Y181D01*
X403Y181D02*
X407Y181D01*
X422Y181D02*
X426Y181D01*
X53Y180D02*
X57Y180D01*
X62Y180D02*
X66Y180D01*
X95Y180D02*
X103Y180D01*
X123Y180D02*
X127Y180D01*
X142Y180D02*
X146Y180D01*
X165Y180D02*
X173Y180D01*
X212Y180D02*
X216Y180D01*
X263Y180D02*
X270Y180D01*
X282Y180D02*
X286Y180D01*
X308Y180D02*
X311Y180D01*
X343Y180D02*
X346Y180D01*
X368Y180D02*
X376Y180D01*
X387Y180D02*
X391Y180D01*
X403Y180D02*
X408Y180D01*
X422Y180D02*
X426Y180D01*
X53Y179D02*
X57Y179D01*
X62Y179D02*
X66Y179D01*
X96Y179D02*
X102Y179D01*
X123Y179D02*
X127Y179D01*
X142Y179D02*
X146Y179D01*
X166Y179D02*
X172Y179D01*
X212Y179D02*
X216Y179D01*
X263Y179D02*
X271Y179D01*
X281Y179D02*
X286Y179D01*
X308Y179D02*
X311Y179D01*
X343Y179D02*
X346Y179D01*
X368Y179D02*
X377Y179D01*
X386Y179D02*
X390Y179D01*
X404Y179D02*
X408Y179D01*
X422Y179D02*
X426Y179D01*
X53Y178D02*
X57Y178D01*
X62Y178D02*
X66Y178D01*
X123Y178D02*
X127Y178D01*
X142Y178D02*
X146Y178D01*
X212Y178D02*
X216Y178D01*
X263Y178D02*
X272Y178D01*
X279Y178D02*
X285Y178D01*
X308Y178D02*
X311Y178D01*
X343Y178D02*
X346Y178D01*
X368Y178D02*
X379Y178D01*
X386Y178D02*
X390Y178D01*
X404Y178D02*
X410Y178D01*
X422Y178D02*
X426Y178D01*
X53Y177D02*
X75Y177D01*
X123Y177D02*
X146Y177D01*
X194Y177D02*
X216Y177D01*
X263Y177D02*
X285Y177D01*
X301Y177D02*
X318Y177D01*
X337Y177D02*
X353Y177D01*
X368Y177D02*
X390Y177D01*
X405Y177D02*
X426Y177D01*
X53Y176D02*
X76Y176D01*
X123Y176D02*
X146Y176D01*
X193Y176D02*
X216Y176D01*
X263Y176D02*
X284Y176D01*
X301Y176D02*
X318Y176D01*
X336Y176D02*
X353Y176D01*
X368Y176D02*
X372Y176D01*
X374Y176D02*
X389Y176D01*
X405Y176D02*
X426Y176D01*
X53Y175D02*
X76Y175D01*
X124Y175D02*
X145Y175D01*
X193Y175D02*
X216Y175D01*
X263Y175D02*
X267Y175D01*
X269Y175D02*
X283Y175D01*
X300Y175D02*
X319Y175D01*
X335Y175D02*
X354Y175D01*
X368Y175D02*
X372Y175D01*
X376Y175D02*
X389Y175D01*
X406Y175D02*
X426Y175D01*
X53Y174D02*
X76Y174D01*
X124Y174D02*
X144Y174D01*
X193Y174D02*
X216Y174D01*
X263Y174D02*
X267Y174D01*
X270Y174D02*
X281Y174D01*
X301Y174D02*
X318Y174D01*
X336Y174D02*
X353Y174D01*
X368Y174D02*
X372Y174D01*
X377Y174D02*
X387Y174D01*
X408Y174D02*
X426Y174D01*
X54Y173D02*
X75Y173D01*
X126Y173D02*
X143Y173D01*
X194Y173D02*
X216Y173D01*
X264Y173D02*
X266Y173D01*
X272Y173D02*
X280Y173D01*
X301Y173D02*
X318Y173D01*
X337Y173D02*
X353Y173D01*
X369Y173D02*
X371Y173D01*
X379Y173D02*
X386Y173D01*
X410Y173D02*
X426Y173D01*
D02*
G04 End of Silk0*
M02*