G04 MADE WITH FRITZING*
G04 WWW.FRITZING.ORG*
G04 DOUBLE SIDED*
G04 HOLES PLATED*
G04 CONTOUR ON CENTER OF CONTOUR VECTOR*
%ASAXBY*%
%FSLAX23Y23*%
%MOIN*%
%OFA0B0*%
%SFA1.0B1.0*%
%ADD10C,0.075000*%
%ADD11C,0.074000*%
%ADD12C,0.062992*%
%ADD13C,0.078000*%
%ADD14C,0.078833*%
%ADD15R,0.075000X0.075000*%
%ADD16R,0.062992X0.062992*%
%ADD17R,0.078819X0.078847*%
%ADD18C,0.024000*%
%ADD19C,0.016000*%
%LNCOPPER0*%
G90*
G70*
G54D10*
X1843Y1109D03*
X116Y1227D03*
G54D11*
X1543Y965D03*
X1650Y965D03*
X1757Y965D03*
G54D10*
X1213Y1238D03*
X1213Y938D03*
X1113Y1238D03*
X1113Y938D03*
X1013Y1238D03*
X1013Y938D03*
X913Y1238D03*
X913Y938D03*
X813Y1238D03*
X813Y938D03*
X713Y1238D03*
X713Y938D03*
X613Y1238D03*
X613Y938D03*
G54D12*
X1254Y684D03*
X1156Y684D03*
X758Y685D03*
X659Y685D03*
X292Y682D03*
X194Y682D03*
X1748Y687D03*
X1649Y687D03*
G54D10*
X839Y95D03*
X583Y95D03*
X839Y272D03*
X583Y272D03*
X1315Y97D03*
X1059Y97D03*
X1315Y275D03*
X1059Y275D03*
X1806Y97D03*
X1550Y97D03*
X1806Y274D03*
X1550Y274D03*
X367Y94D03*
X111Y94D03*
X367Y271D03*
X111Y271D03*
X1530Y538D03*
X1830Y538D03*
X1035Y537D03*
X1335Y537D03*
X558Y541D03*
X858Y541D03*
X1532Y423D03*
X1832Y423D03*
X1039Y423D03*
X1339Y423D03*
X559Y423D03*
X859Y423D03*
X96Y424D03*
X396Y424D03*
X92Y535D03*
X392Y535D03*
G54D13*
X1730Y1214D03*
X1830Y1214D03*
G54D12*
X1526Y1115D03*
X1526Y1214D03*
G54D10*
X1325Y1307D03*
X1625Y1307D03*
G54D14*
X269Y976D03*
X269Y1244D03*
G54D15*
X1213Y1238D03*
G54D16*
X1254Y684D03*
X758Y685D03*
X292Y682D03*
X1748Y687D03*
X1526Y1115D03*
G54D17*
X269Y976D03*
G54D18*
X713Y910D02*
X713Y855D01*
D02*
X713Y855D02*
X412Y555D01*
D02*
X833Y918D02*
X946Y802D01*
D02*
X946Y802D02*
X1369Y802D01*
D02*
X1369Y802D02*
X1750Y422D01*
D02*
X1750Y422D02*
X1804Y422D01*
D02*
X868Y272D02*
X1030Y274D01*
D02*
X1812Y403D02*
X1548Y138D01*
D02*
X1548Y138D02*
X1548Y125D01*
D02*
X839Y403D02*
X585Y155D01*
D02*
X585Y155D02*
X584Y123D01*
D02*
X1585Y1058D02*
X1530Y1058D01*
D02*
X1530Y1058D02*
X1411Y938D01*
D02*
X1709Y1192D02*
X1585Y1058D01*
D02*
X1411Y938D02*
X1241Y938D01*
D02*
X116Y404D02*
X313Y208D01*
D02*
X424Y207D02*
X479Y262D01*
D02*
X313Y208D02*
X424Y207D01*
D02*
X479Y262D02*
X477Y340D01*
D02*
X477Y340D02*
X539Y402D01*
G54D19*
D02*
X1021Y438D02*
X971Y481D01*
D02*
X971Y481D02*
X620Y481D01*
D02*
X620Y481D02*
X576Y439D01*
G54D18*
D02*
X1512Y444D02*
X1427Y532D01*
D02*
X1427Y570D02*
X1395Y604D01*
D02*
X1427Y532D02*
X1427Y570D01*
D02*
X1395Y604D02*
X1289Y605D01*
D02*
X1105Y423D02*
X1067Y423D01*
D02*
X1289Y605D02*
X1105Y423D01*
D02*
X1057Y144D02*
X1058Y126D01*
D02*
X1319Y403D02*
X1057Y144D01*
G54D19*
D02*
X1081Y1106D02*
X1320Y1106D01*
D02*
X1553Y1279D02*
X1599Y1231D01*
D02*
X1491Y1277D02*
X1553Y1279D01*
D02*
X1320Y1106D02*
X1491Y1277D01*
D02*
X1649Y1232D02*
X1727Y1317D01*
D02*
X1599Y1231D02*
X1649Y1232D01*
D02*
X1931Y1262D02*
X1930Y115D01*
D02*
X1930Y115D02*
X1851Y32D01*
D02*
X1868Y1319D02*
X1931Y1262D01*
D02*
X1727Y1317D02*
X1868Y1319D01*
D02*
X1851Y32D02*
X1126Y31D01*
D02*
X1126Y31D02*
X1075Y81D01*
D02*
X929Y954D02*
X1081Y1106D01*
G54D18*
D02*
X296Y342D02*
X347Y291D01*
D02*
X292Y656D02*
X296Y342D01*
D02*
X1153Y665D02*
X1054Y558D01*
D02*
X1151Y657D02*
X1153Y665D01*
D02*
X1650Y1034D02*
X1650Y991D01*
D02*
X1812Y1196D02*
X1650Y1034D01*
G54D19*
D02*
X1745Y763D02*
X1747Y709D01*
D02*
X1561Y947D02*
X1745Y763D01*
G54D18*
D02*
X292Y1225D02*
X429Y1107D01*
D02*
X429Y1107D02*
X686Y1105D01*
D02*
X686Y1105D02*
X793Y1217D01*
D02*
X657Y633D02*
X579Y561D01*
D02*
X658Y658D02*
X657Y633D01*
G36*
X1838Y1302D02*
X1838Y1300D01*
X1734Y1300D01*
X1734Y1298D01*
X1732Y1298D01*
X1732Y1296D01*
X1730Y1296D01*
X1730Y1294D01*
X1728Y1294D01*
X1728Y1292D01*
X1726Y1292D01*
X1726Y1288D01*
X1724Y1288D01*
X1724Y1286D01*
X1722Y1286D01*
X1722Y1284D01*
X1720Y1284D01*
X1720Y1282D01*
X1718Y1282D01*
X1718Y1280D01*
X1716Y1280D01*
X1716Y1262D01*
X1842Y1262D01*
X1842Y1260D01*
X1846Y1260D01*
X1846Y1258D01*
X1850Y1258D01*
X1850Y1256D01*
X1854Y1256D01*
X1854Y1254D01*
X1856Y1254D01*
X1856Y1252D01*
X1860Y1252D01*
X1860Y1250D01*
X1862Y1250D01*
X1862Y1248D01*
X1864Y1248D01*
X1864Y1246D01*
X1866Y1246D01*
X1866Y1244D01*
X1868Y1244D01*
X1868Y1240D01*
X1870Y1240D01*
X1870Y1238D01*
X1872Y1238D01*
X1872Y1234D01*
X1874Y1234D01*
X1874Y1230D01*
X1876Y1230D01*
X1876Y1224D01*
X1878Y1224D01*
X1878Y1204D01*
X1876Y1204D01*
X1876Y1198D01*
X1874Y1198D01*
X1874Y1194D01*
X1872Y1194D01*
X1872Y1190D01*
X1870Y1190D01*
X1870Y1188D01*
X1868Y1188D01*
X1868Y1184D01*
X1866Y1184D01*
X1866Y1182D01*
X1864Y1182D01*
X1864Y1180D01*
X1862Y1180D01*
X1862Y1178D01*
X1860Y1178D01*
X1860Y1176D01*
X1856Y1176D01*
X1856Y1174D01*
X1854Y1174D01*
X1854Y1172D01*
X1850Y1172D01*
X1850Y1170D01*
X1846Y1170D01*
X1846Y1168D01*
X1842Y1168D01*
X1842Y1166D01*
X1812Y1166D01*
X1812Y1164D01*
X1810Y1164D01*
X1810Y1162D01*
X1808Y1162D01*
X1808Y1160D01*
X1806Y1160D01*
X1806Y1158D01*
X1804Y1158D01*
X1804Y1156D01*
X1802Y1156D01*
X1802Y1154D01*
X1800Y1154D01*
X1800Y1152D01*
X1798Y1152D01*
X1798Y1150D01*
X1796Y1150D01*
X1796Y1148D01*
X1794Y1148D01*
X1794Y1146D01*
X1792Y1146D01*
X1792Y1144D01*
X1790Y1144D01*
X1790Y1142D01*
X1788Y1142D01*
X1788Y1140D01*
X1786Y1140D01*
X1786Y1138D01*
X1784Y1138D01*
X1784Y1136D01*
X1782Y1136D01*
X1782Y1134D01*
X1780Y1134D01*
X1780Y1132D01*
X1778Y1132D01*
X1778Y1130D01*
X1776Y1130D01*
X1776Y1128D01*
X1774Y1128D01*
X1774Y1126D01*
X1772Y1126D01*
X1772Y1124D01*
X1770Y1124D01*
X1770Y1122D01*
X1768Y1122D01*
X1768Y1120D01*
X1766Y1120D01*
X1766Y1118D01*
X1764Y1118D01*
X1764Y1116D01*
X1762Y1116D01*
X1762Y1114D01*
X1760Y1114D01*
X1760Y1112D01*
X1758Y1112D01*
X1758Y1110D01*
X1756Y1110D01*
X1756Y1108D01*
X1754Y1108D01*
X1754Y1106D01*
X1752Y1106D01*
X1752Y1104D01*
X1750Y1104D01*
X1750Y1102D01*
X1748Y1102D01*
X1748Y1100D01*
X1746Y1100D01*
X1746Y1098D01*
X1744Y1098D01*
X1744Y1096D01*
X1742Y1096D01*
X1742Y1094D01*
X1740Y1094D01*
X1740Y1092D01*
X1738Y1092D01*
X1738Y1090D01*
X1736Y1090D01*
X1736Y1088D01*
X1734Y1088D01*
X1734Y1086D01*
X1732Y1086D01*
X1732Y1084D01*
X1730Y1084D01*
X1730Y1082D01*
X1728Y1082D01*
X1728Y1080D01*
X1726Y1080D01*
X1726Y1078D01*
X1724Y1078D01*
X1724Y1076D01*
X1722Y1076D01*
X1722Y1074D01*
X1720Y1074D01*
X1720Y1072D01*
X1718Y1072D01*
X1718Y1070D01*
X1716Y1070D01*
X1716Y1068D01*
X1714Y1068D01*
X1714Y1066D01*
X1712Y1066D01*
X1712Y1064D01*
X1710Y1064D01*
X1710Y1062D01*
X1708Y1062D01*
X1708Y1060D01*
X1706Y1060D01*
X1706Y1058D01*
X1704Y1058D01*
X1704Y1056D01*
X1702Y1056D01*
X1702Y1054D01*
X1700Y1054D01*
X1700Y1052D01*
X1698Y1052D01*
X1698Y1050D01*
X1696Y1050D01*
X1696Y1048D01*
X1694Y1048D01*
X1694Y1046D01*
X1692Y1046D01*
X1692Y1044D01*
X1690Y1044D01*
X1690Y1042D01*
X1688Y1042D01*
X1688Y1040D01*
X1686Y1040D01*
X1686Y1038D01*
X1684Y1038D01*
X1684Y1036D01*
X1682Y1036D01*
X1682Y1034D01*
X1680Y1034D01*
X1680Y1032D01*
X1678Y1032D01*
X1678Y1030D01*
X1676Y1030D01*
X1676Y1028D01*
X1674Y1028D01*
X1674Y1026D01*
X1672Y1026D01*
X1672Y1012D01*
X1766Y1012D01*
X1766Y1010D01*
X1772Y1010D01*
X1772Y1008D01*
X1776Y1008D01*
X1776Y1006D01*
X1780Y1006D01*
X1780Y1004D01*
X1782Y1004D01*
X1782Y1002D01*
X1784Y1002D01*
X1784Y1000D01*
X1788Y1000D01*
X1788Y998D01*
X1790Y998D01*
X1790Y996D01*
X1792Y996D01*
X1792Y992D01*
X1794Y992D01*
X1794Y990D01*
X1796Y990D01*
X1796Y986D01*
X1798Y986D01*
X1798Y984D01*
X1800Y984D01*
X1800Y978D01*
X1802Y978D01*
X1802Y972D01*
X1804Y972D01*
X1804Y960D01*
X1802Y960D01*
X1802Y952D01*
X1800Y952D01*
X1800Y948D01*
X1798Y948D01*
X1798Y944D01*
X1796Y944D01*
X1796Y940D01*
X1794Y940D01*
X1794Y938D01*
X1792Y938D01*
X1792Y936D01*
X1790Y936D01*
X1790Y934D01*
X1788Y934D01*
X1788Y932D01*
X1786Y932D01*
X1786Y930D01*
X1784Y930D01*
X1784Y928D01*
X1782Y928D01*
X1782Y926D01*
X1778Y926D01*
X1778Y924D01*
X1774Y924D01*
X1774Y922D01*
X1770Y922D01*
X1770Y920D01*
X1762Y920D01*
X1762Y918D01*
X1912Y918D01*
X1912Y1146D01*
X1914Y1146D01*
X1914Y1254D01*
X1912Y1254D01*
X1912Y1256D01*
X1910Y1256D01*
X1910Y1258D01*
X1908Y1258D01*
X1908Y1260D01*
X1906Y1260D01*
X1906Y1262D01*
X1904Y1262D01*
X1904Y1264D01*
X1902Y1264D01*
X1902Y1266D01*
X1898Y1266D01*
X1898Y1268D01*
X1896Y1268D01*
X1896Y1270D01*
X1894Y1270D01*
X1894Y1272D01*
X1892Y1272D01*
X1892Y1274D01*
X1890Y1274D01*
X1890Y1276D01*
X1888Y1276D01*
X1888Y1278D01*
X1886Y1278D01*
X1886Y1280D01*
X1884Y1280D01*
X1884Y1282D01*
X1882Y1282D01*
X1882Y1284D01*
X1880Y1284D01*
X1880Y1286D01*
X1876Y1286D01*
X1876Y1288D01*
X1874Y1288D01*
X1874Y1290D01*
X1872Y1290D01*
X1872Y1292D01*
X1870Y1292D01*
X1870Y1294D01*
X1868Y1294D01*
X1868Y1296D01*
X1866Y1296D01*
X1866Y1298D01*
X1864Y1298D01*
X1864Y1300D01*
X1862Y1300D01*
X1862Y1302D01*
X1838Y1302D01*
G37*
D02*
G36*
X1742Y1262D02*
X1742Y1260D01*
X1746Y1260D01*
X1746Y1258D01*
X1750Y1258D01*
X1750Y1256D01*
X1754Y1256D01*
X1754Y1254D01*
X1756Y1254D01*
X1756Y1252D01*
X1760Y1252D01*
X1760Y1250D01*
X1762Y1250D01*
X1762Y1248D01*
X1764Y1248D01*
X1764Y1246D01*
X1766Y1246D01*
X1766Y1244D01*
X1768Y1244D01*
X1768Y1240D01*
X1790Y1240D01*
X1790Y1242D01*
X1792Y1242D01*
X1792Y1244D01*
X1794Y1244D01*
X1794Y1246D01*
X1796Y1246D01*
X1796Y1248D01*
X1798Y1248D01*
X1798Y1250D01*
X1800Y1250D01*
X1800Y1252D01*
X1802Y1252D01*
X1802Y1254D01*
X1806Y1254D01*
X1806Y1256D01*
X1808Y1256D01*
X1808Y1258D01*
X1812Y1258D01*
X1812Y1260D01*
X1818Y1260D01*
X1818Y1262D01*
X1742Y1262D01*
G37*
D02*
G36*
X1470Y1232D02*
X1470Y1230D01*
X1468Y1230D01*
X1468Y1228D01*
X1466Y1228D01*
X1466Y1226D01*
X1464Y1226D01*
X1464Y1224D01*
X1462Y1224D01*
X1462Y1222D01*
X1460Y1222D01*
X1460Y1220D01*
X1458Y1220D01*
X1458Y1218D01*
X1456Y1218D01*
X1456Y1216D01*
X1454Y1216D01*
X1454Y1214D01*
X1452Y1214D01*
X1452Y1212D01*
X1450Y1212D01*
X1450Y1210D01*
X1448Y1210D01*
X1448Y1208D01*
X1446Y1208D01*
X1446Y1206D01*
X1444Y1206D01*
X1444Y1204D01*
X1442Y1204D01*
X1442Y1202D01*
X1440Y1202D01*
X1440Y1200D01*
X1438Y1200D01*
X1438Y1198D01*
X1436Y1198D01*
X1436Y1196D01*
X1434Y1196D01*
X1434Y1194D01*
X1432Y1194D01*
X1432Y1192D01*
X1430Y1192D01*
X1430Y1190D01*
X1428Y1190D01*
X1428Y1188D01*
X1426Y1188D01*
X1426Y1186D01*
X1424Y1186D01*
X1424Y1184D01*
X1422Y1184D01*
X1422Y1182D01*
X1420Y1182D01*
X1420Y1180D01*
X1418Y1180D01*
X1418Y1178D01*
X1416Y1178D01*
X1416Y1176D01*
X1414Y1176D01*
X1414Y1174D01*
X1412Y1174D01*
X1412Y1172D01*
X1410Y1172D01*
X1410Y1170D01*
X1408Y1170D01*
X1408Y1168D01*
X1406Y1168D01*
X1406Y1166D01*
X1404Y1166D01*
X1404Y1164D01*
X1402Y1164D01*
X1402Y1162D01*
X1400Y1162D01*
X1400Y1160D01*
X1398Y1160D01*
X1398Y1158D01*
X1396Y1158D01*
X1396Y1156D01*
X1394Y1156D01*
X1394Y1154D01*
X1392Y1154D01*
X1392Y1152D01*
X1390Y1152D01*
X1390Y1150D01*
X1388Y1150D01*
X1388Y1148D01*
X1386Y1148D01*
X1386Y1146D01*
X1384Y1146D01*
X1384Y1144D01*
X1382Y1144D01*
X1382Y1142D01*
X1380Y1142D01*
X1380Y1140D01*
X1378Y1140D01*
X1378Y1138D01*
X1376Y1138D01*
X1376Y1136D01*
X1374Y1136D01*
X1374Y1134D01*
X1372Y1134D01*
X1372Y1132D01*
X1370Y1132D01*
X1370Y1130D01*
X1368Y1130D01*
X1368Y1128D01*
X1366Y1128D01*
X1366Y1126D01*
X1364Y1126D01*
X1364Y1124D01*
X1362Y1124D01*
X1362Y1122D01*
X1360Y1122D01*
X1360Y1120D01*
X1358Y1120D01*
X1358Y1118D01*
X1356Y1118D01*
X1356Y1116D01*
X1354Y1116D01*
X1354Y1114D01*
X1352Y1114D01*
X1352Y1112D01*
X1350Y1112D01*
X1350Y1110D01*
X1348Y1110D01*
X1348Y1108D01*
X1346Y1108D01*
X1346Y1106D01*
X1344Y1106D01*
X1344Y1104D01*
X1342Y1104D01*
X1342Y1102D01*
X1340Y1102D01*
X1340Y1100D01*
X1338Y1100D01*
X1338Y1098D01*
X1336Y1098D01*
X1336Y1096D01*
X1334Y1096D01*
X1334Y1094D01*
X1332Y1094D01*
X1332Y1092D01*
X1330Y1092D01*
X1330Y1090D01*
X1326Y1090D01*
X1326Y1088D01*
X1086Y1088D01*
X1086Y1086D01*
X1084Y1086D01*
X1084Y1084D01*
X1082Y1084D01*
X1082Y1082D01*
X1080Y1082D01*
X1080Y1080D01*
X1078Y1080D01*
X1078Y1078D01*
X1076Y1078D01*
X1076Y1076D01*
X1074Y1076D01*
X1074Y1074D01*
X1484Y1074D01*
X1484Y1156D01*
X1486Y1156D01*
X1486Y1158D01*
X1510Y1158D01*
X1510Y1178D01*
X1506Y1178D01*
X1506Y1180D01*
X1504Y1180D01*
X1504Y1182D01*
X1500Y1182D01*
X1500Y1184D01*
X1498Y1184D01*
X1498Y1186D01*
X1496Y1186D01*
X1496Y1188D01*
X1494Y1188D01*
X1494Y1192D01*
X1492Y1192D01*
X1492Y1194D01*
X1490Y1194D01*
X1490Y1198D01*
X1488Y1198D01*
X1488Y1202D01*
X1486Y1202D01*
X1486Y1210D01*
X1484Y1210D01*
X1484Y1218D01*
X1486Y1218D01*
X1486Y1226D01*
X1488Y1226D01*
X1488Y1230D01*
X1490Y1230D01*
X1490Y1232D01*
X1470Y1232D01*
G37*
D02*
G36*
X1568Y1218D02*
X1568Y1214D01*
X1592Y1214D01*
X1592Y1216D01*
X1588Y1216D01*
X1588Y1218D01*
X1568Y1218D01*
G37*
D02*
G36*
X1658Y1218D02*
X1658Y1216D01*
X1654Y1216D01*
X1654Y1214D01*
X1680Y1214D01*
X1680Y1218D01*
X1658Y1218D01*
G37*
D02*
G36*
X1568Y1214D02*
X1568Y1212D01*
X1680Y1212D01*
X1680Y1214D01*
X1568Y1214D01*
G37*
D02*
G36*
X1568Y1214D02*
X1568Y1212D01*
X1680Y1212D01*
X1680Y1214D01*
X1568Y1214D01*
G37*
D02*
G36*
X1568Y1212D02*
X1568Y1208D01*
X1566Y1208D01*
X1566Y1202D01*
X1564Y1202D01*
X1564Y1198D01*
X1562Y1198D01*
X1562Y1194D01*
X1560Y1194D01*
X1560Y1190D01*
X1558Y1190D01*
X1558Y1188D01*
X1556Y1188D01*
X1556Y1186D01*
X1554Y1186D01*
X1554Y1184D01*
X1552Y1184D01*
X1552Y1182D01*
X1550Y1182D01*
X1550Y1180D01*
X1546Y1180D01*
X1546Y1178D01*
X1542Y1178D01*
X1542Y1158D01*
X1566Y1158D01*
X1566Y1156D01*
X1568Y1156D01*
X1568Y1074D01*
X1658Y1074D01*
X1658Y1076D01*
X1660Y1076D01*
X1660Y1078D01*
X1662Y1078D01*
X1662Y1080D01*
X1664Y1080D01*
X1664Y1082D01*
X1666Y1082D01*
X1666Y1084D01*
X1668Y1084D01*
X1668Y1086D01*
X1670Y1086D01*
X1670Y1088D01*
X1672Y1088D01*
X1672Y1090D01*
X1674Y1090D01*
X1674Y1092D01*
X1678Y1092D01*
X1678Y1094D01*
X1680Y1094D01*
X1680Y1096D01*
X1682Y1096D01*
X1682Y1098D01*
X1684Y1098D01*
X1684Y1100D01*
X1686Y1100D01*
X1686Y1102D01*
X1688Y1102D01*
X1688Y1104D01*
X1690Y1104D01*
X1690Y1106D01*
X1692Y1106D01*
X1692Y1108D01*
X1694Y1108D01*
X1694Y1110D01*
X1696Y1110D01*
X1696Y1112D01*
X1698Y1112D01*
X1698Y1114D01*
X1700Y1114D01*
X1700Y1116D01*
X1702Y1116D01*
X1702Y1118D01*
X1704Y1118D01*
X1704Y1120D01*
X1706Y1120D01*
X1706Y1122D01*
X1708Y1122D01*
X1708Y1124D01*
X1710Y1124D01*
X1710Y1126D01*
X1712Y1126D01*
X1712Y1128D01*
X1714Y1128D01*
X1714Y1130D01*
X1716Y1130D01*
X1716Y1132D01*
X1718Y1132D01*
X1718Y1134D01*
X1720Y1134D01*
X1720Y1136D01*
X1722Y1136D01*
X1722Y1138D01*
X1724Y1138D01*
X1724Y1140D01*
X1726Y1140D01*
X1726Y1142D01*
X1728Y1142D01*
X1728Y1144D01*
X1730Y1144D01*
X1730Y1146D01*
X1732Y1146D01*
X1732Y1166D01*
X1718Y1166D01*
X1718Y1168D01*
X1712Y1168D01*
X1712Y1170D01*
X1708Y1170D01*
X1708Y1172D01*
X1706Y1172D01*
X1706Y1174D01*
X1702Y1174D01*
X1702Y1176D01*
X1700Y1176D01*
X1700Y1178D01*
X1698Y1178D01*
X1698Y1180D01*
X1696Y1180D01*
X1696Y1182D01*
X1694Y1182D01*
X1694Y1184D01*
X1692Y1184D01*
X1692Y1186D01*
X1690Y1186D01*
X1690Y1188D01*
X1688Y1188D01*
X1688Y1192D01*
X1686Y1192D01*
X1686Y1196D01*
X1684Y1196D01*
X1684Y1202D01*
X1682Y1202D01*
X1682Y1208D01*
X1680Y1208D01*
X1680Y1212D01*
X1568Y1212D01*
G37*
D02*
G36*
X1072Y1074D02*
X1072Y1072D01*
X1656Y1072D01*
X1656Y1074D01*
X1072Y1074D01*
G37*
D02*
G36*
X1072Y1074D02*
X1072Y1072D01*
X1656Y1072D01*
X1656Y1074D01*
X1072Y1074D01*
G37*
D02*
G36*
X1070Y1072D02*
X1070Y1070D01*
X1068Y1070D01*
X1068Y1068D01*
X1066Y1068D01*
X1066Y1066D01*
X1064Y1066D01*
X1064Y1064D01*
X1062Y1064D01*
X1062Y1062D01*
X1060Y1062D01*
X1060Y1060D01*
X1058Y1060D01*
X1058Y1058D01*
X1056Y1058D01*
X1056Y1056D01*
X1054Y1056D01*
X1054Y1054D01*
X1052Y1054D01*
X1052Y1052D01*
X1050Y1052D01*
X1050Y1050D01*
X1048Y1050D01*
X1048Y1048D01*
X1046Y1048D01*
X1046Y1046D01*
X1044Y1046D01*
X1044Y1044D01*
X1042Y1044D01*
X1042Y1042D01*
X1040Y1042D01*
X1040Y1040D01*
X1038Y1040D01*
X1038Y1038D01*
X1036Y1038D01*
X1036Y1036D01*
X1034Y1036D01*
X1034Y1034D01*
X1032Y1034D01*
X1032Y1032D01*
X1030Y1032D01*
X1030Y1030D01*
X1028Y1030D01*
X1028Y1028D01*
X1026Y1028D01*
X1026Y1026D01*
X1024Y1026D01*
X1024Y1024D01*
X1022Y1024D01*
X1022Y1022D01*
X1020Y1022D01*
X1020Y1020D01*
X1018Y1020D01*
X1018Y1018D01*
X1016Y1018D01*
X1016Y1016D01*
X1014Y1016D01*
X1014Y1014D01*
X1012Y1014D01*
X1012Y1012D01*
X1552Y1012D01*
X1552Y1010D01*
X1558Y1010D01*
X1558Y1008D01*
X1562Y1008D01*
X1562Y1006D01*
X1566Y1006D01*
X1566Y1004D01*
X1568Y1004D01*
X1568Y1002D01*
X1570Y1002D01*
X1570Y1000D01*
X1574Y1000D01*
X1574Y998D01*
X1576Y998D01*
X1576Y996D01*
X1578Y996D01*
X1578Y992D01*
X1580Y992D01*
X1580Y990D01*
X1582Y990D01*
X1582Y986D01*
X1584Y986D01*
X1584Y984D01*
X1586Y984D01*
X1586Y978D01*
X1606Y978D01*
X1606Y984D01*
X1608Y984D01*
X1608Y986D01*
X1610Y986D01*
X1610Y990D01*
X1612Y990D01*
X1612Y992D01*
X1614Y992D01*
X1614Y994D01*
X1616Y994D01*
X1616Y998D01*
X1618Y998D01*
X1618Y1000D01*
X1622Y1000D01*
X1622Y1002D01*
X1624Y1002D01*
X1624Y1004D01*
X1626Y1004D01*
X1626Y1006D01*
X1628Y1006D01*
X1628Y1042D01*
X1630Y1042D01*
X1630Y1046D01*
X1632Y1046D01*
X1632Y1048D01*
X1634Y1048D01*
X1634Y1052D01*
X1636Y1052D01*
X1636Y1054D01*
X1638Y1054D01*
X1638Y1056D01*
X1640Y1056D01*
X1640Y1058D01*
X1642Y1058D01*
X1642Y1060D01*
X1644Y1060D01*
X1644Y1062D01*
X1646Y1062D01*
X1646Y1064D01*
X1648Y1064D01*
X1648Y1066D01*
X1650Y1066D01*
X1650Y1068D01*
X1652Y1068D01*
X1652Y1070D01*
X1654Y1070D01*
X1654Y1072D01*
X1070Y1072D01*
G37*
D02*
G36*
X1010Y1012D02*
X1010Y1010D01*
X1008Y1010D01*
X1008Y1008D01*
X1006Y1008D01*
X1006Y1006D01*
X1004Y1006D01*
X1004Y1004D01*
X1002Y1004D01*
X1002Y986D01*
X1222Y986D01*
X1222Y984D01*
X1228Y984D01*
X1228Y982D01*
X1232Y982D01*
X1232Y980D01*
X1234Y980D01*
X1234Y978D01*
X1238Y978D01*
X1238Y976D01*
X1240Y976D01*
X1240Y974D01*
X1242Y974D01*
X1242Y972D01*
X1246Y972D01*
X1246Y968D01*
X1248Y968D01*
X1248Y966D01*
X1250Y966D01*
X1250Y964D01*
X1252Y964D01*
X1252Y962D01*
X1254Y962D01*
X1254Y958D01*
X1256Y958D01*
X1256Y954D01*
X1258Y954D01*
X1258Y948D01*
X1260Y948D01*
X1260Y930D01*
X1258Y930D01*
X1258Y924D01*
X1256Y924D01*
X1256Y920D01*
X1254Y920D01*
X1254Y916D01*
X1252Y916D01*
X1252Y912D01*
X1250Y912D01*
X1250Y910D01*
X1248Y910D01*
X1248Y908D01*
X1246Y908D01*
X1246Y906D01*
X1244Y906D01*
X1244Y904D01*
X1242Y904D01*
X1242Y902D01*
X1240Y902D01*
X1240Y900D01*
X1236Y900D01*
X1236Y898D01*
X1234Y898D01*
X1234Y896D01*
X1230Y896D01*
X1230Y894D01*
X1224Y894D01*
X1224Y892D01*
X1590Y892D01*
X1590Y894D01*
X1588Y894D01*
X1588Y896D01*
X1586Y896D01*
X1586Y898D01*
X1584Y898D01*
X1584Y900D01*
X1582Y900D01*
X1582Y902D01*
X1580Y902D01*
X1580Y904D01*
X1578Y904D01*
X1578Y906D01*
X1576Y906D01*
X1576Y908D01*
X1574Y908D01*
X1574Y910D01*
X1572Y910D01*
X1572Y912D01*
X1570Y912D01*
X1570Y914D01*
X1568Y914D01*
X1568Y916D01*
X1566Y916D01*
X1566Y918D01*
X1536Y918D01*
X1536Y920D01*
X1530Y920D01*
X1530Y922D01*
X1524Y922D01*
X1524Y924D01*
X1522Y924D01*
X1522Y926D01*
X1518Y926D01*
X1518Y928D01*
X1516Y928D01*
X1516Y930D01*
X1512Y930D01*
X1512Y932D01*
X1510Y932D01*
X1510Y934D01*
X1508Y934D01*
X1508Y938D01*
X1506Y938D01*
X1506Y940D01*
X1504Y940D01*
X1504Y942D01*
X1502Y942D01*
X1502Y946D01*
X1500Y946D01*
X1500Y950D01*
X1498Y950D01*
X1498Y956D01*
X1496Y956D01*
X1496Y976D01*
X1498Y976D01*
X1498Y980D01*
X1500Y980D01*
X1500Y984D01*
X1502Y984D01*
X1502Y988D01*
X1504Y988D01*
X1504Y992D01*
X1506Y992D01*
X1506Y994D01*
X1508Y994D01*
X1508Y996D01*
X1510Y996D01*
X1510Y998D01*
X1512Y998D01*
X1512Y1000D01*
X1514Y1000D01*
X1514Y1002D01*
X1516Y1002D01*
X1516Y1004D01*
X1520Y1004D01*
X1520Y1006D01*
X1524Y1006D01*
X1524Y1008D01*
X1528Y1008D01*
X1528Y1010D01*
X1532Y1010D01*
X1532Y1012D01*
X1010Y1012D01*
G37*
D02*
G36*
X1672Y1012D02*
X1672Y1004D01*
X1676Y1004D01*
X1676Y1002D01*
X1678Y1002D01*
X1678Y1000D01*
X1680Y1000D01*
X1680Y998D01*
X1682Y998D01*
X1682Y996D01*
X1684Y996D01*
X1684Y994D01*
X1686Y994D01*
X1686Y992D01*
X1688Y992D01*
X1688Y988D01*
X1690Y988D01*
X1690Y986D01*
X1692Y986D01*
X1692Y982D01*
X1694Y982D01*
X1694Y980D01*
X1714Y980D01*
X1714Y984D01*
X1716Y984D01*
X1716Y988D01*
X1718Y988D01*
X1718Y992D01*
X1720Y992D01*
X1720Y994D01*
X1722Y994D01*
X1722Y996D01*
X1724Y996D01*
X1724Y998D01*
X1726Y998D01*
X1726Y1000D01*
X1728Y1000D01*
X1728Y1002D01*
X1730Y1002D01*
X1730Y1004D01*
X1734Y1004D01*
X1734Y1006D01*
X1738Y1006D01*
X1738Y1008D01*
X1742Y1008D01*
X1742Y1010D01*
X1746Y1010D01*
X1746Y1012D01*
X1672Y1012D01*
G37*
D02*
G36*
X1022Y986D02*
X1022Y984D01*
X1028Y984D01*
X1028Y982D01*
X1032Y982D01*
X1032Y980D01*
X1034Y980D01*
X1034Y978D01*
X1038Y978D01*
X1038Y976D01*
X1040Y976D01*
X1040Y974D01*
X1042Y974D01*
X1042Y972D01*
X1046Y972D01*
X1046Y968D01*
X1048Y968D01*
X1048Y966D01*
X1050Y966D01*
X1050Y964D01*
X1052Y964D01*
X1052Y960D01*
X1072Y960D01*
X1072Y962D01*
X1074Y962D01*
X1074Y966D01*
X1076Y966D01*
X1076Y968D01*
X1078Y968D01*
X1078Y970D01*
X1080Y970D01*
X1080Y972D01*
X1082Y972D01*
X1082Y974D01*
X1084Y974D01*
X1084Y976D01*
X1088Y976D01*
X1088Y978D01*
X1090Y978D01*
X1090Y980D01*
X1094Y980D01*
X1094Y982D01*
X1098Y982D01*
X1098Y984D01*
X1104Y984D01*
X1104Y986D01*
X1022Y986D01*
G37*
D02*
G36*
X1122Y986D02*
X1122Y984D01*
X1128Y984D01*
X1128Y982D01*
X1132Y982D01*
X1132Y980D01*
X1134Y980D01*
X1134Y978D01*
X1138Y978D01*
X1138Y976D01*
X1140Y976D01*
X1140Y974D01*
X1142Y974D01*
X1142Y972D01*
X1146Y972D01*
X1146Y968D01*
X1148Y968D01*
X1148Y966D01*
X1150Y966D01*
X1150Y964D01*
X1152Y964D01*
X1152Y960D01*
X1172Y960D01*
X1172Y962D01*
X1174Y962D01*
X1174Y966D01*
X1176Y966D01*
X1176Y968D01*
X1178Y968D01*
X1178Y970D01*
X1180Y970D01*
X1180Y972D01*
X1182Y972D01*
X1182Y974D01*
X1184Y974D01*
X1184Y976D01*
X1188Y976D01*
X1188Y978D01*
X1190Y978D01*
X1190Y980D01*
X1194Y980D01*
X1194Y982D01*
X1198Y982D01*
X1198Y984D01*
X1204Y984D01*
X1204Y986D01*
X1122Y986D01*
G37*
D02*
G36*
X1692Y950D02*
X1692Y946D01*
X1690Y946D01*
X1690Y942D01*
X1688Y942D01*
X1688Y940D01*
X1686Y940D01*
X1686Y936D01*
X1684Y936D01*
X1684Y934D01*
X1682Y934D01*
X1682Y932D01*
X1680Y932D01*
X1680Y930D01*
X1678Y930D01*
X1678Y928D01*
X1674Y928D01*
X1674Y926D01*
X1672Y926D01*
X1672Y924D01*
X1668Y924D01*
X1668Y922D01*
X1662Y922D01*
X1662Y920D01*
X1656Y920D01*
X1656Y918D01*
X1750Y918D01*
X1750Y920D01*
X1744Y920D01*
X1744Y922D01*
X1738Y922D01*
X1738Y924D01*
X1736Y924D01*
X1736Y926D01*
X1732Y926D01*
X1732Y928D01*
X1730Y928D01*
X1730Y930D01*
X1726Y930D01*
X1726Y932D01*
X1724Y932D01*
X1724Y934D01*
X1722Y934D01*
X1722Y938D01*
X1720Y938D01*
X1720Y940D01*
X1718Y940D01*
X1718Y942D01*
X1716Y942D01*
X1716Y946D01*
X1714Y946D01*
X1714Y950D01*
X1692Y950D01*
G37*
D02*
G36*
X1626Y918D02*
X1626Y916D01*
X1912Y916D01*
X1912Y918D01*
X1626Y918D01*
G37*
D02*
G36*
X1626Y918D02*
X1626Y916D01*
X1912Y916D01*
X1912Y918D01*
X1626Y918D01*
G37*
D02*
G36*
X952Y916D02*
X952Y912D01*
X950Y912D01*
X950Y910D01*
X948Y910D01*
X948Y908D01*
X946Y908D01*
X946Y906D01*
X944Y906D01*
X944Y904D01*
X942Y904D01*
X942Y902D01*
X940Y902D01*
X940Y900D01*
X936Y900D01*
X936Y898D01*
X934Y898D01*
X934Y896D01*
X930Y896D01*
X930Y894D01*
X924Y894D01*
X924Y892D01*
X1002Y892D01*
X1002Y894D01*
X996Y894D01*
X996Y896D01*
X992Y896D01*
X992Y898D01*
X988Y898D01*
X988Y900D01*
X986Y900D01*
X986Y902D01*
X984Y902D01*
X984Y904D01*
X982Y904D01*
X982Y906D01*
X980Y906D01*
X980Y908D01*
X978Y908D01*
X978Y910D01*
X976Y910D01*
X976Y912D01*
X974Y912D01*
X974Y914D01*
X972Y914D01*
X972Y916D01*
X952Y916D01*
G37*
D02*
G36*
X1052Y916D02*
X1052Y912D01*
X1050Y912D01*
X1050Y910D01*
X1048Y910D01*
X1048Y908D01*
X1046Y908D01*
X1046Y906D01*
X1044Y906D01*
X1044Y904D01*
X1042Y904D01*
X1042Y902D01*
X1040Y902D01*
X1040Y900D01*
X1036Y900D01*
X1036Y898D01*
X1034Y898D01*
X1034Y896D01*
X1030Y896D01*
X1030Y894D01*
X1024Y894D01*
X1024Y892D01*
X1102Y892D01*
X1102Y894D01*
X1096Y894D01*
X1096Y896D01*
X1092Y896D01*
X1092Y898D01*
X1088Y898D01*
X1088Y900D01*
X1086Y900D01*
X1086Y902D01*
X1084Y902D01*
X1084Y904D01*
X1082Y904D01*
X1082Y906D01*
X1080Y906D01*
X1080Y908D01*
X1078Y908D01*
X1078Y910D01*
X1076Y910D01*
X1076Y912D01*
X1074Y912D01*
X1074Y914D01*
X1072Y914D01*
X1072Y916D01*
X1052Y916D01*
G37*
D02*
G36*
X1152Y916D02*
X1152Y912D01*
X1150Y912D01*
X1150Y910D01*
X1148Y910D01*
X1148Y908D01*
X1146Y908D01*
X1146Y906D01*
X1144Y906D01*
X1144Y904D01*
X1142Y904D01*
X1142Y902D01*
X1140Y902D01*
X1140Y900D01*
X1136Y900D01*
X1136Y898D01*
X1134Y898D01*
X1134Y896D01*
X1130Y896D01*
X1130Y894D01*
X1124Y894D01*
X1124Y892D01*
X1202Y892D01*
X1202Y894D01*
X1196Y894D01*
X1196Y896D01*
X1192Y896D01*
X1192Y898D01*
X1188Y898D01*
X1188Y900D01*
X1186Y900D01*
X1186Y902D01*
X1184Y902D01*
X1184Y904D01*
X1182Y904D01*
X1182Y906D01*
X1180Y906D01*
X1180Y908D01*
X1178Y908D01*
X1178Y910D01*
X1176Y910D01*
X1176Y912D01*
X1174Y912D01*
X1174Y914D01*
X1172Y914D01*
X1172Y916D01*
X1152Y916D01*
G37*
D02*
G36*
X1626Y916D02*
X1626Y906D01*
X1628Y906D01*
X1628Y904D01*
X1630Y904D01*
X1630Y902D01*
X1632Y902D01*
X1632Y900D01*
X1634Y900D01*
X1634Y898D01*
X1636Y898D01*
X1636Y896D01*
X1638Y896D01*
X1638Y894D01*
X1640Y894D01*
X1640Y892D01*
X1642Y892D01*
X1642Y890D01*
X1644Y890D01*
X1644Y888D01*
X1646Y888D01*
X1646Y886D01*
X1648Y886D01*
X1648Y884D01*
X1650Y884D01*
X1650Y882D01*
X1652Y882D01*
X1652Y880D01*
X1654Y880D01*
X1654Y878D01*
X1656Y878D01*
X1656Y876D01*
X1658Y876D01*
X1658Y874D01*
X1660Y874D01*
X1660Y872D01*
X1662Y872D01*
X1662Y870D01*
X1664Y870D01*
X1664Y868D01*
X1666Y868D01*
X1666Y866D01*
X1668Y866D01*
X1668Y864D01*
X1670Y864D01*
X1670Y862D01*
X1672Y862D01*
X1672Y860D01*
X1674Y860D01*
X1674Y858D01*
X1676Y858D01*
X1676Y856D01*
X1678Y856D01*
X1678Y854D01*
X1680Y854D01*
X1680Y852D01*
X1682Y852D01*
X1682Y850D01*
X1684Y850D01*
X1684Y848D01*
X1686Y848D01*
X1686Y846D01*
X1688Y846D01*
X1688Y844D01*
X1690Y844D01*
X1690Y842D01*
X1692Y842D01*
X1692Y840D01*
X1694Y840D01*
X1694Y838D01*
X1696Y838D01*
X1696Y836D01*
X1698Y836D01*
X1698Y834D01*
X1700Y834D01*
X1700Y832D01*
X1702Y832D01*
X1702Y830D01*
X1704Y830D01*
X1704Y828D01*
X1706Y828D01*
X1706Y826D01*
X1708Y826D01*
X1708Y824D01*
X1710Y824D01*
X1710Y822D01*
X1712Y822D01*
X1712Y820D01*
X1714Y820D01*
X1714Y818D01*
X1716Y818D01*
X1716Y816D01*
X1718Y816D01*
X1718Y814D01*
X1720Y814D01*
X1720Y812D01*
X1722Y812D01*
X1722Y810D01*
X1724Y810D01*
X1724Y808D01*
X1726Y808D01*
X1726Y806D01*
X1728Y806D01*
X1728Y804D01*
X1730Y804D01*
X1730Y802D01*
X1732Y802D01*
X1732Y800D01*
X1734Y800D01*
X1734Y798D01*
X1736Y798D01*
X1736Y796D01*
X1738Y796D01*
X1738Y794D01*
X1740Y794D01*
X1740Y792D01*
X1742Y792D01*
X1742Y790D01*
X1744Y790D01*
X1744Y788D01*
X1746Y788D01*
X1746Y786D01*
X1748Y786D01*
X1748Y784D01*
X1750Y784D01*
X1750Y782D01*
X1752Y782D01*
X1752Y780D01*
X1754Y780D01*
X1754Y778D01*
X1756Y778D01*
X1756Y776D01*
X1758Y776D01*
X1758Y774D01*
X1760Y774D01*
X1760Y770D01*
X1762Y770D01*
X1762Y756D01*
X1764Y756D01*
X1764Y730D01*
X1788Y730D01*
X1788Y728D01*
X1790Y728D01*
X1790Y648D01*
X1788Y648D01*
X1788Y646D01*
X1912Y646D01*
X1912Y916D01*
X1626Y916D01*
G37*
D02*
G36*
X908Y892D02*
X908Y890D01*
X1592Y890D01*
X1592Y892D01*
X908Y892D01*
G37*
D02*
G36*
X908Y892D02*
X908Y890D01*
X1592Y890D01*
X1592Y892D01*
X908Y892D01*
G37*
D02*
G36*
X908Y892D02*
X908Y890D01*
X1592Y890D01*
X1592Y892D01*
X908Y892D01*
G37*
D02*
G36*
X908Y892D02*
X908Y890D01*
X1592Y890D01*
X1592Y892D01*
X908Y892D01*
G37*
D02*
G36*
X908Y890D02*
X908Y872D01*
X910Y872D01*
X910Y870D01*
X912Y870D01*
X912Y868D01*
X914Y868D01*
X914Y866D01*
X916Y866D01*
X916Y864D01*
X918Y864D01*
X918Y862D01*
X920Y862D01*
X920Y860D01*
X922Y860D01*
X922Y858D01*
X924Y858D01*
X924Y856D01*
X926Y856D01*
X926Y854D01*
X928Y854D01*
X928Y852D01*
X930Y852D01*
X930Y850D01*
X932Y850D01*
X932Y848D01*
X934Y848D01*
X934Y846D01*
X936Y846D01*
X936Y844D01*
X938Y844D01*
X938Y842D01*
X940Y842D01*
X940Y840D01*
X942Y840D01*
X942Y838D01*
X944Y838D01*
X944Y836D01*
X946Y836D01*
X946Y834D01*
X948Y834D01*
X948Y832D01*
X950Y832D01*
X950Y830D01*
X952Y830D01*
X952Y828D01*
X954Y828D01*
X954Y826D01*
X956Y826D01*
X956Y824D01*
X1378Y824D01*
X1378Y822D01*
X1382Y822D01*
X1382Y820D01*
X1384Y820D01*
X1384Y818D01*
X1386Y818D01*
X1386Y816D01*
X1388Y816D01*
X1388Y814D01*
X1390Y814D01*
X1390Y812D01*
X1392Y812D01*
X1392Y810D01*
X1394Y810D01*
X1394Y808D01*
X1396Y808D01*
X1396Y806D01*
X1398Y806D01*
X1398Y804D01*
X1400Y804D01*
X1400Y802D01*
X1402Y802D01*
X1402Y800D01*
X1404Y800D01*
X1404Y798D01*
X1406Y798D01*
X1406Y796D01*
X1408Y796D01*
X1408Y794D01*
X1410Y794D01*
X1410Y792D01*
X1412Y792D01*
X1412Y790D01*
X1414Y790D01*
X1414Y788D01*
X1416Y788D01*
X1416Y786D01*
X1418Y786D01*
X1418Y784D01*
X1420Y784D01*
X1420Y782D01*
X1422Y782D01*
X1422Y780D01*
X1424Y780D01*
X1424Y778D01*
X1426Y778D01*
X1426Y776D01*
X1428Y776D01*
X1428Y774D01*
X1430Y774D01*
X1430Y772D01*
X1432Y772D01*
X1432Y770D01*
X1434Y770D01*
X1434Y768D01*
X1436Y768D01*
X1436Y766D01*
X1438Y766D01*
X1438Y764D01*
X1440Y764D01*
X1440Y762D01*
X1442Y762D01*
X1442Y760D01*
X1444Y760D01*
X1444Y758D01*
X1446Y758D01*
X1446Y756D01*
X1448Y756D01*
X1448Y754D01*
X1450Y754D01*
X1450Y752D01*
X1452Y752D01*
X1452Y750D01*
X1454Y750D01*
X1454Y748D01*
X1456Y748D01*
X1456Y746D01*
X1458Y746D01*
X1458Y744D01*
X1460Y744D01*
X1460Y742D01*
X1462Y742D01*
X1462Y740D01*
X1464Y740D01*
X1464Y738D01*
X1466Y738D01*
X1466Y736D01*
X1468Y736D01*
X1468Y734D01*
X1470Y734D01*
X1470Y732D01*
X1472Y732D01*
X1472Y730D01*
X1652Y730D01*
X1652Y728D01*
X1660Y728D01*
X1660Y726D01*
X1666Y726D01*
X1666Y724D01*
X1668Y724D01*
X1668Y722D01*
X1672Y722D01*
X1672Y720D01*
X1674Y720D01*
X1674Y718D01*
X1676Y718D01*
X1676Y716D01*
X1678Y716D01*
X1678Y714D01*
X1680Y714D01*
X1680Y712D01*
X1682Y712D01*
X1682Y710D01*
X1684Y710D01*
X1684Y706D01*
X1686Y706D01*
X1686Y702D01*
X1706Y702D01*
X1706Y730D01*
X1728Y730D01*
X1728Y756D01*
X1726Y756D01*
X1726Y758D01*
X1724Y758D01*
X1724Y760D01*
X1722Y760D01*
X1722Y762D01*
X1720Y762D01*
X1720Y764D01*
X1718Y764D01*
X1718Y766D01*
X1716Y766D01*
X1716Y768D01*
X1714Y768D01*
X1714Y770D01*
X1712Y770D01*
X1712Y772D01*
X1710Y772D01*
X1710Y774D01*
X1708Y774D01*
X1708Y776D01*
X1706Y776D01*
X1706Y778D01*
X1704Y778D01*
X1704Y780D01*
X1702Y780D01*
X1702Y782D01*
X1700Y782D01*
X1700Y784D01*
X1698Y784D01*
X1698Y786D01*
X1696Y786D01*
X1696Y788D01*
X1694Y788D01*
X1694Y790D01*
X1692Y790D01*
X1692Y792D01*
X1690Y792D01*
X1690Y794D01*
X1688Y794D01*
X1688Y796D01*
X1686Y796D01*
X1686Y798D01*
X1684Y798D01*
X1684Y800D01*
X1682Y800D01*
X1682Y802D01*
X1680Y802D01*
X1680Y804D01*
X1678Y804D01*
X1678Y806D01*
X1676Y806D01*
X1676Y808D01*
X1674Y808D01*
X1674Y810D01*
X1672Y810D01*
X1672Y812D01*
X1670Y812D01*
X1670Y814D01*
X1668Y814D01*
X1668Y816D01*
X1666Y816D01*
X1666Y818D01*
X1664Y818D01*
X1664Y820D01*
X1662Y820D01*
X1662Y822D01*
X1660Y822D01*
X1660Y824D01*
X1658Y824D01*
X1658Y826D01*
X1656Y826D01*
X1656Y828D01*
X1654Y828D01*
X1654Y830D01*
X1652Y830D01*
X1652Y832D01*
X1650Y832D01*
X1650Y834D01*
X1648Y834D01*
X1648Y836D01*
X1646Y836D01*
X1646Y838D01*
X1644Y838D01*
X1644Y840D01*
X1642Y840D01*
X1642Y842D01*
X1640Y842D01*
X1640Y844D01*
X1638Y844D01*
X1638Y846D01*
X1636Y846D01*
X1636Y848D01*
X1634Y848D01*
X1634Y850D01*
X1632Y850D01*
X1632Y852D01*
X1630Y852D01*
X1630Y854D01*
X1628Y854D01*
X1628Y856D01*
X1626Y856D01*
X1626Y858D01*
X1624Y858D01*
X1624Y860D01*
X1622Y860D01*
X1622Y862D01*
X1620Y862D01*
X1620Y864D01*
X1618Y864D01*
X1618Y866D01*
X1616Y866D01*
X1616Y868D01*
X1614Y868D01*
X1614Y870D01*
X1612Y870D01*
X1612Y872D01*
X1610Y872D01*
X1610Y874D01*
X1608Y874D01*
X1608Y876D01*
X1606Y876D01*
X1606Y878D01*
X1604Y878D01*
X1604Y880D01*
X1602Y880D01*
X1602Y882D01*
X1600Y882D01*
X1600Y884D01*
X1598Y884D01*
X1598Y886D01*
X1596Y886D01*
X1596Y888D01*
X1594Y888D01*
X1594Y890D01*
X908Y890D01*
G37*
D02*
G36*
X1474Y730D02*
X1474Y728D01*
X1476Y728D01*
X1476Y726D01*
X1478Y726D01*
X1478Y724D01*
X1480Y724D01*
X1480Y722D01*
X1482Y722D01*
X1482Y720D01*
X1484Y720D01*
X1484Y718D01*
X1486Y718D01*
X1486Y716D01*
X1488Y716D01*
X1488Y714D01*
X1490Y714D01*
X1490Y712D01*
X1492Y712D01*
X1492Y710D01*
X1494Y710D01*
X1494Y708D01*
X1496Y708D01*
X1496Y706D01*
X1498Y706D01*
X1498Y704D01*
X1500Y704D01*
X1500Y702D01*
X1502Y702D01*
X1502Y700D01*
X1504Y700D01*
X1504Y698D01*
X1506Y698D01*
X1506Y696D01*
X1508Y696D01*
X1508Y694D01*
X1510Y694D01*
X1510Y692D01*
X1512Y692D01*
X1512Y690D01*
X1514Y690D01*
X1514Y688D01*
X1516Y688D01*
X1516Y686D01*
X1518Y686D01*
X1518Y684D01*
X1520Y684D01*
X1520Y682D01*
X1522Y682D01*
X1522Y680D01*
X1524Y680D01*
X1524Y678D01*
X1526Y678D01*
X1526Y676D01*
X1528Y676D01*
X1528Y674D01*
X1530Y674D01*
X1530Y672D01*
X1532Y672D01*
X1532Y670D01*
X1534Y670D01*
X1534Y668D01*
X1536Y668D01*
X1536Y666D01*
X1538Y666D01*
X1538Y664D01*
X1540Y664D01*
X1540Y662D01*
X1542Y662D01*
X1542Y660D01*
X1544Y660D01*
X1544Y658D01*
X1546Y658D01*
X1546Y656D01*
X1548Y656D01*
X1548Y654D01*
X1550Y654D01*
X1550Y652D01*
X1552Y652D01*
X1552Y650D01*
X1554Y650D01*
X1554Y648D01*
X1556Y648D01*
X1556Y646D01*
X1642Y646D01*
X1642Y648D01*
X1636Y648D01*
X1636Y650D01*
X1632Y650D01*
X1632Y652D01*
X1628Y652D01*
X1628Y654D01*
X1626Y654D01*
X1626Y656D01*
X1624Y656D01*
X1624Y658D01*
X1622Y658D01*
X1622Y660D01*
X1620Y660D01*
X1620Y662D01*
X1618Y662D01*
X1618Y664D01*
X1616Y664D01*
X1616Y666D01*
X1614Y666D01*
X1614Y670D01*
X1612Y670D01*
X1612Y674D01*
X1610Y674D01*
X1610Y678D01*
X1608Y678D01*
X1608Y696D01*
X1610Y696D01*
X1610Y702D01*
X1612Y702D01*
X1612Y706D01*
X1614Y706D01*
X1614Y710D01*
X1616Y710D01*
X1616Y712D01*
X1618Y712D01*
X1618Y714D01*
X1620Y714D01*
X1620Y716D01*
X1622Y716D01*
X1622Y718D01*
X1624Y718D01*
X1624Y720D01*
X1626Y720D01*
X1626Y722D01*
X1630Y722D01*
X1630Y724D01*
X1632Y724D01*
X1632Y726D01*
X1638Y726D01*
X1638Y728D01*
X1646Y728D01*
X1646Y730D01*
X1474Y730D01*
G37*
D02*
G36*
X1686Y672D02*
X1686Y670D01*
X1684Y670D01*
X1684Y666D01*
X1682Y666D01*
X1682Y664D01*
X1680Y664D01*
X1680Y662D01*
X1678Y662D01*
X1678Y658D01*
X1674Y658D01*
X1674Y656D01*
X1672Y656D01*
X1672Y654D01*
X1670Y654D01*
X1670Y652D01*
X1666Y652D01*
X1666Y650D01*
X1662Y650D01*
X1662Y648D01*
X1656Y648D01*
X1656Y646D01*
X1706Y646D01*
X1706Y672D01*
X1686Y672D01*
G37*
D02*
G36*
X1558Y646D02*
X1558Y644D01*
X1912Y644D01*
X1912Y646D01*
X1558Y646D01*
G37*
D02*
G36*
X1558Y646D02*
X1558Y644D01*
X1912Y644D01*
X1912Y646D01*
X1558Y646D01*
G37*
D02*
G36*
X1558Y646D02*
X1558Y644D01*
X1912Y644D01*
X1912Y646D01*
X1558Y646D01*
G37*
D02*
G36*
X1560Y644D02*
X1560Y642D01*
X1562Y642D01*
X1562Y640D01*
X1564Y640D01*
X1564Y638D01*
X1566Y638D01*
X1566Y636D01*
X1568Y636D01*
X1568Y634D01*
X1570Y634D01*
X1570Y632D01*
X1572Y632D01*
X1572Y630D01*
X1574Y630D01*
X1574Y628D01*
X1576Y628D01*
X1576Y626D01*
X1578Y626D01*
X1578Y624D01*
X1580Y624D01*
X1580Y622D01*
X1582Y622D01*
X1582Y620D01*
X1584Y620D01*
X1584Y618D01*
X1586Y618D01*
X1586Y616D01*
X1588Y616D01*
X1588Y614D01*
X1590Y614D01*
X1590Y612D01*
X1592Y612D01*
X1592Y610D01*
X1594Y610D01*
X1594Y608D01*
X1596Y608D01*
X1596Y606D01*
X1598Y606D01*
X1598Y604D01*
X1600Y604D01*
X1600Y602D01*
X1602Y602D01*
X1602Y600D01*
X1604Y600D01*
X1604Y598D01*
X1606Y598D01*
X1606Y596D01*
X1608Y596D01*
X1608Y594D01*
X1610Y594D01*
X1610Y592D01*
X1612Y592D01*
X1612Y590D01*
X1614Y590D01*
X1614Y588D01*
X1616Y588D01*
X1616Y586D01*
X1838Y586D01*
X1838Y584D01*
X1844Y584D01*
X1844Y582D01*
X1848Y582D01*
X1848Y580D01*
X1852Y580D01*
X1852Y578D01*
X1856Y578D01*
X1856Y576D01*
X1858Y576D01*
X1858Y574D01*
X1860Y574D01*
X1860Y572D01*
X1862Y572D01*
X1862Y570D01*
X1864Y570D01*
X1864Y568D01*
X1866Y568D01*
X1866Y566D01*
X1868Y566D01*
X1868Y562D01*
X1870Y562D01*
X1870Y560D01*
X1872Y560D01*
X1872Y556D01*
X1874Y556D01*
X1874Y550D01*
X1876Y550D01*
X1876Y544D01*
X1878Y544D01*
X1878Y534D01*
X1876Y534D01*
X1876Y526D01*
X1874Y526D01*
X1874Y520D01*
X1872Y520D01*
X1872Y518D01*
X1870Y518D01*
X1870Y514D01*
X1868Y514D01*
X1868Y512D01*
X1866Y512D01*
X1866Y508D01*
X1864Y508D01*
X1864Y506D01*
X1862Y506D01*
X1862Y504D01*
X1858Y504D01*
X1858Y502D01*
X1856Y502D01*
X1856Y500D01*
X1854Y500D01*
X1854Y498D01*
X1850Y498D01*
X1850Y496D01*
X1846Y496D01*
X1846Y494D01*
X1842Y494D01*
X1842Y492D01*
X1912Y492D01*
X1912Y644D01*
X1560Y644D01*
G37*
D02*
G36*
X1618Y586D02*
X1618Y584D01*
X1620Y584D01*
X1620Y582D01*
X1622Y582D01*
X1622Y580D01*
X1624Y580D01*
X1624Y578D01*
X1626Y578D01*
X1626Y576D01*
X1628Y576D01*
X1628Y574D01*
X1630Y574D01*
X1630Y572D01*
X1632Y572D01*
X1632Y570D01*
X1634Y570D01*
X1634Y568D01*
X1636Y568D01*
X1636Y566D01*
X1638Y566D01*
X1638Y564D01*
X1640Y564D01*
X1640Y562D01*
X1642Y562D01*
X1642Y560D01*
X1644Y560D01*
X1644Y558D01*
X1646Y558D01*
X1646Y556D01*
X1648Y556D01*
X1648Y554D01*
X1650Y554D01*
X1650Y552D01*
X1652Y552D01*
X1652Y550D01*
X1654Y550D01*
X1654Y548D01*
X1656Y548D01*
X1656Y546D01*
X1658Y546D01*
X1658Y544D01*
X1660Y544D01*
X1660Y542D01*
X1662Y542D01*
X1662Y540D01*
X1664Y540D01*
X1664Y538D01*
X1666Y538D01*
X1666Y536D01*
X1668Y536D01*
X1668Y534D01*
X1670Y534D01*
X1670Y532D01*
X1672Y532D01*
X1672Y530D01*
X1674Y530D01*
X1674Y528D01*
X1676Y528D01*
X1676Y526D01*
X1678Y526D01*
X1678Y524D01*
X1680Y524D01*
X1680Y522D01*
X1682Y522D01*
X1682Y520D01*
X1684Y520D01*
X1684Y518D01*
X1686Y518D01*
X1686Y516D01*
X1688Y516D01*
X1688Y514D01*
X1690Y514D01*
X1690Y512D01*
X1692Y512D01*
X1692Y510D01*
X1694Y510D01*
X1694Y508D01*
X1696Y508D01*
X1696Y506D01*
X1698Y506D01*
X1698Y504D01*
X1700Y504D01*
X1700Y502D01*
X1702Y502D01*
X1702Y500D01*
X1704Y500D01*
X1704Y498D01*
X1706Y498D01*
X1706Y496D01*
X1708Y496D01*
X1708Y494D01*
X1710Y494D01*
X1710Y492D01*
X1818Y492D01*
X1818Y494D01*
X1812Y494D01*
X1812Y496D01*
X1810Y496D01*
X1810Y498D01*
X1806Y498D01*
X1806Y500D01*
X1804Y500D01*
X1804Y502D01*
X1800Y502D01*
X1800Y504D01*
X1798Y504D01*
X1798Y506D01*
X1796Y506D01*
X1796Y508D01*
X1794Y508D01*
X1794Y510D01*
X1792Y510D01*
X1792Y514D01*
X1790Y514D01*
X1790Y516D01*
X1788Y516D01*
X1788Y520D01*
X1786Y520D01*
X1786Y526D01*
X1784Y526D01*
X1784Y532D01*
X1782Y532D01*
X1782Y546D01*
X1784Y546D01*
X1784Y552D01*
X1786Y552D01*
X1786Y556D01*
X1788Y556D01*
X1788Y560D01*
X1790Y560D01*
X1790Y564D01*
X1792Y564D01*
X1792Y566D01*
X1794Y566D01*
X1794Y568D01*
X1796Y568D01*
X1796Y570D01*
X1798Y570D01*
X1798Y572D01*
X1800Y572D01*
X1800Y574D01*
X1802Y574D01*
X1802Y576D01*
X1804Y576D01*
X1804Y578D01*
X1808Y578D01*
X1808Y580D01*
X1812Y580D01*
X1812Y582D01*
X1816Y582D01*
X1816Y584D01*
X1822Y584D01*
X1822Y586D01*
X1618Y586D01*
G37*
D02*
G36*
X1712Y492D02*
X1712Y490D01*
X1912Y490D01*
X1912Y492D01*
X1712Y492D01*
G37*
D02*
G36*
X1712Y492D02*
X1712Y490D01*
X1912Y490D01*
X1912Y492D01*
X1712Y492D01*
G37*
D02*
G36*
X1714Y490D02*
X1714Y488D01*
X1716Y488D01*
X1716Y486D01*
X1718Y486D01*
X1718Y484D01*
X1720Y484D01*
X1720Y482D01*
X1722Y482D01*
X1722Y480D01*
X1724Y480D01*
X1724Y478D01*
X1726Y478D01*
X1726Y476D01*
X1728Y476D01*
X1728Y474D01*
X1730Y474D01*
X1730Y472D01*
X1732Y472D01*
X1732Y470D01*
X1844Y470D01*
X1844Y468D01*
X1848Y468D01*
X1848Y466D01*
X1852Y466D01*
X1852Y464D01*
X1856Y464D01*
X1856Y462D01*
X1858Y462D01*
X1858Y460D01*
X1860Y460D01*
X1860Y458D01*
X1864Y458D01*
X1864Y456D01*
X1866Y456D01*
X1866Y454D01*
X1868Y454D01*
X1868Y450D01*
X1870Y450D01*
X1870Y448D01*
X1872Y448D01*
X1872Y444D01*
X1874Y444D01*
X1874Y442D01*
X1876Y442D01*
X1876Y436D01*
X1878Y436D01*
X1878Y430D01*
X1880Y430D01*
X1880Y418D01*
X1878Y418D01*
X1878Y410D01*
X1876Y410D01*
X1876Y406D01*
X1874Y406D01*
X1874Y402D01*
X1872Y402D01*
X1872Y398D01*
X1870Y398D01*
X1870Y396D01*
X1868Y396D01*
X1868Y394D01*
X1866Y394D01*
X1866Y392D01*
X1864Y392D01*
X1864Y390D01*
X1862Y390D01*
X1862Y388D01*
X1860Y388D01*
X1860Y386D01*
X1858Y386D01*
X1858Y384D01*
X1854Y384D01*
X1854Y382D01*
X1852Y382D01*
X1852Y380D01*
X1846Y380D01*
X1846Y378D01*
X1842Y378D01*
X1842Y376D01*
X1814Y376D01*
X1814Y374D01*
X1812Y374D01*
X1812Y372D01*
X1810Y372D01*
X1810Y370D01*
X1808Y370D01*
X1808Y368D01*
X1806Y368D01*
X1806Y366D01*
X1804Y366D01*
X1804Y364D01*
X1802Y364D01*
X1802Y362D01*
X1800Y362D01*
X1800Y360D01*
X1798Y360D01*
X1798Y358D01*
X1796Y358D01*
X1796Y356D01*
X1794Y356D01*
X1794Y354D01*
X1792Y354D01*
X1792Y352D01*
X1790Y352D01*
X1790Y350D01*
X1788Y350D01*
X1788Y348D01*
X1786Y348D01*
X1786Y346D01*
X1784Y346D01*
X1784Y344D01*
X1782Y344D01*
X1782Y342D01*
X1780Y342D01*
X1780Y340D01*
X1778Y340D01*
X1778Y338D01*
X1776Y338D01*
X1776Y336D01*
X1774Y336D01*
X1774Y334D01*
X1772Y334D01*
X1772Y332D01*
X1770Y332D01*
X1770Y330D01*
X1768Y330D01*
X1768Y328D01*
X1766Y328D01*
X1766Y326D01*
X1764Y326D01*
X1764Y324D01*
X1762Y324D01*
X1762Y322D01*
X1814Y322D01*
X1814Y320D01*
X1820Y320D01*
X1820Y318D01*
X1824Y318D01*
X1824Y316D01*
X1828Y316D01*
X1828Y314D01*
X1830Y314D01*
X1830Y312D01*
X1834Y312D01*
X1834Y310D01*
X1836Y310D01*
X1836Y308D01*
X1838Y308D01*
X1838Y306D01*
X1840Y306D01*
X1840Y304D01*
X1842Y304D01*
X1842Y302D01*
X1844Y302D01*
X1844Y298D01*
X1846Y298D01*
X1846Y294D01*
X1848Y294D01*
X1848Y292D01*
X1850Y292D01*
X1850Y286D01*
X1852Y286D01*
X1852Y264D01*
X1850Y264D01*
X1850Y258D01*
X1848Y258D01*
X1848Y254D01*
X1846Y254D01*
X1846Y250D01*
X1844Y250D01*
X1844Y248D01*
X1842Y248D01*
X1842Y246D01*
X1840Y246D01*
X1840Y242D01*
X1838Y242D01*
X1838Y240D01*
X1834Y240D01*
X1834Y238D01*
X1832Y238D01*
X1832Y236D01*
X1830Y236D01*
X1830Y234D01*
X1826Y234D01*
X1826Y232D01*
X1822Y232D01*
X1822Y230D01*
X1818Y230D01*
X1818Y228D01*
X1808Y228D01*
X1808Y226D01*
X1912Y226D01*
X1912Y490D01*
X1714Y490D01*
G37*
D02*
G36*
X1734Y470D02*
X1734Y468D01*
X1736Y468D01*
X1736Y466D01*
X1738Y466D01*
X1738Y464D01*
X1740Y464D01*
X1740Y462D01*
X1742Y462D01*
X1742Y460D01*
X1744Y460D01*
X1744Y458D01*
X1746Y458D01*
X1746Y456D01*
X1748Y456D01*
X1748Y454D01*
X1750Y454D01*
X1750Y452D01*
X1752Y452D01*
X1752Y450D01*
X1754Y450D01*
X1754Y448D01*
X1756Y448D01*
X1756Y446D01*
X1758Y446D01*
X1758Y444D01*
X1792Y444D01*
X1792Y448D01*
X1794Y448D01*
X1794Y450D01*
X1796Y450D01*
X1796Y452D01*
X1798Y452D01*
X1798Y456D01*
X1800Y456D01*
X1800Y458D01*
X1804Y458D01*
X1804Y460D01*
X1806Y460D01*
X1806Y462D01*
X1808Y462D01*
X1808Y464D01*
X1812Y464D01*
X1812Y466D01*
X1816Y466D01*
X1816Y468D01*
X1822Y468D01*
X1822Y470D01*
X1734Y470D01*
G37*
D02*
G36*
X1760Y322D02*
X1760Y320D01*
X1758Y320D01*
X1758Y318D01*
X1756Y318D01*
X1756Y316D01*
X1754Y316D01*
X1754Y314D01*
X1752Y314D01*
X1752Y312D01*
X1750Y312D01*
X1750Y310D01*
X1748Y310D01*
X1748Y308D01*
X1746Y308D01*
X1746Y306D01*
X1744Y306D01*
X1744Y304D01*
X1742Y304D01*
X1742Y302D01*
X1740Y302D01*
X1740Y300D01*
X1738Y300D01*
X1738Y298D01*
X1736Y298D01*
X1736Y294D01*
X1734Y294D01*
X1734Y292D01*
X1732Y292D01*
X1732Y290D01*
X1730Y290D01*
X1730Y288D01*
X1728Y288D01*
X1728Y286D01*
X1726Y286D01*
X1726Y284D01*
X1724Y284D01*
X1724Y282D01*
X1722Y282D01*
X1722Y280D01*
X1720Y280D01*
X1720Y278D01*
X1718Y278D01*
X1718Y276D01*
X1716Y276D01*
X1716Y274D01*
X1714Y274D01*
X1714Y272D01*
X1712Y272D01*
X1712Y270D01*
X1710Y270D01*
X1710Y268D01*
X1708Y268D01*
X1708Y266D01*
X1706Y266D01*
X1706Y264D01*
X1704Y264D01*
X1704Y262D01*
X1702Y262D01*
X1702Y260D01*
X1700Y260D01*
X1700Y258D01*
X1698Y258D01*
X1698Y256D01*
X1696Y256D01*
X1696Y254D01*
X1694Y254D01*
X1694Y252D01*
X1692Y252D01*
X1692Y250D01*
X1690Y250D01*
X1690Y248D01*
X1688Y248D01*
X1688Y246D01*
X1686Y246D01*
X1686Y244D01*
X1684Y244D01*
X1684Y242D01*
X1682Y242D01*
X1682Y240D01*
X1680Y240D01*
X1680Y238D01*
X1678Y238D01*
X1678Y236D01*
X1676Y236D01*
X1676Y234D01*
X1674Y234D01*
X1674Y232D01*
X1672Y232D01*
X1672Y230D01*
X1670Y230D01*
X1670Y228D01*
X1668Y228D01*
X1668Y226D01*
X1804Y226D01*
X1804Y228D01*
X1794Y228D01*
X1794Y230D01*
X1788Y230D01*
X1788Y232D01*
X1784Y232D01*
X1784Y234D01*
X1782Y234D01*
X1782Y236D01*
X1778Y236D01*
X1778Y238D01*
X1776Y238D01*
X1776Y240D01*
X1774Y240D01*
X1774Y242D01*
X1772Y242D01*
X1772Y244D01*
X1770Y244D01*
X1770Y246D01*
X1768Y246D01*
X1768Y248D01*
X1766Y248D01*
X1766Y252D01*
X1764Y252D01*
X1764Y256D01*
X1762Y256D01*
X1762Y260D01*
X1760Y260D01*
X1760Y266D01*
X1758Y266D01*
X1758Y282D01*
X1760Y282D01*
X1760Y288D01*
X1762Y288D01*
X1762Y294D01*
X1764Y294D01*
X1764Y296D01*
X1766Y296D01*
X1766Y300D01*
X1768Y300D01*
X1768Y302D01*
X1770Y302D01*
X1770Y304D01*
X1772Y304D01*
X1772Y306D01*
X1774Y306D01*
X1774Y308D01*
X1776Y308D01*
X1776Y310D01*
X1778Y310D01*
X1778Y312D01*
X1780Y312D01*
X1780Y314D01*
X1784Y314D01*
X1784Y316D01*
X1786Y316D01*
X1786Y318D01*
X1792Y318D01*
X1792Y320D01*
X1798Y320D01*
X1798Y322D01*
X1760Y322D01*
G37*
D02*
G36*
X1666Y226D02*
X1666Y224D01*
X1912Y224D01*
X1912Y226D01*
X1666Y226D01*
G37*
D02*
G36*
X1666Y226D02*
X1666Y224D01*
X1912Y224D01*
X1912Y226D01*
X1666Y226D01*
G37*
D02*
G36*
X1664Y224D02*
X1664Y222D01*
X1662Y222D01*
X1662Y220D01*
X1660Y220D01*
X1660Y218D01*
X1658Y218D01*
X1658Y216D01*
X1656Y216D01*
X1656Y214D01*
X1654Y214D01*
X1654Y212D01*
X1652Y212D01*
X1652Y210D01*
X1650Y210D01*
X1650Y208D01*
X1648Y208D01*
X1648Y206D01*
X1646Y206D01*
X1646Y204D01*
X1644Y204D01*
X1644Y202D01*
X1642Y202D01*
X1642Y200D01*
X1640Y200D01*
X1640Y198D01*
X1638Y198D01*
X1638Y196D01*
X1636Y196D01*
X1636Y194D01*
X1634Y194D01*
X1634Y192D01*
X1632Y192D01*
X1632Y190D01*
X1630Y190D01*
X1630Y188D01*
X1628Y188D01*
X1628Y186D01*
X1626Y186D01*
X1626Y184D01*
X1624Y184D01*
X1624Y182D01*
X1622Y182D01*
X1622Y180D01*
X1620Y180D01*
X1620Y178D01*
X1618Y178D01*
X1618Y176D01*
X1616Y176D01*
X1616Y174D01*
X1614Y174D01*
X1614Y172D01*
X1612Y172D01*
X1612Y170D01*
X1610Y170D01*
X1610Y168D01*
X1608Y168D01*
X1608Y166D01*
X1606Y166D01*
X1606Y164D01*
X1604Y164D01*
X1604Y162D01*
X1602Y162D01*
X1602Y160D01*
X1600Y160D01*
X1600Y158D01*
X1598Y158D01*
X1598Y156D01*
X1596Y156D01*
X1596Y154D01*
X1594Y154D01*
X1594Y152D01*
X1592Y152D01*
X1592Y150D01*
X1590Y150D01*
X1590Y148D01*
X1588Y148D01*
X1588Y146D01*
X1586Y146D01*
X1586Y144D01*
X1816Y144D01*
X1816Y142D01*
X1822Y142D01*
X1822Y140D01*
X1826Y140D01*
X1826Y138D01*
X1828Y138D01*
X1828Y136D01*
X1832Y136D01*
X1832Y134D01*
X1834Y134D01*
X1834Y132D01*
X1836Y132D01*
X1836Y130D01*
X1838Y130D01*
X1838Y128D01*
X1840Y128D01*
X1840Y126D01*
X1842Y126D01*
X1842Y124D01*
X1844Y124D01*
X1844Y122D01*
X1846Y122D01*
X1846Y118D01*
X1848Y118D01*
X1848Y114D01*
X1850Y114D01*
X1850Y108D01*
X1852Y108D01*
X1852Y86D01*
X1850Y86D01*
X1850Y80D01*
X1848Y80D01*
X1848Y76D01*
X1846Y76D01*
X1846Y74D01*
X1844Y74D01*
X1844Y70D01*
X1842Y70D01*
X1842Y68D01*
X1862Y68D01*
X1862Y70D01*
X1864Y70D01*
X1864Y72D01*
X1866Y72D01*
X1866Y74D01*
X1868Y74D01*
X1868Y78D01*
X1870Y78D01*
X1870Y80D01*
X1872Y80D01*
X1872Y82D01*
X1874Y82D01*
X1874Y84D01*
X1876Y84D01*
X1876Y86D01*
X1878Y86D01*
X1878Y88D01*
X1880Y88D01*
X1880Y90D01*
X1882Y90D01*
X1882Y92D01*
X1884Y92D01*
X1884Y94D01*
X1886Y94D01*
X1886Y96D01*
X1888Y96D01*
X1888Y98D01*
X1890Y98D01*
X1890Y100D01*
X1892Y100D01*
X1892Y102D01*
X1894Y102D01*
X1894Y104D01*
X1896Y104D01*
X1896Y106D01*
X1898Y106D01*
X1898Y108D01*
X1900Y108D01*
X1900Y110D01*
X1902Y110D01*
X1902Y112D01*
X1904Y112D01*
X1904Y114D01*
X1906Y114D01*
X1906Y116D01*
X1908Y116D01*
X1908Y118D01*
X1910Y118D01*
X1910Y122D01*
X1912Y122D01*
X1912Y224D01*
X1664Y224D01*
G37*
D02*
G36*
X1586Y144D02*
X1586Y124D01*
X1588Y124D01*
X1588Y122D01*
X1590Y122D01*
X1590Y118D01*
X1592Y118D01*
X1592Y114D01*
X1594Y114D01*
X1594Y108D01*
X1596Y108D01*
X1596Y98D01*
X1598Y98D01*
X1598Y96D01*
X1596Y96D01*
X1596Y86D01*
X1594Y86D01*
X1594Y80D01*
X1592Y80D01*
X1592Y76D01*
X1590Y76D01*
X1590Y74D01*
X1588Y74D01*
X1588Y70D01*
X1586Y70D01*
X1586Y50D01*
X1770Y50D01*
X1770Y70D01*
X1768Y70D01*
X1768Y72D01*
X1766Y72D01*
X1766Y74D01*
X1764Y74D01*
X1764Y78D01*
X1762Y78D01*
X1762Y84D01*
X1760Y84D01*
X1760Y88D01*
X1758Y88D01*
X1758Y106D01*
X1760Y106D01*
X1760Y112D01*
X1762Y112D01*
X1762Y116D01*
X1764Y116D01*
X1764Y120D01*
X1766Y120D01*
X1766Y122D01*
X1768Y122D01*
X1768Y126D01*
X1770Y126D01*
X1770Y128D01*
X1772Y128D01*
X1772Y130D01*
X1774Y130D01*
X1774Y132D01*
X1776Y132D01*
X1776Y134D01*
X1780Y134D01*
X1780Y136D01*
X1782Y136D01*
X1782Y138D01*
X1786Y138D01*
X1786Y140D01*
X1790Y140D01*
X1790Y142D01*
X1794Y142D01*
X1794Y144D01*
X1586Y144D01*
G37*
D02*
G36*
X40Y504D02*
X40Y452D01*
X60Y452D01*
X60Y454D01*
X62Y454D01*
X62Y456D01*
X64Y456D01*
X64Y458D01*
X66Y458D01*
X66Y460D01*
X68Y460D01*
X68Y462D01*
X70Y462D01*
X70Y464D01*
X74Y464D01*
X74Y466D01*
X78Y466D01*
X78Y468D01*
X82Y468D01*
X82Y490D01*
X76Y490D01*
X76Y492D01*
X72Y492D01*
X72Y494D01*
X70Y494D01*
X70Y496D01*
X66Y496D01*
X66Y498D01*
X64Y498D01*
X64Y500D01*
X62Y500D01*
X62Y502D01*
X60Y502D01*
X60Y504D01*
X40Y504D01*
G37*
D02*
G36*
X40Y1340D02*
X40Y1294D01*
X278Y1294D01*
X278Y1292D01*
X284Y1292D01*
X284Y1290D01*
X288Y1290D01*
X288Y1288D01*
X292Y1288D01*
X292Y1286D01*
X1260Y1286D01*
X1260Y1260D01*
X1316Y1260D01*
X1316Y1262D01*
X1310Y1262D01*
X1310Y1264D01*
X1306Y1264D01*
X1306Y1266D01*
X1302Y1266D01*
X1302Y1268D01*
X1300Y1268D01*
X1300Y1270D01*
X1298Y1270D01*
X1298Y1272D01*
X1294Y1272D01*
X1294Y1274D01*
X1292Y1274D01*
X1292Y1276D01*
X1290Y1276D01*
X1290Y1280D01*
X1288Y1280D01*
X1288Y1282D01*
X1286Y1282D01*
X1286Y1284D01*
X1284Y1284D01*
X1284Y1288D01*
X1282Y1288D01*
X1282Y1292D01*
X1280Y1292D01*
X1280Y1298D01*
X1278Y1298D01*
X1278Y1318D01*
X1280Y1318D01*
X1280Y1340D01*
X40Y1340D01*
G37*
D02*
G36*
X1370Y1340D02*
X1370Y1318D01*
X1372Y1318D01*
X1372Y1298D01*
X1556Y1298D01*
X1556Y1296D01*
X1580Y1296D01*
X1580Y1298D01*
X1578Y1298D01*
X1578Y1318D01*
X1580Y1318D01*
X1580Y1340D01*
X1370Y1340D01*
G37*
D02*
G36*
X1370Y1298D02*
X1370Y1292D01*
X1368Y1292D01*
X1368Y1288D01*
X1366Y1288D01*
X1366Y1284D01*
X1364Y1284D01*
X1364Y1282D01*
X1362Y1282D01*
X1362Y1278D01*
X1360Y1278D01*
X1360Y1276D01*
X1358Y1276D01*
X1358Y1274D01*
X1356Y1274D01*
X1356Y1272D01*
X1354Y1272D01*
X1354Y1270D01*
X1350Y1270D01*
X1350Y1268D01*
X1348Y1268D01*
X1348Y1266D01*
X1344Y1266D01*
X1344Y1264D01*
X1340Y1264D01*
X1340Y1262D01*
X1334Y1262D01*
X1334Y1260D01*
X1450Y1260D01*
X1450Y1262D01*
X1452Y1262D01*
X1452Y1264D01*
X1454Y1264D01*
X1454Y1266D01*
X1456Y1266D01*
X1456Y1268D01*
X1458Y1268D01*
X1458Y1272D01*
X1460Y1272D01*
X1460Y1274D01*
X1462Y1274D01*
X1462Y1276D01*
X1464Y1276D01*
X1464Y1278D01*
X1466Y1278D01*
X1466Y1280D01*
X1468Y1280D01*
X1468Y1282D01*
X1470Y1282D01*
X1470Y1284D01*
X1472Y1284D01*
X1472Y1286D01*
X1474Y1286D01*
X1474Y1288D01*
X1476Y1288D01*
X1476Y1290D01*
X1480Y1290D01*
X1480Y1292D01*
X1482Y1292D01*
X1482Y1294D01*
X1486Y1294D01*
X1486Y1296D01*
X1542Y1296D01*
X1542Y1298D01*
X1370Y1298D01*
G37*
D02*
G36*
X40Y1294D02*
X40Y1084D01*
X458Y1084D01*
X458Y1086D01*
X420Y1086D01*
X420Y1088D01*
X418Y1088D01*
X418Y1090D01*
X414Y1090D01*
X414Y1092D01*
X412Y1092D01*
X412Y1094D01*
X410Y1094D01*
X410Y1096D01*
X408Y1096D01*
X408Y1098D01*
X406Y1098D01*
X406Y1100D01*
X402Y1100D01*
X402Y1102D01*
X400Y1102D01*
X400Y1104D01*
X398Y1104D01*
X398Y1106D01*
X396Y1106D01*
X396Y1108D01*
X394Y1108D01*
X394Y1110D01*
X392Y1110D01*
X392Y1112D01*
X388Y1112D01*
X388Y1114D01*
X386Y1114D01*
X386Y1116D01*
X384Y1116D01*
X384Y1118D01*
X382Y1118D01*
X382Y1120D01*
X380Y1120D01*
X380Y1122D01*
X378Y1122D01*
X378Y1124D01*
X374Y1124D01*
X374Y1126D01*
X372Y1126D01*
X372Y1128D01*
X370Y1128D01*
X370Y1130D01*
X368Y1130D01*
X368Y1132D01*
X366Y1132D01*
X366Y1134D01*
X364Y1134D01*
X364Y1136D01*
X360Y1136D01*
X360Y1138D01*
X358Y1138D01*
X358Y1140D01*
X356Y1140D01*
X356Y1142D01*
X354Y1142D01*
X354Y1144D01*
X352Y1144D01*
X352Y1146D01*
X350Y1146D01*
X350Y1148D01*
X346Y1148D01*
X346Y1150D01*
X344Y1150D01*
X344Y1152D01*
X342Y1152D01*
X342Y1154D01*
X340Y1154D01*
X340Y1156D01*
X338Y1156D01*
X338Y1158D01*
X336Y1158D01*
X336Y1160D01*
X332Y1160D01*
X332Y1162D01*
X330Y1162D01*
X330Y1164D01*
X328Y1164D01*
X328Y1166D01*
X326Y1166D01*
X326Y1168D01*
X324Y1168D01*
X324Y1170D01*
X322Y1170D01*
X322Y1172D01*
X318Y1172D01*
X318Y1174D01*
X316Y1174D01*
X316Y1176D01*
X314Y1176D01*
X314Y1178D01*
X312Y1178D01*
X312Y1180D01*
X310Y1180D01*
X310Y1182D01*
X308Y1182D01*
X308Y1184D01*
X304Y1184D01*
X304Y1186D01*
X302Y1186D01*
X302Y1188D01*
X300Y1188D01*
X300Y1190D01*
X298Y1190D01*
X298Y1192D01*
X296Y1192D01*
X296Y1194D01*
X294Y1194D01*
X294Y1196D01*
X258Y1196D01*
X258Y1198D01*
X252Y1198D01*
X252Y1200D01*
X248Y1200D01*
X248Y1202D01*
X246Y1202D01*
X246Y1204D01*
X242Y1204D01*
X242Y1206D01*
X240Y1206D01*
X240Y1208D01*
X238Y1208D01*
X238Y1210D01*
X236Y1210D01*
X236Y1212D01*
X234Y1212D01*
X234Y1214D01*
X232Y1214D01*
X232Y1216D01*
X230Y1216D01*
X230Y1218D01*
X228Y1218D01*
X228Y1222D01*
X226Y1222D01*
X226Y1224D01*
X224Y1224D01*
X224Y1228D01*
X222Y1228D01*
X222Y1234D01*
X220Y1234D01*
X220Y1254D01*
X222Y1254D01*
X222Y1260D01*
X224Y1260D01*
X224Y1264D01*
X226Y1264D01*
X226Y1268D01*
X228Y1268D01*
X228Y1272D01*
X230Y1272D01*
X230Y1274D01*
X232Y1274D01*
X232Y1276D01*
X234Y1276D01*
X234Y1278D01*
X236Y1278D01*
X236Y1280D01*
X238Y1280D01*
X238Y1282D01*
X240Y1282D01*
X240Y1284D01*
X244Y1284D01*
X244Y1286D01*
X246Y1286D01*
X246Y1288D01*
X250Y1288D01*
X250Y1290D01*
X254Y1290D01*
X254Y1292D01*
X260Y1292D01*
X260Y1294D01*
X40Y1294D01*
G37*
D02*
G36*
X296Y1286D02*
X296Y1284D01*
X298Y1284D01*
X298Y1282D01*
X300Y1282D01*
X300Y1280D01*
X302Y1280D01*
X302Y1278D01*
X304Y1278D01*
X304Y1276D01*
X306Y1276D01*
X306Y1274D01*
X308Y1274D01*
X308Y1272D01*
X310Y1272D01*
X310Y1268D01*
X312Y1268D01*
X312Y1264D01*
X314Y1264D01*
X314Y1260D01*
X316Y1260D01*
X316Y1256D01*
X318Y1256D01*
X318Y1230D01*
X322Y1230D01*
X322Y1228D01*
X324Y1228D01*
X324Y1226D01*
X326Y1226D01*
X326Y1224D01*
X328Y1224D01*
X328Y1222D01*
X330Y1222D01*
X330Y1220D01*
X332Y1220D01*
X332Y1218D01*
X336Y1218D01*
X336Y1216D01*
X338Y1216D01*
X338Y1214D01*
X340Y1214D01*
X340Y1212D01*
X342Y1212D01*
X342Y1210D01*
X344Y1210D01*
X344Y1208D01*
X346Y1208D01*
X346Y1206D01*
X350Y1206D01*
X350Y1204D01*
X352Y1204D01*
X352Y1202D01*
X354Y1202D01*
X354Y1200D01*
X356Y1200D01*
X356Y1198D01*
X358Y1198D01*
X358Y1196D01*
X360Y1196D01*
X360Y1194D01*
X364Y1194D01*
X364Y1192D01*
X602Y1192D01*
X602Y1194D01*
X596Y1194D01*
X596Y1196D01*
X592Y1196D01*
X592Y1198D01*
X588Y1198D01*
X588Y1200D01*
X586Y1200D01*
X586Y1202D01*
X584Y1202D01*
X584Y1204D01*
X582Y1204D01*
X582Y1206D01*
X580Y1206D01*
X580Y1208D01*
X578Y1208D01*
X578Y1210D01*
X576Y1210D01*
X576Y1212D01*
X574Y1212D01*
X574Y1214D01*
X572Y1214D01*
X572Y1218D01*
X570Y1218D01*
X570Y1222D01*
X568Y1222D01*
X568Y1228D01*
X566Y1228D01*
X566Y1250D01*
X568Y1250D01*
X568Y1256D01*
X570Y1256D01*
X570Y1258D01*
X572Y1258D01*
X572Y1262D01*
X574Y1262D01*
X574Y1266D01*
X576Y1266D01*
X576Y1268D01*
X578Y1268D01*
X578Y1270D01*
X580Y1270D01*
X580Y1272D01*
X582Y1272D01*
X582Y1274D01*
X584Y1274D01*
X584Y1276D01*
X588Y1276D01*
X588Y1278D01*
X590Y1278D01*
X590Y1280D01*
X594Y1280D01*
X594Y1282D01*
X598Y1282D01*
X598Y1284D01*
X604Y1284D01*
X604Y1286D01*
X296Y1286D01*
G37*
D02*
G36*
X622Y1286D02*
X622Y1284D01*
X628Y1284D01*
X628Y1282D01*
X632Y1282D01*
X632Y1280D01*
X634Y1280D01*
X634Y1278D01*
X638Y1278D01*
X638Y1276D01*
X640Y1276D01*
X640Y1274D01*
X642Y1274D01*
X642Y1272D01*
X646Y1272D01*
X646Y1268D01*
X648Y1268D01*
X648Y1266D01*
X650Y1266D01*
X650Y1264D01*
X652Y1264D01*
X652Y1260D01*
X672Y1260D01*
X672Y1262D01*
X674Y1262D01*
X674Y1266D01*
X676Y1266D01*
X676Y1268D01*
X678Y1268D01*
X678Y1270D01*
X680Y1270D01*
X680Y1272D01*
X682Y1272D01*
X682Y1274D01*
X684Y1274D01*
X684Y1276D01*
X688Y1276D01*
X688Y1278D01*
X690Y1278D01*
X690Y1280D01*
X694Y1280D01*
X694Y1282D01*
X698Y1282D01*
X698Y1284D01*
X704Y1284D01*
X704Y1286D01*
X622Y1286D01*
G37*
D02*
G36*
X722Y1286D02*
X722Y1284D01*
X728Y1284D01*
X728Y1282D01*
X732Y1282D01*
X732Y1280D01*
X734Y1280D01*
X734Y1278D01*
X738Y1278D01*
X738Y1276D01*
X740Y1276D01*
X740Y1274D01*
X742Y1274D01*
X742Y1272D01*
X746Y1272D01*
X746Y1268D01*
X748Y1268D01*
X748Y1266D01*
X750Y1266D01*
X750Y1264D01*
X752Y1264D01*
X752Y1260D01*
X772Y1260D01*
X772Y1262D01*
X774Y1262D01*
X774Y1266D01*
X776Y1266D01*
X776Y1268D01*
X778Y1268D01*
X778Y1270D01*
X780Y1270D01*
X780Y1272D01*
X782Y1272D01*
X782Y1274D01*
X784Y1274D01*
X784Y1276D01*
X788Y1276D01*
X788Y1278D01*
X790Y1278D01*
X790Y1280D01*
X794Y1280D01*
X794Y1282D01*
X798Y1282D01*
X798Y1284D01*
X804Y1284D01*
X804Y1286D01*
X722Y1286D01*
G37*
D02*
G36*
X822Y1286D02*
X822Y1284D01*
X828Y1284D01*
X828Y1282D01*
X832Y1282D01*
X832Y1280D01*
X834Y1280D01*
X834Y1278D01*
X838Y1278D01*
X838Y1276D01*
X840Y1276D01*
X840Y1274D01*
X842Y1274D01*
X842Y1272D01*
X846Y1272D01*
X846Y1268D01*
X848Y1268D01*
X848Y1266D01*
X850Y1266D01*
X850Y1264D01*
X852Y1264D01*
X852Y1260D01*
X872Y1260D01*
X872Y1262D01*
X874Y1262D01*
X874Y1266D01*
X876Y1266D01*
X876Y1268D01*
X878Y1268D01*
X878Y1270D01*
X880Y1270D01*
X880Y1272D01*
X882Y1272D01*
X882Y1274D01*
X884Y1274D01*
X884Y1276D01*
X888Y1276D01*
X888Y1278D01*
X890Y1278D01*
X890Y1280D01*
X894Y1280D01*
X894Y1282D01*
X898Y1282D01*
X898Y1284D01*
X904Y1284D01*
X904Y1286D01*
X822Y1286D01*
G37*
D02*
G36*
X922Y1286D02*
X922Y1284D01*
X928Y1284D01*
X928Y1282D01*
X932Y1282D01*
X932Y1280D01*
X934Y1280D01*
X934Y1278D01*
X938Y1278D01*
X938Y1276D01*
X940Y1276D01*
X940Y1274D01*
X942Y1274D01*
X942Y1272D01*
X946Y1272D01*
X946Y1268D01*
X948Y1268D01*
X948Y1266D01*
X950Y1266D01*
X950Y1264D01*
X952Y1264D01*
X952Y1260D01*
X972Y1260D01*
X972Y1262D01*
X974Y1262D01*
X974Y1266D01*
X976Y1266D01*
X976Y1268D01*
X978Y1268D01*
X978Y1270D01*
X980Y1270D01*
X980Y1272D01*
X982Y1272D01*
X982Y1274D01*
X984Y1274D01*
X984Y1276D01*
X988Y1276D01*
X988Y1278D01*
X990Y1278D01*
X990Y1280D01*
X994Y1280D01*
X994Y1282D01*
X998Y1282D01*
X998Y1284D01*
X1004Y1284D01*
X1004Y1286D01*
X922Y1286D01*
G37*
D02*
G36*
X1022Y1286D02*
X1022Y1284D01*
X1028Y1284D01*
X1028Y1282D01*
X1032Y1282D01*
X1032Y1280D01*
X1034Y1280D01*
X1034Y1278D01*
X1038Y1278D01*
X1038Y1276D01*
X1040Y1276D01*
X1040Y1274D01*
X1042Y1274D01*
X1042Y1272D01*
X1046Y1272D01*
X1046Y1268D01*
X1048Y1268D01*
X1048Y1266D01*
X1050Y1266D01*
X1050Y1264D01*
X1052Y1264D01*
X1052Y1260D01*
X1072Y1260D01*
X1072Y1262D01*
X1074Y1262D01*
X1074Y1266D01*
X1076Y1266D01*
X1076Y1268D01*
X1078Y1268D01*
X1078Y1270D01*
X1080Y1270D01*
X1080Y1272D01*
X1082Y1272D01*
X1082Y1274D01*
X1084Y1274D01*
X1084Y1276D01*
X1088Y1276D01*
X1088Y1278D01*
X1090Y1278D01*
X1090Y1280D01*
X1094Y1280D01*
X1094Y1282D01*
X1098Y1282D01*
X1098Y1284D01*
X1104Y1284D01*
X1104Y1286D01*
X1022Y1286D01*
G37*
D02*
G36*
X1122Y1286D02*
X1122Y1284D01*
X1128Y1284D01*
X1128Y1282D01*
X1132Y1282D01*
X1132Y1280D01*
X1134Y1280D01*
X1134Y1278D01*
X1138Y1278D01*
X1138Y1276D01*
X1140Y1276D01*
X1140Y1274D01*
X1142Y1274D01*
X1142Y1272D01*
X1146Y1272D01*
X1146Y1268D01*
X1166Y1268D01*
X1166Y1286D01*
X1122Y1286D01*
G37*
D02*
G36*
X1260Y1260D02*
X1260Y1258D01*
X1448Y1258D01*
X1448Y1260D01*
X1260Y1260D01*
G37*
D02*
G36*
X1260Y1260D02*
X1260Y1258D01*
X1448Y1258D01*
X1448Y1260D01*
X1260Y1260D01*
G37*
D02*
G36*
X1260Y1258D02*
X1260Y1192D01*
X1382Y1192D01*
X1382Y1194D01*
X1384Y1194D01*
X1384Y1196D01*
X1386Y1196D01*
X1386Y1198D01*
X1388Y1198D01*
X1388Y1200D01*
X1390Y1200D01*
X1390Y1202D01*
X1392Y1202D01*
X1392Y1204D01*
X1394Y1204D01*
X1394Y1206D01*
X1396Y1206D01*
X1396Y1208D01*
X1398Y1208D01*
X1398Y1210D01*
X1400Y1210D01*
X1400Y1212D01*
X1402Y1212D01*
X1402Y1214D01*
X1404Y1214D01*
X1404Y1216D01*
X1406Y1216D01*
X1406Y1218D01*
X1408Y1218D01*
X1408Y1220D01*
X1410Y1220D01*
X1410Y1222D01*
X1412Y1222D01*
X1412Y1224D01*
X1414Y1224D01*
X1414Y1226D01*
X1416Y1226D01*
X1416Y1228D01*
X1418Y1228D01*
X1418Y1230D01*
X1420Y1230D01*
X1420Y1232D01*
X1422Y1232D01*
X1422Y1234D01*
X1424Y1234D01*
X1424Y1236D01*
X1426Y1236D01*
X1426Y1238D01*
X1428Y1238D01*
X1428Y1240D01*
X1430Y1240D01*
X1430Y1242D01*
X1432Y1242D01*
X1432Y1244D01*
X1434Y1244D01*
X1434Y1246D01*
X1436Y1246D01*
X1436Y1248D01*
X1438Y1248D01*
X1438Y1250D01*
X1440Y1250D01*
X1440Y1252D01*
X1442Y1252D01*
X1442Y1254D01*
X1444Y1254D01*
X1444Y1256D01*
X1446Y1256D01*
X1446Y1258D01*
X1260Y1258D01*
G37*
D02*
G36*
X652Y1216D02*
X652Y1212D01*
X650Y1212D01*
X650Y1210D01*
X648Y1210D01*
X648Y1208D01*
X646Y1208D01*
X646Y1206D01*
X644Y1206D01*
X644Y1204D01*
X642Y1204D01*
X642Y1202D01*
X640Y1202D01*
X640Y1200D01*
X636Y1200D01*
X636Y1198D01*
X634Y1198D01*
X634Y1196D01*
X630Y1196D01*
X630Y1194D01*
X624Y1194D01*
X624Y1192D01*
X702Y1192D01*
X702Y1194D01*
X696Y1194D01*
X696Y1196D01*
X692Y1196D01*
X692Y1198D01*
X688Y1198D01*
X688Y1200D01*
X686Y1200D01*
X686Y1202D01*
X684Y1202D01*
X684Y1204D01*
X682Y1204D01*
X682Y1206D01*
X680Y1206D01*
X680Y1208D01*
X678Y1208D01*
X678Y1210D01*
X676Y1210D01*
X676Y1212D01*
X674Y1212D01*
X674Y1214D01*
X672Y1214D01*
X672Y1216D01*
X652Y1216D01*
G37*
D02*
G36*
X852Y1216D02*
X852Y1212D01*
X850Y1212D01*
X850Y1210D01*
X848Y1210D01*
X848Y1208D01*
X846Y1208D01*
X846Y1206D01*
X844Y1206D01*
X844Y1204D01*
X842Y1204D01*
X842Y1202D01*
X840Y1202D01*
X840Y1200D01*
X836Y1200D01*
X836Y1198D01*
X834Y1198D01*
X834Y1196D01*
X830Y1196D01*
X830Y1194D01*
X824Y1194D01*
X824Y1192D01*
X902Y1192D01*
X902Y1194D01*
X896Y1194D01*
X896Y1196D01*
X892Y1196D01*
X892Y1198D01*
X888Y1198D01*
X888Y1200D01*
X886Y1200D01*
X886Y1202D01*
X884Y1202D01*
X884Y1204D01*
X882Y1204D01*
X882Y1206D01*
X880Y1206D01*
X880Y1208D01*
X878Y1208D01*
X878Y1210D01*
X876Y1210D01*
X876Y1212D01*
X874Y1212D01*
X874Y1214D01*
X872Y1214D01*
X872Y1216D01*
X852Y1216D01*
G37*
D02*
G36*
X952Y1216D02*
X952Y1212D01*
X950Y1212D01*
X950Y1210D01*
X948Y1210D01*
X948Y1208D01*
X946Y1208D01*
X946Y1206D01*
X944Y1206D01*
X944Y1204D01*
X942Y1204D01*
X942Y1202D01*
X940Y1202D01*
X940Y1200D01*
X936Y1200D01*
X936Y1198D01*
X934Y1198D01*
X934Y1196D01*
X930Y1196D01*
X930Y1194D01*
X924Y1194D01*
X924Y1192D01*
X1002Y1192D01*
X1002Y1194D01*
X996Y1194D01*
X996Y1196D01*
X992Y1196D01*
X992Y1198D01*
X988Y1198D01*
X988Y1200D01*
X986Y1200D01*
X986Y1202D01*
X984Y1202D01*
X984Y1204D01*
X982Y1204D01*
X982Y1206D01*
X980Y1206D01*
X980Y1208D01*
X978Y1208D01*
X978Y1210D01*
X976Y1210D01*
X976Y1212D01*
X974Y1212D01*
X974Y1214D01*
X972Y1214D01*
X972Y1216D01*
X952Y1216D01*
G37*
D02*
G36*
X1052Y1216D02*
X1052Y1212D01*
X1050Y1212D01*
X1050Y1210D01*
X1048Y1210D01*
X1048Y1208D01*
X1046Y1208D01*
X1046Y1206D01*
X1044Y1206D01*
X1044Y1204D01*
X1042Y1204D01*
X1042Y1202D01*
X1040Y1202D01*
X1040Y1200D01*
X1036Y1200D01*
X1036Y1198D01*
X1034Y1198D01*
X1034Y1196D01*
X1030Y1196D01*
X1030Y1194D01*
X1024Y1194D01*
X1024Y1192D01*
X1102Y1192D01*
X1102Y1194D01*
X1096Y1194D01*
X1096Y1196D01*
X1092Y1196D01*
X1092Y1198D01*
X1088Y1198D01*
X1088Y1200D01*
X1086Y1200D01*
X1086Y1202D01*
X1084Y1202D01*
X1084Y1204D01*
X1082Y1204D01*
X1082Y1206D01*
X1080Y1206D01*
X1080Y1208D01*
X1078Y1208D01*
X1078Y1210D01*
X1076Y1210D01*
X1076Y1212D01*
X1074Y1212D01*
X1074Y1214D01*
X1072Y1214D01*
X1072Y1216D01*
X1052Y1216D01*
G37*
D02*
G36*
X1146Y1208D02*
X1146Y1206D01*
X1144Y1206D01*
X1144Y1204D01*
X1142Y1204D01*
X1142Y1202D01*
X1140Y1202D01*
X1140Y1200D01*
X1136Y1200D01*
X1136Y1198D01*
X1134Y1198D01*
X1134Y1196D01*
X1130Y1196D01*
X1130Y1194D01*
X1124Y1194D01*
X1124Y1192D01*
X1166Y1192D01*
X1166Y1208D01*
X1146Y1208D01*
G37*
D02*
G36*
X366Y1192D02*
X366Y1190D01*
X720Y1190D01*
X720Y1192D01*
X366Y1192D01*
G37*
D02*
G36*
X366Y1192D02*
X366Y1190D01*
X720Y1190D01*
X720Y1192D01*
X366Y1192D01*
G37*
D02*
G36*
X798Y1192D02*
X798Y1190D01*
X1380Y1190D01*
X1380Y1192D01*
X798Y1192D01*
G37*
D02*
G36*
X798Y1192D02*
X798Y1190D01*
X1380Y1190D01*
X1380Y1192D01*
X798Y1192D01*
G37*
D02*
G36*
X798Y1192D02*
X798Y1190D01*
X1380Y1190D01*
X1380Y1192D01*
X798Y1192D01*
G37*
D02*
G36*
X798Y1192D02*
X798Y1190D01*
X1380Y1190D01*
X1380Y1192D01*
X798Y1192D01*
G37*
D02*
G36*
X798Y1192D02*
X798Y1190D01*
X1380Y1190D01*
X1380Y1192D01*
X798Y1192D01*
G37*
D02*
G36*
X368Y1190D02*
X368Y1188D01*
X370Y1188D01*
X370Y1186D01*
X372Y1186D01*
X372Y1184D01*
X374Y1184D01*
X374Y1182D01*
X378Y1182D01*
X378Y1180D01*
X380Y1180D01*
X380Y1178D01*
X382Y1178D01*
X382Y1176D01*
X384Y1176D01*
X384Y1174D01*
X386Y1174D01*
X386Y1172D01*
X388Y1172D01*
X388Y1170D01*
X392Y1170D01*
X392Y1168D01*
X394Y1168D01*
X394Y1166D01*
X396Y1166D01*
X396Y1164D01*
X398Y1164D01*
X398Y1162D01*
X400Y1162D01*
X400Y1160D01*
X402Y1160D01*
X402Y1158D01*
X406Y1158D01*
X406Y1156D01*
X408Y1156D01*
X408Y1154D01*
X410Y1154D01*
X410Y1152D01*
X412Y1152D01*
X412Y1150D01*
X414Y1150D01*
X414Y1148D01*
X416Y1148D01*
X416Y1146D01*
X420Y1146D01*
X420Y1144D01*
X422Y1144D01*
X422Y1142D01*
X424Y1142D01*
X424Y1140D01*
X426Y1140D01*
X426Y1138D01*
X428Y1138D01*
X428Y1136D01*
X430Y1136D01*
X430Y1134D01*
X434Y1134D01*
X434Y1132D01*
X436Y1132D01*
X436Y1130D01*
X458Y1130D01*
X458Y1128D01*
X678Y1128D01*
X678Y1130D01*
X680Y1130D01*
X680Y1132D01*
X682Y1132D01*
X682Y1134D01*
X684Y1134D01*
X684Y1136D01*
X686Y1136D01*
X686Y1138D01*
X688Y1138D01*
X688Y1140D01*
X690Y1140D01*
X690Y1142D01*
X692Y1142D01*
X692Y1144D01*
X694Y1144D01*
X694Y1146D01*
X696Y1146D01*
X696Y1148D01*
X698Y1148D01*
X698Y1150D01*
X700Y1150D01*
X700Y1152D01*
X702Y1152D01*
X702Y1156D01*
X704Y1156D01*
X704Y1158D01*
X706Y1158D01*
X706Y1160D01*
X708Y1160D01*
X708Y1162D01*
X710Y1162D01*
X710Y1164D01*
X712Y1164D01*
X712Y1166D01*
X714Y1166D01*
X714Y1168D01*
X716Y1168D01*
X716Y1170D01*
X718Y1170D01*
X718Y1172D01*
X720Y1172D01*
X720Y1190D01*
X368Y1190D01*
G37*
D02*
G36*
X796Y1190D02*
X796Y1188D01*
X794Y1188D01*
X794Y1186D01*
X792Y1186D01*
X792Y1184D01*
X790Y1184D01*
X790Y1182D01*
X788Y1182D01*
X788Y1180D01*
X786Y1180D01*
X786Y1178D01*
X784Y1178D01*
X784Y1176D01*
X782Y1176D01*
X782Y1174D01*
X780Y1174D01*
X780Y1172D01*
X778Y1172D01*
X778Y1170D01*
X776Y1170D01*
X776Y1166D01*
X774Y1166D01*
X774Y1164D01*
X772Y1164D01*
X772Y1162D01*
X770Y1162D01*
X770Y1160D01*
X768Y1160D01*
X768Y1158D01*
X766Y1158D01*
X766Y1156D01*
X764Y1156D01*
X764Y1154D01*
X762Y1154D01*
X762Y1152D01*
X760Y1152D01*
X760Y1150D01*
X758Y1150D01*
X758Y1148D01*
X756Y1148D01*
X756Y1146D01*
X754Y1146D01*
X754Y1144D01*
X752Y1144D01*
X752Y1142D01*
X750Y1142D01*
X750Y1140D01*
X748Y1140D01*
X748Y1138D01*
X746Y1138D01*
X746Y1136D01*
X744Y1136D01*
X744Y1134D01*
X742Y1134D01*
X742Y1132D01*
X740Y1132D01*
X740Y1130D01*
X738Y1130D01*
X738Y1126D01*
X736Y1126D01*
X736Y1124D01*
X734Y1124D01*
X734Y1122D01*
X732Y1122D01*
X732Y1120D01*
X730Y1120D01*
X730Y1118D01*
X728Y1118D01*
X728Y1116D01*
X726Y1116D01*
X726Y1114D01*
X724Y1114D01*
X724Y1112D01*
X722Y1112D01*
X722Y1110D01*
X720Y1110D01*
X720Y1108D01*
X718Y1108D01*
X718Y1106D01*
X716Y1106D01*
X716Y1104D01*
X714Y1104D01*
X714Y1102D01*
X712Y1102D01*
X712Y1100D01*
X710Y1100D01*
X710Y1098D01*
X708Y1098D01*
X708Y1096D01*
X706Y1096D01*
X706Y1094D01*
X704Y1094D01*
X704Y1092D01*
X702Y1092D01*
X702Y1090D01*
X700Y1090D01*
X700Y1088D01*
X698Y1088D01*
X698Y1086D01*
X694Y1086D01*
X694Y1084D01*
X1034Y1084D01*
X1034Y1086D01*
X1036Y1086D01*
X1036Y1088D01*
X1038Y1088D01*
X1038Y1090D01*
X1040Y1090D01*
X1040Y1092D01*
X1042Y1092D01*
X1042Y1094D01*
X1044Y1094D01*
X1044Y1096D01*
X1046Y1096D01*
X1046Y1098D01*
X1048Y1098D01*
X1048Y1100D01*
X1050Y1100D01*
X1050Y1102D01*
X1052Y1102D01*
X1052Y1104D01*
X1054Y1104D01*
X1054Y1106D01*
X1056Y1106D01*
X1056Y1108D01*
X1058Y1108D01*
X1058Y1110D01*
X1060Y1110D01*
X1060Y1112D01*
X1062Y1112D01*
X1062Y1114D01*
X1064Y1114D01*
X1064Y1116D01*
X1066Y1116D01*
X1066Y1118D01*
X1068Y1118D01*
X1068Y1120D01*
X1070Y1120D01*
X1070Y1122D01*
X1074Y1122D01*
X1074Y1124D01*
X1314Y1124D01*
X1314Y1126D01*
X1316Y1126D01*
X1316Y1128D01*
X1318Y1128D01*
X1318Y1130D01*
X1320Y1130D01*
X1320Y1132D01*
X1322Y1132D01*
X1322Y1134D01*
X1324Y1134D01*
X1324Y1136D01*
X1326Y1136D01*
X1326Y1138D01*
X1328Y1138D01*
X1328Y1140D01*
X1330Y1140D01*
X1330Y1142D01*
X1332Y1142D01*
X1332Y1144D01*
X1334Y1144D01*
X1334Y1146D01*
X1336Y1146D01*
X1336Y1148D01*
X1338Y1148D01*
X1338Y1150D01*
X1340Y1150D01*
X1340Y1152D01*
X1342Y1152D01*
X1342Y1154D01*
X1344Y1154D01*
X1344Y1156D01*
X1346Y1156D01*
X1346Y1158D01*
X1348Y1158D01*
X1348Y1160D01*
X1350Y1160D01*
X1350Y1162D01*
X1352Y1162D01*
X1352Y1164D01*
X1354Y1164D01*
X1354Y1166D01*
X1356Y1166D01*
X1356Y1168D01*
X1358Y1168D01*
X1358Y1170D01*
X1360Y1170D01*
X1360Y1172D01*
X1362Y1172D01*
X1362Y1174D01*
X1364Y1174D01*
X1364Y1176D01*
X1366Y1176D01*
X1366Y1178D01*
X1368Y1178D01*
X1368Y1180D01*
X1370Y1180D01*
X1370Y1182D01*
X1372Y1182D01*
X1372Y1184D01*
X1374Y1184D01*
X1374Y1186D01*
X1376Y1186D01*
X1376Y1188D01*
X1378Y1188D01*
X1378Y1190D01*
X796Y1190D01*
G37*
D02*
G36*
X40Y1084D02*
X40Y1082D01*
X1032Y1082D01*
X1032Y1084D01*
X40Y1084D01*
G37*
D02*
G36*
X40Y1084D02*
X40Y1082D01*
X1032Y1082D01*
X1032Y1084D01*
X40Y1084D01*
G37*
D02*
G36*
X40Y1082D02*
X40Y1026D01*
X318Y1026D01*
X318Y986D01*
X822Y986D01*
X822Y984D01*
X828Y984D01*
X828Y982D01*
X832Y982D01*
X832Y980D01*
X834Y980D01*
X834Y978D01*
X838Y978D01*
X838Y976D01*
X840Y976D01*
X840Y974D01*
X842Y974D01*
X842Y972D01*
X846Y972D01*
X846Y968D01*
X848Y968D01*
X848Y966D01*
X850Y966D01*
X850Y964D01*
X852Y964D01*
X852Y960D01*
X872Y960D01*
X872Y962D01*
X874Y962D01*
X874Y966D01*
X876Y966D01*
X876Y968D01*
X878Y968D01*
X878Y970D01*
X880Y970D01*
X880Y972D01*
X882Y972D01*
X882Y974D01*
X884Y974D01*
X884Y976D01*
X888Y976D01*
X888Y978D01*
X890Y978D01*
X890Y980D01*
X894Y980D01*
X894Y982D01*
X898Y982D01*
X898Y984D01*
X904Y984D01*
X904Y986D01*
X936Y986D01*
X936Y988D01*
X938Y988D01*
X938Y990D01*
X940Y990D01*
X940Y992D01*
X942Y992D01*
X942Y994D01*
X944Y994D01*
X944Y996D01*
X946Y996D01*
X946Y998D01*
X948Y998D01*
X948Y1000D01*
X950Y1000D01*
X950Y1002D01*
X952Y1002D01*
X952Y1004D01*
X954Y1004D01*
X954Y1006D01*
X956Y1006D01*
X956Y1008D01*
X958Y1008D01*
X958Y1010D01*
X960Y1010D01*
X960Y1012D01*
X962Y1012D01*
X962Y1014D01*
X964Y1014D01*
X964Y1016D01*
X966Y1016D01*
X966Y1018D01*
X968Y1018D01*
X968Y1020D01*
X970Y1020D01*
X970Y1022D01*
X972Y1022D01*
X972Y1024D01*
X974Y1024D01*
X974Y1026D01*
X976Y1026D01*
X976Y1028D01*
X978Y1028D01*
X978Y1030D01*
X980Y1030D01*
X980Y1032D01*
X982Y1032D01*
X982Y1034D01*
X984Y1034D01*
X984Y1036D01*
X986Y1036D01*
X986Y1038D01*
X988Y1038D01*
X988Y1040D01*
X990Y1040D01*
X990Y1042D01*
X992Y1042D01*
X992Y1044D01*
X994Y1044D01*
X994Y1046D01*
X996Y1046D01*
X996Y1048D01*
X998Y1048D01*
X998Y1050D01*
X1000Y1050D01*
X1000Y1052D01*
X1002Y1052D01*
X1002Y1054D01*
X1004Y1054D01*
X1004Y1056D01*
X1006Y1056D01*
X1006Y1058D01*
X1008Y1058D01*
X1008Y1060D01*
X1010Y1060D01*
X1010Y1062D01*
X1012Y1062D01*
X1012Y1064D01*
X1014Y1064D01*
X1014Y1066D01*
X1016Y1066D01*
X1016Y1068D01*
X1018Y1068D01*
X1018Y1070D01*
X1020Y1070D01*
X1020Y1072D01*
X1022Y1072D01*
X1022Y1074D01*
X1024Y1074D01*
X1024Y1076D01*
X1026Y1076D01*
X1026Y1078D01*
X1028Y1078D01*
X1028Y1080D01*
X1030Y1080D01*
X1030Y1082D01*
X40Y1082D01*
G37*
D02*
G36*
X40Y1026D02*
X40Y928D01*
X220Y928D01*
X220Y1026D01*
X40Y1026D01*
G37*
D02*
G36*
X318Y986D02*
X318Y928D01*
X566Y928D01*
X566Y950D01*
X568Y950D01*
X568Y956D01*
X570Y956D01*
X570Y958D01*
X572Y958D01*
X572Y962D01*
X574Y962D01*
X574Y966D01*
X576Y966D01*
X576Y968D01*
X578Y968D01*
X578Y970D01*
X580Y970D01*
X580Y972D01*
X582Y972D01*
X582Y974D01*
X584Y974D01*
X584Y976D01*
X588Y976D01*
X588Y978D01*
X590Y978D01*
X590Y980D01*
X594Y980D01*
X594Y982D01*
X598Y982D01*
X598Y984D01*
X604Y984D01*
X604Y986D01*
X318Y986D01*
G37*
D02*
G36*
X622Y986D02*
X622Y984D01*
X628Y984D01*
X628Y982D01*
X632Y982D01*
X632Y980D01*
X634Y980D01*
X634Y978D01*
X638Y978D01*
X638Y976D01*
X640Y976D01*
X640Y974D01*
X642Y974D01*
X642Y972D01*
X646Y972D01*
X646Y968D01*
X648Y968D01*
X648Y966D01*
X650Y966D01*
X650Y964D01*
X652Y964D01*
X652Y960D01*
X672Y960D01*
X672Y962D01*
X674Y962D01*
X674Y966D01*
X676Y966D01*
X676Y968D01*
X678Y968D01*
X678Y970D01*
X680Y970D01*
X680Y972D01*
X682Y972D01*
X682Y974D01*
X684Y974D01*
X684Y976D01*
X688Y976D01*
X688Y978D01*
X690Y978D01*
X690Y980D01*
X694Y980D01*
X694Y982D01*
X698Y982D01*
X698Y984D01*
X704Y984D01*
X704Y986D01*
X622Y986D01*
G37*
D02*
G36*
X722Y986D02*
X722Y984D01*
X728Y984D01*
X728Y982D01*
X732Y982D01*
X732Y980D01*
X734Y980D01*
X734Y978D01*
X738Y978D01*
X738Y976D01*
X740Y976D01*
X740Y974D01*
X742Y974D01*
X742Y972D01*
X746Y972D01*
X746Y968D01*
X748Y968D01*
X748Y966D01*
X750Y966D01*
X750Y964D01*
X752Y964D01*
X752Y960D01*
X772Y960D01*
X772Y962D01*
X774Y962D01*
X774Y966D01*
X776Y966D01*
X776Y968D01*
X778Y968D01*
X778Y970D01*
X780Y970D01*
X780Y972D01*
X782Y972D01*
X782Y974D01*
X784Y974D01*
X784Y976D01*
X788Y976D01*
X788Y978D01*
X790Y978D01*
X790Y980D01*
X794Y980D01*
X794Y982D01*
X798Y982D01*
X798Y984D01*
X804Y984D01*
X804Y986D01*
X722Y986D01*
G37*
D02*
G36*
X40Y928D02*
X40Y926D01*
X568Y926D01*
X568Y928D01*
X40Y928D01*
G37*
D02*
G36*
X40Y928D02*
X40Y926D01*
X568Y926D01*
X568Y928D01*
X40Y928D01*
G37*
D02*
G36*
X40Y926D02*
X40Y892D01*
X602Y892D01*
X602Y894D01*
X596Y894D01*
X596Y896D01*
X592Y896D01*
X592Y898D01*
X588Y898D01*
X588Y900D01*
X586Y900D01*
X586Y902D01*
X584Y902D01*
X584Y904D01*
X582Y904D01*
X582Y906D01*
X580Y906D01*
X580Y908D01*
X578Y908D01*
X578Y910D01*
X576Y910D01*
X576Y912D01*
X574Y912D01*
X574Y914D01*
X572Y914D01*
X572Y918D01*
X570Y918D01*
X570Y922D01*
X568Y922D01*
X568Y926D01*
X40Y926D01*
G37*
D02*
G36*
X652Y916D02*
X652Y912D01*
X650Y912D01*
X650Y910D01*
X648Y910D01*
X648Y908D01*
X646Y908D01*
X646Y906D01*
X644Y906D01*
X644Y904D01*
X642Y904D01*
X642Y902D01*
X640Y902D01*
X640Y900D01*
X636Y900D01*
X636Y898D01*
X634Y898D01*
X634Y896D01*
X630Y896D01*
X630Y894D01*
X624Y894D01*
X624Y892D01*
X690Y892D01*
X690Y898D01*
X688Y898D01*
X688Y900D01*
X686Y900D01*
X686Y902D01*
X684Y902D01*
X684Y904D01*
X682Y904D01*
X682Y906D01*
X680Y906D01*
X680Y908D01*
X678Y908D01*
X678Y910D01*
X676Y910D01*
X676Y912D01*
X674Y912D01*
X674Y914D01*
X672Y914D01*
X672Y916D01*
X652Y916D01*
G37*
D02*
G36*
X752Y916D02*
X752Y912D01*
X750Y912D01*
X750Y910D01*
X748Y910D01*
X748Y908D01*
X746Y908D01*
X746Y906D01*
X744Y906D01*
X744Y904D01*
X742Y904D01*
X742Y902D01*
X740Y902D01*
X740Y900D01*
X736Y900D01*
X736Y898D01*
X734Y898D01*
X734Y848D01*
X732Y848D01*
X732Y844D01*
X730Y844D01*
X730Y842D01*
X728Y842D01*
X728Y838D01*
X726Y838D01*
X726Y836D01*
X724Y836D01*
X724Y834D01*
X722Y834D01*
X722Y832D01*
X720Y832D01*
X720Y830D01*
X718Y830D01*
X718Y828D01*
X716Y828D01*
X716Y826D01*
X714Y826D01*
X714Y824D01*
X712Y824D01*
X712Y822D01*
X710Y822D01*
X710Y820D01*
X708Y820D01*
X708Y818D01*
X706Y818D01*
X706Y816D01*
X704Y816D01*
X704Y814D01*
X702Y814D01*
X702Y812D01*
X700Y812D01*
X700Y810D01*
X698Y810D01*
X698Y808D01*
X696Y808D01*
X696Y806D01*
X694Y806D01*
X694Y804D01*
X692Y804D01*
X692Y802D01*
X690Y802D01*
X690Y800D01*
X688Y800D01*
X688Y798D01*
X686Y798D01*
X686Y796D01*
X684Y796D01*
X684Y794D01*
X682Y794D01*
X682Y792D01*
X680Y792D01*
X680Y790D01*
X678Y790D01*
X678Y788D01*
X676Y788D01*
X676Y786D01*
X674Y786D01*
X674Y784D01*
X672Y784D01*
X672Y782D01*
X670Y782D01*
X670Y780D01*
X668Y780D01*
X668Y778D01*
X666Y778D01*
X666Y776D01*
X664Y776D01*
X664Y774D01*
X662Y774D01*
X662Y772D01*
X660Y772D01*
X660Y770D01*
X658Y770D01*
X658Y768D01*
X656Y768D01*
X656Y766D01*
X654Y766D01*
X654Y764D01*
X652Y764D01*
X652Y762D01*
X650Y762D01*
X650Y760D01*
X648Y760D01*
X648Y758D01*
X646Y758D01*
X646Y756D01*
X644Y756D01*
X644Y754D01*
X642Y754D01*
X642Y752D01*
X640Y752D01*
X640Y750D01*
X638Y750D01*
X638Y748D01*
X636Y748D01*
X636Y746D01*
X634Y746D01*
X634Y744D01*
X632Y744D01*
X632Y742D01*
X630Y742D01*
X630Y740D01*
X628Y740D01*
X628Y738D01*
X626Y738D01*
X626Y736D01*
X624Y736D01*
X624Y734D01*
X622Y734D01*
X622Y732D01*
X620Y732D01*
X620Y730D01*
X618Y730D01*
X618Y728D01*
X616Y728D01*
X616Y726D01*
X1296Y726D01*
X1296Y644D01*
X1294Y644D01*
X1294Y642D01*
X1498Y642D01*
X1498Y644D01*
X1496Y644D01*
X1496Y646D01*
X1494Y646D01*
X1494Y648D01*
X1492Y648D01*
X1492Y650D01*
X1490Y650D01*
X1490Y652D01*
X1488Y652D01*
X1488Y654D01*
X1486Y654D01*
X1486Y656D01*
X1484Y656D01*
X1484Y658D01*
X1482Y658D01*
X1482Y660D01*
X1480Y660D01*
X1480Y662D01*
X1478Y662D01*
X1478Y664D01*
X1476Y664D01*
X1476Y666D01*
X1474Y666D01*
X1474Y668D01*
X1472Y668D01*
X1472Y670D01*
X1470Y670D01*
X1470Y672D01*
X1468Y672D01*
X1468Y674D01*
X1466Y674D01*
X1466Y676D01*
X1464Y676D01*
X1464Y678D01*
X1462Y678D01*
X1462Y680D01*
X1460Y680D01*
X1460Y682D01*
X1458Y682D01*
X1458Y684D01*
X1456Y684D01*
X1456Y686D01*
X1454Y686D01*
X1454Y688D01*
X1452Y688D01*
X1452Y690D01*
X1450Y690D01*
X1450Y692D01*
X1448Y692D01*
X1448Y694D01*
X1446Y694D01*
X1446Y696D01*
X1444Y696D01*
X1444Y698D01*
X1442Y698D01*
X1442Y700D01*
X1440Y700D01*
X1440Y702D01*
X1438Y702D01*
X1438Y704D01*
X1436Y704D01*
X1436Y706D01*
X1434Y706D01*
X1434Y708D01*
X1432Y708D01*
X1432Y710D01*
X1430Y710D01*
X1430Y712D01*
X1428Y712D01*
X1428Y714D01*
X1426Y714D01*
X1426Y716D01*
X1424Y716D01*
X1424Y718D01*
X1422Y718D01*
X1422Y720D01*
X1420Y720D01*
X1420Y722D01*
X1418Y722D01*
X1418Y724D01*
X1416Y724D01*
X1416Y726D01*
X1414Y726D01*
X1414Y728D01*
X1412Y728D01*
X1412Y730D01*
X1410Y730D01*
X1410Y732D01*
X1408Y732D01*
X1408Y734D01*
X1406Y734D01*
X1406Y736D01*
X1404Y736D01*
X1404Y738D01*
X1402Y738D01*
X1402Y740D01*
X1400Y740D01*
X1400Y742D01*
X1398Y742D01*
X1398Y744D01*
X1396Y744D01*
X1396Y746D01*
X1394Y746D01*
X1394Y748D01*
X1392Y748D01*
X1392Y750D01*
X1390Y750D01*
X1390Y752D01*
X1388Y752D01*
X1388Y754D01*
X1386Y754D01*
X1386Y756D01*
X1384Y756D01*
X1384Y758D01*
X1382Y758D01*
X1382Y760D01*
X1380Y760D01*
X1380Y762D01*
X1378Y762D01*
X1378Y764D01*
X1376Y764D01*
X1376Y766D01*
X1374Y766D01*
X1374Y768D01*
X1372Y768D01*
X1372Y770D01*
X1370Y770D01*
X1370Y772D01*
X1368Y772D01*
X1368Y774D01*
X1366Y774D01*
X1366Y776D01*
X1364Y776D01*
X1364Y778D01*
X1362Y778D01*
X1362Y780D01*
X942Y780D01*
X942Y782D01*
X936Y782D01*
X936Y784D01*
X934Y784D01*
X934Y786D01*
X930Y786D01*
X930Y788D01*
X928Y788D01*
X928Y790D01*
X926Y790D01*
X926Y792D01*
X924Y792D01*
X924Y796D01*
X922Y796D01*
X922Y798D01*
X920Y798D01*
X920Y800D01*
X918Y800D01*
X918Y802D01*
X916Y802D01*
X916Y804D01*
X914Y804D01*
X914Y806D01*
X912Y806D01*
X912Y808D01*
X910Y808D01*
X910Y810D01*
X908Y810D01*
X908Y812D01*
X906Y812D01*
X906Y814D01*
X904Y814D01*
X904Y816D01*
X902Y816D01*
X902Y818D01*
X900Y818D01*
X900Y820D01*
X898Y820D01*
X898Y822D01*
X896Y822D01*
X896Y824D01*
X894Y824D01*
X894Y826D01*
X892Y826D01*
X892Y828D01*
X890Y828D01*
X890Y830D01*
X888Y830D01*
X888Y832D01*
X886Y832D01*
X886Y834D01*
X884Y834D01*
X884Y836D01*
X882Y836D01*
X882Y838D01*
X880Y838D01*
X880Y840D01*
X878Y840D01*
X878Y842D01*
X876Y842D01*
X876Y844D01*
X874Y844D01*
X874Y846D01*
X872Y846D01*
X872Y848D01*
X870Y848D01*
X870Y850D01*
X868Y850D01*
X868Y852D01*
X866Y852D01*
X866Y854D01*
X864Y854D01*
X864Y856D01*
X862Y856D01*
X862Y858D01*
X860Y858D01*
X860Y860D01*
X858Y860D01*
X858Y862D01*
X856Y862D01*
X856Y864D01*
X854Y864D01*
X854Y866D01*
X852Y866D01*
X852Y868D01*
X850Y868D01*
X850Y870D01*
X848Y870D01*
X848Y872D01*
X846Y872D01*
X846Y874D01*
X844Y874D01*
X844Y876D01*
X842Y876D01*
X842Y878D01*
X840Y878D01*
X840Y880D01*
X838Y880D01*
X838Y882D01*
X836Y882D01*
X836Y884D01*
X834Y884D01*
X834Y886D01*
X832Y886D01*
X832Y888D01*
X830Y888D01*
X830Y890D01*
X828Y890D01*
X828Y892D01*
X802Y892D01*
X802Y894D01*
X796Y894D01*
X796Y896D01*
X792Y896D01*
X792Y898D01*
X788Y898D01*
X788Y900D01*
X786Y900D01*
X786Y902D01*
X784Y902D01*
X784Y904D01*
X782Y904D01*
X782Y906D01*
X780Y906D01*
X780Y908D01*
X778Y908D01*
X778Y910D01*
X776Y910D01*
X776Y912D01*
X774Y912D01*
X774Y914D01*
X772Y914D01*
X772Y916D01*
X752Y916D01*
G37*
D02*
G36*
X40Y892D02*
X40Y890D01*
X690Y890D01*
X690Y892D01*
X40Y892D01*
G37*
D02*
G36*
X40Y892D02*
X40Y890D01*
X690Y890D01*
X690Y892D01*
X40Y892D01*
G37*
D02*
G36*
X40Y890D02*
X40Y724D01*
X334Y724D01*
X334Y642D01*
X314Y642D01*
X314Y606D01*
X316Y606D01*
X316Y424D01*
X318Y424D01*
X318Y376D01*
X390Y376D01*
X390Y378D01*
X384Y378D01*
X384Y380D01*
X378Y380D01*
X378Y382D01*
X374Y382D01*
X374Y384D01*
X372Y384D01*
X372Y386D01*
X368Y386D01*
X368Y388D01*
X366Y388D01*
X366Y390D01*
X364Y390D01*
X364Y392D01*
X362Y392D01*
X362Y394D01*
X360Y394D01*
X360Y396D01*
X358Y396D01*
X358Y398D01*
X356Y398D01*
X356Y402D01*
X354Y402D01*
X354Y406D01*
X352Y406D01*
X352Y410D01*
X350Y410D01*
X350Y416D01*
X348Y416D01*
X348Y432D01*
X350Y432D01*
X350Y438D01*
X352Y438D01*
X352Y442D01*
X354Y442D01*
X354Y446D01*
X356Y446D01*
X356Y450D01*
X358Y450D01*
X358Y452D01*
X360Y452D01*
X360Y454D01*
X362Y454D01*
X362Y456D01*
X364Y456D01*
X364Y458D01*
X366Y458D01*
X366Y460D01*
X368Y460D01*
X368Y462D01*
X370Y462D01*
X370Y464D01*
X374Y464D01*
X374Y466D01*
X378Y466D01*
X378Y468D01*
X382Y468D01*
X382Y490D01*
X376Y490D01*
X376Y492D01*
X372Y492D01*
X372Y494D01*
X370Y494D01*
X370Y496D01*
X366Y496D01*
X366Y498D01*
X364Y498D01*
X364Y500D01*
X362Y500D01*
X362Y502D01*
X360Y502D01*
X360Y504D01*
X358Y504D01*
X358Y506D01*
X356Y506D01*
X356Y508D01*
X354Y508D01*
X354Y510D01*
X352Y510D01*
X352Y514D01*
X350Y514D01*
X350Y518D01*
X348Y518D01*
X348Y522D01*
X346Y522D01*
X346Y530D01*
X344Y530D01*
X344Y540D01*
X346Y540D01*
X346Y548D01*
X348Y548D01*
X348Y552D01*
X350Y552D01*
X350Y556D01*
X352Y556D01*
X352Y560D01*
X354Y560D01*
X354Y562D01*
X356Y562D01*
X356Y564D01*
X358Y564D01*
X358Y568D01*
X362Y568D01*
X362Y570D01*
X364Y570D01*
X364Y572D01*
X366Y572D01*
X366Y574D01*
X368Y574D01*
X368Y576D01*
X372Y576D01*
X372Y578D01*
X376Y578D01*
X376Y580D01*
X382Y580D01*
X382Y582D01*
X408Y582D01*
X408Y584D01*
X410Y584D01*
X410Y586D01*
X412Y586D01*
X412Y588D01*
X414Y588D01*
X414Y590D01*
X416Y590D01*
X416Y592D01*
X418Y592D01*
X418Y594D01*
X420Y594D01*
X420Y596D01*
X422Y596D01*
X422Y598D01*
X424Y598D01*
X424Y600D01*
X426Y600D01*
X426Y602D01*
X428Y602D01*
X428Y604D01*
X430Y604D01*
X430Y606D01*
X432Y606D01*
X432Y608D01*
X434Y608D01*
X434Y610D01*
X436Y610D01*
X436Y612D01*
X438Y612D01*
X438Y614D01*
X440Y614D01*
X440Y616D01*
X442Y616D01*
X442Y618D01*
X444Y618D01*
X444Y620D01*
X446Y620D01*
X446Y622D01*
X448Y622D01*
X448Y624D01*
X450Y624D01*
X450Y626D01*
X452Y626D01*
X452Y628D01*
X454Y628D01*
X454Y630D01*
X456Y630D01*
X456Y632D01*
X458Y632D01*
X458Y634D01*
X460Y634D01*
X460Y636D01*
X462Y636D01*
X462Y638D01*
X464Y638D01*
X464Y640D01*
X466Y640D01*
X466Y642D01*
X468Y642D01*
X468Y644D01*
X470Y644D01*
X470Y646D01*
X472Y646D01*
X472Y648D01*
X474Y648D01*
X474Y650D01*
X476Y650D01*
X476Y652D01*
X478Y652D01*
X478Y654D01*
X480Y654D01*
X480Y656D01*
X482Y656D01*
X482Y658D01*
X484Y658D01*
X484Y660D01*
X486Y660D01*
X486Y662D01*
X488Y662D01*
X488Y664D01*
X490Y664D01*
X490Y666D01*
X492Y666D01*
X492Y668D01*
X494Y668D01*
X494Y670D01*
X496Y670D01*
X496Y672D01*
X498Y672D01*
X498Y674D01*
X500Y674D01*
X500Y676D01*
X502Y676D01*
X502Y678D01*
X504Y678D01*
X504Y680D01*
X506Y680D01*
X506Y682D01*
X508Y682D01*
X508Y684D01*
X510Y684D01*
X510Y686D01*
X512Y686D01*
X512Y688D01*
X514Y688D01*
X514Y690D01*
X516Y690D01*
X516Y692D01*
X518Y692D01*
X518Y694D01*
X520Y694D01*
X520Y696D01*
X522Y696D01*
X522Y698D01*
X524Y698D01*
X524Y700D01*
X526Y700D01*
X526Y702D01*
X528Y702D01*
X528Y704D01*
X530Y704D01*
X530Y706D01*
X532Y706D01*
X532Y708D01*
X534Y708D01*
X534Y710D01*
X536Y710D01*
X536Y712D01*
X538Y712D01*
X538Y714D01*
X540Y714D01*
X540Y716D01*
X542Y716D01*
X542Y718D01*
X544Y718D01*
X544Y720D01*
X546Y720D01*
X546Y722D01*
X548Y722D01*
X548Y724D01*
X550Y724D01*
X550Y726D01*
X552Y726D01*
X552Y728D01*
X554Y728D01*
X554Y730D01*
X556Y730D01*
X556Y732D01*
X558Y732D01*
X558Y734D01*
X560Y734D01*
X560Y736D01*
X562Y736D01*
X562Y738D01*
X564Y738D01*
X564Y740D01*
X566Y740D01*
X566Y742D01*
X568Y742D01*
X568Y744D01*
X570Y744D01*
X570Y746D01*
X572Y746D01*
X572Y748D01*
X574Y748D01*
X574Y750D01*
X576Y750D01*
X576Y752D01*
X578Y752D01*
X578Y754D01*
X580Y754D01*
X580Y756D01*
X582Y756D01*
X582Y758D01*
X584Y758D01*
X584Y760D01*
X586Y760D01*
X586Y762D01*
X588Y762D01*
X588Y764D01*
X590Y764D01*
X590Y766D01*
X592Y766D01*
X592Y768D01*
X594Y768D01*
X594Y770D01*
X596Y770D01*
X596Y772D01*
X598Y772D01*
X598Y774D01*
X600Y774D01*
X600Y776D01*
X602Y776D01*
X602Y778D01*
X604Y778D01*
X604Y780D01*
X606Y780D01*
X606Y782D01*
X608Y782D01*
X608Y784D01*
X610Y784D01*
X610Y786D01*
X612Y786D01*
X612Y788D01*
X614Y788D01*
X614Y790D01*
X616Y790D01*
X616Y792D01*
X618Y792D01*
X618Y794D01*
X620Y794D01*
X620Y796D01*
X622Y796D01*
X622Y798D01*
X624Y798D01*
X624Y800D01*
X626Y800D01*
X626Y802D01*
X628Y802D01*
X628Y804D01*
X630Y804D01*
X630Y806D01*
X632Y806D01*
X632Y808D01*
X634Y808D01*
X634Y810D01*
X636Y810D01*
X636Y812D01*
X638Y812D01*
X638Y814D01*
X640Y814D01*
X640Y816D01*
X642Y816D01*
X642Y818D01*
X644Y818D01*
X644Y820D01*
X646Y820D01*
X646Y822D01*
X648Y822D01*
X648Y824D01*
X650Y824D01*
X650Y826D01*
X652Y826D01*
X652Y828D01*
X654Y828D01*
X654Y830D01*
X656Y830D01*
X656Y832D01*
X658Y832D01*
X658Y834D01*
X660Y834D01*
X660Y836D01*
X662Y836D01*
X662Y838D01*
X664Y838D01*
X664Y840D01*
X666Y840D01*
X666Y842D01*
X668Y842D01*
X668Y844D01*
X670Y844D01*
X670Y846D01*
X672Y846D01*
X672Y848D01*
X674Y848D01*
X674Y850D01*
X676Y850D01*
X676Y852D01*
X678Y852D01*
X678Y854D01*
X680Y854D01*
X680Y856D01*
X682Y856D01*
X682Y858D01*
X684Y858D01*
X684Y860D01*
X686Y860D01*
X686Y862D01*
X688Y862D01*
X688Y864D01*
X690Y864D01*
X690Y890D01*
X40Y890D01*
G37*
D02*
G36*
X614Y726D02*
X614Y724D01*
X612Y724D01*
X612Y722D01*
X610Y722D01*
X610Y720D01*
X608Y720D01*
X608Y718D01*
X606Y718D01*
X606Y716D01*
X604Y716D01*
X604Y714D01*
X602Y714D01*
X602Y712D01*
X600Y712D01*
X600Y710D01*
X598Y710D01*
X598Y708D01*
X596Y708D01*
X596Y706D01*
X594Y706D01*
X594Y704D01*
X592Y704D01*
X592Y702D01*
X590Y702D01*
X590Y700D01*
X588Y700D01*
X588Y698D01*
X586Y698D01*
X586Y696D01*
X584Y696D01*
X584Y694D01*
X582Y694D01*
X582Y692D01*
X580Y692D01*
X580Y690D01*
X578Y690D01*
X578Y688D01*
X576Y688D01*
X576Y686D01*
X574Y686D01*
X574Y684D01*
X572Y684D01*
X572Y682D01*
X570Y682D01*
X570Y680D01*
X568Y680D01*
X568Y678D01*
X566Y678D01*
X566Y676D01*
X564Y676D01*
X564Y674D01*
X562Y674D01*
X562Y672D01*
X560Y672D01*
X560Y670D01*
X558Y670D01*
X558Y668D01*
X556Y668D01*
X556Y666D01*
X554Y666D01*
X554Y664D01*
X552Y664D01*
X552Y662D01*
X550Y662D01*
X550Y660D01*
X548Y660D01*
X548Y658D01*
X546Y658D01*
X546Y656D01*
X544Y656D01*
X544Y654D01*
X542Y654D01*
X542Y652D01*
X540Y652D01*
X540Y650D01*
X538Y650D01*
X538Y648D01*
X536Y648D01*
X536Y646D01*
X534Y646D01*
X534Y644D01*
X532Y644D01*
X532Y642D01*
X530Y642D01*
X530Y640D01*
X528Y640D01*
X528Y638D01*
X526Y638D01*
X526Y636D01*
X524Y636D01*
X524Y634D01*
X522Y634D01*
X522Y632D01*
X520Y632D01*
X520Y630D01*
X518Y630D01*
X518Y628D01*
X516Y628D01*
X516Y626D01*
X514Y626D01*
X514Y624D01*
X512Y624D01*
X512Y622D01*
X510Y622D01*
X510Y620D01*
X508Y620D01*
X508Y618D01*
X506Y618D01*
X506Y616D01*
X504Y616D01*
X504Y614D01*
X502Y614D01*
X502Y612D01*
X500Y612D01*
X500Y610D01*
X498Y610D01*
X498Y608D01*
X496Y608D01*
X496Y606D01*
X494Y606D01*
X494Y604D01*
X492Y604D01*
X492Y602D01*
X490Y602D01*
X490Y600D01*
X488Y600D01*
X488Y598D01*
X486Y598D01*
X486Y596D01*
X484Y596D01*
X484Y594D01*
X482Y594D01*
X482Y592D01*
X480Y592D01*
X480Y590D01*
X478Y590D01*
X478Y588D01*
X476Y588D01*
X476Y586D01*
X474Y586D01*
X474Y584D01*
X472Y584D01*
X472Y582D01*
X470Y582D01*
X470Y580D01*
X468Y580D01*
X468Y578D01*
X466Y578D01*
X466Y576D01*
X464Y576D01*
X464Y574D01*
X462Y574D01*
X462Y572D01*
X460Y572D01*
X460Y570D01*
X458Y570D01*
X458Y568D01*
X456Y568D01*
X456Y566D01*
X454Y566D01*
X454Y564D01*
X452Y564D01*
X452Y562D01*
X450Y562D01*
X450Y560D01*
X448Y560D01*
X448Y558D01*
X446Y558D01*
X446Y556D01*
X444Y556D01*
X444Y554D01*
X442Y554D01*
X442Y552D01*
X440Y552D01*
X440Y530D01*
X438Y530D01*
X438Y522D01*
X436Y522D01*
X436Y518D01*
X434Y518D01*
X434Y514D01*
X432Y514D01*
X432Y510D01*
X430Y510D01*
X430Y508D01*
X428Y508D01*
X428Y506D01*
X426Y506D01*
X426Y504D01*
X424Y504D01*
X424Y502D01*
X422Y502D01*
X422Y500D01*
X420Y500D01*
X420Y498D01*
X418Y498D01*
X418Y496D01*
X414Y496D01*
X414Y494D01*
X550Y494D01*
X550Y496D01*
X544Y496D01*
X544Y498D01*
X540Y498D01*
X540Y500D01*
X536Y500D01*
X536Y502D01*
X532Y502D01*
X532Y504D01*
X530Y504D01*
X530Y506D01*
X528Y506D01*
X528Y508D01*
X526Y508D01*
X526Y510D01*
X524Y510D01*
X524Y512D01*
X522Y512D01*
X522Y514D01*
X520Y514D01*
X520Y516D01*
X518Y516D01*
X518Y520D01*
X516Y520D01*
X516Y524D01*
X514Y524D01*
X514Y530D01*
X512Y530D01*
X512Y536D01*
X510Y536D01*
X510Y546D01*
X512Y546D01*
X512Y554D01*
X514Y554D01*
X514Y560D01*
X516Y560D01*
X516Y562D01*
X518Y562D01*
X518Y566D01*
X520Y566D01*
X520Y568D01*
X522Y568D01*
X522Y572D01*
X524Y572D01*
X524Y574D01*
X526Y574D01*
X526Y576D01*
X528Y576D01*
X528Y578D01*
X532Y578D01*
X532Y580D01*
X534Y580D01*
X534Y582D01*
X538Y582D01*
X538Y584D01*
X540Y584D01*
X540Y586D01*
X546Y586D01*
X546Y588D01*
X556Y588D01*
X556Y590D01*
X580Y590D01*
X580Y592D01*
X582Y592D01*
X582Y594D01*
X584Y594D01*
X584Y596D01*
X586Y596D01*
X586Y598D01*
X588Y598D01*
X588Y600D01*
X590Y600D01*
X590Y602D01*
X592Y602D01*
X592Y604D01*
X594Y604D01*
X594Y606D01*
X596Y606D01*
X596Y608D01*
X598Y608D01*
X598Y610D01*
X600Y610D01*
X600Y612D01*
X602Y612D01*
X602Y614D01*
X604Y614D01*
X604Y616D01*
X608Y616D01*
X608Y618D01*
X610Y618D01*
X610Y620D01*
X612Y620D01*
X612Y622D01*
X614Y622D01*
X614Y624D01*
X616Y624D01*
X616Y626D01*
X618Y626D01*
X618Y628D01*
X620Y628D01*
X620Y630D01*
X622Y630D01*
X622Y632D01*
X624Y632D01*
X624Y634D01*
X626Y634D01*
X626Y636D01*
X628Y636D01*
X628Y638D01*
X630Y638D01*
X630Y658D01*
X628Y658D01*
X628Y662D01*
X626Y662D01*
X626Y664D01*
X624Y664D01*
X624Y668D01*
X622Y668D01*
X622Y670D01*
X620Y670D01*
X620Y676D01*
X618Y676D01*
X618Y694D01*
X620Y694D01*
X620Y700D01*
X622Y700D01*
X622Y704D01*
X624Y704D01*
X624Y706D01*
X626Y706D01*
X626Y710D01*
X628Y710D01*
X628Y712D01*
X630Y712D01*
X630Y714D01*
X632Y714D01*
X632Y716D01*
X634Y716D01*
X634Y718D01*
X636Y718D01*
X636Y720D01*
X640Y720D01*
X640Y722D01*
X644Y722D01*
X644Y724D01*
X648Y724D01*
X648Y726D01*
X614Y726D01*
G37*
D02*
G36*
X670Y726D02*
X670Y724D01*
X674Y724D01*
X674Y722D01*
X678Y722D01*
X678Y720D01*
X682Y720D01*
X682Y718D01*
X684Y718D01*
X684Y716D01*
X686Y716D01*
X686Y714D01*
X688Y714D01*
X688Y712D01*
X690Y712D01*
X690Y710D01*
X692Y710D01*
X692Y708D01*
X694Y708D01*
X694Y704D01*
X696Y704D01*
X696Y700D01*
X716Y700D01*
X716Y726D01*
X670Y726D01*
G37*
D02*
G36*
X800Y726D02*
X800Y644D01*
X1104Y644D01*
X1104Y646D01*
X1106Y646D01*
X1106Y648D01*
X1108Y648D01*
X1108Y650D01*
X1110Y650D01*
X1110Y652D01*
X1112Y652D01*
X1112Y654D01*
X1114Y654D01*
X1114Y658D01*
X1116Y658D01*
X1116Y678D01*
X1114Y678D01*
X1114Y692D01*
X1116Y692D01*
X1116Y698D01*
X1118Y698D01*
X1118Y702D01*
X1120Y702D01*
X1120Y704D01*
X1122Y704D01*
X1122Y708D01*
X1124Y708D01*
X1124Y710D01*
X1126Y710D01*
X1126Y712D01*
X1128Y712D01*
X1128Y714D01*
X1130Y714D01*
X1130Y716D01*
X1132Y716D01*
X1132Y718D01*
X1136Y718D01*
X1136Y720D01*
X1138Y720D01*
X1138Y722D01*
X1142Y722D01*
X1142Y724D01*
X1148Y724D01*
X1148Y726D01*
X800Y726D01*
G37*
D02*
G36*
X1162Y726D02*
X1162Y724D01*
X1168Y724D01*
X1168Y722D01*
X1172Y722D01*
X1172Y720D01*
X1176Y720D01*
X1176Y718D01*
X1180Y718D01*
X1180Y716D01*
X1182Y716D01*
X1182Y714D01*
X1184Y714D01*
X1184Y712D01*
X1186Y712D01*
X1186Y710D01*
X1188Y710D01*
X1188Y708D01*
X1190Y708D01*
X1190Y704D01*
X1192Y704D01*
X1192Y700D01*
X1212Y700D01*
X1212Y726D01*
X1162Y726D01*
G37*
D02*
G36*
X40Y724D02*
X40Y642D01*
X184Y642D01*
X184Y644D01*
X178Y644D01*
X178Y646D01*
X174Y646D01*
X174Y648D01*
X172Y648D01*
X172Y650D01*
X170Y650D01*
X170Y652D01*
X166Y652D01*
X166Y654D01*
X164Y654D01*
X164Y658D01*
X162Y658D01*
X162Y660D01*
X160Y660D01*
X160Y662D01*
X158Y662D01*
X158Y666D01*
X156Y666D01*
X156Y670D01*
X154Y670D01*
X154Y676D01*
X152Y676D01*
X152Y690D01*
X154Y690D01*
X154Y696D01*
X156Y696D01*
X156Y700D01*
X158Y700D01*
X158Y704D01*
X160Y704D01*
X160Y706D01*
X162Y706D01*
X162Y708D01*
X164Y708D01*
X164Y710D01*
X166Y710D01*
X166Y712D01*
X168Y712D01*
X168Y714D01*
X170Y714D01*
X170Y716D01*
X172Y716D01*
X172Y718D01*
X176Y718D01*
X176Y720D01*
X180Y720D01*
X180Y722D01*
X186Y722D01*
X186Y724D01*
X40Y724D01*
G37*
D02*
G36*
X202Y724D02*
X202Y722D01*
X208Y722D01*
X208Y720D01*
X212Y720D01*
X212Y718D01*
X216Y718D01*
X216Y716D01*
X218Y716D01*
X218Y714D01*
X220Y714D01*
X220Y712D01*
X222Y712D01*
X222Y710D01*
X224Y710D01*
X224Y708D01*
X226Y708D01*
X226Y706D01*
X228Y706D01*
X228Y702D01*
X230Y702D01*
X230Y698D01*
X250Y698D01*
X250Y724D01*
X202Y724D01*
G37*
D02*
G36*
X696Y670D02*
X696Y666D01*
X694Y666D01*
X694Y664D01*
X692Y664D01*
X692Y660D01*
X690Y660D01*
X690Y658D01*
X688Y658D01*
X688Y656D01*
X686Y656D01*
X686Y654D01*
X682Y654D01*
X682Y652D01*
X680Y652D01*
X680Y644D01*
X716Y644D01*
X716Y670D01*
X696Y670D01*
G37*
D02*
G36*
X1192Y668D02*
X1192Y664D01*
X1190Y664D01*
X1190Y662D01*
X1188Y662D01*
X1188Y660D01*
X1186Y660D01*
X1186Y656D01*
X1184Y656D01*
X1184Y654D01*
X1180Y654D01*
X1180Y652D01*
X1178Y652D01*
X1178Y650D01*
X1176Y650D01*
X1176Y648D01*
X1172Y648D01*
X1172Y646D01*
X1170Y646D01*
X1170Y644D01*
X1168Y644D01*
X1168Y642D01*
X1214Y642D01*
X1214Y644D01*
X1212Y644D01*
X1212Y668D01*
X1192Y668D01*
G37*
D02*
G36*
X230Y666D02*
X230Y664D01*
X228Y664D01*
X228Y660D01*
X226Y660D01*
X226Y658D01*
X224Y658D01*
X224Y656D01*
X222Y656D01*
X222Y654D01*
X220Y654D01*
X220Y652D01*
X218Y652D01*
X218Y650D01*
X216Y650D01*
X216Y648D01*
X212Y648D01*
X212Y646D01*
X208Y646D01*
X208Y644D01*
X204Y644D01*
X204Y642D01*
X250Y642D01*
X250Y666D01*
X230Y666D01*
G37*
D02*
G36*
X680Y644D02*
X680Y642D01*
X1102Y642D01*
X1102Y644D01*
X680Y644D01*
G37*
D02*
G36*
X680Y644D02*
X680Y642D01*
X1102Y642D01*
X1102Y644D01*
X680Y644D01*
G37*
D02*
G36*
X40Y642D02*
X40Y640D01*
X270Y640D01*
X270Y642D01*
X40Y642D01*
G37*
D02*
G36*
X40Y642D02*
X40Y640D01*
X270Y640D01*
X270Y642D01*
X40Y642D01*
G37*
D02*
G36*
X680Y642D02*
X680Y632D01*
X678Y632D01*
X678Y624D01*
X676Y624D01*
X676Y620D01*
X674Y620D01*
X674Y618D01*
X672Y618D01*
X672Y616D01*
X670Y616D01*
X670Y614D01*
X668Y614D01*
X668Y612D01*
X666Y612D01*
X666Y610D01*
X664Y610D01*
X664Y608D01*
X662Y608D01*
X662Y606D01*
X658Y606D01*
X658Y604D01*
X656Y604D01*
X656Y602D01*
X654Y602D01*
X654Y600D01*
X652Y600D01*
X652Y598D01*
X650Y598D01*
X650Y596D01*
X648Y596D01*
X648Y594D01*
X646Y594D01*
X646Y592D01*
X644Y592D01*
X644Y590D01*
X860Y590D01*
X860Y588D01*
X870Y588D01*
X870Y586D01*
X876Y586D01*
X876Y584D01*
X878Y584D01*
X878Y582D01*
X882Y582D01*
X882Y580D01*
X884Y580D01*
X884Y578D01*
X888Y578D01*
X888Y576D01*
X890Y576D01*
X890Y574D01*
X892Y574D01*
X892Y572D01*
X894Y572D01*
X894Y570D01*
X896Y570D01*
X896Y566D01*
X898Y566D01*
X898Y564D01*
X900Y564D01*
X900Y560D01*
X902Y560D01*
X902Y554D01*
X904Y554D01*
X904Y548D01*
X906Y548D01*
X906Y536D01*
X904Y536D01*
X904Y528D01*
X902Y528D01*
X902Y524D01*
X900Y524D01*
X900Y520D01*
X898Y520D01*
X898Y516D01*
X896Y516D01*
X896Y514D01*
X894Y514D01*
X894Y512D01*
X892Y512D01*
X892Y510D01*
X890Y510D01*
X890Y508D01*
X888Y508D01*
X888Y506D01*
X886Y506D01*
X886Y504D01*
X884Y504D01*
X884Y502D01*
X880Y502D01*
X880Y500D01*
X876Y500D01*
X876Y498D01*
X872Y498D01*
X872Y496D01*
X866Y496D01*
X866Y494D01*
X1016Y494D01*
X1016Y496D01*
X1012Y496D01*
X1012Y498D01*
X1010Y498D01*
X1010Y500D01*
X1006Y500D01*
X1006Y502D01*
X1004Y502D01*
X1004Y504D01*
X1002Y504D01*
X1002Y506D01*
X1000Y506D01*
X1000Y508D01*
X998Y508D01*
X998Y512D01*
X996Y512D01*
X996Y514D01*
X994Y514D01*
X994Y518D01*
X992Y518D01*
X992Y522D01*
X990Y522D01*
X990Y528D01*
X988Y528D01*
X988Y546D01*
X990Y546D01*
X990Y552D01*
X992Y552D01*
X992Y556D01*
X994Y556D01*
X994Y560D01*
X996Y560D01*
X996Y562D01*
X998Y562D01*
X998Y566D01*
X1000Y566D01*
X1000Y568D01*
X1002Y568D01*
X1002Y570D01*
X1004Y570D01*
X1004Y572D01*
X1006Y572D01*
X1006Y574D01*
X1008Y574D01*
X1008Y576D01*
X1012Y576D01*
X1012Y578D01*
X1016Y578D01*
X1016Y580D01*
X1020Y580D01*
X1020Y582D01*
X1026Y582D01*
X1026Y584D01*
X1050Y584D01*
X1050Y586D01*
X1052Y586D01*
X1052Y590D01*
X1054Y590D01*
X1054Y592D01*
X1056Y592D01*
X1056Y594D01*
X1058Y594D01*
X1058Y596D01*
X1060Y596D01*
X1060Y598D01*
X1062Y598D01*
X1062Y600D01*
X1064Y600D01*
X1064Y602D01*
X1066Y602D01*
X1066Y604D01*
X1068Y604D01*
X1068Y606D01*
X1070Y606D01*
X1070Y608D01*
X1072Y608D01*
X1072Y612D01*
X1074Y612D01*
X1074Y614D01*
X1076Y614D01*
X1076Y616D01*
X1078Y616D01*
X1078Y618D01*
X1080Y618D01*
X1080Y620D01*
X1082Y620D01*
X1082Y622D01*
X1084Y622D01*
X1084Y624D01*
X1086Y624D01*
X1086Y626D01*
X1088Y626D01*
X1088Y628D01*
X1090Y628D01*
X1090Y630D01*
X1092Y630D01*
X1092Y632D01*
X1094Y632D01*
X1094Y636D01*
X1096Y636D01*
X1096Y638D01*
X1098Y638D01*
X1098Y640D01*
X1100Y640D01*
X1100Y642D01*
X680Y642D01*
G37*
D02*
G36*
X1166Y642D02*
X1166Y640D01*
X1500Y640D01*
X1500Y642D01*
X1166Y642D01*
G37*
D02*
G36*
X1166Y642D02*
X1166Y640D01*
X1500Y640D01*
X1500Y642D01*
X1166Y642D01*
G37*
D02*
G36*
X40Y640D02*
X40Y582D01*
X102Y582D01*
X102Y580D01*
X108Y580D01*
X108Y578D01*
X112Y578D01*
X112Y576D01*
X116Y576D01*
X116Y574D01*
X118Y574D01*
X118Y572D01*
X120Y572D01*
X120Y570D01*
X124Y570D01*
X124Y568D01*
X126Y568D01*
X126Y564D01*
X128Y564D01*
X128Y562D01*
X130Y562D01*
X130Y560D01*
X132Y560D01*
X132Y556D01*
X134Y556D01*
X134Y554D01*
X136Y554D01*
X136Y548D01*
X138Y548D01*
X138Y542D01*
X140Y542D01*
X140Y530D01*
X138Y530D01*
X138Y522D01*
X136Y522D01*
X136Y518D01*
X134Y518D01*
X134Y514D01*
X132Y514D01*
X132Y510D01*
X130Y510D01*
X130Y508D01*
X128Y508D01*
X128Y506D01*
X126Y506D01*
X126Y504D01*
X124Y504D01*
X124Y502D01*
X122Y502D01*
X122Y500D01*
X120Y500D01*
X120Y498D01*
X118Y498D01*
X118Y496D01*
X114Y496D01*
X114Y494D01*
X112Y494D01*
X112Y492D01*
X108Y492D01*
X108Y490D01*
X102Y490D01*
X102Y470D01*
X108Y470D01*
X108Y468D01*
X114Y468D01*
X114Y466D01*
X118Y466D01*
X118Y464D01*
X120Y464D01*
X120Y462D01*
X124Y462D01*
X124Y460D01*
X126Y460D01*
X126Y458D01*
X128Y458D01*
X128Y456D01*
X130Y456D01*
X130Y454D01*
X132Y454D01*
X132Y450D01*
X134Y450D01*
X134Y448D01*
X136Y448D01*
X136Y444D01*
X138Y444D01*
X138Y442D01*
X140Y442D01*
X140Y436D01*
X142Y436D01*
X142Y426D01*
X144Y426D01*
X144Y422D01*
X142Y422D01*
X142Y412D01*
X140Y412D01*
X140Y406D01*
X138Y406D01*
X138Y404D01*
X136Y404D01*
X136Y400D01*
X134Y400D01*
X134Y398D01*
X132Y398D01*
X132Y394D01*
X130Y394D01*
X130Y392D01*
X128Y392D01*
X128Y390D01*
X126Y390D01*
X126Y388D01*
X122Y388D01*
X122Y386D01*
X120Y386D01*
X120Y384D01*
X116Y384D01*
X116Y382D01*
X114Y382D01*
X114Y380D01*
X108Y380D01*
X108Y378D01*
X100Y378D01*
X100Y376D01*
X274Y376D01*
X274Y424D01*
X272Y424D01*
X272Y606D01*
X270Y606D01*
X270Y640D01*
X40Y640D01*
G37*
D02*
G36*
X1162Y640D02*
X1162Y638D01*
X1158Y638D01*
X1158Y636D01*
X1154Y636D01*
X1154Y634D01*
X1152Y634D01*
X1152Y632D01*
X1150Y632D01*
X1150Y628D01*
X1148Y628D01*
X1148Y626D01*
X1146Y626D01*
X1146Y624D01*
X1144Y624D01*
X1144Y622D01*
X1142Y622D01*
X1142Y620D01*
X1140Y620D01*
X1140Y618D01*
X1138Y618D01*
X1138Y616D01*
X1136Y616D01*
X1136Y614D01*
X1134Y614D01*
X1134Y612D01*
X1132Y612D01*
X1132Y610D01*
X1130Y610D01*
X1130Y608D01*
X1128Y608D01*
X1128Y604D01*
X1126Y604D01*
X1126Y602D01*
X1124Y602D01*
X1124Y600D01*
X1122Y600D01*
X1122Y598D01*
X1120Y598D01*
X1120Y596D01*
X1118Y596D01*
X1118Y594D01*
X1116Y594D01*
X1116Y592D01*
X1114Y592D01*
X1114Y590D01*
X1112Y590D01*
X1112Y588D01*
X1110Y588D01*
X1110Y586D01*
X1108Y586D01*
X1108Y584D01*
X1346Y584D01*
X1346Y582D01*
X1350Y582D01*
X1350Y580D01*
X1354Y580D01*
X1354Y578D01*
X1358Y578D01*
X1358Y576D01*
X1362Y576D01*
X1362Y574D01*
X1364Y574D01*
X1364Y572D01*
X1366Y572D01*
X1366Y570D01*
X1368Y570D01*
X1368Y568D01*
X1370Y568D01*
X1370Y566D01*
X1372Y566D01*
X1372Y564D01*
X1374Y564D01*
X1374Y560D01*
X1376Y560D01*
X1376Y556D01*
X1378Y556D01*
X1378Y552D01*
X1380Y552D01*
X1380Y548D01*
X1382Y548D01*
X1382Y526D01*
X1380Y526D01*
X1380Y522D01*
X1378Y522D01*
X1378Y518D01*
X1376Y518D01*
X1376Y514D01*
X1374Y514D01*
X1374Y510D01*
X1372Y510D01*
X1372Y508D01*
X1370Y508D01*
X1370Y506D01*
X1368Y506D01*
X1368Y504D01*
X1366Y504D01*
X1366Y502D01*
X1364Y502D01*
X1364Y500D01*
X1362Y500D01*
X1362Y498D01*
X1358Y498D01*
X1358Y496D01*
X1354Y496D01*
X1354Y494D01*
X1350Y494D01*
X1350Y492D01*
X1518Y492D01*
X1518Y494D01*
X1512Y494D01*
X1512Y496D01*
X1510Y496D01*
X1510Y498D01*
X1506Y498D01*
X1506Y500D01*
X1504Y500D01*
X1504Y502D01*
X1500Y502D01*
X1500Y504D01*
X1498Y504D01*
X1498Y506D01*
X1496Y506D01*
X1496Y508D01*
X1494Y508D01*
X1494Y510D01*
X1492Y510D01*
X1492Y514D01*
X1490Y514D01*
X1490Y516D01*
X1488Y516D01*
X1488Y520D01*
X1486Y520D01*
X1486Y526D01*
X1484Y526D01*
X1484Y532D01*
X1482Y532D01*
X1482Y546D01*
X1484Y546D01*
X1484Y552D01*
X1486Y552D01*
X1486Y556D01*
X1488Y556D01*
X1488Y560D01*
X1490Y560D01*
X1490Y564D01*
X1492Y564D01*
X1492Y566D01*
X1494Y566D01*
X1494Y568D01*
X1496Y568D01*
X1496Y570D01*
X1498Y570D01*
X1498Y572D01*
X1500Y572D01*
X1500Y574D01*
X1502Y574D01*
X1502Y576D01*
X1504Y576D01*
X1504Y578D01*
X1508Y578D01*
X1508Y580D01*
X1512Y580D01*
X1512Y582D01*
X1516Y582D01*
X1516Y584D01*
X1522Y584D01*
X1522Y586D01*
X1536Y586D01*
X1536Y606D01*
X1534Y606D01*
X1534Y608D01*
X1532Y608D01*
X1532Y610D01*
X1530Y610D01*
X1530Y612D01*
X1528Y612D01*
X1528Y614D01*
X1526Y614D01*
X1526Y616D01*
X1524Y616D01*
X1524Y618D01*
X1522Y618D01*
X1522Y620D01*
X1520Y620D01*
X1520Y622D01*
X1518Y622D01*
X1518Y624D01*
X1516Y624D01*
X1516Y626D01*
X1514Y626D01*
X1514Y628D01*
X1512Y628D01*
X1512Y630D01*
X1510Y630D01*
X1510Y632D01*
X1508Y632D01*
X1508Y634D01*
X1506Y634D01*
X1506Y636D01*
X1504Y636D01*
X1504Y638D01*
X1502Y638D01*
X1502Y640D01*
X1162Y640D01*
G37*
D02*
G36*
X642Y590D02*
X642Y588D01*
X640Y588D01*
X640Y586D01*
X638Y586D01*
X638Y584D01*
X636Y584D01*
X636Y582D01*
X634Y582D01*
X634Y580D01*
X630Y580D01*
X630Y578D01*
X628Y578D01*
X628Y576D01*
X626Y576D01*
X626Y574D01*
X624Y574D01*
X624Y572D01*
X622Y572D01*
X622Y570D01*
X620Y570D01*
X620Y568D01*
X618Y568D01*
X618Y566D01*
X616Y566D01*
X616Y564D01*
X614Y564D01*
X614Y562D01*
X612Y562D01*
X612Y560D01*
X610Y560D01*
X610Y558D01*
X608Y558D01*
X608Y556D01*
X606Y556D01*
X606Y536D01*
X604Y536D01*
X604Y528D01*
X602Y528D01*
X602Y524D01*
X600Y524D01*
X600Y520D01*
X598Y520D01*
X598Y516D01*
X596Y516D01*
X596Y514D01*
X594Y514D01*
X594Y512D01*
X592Y512D01*
X592Y510D01*
X590Y510D01*
X590Y508D01*
X588Y508D01*
X588Y506D01*
X586Y506D01*
X586Y504D01*
X584Y504D01*
X584Y502D01*
X580Y502D01*
X580Y500D01*
X576Y500D01*
X576Y498D01*
X572Y498D01*
X572Y496D01*
X566Y496D01*
X566Y494D01*
X850Y494D01*
X850Y496D01*
X844Y496D01*
X844Y498D01*
X840Y498D01*
X840Y500D01*
X836Y500D01*
X836Y502D01*
X832Y502D01*
X832Y504D01*
X830Y504D01*
X830Y506D01*
X828Y506D01*
X828Y508D01*
X826Y508D01*
X826Y510D01*
X824Y510D01*
X824Y512D01*
X822Y512D01*
X822Y514D01*
X820Y514D01*
X820Y516D01*
X818Y516D01*
X818Y520D01*
X816Y520D01*
X816Y524D01*
X814Y524D01*
X814Y530D01*
X812Y530D01*
X812Y536D01*
X810Y536D01*
X810Y546D01*
X812Y546D01*
X812Y554D01*
X814Y554D01*
X814Y560D01*
X816Y560D01*
X816Y562D01*
X818Y562D01*
X818Y566D01*
X820Y566D01*
X820Y568D01*
X822Y568D01*
X822Y572D01*
X824Y572D01*
X824Y574D01*
X826Y574D01*
X826Y576D01*
X828Y576D01*
X828Y578D01*
X832Y578D01*
X832Y580D01*
X834Y580D01*
X834Y582D01*
X838Y582D01*
X838Y584D01*
X840Y584D01*
X840Y586D01*
X846Y586D01*
X846Y588D01*
X856Y588D01*
X856Y590D01*
X642Y590D01*
G37*
D02*
G36*
X1106Y584D02*
X1106Y580D01*
X1104Y580D01*
X1104Y578D01*
X1102Y578D01*
X1102Y576D01*
X1100Y576D01*
X1100Y574D01*
X1098Y574D01*
X1098Y572D01*
X1096Y572D01*
X1096Y570D01*
X1094Y570D01*
X1094Y568D01*
X1092Y568D01*
X1092Y566D01*
X1090Y566D01*
X1090Y564D01*
X1088Y564D01*
X1088Y562D01*
X1086Y562D01*
X1086Y558D01*
X1084Y558D01*
X1084Y556D01*
X1082Y556D01*
X1082Y526D01*
X1080Y526D01*
X1080Y522D01*
X1078Y522D01*
X1078Y518D01*
X1076Y518D01*
X1076Y514D01*
X1074Y514D01*
X1074Y510D01*
X1072Y510D01*
X1072Y508D01*
X1070Y508D01*
X1070Y506D01*
X1068Y506D01*
X1068Y504D01*
X1066Y504D01*
X1066Y502D01*
X1064Y502D01*
X1064Y500D01*
X1062Y500D01*
X1062Y498D01*
X1058Y498D01*
X1058Y496D01*
X1054Y496D01*
X1054Y494D01*
X1050Y494D01*
X1050Y492D01*
X1046Y492D01*
X1046Y490D01*
X1326Y490D01*
X1326Y492D01*
X1320Y492D01*
X1320Y494D01*
X1316Y494D01*
X1316Y496D01*
X1312Y496D01*
X1312Y498D01*
X1310Y498D01*
X1310Y500D01*
X1306Y500D01*
X1306Y502D01*
X1304Y502D01*
X1304Y504D01*
X1302Y504D01*
X1302Y506D01*
X1300Y506D01*
X1300Y508D01*
X1298Y508D01*
X1298Y512D01*
X1296Y512D01*
X1296Y514D01*
X1294Y514D01*
X1294Y518D01*
X1292Y518D01*
X1292Y522D01*
X1290Y522D01*
X1290Y528D01*
X1288Y528D01*
X1288Y546D01*
X1290Y546D01*
X1290Y552D01*
X1292Y552D01*
X1292Y556D01*
X1294Y556D01*
X1294Y560D01*
X1296Y560D01*
X1296Y562D01*
X1298Y562D01*
X1298Y566D01*
X1300Y566D01*
X1300Y568D01*
X1302Y568D01*
X1302Y570D01*
X1304Y570D01*
X1304Y572D01*
X1306Y572D01*
X1306Y574D01*
X1308Y574D01*
X1308Y576D01*
X1312Y576D01*
X1312Y578D01*
X1316Y578D01*
X1316Y580D01*
X1320Y580D01*
X1320Y582D01*
X1326Y582D01*
X1326Y584D01*
X1106Y584D01*
G37*
D02*
G36*
X40Y582D02*
X40Y568D01*
X62Y568D01*
X62Y570D01*
X64Y570D01*
X64Y572D01*
X66Y572D01*
X66Y574D01*
X68Y574D01*
X68Y576D01*
X72Y576D01*
X72Y578D01*
X76Y578D01*
X76Y580D01*
X82Y580D01*
X82Y582D01*
X40Y582D01*
G37*
D02*
G36*
X1576Y546D02*
X1576Y544D01*
X1578Y544D01*
X1578Y534D01*
X1576Y534D01*
X1576Y526D01*
X1574Y526D01*
X1574Y520D01*
X1572Y520D01*
X1572Y518D01*
X1570Y518D01*
X1570Y514D01*
X1568Y514D01*
X1568Y512D01*
X1566Y512D01*
X1566Y508D01*
X1564Y508D01*
X1564Y506D01*
X1562Y506D01*
X1562Y504D01*
X1558Y504D01*
X1558Y502D01*
X1556Y502D01*
X1556Y500D01*
X1554Y500D01*
X1554Y498D01*
X1550Y498D01*
X1550Y496D01*
X1546Y496D01*
X1546Y494D01*
X1542Y494D01*
X1542Y492D01*
X1648Y492D01*
X1648Y494D01*
X1646Y494D01*
X1646Y496D01*
X1644Y496D01*
X1644Y498D01*
X1642Y498D01*
X1642Y500D01*
X1640Y500D01*
X1640Y502D01*
X1638Y502D01*
X1638Y504D01*
X1636Y504D01*
X1636Y506D01*
X1634Y506D01*
X1634Y508D01*
X1632Y508D01*
X1632Y510D01*
X1630Y510D01*
X1630Y512D01*
X1628Y512D01*
X1628Y514D01*
X1626Y514D01*
X1626Y516D01*
X1624Y516D01*
X1624Y518D01*
X1622Y518D01*
X1622Y520D01*
X1620Y520D01*
X1620Y522D01*
X1618Y522D01*
X1618Y524D01*
X1616Y524D01*
X1616Y526D01*
X1614Y526D01*
X1614Y528D01*
X1612Y528D01*
X1612Y530D01*
X1610Y530D01*
X1610Y532D01*
X1608Y532D01*
X1608Y534D01*
X1606Y534D01*
X1606Y536D01*
X1604Y536D01*
X1604Y538D01*
X1602Y538D01*
X1602Y540D01*
X1600Y540D01*
X1600Y542D01*
X1598Y542D01*
X1598Y544D01*
X1596Y544D01*
X1596Y546D01*
X1576Y546D01*
G37*
D02*
G36*
X412Y494D02*
X412Y492D01*
X1020Y492D01*
X1020Y494D01*
X412Y494D01*
G37*
D02*
G36*
X412Y494D02*
X412Y492D01*
X1020Y492D01*
X1020Y494D01*
X412Y494D01*
G37*
D02*
G36*
X412Y494D02*
X412Y492D01*
X1020Y492D01*
X1020Y494D01*
X412Y494D01*
G37*
D02*
G36*
X408Y492D02*
X408Y490D01*
X1026Y490D01*
X1026Y492D01*
X408Y492D01*
G37*
D02*
G36*
X1346Y492D02*
X1346Y490D01*
X1650Y490D01*
X1650Y492D01*
X1346Y492D01*
G37*
D02*
G36*
X1346Y492D02*
X1346Y490D01*
X1650Y490D01*
X1650Y492D01*
X1346Y492D01*
G37*
D02*
G36*
X402Y490D02*
X402Y488D01*
X1652Y488D01*
X1652Y490D01*
X402Y490D01*
G37*
D02*
G36*
X402Y490D02*
X402Y488D01*
X1652Y488D01*
X1652Y490D01*
X402Y490D01*
G37*
D02*
G36*
X402Y490D02*
X402Y488D01*
X1652Y488D01*
X1652Y490D01*
X402Y490D01*
G37*
D02*
G36*
X402Y488D02*
X402Y470D01*
X1544Y470D01*
X1544Y468D01*
X1548Y468D01*
X1548Y466D01*
X1552Y466D01*
X1552Y464D01*
X1556Y464D01*
X1556Y462D01*
X1558Y462D01*
X1558Y460D01*
X1560Y460D01*
X1560Y458D01*
X1564Y458D01*
X1564Y456D01*
X1566Y456D01*
X1566Y454D01*
X1568Y454D01*
X1568Y450D01*
X1570Y450D01*
X1570Y448D01*
X1572Y448D01*
X1572Y444D01*
X1574Y444D01*
X1574Y442D01*
X1576Y442D01*
X1576Y436D01*
X1578Y436D01*
X1578Y430D01*
X1580Y430D01*
X1580Y418D01*
X1578Y418D01*
X1578Y410D01*
X1576Y410D01*
X1576Y406D01*
X1574Y406D01*
X1574Y402D01*
X1572Y402D01*
X1572Y398D01*
X1570Y398D01*
X1570Y396D01*
X1568Y396D01*
X1568Y394D01*
X1566Y394D01*
X1566Y392D01*
X1564Y392D01*
X1564Y390D01*
X1562Y390D01*
X1562Y388D01*
X1560Y388D01*
X1560Y386D01*
X1558Y386D01*
X1558Y384D01*
X1554Y384D01*
X1554Y382D01*
X1552Y382D01*
X1552Y380D01*
X1546Y380D01*
X1546Y378D01*
X1542Y378D01*
X1542Y376D01*
X1754Y376D01*
X1754Y378D01*
X1756Y378D01*
X1756Y380D01*
X1758Y380D01*
X1758Y400D01*
X1744Y400D01*
X1744Y402D01*
X1738Y402D01*
X1738Y404D01*
X1736Y404D01*
X1736Y406D01*
X1734Y406D01*
X1734Y408D01*
X1732Y408D01*
X1732Y410D01*
X1730Y410D01*
X1730Y412D01*
X1728Y412D01*
X1728Y414D01*
X1726Y414D01*
X1726Y416D01*
X1724Y416D01*
X1724Y418D01*
X1722Y418D01*
X1722Y420D01*
X1720Y420D01*
X1720Y422D01*
X1718Y422D01*
X1718Y424D01*
X1716Y424D01*
X1716Y426D01*
X1714Y426D01*
X1714Y428D01*
X1712Y428D01*
X1712Y430D01*
X1710Y430D01*
X1710Y432D01*
X1708Y432D01*
X1708Y434D01*
X1706Y434D01*
X1706Y436D01*
X1704Y436D01*
X1704Y438D01*
X1702Y438D01*
X1702Y440D01*
X1700Y440D01*
X1700Y442D01*
X1698Y442D01*
X1698Y444D01*
X1696Y444D01*
X1696Y446D01*
X1694Y446D01*
X1694Y448D01*
X1692Y448D01*
X1692Y450D01*
X1690Y450D01*
X1690Y452D01*
X1688Y452D01*
X1688Y454D01*
X1686Y454D01*
X1686Y456D01*
X1684Y456D01*
X1684Y458D01*
X1682Y458D01*
X1682Y460D01*
X1680Y460D01*
X1680Y462D01*
X1678Y462D01*
X1678Y464D01*
X1676Y464D01*
X1676Y466D01*
X1674Y466D01*
X1674Y468D01*
X1672Y468D01*
X1672Y470D01*
X1670Y470D01*
X1670Y472D01*
X1668Y472D01*
X1668Y474D01*
X1666Y474D01*
X1666Y476D01*
X1664Y476D01*
X1664Y478D01*
X1662Y478D01*
X1662Y480D01*
X1660Y480D01*
X1660Y482D01*
X1658Y482D01*
X1658Y484D01*
X1656Y484D01*
X1656Y486D01*
X1654Y486D01*
X1654Y488D01*
X402Y488D01*
G37*
D02*
G36*
X408Y470D02*
X408Y468D01*
X414Y468D01*
X414Y466D01*
X418Y466D01*
X418Y464D01*
X420Y464D01*
X420Y462D01*
X424Y462D01*
X424Y460D01*
X426Y460D01*
X426Y458D01*
X428Y458D01*
X428Y456D01*
X430Y456D01*
X430Y454D01*
X432Y454D01*
X432Y450D01*
X434Y450D01*
X434Y448D01*
X436Y448D01*
X436Y444D01*
X438Y444D01*
X438Y442D01*
X440Y442D01*
X440Y436D01*
X442Y436D01*
X442Y426D01*
X444Y426D01*
X444Y422D01*
X442Y422D01*
X442Y412D01*
X440Y412D01*
X440Y406D01*
X438Y406D01*
X438Y404D01*
X436Y404D01*
X436Y400D01*
X434Y400D01*
X434Y398D01*
X432Y398D01*
X432Y394D01*
X430Y394D01*
X430Y392D01*
X428Y392D01*
X428Y390D01*
X426Y390D01*
X426Y388D01*
X422Y388D01*
X422Y386D01*
X420Y386D01*
X420Y384D01*
X416Y384D01*
X416Y382D01*
X414Y382D01*
X414Y380D01*
X408Y380D01*
X408Y378D01*
X400Y378D01*
X400Y376D01*
X550Y376D01*
X550Y378D01*
X544Y378D01*
X544Y380D01*
X540Y380D01*
X540Y382D01*
X536Y382D01*
X536Y384D01*
X534Y384D01*
X534Y386D01*
X530Y386D01*
X530Y388D01*
X528Y388D01*
X528Y390D01*
X526Y390D01*
X526Y392D01*
X524Y392D01*
X524Y394D01*
X522Y394D01*
X522Y398D01*
X520Y398D01*
X520Y400D01*
X518Y400D01*
X518Y404D01*
X516Y404D01*
X516Y408D01*
X514Y408D01*
X514Y414D01*
X512Y414D01*
X512Y432D01*
X514Y432D01*
X514Y438D01*
X516Y438D01*
X516Y442D01*
X518Y442D01*
X518Y446D01*
X520Y446D01*
X520Y448D01*
X522Y448D01*
X522Y452D01*
X524Y452D01*
X524Y454D01*
X526Y454D01*
X526Y456D01*
X528Y456D01*
X528Y458D01*
X530Y458D01*
X530Y460D01*
X534Y460D01*
X534Y462D01*
X536Y462D01*
X536Y464D01*
X540Y464D01*
X540Y466D01*
X544Y466D01*
X544Y468D01*
X550Y468D01*
X550Y470D01*
X408Y470D01*
G37*
D02*
G36*
X570Y470D02*
X570Y468D01*
X574Y468D01*
X574Y466D01*
X578Y466D01*
X578Y464D01*
X582Y464D01*
X582Y462D01*
X586Y462D01*
X586Y460D01*
X588Y460D01*
X588Y458D01*
X590Y458D01*
X590Y456D01*
X592Y456D01*
X592Y454D01*
X594Y454D01*
X594Y452D01*
X596Y452D01*
X596Y450D01*
X598Y450D01*
X598Y446D01*
X600Y446D01*
X600Y442D01*
X602Y442D01*
X602Y440D01*
X604Y440D01*
X604Y434D01*
X606Y434D01*
X606Y412D01*
X604Y412D01*
X604Y406D01*
X602Y406D01*
X602Y402D01*
X600Y402D01*
X600Y400D01*
X598Y400D01*
X598Y396D01*
X596Y396D01*
X596Y394D01*
X594Y394D01*
X594Y392D01*
X592Y392D01*
X592Y390D01*
X590Y390D01*
X590Y388D01*
X588Y388D01*
X588Y386D01*
X586Y386D01*
X586Y384D01*
X582Y384D01*
X582Y382D01*
X578Y382D01*
X578Y380D01*
X574Y380D01*
X574Y378D01*
X570Y378D01*
X570Y376D01*
X780Y376D01*
X780Y378D01*
X782Y378D01*
X782Y380D01*
X784Y380D01*
X784Y382D01*
X786Y382D01*
X786Y384D01*
X788Y384D01*
X788Y386D01*
X790Y386D01*
X790Y388D01*
X792Y388D01*
X792Y390D01*
X794Y390D01*
X794Y392D01*
X796Y392D01*
X796Y394D01*
X798Y394D01*
X798Y396D01*
X802Y396D01*
X802Y398D01*
X804Y398D01*
X804Y400D01*
X806Y400D01*
X806Y402D01*
X808Y402D01*
X808Y404D01*
X810Y404D01*
X810Y406D01*
X812Y406D01*
X812Y432D01*
X814Y432D01*
X814Y438D01*
X816Y438D01*
X816Y442D01*
X818Y442D01*
X818Y446D01*
X820Y446D01*
X820Y448D01*
X822Y448D01*
X822Y452D01*
X824Y452D01*
X824Y454D01*
X826Y454D01*
X826Y456D01*
X828Y456D01*
X828Y458D01*
X830Y458D01*
X830Y460D01*
X834Y460D01*
X834Y462D01*
X836Y462D01*
X836Y464D01*
X840Y464D01*
X840Y466D01*
X844Y466D01*
X844Y468D01*
X850Y468D01*
X850Y470D01*
X570Y470D01*
G37*
D02*
G36*
X870Y470D02*
X870Y468D01*
X874Y468D01*
X874Y466D01*
X878Y466D01*
X878Y464D01*
X882Y464D01*
X882Y462D01*
X886Y462D01*
X886Y460D01*
X888Y460D01*
X888Y458D01*
X890Y458D01*
X890Y456D01*
X892Y456D01*
X892Y454D01*
X894Y454D01*
X894Y452D01*
X896Y452D01*
X896Y450D01*
X898Y450D01*
X898Y446D01*
X900Y446D01*
X900Y442D01*
X902Y442D01*
X902Y440D01*
X904Y440D01*
X904Y434D01*
X906Y434D01*
X906Y412D01*
X904Y412D01*
X904Y406D01*
X902Y406D01*
X902Y402D01*
X900Y402D01*
X900Y400D01*
X898Y400D01*
X898Y396D01*
X896Y396D01*
X896Y394D01*
X894Y394D01*
X894Y392D01*
X892Y392D01*
X892Y390D01*
X890Y390D01*
X890Y388D01*
X888Y388D01*
X888Y386D01*
X886Y386D01*
X886Y384D01*
X882Y384D01*
X882Y382D01*
X878Y382D01*
X878Y380D01*
X874Y380D01*
X874Y378D01*
X870Y378D01*
X870Y376D01*
X1030Y376D01*
X1030Y378D01*
X1024Y378D01*
X1024Y380D01*
X1020Y380D01*
X1020Y382D01*
X1016Y382D01*
X1016Y384D01*
X1014Y384D01*
X1014Y386D01*
X1010Y386D01*
X1010Y388D01*
X1008Y388D01*
X1008Y390D01*
X1006Y390D01*
X1006Y392D01*
X1004Y392D01*
X1004Y394D01*
X1002Y394D01*
X1002Y398D01*
X1000Y398D01*
X1000Y400D01*
X998Y400D01*
X998Y404D01*
X996Y404D01*
X996Y408D01*
X994Y408D01*
X994Y412D01*
X992Y412D01*
X992Y434D01*
X994Y434D01*
X994Y440D01*
X996Y440D01*
X996Y444D01*
X998Y444D01*
X998Y446D01*
X1000Y446D01*
X1000Y450D01*
X1002Y450D01*
X1002Y452D01*
X1004Y452D01*
X1004Y454D01*
X1006Y454D01*
X1006Y456D01*
X1008Y456D01*
X1008Y458D01*
X1010Y458D01*
X1010Y460D01*
X1012Y460D01*
X1012Y462D01*
X1016Y462D01*
X1016Y464D01*
X1018Y464D01*
X1018Y466D01*
X1022Y466D01*
X1022Y468D01*
X1028Y468D01*
X1028Y470D01*
X870Y470D01*
G37*
D02*
G36*
X1050Y470D02*
X1050Y468D01*
X1056Y468D01*
X1056Y466D01*
X1060Y466D01*
X1060Y464D01*
X1062Y464D01*
X1062Y462D01*
X1066Y462D01*
X1066Y460D01*
X1068Y460D01*
X1068Y458D01*
X1070Y458D01*
X1070Y456D01*
X1072Y456D01*
X1072Y454D01*
X1074Y454D01*
X1074Y452D01*
X1076Y452D01*
X1076Y450D01*
X1078Y450D01*
X1078Y446D01*
X1080Y446D01*
X1080Y442D01*
X1082Y442D01*
X1082Y438D01*
X1084Y438D01*
X1084Y432D01*
X1086Y432D01*
X1086Y414D01*
X1084Y414D01*
X1084Y408D01*
X1082Y408D01*
X1082Y404D01*
X1080Y404D01*
X1080Y400D01*
X1078Y400D01*
X1078Y398D01*
X1076Y398D01*
X1076Y394D01*
X1074Y394D01*
X1074Y392D01*
X1072Y392D01*
X1072Y390D01*
X1070Y390D01*
X1070Y388D01*
X1068Y388D01*
X1068Y386D01*
X1064Y386D01*
X1064Y384D01*
X1062Y384D01*
X1062Y382D01*
X1058Y382D01*
X1058Y380D01*
X1054Y380D01*
X1054Y378D01*
X1048Y378D01*
X1048Y376D01*
X1260Y376D01*
X1260Y378D01*
X1262Y378D01*
X1262Y380D01*
X1264Y380D01*
X1264Y382D01*
X1266Y382D01*
X1266Y384D01*
X1268Y384D01*
X1268Y386D01*
X1270Y386D01*
X1270Y388D01*
X1272Y388D01*
X1272Y390D01*
X1274Y390D01*
X1274Y392D01*
X1278Y392D01*
X1278Y394D01*
X1280Y394D01*
X1280Y396D01*
X1282Y396D01*
X1282Y398D01*
X1284Y398D01*
X1284Y400D01*
X1286Y400D01*
X1286Y402D01*
X1288Y402D01*
X1288Y404D01*
X1290Y404D01*
X1290Y406D01*
X1292Y406D01*
X1292Y434D01*
X1294Y434D01*
X1294Y440D01*
X1296Y440D01*
X1296Y444D01*
X1298Y444D01*
X1298Y446D01*
X1300Y446D01*
X1300Y450D01*
X1302Y450D01*
X1302Y452D01*
X1304Y452D01*
X1304Y454D01*
X1306Y454D01*
X1306Y456D01*
X1308Y456D01*
X1308Y458D01*
X1310Y458D01*
X1310Y460D01*
X1312Y460D01*
X1312Y462D01*
X1316Y462D01*
X1316Y464D01*
X1318Y464D01*
X1318Y466D01*
X1322Y466D01*
X1322Y468D01*
X1328Y468D01*
X1328Y470D01*
X1050Y470D01*
G37*
D02*
G36*
X1350Y470D02*
X1350Y468D01*
X1356Y468D01*
X1356Y466D01*
X1360Y466D01*
X1360Y464D01*
X1362Y464D01*
X1362Y462D01*
X1366Y462D01*
X1366Y460D01*
X1368Y460D01*
X1368Y458D01*
X1370Y458D01*
X1370Y456D01*
X1372Y456D01*
X1372Y454D01*
X1374Y454D01*
X1374Y452D01*
X1376Y452D01*
X1376Y450D01*
X1378Y450D01*
X1378Y446D01*
X1380Y446D01*
X1380Y442D01*
X1382Y442D01*
X1382Y438D01*
X1384Y438D01*
X1384Y432D01*
X1386Y432D01*
X1386Y414D01*
X1384Y414D01*
X1384Y408D01*
X1382Y408D01*
X1382Y404D01*
X1380Y404D01*
X1380Y400D01*
X1378Y400D01*
X1378Y398D01*
X1376Y398D01*
X1376Y394D01*
X1374Y394D01*
X1374Y392D01*
X1372Y392D01*
X1372Y390D01*
X1370Y390D01*
X1370Y388D01*
X1368Y388D01*
X1368Y386D01*
X1364Y386D01*
X1364Y384D01*
X1362Y384D01*
X1362Y382D01*
X1358Y382D01*
X1358Y380D01*
X1354Y380D01*
X1354Y378D01*
X1348Y378D01*
X1348Y376D01*
X1524Y376D01*
X1524Y378D01*
X1518Y378D01*
X1518Y380D01*
X1514Y380D01*
X1514Y382D01*
X1510Y382D01*
X1510Y384D01*
X1506Y384D01*
X1506Y386D01*
X1504Y386D01*
X1504Y388D01*
X1502Y388D01*
X1502Y390D01*
X1500Y390D01*
X1500Y392D01*
X1498Y392D01*
X1498Y394D01*
X1496Y394D01*
X1496Y396D01*
X1494Y396D01*
X1494Y398D01*
X1492Y398D01*
X1492Y402D01*
X1490Y402D01*
X1490Y406D01*
X1488Y406D01*
X1488Y410D01*
X1486Y410D01*
X1486Y418D01*
X1484Y418D01*
X1484Y428D01*
X1486Y428D01*
X1486Y436D01*
X1488Y436D01*
X1488Y442D01*
X1490Y442D01*
X1490Y444D01*
X1492Y444D01*
X1492Y448D01*
X1494Y448D01*
X1494Y450D01*
X1496Y450D01*
X1496Y452D01*
X1498Y452D01*
X1498Y456D01*
X1500Y456D01*
X1500Y458D01*
X1504Y458D01*
X1504Y460D01*
X1506Y460D01*
X1506Y462D01*
X1508Y462D01*
X1508Y464D01*
X1512Y464D01*
X1512Y466D01*
X1516Y466D01*
X1516Y468D01*
X1522Y468D01*
X1522Y470D01*
X1350Y470D01*
G37*
D02*
G36*
X40Y396D02*
X40Y376D01*
X90Y376D01*
X90Y378D01*
X84Y378D01*
X84Y380D01*
X78Y380D01*
X78Y382D01*
X74Y382D01*
X74Y384D01*
X72Y384D01*
X72Y386D01*
X68Y386D01*
X68Y388D01*
X66Y388D01*
X66Y390D01*
X64Y390D01*
X64Y392D01*
X62Y392D01*
X62Y394D01*
X60Y394D01*
X60Y396D01*
X40Y396D01*
G37*
D02*
G36*
X40Y376D02*
X40Y374D01*
X274Y374D01*
X274Y376D01*
X40Y376D01*
G37*
D02*
G36*
X40Y376D02*
X40Y374D01*
X274Y374D01*
X274Y376D01*
X40Y376D01*
G37*
D02*
G36*
X318Y376D02*
X318Y374D01*
X778Y374D01*
X778Y376D01*
X318Y376D01*
G37*
D02*
G36*
X318Y376D02*
X318Y374D01*
X778Y374D01*
X778Y376D01*
X318Y376D01*
G37*
D02*
G36*
X318Y376D02*
X318Y374D01*
X778Y374D01*
X778Y376D01*
X318Y376D01*
G37*
D02*
G36*
X842Y376D02*
X842Y374D01*
X1258Y374D01*
X1258Y376D01*
X842Y376D01*
G37*
D02*
G36*
X842Y376D02*
X842Y374D01*
X1258Y374D01*
X1258Y376D01*
X842Y376D01*
G37*
D02*
G36*
X1322Y376D02*
X1322Y374D01*
X1752Y374D01*
X1752Y376D01*
X1322Y376D01*
G37*
D02*
G36*
X1322Y376D02*
X1322Y374D01*
X1752Y374D01*
X1752Y376D01*
X1322Y376D01*
G37*
D02*
G36*
X40Y374D02*
X40Y318D01*
X122Y318D01*
X122Y316D01*
X128Y316D01*
X128Y314D01*
X132Y314D01*
X132Y312D01*
X136Y312D01*
X136Y310D01*
X138Y310D01*
X138Y308D01*
X140Y308D01*
X140Y306D01*
X142Y306D01*
X142Y304D01*
X144Y304D01*
X144Y302D01*
X146Y302D01*
X146Y300D01*
X148Y300D01*
X148Y298D01*
X150Y298D01*
X150Y296D01*
X152Y296D01*
X152Y292D01*
X154Y292D01*
X154Y288D01*
X156Y288D01*
X156Y282D01*
X158Y282D01*
X158Y260D01*
X156Y260D01*
X156Y254D01*
X154Y254D01*
X154Y252D01*
X152Y252D01*
X152Y248D01*
X150Y248D01*
X150Y244D01*
X148Y244D01*
X148Y242D01*
X146Y242D01*
X146Y240D01*
X144Y240D01*
X144Y238D01*
X142Y238D01*
X142Y236D01*
X140Y236D01*
X140Y234D01*
X136Y234D01*
X136Y232D01*
X134Y232D01*
X134Y230D01*
X130Y230D01*
X130Y228D01*
X126Y228D01*
X126Y226D01*
X120Y226D01*
X120Y224D01*
X358Y224D01*
X358Y226D01*
X352Y226D01*
X352Y228D01*
X348Y228D01*
X348Y230D01*
X344Y230D01*
X344Y232D01*
X342Y232D01*
X342Y234D01*
X340Y234D01*
X340Y236D01*
X336Y236D01*
X336Y238D01*
X334Y238D01*
X334Y240D01*
X332Y240D01*
X332Y244D01*
X330Y244D01*
X330Y246D01*
X328Y246D01*
X328Y248D01*
X326Y248D01*
X326Y252D01*
X324Y252D01*
X324Y256D01*
X322Y256D01*
X322Y262D01*
X320Y262D01*
X320Y288D01*
X318Y288D01*
X318Y290D01*
X316Y290D01*
X316Y292D01*
X314Y292D01*
X314Y294D01*
X312Y294D01*
X312Y296D01*
X310Y296D01*
X310Y298D01*
X308Y298D01*
X308Y300D01*
X306Y300D01*
X306Y302D01*
X304Y302D01*
X304Y304D01*
X302Y304D01*
X302Y306D01*
X300Y306D01*
X300Y308D01*
X298Y308D01*
X298Y310D01*
X296Y310D01*
X296Y312D01*
X294Y312D01*
X294Y314D01*
X292Y314D01*
X292Y316D01*
X290Y316D01*
X290Y318D01*
X288Y318D01*
X288Y320D01*
X286Y320D01*
X286Y322D01*
X284Y322D01*
X284Y324D01*
X282Y324D01*
X282Y326D01*
X280Y326D01*
X280Y328D01*
X278Y328D01*
X278Y332D01*
X276Y332D01*
X276Y336D01*
X274Y336D01*
X274Y374D01*
X40Y374D01*
G37*
D02*
G36*
X318Y374D02*
X318Y350D01*
X320Y350D01*
X320Y348D01*
X322Y348D01*
X322Y346D01*
X324Y346D01*
X324Y344D01*
X326Y344D01*
X326Y342D01*
X328Y342D01*
X328Y340D01*
X330Y340D01*
X330Y338D01*
X332Y338D01*
X332Y336D01*
X334Y336D01*
X334Y334D01*
X336Y334D01*
X336Y332D01*
X338Y332D01*
X338Y330D01*
X340Y330D01*
X340Y328D01*
X342Y328D01*
X342Y326D01*
X344Y326D01*
X344Y324D01*
X346Y324D01*
X346Y322D01*
X348Y322D01*
X348Y320D01*
X590Y320D01*
X590Y318D01*
X596Y318D01*
X596Y316D01*
X602Y316D01*
X602Y314D01*
X604Y314D01*
X604Y312D01*
X608Y312D01*
X608Y310D01*
X610Y310D01*
X610Y308D01*
X614Y308D01*
X614Y306D01*
X616Y306D01*
X616Y304D01*
X618Y304D01*
X618Y302D01*
X620Y302D01*
X620Y298D01*
X622Y298D01*
X622Y296D01*
X624Y296D01*
X624Y292D01*
X626Y292D01*
X626Y288D01*
X628Y288D01*
X628Y282D01*
X630Y282D01*
X630Y262D01*
X628Y262D01*
X628Y256D01*
X626Y256D01*
X626Y252D01*
X624Y252D01*
X624Y248D01*
X622Y248D01*
X622Y246D01*
X620Y246D01*
X620Y244D01*
X618Y244D01*
X618Y240D01*
X616Y240D01*
X616Y238D01*
X612Y238D01*
X612Y236D01*
X610Y236D01*
X610Y234D01*
X608Y234D01*
X608Y232D01*
X604Y232D01*
X604Y230D01*
X600Y230D01*
X600Y228D01*
X596Y228D01*
X596Y226D01*
X588Y226D01*
X588Y224D01*
X624Y224D01*
X624Y226D01*
X626Y226D01*
X626Y228D01*
X628Y228D01*
X628Y230D01*
X630Y230D01*
X630Y232D01*
X632Y232D01*
X632Y234D01*
X634Y234D01*
X634Y236D01*
X636Y236D01*
X636Y238D01*
X640Y238D01*
X640Y240D01*
X642Y240D01*
X642Y242D01*
X644Y242D01*
X644Y244D01*
X646Y244D01*
X646Y246D01*
X648Y246D01*
X648Y248D01*
X650Y248D01*
X650Y250D01*
X652Y250D01*
X652Y252D01*
X654Y252D01*
X654Y254D01*
X656Y254D01*
X656Y256D01*
X658Y256D01*
X658Y258D01*
X660Y258D01*
X660Y260D01*
X662Y260D01*
X662Y262D01*
X664Y262D01*
X664Y264D01*
X666Y264D01*
X666Y266D01*
X668Y266D01*
X668Y268D01*
X670Y268D01*
X670Y270D01*
X672Y270D01*
X672Y272D01*
X674Y272D01*
X674Y274D01*
X676Y274D01*
X676Y276D01*
X678Y276D01*
X678Y278D01*
X680Y278D01*
X680Y280D01*
X682Y280D01*
X682Y282D01*
X684Y282D01*
X684Y284D01*
X686Y284D01*
X686Y286D01*
X688Y286D01*
X688Y288D01*
X690Y288D01*
X690Y290D01*
X692Y290D01*
X692Y292D01*
X694Y292D01*
X694Y294D01*
X696Y294D01*
X696Y296D01*
X698Y296D01*
X698Y298D01*
X700Y298D01*
X700Y300D01*
X702Y300D01*
X702Y302D01*
X704Y302D01*
X704Y304D01*
X706Y304D01*
X706Y306D01*
X708Y306D01*
X708Y308D01*
X710Y308D01*
X710Y310D01*
X712Y310D01*
X712Y312D01*
X714Y312D01*
X714Y314D01*
X716Y314D01*
X716Y316D01*
X718Y316D01*
X718Y318D01*
X722Y318D01*
X722Y320D01*
X724Y320D01*
X724Y322D01*
X726Y322D01*
X726Y324D01*
X728Y324D01*
X728Y326D01*
X730Y326D01*
X730Y328D01*
X732Y328D01*
X732Y330D01*
X734Y330D01*
X734Y332D01*
X736Y332D01*
X736Y334D01*
X738Y334D01*
X738Y336D01*
X740Y336D01*
X740Y338D01*
X742Y338D01*
X742Y340D01*
X744Y340D01*
X744Y342D01*
X746Y342D01*
X746Y344D01*
X748Y344D01*
X748Y346D01*
X750Y346D01*
X750Y348D01*
X752Y348D01*
X752Y350D01*
X754Y350D01*
X754Y352D01*
X756Y352D01*
X756Y354D01*
X758Y354D01*
X758Y356D01*
X760Y356D01*
X760Y358D01*
X762Y358D01*
X762Y360D01*
X764Y360D01*
X764Y362D01*
X766Y362D01*
X766Y364D01*
X768Y364D01*
X768Y366D01*
X770Y366D01*
X770Y368D01*
X772Y368D01*
X772Y370D01*
X774Y370D01*
X774Y372D01*
X776Y372D01*
X776Y374D01*
X318Y374D01*
G37*
D02*
G36*
X840Y374D02*
X840Y372D01*
X838Y372D01*
X838Y370D01*
X836Y370D01*
X836Y368D01*
X834Y368D01*
X834Y366D01*
X832Y366D01*
X832Y364D01*
X830Y364D01*
X830Y362D01*
X828Y362D01*
X828Y360D01*
X826Y360D01*
X826Y358D01*
X824Y358D01*
X824Y356D01*
X820Y356D01*
X820Y354D01*
X818Y354D01*
X818Y352D01*
X816Y352D01*
X816Y350D01*
X814Y350D01*
X814Y348D01*
X812Y348D01*
X812Y346D01*
X810Y346D01*
X810Y344D01*
X808Y344D01*
X808Y342D01*
X806Y342D01*
X806Y340D01*
X804Y340D01*
X804Y338D01*
X802Y338D01*
X802Y336D01*
X800Y336D01*
X800Y334D01*
X798Y334D01*
X798Y332D01*
X796Y332D01*
X796Y330D01*
X794Y330D01*
X794Y328D01*
X792Y328D01*
X792Y326D01*
X790Y326D01*
X790Y324D01*
X788Y324D01*
X788Y322D01*
X1068Y322D01*
X1068Y320D01*
X1074Y320D01*
X1074Y318D01*
X1078Y318D01*
X1078Y316D01*
X1082Y316D01*
X1082Y314D01*
X1084Y314D01*
X1084Y312D01*
X1088Y312D01*
X1088Y310D01*
X1090Y310D01*
X1090Y308D01*
X1092Y308D01*
X1092Y306D01*
X1094Y306D01*
X1094Y304D01*
X1096Y304D01*
X1096Y300D01*
X1098Y300D01*
X1098Y298D01*
X1100Y298D01*
X1100Y294D01*
X1102Y294D01*
X1102Y290D01*
X1104Y290D01*
X1104Y284D01*
X1106Y284D01*
X1106Y266D01*
X1104Y266D01*
X1104Y260D01*
X1102Y260D01*
X1102Y256D01*
X1100Y256D01*
X1100Y252D01*
X1098Y252D01*
X1098Y250D01*
X1096Y250D01*
X1096Y246D01*
X1094Y246D01*
X1094Y244D01*
X1092Y244D01*
X1092Y242D01*
X1090Y242D01*
X1090Y240D01*
X1088Y240D01*
X1088Y238D01*
X1084Y238D01*
X1084Y236D01*
X1082Y236D01*
X1082Y234D01*
X1078Y234D01*
X1078Y232D01*
X1074Y232D01*
X1074Y230D01*
X1068Y230D01*
X1068Y228D01*
X1112Y228D01*
X1112Y230D01*
X1114Y230D01*
X1114Y232D01*
X1116Y232D01*
X1116Y234D01*
X1118Y234D01*
X1118Y236D01*
X1120Y236D01*
X1120Y238D01*
X1122Y238D01*
X1122Y240D01*
X1124Y240D01*
X1124Y242D01*
X1126Y242D01*
X1126Y244D01*
X1128Y244D01*
X1128Y246D01*
X1130Y246D01*
X1130Y248D01*
X1132Y248D01*
X1132Y250D01*
X1134Y250D01*
X1134Y252D01*
X1136Y252D01*
X1136Y254D01*
X1138Y254D01*
X1138Y256D01*
X1140Y256D01*
X1140Y258D01*
X1142Y258D01*
X1142Y260D01*
X1144Y260D01*
X1144Y262D01*
X1146Y262D01*
X1146Y264D01*
X1148Y264D01*
X1148Y266D01*
X1150Y266D01*
X1150Y268D01*
X1152Y268D01*
X1152Y270D01*
X1154Y270D01*
X1154Y272D01*
X1156Y272D01*
X1156Y274D01*
X1158Y274D01*
X1158Y276D01*
X1160Y276D01*
X1160Y278D01*
X1162Y278D01*
X1162Y280D01*
X1164Y280D01*
X1164Y282D01*
X1166Y282D01*
X1166Y284D01*
X1168Y284D01*
X1168Y286D01*
X1170Y286D01*
X1170Y288D01*
X1172Y288D01*
X1172Y290D01*
X1174Y290D01*
X1174Y292D01*
X1176Y292D01*
X1176Y294D01*
X1178Y294D01*
X1178Y296D01*
X1180Y296D01*
X1180Y298D01*
X1182Y298D01*
X1182Y300D01*
X1184Y300D01*
X1184Y302D01*
X1186Y302D01*
X1186Y304D01*
X1188Y304D01*
X1188Y306D01*
X1190Y306D01*
X1190Y308D01*
X1192Y308D01*
X1192Y310D01*
X1194Y310D01*
X1194Y312D01*
X1196Y312D01*
X1196Y314D01*
X1198Y314D01*
X1198Y316D01*
X1200Y316D01*
X1200Y318D01*
X1202Y318D01*
X1202Y320D01*
X1204Y320D01*
X1204Y322D01*
X1206Y322D01*
X1206Y324D01*
X1208Y324D01*
X1208Y326D01*
X1210Y326D01*
X1210Y328D01*
X1212Y328D01*
X1212Y330D01*
X1214Y330D01*
X1214Y332D01*
X1216Y332D01*
X1216Y334D01*
X1218Y334D01*
X1218Y336D01*
X1220Y336D01*
X1220Y338D01*
X1222Y338D01*
X1222Y340D01*
X1224Y340D01*
X1224Y342D01*
X1226Y342D01*
X1226Y344D01*
X1228Y344D01*
X1228Y346D01*
X1230Y346D01*
X1230Y348D01*
X1232Y348D01*
X1232Y350D01*
X1234Y350D01*
X1234Y352D01*
X1236Y352D01*
X1236Y354D01*
X1238Y354D01*
X1238Y356D01*
X1240Y356D01*
X1240Y358D01*
X1242Y358D01*
X1242Y360D01*
X1244Y360D01*
X1244Y362D01*
X1246Y362D01*
X1246Y364D01*
X1248Y364D01*
X1248Y366D01*
X1250Y366D01*
X1250Y368D01*
X1252Y368D01*
X1252Y370D01*
X1254Y370D01*
X1254Y372D01*
X1256Y372D01*
X1256Y374D01*
X840Y374D01*
G37*
D02*
G36*
X1320Y374D02*
X1320Y372D01*
X1318Y372D01*
X1318Y370D01*
X1316Y370D01*
X1316Y368D01*
X1314Y368D01*
X1314Y366D01*
X1312Y366D01*
X1312Y364D01*
X1310Y364D01*
X1310Y362D01*
X1308Y362D01*
X1308Y360D01*
X1306Y360D01*
X1306Y358D01*
X1304Y358D01*
X1304Y356D01*
X1302Y356D01*
X1302Y354D01*
X1300Y354D01*
X1300Y352D01*
X1298Y352D01*
X1298Y350D01*
X1296Y350D01*
X1296Y348D01*
X1294Y348D01*
X1294Y346D01*
X1292Y346D01*
X1292Y344D01*
X1290Y344D01*
X1290Y342D01*
X1288Y342D01*
X1288Y340D01*
X1286Y340D01*
X1286Y338D01*
X1282Y338D01*
X1282Y336D01*
X1280Y336D01*
X1280Y334D01*
X1278Y334D01*
X1278Y332D01*
X1276Y332D01*
X1276Y330D01*
X1274Y330D01*
X1274Y328D01*
X1272Y328D01*
X1272Y326D01*
X1270Y326D01*
X1270Y324D01*
X1268Y324D01*
X1268Y322D01*
X1558Y322D01*
X1558Y320D01*
X1564Y320D01*
X1564Y318D01*
X1568Y318D01*
X1568Y316D01*
X1572Y316D01*
X1572Y314D01*
X1574Y314D01*
X1574Y312D01*
X1578Y312D01*
X1578Y310D01*
X1580Y310D01*
X1580Y308D01*
X1582Y308D01*
X1582Y306D01*
X1584Y306D01*
X1584Y304D01*
X1586Y304D01*
X1586Y302D01*
X1588Y302D01*
X1588Y298D01*
X1590Y298D01*
X1590Y296D01*
X1592Y296D01*
X1592Y292D01*
X1594Y292D01*
X1594Y286D01*
X1596Y286D01*
X1596Y276D01*
X1598Y276D01*
X1598Y272D01*
X1596Y272D01*
X1596Y262D01*
X1594Y262D01*
X1594Y258D01*
X1592Y258D01*
X1592Y254D01*
X1590Y254D01*
X1590Y250D01*
X1588Y250D01*
X1588Y248D01*
X1586Y248D01*
X1586Y246D01*
X1584Y246D01*
X1584Y242D01*
X1582Y242D01*
X1582Y240D01*
X1578Y240D01*
X1578Y238D01*
X1576Y238D01*
X1576Y236D01*
X1574Y236D01*
X1574Y234D01*
X1570Y234D01*
X1570Y232D01*
X1566Y232D01*
X1566Y230D01*
X1562Y230D01*
X1562Y228D01*
X1552Y228D01*
X1552Y226D01*
X1604Y226D01*
X1604Y228D01*
X1606Y228D01*
X1606Y230D01*
X1608Y230D01*
X1608Y232D01*
X1610Y232D01*
X1610Y234D01*
X1612Y234D01*
X1612Y236D01*
X1614Y236D01*
X1614Y238D01*
X1616Y238D01*
X1616Y240D01*
X1618Y240D01*
X1618Y242D01*
X1620Y242D01*
X1620Y244D01*
X1622Y244D01*
X1622Y246D01*
X1624Y246D01*
X1624Y248D01*
X1626Y248D01*
X1626Y250D01*
X1628Y250D01*
X1628Y252D01*
X1630Y252D01*
X1630Y254D01*
X1632Y254D01*
X1632Y256D01*
X1634Y256D01*
X1634Y258D01*
X1636Y258D01*
X1636Y260D01*
X1638Y260D01*
X1638Y262D01*
X1640Y262D01*
X1640Y264D01*
X1642Y264D01*
X1642Y266D01*
X1644Y266D01*
X1644Y268D01*
X1646Y268D01*
X1646Y270D01*
X1648Y270D01*
X1648Y272D01*
X1650Y272D01*
X1650Y274D01*
X1652Y274D01*
X1652Y276D01*
X1654Y276D01*
X1654Y278D01*
X1656Y278D01*
X1656Y280D01*
X1658Y280D01*
X1658Y282D01*
X1660Y282D01*
X1660Y284D01*
X1662Y284D01*
X1662Y286D01*
X1664Y286D01*
X1664Y288D01*
X1666Y288D01*
X1666Y290D01*
X1668Y290D01*
X1668Y292D01*
X1670Y292D01*
X1670Y294D01*
X1672Y294D01*
X1672Y296D01*
X1674Y296D01*
X1674Y298D01*
X1676Y298D01*
X1676Y300D01*
X1678Y300D01*
X1678Y302D01*
X1680Y302D01*
X1680Y304D01*
X1682Y304D01*
X1682Y306D01*
X1684Y306D01*
X1684Y308D01*
X1686Y308D01*
X1686Y310D01*
X1688Y310D01*
X1688Y312D01*
X1690Y312D01*
X1690Y314D01*
X1692Y314D01*
X1692Y316D01*
X1694Y316D01*
X1694Y318D01*
X1696Y318D01*
X1696Y320D01*
X1698Y320D01*
X1698Y322D01*
X1700Y322D01*
X1700Y324D01*
X1702Y324D01*
X1702Y326D01*
X1704Y326D01*
X1704Y328D01*
X1706Y328D01*
X1706Y330D01*
X1708Y330D01*
X1708Y332D01*
X1710Y332D01*
X1710Y334D01*
X1712Y334D01*
X1712Y336D01*
X1714Y336D01*
X1714Y338D01*
X1716Y338D01*
X1716Y340D01*
X1718Y340D01*
X1718Y342D01*
X1720Y342D01*
X1720Y344D01*
X1722Y344D01*
X1722Y346D01*
X1724Y346D01*
X1724Y348D01*
X1726Y348D01*
X1726Y350D01*
X1728Y350D01*
X1728Y352D01*
X1730Y352D01*
X1730Y354D01*
X1732Y354D01*
X1732Y356D01*
X1734Y356D01*
X1734Y358D01*
X1736Y358D01*
X1736Y360D01*
X1738Y360D01*
X1738Y362D01*
X1740Y362D01*
X1740Y364D01*
X1742Y364D01*
X1742Y366D01*
X1744Y366D01*
X1744Y368D01*
X1746Y368D01*
X1746Y370D01*
X1748Y370D01*
X1748Y372D01*
X1750Y372D01*
X1750Y374D01*
X1320Y374D01*
G37*
D02*
G36*
X786Y322D02*
X786Y320D01*
X846Y320D01*
X846Y318D01*
X852Y318D01*
X852Y316D01*
X858Y316D01*
X858Y314D01*
X860Y314D01*
X860Y312D01*
X864Y312D01*
X864Y310D01*
X866Y310D01*
X866Y308D01*
X870Y308D01*
X870Y306D01*
X872Y306D01*
X872Y304D01*
X874Y304D01*
X874Y300D01*
X876Y300D01*
X876Y298D01*
X878Y298D01*
X878Y296D01*
X880Y296D01*
X880Y294D01*
X902Y294D01*
X902Y296D01*
X1018Y296D01*
X1018Y298D01*
X1020Y298D01*
X1020Y302D01*
X1022Y302D01*
X1022Y304D01*
X1024Y304D01*
X1024Y306D01*
X1026Y306D01*
X1026Y308D01*
X1028Y308D01*
X1028Y310D01*
X1030Y310D01*
X1030Y312D01*
X1032Y312D01*
X1032Y314D01*
X1036Y314D01*
X1036Y316D01*
X1040Y316D01*
X1040Y318D01*
X1044Y318D01*
X1044Y320D01*
X1048Y320D01*
X1048Y322D01*
X786Y322D01*
G37*
D02*
G36*
X1266Y322D02*
X1266Y320D01*
X1264Y320D01*
X1264Y318D01*
X1262Y318D01*
X1262Y316D01*
X1260Y316D01*
X1260Y314D01*
X1258Y314D01*
X1258Y312D01*
X1256Y312D01*
X1256Y310D01*
X1254Y310D01*
X1254Y308D01*
X1252Y308D01*
X1252Y306D01*
X1250Y306D01*
X1250Y304D01*
X1248Y304D01*
X1248Y302D01*
X1246Y302D01*
X1246Y300D01*
X1244Y300D01*
X1244Y298D01*
X1242Y298D01*
X1242Y296D01*
X1240Y296D01*
X1240Y294D01*
X1238Y294D01*
X1238Y292D01*
X1236Y292D01*
X1236Y290D01*
X1234Y290D01*
X1234Y288D01*
X1232Y288D01*
X1232Y286D01*
X1230Y286D01*
X1230Y284D01*
X1228Y284D01*
X1228Y282D01*
X1226Y282D01*
X1226Y280D01*
X1224Y280D01*
X1224Y278D01*
X1222Y278D01*
X1222Y276D01*
X1220Y276D01*
X1220Y274D01*
X1218Y274D01*
X1218Y272D01*
X1216Y272D01*
X1216Y270D01*
X1214Y270D01*
X1214Y268D01*
X1212Y268D01*
X1212Y266D01*
X1210Y266D01*
X1210Y264D01*
X1208Y264D01*
X1208Y262D01*
X1206Y262D01*
X1206Y260D01*
X1204Y260D01*
X1204Y258D01*
X1202Y258D01*
X1202Y256D01*
X1200Y256D01*
X1200Y254D01*
X1198Y254D01*
X1198Y252D01*
X1196Y252D01*
X1196Y250D01*
X1194Y250D01*
X1194Y248D01*
X1192Y248D01*
X1192Y246D01*
X1190Y246D01*
X1190Y244D01*
X1188Y244D01*
X1188Y242D01*
X1186Y242D01*
X1186Y240D01*
X1184Y240D01*
X1184Y238D01*
X1182Y238D01*
X1182Y236D01*
X1180Y236D01*
X1180Y234D01*
X1178Y234D01*
X1178Y232D01*
X1176Y232D01*
X1176Y230D01*
X1174Y230D01*
X1174Y228D01*
X1304Y228D01*
X1304Y230D01*
X1298Y230D01*
X1298Y232D01*
X1294Y232D01*
X1294Y234D01*
X1292Y234D01*
X1292Y236D01*
X1288Y236D01*
X1288Y238D01*
X1286Y238D01*
X1286Y240D01*
X1284Y240D01*
X1284Y242D01*
X1282Y242D01*
X1282Y244D01*
X1280Y244D01*
X1280Y246D01*
X1278Y246D01*
X1278Y248D01*
X1276Y248D01*
X1276Y252D01*
X1274Y252D01*
X1274Y254D01*
X1272Y254D01*
X1272Y258D01*
X1270Y258D01*
X1270Y264D01*
X1268Y264D01*
X1268Y286D01*
X1270Y286D01*
X1270Y292D01*
X1272Y292D01*
X1272Y296D01*
X1274Y296D01*
X1274Y298D01*
X1276Y298D01*
X1276Y302D01*
X1278Y302D01*
X1278Y304D01*
X1280Y304D01*
X1280Y306D01*
X1282Y306D01*
X1282Y308D01*
X1284Y308D01*
X1284Y310D01*
X1286Y310D01*
X1286Y312D01*
X1288Y312D01*
X1288Y314D01*
X1292Y314D01*
X1292Y316D01*
X1294Y316D01*
X1294Y318D01*
X1300Y318D01*
X1300Y320D01*
X1304Y320D01*
X1304Y322D01*
X1266Y322D01*
G37*
D02*
G36*
X1324Y322D02*
X1324Y320D01*
X1330Y320D01*
X1330Y318D01*
X1334Y318D01*
X1334Y316D01*
X1338Y316D01*
X1338Y314D01*
X1340Y314D01*
X1340Y312D01*
X1344Y312D01*
X1344Y310D01*
X1346Y310D01*
X1346Y308D01*
X1348Y308D01*
X1348Y306D01*
X1350Y306D01*
X1350Y302D01*
X1352Y302D01*
X1352Y300D01*
X1354Y300D01*
X1354Y298D01*
X1356Y298D01*
X1356Y294D01*
X1358Y294D01*
X1358Y290D01*
X1360Y290D01*
X1360Y284D01*
X1362Y284D01*
X1362Y266D01*
X1360Y266D01*
X1360Y260D01*
X1358Y260D01*
X1358Y256D01*
X1356Y256D01*
X1356Y252D01*
X1354Y252D01*
X1354Y250D01*
X1352Y250D01*
X1352Y246D01*
X1350Y246D01*
X1350Y244D01*
X1348Y244D01*
X1348Y242D01*
X1346Y242D01*
X1346Y240D01*
X1344Y240D01*
X1344Y238D01*
X1340Y238D01*
X1340Y236D01*
X1338Y236D01*
X1338Y234D01*
X1334Y234D01*
X1334Y232D01*
X1330Y232D01*
X1330Y230D01*
X1324Y230D01*
X1324Y228D01*
X1538Y228D01*
X1538Y230D01*
X1532Y230D01*
X1532Y232D01*
X1528Y232D01*
X1528Y234D01*
X1526Y234D01*
X1526Y236D01*
X1522Y236D01*
X1522Y238D01*
X1520Y238D01*
X1520Y240D01*
X1518Y240D01*
X1518Y242D01*
X1516Y242D01*
X1516Y244D01*
X1514Y244D01*
X1514Y246D01*
X1512Y246D01*
X1512Y250D01*
X1510Y250D01*
X1510Y252D01*
X1508Y252D01*
X1508Y256D01*
X1506Y256D01*
X1506Y260D01*
X1504Y260D01*
X1504Y266D01*
X1502Y266D01*
X1502Y282D01*
X1504Y282D01*
X1504Y288D01*
X1506Y288D01*
X1506Y294D01*
X1508Y294D01*
X1508Y296D01*
X1510Y296D01*
X1510Y300D01*
X1512Y300D01*
X1512Y302D01*
X1514Y302D01*
X1514Y304D01*
X1516Y304D01*
X1516Y306D01*
X1518Y306D01*
X1518Y308D01*
X1520Y308D01*
X1520Y310D01*
X1522Y310D01*
X1522Y312D01*
X1524Y312D01*
X1524Y314D01*
X1528Y314D01*
X1528Y316D01*
X1530Y316D01*
X1530Y318D01*
X1536Y318D01*
X1536Y320D01*
X1542Y320D01*
X1542Y322D01*
X1324Y322D01*
G37*
D02*
G36*
X350Y320D02*
X350Y318D01*
X378Y318D01*
X378Y316D01*
X384Y316D01*
X384Y314D01*
X388Y314D01*
X388Y312D01*
X392Y312D01*
X392Y310D01*
X394Y310D01*
X394Y308D01*
X396Y308D01*
X396Y306D01*
X398Y306D01*
X398Y304D01*
X400Y304D01*
X400Y302D01*
X402Y302D01*
X402Y300D01*
X404Y300D01*
X404Y298D01*
X406Y298D01*
X406Y296D01*
X408Y296D01*
X408Y292D01*
X410Y292D01*
X410Y288D01*
X412Y288D01*
X412Y282D01*
X414Y282D01*
X414Y260D01*
X412Y260D01*
X412Y254D01*
X410Y254D01*
X410Y252D01*
X408Y252D01*
X408Y248D01*
X406Y248D01*
X406Y244D01*
X404Y244D01*
X404Y242D01*
X402Y242D01*
X402Y240D01*
X400Y240D01*
X400Y238D01*
X398Y238D01*
X398Y236D01*
X396Y236D01*
X396Y234D01*
X392Y234D01*
X392Y232D01*
X390Y232D01*
X390Y230D01*
X386Y230D01*
X386Y228D01*
X382Y228D01*
X382Y226D01*
X376Y226D01*
X376Y224D01*
X578Y224D01*
X578Y226D01*
X572Y226D01*
X572Y228D01*
X566Y228D01*
X566Y230D01*
X562Y230D01*
X562Y232D01*
X558Y232D01*
X558Y234D01*
X556Y234D01*
X556Y236D01*
X554Y236D01*
X554Y238D01*
X552Y238D01*
X552Y240D01*
X550Y240D01*
X550Y242D01*
X548Y242D01*
X548Y244D01*
X546Y244D01*
X546Y246D01*
X544Y246D01*
X544Y250D01*
X542Y250D01*
X542Y252D01*
X540Y252D01*
X540Y258D01*
X538Y258D01*
X538Y264D01*
X536Y264D01*
X536Y282D01*
X538Y282D01*
X538Y288D01*
X540Y288D01*
X540Y292D01*
X542Y292D01*
X542Y294D01*
X544Y294D01*
X544Y298D01*
X546Y298D01*
X546Y300D01*
X548Y300D01*
X548Y302D01*
X550Y302D01*
X550Y304D01*
X552Y304D01*
X552Y306D01*
X554Y306D01*
X554Y308D01*
X556Y308D01*
X556Y310D01*
X558Y310D01*
X558Y312D01*
X562Y312D01*
X562Y314D01*
X564Y314D01*
X564Y316D01*
X570Y316D01*
X570Y318D01*
X576Y318D01*
X576Y320D01*
X350Y320D01*
G37*
D02*
G36*
X784Y320D02*
X784Y318D01*
X782Y318D01*
X782Y316D01*
X780Y316D01*
X780Y314D01*
X778Y314D01*
X778Y312D01*
X776Y312D01*
X776Y310D01*
X774Y310D01*
X774Y308D01*
X772Y308D01*
X772Y306D01*
X770Y306D01*
X770Y304D01*
X768Y304D01*
X768Y302D01*
X766Y302D01*
X766Y300D01*
X764Y300D01*
X764Y298D01*
X762Y298D01*
X762Y296D01*
X760Y296D01*
X760Y294D01*
X758Y294D01*
X758Y292D01*
X756Y292D01*
X756Y290D01*
X754Y290D01*
X754Y288D01*
X752Y288D01*
X752Y286D01*
X750Y286D01*
X750Y284D01*
X748Y284D01*
X748Y282D01*
X746Y282D01*
X746Y280D01*
X744Y280D01*
X744Y278D01*
X742Y278D01*
X742Y276D01*
X738Y276D01*
X738Y274D01*
X736Y274D01*
X736Y272D01*
X734Y272D01*
X734Y270D01*
X732Y270D01*
X732Y268D01*
X730Y268D01*
X730Y266D01*
X728Y266D01*
X728Y264D01*
X726Y264D01*
X726Y262D01*
X724Y262D01*
X724Y260D01*
X722Y260D01*
X722Y258D01*
X720Y258D01*
X720Y256D01*
X718Y256D01*
X718Y254D01*
X716Y254D01*
X716Y252D01*
X714Y252D01*
X714Y250D01*
X712Y250D01*
X712Y248D01*
X710Y248D01*
X710Y246D01*
X708Y246D01*
X708Y244D01*
X706Y244D01*
X706Y242D01*
X704Y242D01*
X704Y240D01*
X702Y240D01*
X702Y238D01*
X700Y238D01*
X700Y236D01*
X698Y236D01*
X698Y234D01*
X696Y234D01*
X696Y232D01*
X694Y232D01*
X694Y230D01*
X692Y230D01*
X692Y228D01*
X690Y228D01*
X690Y226D01*
X688Y226D01*
X688Y224D01*
X834Y224D01*
X834Y226D01*
X826Y226D01*
X826Y228D01*
X822Y228D01*
X822Y230D01*
X818Y230D01*
X818Y232D01*
X814Y232D01*
X814Y234D01*
X812Y234D01*
X812Y236D01*
X810Y236D01*
X810Y238D01*
X808Y238D01*
X808Y240D01*
X806Y240D01*
X806Y242D01*
X804Y242D01*
X804Y244D01*
X802Y244D01*
X802Y246D01*
X800Y246D01*
X800Y250D01*
X798Y250D01*
X798Y252D01*
X796Y252D01*
X796Y258D01*
X794Y258D01*
X794Y262D01*
X792Y262D01*
X792Y282D01*
X794Y282D01*
X794Y288D01*
X796Y288D01*
X796Y292D01*
X798Y292D01*
X798Y294D01*
X800Y294D01*
X800Y298D01*
X802Y298D01*
X802Y300D01*
X804Y300D01*
X804Y302D01*
X806Y302D01*
X806Y306D01*
X810Y306D01*
X810Y308D01*
X812Y308D01*
X812Y310D01*
X814Y310D01*
X814Y312D01*
X818Y312D01*
X818Y314D01*
X820Y314D01*
X820Y316D01*
X826Y316D01*
X826Y318D01*
X832Y318D01*
X832Y320D01*
X784Y320D01*
G37*
D02*
G36*
X40Y318D02*
X40Y224D01*
X102Y224D01*
X102Y226D01*
X98Y226D01*
X98Y228D01*
X92Y228D01*
X92Y230D01*
X90Y230D01*
X90Y232D01*
X86Y232D01*
X86Y234D01*
X84Y234D01*
X84Y236D01*
X82Y236D01*
X82Y238D01*
X78Y238D01*
X78Y242D01*
X76Y242D01*
X76Y244D01*
X74Y244D01*
X74Y246D01*
X72Y246D01*
X72Y250D01*
X70Y250D01*
X70Y252D01*
X68Y252D01*
X68Y256D01*
X66Y256D01*
X66Y262D01*
X64Y262D01*
X64Y280D01*
X66Y280D01*
X66Y286D01*
X68Y286D01*
X68Y290D01*
X70Y290D01*
X70Y294D01*
X72Y294D01*
X72Y298D01*
X74Y298D01*
X74Y300D01*
X76Y300D01*
X76Y302D01*
X78Y302D01*
X78Y304D01*
X80Y304D01*
X80Y306D01*
X82Y306D01*
X82Y308D01*
X84Y308D01*
X84Y310D01*
X88Y310D01*
X88Y312D01*
X90Y312D01*
X90Y314D01*
X94Y314D01*
X94Y316D01*
X100Y316D01*
X100Y318D01*
X40Y318D01*
G37*
D02*
G36*
X902Y252D02*
X902Y250D01*
X880Y250D01*
X880Y248D01*
X878Y248D01*
X878Y246D01*
X876Y246D01*
X876Y244D01*
X874Y244D01*
X874Y242D01*
X872Y242D01*
X872Y238D01*
X868Y238D01*
X868Y236D01*
X866Y236D01*
X866Y234D01*
X864Y234D01*
X864Y232D01*
X860Y232D01*
X860Y230D01*
X856Y230D01*
X856Y228D01*
X1048Y228D01*
X1048Y230D01*
X1044Y230D01*
X1044Y232D01*
X1038Y232D01*
X1038Y234D01*
X1036Y234D01*
X1036Y236D01*
X1032Y236D01*
X1032Y238D01*
X1030Y238D01*
X1030Y240D01*
X1028Y240D01*
X1028Y242D01*
X1026Y242D01*
X1026Y244D01*
X1024Y244D01*
X1024Y246D01*
X1022Y246D01*
X1022Y248D01*
X1020Y248D01*
X1020Y252D01*
X902Y252D01*
G37*
D02*
G36*
X852Y228D02*
X852Y226D01*
X1110Y226D01*
X1110Y228D01*
X852Y228D01*
G37*
D02*
G36*
X852Y228D02*
X852Y226D01*
X1110Y226D01*
X1110Y228D01*
X852Y228D01*
G37*
D02*
G36*
X1172Y228D02*
X1172Y226D01*
X1548Y226D01*
X1548Y228D01*
X1172Y228D01*
G37*
D02*
G36*
X1172Y228D02*
X1172Y226D01*
X1548Y226D01*
X1548Y228D01*
X1172Y228D01*
G37*
D02*
G36*
X844Y226D02*
X844Y224D01*
X1108Y224D01*
X1108Y226D01*
X844Y226D01*
G37*
D02*
G36*
X1170Y226D02*
X1170Y224D01*
X1602Y224D01*
X1602Y226D01*
X1170Y226D01*
G37*
D02*
G36*
X1170Y226D02*
X1170Y224D01*
X1602Y224D01*
X1602Y226D01*
X1170Y226D01*
G37*
D02*
G36*
X40Y224D02*
X40Y222D01*
X622Y222D01*
X622Y224D01*
X40Y224D01*
G37*
D02*
G36*
X40Y224D02*
X40Y222D01*
X622Y222D01*
X622Y224D01*
X40Y224D01*
G37*
D02*
G36*
X40Y224D02*
X40Y222D01*
X622Y222D01*
X622Y224D01*
X40Y224D01*
G37*
D02*
G36*
X40Y224D02*
X40Y222D01*
X622Y222D01*
X622Y224D01*
X40Y224D01*
G37*
D02*
G36*
X686Y224D02*
X686Y222D01*
X1106Y222D01*
X1106Y224D01*
X686Y224D01*
G37*
D02*
G36*
X686Y224D02*
X686Y222D01*
X1106Y222D01*
X1106Y224D01*
X686Y224D01*
G37*
D02*
G36*
X1168Y224D02*
X1168Y222D01*
X1166Y222D01*
X1166Y220D01*
X1164Y220D01*
X1164Y218D01*
X1162Y218D01*
X1162Y216D01*
X1160Y216D01*
X1160Y214D01*
X1158Y214D01*
X1158Y212D01*
X1156Y212D01*
X1156Y210D01*
X1154Y210D01*
X1154Y208D01*
X1152Y208D01*
X1152Y206D01*
X1150Y206D01*
X1150Y204D01*
X1148Y204D01*
X1148Y202D01*
X1146Y202D01*
X1146Y200D01*
X1144Y200D01*
X1144Y198D01*
X1142Y198D01*
X1142Y196D01*
X1140Y196D01*
X1140Y194D01*
X1138Y194D01*
X1138Y192D01*
X1136Y192D01*
X1136Y190D01*
X1134Y190D01*
X1134Y188D01*
X1132Y188D01*
X1132Y186D01*
X1130Y186D01*
X1130Y184D01*
X1128Y184D01*
X1128Y182D01*
X1126Y182D01*
X1126Y180D01*
X1124Y180D01*
X1124Y178D01*
X1122Y178D01*
X1122Y176D01*
X1120Y176D01*
X1120Y174D01*
X1118Y174D01*
X1118Y172D01*
X1116Y172D01*
X1116Y170D01*
X1114Y170D01*
X1114Y168D01*
X1112Y168D01*
X1112Y166D01*
X1110Y166D01*
X1110Y164D01*
X1108Y164D01*
X1108Y162D01*
X1106Y162D01*
X1106Y160D01*
X1104Y160D01*
X1104Y158D01*
X1102Y158D01*
X1102Y156D01*
X1100Y156D01*
X1100Y154D01*
X1098Y154D01*
X1098Y152D01*
X1096Y152D01*
X1096Y150D01*
X1094Y150D01*
X1094Y148D01*
X1092Y148D01*
X1092Y146D01*
X1320Y146D01*
X1320Y144D01*
X1326Y144D01*
X1326Y142D01*
X1332Y142D01*
X1332Y140D01*
X1336Y140D01*
X1336Y138D01*
X1340Y138D01*
X1340Y136D01*
X1342Y136D01*
X1342Y134D01*
X1344Y134D01*
X1344Y132D01*
X1346Y132D01*
X1346Y130D01*
X1348Y130D01*
X1348Y128D01*
X1350Y128D01*
X1350Y126D01*
X1352Y126D01*
X1352Y124D01*
X1354Y124D01*
X1354Y120D01*
X1356Y120D01*
X1356Y116D01*
X1358Y116D01*
X1358Y112D01*
X1360Y112D01*
X1360Y106D01*
X1362Y106D01*
X1362Y90D01*
X1360Y90D01*
X1360Y84D01*
X1358Y84D01*
X1358Y78D01*
X1356Y78D01*
X1356Y76D01*
X1354Y76D01*
X1354Y72D01*
X1352Y72D01*
X1352Y70D01*
X1350Y70D01*
X1350Y50D01*
X1514Y50D01*
X1514Y70D01*
X1512Y70D01*
X1512Y72D01*
X1510Y72D01*
X1510Y76D01*
X1508Y76D01*
X1508Y78D01*
X1506Y78D01*
X1506Y84D01*
X1504Y84D01*
X1504Y90D01*
X1502Y90D01*
X1502Y106D01*
X1504Y106D01*
X1504Y112D01*
X1506Y112D01*
X1506Y116D01*
X1508Y116D01*
X1508Y120D01*
X1510Y120D01*
X1510Y122D01*
X1512Y122D01*
X1512Y126D01*
X1514Y126D01*
X1514Y128D01*
X1516Y128D01*
X1516Y130D01*
X1518Y130D01*
X1518Y132D01*
X1520Y132D01*
X1520Y134D01*
X1524Y134D01*
X1524Y136D01*
X1526Y136D01*
X1526Y146D01*
X1528Y146D01*
X1528Y150D01*
X1530Y150D01*
X1530Y152D01*
X1532Y152D01*
X1532Y156D01*
X1534Y156D01*
X1534Y158D01*
X1536Y158D01*
X1536Y160D01*
X1538Y160D01*
X1538Y162D01*
X1540Y162D01*
X1540Y164D01*
X1542Y164D01*
X1542Y166D01*
X1544Y166D01*
X1544Y168D01*
X1546Y168D01*
X1546Y170D01*
X1548Y170D01*
X1548Y172D01*
X1550Y172D01*
X1550Y174D01*
X1552Y174D01*
X1552Y176D01*
X1554Y176D01*
X1554Y178D01*
X1556Y178D01*
X1556Y180D01*
X1558Y180D01*
X1558Y182D01*
X1560Y182D01*
X1560Y184D01*
X1562Y184D01*
X1562Y186D01*
X1564Y186D01*
X1564Y188D01*
X1566Y188D01*
X1566Y190D01*
X1568Y190D01*
X1568Y192D01*
X1570Y192D01*
X1570Y194D01*
X1572Y194D01*
X1572Y196D01*
X1574Y196D01*
X1574Y198D01*
X1576Y198D01*
X1576Y200D01*
X1578Y200D01*
X1578Y202D01*
X1580Y202D01*
X1580Y204D01*
X1582Y204D01*
X1582Y206D01*
X1584Y206D01*
X1584Y208D01*
X1586Y208D01*
X1586Y210D01*
X1588Y210D01*
X1588Y212D01*
X1590Y212D01*
X1590Y214D01*
X1592Y214D01*
X1592Y216D01*
X1594Y216D01*
X1594Y218D01*
X1596Y218D01*
X1596Y220D01*
X1598Y220D01*
X1598Y222D01*
X1600Y222D01*
X1600Y224D01*
X1168Y224D01*
G37*
D02*
G36*
X40Y222D02*
X40Y142D01*
X374Y142D01*
X374Y140D01*
X380Y140D01*
X380Y138D01*
X386Y138D01*
X386Y136D01*
X390Y136D01*
X390Y134D01*
X392Y134D01*
X392Y132D01*
X394Y132D01*
X394Y130D01*
X398Y130D01*
X398Y128D01*
X400Y128D01*
X400Y126D01*
X402Y126D01*
X402Y124D01*
X404Y124D01*
X404Y120D01*
X406Y120D01*
X406Y118D01*
X408Y118D01*
X408Y114D01*
X410Y114D01*
X410Y110D01*
X412Y110D01*
X412Y106D01*
X414Y106D01*
X414Y84D01*
X412Y84D01*
X412Y78D01*
X410Y78D01*
X410Y74D01*
X408Y74D01*
X408Y70D01*
X406Y70D01*
X406Y68D01*
X404Y68D01*
X404Y66D01*
X402Y66D01*
X402Y64D01*
X400Y64D01*
X400Y62D01*
X398Y62D01*
X398Y42D01*
X552Y42D01*
X552Y62D01*
X550Y62D01*
X550Y64D01*
X548Y64D01*
X548Y66D01*
X546Y66D01*
X546Y70D01*
X544Y70D01*
X544Y72D01*
X542Y72D01*
X542Y76D01*
X540Y76D01*
X540Y80D01*
X538Y80D01*
X538Y86D01*
X536Y86D01*
X536Y104D01*
X538Y104D01*
X538Y110D01*
X540Y110D01*
X540Y114D01*
X542Y114D01*
X542Y118D01*
X544Y118D01*
X544Y120D01*
X546Y120D01*
X546Y124D01*
X548Y124D01*
X548Y126D01*
X550Y126D01*
X550Y128D01*
X552Y128D01*
X552Y130D01*
X554Y130D01*
X554Y132D01*
X558Y132D01*
X558Y134D01*
X560Y134D01*
X560Y136D01*
X562Y136D01*
X562Y158D01*
X564Y158D01*
X564Y164D01*
X566Y164D01*
X566Y168D01*
X568Y168D01*
X568Y170D01*
X570Y170D01*
X570Y172D01*
X572Y172D01*
X572Y174D01*
X574Y174D01*
X574Y176D01*
X576Y176D01*
X576Y178D01*
X578Y178D01*
X578Y180D01*
X580Y180D01*
X580Y182D01*
X582Y182D01*
X582Y184D01*
X584Y184D01*
X584Y186D01*
X586Y186D01*
X586Y188D01*
X588Y188D01*
X588Y190D01*
X590Y190D01*
X590Y192D01*
X592Y192D01*
X592Y194D01*
X594Y194D01*
X594Y196D01*
X596Y196D01*
X596Y198D01*
X598Y198D01*
X598Y200D01*
X600Y200D01*
X600Y202D01*
X602Y202D01*
X602Y204D01*
X604Y204D01*
X604Y206D01*
X606Y206D01*
X606Y208D01*
X608Y208D01*
X608Y210D01*
X610Y210D01*
X610Y212D01*
X612Y212D01*
X612Y214D01*
X614Y214D01*
X614Y216D01*
X616Y216D01*
X616Y218D01*
X618Y218D01*
X618Y220D01*
X620Y220D01*
X620Y222D01*
X40Y222D01*
G37*
D02*
G36*
X684Y222D02*
X684Y220D01*
X682Y220D01*
X682Y218D01*
X680Y218D01*
X680Y216D01*
X678Y216D01*
X678Y214D01*
X676Y214D01*
X676Y212D01*
X674Y212D01*
X674Y210D01*
X672Y210D01*
X672Y208D01*
X670Y208D01*
X670Y206D01*
X668Y206D01*
X668Y204D01*
X666Y204D01*
X666Y202D01*
X664Y202D01*
X664Y200D01*
X662Y200D01*
X662Y198D01*
X658Y198D01*
X658Y196D01*
X656Y196D01*
X656Y194D01*
X654Y194D01*
X654Y192D01*
X652Y192D01*
X652Y190D01*
X650Y190D01*
X650Y188D01*
X648Y188D01*
X648Y186D01*
X646Y186D01*
X646Y184D01*
X644Y184D01*
X644Y182D01*
X642Y182D01*
X642Y180D01*
X640Y180D01*
X640Y178D01*
X638Y178D01*
X638Y176D01*
X636Y176D01*
X636Y174D01*
X634Y174D01*
X634Y172D01*
X632Y172D01*
X632Y170D01*
X630Y170D01*
X630Y168D01*
X628Y168D01*
X628Y166D01*
X626Y166D01*
X626Y164D01*
X624Y164D01*
X624Y162D01*
X622Y162D01*
X622Y160D01*
X620Y160D01*
X620Y158D01*
X618Y158D01*
X618Y156D01*
X616Y156D01*
X616Y154D01*
X614Y154D01*
X614Y152D01*
X612Y152D01*
X612Y142D01*
X850Y142D01*
X850Y140D01*
X854Y140D01*
X854Y138D01*
X858Y138D01*
X858Y136D01*
X862Y136D01*
X862Y134D01*
X866Y134D01*
X866Y132D01*
X868Y132D01*
X868Y130D01*
X870Y130D01*
X870Y128D01*
X872Y128D01*
X872Y126D01*
X874Y126D01*
X874Y124D01*
X876Y124D01*
X876Y122D01*
X878Y122D01*
X878Y118D01*
X880Y118D01*
X880Y116D01*
X882Y116D01*
X882Y112D01*
X884Y112D01*
X884Y106D01*
X886Y106D01*
X886Y84D01*
X884Y84D01*
X884Y78D01*
X882Y78D01*
X882Y76D01*
X880Y76D01*
X880Y72D01*
X878Y72D01*
X878Y68D01*
X876Y68D01*
X876Y66D01*
X874Y66D01*
X874Y64D01*
X872Y64D01*
X872Y62D01*
X870Y62D01*
X870Y42D01*
X1032Y42D01*
X1032Y62D01*
X1028Y62D01*
X1028Y64D01*
X1026Y64D01*
X1026Y66D01*
X1024Y66D01*
X1024Y68D01*
X1022Y68D01*
X1022Y72D01*
X1020Y72D01*
X1020Y74D01*
X1018Y74D01*
X1018Y78D01*
X1016Y78D01*
X1016Y82D01*
X1014Y82D01*
X1014Y86D01*
X1012Y86D01*
X1012Y108D01*
X1014Y108D01*
X1014Y114D01*
X1016Y114D01*
X1016Y118D01*
X1018Y118D01*
X1018Y122D01*
X1020Y122D01*
X1020Y124D01*
X1022Y124D01*
X1022Y126D01*
X1024Y126D01*
X1024Y130D01*
X1026Y130D01*
X1026Y132D01*
X1030Y132D01*
X1030Y134D01*
X1032Y134D01*
X1032Y136D01*
X1034Y136D01*
X1034Y138D01*
X1036Y138D01*
X1036Y154D01*
X1038Y154D01*
X1038Y156D01*
X1040Y156D01*
X1040Y160D01*
X1042Y160D01*
X1042Y162D01*
X1044Y162D01*
X1044Y164D01*
X1046Y164D01*
X1046Y166D01*
X1048Y166D01*
X1048Y168D01*
X1050Y168D01*
X1050Y170D01*
X1052Y170D01*
X1052Y172D01*
X1054Y172D01*
X1054Y174D01*
X1056Y174D01*
X1056Y176D01*
X1058Y176D01*
X1058Y178D01*
X1060Y178D01*
X1060Y180D01*
X1062Y180D01*
X1062Y182D01*
X1064Y182D01*
X1064Y184D01*
X1066Y184D01*
X1066Y186D01*
X1068Y186D01*
X1068Y188D01*
X1070Y188D01*
X1070Y190D01*
X1072Y190D01*
X1072Y192D01*
X1074Y192D01*
X1074Y194D01*
X1076Y194D01*
X1076Y196D01*
X1078Y196D01*
X1078Y198D01*
X1082Y198D01*
X1082Y200D01*
X1084Y200D01*
X1084Y202D01*
X1086Y202D01*
X1086Y204D01*
X1088Y204D01*
X1088Y206D01*
X1090Y206D01*
X1090Y208D01*
X1092Y208D01*
X1092Y210D01*
X1094Y210D01*
X1094Y212D01*
X1096Y212D01*
X1096Y214D01*
X1098Y214D01*
X1098Y216D01*
X1100Y216D01*
X1100Y218D01*
X1102Y218D01*
X1102Y220D01*
X1104Y220D01*
X1104Y222D01*
X684Y222D01*
G37*
D02*
G36*
X1092Y146D02*
X1092Y128D01*
X1094Y128D01*
X1094Y126D01*
X1096Y126D01*
X1096Y124D01*
X1098Y124D01*
X1098Y120D01*
X1100Y120D01*
X1100Y116D01*
X1102Y116D01*
X1102Y112D01*
X1104Y112D01*
X1104Y106D01*
X1106Y106D01*
X1106Y76D01*
X1108Y76D01*
X1108Y74D01*
X1110Y74D01*
X1110Y72D01*
X1112Y72D01*
X1112Y70D01*
X1114Y70D01*
X1114Y68D01*
X1116Y68D01*
X1116Y66D01*
X1118Y66D01*
X1118Y64D01*
X1120Y64D01*
X1120Y62D01*
X1122Y62D01*
X1122Y60D01*
X1124Y60D01*
X1124Y58D01*
X1126Y58D01*
X1126Y56D01*
X1128Y56D01*
X1128Y54D01*
X1130Y54D01*
X1130Y52D01*
X1132Y52D01*
X1132Y50D01*
X1278Y50D01*
X1278Y72D01*
X1276Y72D01*
X1276Y74D01*
X1274Y74D01*
X1274Y78D01*
X1272Y78D01*
X1272Y82D01*
X1270Y82D01*
X1270Y86D01*
X1268Y86D01*
X1268Y108D01*
X1270Y108D01*
X1270Y114D01*
X1272Y114D01*
X1272Y118D01*
X1274Y118D01*
X1274Y122D01*
X1276Y122D01*
X1276Y124D01*
X1278Y124D01*
X1278Y126D01*
X1280Y126D01*
X1280Y130D01*
X1282Y130D01*
X1282Y132D01*
X1286Y132D01*
X1286Y134D01*
X1288Y134D01*
X1288Y136D01*
X1290Y136D01*
X1290Y138D01*
X1294Y138D01*
X1294Y140D01*
X1296Y140D01*
X1296Y142D01*
X1302Y142D01*
X1302Y144D01*
X1310Y144D01*
X1310Y146D01*
X1092Y146D01*
G37*
D02*
G36*
X40Y142D02*
X40Y42D01*
X80Y42D01*
X80Y62D01*
X78Y62D01*
X78Y64D01*
X76Y64D01*
X76Y66D01*
X74Y66D01*
X74Y68D01*
X72Y68D01*
X72Y72D01*
X70Y72D01*
X70Y76D01*
X68Y76D01*
X68Y80D01*
X66Y80D01*
X66Y86D01*
X64Y86D01*
X64Y104D01*
X66Y104D01*
X66Y108D01*
X68Y108D01*
X68Y114D01*
X70Y114D01*
X70Y116D01*
X72Y116D01*
X72Y120D01*
X74Y120D01*
X74Y122D01*
X76Y122D01*
X76Y124D01*
X78Y124D01*
X78Y126D01*
X80Y126D01*
X80Y128D01*
X82Y128D01*
X82Y130D01*
X84Y130D01*
X84Y132D01*
X86Y132D01*
X86Y134D01*
X90Y134D01*
X90Y136D01*
X92Y136D01*
X92Y138D01*
X98Y138D01*
X98Y140D01*
X104Y140D01*
X104Y142D01*
X40Y142D01*
G37*
D02*
G36*
X118Y142D02*
X118Y140D01*
X124Y140D01*
X124Y138D01*
X130Y138D01*
X130Y136D01*
X134Y136D01*
X134Y134D01*
X136Y134D01*
X136Y132D01*
X140Y132D01*
X140Y130D01*
X142Y130D01*
X142Y128D01*
X144Y128D01*
X144Y126D01*
X146Y126D01*
X146Y124D01*
X148Y124D01*
X148Y120D01*
X150Y120D01*
X150Y118D01*
X152Y118D01*
X152Y114D01*
X154Y114D01*
X154Y110D01*
X156Y110D01*
X156Y106D01*
X158Y106D01*
X158Y84D01*
X156Y84D01*
X156Y78D01*
X154Y78D01*
X154Y74D01*
X152Y74D01*
X152Y70D01*
X150Y70D01*
X150Y68D01*
X148Y68D01*
X148Y66D01*
X146Y66D01*
X146Y62D01*
X144Y62D01*
X144Y42D01*
X336Y42D01*
X336Y62D01*
X334Y62D01*
X334Y64D01*
X332Y64D01*
X332Y66D01*
X330Y66D01*
X330Y68D01*
X328Y68D01*
X328Y72D01*
X326Y72D01*
X326Y76D01*
X324Y76D01*
X324Y80D01*
X322Y80D01*
X322Y86D01*
X320Y86D01*
X320Y104D01*
X322Y104D01*
X322Y110D01*
X324Y110D01*
X324Y114D01*
X326Y114D01*
X326Y116D01*
X328Y116D01*
X328Y120D01*
X330Y120D01*
X330Y122D01*
X332Y122D01*
X332Y124D01*
X334Y124D01*
X334Y128D01*
X338Y128D01*
X338Y130D01*
X340Y130D01*
X340Y132D01*
X342Y132D01*
X342Y134D01*
X346Y134D01*
X346Y136D01*
X348Y136D01*
X348Y138D01*
X354Y138D01*
X354Y140D01*
X360Y140D01*
X360Y142D01*
X118Y142D01*
G37*
D02*
G36*
X612Y142D02*
X612Y130D01*
X614Y130D01*
X614Y128D01*
X616Y128D01*
X616Y126D01*
X618Y126D01*
X618Y124D01*
X620Y124D01*
X620Y122D01*
X622Y122D01*
X622Y118D01*
X624Y118D01*
X624Y116D01*
X626Y116D01*
X626Y112D01*
X628Y112D01*
X628Y106D01*
X630Y106D01*
X630Y84D01*
X628Y84D01*
X628Y78D01*
X626Y78D01*
X626Y74D01*
X624Y74D01*
X624Y72D01*
X622Y72D01*
X622Y68D01*
X620Y68D01*
X620Y66D01*
X618Y66D01*
X618Y64D01*
X616Y64D01*
X616Y62D01*
X614Y62D01*
X614Y42D01*
X808Y42D01*
X808Y62D01*
X806Y62D01*
X806Y64D01*
X804Y64D01*
X804Y66D01*
X802Y66D01*
X802Y70D01*
X800Y70D01*
X800Y72D01*
X798Y72D01*
X798Y76D01*
X796Y76D01*
X796Y80D01*
X794Y80D01*
X794Y86D01*
X792Y86D01*
X792Y104D01*
X794Y104D01*
X794Y110D01*
X796Y110D01*
X796Y114D01*
X798Y114D01*
X798Y118D01*
X800Y118D01*
X800Y120D01*
X802Y120D01*
X802Y124D01*
X804Y124D01*
X804Y126D01*
X806Y126D01*
X806Y128D01*
X808Y128D01*
X808Y130D01*
X810Y130D01*
X810Y132D01*
X814Y132D01*
X814Y134D01*
X816Y134D01*
X816Y136D01*
X820Y136D01*
X820Y138D01*
X824Y138D01*
X824Y140D01*
X830Y140D01*
X830Y142D01*
X612Y142D01*
G37*
D02*
G36*
X44Y448D02*
X76Y448D01*
X76Y405D01*
X44Y405D01*
X44Y448D01*
G37*
D02*
G36*
X1546Y448D02*
X1580Y448D01*
X1580Y405D01*
X1546Y405D01*
X1546Y448D01*
G37*
D02*
G36*
X1190Y990D02*
X1233Y990D01*
X1233Y958D01*
X1190Y958D01*
X1190Y990D01*
G37*
D02*
G04 End of Copper0*
M02*