M48
INCH
T10C0.035000
T11C0.031497
T12C0.038000
T13C0.037167
%
T10
X018983Y013071
X015983Y013071
X003920Y005347
X000920Y005347
X003956Y004236
X000956Y004236
X008591Y004225
X005591Y004225
X013388Y004228
X010388Y004228
X018321Y004229
X015321Y004229
X008580Y005412
X005580Y005412
X013351Y005365
X010351Y005365
X018298Y005380
X015298Y005380
X001114Y002710
X003673Y002710
X001114Y000938
X003673Y000938
X015496Y002739
X018055Y002739
X015496Y000968
X018055Y000968
X010587Y002745
X013146Y002745
X010587Y000974
X013146Y000974
X005833Y002717
X008392Y002717
X005833Y000946
X008392Y000946
X007462Y009381
X007462Y012381
X008462Y009381
X008462Y012381
X009462Y009381
X009462Y012381
X010462Y009381
X010462Y012381
X011462Y009381
X011462Y012381
X012462Y009381
X012462Y012381
X013462Y009381
X013462Y012381
T11
X016390Y011420
X016390Y010435
X016491Y006873
X017475Y006873
X001937Y006823
X002921Y006823
X006591Y006849
X007575Y006849
X011557Y006839
X012541Y006839
T12
X018177Y011460
X018177Y010460
T13
X002914Y012441
X002914Y009764
T00
M30
