G04 MADE WITH FRITZING*
G04 WWW.FRITZING.ORG*
G04 DOUBLE SIDED*
G04 HOLES PLATED*
G04 CONTOUR ON CENTER OF CONTOUR VECTOR*
%ASAXBY*%
%FSLAX23Y23*%
%MOIN*%
%OFA0B0*%
%SFA1.0B1.0*%
%ADD10C,0.010000*%
%ADD11C,0.005000*%
%ADD12C,0.005120*%
%LNSILK1*%
G90*
G70*
G54D10*
X1396Y1288D02*
X696Y1288D01*
D02*
X696Y1288D02*
X696Y888D01*
D02*
X696Y888D02*
X1396Y888D01*
D02*
X1396Y1288D02*
X1396Y1138D01*
D02*
X1396Y1038D02*
X1396Y888D01*
D02*
X829Y223D02*
X829Y144D01*
D02*
X633Y301D02*
X800Y301D01*
D02*
X633Y65D02*
X800Y65D01*
D02*
X593Y223D02*
X593Y144D01*
D02*
X711Y203D02*
X711Y164D01*
D02*
X731Y183D02*
X692Y183D01*
D02*
X1305Y225D02*
X1305Y147D01*
D02*
X1108Y304D02*
X1275Y304D01*
D02*
X1108Y68D02*
X1275Y68D01*
D02*
X1069Y225D02*
X1069Y147D01*
D02*
X1187Y206D02*
X1187Y166D01*
D02*
X1206Y186D02*
X1167Y186D01*
D02*
X1796Y225D02*
X1796Y146D01*
D02*
X1599Y304D02*
X1766Y304D01*
D02*
X1599Y67D02*
X1766Y67D01*
D02*
X1559Y225D02*
X1559Y146D01*
D02*
X1678Y205D02*
X1678Y166D01*
D02*
X1697Y185D02*
X1658Y185D01*
D02*
X357Y222D02*
X357Y143D01*
D02*
X161Y301D02*
X328Y301D01*
D02*
X161Y64D02*
X328Y64D01*
D02*
X121Y222D02*
X121Y143D01*
D02*
X239Y202D02*
X239Y163D01*
D02*
X259Y182D02*
X220Y182D01*
D02*
X1604Y563D02*
X1754Y563D01*
D02*
X1754Y563D02*
X1754Y513D01*
D02*
X1754Y513D02*
X1604Y513D01*
D02*
X1604Y513D02*
X1604Y563D01*
D02*
X1110Y561D02*
X1260Y561D01*
D02*
X1260Y561D02*
X1260Y511D01*
D02*
X1260Y511D02*
X1110Y511D01*
D02*
X1110Y511D02*
X1110Y561D01*
D02*
X633Y566D02*
X783Y566D01*
D02*
X783Y566D02*
X783Y516D01*
D02*
X783Y516D02*
X633Y516D01*
D02*
X633Y516D02*
X633Y566D01*
D02*
X1607Y447D02*
X1757Y447D01*
D02*
X1757Y447D02*
X1757Y397D01*
D02*
X1757Y397D02*
X1607Y397D01*
D02*
X1607Y397D02*
X1607Y447D01*
D02*
X1113Y447D02*
X1263Y447D01*
D02*
X1263Y447D02*
X1263Y397D01*
D02*
X1263Y397D02*
X1113Y397D01*
D02*
X1113Y397D02*
X1113Y447D01*
D02*
X634Y447D02*
X784Y447D01*
D02*
X784Y447D02*
X784Y397D01*
D02*
X784Y397D02*
X634Y397D01*
D02*
X634Y397D02*
X634Y447D01*
D02*
X170Y448D02*
X320Y448D01*
D02*
X320Y448D02*
X320Y398D01*
D02*
X320Y398D02*
X170Y398D01*
D02*
X170Y398D02*
X170Y448D01*
D02*
X167Y559D02*
X317Y559D01*
D02*
X317Y559D02*
X317Y509D01*
D02*
X317Y509D02*
X167Y509D01*
D02*
X167Y509D02*
X167Y559D01*
D02*
X1868Y996D02*
X1868Y1196D01*
D02*
X1868Y1196D02*
X1768Y1196D01*
D02*
X1768Y1196D02*
X1768Y996D01*
D02*
X1768Y996D02*
X1868Y996D01*
G54D11*
D02*
X1868Y1031D02*
X1833Y996D01*
G54D10*
D02*
X1673Y1332D02*
X1823Y1332D01*
D02*
X1823Y1332D02*
X1823Y1282D01*
D02*
X1823Y1282D02*
X1673Y1282D01*
D02*
X1673Y1282D02*
X1673Y1332D01*
G36*
X1869Y142D02*
X1869Y142D01*
X1869Y141D01*
X1869Y141D01*
X1869Y140D01*
X1870Y140D01*
X1870Y140D01*
X1870Y140D01*
X1870Y140D01*
X1870Y140D01*
X1870Y140D01*
X1871Y140D01*
X1871Y139D01*
X1871Y139D01*
X1871Y139D01*
X1871Y139D01*
X1871Y150D01*
X1871Y150D01*
X1871Y151D01*
X1872Y151D01*
X1872Y153D01*
X1872Y153D01*
X1872Y154D01*
X1872Y154D01*
X1872Y155D01*
X1873Y155D01*
X1873Y156D01*
X1873Y156D01*
X1873Y157D01*
X1873Y157D01*
X1873Y157D01*
X1874Y157D01*
X1874Y158D01*
X1874Y158D01*
X1874Y158D01*
X1874Y158D01*
X1874Y158D01*
X1875Y158D01*
X1875Y158D01*
X1875Y158D01*
X1875Y159D01*
X1876Y159D01*
X1876Y159D01*
X1877Y159D01*
X1877Y159D01*
X1878Y159D01*
X1878Y160D01*
X1878Y160D01*
X1878Y160D01*
X1879Y160D01*
X1879Y160D01*
X1881Y160D01*
X1881Y161D01*
X1881Y161D01*
X1881Y161D01*
X1883Y161D01*
X1883Y161D01*
X1884Y161D01*
X1884Y161D01*
X1886Y161D01*
X1886Y162D01*
X1887Y162D01*
X1887Y162D01*
X1889Y162D01*
X1889Y162D01*
X1891Y162D01*
X1891Y163D01*
X1893Y163D01*
X1893Y163D01*
X1893Y163D01*
X1893Y165D01*
X1892Y165D01*
X1892Y165D01*
X1890Y165D01*
X1890Y164D01*
X1888Y164D01*
X1888Y164D01*
X1887Y164D01*
X1887Y164D01*
X1885Y164D01*
X1885Y164D01*
X1884Y164D01*
X1884Y163D01*
X1883Y163D01*
X1883Y163D01*
X1882Y163D01*
X1882Y163D01*
X1881Y163D01*
X1881Y162D01*
X1880Y162D01*
X1880Y162D01*
X1879Y162D01*
X1879Y162D01*
X1878Y162D01*
X1878Y161D01*
X1877Y161D01*
X1877Y161D01*
X1876Y161D01*
X1876Y161D01*
X1875Y161D01*
X1875Y161D01*
X1875Y161D01*
X1875Y160D01*
X1874Y160D01*
X1874Y160D01*
X1873Y160D01*
X1873Y160D01*
X1873Y160D01*
X1873Y159D01*
X1872Y159D01*
X1872Y159D01*
X1872Y159D01*
X1872Y158D01*
X1871Y158D01*
X1871Y158D01*
X1871Y158D01*
X1871Y157D01*
X1871Y157D01*
X1871Y156D01*
X1871Y156D01*
X1871Y155D01*
X1870Y155D01*
X1870Y154D01*
X1870Y154D01*
X1870Y153D01*
X1870Y153D01*
X1870Y151D01*
X1869Y151D01*
X1869Y150D01*
X1869Y150D01*
X1869Y148D01*
X1869Y148D01*
X1869Y142D01*
G37*
D02*
G36*
X1871Y138D02*
X1871Y138D01*
X1871Y138D01*
X1872Y138D01*
X1872Y138D01*
X1872Y138D01*
X1872Y137D01*
X1872Y137D01*
X1872Y141D01*
X1874Y141D01*
X1874Y140D01*
X1876Y140D01*
X1876Y140D01*
X1878Y140D01*
X1878Y140D01*
X1880Y140D01*
X1880Y140D01*
X1881Y140D01*
X1881Y139D01*
X1883Y139D01*
X1883Y139D01*
X1885Y139D01*
X1885Y139D01*
X1889Y139D01*
X1889Y138D01*
X1892Y138D01*
X1892Y138D01*
X1895Y138D01*
X1895Y138D01*
X1897Y138D01*
X1897Y137D01*
X1898Y137D01*
X1898Y137D01*
X1899Y137D01*
X1899Y139D01*
X1898Y139D01*
X1898Y140D01*
X1895Y140D01*
X1895Y140D01*
X1893Y140D01*
X1893Y140D01*
X1891Y140D01*
X1891Y140D01*
X1888Y140D01*
X1888Y141D01*
X1886Y141D01*
X1886Y141D01*
X1884Y141D01*
X1884Y141D01*
X1882Y141D01*
X1882Y142D01*
X1880Y142D01*
X1880Y142D01*
X1878Y142D01*
X1878Y142D01*
X1876Y142D01*
X1876Y143D01*
X1874Y143D01*
X1874Y143D01*
X1873Y143D01*
X1873Y143D01*
X1872Y143D01*
X1872Y144D01*
X1871Y144D01*
X1871Y138D01*
G37*
D02*
G36*
X1872Y137D02*
X1873Y137D01*
X1873Y137D01*
X1874Y137D01*
X1874Y137D01*
X1874Y137D01*
X1874Y136D01*
X1875Y136D01*
X1875Y136D01*
X1877Y136D01*
X1877Y136D01*
X1878Y136D01*
X1878Y135D01*
X1879Y135D01*
X1879Y135D01*
X1881Y135D01*
X1881Y135D01*
X1882Y135D01*
X1882Y134D01*
X1884Y134D01*
X1884Y134D01*
X1886Y134D01*
X1886Y134D01*
X1888Y134D01*
X1888Y133D01*
X1891Y133D01*
X1891Y133D01*
X1893Y133D01*
X1893Y133D01*
X1893Y133D01*
X1893Y133D01*
X1898Y133D01*
X1898Y133D01*
X1899Y133D01*
X1899Y135D01*
X1893Y135D01*
X1893Y136D01*
X1889Y136D01*
X1889Y136D01*
X1886Y136D01*
X1886Y136D01*
X1883Y136D01*
X1883Y137D01*
X1881Y137D01*
X1881Y137D01*
X1880Y137D01*
X1880Y137D01*
X1879Y137D01*
X1879Y137D01*
X1878Y137D01*
X1878Y138D01*
X1877Y138D01*
X1877Y138D01*
X1876Y138D01*
X1876Y138D01*
X1875Y138D01*
X1875Y139D01*
X1874Y139D01*
X1874Y139D01*
X1874Y139D01*
X1874Y139D01*
X1873Y139D01*
X1873Y140D01*
X1873Y140D01*
X1873Y140D01*
X1873Y140D01*
X1873Y140D01*
X1872Y140D01*
X1872Y137D01*
G37*
D02*
G36*
X1875Y176D02*
X1875Y176D01*
X1875Y176D01*
X1875Y176D01*
X1875Y175D01*
X1876Y175D01*
X1876Y175D01*
X1876Y175D01*
X1876Y174D01*
X1876Y174D01*
X1876Y174D01*
X1877Y174D01*
X1877Y173D01*
X1877Y173D01*
X1877Y173D01*
X1877Y173D01*
X1877Y172D01*
X1878Y172D01*
X1878Y178D01*
X1878Y178D01*
X1878Y178D01*
X1878Y178D01*
X1878Y179D01*
X1878Y179D01*
X1878Y179D01*
X1879Y179D01*
X1879Y180D01*
X1879Y180D01*
X1879Y180D01*
X1879Y180D01*
X1879Y181D01*
X1880Y181D01*
X1880Y181D01*
X1880Y181D01*
X1880Y182D01*
X1880Y182D01*
X1880Y182D01*
X1881Y182D01*
X1881Y183D01*
X1881Y183D01*
X1881Y183D01*
X1881Y183D01*
X1881Y184D01*
X1881Y184D01*
X1881Y184D01*
X1882Y184D01*
X1882Y185D01*
X1882Y185D01*
X1882Y185D01*
X1882Y185D01*
X1882Y186D01*
X1883Y186D01*
X1883Y186D01*
X1883Y186D01*
X1883Y187D01*
X1883Y187D01*
X1883Y187D01*
X1884Y187D01*
X1884Y188D01*
X1884Y188D01*
X1884Y188D01*
X1890Y188D01*
X1890Y188D01*
X1895Y188D01*
X1895Y187D01*
X1898Y187D01*
X1898Y187D01*
X1901Y187D01*
X1901Y187D01*
X1904Y187D01*
X1904Y186D01*
X1906Y186D01*
X1906Y186D01*
X1909Y186D01*
X1909Y186D01*
X1911Y186D01*
X1911Y185D01*
X1914Y185D01*
X1914Y185D01*
X1916Y185D01*
X1916Y185D01*
X1924Y185D01*
X1924Y185D01*
X1929Y185D01*
X1929Y184D01*
X1931Y184D01*
X1931Y184D01*
X1933Y184D01*
X1933Y184D01*
X1934Y184D01*
X1934Y183D01*
X1935Y183D01*
X1935Y183D01*
X1936Y183D01*
X1936Y183D01*
X1936Y183D01*
X1936Y185D01*
X1936Y185D01*
X1936Y185D01*
X1935Y185D01*
X1935Y186D01*
X1933Y186D01*
X1933Y186D01*
X1931Y186D01*
X1931Y186D01*
X1929Y186D01*
X1929Y187D01*
X1924Y187D01*
X1924Y187D01*
X1915Y187D01*
X1915Y187D01*
X1912Y187D01*
X1912Y188D01*
X1910Y188D01*
X1910Y188D01*
X1907Y188D01*
X1907Y188D01*
X1905Y188D01*
X1905Y188D01*
X1902Y188D01*
X1902Y189D01*
X1900Y189D01*
X1900Y189D01*
X1897Y189D01*
X1897Y189D01*
X1894Y189D01*
X1894Y190D01*
X1891Y190D01*
X1891Y190D01*
X1888Y190D01*
X1888Y190D01*
X1885Y190D01*
X1885Y191D01*
X1882Y191D01*
X1882Y189D01*
X1881Y189D01*
X1881Y188D01*
X1881Y188D01*
X1881Y187D01*
X1881Y187D01*
X1881Y187D01*
X1881Y187D01*
X1881Y186D01*
X1880Y186D01*
X1880Y185D01*
X1880Y185D01*
X1880Y185D01*
X1880Y185D01*
X1880Y185D01*
X1879Y185D01*
X1879Y184D01*
X1879Y184D01*
X1879Y184D01*
X1879Y184D01*
X1879Y183D01*
X1878Y183D01*
X1878Y183D01*
X1878Y183D01*
X1878Y182D01*
X1878Y182D01*
X1878Y182D01*
X1878Y182D01*
X1878Y182D01*
X1877Y182D01*
X1877Y181D01*
X1877Y181D01*
X1877Y181D01*
X1877Y181D01*
X1877Y180D01*
X1876Y180D01*
X1876Y179D01*
X1876Y179D01*
X1876Y179D01*
X1876Y179D01*
X1876Y178D01*
X1875Y178D01*
X1875Y178D01*
X1875Y178D01*
X1875Y177D01*
X1875Y177D01*
X1875Y176D01*
G37*
D02*
G36*
X1877Y150D02*
X1877Y150D01*
X1877Y150D01*
X1878Y150D01*
X1878Y149D01*
X1878Y149D01*
X1878Y149D01*
X1879Y149D01*
X1879Y149D01*
X1881Y149D01*
X1881Y148D01*
X1882Y148D01*
X1882Y148D01*
X1884Y148D01*
X1884Y148D01*
X1885Y148D01*
X1885Y151D01*
X1888Y151D01*
X1888Y150D01*
X1888Y150D01*
X1888Y153D01*
X1888Y153D01*
X1888Y153D01*
X1885Y153D01*
X1885Y152D01*
X1883Y152D01*
X1883Y152D01*
X1881Y152D01*
X1881Y152D01*
X1879Y152D01*
X1879Y151D01*
X1877Y151D01*
X1877Y151D01*
X1877Y151D01*
X1877Y150D01*
G37*
D02*
G36*
X1878Y171D02*
X1878Y171D01*
X1878Y171D01*
X1878Y171D01*
X1878Y170D01*
X1878Y170D01*
X1878Y170D01*
X1879Y170D01*
X1879Y174D01*
X1880Y174D01*
X1880Y174D01*
X1881Y174D01*
X1881Y174D01*
X1881Y174D01*
X1881Y173D01*
X1882Y173D01*
X1882Y173D01*
X1882Y173D01*
X1882Y173D01*
X1883Y173D01*
X1883Y172D01*
X1883Y172D01*
X1883Y172D01*
X1884Y172D01*
X1884Y172D01*
X1884Y172D01*
X1884Y171D01*
X1884Y171D01*
X1884Y171D01*
X1885Y171D01*
X1885Y174D01*
X1884Y174D01*
X1884Y175D01*
X1884Y175D01*
X1884Y175D01*
X1883Y175D01*
X1883Y175D01*
X1882Y175D01*
X1882Y175D01*
X1881Y175D01*
X1881Y176D01*
X1881Y176D01*
X1881Y176D01*
X1880Y176D01*
X1880Y176D01*
X1879Y176D01*
X1879Y177D01*
X1878Y177D01*
X1878Y177D01*
X1878Y177D01*
X1878Y177D01*
X1878Y177D01*
X1878Y171D01*
G37*
D02*
G36*
X1879Y170D02*
X1879Y170D01*
X1879Y169D01*
X1880Y169D01*
X1880Y169D01*
X1881Y169D01*
X1881Y169D01*
X1881Y169D01*
X1881Y168D01*
X1882Y168D01*
X1882Y168D01*
X1883Y168D01*
X1883Y168D01*
X1884Y168D01*
X1884Y168D01*
X1885Y168D01*
X1885Y170D01*
X1882Y170D01*
X1882Y171D01*
X1881Y171D01*
X1881Y171D01*
X1881Y171D01*
X1881Y171D01*
X1880Y171D01*
X1880Y171D01*
X1880Y171D01*
X1880Y172D01*
X1880Y172D01*
X1880Y172D01*
X1879Y172D01*
X1879Y173D01*
X1879Y173D01*
X1879Y173D01*
X1879Y173D01*
X1879Y170D01*
G37*
D02*
G36*
X1885Y168D02*
X1885Y168D01*
X1885Y174D01*
X1885Y174D01*
X1885Y168D01*
G37*
D02*
G36*
X1885Y168D02*
X1885Y168D01*
X1885Y174D01*
X1885Y174D01*
X1885Y168D01*
G37*
D02*
G36*
X1885Y148D02*
X1888Y148D01*
X1888Y150D01*
X1886Y150D01*
X1886Y150D01*
X1885Y150D01*
X1885Y148D01*
G37*
D02*
G36*
X1885Y168D02*
X1885Y168D01*
X1885Y167D01*
X1887Y167D01*
X1887Y167D01*
X1888Y167D01*
X1888Y167D01*
X1889Y167D01*
X1889Y166D01*
X1891Y166D01*
X1891Y169D01*
X1891Y169D01*
X1891Y169D01*
X1891Y169D01*
X1891Y169D01*
X1892Y169D01*
X1892Y171D01*
X1891Y171D01*
X1891Y171D01*
X1891Y171D01*
X1891Y172D01*
X1890Y172D01*
X1890Y172D01*
X1889Y172D01*
X1889Y172D01*
X1888Y172D01*
X1888Y173D01*
X1888Y173D01*
X1888Y173D01*
X1887Y173D01*
X1887Y173D01*
X1886Y173D01*
X1886Y174D01*
X1886Y174D01*
X1886Y174D01*
X1885Y174D01*
X1885Y168D01*
G37*
D02*
G36*
X1888Y148D02*
X1888Y148D01*
X1888Y153D01*
X1888Y153D01*
X1888Y148D01*
G37*
D02*
G36*
X1888Y148D02*
X1888Y148D01*
X1888Y153D01*
X1888Y153D01*
X1888Y148D01*
G37*
D02*
G36*
X1888Y147D02*
X1892Y147D01*
X1892Y147D01*
X1894Y147D01*
X1894Y151D01*
X1895Y151D01*
X1895Y154D01*
X1895Y154D01*
X1895Y154D01*
X1892Y154D01*
X1892Y153D01*
X1890Y153D01*
X1890Y153D01*
X1888Y153D01*
X1888Y147D01*
G37*
D02*
G36*
X1891Y166D02*
X1891Y166D01*
X1891Y166D01*
X1892Y166D01*
X1892Y168D01*
X1891Y168D01*
X1891Y166D01*
G37*
D02*
G36*
X1891Y178D02*
X1892Y178D01*
X1892Y178D01*
X1893Y178D01*
X1893Y178D01*
X1894Y178D01*
X1894Y178D01*
X1895Y178D01*
X1895Y177D01*
X1896Y177D01*
X1896Y177D01*
X1897Y177D01*
X1897Y177D01*
X1897Y177D01*
X1897Y176D01*
X1898Y176D01*
X1898Y176D01*
X1899Y176D01*
X1899Y176D01*
X1900Y176D01*
X1900Y175D01*
X1900Y175D01*
X1900Y178D01*
X1904Y178D01*
X1904Y178D01*
X1910Y178D01*
X1910Y177D01*
X1915Y177D01*
X1915Y177D01*
X1918Y177D01*
X1918Y176D01*
X1918Y176D01*
X1918Y179D01*
X1915Y179D01*
X1915Y179D01*
X1910Y179D01*
X1910Y180D01*
X1906Y180D01*
X1906Y180D01*
X1902Y180D01*
X1902Y180D01*
X1899Y180D01*
X1899Y181D01*
X1896Y181D01*
X1896Y181D01*
X1895Y181D01*
X1895Y181D01*
X1893Y181D01*
X1893Y180D01*
X1892Y180D01*
X1892Y180D01*
X1892Y180D01*
X1892Y180D01*
X1891Y180D01*
X1891Y178D01*
G37*
D02*
G36*
X1892Y166D02*
X1892Y166D01*
X1892Y171D01*
X1892Y171D01*
X1892Y166D01*
G37*
D02*
G36*
X1892Y166D02*
X1892Y166D01*
X1892Y171D01*
X1892Y171D01*
X1892Y166D01*
G37*
D02*
G36*
X1892Y166D02*
X1892Y166D01*
X1892Y166D01*
X1893Y166D01*
X1893Y171D01*
X1893Y171D01*
X1893Y171D01*
X1892Y171D01*
X1892Y166D01*
G37*
D02*
G36*
X1893Y163D02*
X1894Y163D01*
X1894Y170D01*
X1893Y170D01*
X1893Y163D01*
G37*
D02*
G36*
X1893Y163D02*
X1894Y163D01*
X1894Y170D01*
X1893Y170D01*
X1893Y163D01*
G37*
D02*
G36*
X1894Y163D02*
X1895Y163D01*
X1895Y163D01*
X1897Y163D01*
X1897Y164D01*
X1899Y164D01*
X1899Y164D01*
X1904Y164D01*
X1904Y165D01*
X1904Y165D01*
X1904Y166D01*
X1903Y166D01*
X1903Y166D01*
X1903Y166D01*
X1903Y166D01*
X1902Y166D01*
X1902Y167D01*
X1902Y167D01*
X1902Y167D01*
X1901Y167D01*
X1901Y167D01*
X1900Y167D01*
X1900Y168D01*
X1899Y168D01*
X1899Y168D01*
X1899Y168D01*
X1899Y168D01*
X1898Y168D01*
X1898Y168D01*
X1897Y168D01*
X1897Y169D01*
X1897Y169D01*
X1897Y169D01*
X1896Y169D01*
X1896Y169D01*
X1895Y169D01*
X1895Y170D01*
X1895Y170D01*
X1895Y170D01*
X1894Y170D01*
X1894Y170D01*
X1894Y170D01*
X1894Y163D01*
G37*
D02*
G36*
X1894Y147D02*
X1895Y147D01*
X1895Y151D01*
X1895Y151D01*
X1895Y151D01*
X1894Y151D01*
X1894Y147D01*
G37*
D02*
G36*
X1895Y147D02*
X1895Y147D01*
X1895Y154D01*
X1895Y154D01*
X1895Y147D01*
G37*
D02*
G36*
X1895Y147D02*
X1895Y147D01*
X1895Y154D01*
X1895Y154D01*
X1895Y147D01*
G37*
D02*
G36*
X1895Y147D02*
X1896Y147D01*
X1896Y147D01*
X1897Y147D01*
X1897Y152D01*
X1898Y152D01*
X1898Y152D01*
X1900Y152D01*
X1900Y152D01*
X1900Y152D01*
X1900Y152D01*
X1900Y152D01*
X1900Y151D01*
X1901Y151D01*
X1901Y150D01*
X1901Y150D01*
X1901Y150D01*
X1901Y150D01*
X1901Y150D01*
X1902Y150D01*
X1902Y154D01*
X1899Y154D01*
X1899Y154D01*
X1897Y154D01*
X1897Y154D01*
X1895Y154D01*
X1895Y147D01*
G37*
D02*
G36*
X1897Y147D02*
X1900Y147D01*
X1900Y147D01*
X1902Y147D01*
X1902Y149D01*
X1901Y149D01*
X1901Y149D01*
X1901Y149D01*
X1901Y149D01*
X1900Y149D01*
X1900Y150D01*
X1900Y150D01*
X1900Y150D01*
X1899Y150D01*
X1899Y150D01*
X1899Y150D01*
X1899Y151D01*
X1898Y151D01*
X1898Y151D01*
X1898Y151D01*
X1898Y151D01*
X1898Y151D01*
X1898Y151D01*
X1897Y151D01*
X1897Y147D01*
G37*
D02*
G36*
X1899Y133D02*
X1899Y133D01*
X1899Y139D01*
X1899Y139D01*
X1899Y133D01*
G37*
D02*
G36*
X1899Y133D02*
X1899Y133D01*
X1899Y139D01*
X1899Y139D01*
X1899Y133D01*
G37*
D02*
G36*
X1899Y133D02*
X1902Y133D01*
X1902Y136D01*
X1903Y136D01*
X1903Y136D01*
X1903Y136D01*
X1903Y139D01*
X1901Y139D01*
X1901Y139D01*
X1899Y139D01*
X1899Y133D01*
G37*
D02*
G36*
X1900Y175D02*
X1901Y175D01*
X1901Y175D01*
X1902Y175D01*
X1902Y175D01*
X1902Y175D01*
X1902Y175D01*
X1903Y175D01*
X1903Y174D01*
X1904Y174D01*
X1904Y174D01*
X1905Y174D01*
X1905Y174D01*
X1906Y174D01*
X1906Y173D01*
X1907Y173D01*
X1907Y173D01*
X1907Y173D01*
X1907Y173D01*
X1908Y173D01*
X1908Y172D01*
X1909Y172D01*
X1909Y172D01*
X1910Y172D01*
X1910Y172D01*
X1911Y172D01*
X1911Y171D01*
X1912Y171D01*
X1912Y171D01*
X1912Y171D01*
X1912Y174D01*
X1915Y174D01*
X1915Y173D01*
X1917Y173D01*
X1917Y173D01*
X1918Y173D01*
X1918Y175D01*
X1915Y175D01*
X1915Y175D01*
X1913Y175D01*
X1913Y176D01*
X1911Y176D01*
X1911Y176D01*
X1908Y176D01*
X1908Y176D01*
X1905Y176D01*
X1905Y176D01*
X1904Y176D01*
X1904Y176D01*
X1904Y176D01*
X1904Y177D01*
X1903Y177D01*
X1903Y177D01*
X1902Y177D01*
X1902Y177D01*
X1900Y177D01*
X1900Y175D01*
G37*
D02*
G36*
X1902Y147D02*
X1902Y147D01*
X1902Y155D01*
X1902Y155D01*
X1902Y147D01*
G37*
D02*
G36*
X1902Y147D02*
X1902Y147D01*
X1902Y155D01*
X1902Y155D01*
X1902Y147D01*
G37*
D02*
G36*
X1902Y147D02*
X1904Y147D01*
X1904Y146D01*
X1908Y146D01*
X1908Y149D01*
X1908Y149D01*
X1908Y149D01*
X1910Y149D01*
X1910Y150D01*
X1912Y150D01*
X1912Y150D01*
X1913Y150D01*
X1913Y150D01*
X1915Y150D01*
X1915Y151D01*
X1916Y151D01*
X1916Y151D01*
X1918Y151D01*
X1918Y151D01*
X1919Y151D01*
X1919Y151D01*
X1921Y151D01*
X1921Y152D01*
X1922Y152D01*
X1922Y152D01*
X1924Y152D01*
X1924Y152D01*
X1926Y152D01*
X1926Y153D01*
X1928Y153D01*
X1928Y153D01*
X1929Y153D01*
X1929Y155D01*
X1928Y155D01*
X1928Y155D01*
X1926Y155D01*
X1926Y154D01*
X1924Y154D01*
X1924Y154D01*
X1923Y154D01*
X1923Y154D01*
X1921Y154D01*
X1921Y154D01*
X1919Y154D01*
X1919Y153D01*
X1918Y153D01*
X1918Y153D01*
X1916Y153D01*
X1916Y153D01*
X1915Y153D01*
X1915Y152D01*
X1913Y152D01*
X1913Y152D01*
X1912Y152D01*
X1912Y152D01*
X1910Y152D01*
X1910Y151D01*
X1909Y151D01*
X1909Y151D01*
X1908Y151D01*
X1908Y151D01*
X1907Y151D01*
X1907Y151D01*
X1906Y151D01*
X1906Y150D01*
X1904Y150D01*
X1904Y151D01*
X1903Y151D01*
X1903Y151D01*
X1903Y151D01*
X1903Y151D01*
X1902Y151D01*
X1902Y151D01*
X1902Y151D01*
X1902Y152D01*
X1902Y152D01*
X1902Y147D01*
G37*
D02*
G36*
X1902Y153D02*
X1904Y153D01*
X1904Y153D01*
X1906Y153D01*
X1906Y153D01*
X1908Y153D01*
X1908Y154D01*
X1909Y154D01*
X1909Y154D01*
X1911Y154D01*
X1911Y154D01*
X1912Y154D01*
X1912Y154D01*
X1913Y154D01*
X1913Y155D01*
X1915Y155D01*
X1915Y155D01*
X1916Y155D01*
X1916Y155D01*
X1917Y155D01*
X1917Y156D01*
X1919Y156D01*
X1919Y156D01*
X1920Y156D01*
X1920Y156D01*
X1921Y156D01*
X1921Y157D01*
X1922Y157D01*
X1922Y157D01*
X1924Y157D01*
X1924Y157D01*
X1927Y157D01*
X1927Y157D01*
X1927Y157D01*
X1927Y162D01*
X1927Y162D01*
X1927Y161D01*
X1927Y161D01*
X1927Y161D01*
X1926Y161D01*
X1926Y160D01*
X1926Y160D01*
X1926Y160D01*
X1926Y160D01*
X1926Y159D01*
X1924Y159D01*
X1924Y159D01*
X1922Y159D01*
X1922Y159D01*
X1921Y159D01*
X1921Y158D01*
X1919Y158D01*
X1919Y158D01*
X1918Y158D01*
X1918Y158D01*
X1917Y158D01*
X1917Y158D01*
X1915Y158D01*
X1915Y157D01*
X1914Y157D01*
X1914Y157D01*
X1913Y157D01*
X1913Y157D01*
X1911Y157D01*
X1911Y156D01*
X1910Y156D01*
X1910Y156D01*
X1908Y156D01*
X1908Y156D01*
X1907Y156D01*
X1907Y155D01*
X1906Y155D01*
X1906Y155D01*
X1904Y155D01*
X1904Y155D01*
X1902Y155D01*
X1902Y153D01*
G37*
D02*
G36*
X1902Y133D02*
X1902Y133D01*
X1902Y133D01*
X1903Y133D01*
X1903Y135D01*
X1902Y135D01*
X1902Y133D01*
G37*
D02*
G36*
X1903Y133D02*
X1903Y133D01*
X1903Y139D01*
X1903Y139D01*
X1903Y133D01*
G37*
D02*
G36*
X1903Y133D02*
X1903Y133D01*
X1903Y139D01*
X1903Y139D01*
X1903Y133D01*
G37*
D02*
G36*
X1903Y133D02*
X1905Y133D01*
X1905Y136D01*
X1905Y136D01*
X1905Y136D01*
X1906Y136D01*
X1906Y136D01*
X1907Y136D01*
X1907Y135D01*
X1907Y135D01*
X1907Y135D01*
X1907Y135D01*
X1907Y138D01*
X1906Y138D01*
X1906Y139D01*
X1903Y139D01*
X1903Y133D01*
G37*
D02*
G36*
X1905Y133D02*
X1905Y133D01*
X1905Y132D01*
X1907Y132D01*
X1907Y134D01*
X1906Y134D01*
X1906Y135D01*
X1905Y135D01*
X1905Y133D01*
G37*
D02*
G36*
X1907Y132D02*
X1908Y132D01*
X1908Y138D01*
X1907Y138D01*
X1907Y132D01*
G37*
D02*
G36*
X1907Y132D02*
X1908Y132D01*
X1908Y138D01*
X1907Y138D01*
X1907Y132D01*
G37*
D02*
G36*
X1908Y132D02*
X1908Y132D01*
X1908Y132D01*
X1910Y132D01*
X1910Y136D01*
X1911Y136D01*
X1911Y135D01*
X1912Y135D01*
X1912Y135D01*
X1912Y135D01*
X1912Y135D01*
X1913Y135D01*
X1913Y134D01*
X1913Y134D01*
X1913Y134D01*
X1913Y134D01*
X1913Y137D01*
X1912Y137D01*
X1912Y138D01*
X1910Y138D01*
X1910Y138D01*
X1908Y138D01*
X1908Y138D01*
X1908Y138D01*
X1908Y132D01*
G37*
D02*
G36*
X1908Y146D02*
X1912Y146D01*
X1912Y146D01*
X1916Y146D01*
X1916Y145D01*
X1920Y145D01*
X1920Y145D01*
X1924Y145D01*
X1924Y145D01*
X1927Y145D01*
X1927Y147D01*
X1924Y147D01*
X1924Y147D01*
X1920Y147D01*
X1920Y147D01*
X1916Y147D01*
X1916Y148D01*
X1913Y148D01*
X1913Y148D01*
X1910Y148D01*
X1910Y148D01*
X1909Y148D01*
X1909Y149D01*
X1908Y149D01*
X1908Y146D01*
G37*
D02*
G36*
X1910Y132D02*
X1911Y132D01*
X1911Y132D01*
X1913Y132D01*
X1913Y134D01*
X1913Y134D01*
X1913Y133D01*
X1912Y133D01*
X1912Y134D01*
X1911Y134D01*
X1911Y134D01*
X1911Y134D01*
X1911Y134D01*
X1910Y134D01*
X1910Y135D01*
X1910Y135D01*
X1910Y135D01*
X1910Y135D01*
X1910Y132D01*
G37*
D02*
G36*
X1912Y171D02*
X1913Y171D01*
X1913Y171D01*
X1914Y171D01*
X1914Y170D01*
X1914Y170D01*
X1914Y170D01*
X1915Y170D01*
X1915Y170D01*
X1915Y170D01*
X1915Y169D01*
X1916Y169D01*
X1916Y169D01*
X1917Y169D01*
X1917Y169D01*
X1917Y169D01*
X1917Y168D01*
X1918Y168D01*
X1918Y168D01*
X1919Y168D01*
X1919Y168D01*
X1919Y168D01*
X1919Y168D01*
X1920Y168D01*
X1920Y167D01*
X1920Y167D01*
X1920Y167D01*
X1921Y167D01*
X1921Y167D01*
X1922Y167D01*
X1922Y166D01*
X1922Y166D01*
X1922Y166D01*
X1922Y166D01*
X1922Y166D01*
X1923Y166D01*
X1923Y165D01*
X1924Y165D01*
X1924Y165D01*
X1924Y165D01*
X1924Y165D01*
X1925Y165D01*
X1925Y164D01*
X1925Y164D01*
X1925Y164D01*
X1926Y164D01*
X1926Y164D01*
X1926Y164D01*
X1926Y164D01*
X1926Y164D01*
X1926Y163D01*
X1927Y163D01*
X1927Y163D01*
X1927Y163D01*
X1927Y163D01*
X1927Y163D01*
X1927Y166D01*
X1927Y166D01*
X1927Y166D01*
X1926Y166D01*
X1926Y166D01*
X1926Y166D01*
X1926Y167D01*
X1925Y167D01*
X1925Y167D01*
X1925Y167D01*
X1925Y167D01*
X1924Y167D01*
X1924Y168D01*
X1924Y168D01*
X1924Y168D01*
X1923Y168D01*
X1923Y168D01*
X1922Y168D01*
X1922Y168D01*
X1922Y168D01*
X1922Y169D01*
X1921Y169D01*
X1921Y169D01*
X1921Y169D01*
X1921Y169D01*
X1920Y169D01*
X1920Y170D01*
X1919Y170D01*
X1919Y170D01*
X1919Y170D01*
X1919Y170D01*
X1918Y170D01*
X1918Y171D01*
X1918Y171D01*
X1918Y171D01*
X1917Y171D01*
X1917Y171D01*
X1916Y171D01*
X1916Y171D01*
X1916Y171D01*
X1916Y172D01*
X1915Y172D01*
X1915Y172D01*
X1915Y172D01*
X1915Y172D01*
X1914Y172D01*
X1914Y173D01*
X1913Y173D01*
X1913Y173D01*
X1912Y173D01*
X1912Y171D01*
G37*
D02*
G36*
X1913Y131D02*
X1914Y131D01*
X1914Y137D01*
X1913Y137D01*
X1913Y131D01*
G37*
D02*
G36*
X1913Y131D02*
X1914Y131D01*
X1914Y137D01*
X1913Y137D01*
X1913Y131D01*
G37*
D02*
G36*
X1914Y131D02*
X1915Y131D01*
X1915Y134D01*
X1915Y134D01*
X1915Y134D01*
X1916Y134D01*
X1916Y137D01*
X1915Y137D01*
X1915Y137D01*
X1914Y137D01*
X1914Y131D01*
G37*
D02*
G36*
X1915Y131D02*
X1916Y131D01*
X1916Y131D01*
X1916Y131D01*
X1916Y133D01*
X1916Y133D01*
X1916Y133D01*
X1915Y133D01*
X1915Y131D01*
G37*
D02*
G36*
X1916Y131D02*
X1917Y131D01*
X1917Y137D01*
X1916Y137D01*
X1916Y131D01*
G37*
D02*
G36*
X1916Y131D02*
X1917Y131D01*
X1917Y137D01*
X1916Y137D01*
X1916Y131D01*
G37*
D02*
G36*
X1917Y131D02*
X1918Y131D01*
X1918Y131D01*
X1919Y131D01*
X1919Y135D01*
X1919Y135D01*
X1919Y134D01*
X1920Y134D01*
X1920Y134D01*
X1921Y134D01*
X1921Y134D01*
X1921Y134D01*
X1921Y133D01*
X1921Y133D01*
X1921Y133D01*
X1922Y133D01*
X1922Y133D01*
X1922Y133D01*
X1922Y136D01*
X1921Y136D01*
X1921Y137D01*
X1918Y137D01*
X1918Y137D01*
X1917Y137D01*
X1917Y131D01*
G37*
D02*
G36*
X1918Y173D02*
X1918Y173D01*
X1918Y179D01*
X1918Y179D01*
X1918Y173D01*
G37*
D02*
G36*
X1918Y173D02*
X1918Y173D01*
X1918Y179D01*
X1918Y179D01*
X1918Y173D01*
G37*
D02*
G36*
X1918Y173D02*
X1919Y173D01*
X1919Y172D01*
X1920Y172D01*
X1920Y177D01*
X1921Y177D01*
X1921Y177D01*
X1922Y177D01*
X1922Y176D01*
X1922Y176D01*
X1922Y175D01*
X1922Y175D01*
X1922Y179D01*
X1919Y179D01*
X1919Y179D01*
X1918Y179D01*
X1918Y173D01*
G37*
D02*
G36*
X1919Y131D02*
X1920Y131D01*
X1920Y130D01*
X1922Y130D01*
X1922Y133D01*
X1922Y133D01*
X1922Y132D01*
X1921Y132D01*
X1921Y133D01*
X1920Y133D01*
X1920Y133D01*
X1920Y133D01*
X1920Y133D01*
X1919Y133D01*
X1919Y133D01*
X1919Y133D01*
X1919Y134D01*
X1919Y134D01*
X1919Y134D01*
X1919Y134D01*
X1919Y131D01*
G37*
D02*
G36*
X1920Y172D02*
X1921Y172D01*
X1921Y172D01*
X1922Y172D01*
X1922Y173D01*
X1922Y173D01*
X1922Y175D01*
X1922Y175D01*
X1922Y175D01*
X1921Y175D01*
X1921Y175D01*
X1921Y175D01*
X1921Y175D01*
X1920Y175D01*
X1920Y175D01*
X1920Y175D01*
X1920Y176D01*
X1920Y176D01*
X1920Y172D01*
G37*
D02*
G36*
X1922Y130D02*
X1922Y130D01*
X1922Y136D01*
X1922Y136D01*
X1922Y130D01*
G37*
D02*
G36*
X1922Y130D02*
X1922Y130D01*
X1922Y136D01*
X1922Y136D01*
X1922Y130D01*
G37*
D02*
G36*
X1922Y130D02*
X1922Y130D01*
X1922Y130D01*
X1925Y130D01*
X1925Y130D01*
X1927Y130D01*
X1927Y135D01*
X1927Y135D01*
X1927Y136D01*
X1927Y136D01*
X1927Y144D01*
X1927Y144D01*
X1927Y142D01*
X1927Y142D01*
X1927Y141D01*
X1926Y141D01*
X1926Y140D01*
X1926Y140D01*
X1926Y139D01*
X1926Y139D01*
X1926Y138D01*
X1926Y138D01*
X1926Y137D01*
X1925Y137D01*
X1925Y137D01*
X1925Y137D01*
X1925Y136D01*
X1922Y136D01*
X1922Y130D01*
G37*
D02*
G36*
X1922Y172D02*
X1922Y172D01*
X1922Y179D01*
X1922Y179D01*
X1922Y172D01*
G37*
D02*
G36*
X1922Y172D02*
X1922Y172D01*
X1922Y179D01*
X1922Y179D01*
X1922Y172D01*
G37*
D02*
G36*
X1922Y172D02*
X1924Y172D01*
X1924Y176D01*
X1926Y176D01*
X1926Y176D01*
X1927Y176D01*
X1927Y176D01*
X1928Y176D01*
X1928Y175D01*
X1928Y175D01*
X1928Y175D01*
X1929Y175D01*
X1929Y175D01*
X1929Y175D01*
X1929Y175D01*
X1929Y175D01*
X1929Y174D01*
X1930Y174D01*
X1930Y174D01*
X1930Y174D01*
X1930Y178D01*
X1928Y178D01*
X1928Y178D01*
X1926Y178D01*
X1926Y178D01*
X1924Y178D01*
X1924Y179D01*
X1922Y179D01*
X1922Y172D01*
G37*
D02*
G36*
X1924Y172D02*
X1924Y172D01*
X1924Y172D01*
X1926Y172D01*
X1926Y172D01*
X1928Y172D01*
X1928Y171D01*
X1930Y171D01*
X1930Y171D01*
X1930Y171D01*
X1930Y174D01*
X1928Y174D01*
X1928Y174D01*
X1927Y174D01*
X1927Y174D01*
X1926Y174D01*
X1926Y175D01*
X1926Y175D01*
X1926Y175D01*
X1925Y175D01*
X1925Y175D01*
X1925Y175D01*
X1925Y175D01*
X1924Y175D01*
X1924Y176D01*
X1924Y176D01*
X1924Y172D01*
G37*
D02*
G36*
X1927Y130D02*
X1928Y130D01*
X1928Y130D01*
X1928Y130D01*
X1928Y131D01*
X1929Y131D01*
X1929Y131D01*
X1929Y131D01*
X1929Y132D01*
X1929Y132D01*
X1929Y132D01*
X1929Y132D01*
X1929Y133D01*
X1930Y133D01*
X1930Y133D01*
X1930Y133D01*
X1930Y133D01*
X1930Y133D01*
X1930Y134D01*
X1931Y134D01*
X1931Y134D01*
X1931Y134D01*
X1931Y135D01*
X1931Y135D01*
X1931Y140D01*
X1931Y140D01*
X1931Y139D01*
X1931Y139D01*
X1931Y138D01*
X1930Y138D01*
X1930Y137D01*
X1930Y137D01*
X1930Y137D01*
X1930Y137D01*
X1930Y136D01*
X1929Y136D01*
X1929Y136D01*
X1929Y136D01*
X1929Y135D01*
X1929Y135D01*
X1929Y135D01*
X1929Y135D01*
X1929Y135D01*
X1928Y135D01*
X1928Y134D01*
X1928Y134D01*
X1928Y134D01*
X1928Y134D01*
X1928Y133D01*
X1927Y133D01*
X1927Y134D01*
X1927Y134D01*
X1927Y130D01*
G37*
D02*
G36*
X1927Y137D02*
X1928Y137D01*
X1928Y147D01*
X1927Y147D01*
X1927Y137D01*
G37*
D02*
G36*
X1927Y137D02*
X1928Y137D01*
X1928Y147D01*
X1927Y147D01*
X1927Y137D01*
G37*
D02*
G36*
X1927Y157D02*
X1928Y157D01*
X1928Y166D01*
X1927Y166D01*
X1927Y157D01*
G37*
D02*
G36*
X1927Y157D02*
X1928Y157D01*
X1928Y166D01*
X1927Y166D01*
X1927Y157D01*
G37*
D02*
G36*
X1928Y138D02*
X1928Y138D01*
X1928Y139D01*
X1928Y139D01*
X1928Y140D01*
X1929Y140D01*
X1929Y141D01*
X1929Y141D01*
X1929Y143D01*
X1930Y143D01*
X1930Y143D01*
X1930Y143D01*
X1930Y142D01*
X1931Y142D01*
X1931Y142D01*
X1931Y142D01*
X1931Y141D01*
X1931Y141D01*
X1931Y145D01*
X1931Y145D01*
X1931Y145D01*
X1931Y145D01*
X1931Y146D01*
X1930Y146D01*
X1930Y146D01*
X1930Y146D01*
X1930Y146D01*
X1930Y146D01*
X1930Y147D01*
X1929Y147D01*
X1929Y147D01*
X1928Y147D01*
X1928Y138D01*
G37*
D02*
G36*
X1928Y157D02*
X1928Y157D01*
X1928Y159D01*
X1928Y159D01*
X1928Y160D01*
X1929Y160D01*
X1929Y161D01*
X1929Y161D01*
X1929Y161D01*
X1929Y161D01*
X1929Y162D01*
X1930Y162D01*
X1930Y161D01*
X1932Y161D01*
X1932Y163D01*
X1931Y163D01*
X1931Y164D01*
X1931Y164D01*
X1931Y164D01*
X1930Y164D01*
X1930Y164D01*
X1930Y164D01*
X1930Y164D01*
X1929Y164D01*
X1929Y165D01*
X1929Y165D01*
X1929Y165D01*
X1928Y165D01*
X1928Y165D01*
X1928Y165D01*
X1928Y157D01*
G37*
D02*
G36*
X1928Y156D02*
X1928Y156D01*
X1928Y156D01*
X1929Y156D01*
X1929Y156D01*
X1929Y156D01*
X1929Y155D01*
X1929Y155D01*
X1929Y158D01*
X1929Y158D01*
X1929Y158D01*
X1929Y158D01*
X1929Y158D01*
X1928Y158D01*
X1928Y159D01*
X1928Y159D01*
X1928Y156D01*
G37*
D02*
G36*
X1929Y153D02*
X1929Y153D01*
X1929Y158D01*
X1929Y158D01*
X1929Y153D01*
G37*
D02*
G36*
X1929Y153D02*
X1929Y153D01*
X1929Y158D01*
X1929Y158D01*
X1929Y153D01*
G37*
D02*
G36*
X1929Y153D02*
X1930Y153D01*
X1930Y153D01*
X1931Y153D01*
X1931Y154D01*
X1931Y154D01*
X1931Y154D01*
X1932Y154D01*
X1932Y160D01*
X1931Y160D01*
X1931Y158D01*
X1931Y158D01*
X1931Y157D01*
X1931Y157D01*
X1931Y157D01*
X1930Y157D01*
X1930Y157D01*
X1930Y157D01*
X1930Y158D01*
X1929Y158D01*
X1929Y153D01*
G37*
D02*
G36*
X1930Y171D02*
X1930Y171D01*
X1930Y178D01*
X1930Y178D01*
X1930Y171D01*
G37*
D02*
G36*
X1930Y171D02*
X1930Y171D01*
X1930Y178D01*
X1930Y178D01*
X1930Y171D01*
G37*
D02*
G36*
X1930Y171D02*
X1931Y171D01*
X1931Y171D01*
X1932Y171D01*
X1932Y174D01*
X1933Y174D01*
X1933Y173D01*
X1934Y173D01*
X1934Y178D01*
X1931Y178D01*
X1931Y178D01*
X1930Y178D01*
X1930Y171D01*
G37*
D02*
G36*
X1931Y136D02*
X1932Y136D01*
X1932Y144D01*
X1931Y144D01*
X1931Y136D01*
G37*
D02*
G36*
X1931Y136D02*
X1932Y136D01*
X1932Y144D01*
X1931Y144D01*
X1931Y136D01*
G37*
D02*
G36*
X1932Y136D02*
X1932Y136D01*
X1932Y137D01*
X1932Y137D01*
X1932Y137D01*
X1932Y137D01*
X1932Y138D01*
X1933Y138D01*
X1933Y139D01*
X1933Y139D01*
X1933Y140D01*
X1933Y140D01*
X1933Y142D01*
X1933Y142D01*
X1933Y143D01*
X1933Y143D01*
X1933Y143D01*
X1932Y143D01*
X1932Y144D01*
X1932Y144D01*
X1932Y144D01*
X1932Y144D01*
X1932Y144D01*
X1932Y144D01*
X1932Y136D01*
G37*
D02*
G36*
X1932Y154D02*
X1932Y154D01*
X1932Y163D01*
X1932Y163D01*
X1932Y154D01*
G37*
D02*
G36*
X1932Y154D02*
X1932Y154D01*
X1932Y163D01*
X1932Y163D01*
X1932Y154D01*
G37*
D02*
G36*
X1932Y155D02*
X1932Y155D01*
X1932Y156D01*
X1932Y156D01*
X1932Y157D01*
X1933Y157D01*
X1933Y158D01*
X1933Y158D01*
X1933Y158D01*
X1933Y158D01*
X1933Y160D01*
X1934Y160D01*
X1934Y161D01*
X1934Y161D01*
X1934Y162D01*
X1934Y162D01*
X1934Y163D01*
X1933Y163D01*
X1933Y163D01*
X1933Y163D01*
X1933Y163D01*
X1932Y163D01*
X1932Y155D01*
G37*
D02*
G36*
X1932Y171D02*
X1933Y171D01*
X1933Y171D01*
X1934Y171D01*
X1934Y173D01*
X1933Y173D01*
X1933Y173D01*
X1932Y173D01*
X1932Y171D01*
G37*
D02*
G36*
X1934Y171D02*
X1934Y171D01*
X1934Y178D01*
X1934Y178D01*
X1934Y171D01*
G37*
D02*
G36*
X1934Y171D02*
X1934Y171D01*
X1934Y178D01*
X1934Y178D01*
X1934Y171D01*
G37*
D02*
G36*
X1934Y171D02*
X1934Y171D01*
X1934Y170D01*
X1936Y170D01*
X1936Y172D01*
X1936Y172D01*
X1936Y173D01*
X1936Y173D01*
X1936Y181D01*
X1936Y181D01*
X1936Y180D01*
X1936Y180D01*
X1936Y178D01*
X1935Y178D01*
X1935Y177D01*
X1934Y177D01*
X1934Y178D01*
X1934Y178D01*
X1934Y171D01*
G37*
D02*
G36*
X1936Y170D02*
X1937Y170D01*
X1937Y172D01*
X1936Y172D01*
X1936Y172D01*
X1936Y172D01*
X1936Y170D01*
G37*
D02*
G36*
X1936Y173D02*
X1936Y173D01*
X1936Y185D01*
X1936Y185D01*
X1936Y173D01*
G37*
D02*
G36*
X1936Y173D02*
X1936Y173D01*
X1936Y185D01*
X1936Y185D01*
X1936Y173D01*
G37*
D02*
G36*
X1936Y173D02*
X1937Y173D01*
X1937Y185D01*
X1936Y185D01*
X1936Y173D01*
G37*
D02*
G36*
X1937Y170D02*
X1937Y170D01*
X1937Y185D01*
X1937Y185D01*
X1937Y170D01*
G37*
D02*
G36*
X1937Y170D02*
X1937Y170D01*
X1937Y185D01*
X1937Y185D01*
X1937Y170D01*
G37*
D02*
G36*
X1937Y170D02*
X1938Y170D01*
X1938Y177D01*
X1938Y177D01*
X1938Y181D01*
X1938Y181D01*
X1938Y180D01*
X1939Y180D01*
X1939Y180D01*
X1939Y180D01*
X1939Y180D01*
X1940Y180D01*
X1940Y179D01*
X1940Y179D01*
X1940Y179D01*
X1941Y179D01*
X1941Y182D01*
X1940Y182D01*
X1940Y182D01*
X1940Y182D01*
X1940Y183D01*
X1939Y183D01*
X1939Y184D01*
X1939Y184D01*
X1939Y184D01*
X1939Y184D01*
X1939Y184D01*
X1938Y184D01*
X1938Y185D01*
X1937Y185D01*
X1937Y185D01*
X1937Y185D01*
X1937Y170D01*
G37*
D02*
G36*
X1938Y170D02*
X1938Y170D01*
X1938Y169D01*
X1939Y169D01*
X1939Y176D01*
X1939Y176D01*
X1939Y176D01*
X1938Y176D01*
X1938Y177D01*
X1938Y177D01*
X1938Y170D01*
G37*
D02*
G36*
X1938Y177D02*
X1938Y177D01*
X1938Y177D01*
X1939Y177D01*
X1939Y177D01*
X1939Y177D01*
X1939Y176D01*
X1939Y176D01*
X1939Y179D01*
X1939Y179D01*
X1939Y179D01*
X1939Y179D01*
X1939Y179D01*
X1938Y179D01*
X1938Y177D01*
G37*
D02*
G36*
X1939Y170D02*
X1940Y170D01*
X1940Y179D01*
X1939Y179D01*
X1939Y170D01*
G37*
D02*
G36*
X1939Y170D02*
X1940Y170D01*
X1940Y179D01*
X1939Y179D01*
X1939Y170D01*
G37*
D02*
G36*
X1940Y170D02*
X1940Y170D01*
X1940Y171D01*
X1940Y171D01*
X1940Y171D01*
X1941Y171D01*
X1941Y178D01*
X1940Y178D01*
X1940Y170D01*
G37*
D02*
G36*
X1941Y172D02*
X1941Y172D01*
X1941Y182D01*
X1941Y182D01*
X1941Y172D01*
G37*
D02*
G36*
X1941Y172D02*
X1941Y172D01*
X1941Y182D01*
X1941Y182D01*
X1941Y172D01*
G37*
D02*
G36*
X1941Y173D02*
X1941Y173D01*
X1941Y174D01*
X1942Y174D01*
X1942Y175D01*
X1942Y175D01*
X1942Y175D01*
X1942Y175D01*
X1942Y177D01*
X1943Y177D01*
X1943Y179D01*
X1943Y179D01*
X1943Y180D01*
X1943Y180D01*
X1943Y180D01*
X1942Y180D01*
X1942Y181D01*
X1942Y181D01*
X1942Y181D01*
X1941Y181D01*
X1941Y181D01*
X1941Y181D01*
X1941Y173D01*
G37*
D02*
G36*
X1868Y107D02*
X1868Y107D01*
X1868Y107D01*
X1869Y107D01*
X1869Y106D01*
X1869Y106D01*
X1869Y104D01*
X1869Y104D01*
X1869Y103D01*
X1870Y103D01*
X1870Y102D01*
X1870Y102D01*
X1870Y101D01*
X1870Y101D01*
X1870Y100D01*
X1871Y100D01*
X1871Y99D01*
X1871Y99D01*
X1871Y98D01*
X1871Y98D01*
X1871Y106D01*
X1871Y106D01*
X1871Y109D01*
X1872Y109D01*
X1872Y109D01*
X1872Y109D01*
X1872Y109D01*
X1872Y109D01*
X1872Y109D01*
X1873Y109D01*
X1873Y110D01*
X1873Y110D01*
X1873Y110D01*
X1873Y110D01*
X1873Y110D01*
X1874Y110D01*
X1874Y111D01*
X1874Y111D01*
X1874Y111D01*
X1874Y111D01*
X1874Y111D01*
X1874Y111D01*
X1874Y112D01*
X1875Y112D01*
X1875Y112D01*
X1875Y112D01*
X1875Y112D01*
X1876Y112D01*
X1876Y113D01*
X1876Y113D01*
X1876Y113D01*
X1877Y113D01*
X1877Y113D01*
X1884Y113D01*
X1884Y116D01*
X1883Y116D01*
X1883Y115D01*
X1878Y115D01*
X1878Y115D01*
X1876Y115D01*
X1876Y115D01*
X1875Y115D01*
X1875Y114D01*
X1875Y114D01*
X1875Y114D01*
X1874Y114D01*
X1874Y114D01*
X1874Y114D01*
X1874Y113D01*
X1874Y113D01*
X1874Y113D01*
X1873Y113D01*
X1873Y113D01*
X1873Y113D01*
X1873Y113D01*
X1872Y113D01*
X1872Y112D01*
X1872Y112D01*
X1872Y112D01*
X1872Y112D01*
X1872Y112D01*
X1871Y112D01*
X1871Y111D01*
X1871Y111D01*
X1871Y111D01*
X1871Y111D01*
X1871Y111D01*
X1871Y111D01*
X1871Y110D01*
X1870Y110D01*
X1870Y110D01*
X1870Y110D01*
X1870Y110D01*
X1870Y110D01*
X1870Y109D01*
X1869Y109D01*
X1869Y109D01*
X1869Y109D01*
X1869Y109D01*
X1869Y109D01*
X1869Y109D01*
X1868Y109D01*
X1868Y108D01*
X1868Y108D01*
X1868Y108D01*
X1868Y108D01*
X1868Y107D01*
G37*
D02*
G36*
X1871Y97D02*
X1871Y97D01*
X1871Y96D01*
X1872Y96D01*
X1872Y95D01*
X1872Y95D01*
X1872Y94D01*
X1872Y94D01*
X1872Y93D01*
X1873Y93D01*
X1873Y92D01*
X1873Y92D01*
X1873Y91D01*
X1873Y91D01*
X1873Y90D01*
X1874Y90D01*
X1874Y89D01*
X1874Y89D01*
X1874Y89D01*
X1874Y89D01*
X1874Y88D01*
X1874Y88D01*
X1874Y87D01*
X1875Y87D01*
X1875Y87D01*
X1875Y87D01*
X1875Y86D01*
X1875Y86D01*
X1875Y87D01*
X1877Y87D01*
X1877Y87D01*
X1878Y87D01*
X1878Y87D01*
X1878Y87D01*
X1878Y87D01*
X1881Y87D01*
X1881Y87D01*
X1881Y87D01*
X1881Y89D01*
X1881Y89D01*
X1881Y89D01*
X1878Y89D01*
X1878Y89D01*
X1878Y89D01*
X1878Y89D01*
X1876Y89D01*
X1876Y89D01*
X1876Y89D01*
X1876Y89D01*
X1875Y89D01*
X1875Y91D01*
X1875Y91D01*
X1875Y92D01*
X1875Y92D01*
X1875Y93D01*
X1874Y93D01*
X1874Y94D01*
X1874Y94D01*
X1874Y95D01*
X1874Y95D01*
X1874Y96D01*
X1874Y96D01*
X1874Y97D01*
X1873Y97D01*
X1873Y98D01*
X1873Y98D01*
X1873Y99D01*
X1873Y99D01*
X1873Y100D01*
X1872Y100D01*
X1872Y102D01*
X1872Y102D01*
X1872Y103D01*
X1872Y103D01*
X1872Y104D01*
X1871Y104D01*
X1871Y105D01*
X1871Y105D01*
X1871Y97D01*
G37*
D02*
G36*
X1871Y106D02*
X1872Y106D01*
X1872Y106D01*
X1873Y106D01*
X1873Y106D01*
X1875Y106D01*
X1875Y106D01*
X1876Y106D01*
X1876Y107D01*
X1878Y107D01*
X1878Y107D01*
X1878Y107D01*
X1878Y107D01*
X1879Y107D01*
X1879Y108D01*
X1881Y108D01*
X1881Y108D01*
X1882Y108D01*
X1882Y108D01*
X1883Y108D01*
X1883Y109D01*
X1884Y109D01*
X1884Y113D01*
X1884Y113D01*
X1884Y112D01*
X1884Y112D01*
X1884Y112D01*
X1883Y112D01*
X1883Y111D01*
X1883Y111D01*
X1883Y111D01*
X1883Y111D01*
X1883Y110D01*
X1882Y110D01*
X1882Y110D01*
X1881Y110D01*
X1881Y110D01*
X1881Y110D01*
X1881Y109D01*
X1879Y109D01*
X1879Y109D01*
X1878Y109D01*
X1878Y109D01*
X1876Y109D01*
X1876Y109D01*
X1874Y109D01*
X1874Y108D01*
X1871Y108D01*
X1871Y106D01*
G37*
D02*
G36*
X1879Y97D02*
X1879Y97D01*
X1879Y96D01*
X1880Y96D01*
X1880Y95D01*
X1880Y95D01*
X1880Y94D01*
X1880Y94D01*
X1880Y92D01*
X1881Y92D01*
X1881Y92D01*
X1881Y92D01*
X1881Y91D01*
X1881Y91D01*
X1881Y99D01*
X1883Y99D01*
X1883Y101D01*
X1882Y101D01*
X1882Y101D01*
X1881Y101D01*
X1881Y101D01*
X1880Y101D01*
X1880Y100D01*
X1879Y100D01*
X1879Y97D01*
G37*
D02*
G36*
X1881Y90D02*
X1881Y90D01*
X1881Y97D01*
X1881Y97D01*
X1881Y90D01*
G37*
D02*
G36*
X1881Y87D02*
X1882Y87D01*
X1882Y97D01*
X1881Y97D01*
X1881Y87D01*
G37*
D02*
G36*
X1881Y87D02*
X1882Y87D01*
X1882Y97D01*
X1881Y97D01*
X1881Y87D01*
G37*
D02*
G36*
X1882Y87D02*
X1882Y87D01*
X1882Y95D01*
X1882Y95D01*
X1882Y95D01*
X1883Y95D01*
X1883Y96D01*
X1883Y96D01*
X1883Y99D01*
X1883Y99D01*
X1883Y98D01*
X1882Y98D01*
X1882Y98D01*
X1882Y98D01*
X1882Y87D01*
G37*
D02*
G36*
X1882Y87D02*
X1882Y87D01*
X1882Y87D01*
X1883Y87D01*
X1883Y88D01*
X1883Y88D01*
X1883Y88D01*
X1884Y88D01*
X1884Y88D01*
X1884Y88D01*
X1884Y89D01*
X1884Y89D01*
X1884Y89D01*
X1884Y89D01*
X1884Y89D01*
X1885Y89D01*
X1885Y89D01*
X1885Y89D01*
X1885Y92D01*
X1884Y92D01*
X1884Y95D01*
X1883Y95D01*
X1883Y95D01*
X1883Y95D01*
X1883Y94D01*
X1883Y94D01*
X1883Y94D01*
X1882Y94D01*
X1882Y87D01*
G37*
D02*
G36*
X1883Y96D02*
X1883Y96D01*
X1883Y101D01*
X1883Y101D01*
X1883Y96D01*
G37*
D02*
G36*
X1883Y96D02*
X1883Y96D01*
X1883Y101D01*
X1883Y101D01*
X1883Y96D01*
G37*
D02*
G36*
X1883Y96D02*
X1884Y96D01*
X1884Y102D01*
X1884Y102D01*
X1884Y101D01*
X1883Y101D01*
X1883Y96D01*
G37*
D02*
G36*
X1884Y93D02*
X1884Y93D01*
X1884Y102D01*
X1884Y102D01*
X1884Y93D01*
G37*
D02*
G36*
X1884Y93D02*
X1884Y93D01*
X1884Y102D01*
X1884Y102D01*
X1884Y93D01*
G37*
D02*
G36*
X1884Y109D02*
X1884Y109D01*
X1884Y116D01*
X1884Y116D01*
X1884Y109D01*
G37*
D02*
G36*
X1884Y109D02*
X1884Y109D01*
X1884Y116D01*
X1884Y116D01*
X1884Y109D01*
G37*
D02*
G36*
X1884Y93D02*
X1885Y93D01*
X1885Y102D01*
X1884Y102D01*
X1884Y93D01*
G37*
D02*
G36*
X1884Y109D02*
X1885Y109D01*
X1885Y109D01*
X1886Y109D01*
X1886Y112D01*
X1886Y112D01*
X1886Y112D01*
X1886Y112D01*
X1886Y113D01*
X1887Y113D01*
X1887Y113D01*
X1887Y113D01*
X1887Y113D01*
X1887Y113D01*
X1887Y114D01*
X1888Y114D01*
X1888Y116D01*
X1886Y116D01*
X1886Y116D01*
X1884Y116D01*
X1884Y109D01*
G37*
D02*
G36*
X1885Y90D02*
X1885Y90D01*
X1885Y102D01*
X1885Y102D01*
X1885Y90D01*
G37*
D02*
G36*
X1885Y90D02*
X1885Y90D01*
X1885Y102D01*
X1885Y102D01*
X1885Y90D01*
G37*
D02*
G36*
X1885Y90D02*
X1886Y90D01*
X1886Y99D01*
X1887Y99D01*
X1887Y100D01*
X1888Y100D01*
X1888Y100D01*
X1890Y100D01*
X1890Y100D01*
X1892Y100D01*
X1892Y101D01*
X1894Y101D01*
X1894Y101D01*
X1895Y101D01*
X1895Y101D01*
X1897Y101D01*
X1897Y102D01*
X1899Y102D01*
X1899Y102D01*
X1901Y102D01*
X1901Y102D01*
X1902Y102D01*
X1902Y103D01*
X1904Y103D01*
X1904Y103D01*
X1906Y103D01*
X1906Y103D01*
X1908Y103D01*
X1908Y103D01*
X1910Y103D01*
X1910Y104D01*
X1912Y104D01*
X1912Y104D01*
X1914Y104D01*
X1914Y104D01*
X1916Y104D01*
X1916Y105D01*
X1919Y105D01*
X1919Y105D01*
X1923Y105D01*
X1923Y105D01*
X1924Y105D01*
X1924Y104D01*
X1925Y104D01*
X1925Y104D01*
X1926Y104D01*
X1926Y104D01*
X1926Y104D01*
X1926Y103D01*
X1927Y103D01*
X1927Y103D01*
X1927Y103D01*
X1927Y103D01*
X1928Y103D01*
X1928Y103D01*
X1928Y103D01*
X1928Y102D01*
X1929Y102D01*
X1929Y102D01*
X1929Y102D01*
X1929Y102D01*
X1929Y102D01*
X1929Y101D01*
X1929Y101D01*
X1929Y101D01*
X1930Y101D01*
X1930Y100D01*
X1930Y100D01*
X1930Y99D01*
X1930Y99D01*
X1930Y103D01*
X1930Y103D01*
X1930Y103D01*
X1930Y103D01*
X1930Y104D01*
X1929Y104D01*
X1929Y104D01*
X1929Y104D01*
X1929Y104D01*
X1929Y104D01*
X1929Y105D01*
X1928Y105D01*
X1928Y105D01*
X1928Y105D01*
X1928Y105D01*
X1927Y105D01*
X1927Y106D01*
X1927Y106D01*
X1927Y106D01*
X1926Y106D01*
X1926Y106D01*
X1926Y106D01*
X1926Y106D01*
X1924Y106D01*
X1924Y107D01*
X1922Y107D01*
X1922Y107D01*
X1919Y107D01*
X1919Y107D01*
X1916Y107D01*
X1916Y106D01*
X1914Y106D01*
X1914Y106D01*
X1912Y106D01*
X1912Y106D01*
X1910Y106D01*
X1910Y106D01*
X1908Y106D01*
X1908Y105D01*
X1906Y105D01*
X1906Y105D01*
X1904Y105D01*
X1904Y105D01*
X1902Y105D01*
X1902Y104D01*
X1901Y104D01*
X1901Y104D01*
X1899Y104D01*
X1899Y104D01*
X1897Y104D01*
X1897Y103D01*
X1895Y103D01*
X1895Y103D01*
X1894Y103D01*
X1894Y103D01*
X1891Y103D01*
X1891Y103D01*
X1889Y103D01*
X1889Y102D01*
X1888Y102D01*
X1888Y102D01*
X1886Y102D01*
X1886Y102D01*
X1885Y102D01*
X1885Y90D01*
G37*
D02*
G36*
X1886Y91D02*
X1886Y91D01*
X1886Y91D01*
X1886Y91D01*
X1886Y91D01*
X1887Y91D01*
X1887Y92D01*
X1887Y92D01*
X1887Y93D01*
X1887Y93D01*
X1887Y96D01*
X1886Y96D01*
X1886Y97D01*
X1886Y97D01*
X1886Y99D01*
X1886Y99D01*
X1886Y91D01*
G37*
D02*
G36*
X1886Y109D02*
X1887Y109D01*
X1887Y109D01*
X1888Y109D01*
X1888Y113D01*
X1888Y113D01*
X1888Y112D01*
X1887Y112D01*
X1887Y112D01*
X1887Y112D01*
X1887Y111D01*
X1886Y111D01*
X1886Y109D01*
G37*
D02*
G36*
X1888Y109D02*
X1888Y109D01*
X1888Y116D01*
X1888Y116D01*
X1888Y109D01*
G37*
D02*
G36*
X1888Y109D02*
X1888Y109D01*
X1888Y116D01*
X1888Y116D01*
X1888Y109D01*
G37*
D02*
G36*
X1888Y109D02*
X1890Y109D01*
X1890Y113D01*
X1890Y113D01*
X1890Y113D01*
X1890Y113D01*
X1890Y114D01*
X1891Y114D01*
X1891Y114D01*
X1891Y114D01*
X1891Y116D01*
X1890Y116D01*
X1890Y116D01*
X1889Y116D01*
X1889Y116D01*
X1888Y116D01*
X1888Y109D01*
G37*
D02*
G36*
X1890Y109D02*
X1890Y109D01*
X1890Y110D01*
X1891Y110D01*
X1891Y113D01*
X1891Y113D01*
X1891Y113D01*
X1891Y113D01*
X1891Y112D01*
X1890Y112D01*
X1890Y112D01*
X1890Y112D01*
X1890Y109D01*
G37*
D02*
G36*
X1891Y110D02*
X1891Y110D01*
X1891Y116D01*
X1891Y116D01*
X1891Y110D01*
G37*
D02*
G36*
X1891Y110D02*
X1891Y110D01*
X1891Y116D01*
X1891Y116D01*
X1891Y110D01*
G37*
D02*
G36*
X1891Y110D02*
X1892Y110D01*
X1892Y110D01*
X1893Y110D01*
X1893Y113D01*
X1893Y113D01*
X1893Y113D01*
X1894Y113D01*
X1894Y113D01*
X1894Y113D01*
X1894Y114D01*
X1895Y114D01*
X1895Y114D01*
X1895Y114D01*
X1895Y115D01*
X1896Y115D01*
X1896Y115D01*
X1897Y115D01*
X1897Y115D01*
X1898Y115D01*
X1898Y116D01*
X1899Y116D01*
X1899Y116D01*
X1901Y116D01*
X1901Y116D01*
X1902Y116D01*
X1902Y116D01*
X1903Y116D01*
X1903Y117D01*
X1904Y117D01*
X1904Y117D01*
X1906Y117D01*
X1906Y117D01*
X1907Y117D01*
X1907Y118D01*
X1909Y118D01*
X1909Y118D01*
X1911Y118D01*
X1911Y118D01*
X1913Y118D01*
X1913Y119D01*
X1916Y119D01*
X1916Y119D01*
X1929Y119D01*
X1929Y119D01*
X1930Y119D01*
X1930Y118D01*
X1931Y118D01*
X1931Y118D01*
X1931Y118D01*
X1931Y118D01*
X1932Y118D01*
X1932Y117D01*
X1933Y117D01*
X1933Y117D01*
X1933Y117D01*
X1933Y117D01*
X1934Y117D01*
X1934Y116D01*
X1935Y116D01*
X1935Y116D01*
X1935Y116D01*
X1935Y116D01*
X1936Y116D01*
X1936Y116D01*
X1936Y116D01*
X1936Y115D01*
X1936Y115D01*
X1936Y115D01*
X1937Y115D01*
X1937Y115D01*
X1937Y115D01*
X1937Y114D01*
X1938Y114D01*
X1938Y114D01*
X1938Y114D01*
X1938Y114D01*
X1938Y114D01*
X1938Y113D01*
X1939Y113D01*
X1939Y113D01*
X1939Y113D01*
X1939Y112D01*
X1939Y112D01*
X1939Y115D01*
X1939Y115D01*
X1939Y116D01*
X1939Y116D01*
X1939Y116D01*
X1938Y116D01*
X1938Y116D01*
X1938Y116D01*
X1938Y116D01*
X1938Y116D01*
X1938Y117D01*
X1937Y117D01*
X1937Y117D01*
X1937Y117D01*
X1937Y117D01*
X1936Y117D01*
X1936Y118D01*
X1936Y118D01*
X1936Y118D01*
X1936Y118D01*
X1936Y118D01*
X1935Y118D01*
X1935Y119D01*
X1935Y119D01*
X1935Y119D01*
X1934Y119D01*
X1934Y119D01*
X1934Y119D01*
X1934Y120D01*
X1933Y120D01*
X1933Y120D01*
X1932Y120D01*
X1932Y120D01*
X1932Y120D01*
X1932Y120D01*
X1931Y120D01*
X1931Y121D01*
X1930Y121D01*
X1930Y121D01*
X1928Y121D01*
X1928Y121D01*
X1922Y121D01*
X1922Y121D01*
X1917Y121D01*
X1917Y121D01*
X1914Y121D01*
X1914Y120D01*
X1912Y120D01*
X1912Y120D01*
X1910Y120D01*
X1910Y120D01*
X1908Y120D01*
X1908Y120D01*
X1906Y120D01*
X1906Y119D01*
X1905Y119D01*
X1905Y119D01*
X1903Y119D01*
X1903Y119D01*
X1902Y119D01*
X1902Y118D01*
X1900Y118D01*
X1900Y118D01*
X1898Y118D01*
X1898Y118D01*
X1897Y118D01*
X1897Y117D01*
X1895Y117D01*
X1895Y117D01*
X1894Y117D01*
X1894Y117D01*
X1893Y117D01*
X1893Y116D01*
X1891Y116D01*
X1891Y110D01*
G37*
D02*
G36*
X1893Y110D02*
X1894Y110D01*
X1894Y110D01*
X1896Y110D01*
X1896Y111D01*
X1899Y111D01*
X1899Y111D01*
X1901Y111D01*
X1901Y111D01*
X1904Y111D01*
X1904Y112D01*
X1907Y112D01*
X1907Y112D01*
X1909Y112D01*
X1909Y112D01*
X1913Y112D01*
X1913Y113D01*
X1916Y113D01*
X1916Y113D01*
X1919Y113D01*
X1919Y113D01*
X1923Y113D01*
X1923Y113D01*
X1927Y113D01*
X1927Y114D01*
X1930Y114D01*
X1930Y113D01*
X1932Y113D01*
X1932Y113D01*
X1932Y113D01*
X1932Y113D01*
X1933Y113D01*
X1933Y113D01*
X1934Y113D01*
X1934Y112D01*
X1935Y112D01*
X1935Y112D01*
X1936Y112D01*
X1936Y112D01*
X1936Y112D01*
X1936Y111D01*
X1936Y111D01*
X1936Y111D01*
X1936Y111D01*
X1936Y111D01*
X1937Y111D01*
X1937Y110D01*
X1937Y110D01*
X1937Y110D01*
X1937Y110D01*
X1937Y109D01*
X1938Y109D01*
X1938Y109D01*
X1938Y109D01*
X1938Y108D01*
X1938Y108D01*
X1938Y107D01*
X1939Y107D01*
X1939Y106D01*
X1939Y106D01*
X1939Y105D01*
X1939Y105D01*
X1939Y111D01*
X1939Y111D01*
X1939Y111D01*
X1938Y111D01*
X1938Y112D01*
X1938Y112D01*
X1938Y112D01*
X1938Y112D01*
X1938Y112D01*
X1937Y112D01*
X1937Y113D01*
X1937Y113D01*
X1937Y113D01*
X1936Y113D01*
X1936Y113D01*
X1936Y113D01*
X1936Y113D01*
X1936Y113D01*
X1936Y114D01*
X1935Y114D01*
X1935Y114D01*
X1935Y114D01*
X1935Y114D01*
X1934Y114D01*
X1934Y115D01*
X1934Y115D01*
X1934Y115D01*
X1933Y115D01*
X1933Y115D01*
X1932Y115D01*
X1932Y116D01*
X1927Y116D01*
X1927Y115D01*
X1922Y115D01*
X1922Y115D01*
X1918Y115D01*
X1918Y115D01*
X1914Y115D01*
X1914Y114D01*
X1910Y114D01*
X1910Y114D01*
X1907Y114D01*
X1907Y114D01*
X1904Y114D01*
X1904Y113D01*
X1901Y113D01*
X1901Y113D01*
X1898Y113D01*
X1898Y113D01*
X1896Y113D01*
X1896Y113D01*
X1894Y113D01*
X1894Y112D01*
X1893Y112D01*
X1893Y110D01*
G37*
D02*
G36*
X1915Y78D02*
X1915Y78D01*
X1915Y78D01*
X1915Y78D01*
X1915Y78D01*
X1916Y78D01*
X1916Y77D01*
X1916Y77D01*
X1916Y77D01*
X1917Y77D01*
X1917Y89D01*
X1918Y89D01*
X1918Y89D01*
X1919Y89D01*
X1919Y89D01*
X1921Y89D01*
X1921Y91D01*
X1922Y91D01*
X1922Y94D01*
X1923Y94D01*
X1923Y96D01*
X1920Y96D01*
X1920Y96D01*
X1920Y96D01*
X1920Y95D01*
X1920Y95D01*
X1920Y95D01*
X1919Y95D01*
X1919Y95D01*
X1919Y95D01*
X1919Y94D01*
X1919Y94D01*
X1919Y94D01*
X1919Y94D01*
X1919Y94D01*
X1918Y94D01*
X1918Y93D01*
X1918Y93D01*
X1918Y93D01*
X1918Y93D01*
X1918Y93D01*
X1917Y93D01*
X1917Y92D01*
X1917Y92D01*
X1917Y92D01*
X1917Y92D01*
X1917Y92D01*
X1916Y92D01*
X1916Y92D01*
X1916Y92D01*
X1916Y91D01*
X1916Y91D01*
X1916Y91D01*
X1915Y91D01*
X1915Y91D01*
X1915Y91D01*
X1915Y90D01*
X1915Y90D01*
X1915Y78D01*
G37*
D02*
G36*
X1917Y77D02*
X1925Y77D01*
X1925Y77D01*
X1928Y77D01*
X1928Y77D01*
X1930Y77D01*
X1930Y78D01*
X1931Y78D01*
X1931Y78D01*
X1932Y78D01*
X1932Y78D01*
X1933Y78D01*
X1933Y79D01*
X1933Y79D01*
X1933Y79D01*
X1934Y79D01*
X1934Y79D01*
X1935Y79D01*
X1935Y79D01*
X1935Y79D01*
X1935Y80D01*
X1936Y80D01*
X1936Y80D01*
X1936Y80D01*
X1936Y80D01*
X1937Y80D01*
X1937Y81D01*
X1937Y81D01*
X1937Y81D01*
X1937Y81D01*
X1937Y81D01*
X1938Y81D01*
X1938Y82D01*
X1938Y82D01*
X1938Y82D01*
X1939Y82D01*
X1939Y82D01*
X1939Y82D01*
X1939Y83D01*
X1939Y83D01*
X1939Y83D01*
X1939Y83D01*
X1939Y83D01*
X1940Y83D01*
X1940Y84D01*
X1940Y84D01*
X1940Y84D01*
X1940Y84D01*
X1940Y85D01*
X1941Y85D01*
X1941Y93D01*
X1940Y93D01*
X1940Y92D01*
X1940Y92D01*
X1940Y90D01*
X1940Y90D01*
X1940Y90D01*
X1939Y90D01*
X1939Y89D01*
X1939Y89D01*
X1939Y88D01*
X1939Y88D01*
X1939Y88D01*
X1939Y88D01*
X1939Y87D01*
X1938Y87D01*
X1938Y86D01*
X1938Y86D01*
X1938Y85D01*
X1938Y85D01*
X1938Y85D01*
X1937Y85D01*
X1937Y84D01*
X1937Y84D01*
X1937Y84D01*
X1937Y84D01*
X1937Y83D01*
X1936Y83D01*
X1936Y83D01*
X1936Y83D01*
X1936Y83D01*
X1936Y83D01*
X1936Y82D01*
X1936Y82D01*
X1936Y82D01*
X1935Y82D01*
X1935Y82D01*
X1935Y82D01*
X1935Y82D01*
X1934Y82D01*
X1934Y81D01*
X1934Y81D01*
X1934Y81D01*
X1933Y81D01*
X1933Y81D01*
X1932Y81D01*
X1932Y80D01*
X1932Y80D01*
X1932Y80D01*
X1931Y80D01*
X1931Y80D01*
X1930Y80D01*
X1930Y79D01*
X1928Y79D01*
X1928Y79D01*
X1924Y79D01*
X1924Y79D01*
X1917Y79D01*
X1917Y77D01*
G37*
D02*
G36*
X1921Y89D02*
X1922Y89D01*
X1922Y91D01*
X1921Y91D01*
X1921Y89D01*
G37*
D02*
G36*
X1922Y88D02*
X1922Y88D01*
X1922Y93D01*
X1922Y93D01*
X1922Y88D01*
G37*
D02*
G36*
X1922Y88D02*
X1922Y88D01*
X1922Y93D01*
X1922Y93D01*
X1922Y88D01*
G37*
D02*
G36*
X1922Y88D02*
X1923Y88D01*
X1923Y93D01*
X1922Y93D01*
X1922Y93D01*
X1922Y93D01*
X1922Y88D01*
G37*
D02*
G36*
X1923Y88D02*
X1923Y88D01*
X1923Y96D01*
X1923Y96D01*
X1923Y88D01*
G37*
D02*
G36*
X1923Y88D02*
X1923Y88D01*
X1923Y96D01*
X1923Y96D01*
X1923Y88D01*
G37*
D02*
G36*
X1923Y88D02*
X1923Y88D01*
X1923Y91D01*
X1924Y91D01*
X1924Y91D01*
X1924Y91D01*
X1924Y92D01*
X1924Y92D01*
X1924Y92D01*
X1925Y92D01*
X1925Y93D01*
X1925Y93D01*
X1925Y93D01*
X1925Y93D01*
X1925Y93D01*
X1926Y93D01*
X1926Y96D01*
X1923Y96D01*
X1923Y88D01*
G37*
D02*
G36*
X1923Y88D02*
X1926Y88D01*
X1926Y91D01*
X1925Y91D01*
X1925Y91D01*
X1925Y91D01*
X1925Y91D01*
X1924Y91D01*
X1924Y90D01*
X1924Y90D01*
X1924Y90D01*
X1923Y90D01*
X1923Y88D01*
G37*
D02*
G36*
X1926Y89D02*
X1926Y89D01*
X1926Y96D01*
X1926Y96D01*
X1926Y89D01*
G37*
D02*
G36*
X1926Y89D02*
X1926Y89D01*
X1926Y96D01*
X1926Y96D01*
X1926Y89D01*
G37*
D02*
G36*
X1926Y89D02*
X1927Y89D01*
X1927Y89D01*
X1928Y89D01*
X1928Y92D01*
X1928Y92D01*
X1928Y93D01*
X1929Y93D01*
X1929Y94D01*
X1929Y94D01*
X1929Y96D01*
X1928Y96D01*
X1928Y96D01*
X1926Y96D01*
X1926Y89D01*
G37*
D02*
G36*
X1928Y89D02*
X1929Y89D01*
X1929Y89D01*
X1929Y89D01*
X1929Y90D01*
X1929Y90D01*
X1929Y93D01*
X1929Y93D01*
X1929Y93D01*
X1929Y93D01*
X1929Y92D01*
X1929Y92D01*
X1929Y92D01*
X1928Y92D01*
X1928Y89D01*
G37*
D02*
G36*
X1929Y90D02*
X1930Y90D01*
X1930Y96D01*
X1929Y96D01*
X1929Y90D01*
G37*
D02*
G36*
X1929Y90D02*
X1930Y90D01*
X1930Y96D01*
X1929Y96D01*
X1929Y90D01*
G37*
D02*
G36*
X1930Y91D02*
X1930Y91D01*
X1930Y91D01*
X1930Y91D01*
X1930Y97D01*
X1930Y97D01*
X1930Y96D01*
X1930Y96D01*
X1930Y91D01*
G37*
D02*
G36*
X1930Y92D02*
X1931Y92D01*
X1931Y103D01*
X1930Y103D01*
X1930Y92D01*
G37*
D02*
G36*
X1930Y92D02*
X1931Y92D01*
X1931Y103D01*
X1930Y103D01*
X1930Y92D01*
G37*
D02*
G36*
X1931Y92D02*
X1931Y92D01*
X1931Y92D01*
X1931Y92D01*
X1931Y93D01*
X1932Y93D01*
X1932Y94D01*
X1932Y94D01*
X1932Y94D01*
X1932Y94D01*
X1932Y97D01*
X1932Y97D01*
X1932Y99D01*
X1932Y99D01*
X1932Y100D01*
X1932Y100D01*
X1932Y100D01*
X1932Y100D01*
X1932Y101D01*
X1931Y101D01*
X1931Y102D01*
X1931Y102D01*
X1931Y102D01*
X1931Y102D01*
X1931Y92D01*
G37*
D02*
G36*
X1932Y95D02*
X1932Y95D01*
X1932Y95D01*
X1933Y95D01*
X1933Y95D01*
X1933Y95D01*
X1933Y96D01*
X1933Y96D01*
X1933Y96D01*
X1933Y96D01*
X1933Y96D01*
X1933Y96D01*
X1933Y97D01*
X1932Y97D01*
X1932Y97D01*
X1932Y97D01*
X1932Y95D01*
G37*
D02*
G36*
X1939Y104D02*
X1939Y104D01*
X1939Y115D01*
X1939Y115D01*
X1939Y104D01*
G37*
D02*
G36*
X1939Y104D02*
X1939Y104D01*
X1939Y115D01*
X1939Y115D01*
X1939Y104D01*
G37*
D02*
G36*
X1939Y103D02*
X1940Y103D01*
X1940Y102D01*
X1940Y102D01*
X1940Y100D01*
X1940Y100D01*
X1940Y98D01*
X1941Y98D01*
X1941Y108D01*
X1941Y108D01*
X1941Y109D01*
X1942Y109D01*
X1942Y109D01*
X1942Y109D01*
X1942Y113D01*
X1942Y113D01*
X1942Y113D01*
X1941Y113D01*
X1941Y113D01*
X1941Y113D01*
X1941Y113D01*
X1941Y113D01*
X1941Y114D01*
X1940Y114D01*
X1940Y114D01*
X1940Y114D01*
X1940Y114D01*
X1940Y114D01*
X1940Y115D01*
X1939Y115D01*
X1939Y103D01*
G37*
D02*
G36*
X1941Y85D02*
X1941Y85D01*
X1941Y107D01*
X1941Y107D01*
X1941Y85D01*
G37*
D02*
G36*
X1941Y85D02*
X1941Y85D01*
X1941Y107D01*
X1941Y107D01*
X1941Y85D01*
G37*
D02*
G36*
X1941Y85D02*
X1941Y85D01*
X1941Y86D01*
X1942Y86D01*
X1942Y104D01*
X1942Y104D01*
X1942Y108D01*
X1942Y108D01*
X1942Y107D01*
X1941Y107D01*
X1941Y107D01*
X1941Y107D01*
X1941Y85D01*
G37*
D02*
G36*
X1942Y86D02*
X1942Y86D01*
X1942Y86D01*
X1942Y86D01*
X1942Y87D01*
X1943Y87D01*
X1943Y99D01*
X1943Y99D01*
X1943Y100D01*
X1943Y100D01*
X1943Y105D01*
X1943Y105D01*
X1943Y104D01*
X1943Y104D01*
X1943Y104D01*
X1942Y104D01*
X1942Y103D01*
X1942Y103D01*
X1942Y86D01*
G37*
D02*
G36*
X1942Y105D02*
X1942Y105D01*
X1942Y112D01*
X1942Y112D01*
X1942Y105D01*
G37*
D02*
G36*
X1942Y105D02*
X1942Y105D01*
X1942Y112D01*
X1942Y112D01*
X1942Y105D01*
G37*
D02*
G36*
X1942Y105D02*
X1943Y105D01*
X1943Y105D01*
X1943Y105D01*
X1943Y111D01*
X1943Y111D01*
X1943Y111D01*
X1943Y111D01*
X1943Y112D01*
X1942Y112D01*
X1942Y105D01*
G37*
D02*
G36*
X1943Y87D02*
X1943Y87D01*
X1943Y88D01*
X1943Y88D01*
X1943Y89D01*
X1943Y89D01*
X1943Y89D01*
X1944Y89D01*
X1944Y89D01*
X1944Y89D01*
X1944Y99D01*
X1944Y99D01*
X1944Y99D01*
X1943Y99D01*
X1943Y98D01*
X1943Y98D01*
X1943Y98D01*
X1943Y98D01*
X1943Y97D01*
X1943Y97D01*
X1943Y87D01*
G37*
D02*
G36*
X1943Y100D02*
X1943Y100D01*
X1943Y110D01*
X1943Y110D01*
X1943Y100D01*
G37*
D02*
G36*
X1943Y100D02*
X1943Y100D01*
X1943Y110D01*
X1943Y110D01*
X1943Y100D01*
G37*
D02*
G36*
X1943Y101D02*
X1944Y101D01*
X1944Y101D01*
X1944Y101D01*
X1944Y109D01*
X1944Y109D01*
X1944Y110D01*
X1943Y110D01*
X1943Y101D01*
G37*
D02*
G36*
X1944Y90D02*
X1944Y90D01*
X1944Y108D01*
X1944Y108D01*
X1944Y90D01*
G37*
D02*
G36*
X1944Y90D02*
X1944Y90D01*
X1944Y108D01*
X1944Y108D01*
X1944Y90D01*
G37*
D02*
G36*
X1944Y91D02*
X1945Y91D01*
X1945Y91D01*
X1945Y91D01*
X1945Y92D01*
X1945Y92D01*
X1945Y93D01*
X1946Y93D01*
X1946Y94D01*
X1946Y94D01*
X1946Y95D01*
X1946Y95D01*
X1946Y97D01*
X1946Y97D01*
X1946Y98D01*
X1946Y98D01*
X1946Y102D01*
X1946Y102D01*
X1946Y103D01*
X1946Y103D01*
X1946Y105D01*
X1945Y105D01*
X1945Y106D01*
X1945Y106D01*
X1945Y107D01*
X1945Y107D01*
X1945Y108D01*
X1944Y108D01*
X1944Y91D01*
G37*
D02*
G36*
X0Y1376D02*
X0Y1368D01*
X1956Y1368D01*
X1956Y5D01*
X1964Y5D01*
X1964Y1376D01*
X0Y1376D01*
G37*
D02*
G36*
X0Y1368D02*
X0Y5D01*
X4Y5D01*
X4Y1368D01*
X0Y1368D01*
G37*
D02*
G36*
X0Y5D02*
X0Y4D01*
X1964Y4D01*
X1964Y5D01*
X0Y5D01*
G37*
D02*
G36*
X0Y5D02*
X0Y4D01*
X1964Y4D01*
X1964Y5D01*
X0Y5D01*
G37*
D02*
G36*
X0Y4D02*
X0Y-1D01*
X1964Y-1D01*
X1964Y4D01*
X0Y4D01*
G37*
D02*
G36*
X270Y1356D02*
X270Y1355D01*
X261Y1355D01*
X261Y1354D01*
X253Y1354D01*
X253Y1353D01*
X248Y1353D01*
X248Y1352D01*
X242Y1352D01*
X242Y1351D01*
X238Y1351D01*
X238Y1350D01*
X233Y1350D01*
X233Y1349D01*
X229Y1349D01*
X229Y1348D01*
X226Y1348D01*
X226Y1347D01*
X222Y1347D01*
X222Y1346D01*
X219Y1346D01*
X219Y1345D01*
X216Y1345D01*
X216Y1344D01*
X213Y1344D01*
X213Y1343D01*
X296Y1343D01*
X296Y1342D01*
X314Y1342D01*
X314Y1341D01*
X323Y1341D01*
X323Y1340D01*
X330Y1340D01*
X330Y1339D01*
X335Y1339D01*
X335Y1338D01*
X340Y1338D01*
X340Y1337D01*
X345Y1337D01*
X345Y1336D01*
X349Y1336D01*
X349Y1335D01*
X353Y1335D01*
X353Y1334D01*
X356Y1334D01*
X356Y1333D01*
X360Y1333D01*
X360Y1332D01*
X363Y1332D01*
X363Y1331D01*
X366Y1331D01*
X366Y1330D01*
X369Y1330D01*
X369Y1329D01*
X372Y1329D01*
X372Y1328D01*
X375Y1328D01*
X375Y1327D01*
X377Y1327D01*
X377Y1326D01*
X380Y1326D01*
X380Y1325D01*
X382Y1325D01*
X382Y1324D01*
X385Y1324D01*
X385Y1323D01*
X387Y1323D01*
X387Y1322D01*
X389Y1322D01*
X389Y1321D01*
X391Y1321D01*
X391Y1320D01*
X393Y1320D01*
X393Y1319D01*
X395Y1319D01*
X395Y1318D01*
X397Y1318D01*
X397Y1317D01*
X399Y1317D01*
X399Y1316D01*
X401Y1316D01*
X401Y1315D01*
X403Y1315D01*
X403Y1314D01*
X405Y1314D01*
X405Y1313D01*
X407Y1313D01*
X407Y1312D01*
X408Y1312D01*
X408Y1311D01*
X410Y1311D01*
X410Y1310D01*
X412Y1310D01*
X412Y1309D01*
X414Y1309D01*
X414Y1308D01*
X415Y1308D01*
X415Y1307D01*
X417Y1307D01*
X417Y1306D01*
X418Y1306D01*
X418Y1305D01*
X420Y1305D01*
X420Y1304D01*
X421Y1304D01*
X421Y1303D01*
X423Y1303D01*
X423Y1302D01*
X424Y1302D01*
X424Y1301D01*
X426Y1301D01*
X426Y1300D01*
X427Y1300D01*
X427Y1299D01*
X428Y1299D01*
X428Y1298D01*
X430Y1298D01*
X430Y1297D01*
X431Y1297D01*
X431Y1296D01*
X433Y1296D01*
X433Y1295D01*
X434Y1295D01*
X434Y1294D01*
X435Y1294D01*
X435Y1293D01*
X436Y1293D01*
X436Y1292D01*
X438Y1292D01*
X438Y1291D01*
X439Y1291D01*
X439Y1290D01*
X440Y1290D01*
X440Y1289D01*
X441Y1289D01*
X441Y1288D01*
X442Y1288D01*
X442Y1287D01*
X444Y1287D01*
X444Y1286D01*
X445Y1286D01*
X445Y1285D01*
X446Y1285D01*
X446Y1284D01*
X447Y1284D01*
X447Y1283D01*
X448Y1283D01*
X448Y1282D01*
X449Y1282D01*
X449Y1281D01*
X450Y1281D01*
X450Y1280D01*
X451Y1280D01*
X451Y1279D01*
X452Y1279D01*
X452Y1278D01*
X454Y1278D01*
X454Y1277D01*
X455Y1277D01*
X455Y1276D01*
X456Y1276D01*
X456Y1275D01*
X457Y1275D01*
X457Y1274D01*
X458Y1274D01*
X458Y1273D01*
X459Y1273D01*
X459Y1272D01*
X460Y1272D01*
X460Y1270D01*
X461Y1270D01*
X461Y1269D01*
X462Y1269D01*
X462Y1268D01*
X463Y1268D01*
X463Y1267D01*
X464Y1267D01*
X464Y1266D01*
X465Y1266D01*
X465Y1265D01*
X466Y1265D01*
X466Y1264D01*
X467Y1264D01*
X467Y1263D01*
X468Y1263D01*
X468Y1262D01*
X469Y1262D01*
X469Y1260D01*
X470Y1260D01*
X470Y1259D01*
X471Y1259D01*
X471Y1258D01*
X472Y1258D01*
X472Y1257D01*
X473Y1257D01*
X473Y1256D01*
X474Y1256D01*
X474Y1254D01*
X475Y1254D01*
X475Y1253D01*
X476Y1253D01*
X476Y1252D01*
X477Y1252D01*
X477Y1250D01*
X478Y1250D01*
X478Y1249D01*
X479Y1249D01*
X479Y1248D01*
X480Y1248D01*
X480Y1246D01*
X481Y1246D01*
X481Y1245D01*
X482Y1245D01*
X482Y1244D01*
X483Y1244D01*
X483Y1242D01*
X484Y1242D01*
X484Y1241D01*
X485Y1241D01*
X485Y1239D01*
X486Y1239D01*
X486Y1238D01*
X487Y1238D01*
X487Y1236D01*
X488Y1236D01*
X488Y1234D01*
X489Y1234D01*
X489Y1233D01*
X490Y1233D01*
X490Y1231D01*
X491Y1231D01*
X491Y1230D01*
X492Y1230D01*
X492Y1228D01*
X493Y1228D01*
X493Y1226D01*
X494Y1226D01*
X494Y1224D01*
X495Y1224D01*
X495Y1223D01*
X496Y1223D01*
X496Y1221D01*
X497Y1221D01*
X497Y1219D01*
X498Y1219D01*
X498Y1217D01*
X499Y1217D01*
X499Y1215D01*
X500Y1215D01*
X500Y1213D01*
X501Y1213D01*
X501Y1211D01*
X502Y1211D01*
X502Y1209D01*
X503Y1209D01*
X503Y1207D01*
X504Y1207D01*
X504Y1204D01*
X505Y1204D01*
X505Y1202D01*
X506Y1202D01*
X506Y1200D01*
X507Y1200D01*
X507Y1197D01*
X508Y1197D01*
X508Y1195D01*
X509Y1195D01*
X509Y1192D01*
X510Y1192D01*
X510Y1189D01*
X511Y1189D01*
X511Y1187D01*
X512Y1187D01*
X512Y1184D01*
X513Y1184D01*
X513Y1181D01*
X514Y1181D01*
X514Y1177D01*
X515Y1177D01*
X515Y1174D01*
X516Y1174D01*
X516Y1170D01*
X517Y1170D01*
X517Y1166D01*
X518Y1166D01*
X518Y1162D01*
X519Y1162D01*
X519Y1157D01*
X520Y1157D01*
X520Y1152D01*
X521Y1152D01*
X521Y1146D01*
X522Y1146D01*
X522Y1139D01*
X523Y1139D01*
X523Y1129D01*
X524Y1129D01*
X524Y1090D01*
X523Y1090D01*
X523Y1080D01*
X522Y1080D01*
X522Y1073D01*
X521Y1073D01*
X521Y1067D01*
X520Y1067D01*
X520Y1062D01*
X519Y1062D01*
X519Y1057D01*
X518Y1057D01*
X518Y1053D01*
X517Y1053D01*
X517Y1049D01*
X516Y1049D01*
X516Y1045D01*
X515Y1045D01*
X515Y1042D01*
X514Y1042D01*
X514Y1039D01*
X513Y1039D01*
X513Y1036D01*
X512Y1036D01*
X512Y1033D01*
X511Y1033D01*
X511Y1030D01*
X510Y1030D01*
X510Y1027D01*
X509Y1027D01*
X509Y1024D01*
X508Y1024D01*
X508Y1022D01*
X507Y1022D01*
X507Y1019D01*
X506Y1019D01*
X506Y1017D01*
X505Y1017D01*
X505Y1015D01*
X504Y1015D01*
X504Y1013D01*
X503Y1013D01*
X503Y1010D01*
X502Y1010D01*
X502Y1008D01*
X501Y1008D01*
X501Y1006D01*
X500Y1006D01*
X500Y1004D01*
X499Y1004D01*
X499Y1002D01*
X498Y1002D01*
X498Y1000D01*
X497Y1000D01*
X497Y998D01*
X496Y998D01*
X496Y996D01*
X495Y996D01*
X495Y995D01*
X494Y995D01*
X494Y993D01*
X493Y993D01*
X493Y991D01*
X492Y991D01*
X492Y989D01*
X491Y989D01*
X491Y988D01*
X490Y988D01*
X490Y986D01*
X489Y986D01*
X489Y985D01*
X488Y985D01*
X488Y983D01*
X487Y983D01*
X487Y982D01*
X486Y982D01*
X486Y980D01*
X485Y980D01*
X485Y978D01*
X484Y978D01*
X484Y977D01*
X483Y977D01*
X483Y976D01*
X482Y976D01*
X482Y974D01*
X481Y974D01*
X481Y973D01*
X480Y973D01*
X480Y971D01*
X479Y971D01*
X479Y970D01*
X478Y970D01*
X478Y969D01*
X477Y969D01*
X477Y967D01*
X476Y967D01*
X476Y966D01*
X475Y966D01*
X475Y965D01*
X474Y965D01*
X474Y964D01*
X473Y964D01*
X473Y962D01*
X472Y962D01*
X472Y961D01*
X471Y961D01*
X471Y960D01*
X470Y960D01*
X470Y959D01*
X469Y959D01*
X469Y958D01*
X468Y958D01*
X468Y956D01*
X467Y956D01*
X467Y955D01*
X466Y955D01*
X466Y954D01*
X465Y954D01*
X465Y953D01*
X464Y953D01*
X464Y952D01*
X463Y952D01*
X463Y951D01*
X462Y951D01*
X462Y950D01*
X461Y950D01*
X461Y949D01*
X460Y949D01*
X460Y948D01*
X459Y948D01*
X459Y947D01*
X458Y947D01*
X458Y946D01*
X457Y946D01*
X457Y944D01*
X455Y944D01*
X455Y943D01*
X454Y943D01*
X454Y942D01*
X453Y942D01*
X453Y941D01*
X452Y941D01*
X452Y940D01*
X451Y940D01*
X451Y939D01*
X450Y939D01*
X450Y938D01*
X449Y938D01*
X449Y937D01*
X448Y937D01*
X448Y936D01*
X447Y936D01*
X447Y935D01*
X446Y935D01*
X446Y934D01*
X445Y934D01*
X445Y933D01*
X443Y933D01*
X443Y932D01*
X442Y932D01*
X442Y931D01*
X441Y931D01*
X441Y930D01*
X440Y930D01*
X440Y929D01*
X439Y929D01*
X439Y928D01*
X437Y928D01*
X437Y927D01*
X436Y927D01*
X436Y926D01*
X435Y926D01*
X435Y925D01*
X434Y925D01*
X434Y924D01*
X432Y924D01*
X432Y923D01*
X431Y923D01*
X431Y922D01*
X430Y922D01*
X430Y921D01*
X428Y921D01*
X428Y920D01*
X427Y920D01*
X427Y919D01*
X425Y919D01*
X425Y918D01*
X424Y918D01*
X424Y917D01*
X423Y917D01*
X423Y916D01*
X421Y916D01*
X421Y915D01*
X420Y915D01*
X420Y914D01*
X418Y914D01*
X418Y913D01*
X416Y913D01*
X416Y912D01*
X415Y912D01*
X415Y911D01*
X413Y911D01*
X413Y910D01*
X412Y910D01*
X412Y909D01*
X410Y909D01*
X410Y908D01*
X408Y908D01*
X408Y907D01*
X406Y907D01*
X406Y906D01*
X405Y906D01*
X405Y905D01*
X403Y905D01*
X403Y904D01*
X401Y904D01*
X401Y903D01*
X399Y903D01*
X399Y902D01*
X397Y902D01*
X397Y901D01*
X395Y901D01*
X395Y900D01*
X393Y900D01*
X393Y899D01*
X391Y899D01*
X391Y898D01*
X389Y898D01*
X389Y897D01*
X386Y897D01*
X386Y896D01*
X384Y896D01*
X384Y895D01*
X382Y895D01*
X382Y894D01*
X379Y894D01*
X379Y893D01*
X377Y893D01*
X377Y892D01*
X374Y892D01*
X374Y891D01*
X372Y891D01*
X372Y890D01*
X369Y890D01*
X369Y889D01*
X366Y889D01*
X366Y888D01*
X363Y888D01*
X363Y887D01*
X360Y887D01*
X360Y886D01*
X356Y886D01*
X356Y885D01*
X352Y885D01*
X352Y884D01*
X349Y884D01*
X349Y883D01*
X344Y883D01*
X344Y882D01*
X340Y882D01*
X340Y881D01*
X335Y881D01*
X335Y880D01*
X329Y880D01*
X329Y879D01*
X322Y879D01*
X322Y878D01*
X313Y878D01*
X313Y877D01*
X375Y877D01*
X375Y878D01*
X378Y878D01*
X378Y879D01*
X380Y879D01*
X380Y880D01*
X383Y880D01*
X383Y881D01*
X385Y881D01*
X385Y882D01*
X388Y882D01*
X388Y883D01*
X390Y883D01*
X390Y884D01*
X392Y884D01*
X392Y885D01*
X394Y885D01*
X394Y886D01*
X397Y886D01*
X397Y887D01*
X399Y887D01*
X399Y888D01*
X401Y888D01*
X401Y889D01*
X403Y889D01*
X403Y890D01*
X404Y890D01*
X404Y891D01*
X406Y891D01*
X406Y892D01*
X408Y892D01*
X408Y893D01*
X410Y893D01*
X410Y894D01*
X412Y894D01*
X412Y895D01*
X414Y895D01*
X414Y896D01*
X415Y896D01*
X415Y897D01*
X417Y897D01*
X417Y898D01*
X419Y898D01*
X419Y899D01*
X420Y899D01*
X420Y900D01*
X422Y900D01*
X422Y901D01*
X423Y901D01*
X423Y902D01*
X425Y902D01*
X425Y903D01*
X427Y903D01*
X427Y904D01*
X428Y904D01*
X428Y905D01*
X430Y905D01*
X430Y906D01*
X431Y906D01*
X431Y907D01*
X432Y907D01*
X432Y908D01*
X434Y908D01*
X434Y909D01*
X435Y909D01*
X435Y910D01*
X437Y910D01*
X437Y911D01*
X438Y911D01*
X438Y912D01*
X439Y912D01*
X439Y913D01*
X441Y913D01*
X441Y914D01*
X442Y914D01*
X442Y915D01*
X443Y915D01*
X443Y916D01*
X444Y916D01*
X444Y917D01*
X446Y917D01*
X446Y918D01*
X447Y918D01*
X447Y919D01*
X448Y919D01*
X448Y920D01*
X449Y920D01*
X449Y921D01*
X450Y921D01*
X450Y922D01*
X452Y922D01*
X452Y923D01*
X453Y923D01*
X453Y924D01*
X454Y924D01*
X454Y925D01*
X455Y925D01*
X455Y926D01*
X456Y926D01*
X456Y927D01*
X457Y927D01*
X457Y928D01*
X458Y928D01*
X458Y929D01*
X459Y929D01*
X459Y930D01*
X461Y930D01*
X461Y931D01*
X462Y931D01*
X462Y932D01*
X463Y932D01*
X463Y933D01*
X464Y933D01*
X464Y934D01*
X465Y934D01*
X465Y935D01*
X466Y935D01*
X466Y936D01*
X467Y936D01*
X467Y937D01*
X468Y937D01*
X468Y938D01*
X469Y938D01*
X469Y939D01*
X470Y939D01*
X470Y940D01*
X471Y940D01*
X471Y942D01*
X472Y942D01*
X472Y943D01*
X473Y943D01*
X473Y944D01*
X474Y944D01*
X474Y945D01*
X475Y945D01*
X475Y946D01*
X476Y946D01*
X476Y947D01*
X477Y947D01*
X477Y948D01*
X478Y948D01*
X478Y949D01*
X479Y949D01*
X479Y951D01*
X480Y951D01*
X480Y952D01*
X481Y952D01*
X481Y953D01*
X482Y953D01*
X482Y954D01*
X483Y954D01*
X483Y955D01*
X484Y955D01*
X484Y957D01*
X485Y957D01*
X485Y958D01*
X486Y958D01*
X486Y959D01*
X487Y959D01*
X487Y960D01*
X488Y960D01*
X488Y962D01*
X489Y962D01*
X489Y963D01*
X490Y963D01*
X490Y964D01*
X491Y964D01*
X491Y966D01*
X492Y966D01*
X492Y967D01*
X493Y967D01*
X493Y969D01*
X494Y969D01*
X494Y970D01*
X495Y970D01*
X495Y971D01*
X496Y971D01*
X496Y973D01*
X497Y973D01*
X497Y975D01*
X498Y975D01*
X498Y976D01*
X499Y976D01*
X499Y978D01*
X500Y978D01*
X500Y979D01*
X501Y979D01*
X501Y981D01*
X502Y981D01*
X502Y982D01*
X503Y982D01*
X503Y984D01*
X504Y984D01*
X504Y986D01*
X505Y986D01*
X505Y988D01*
X506Y988D01*
X506Y989D01*
X507Y989D01*
X507Y991D01*
X508Y991D01*
X508Y993D01*
X509Y993D01*
X509Y995D01*
X510Y995D01*
X510Y997D01*
X511Y997D01*
X511Y999D01*
X512Y999D01*
X512Y1001D01*
X513Y1001D01*
X513Y1003D01*
X514Y1003D01*
X514Y1005D01*
X515Y1005D01*
X515Y1007D01*
X516Y1007D01*
X516Y1009D01*
X517Y1009D01*
X517Y1011D01*
X518Y1011D01*
X518Y1013D01*
X519Y1013D01*
X519Y1016D01*
X520Y1016D01*
X520Y1018D01*
X521Y1018D01*
X521Y1021D01*
X522Y1021D01*
X522Y1023D01*
X523Y1023D01*
X523Y1026D01*
X524Y1026D01*
X524Y1029D01*
X525Y1029D01*
X525Y1032D01*
X526Y1032D01*
X526Y1035D01*
X527Y1035D01*
X527Y1038D01*
X528Y1038D01*
X528Y1042D01*
X529Y1042D01*
X529Y1045D01*
X530Y1045D01*
X530Y1049D01*
X531Y1049D01*
X531Y1053D01*
X532Y1053D01*
X532Y1057D01*
X533Y1057D01*
X533Y1062D01*
X534Y1062D01*
X534Y1067D01*
X535Y1067D01*
X535Y1073D01*
X536Y1073D01*
X536Y1081D01*
X537Y1081D01*
X537Y1092D01*
X538Y1092D01*
X538Y1127D01*
X537Y1127D01*
X537Y1138D01*
X536Y1138D01*
X536Y1146D01*
X535Y1146D01*
X535Y1152D01*
X534Y1152D01*
X534Y1157D01*
X533Y1157D01*
X533Y1162D01*
X532Y1162D01*
X532Y1166D01*
X531Y1166D01*
X531Y1171D01*
X530Y1171D01*
X530Y1174D01*
X529Y1174D01*
X529Y1178D01*
X528Y1178D01*
X528Y1181D01*
X527Y1181D01*
X527Y1184D01*
X526Y1184D01*
X526Y1187D01*
X525Y1187D01*
X525Y1190D01*
X524Y1190D01*
X524Y1193D01*
X523Y1193D01*
X523Y1196D01*
X522Y1196D01*
X522Y1198D01*
X521Y1198D01*
X521Y1201D01*
X520Y1201D01*
X520Y1203D01*
X519Y1203D01*
X519Y1206D01*
X518Y1206D01*
X518Y1208D01*
X517Y1208D01*
X517Y1210D01*
X516Y1210D01*
X516Y1212D01*
X515Y1212D01*
X515Y1214D01*
X514Y1214D01*
X514Y1217D01*
X513Y1217D01*
X513Y1219D01*
X512Y1219D01*
X512Y1221D01*
X511Y1221D01*
X511Y1222D01*
X510Y1222D01*
X510Y1224D01*
X509Y1224D01*
X509Y1226D01*
X508Y1226D01*
X508Y1228D01*
X507Y1228D01*
X507Y1230D01*
X506Y1230D01*
X506Y1232D01*
X505Y1232D01*
X505Y1233D01*
X504Y1233D01*
X504Y1235D01*
X503Y1235D01*
X503Y1237D01*
X502Y1237D01*
X502Y1238D01*
X501Y1238D01*
X501Y1240D01*
X500Y1240D01*
X500Y1241D01*
X499Y1241D01*
X499Y1243D01*
X498Y1243D01*
X498Y1245D01*
X497Y1245D01*
X497Y1246D01*
X496Y1246D01*
X496Y1248D01*
X495Y1248D01*
X495Y1249D01*
X494Y1249D01*
X494Y1250D01*
X493Y1250D01*
X493Y1252D01*
X492Y1252D01*
X492Y1253D01*
X491Y1253D01*
X491Y1255D01*
X490Y1255D01*
X490Y1256D01*
X489Y1256D01*
X489Y1257D01*
X488Y1257D01*
X488Y1259D01*
X487Y1259D01*
X487Y1260D01*
X486Y1260D01*
X486Y1261D01*
X485Y1261D01*
X485Y1262D01*
X484Y1262D01*
X484Y1264D01*
X483Y1264D01*
X483Y1265D01*
X482Y1265D01*
X482Y1266D01*
X481Y1266D01*
X481Y1267D01*
X480Y1267D01*
X480Y1269D01*
X479Y1269D01*
X479Y1270D01*
X478Y1270D01*
X478Y1271D01*
X477Y1271D01*
X477Y1272D01*
X476Y1272D01*
X476Y1273D01*
X475Y1273D01*
X475Y1274D01*
X474Y1274D01*
X474Y1275D01*
X473Y1275D01*
X473Y1277D01*
X472Y1277D01*
X472Y1278D01*
X471Y1278D01*
X471Y1279D01*
X470Y1279D01*
X470Y1280D01*
X469Y1280D01*
X469Y1281D01*
X468Y1281D01*
X468Y1282D01*
X467Y1282D01*
X467Y1283D01*
X466Y1283D01*
X466Y1284D01*
X465Y1284D01*
X465Y1285D01*
X464Y1285D01*
X464Y1286D01*
X463Y1286D01*
X463Y1287D01*
X462Y1287D01*
X462Y1288D01*
X461Y1288D01*
X461Y1289D01*
X460Y1289D01*
X460Y1290D01*
X459Y1290D01*
X459Y1291D01*
X457Y1291D01*
X457Y1292D01*
X456Y1292D01*
X456Y1293D01*
X455Y1293D01*
X455Y1294D01*
X454Y1294D01*
X454Y1295D01*
X453Y1295D01*
X453Y1296D01*
X452Y1296D01*
X452Y1297D01*
X451Y1297D01*
X451Y1298D01*
X449Y1298D01*
X449Y1299D01*
X448Y1299D01*
X448Y1300D01*
X447Y1300D01*
X447Y1301D01*
X446Y1301D01*
X446Y1302D01*
X445Y1302D01*
X445Y1303D01*
X443Y1303D01*
X443Y1304D01*
X442Y1304D01*
X442Y1305D01*
X441Y1305D01*
X441Y1306D01*
X439Y1306D01*
X439Y1307D01*
X438Y1307D01*
X438Y1308D01*
X437Y1308D01*
X437Y1309D01*
X435Y1309D01*
X435Y1310D01*
X434Y1310D01*
X434Y1311D01*
X433Y1311D01*
X433Y1312D01*
X431Y1312D01*
X431Y1313D01*
X430Y1313D01*
X430Y1314D01*
X428Y1314D01*
X428Y1315D01*
X427Y1315D01*
X427Y1316D01*
X425Y1316D01*
X425Y1317D01*
X424Y1317D01*
X424Y1318D01*
X422Y1318D01*
X422Y1319D01*
X421Y1319D01*
X421Y1320D01*
X419Y1320D01*
X419Y1321D01*
X417Y1321D01*
X417Y1322D01*
X416Y1322D01*
X416Y1323D01*
X414Y1323D01*
X414Y1324D01*
X412Y1324D01*
X412Y1325D01*
X410Y1325D01*
X410Y1326D01*
X409Y1326D01*
X409Y1327D01*
X407Y1327D01*
X407Y1328D01*
X405Y1328D01*
X405Y1329D01*
X403Y1329D01*
X403Y1330D01*
X401Y1330D01*
X401Y1331D01*
X399Y1331D01*
X399Y1332D01*
X397Y1332D01*
X397Y1333D01*
X395Y1333D01*
X395Y1334D01*
X392Y1334D01*
X392Y1335D01*
X390Y1335D01*
X390Y1336D01*
X388Y1336D01*
X388Y1337D01*
X386Y1337D01*
X386Y1338D01*
X383Y1338D01*
X383Y1339D01*
X381Y1339D01*
X381Y1340D01*
X378Y1340D01*
X378Y1341D01*
X376Y1341D01*
X376Y1342D01*
X373Y1342D01*
X373Y1343D01*
X370Y1343D01*
X370Y1344D01*
X367Y1344D01*
X367Y1345D01*
X364Y1345D01*
X364Y1346D01*
X360Y1346D01*
X360Y1347D01*
X357Y1347D01*
X357Y1348D01*
X353Y1348D01*
X353Y1349D01*
X349Y1349D01*
X349Y1350D01*
X345Y1350D01*
X345Y1351D01*
X341Y1351D01*
X341Y1352D01*
X335Y1352D01*
X335Y1353D01*
X329Y1353D01*
X329Y1354D01*
X322Y1354D01*
X322Y1355D01*
X313Y1355D01*
X313Y1356D01*
X270Y1356D01*
G37*
D02*
G36*
X210Y1343D02*
X210Y1342D01*
X207Y1342D01*
X207Y1341D01*
X204Y1341D01*
X204Y1340D01*
X202Y1340D01*
X202Y1339D01*
X199Y1339D01*
X199Y1338D01*
X197Y1338D01*
X197Y1337D01*
X195Y1337D01*
X195Y1336D01*
X192Y1336D01*
X192Y1335D01*
X190Y1335D01*
X190Y1334D01*
X188Y1334D01*
X188Y1333D01*
X186Y1333D01*
X186Y1332D01*
X184Y1332D01*
X184Y1331D01*
X182Y1331D01*
X182Y1330D01*
X180Y1330D01*
X180Y1329D01*
X178Y1329D01*
X178Y1328D01*
X176Y1328D01*
X176Y1327D01*
X174Y1327D01*
X174Y1326D01*
X172Y1326D01*
X172Y1325D01*
X171Y1325D01*
X171Y1324D01*
X169Y1324D01*
X169Y1323D01*
X167Y1323D01*
X167Y1322D01*
X165Y1322D01*
X165Y1321D01*
X164Y1321D01*
X164Y1320D01*
X162Y1320D01*
X162Y1319D01*
X161Y1319D01*
X161Y1318D01*
X159Y1318D01*
X159Y1317D01*
X157Y1317D01*
X157Y1316D01*
X156Y1316D01*
X156Y1315D01*
X154Y1315D01*
X154Y1314D01*
X153Y1314D01*
X153Y1313D01*
X151Y1313D01*
X151Y1312D01*
X150Y1312D01*
X150Y1311D01*
X149Y1311D01*
X149Y1310D01*
X147Y1310D01*
X147Y1309D01*
X146Y1309D01*
X146Y1308D01*
X144Y1308D01*
X144Y1307D01*
X143Y1307D01*
X143Y1306D01*
X142Y1306D01*
X142Y1305D01*
X141Y1305D01*
X141Y1304D01*
X139Y1304D01*
X139Y1303D01*
X138Y1303D01*
X138Y1302D01*
X137Y1302D01*
X137Y1301D01*
X136Y1301D01*
X136Y1300D01*
X134Y1300D01*
X134Y1299D01*
X133Y1299D01*
X133Y1298D01*
X132Y1298D01*
X132Y1297D01*
X131Y1297D01*
X131Y1296D01*
X130Y1296D01*
X130Y1295D01*
X129Y1295D01*
X129Y1294D01*
X127Y1294D01*
X127Y1293D01*
X126Y1293D01*
X126Y1292D01*
X125Y1292D01*
X125Y1291D01*
X124Y1291D01*
X124Y1290D01*
X123Y1290D01*
X123Y1289D01*
X122Y1289D01*
X122Y1288D01*
X121Y1288D01*
X121Y1287D01*
X120Y1287D01*
X120Y1286D01*
X119Y1286D01*
X119Y1285D01*
X118Y1285D01*
X118Y1284D01*
X117Y1284D01*
X117Y1283D01*
X116Y1283D01*
X116Y1282D01*
X115Y1282D01*
X115Y1281D01*
X114Y1281D01*
X114Y1280D01*
X113Y1280D01*
X113Y1279D01*
X112Y1279D01*
X112Y1278D01*
X111Y1278D01*
X111Y1277D01*
X110Y1277D01*
X110Y1276D01*
X109Y1276D01*
X109Y1275D01*
X108Y1275D01*
X108Y1274D01*
X107Y1274D01*
X107Y1272D01*
X106Y1272D01*
X106Y1271D01*
X105Y1271D01*
X105Y1270D01*
X104Y1270D01*
X104Y1269D01*
X103Y1269D01*
X103Y1268D01*
X102Y1268D01*
X102Y1267D01*
X101Y1267D01*
X101Y1266D01*
X100Y1266D01*
X100Y1264D01*
X99Y1264D01*
X99Y1263D01*
X98Y1263D01*
X98Y1262D01*
X97Y1262D01*
X97Y1260D01*
X96Y1260D01*
X96Y1259D01*
X95Y1259D01*
X95Y1258D01*
X94Y1258D01*
X94Y1257D01*
X93Y1257D01*
X93Y1255D01*
X92Y1255D01*
X92Y1254D01*
X91Y1254D01*
X91Y1252D01*
X90Y1252D01*
X90Y1251D01*
X89Y1251D01*
X89Y1250D01*
X88Y1250D01*
X88Y1248D01*
X87Y1248D01*
X87Y1247D01*
X86Y1247D01*
X86Y1245D01*
X85Y1245D01*
X85Y1244D01*
X84Y1244D01*
X84Y1242D01*
X83Y1242D01*
X83Y1241D01*
X82Y1241D01*
X82Y1239D01*
X81Y1239D01*
X81Y1237D01*
X80Y1237D01*
X80Y1236D01*
X79Y1236D01*
X79Y1234D01*
X78Y1234D01*
X78Y1232D01*
X77Y1232D01*
X77Y1231D01*
X76Y1231D01*
X76Y1229D01*
X75Y1229D01*
X75Y1227D01*
X74Y1227D01*
X74Y1225D01*
X73Y1225D01*
X73Y1223D01*
X72Y1223D01*
X72Y1221D01*
X71Y1221D01*
X71Y1219D01*
X70Y1219D01*
X70Y1217D01*
X69Y1217D01*
X69Y1215D01*
X68Y1215D01*
X68Y1213D01*
X67Y1213D01*
X67Y1211D01*
X66Y1211D01*
X66Y1209D01*
X65Y1209D01*
X65Y1207D01*
X64Y1207D01*
X64Y1204D01*
X63Y1204D01*
X63Y1202D01*
X62Y1202D01*
X62Y1199D01*
X61Y1199D01*
X61Y1197D01*
X60Y1197D01*
X60Y1194D01*
X59Y1194D01*
X59Y1191D01*
X58Y1191D01*
X58Y1188D01*
X57Y1188D01*
X57Y1185D01*
X56Y1185D01*
X56Y1182D01*
X55Y1182D01*
X55Y1179D01*
X54Y1179D01*
X54Y1175D01*
X53Y1175D01*
X53Y1172D01*
X52Y1172D01*
X52Y1168D01*
X51Y1168D01*
X51Y1164D01*
X50Y1164D01*
X50Y1159D01*
X49Y1159D01*
X49Y1154D01*
X48Y1154D01*
X48Y1148D01*
X47Y1148D01*
X47Y1141D01*
X46Y1141D01*
X46Y1132D01*
X45Y1132D01*
X45Y1113D01*
X44Y1113D01*
X44Y1106D01*
X45Y1106D01*
X45Y1087D01*
X46Y1087D01*
X46Y1078D01*
X47Y1078D01*
X47Y1071D01*
X48Y1071D01*
X48Y1065D01*
X49Y1065D01*
X49Y1060D01*
X50Y1060D01*
X50Y1056D01*
X51Y1056D01*
X51Y1051D01*
X52Y1051D01*
X52Y1047D01*
X53Y1047D01*
X53Y1044D01*
X54Y1044D01*
X54Y1040D01*
X55Y1040D01*
X55Y1037D01*
X56Y1037D01*
X56Y1034D01*
X57Y1034D01*
X57Y1031D01*
X58Y1031D01*
X58Y1028D01*
X59Y1028D01*
X59Y1025D01*
X60Y1025D01*
X60Y1022D01*
X61Y1022D01*
X61Y1020D01*
X62Y1020D01*
X62Y1017D01*
X63Y1017D01*
X63Y1015D01*
X64Y1015D01*
X64Y1013D01*
X65Y1013D01*
X65Y1010D01*
X66Y1010D01*
X66Y1008D01*
X67Y1008D01*
X67Y1006D01*
X68Y1006D01*
X68Y1004D01*
X69Y1004D01*
X69Y1002D01*
X70Y1002D01*
X70Y1000D01*
X71Y1000D01*
X71Y998D01*
X72Y998D01*
X72Y996D01*
X73Y996D01*
X73Y994D01*
X74Y994D01*
X74Y992D01*
X75Y992D01*
X75Y990D01*
X76Y990D01*
X76Y989D01*
X77Y989D01*
X77Y987D01*
X78Y987D01*
X78Y985D01*
X79Y985D01*
X79Y983D01*
X80Y983D01*
X80Y982D01*
X81Y982D01*
X81Y980D01*
X82Y980D01*
X82Y979D01*
X83Y979D01*
X83Y977D01*
X84Y977D01*
X84Y976D01*
X85Y976D01*
X85Y974D01*
X86Y974D01*
X86Y972D01*
X87Y972D01*
X87Y971D01*
X88Y971D01*
X88Y970D01*
X89Y970D01*
X89Y968D01*
X90Y968D01*
X90Y967D01*
X91Y967D01*
X91Y965D01*
X92Y965D01*
X92Y964D01*
X93Y964D01*
X93Y963D01*
X94Y963D01*
X94Y961D01*
X95Y961D01*
X95Y960D01*
X96Y960D01*
X96Y959D01*
X97Y959D01*
X97Y957D01*
X98Y957D01*
X98Y956D01*
X99Y956D01*
X99Y955D01*
X100Y955D01*
X100Y954D01*
X101Y954D01*
X101Y952D01*
X102Y952D01*
X102Y951D01*
X103Y951D01*
X103Y950D01*
X104Y950D01*
X104Y949D01*
X105Y949D01*
X105Y948D01*
X106Y948D01*
X106Y947D01*
X107Y947D01*
X107Y945D01*
X108Y945D01*
X108Y944D01*
X109Y944D01*
X109Y943D01*
X110Y943D01*
X110Y942D01*
X111Y942D01*
X111Y941D01*
X112Y941D01*
X112Y940D01*
X113Y940D01*
X113Y939D01*
X114Y939D01*
X114Y938D01*
X115Y938D01*
X115Y937D01*
X116Y937D01*
X116Y936D01*
X117Y936D01*
X117Y935D01*
X118Y935D01*
X118Y934D01*
X119Y934D01*
X119Y933D01*
X120Y933D01*
X120Y932D01*
X121Y932D01*
X121Y931D01*
X122Y931D01*
X122Y930D01*
X123Y930D01*
X123Y929D01*
X124Y929D01*
X124Y928D01*
X125Y928D01*
X125Y927D01*
X126Y927D01*
X126Y926D01*
X128Y926D01*
X128Y925D01*
X129Y925D01*
X129Y924D01*
X130Y924D01*
X130Y923D01*
X131Y923D01*
X131Y922D01*
X132Y922D01*
X132Y921D01*
X133Y921D01*
X133Y920D01*
X134Y920D01*
X134Y919D01*
X136Y919D01*
X136Y918D01*
X137Y918D01*
X137Y917D01*
X138Y917D01*
X138Y916D01*
X139Y916D01*
X139Y915D01*
X141Y915D01*
X141Y914D01*
X142Y914D01*
X142Y913D01*
X143Y913D01*
X143Y912D01*
X145Y912D01*
X145Y911D01*
X146Y911D01*
X146Y910D01*
X147Y910D01*
X147Y909D01*
X149Y909D01*
X149Y908D01*
X150Y908D01*
X150Y907D01*
X152Y907D01*
X152Y906D01*
X153Y906D01*
X153Y905D01*
X155Y905D01*
X155Y904D01*
X156Y904D01*
X156Y903D01*
X158Y903D01*
X158Y902D01*
X159Y902D01*
X159Y901D01*
X161Y901D01*
X161Y900D01*
X162Y900D01*
X162Y899D01*
X164Y899D01*
X164Y898D01*
X166Y898D01*
X166Y897D01*
X167Y897D01*
X167Y896D01*
X169Y896D01*
X169Y895D01*
X171Y895D01*
X171Y894D01*
X173Y894D01*
X173Y893D01*
X174Y893D01*
X174Y892D01*
X176Y892D01*
X176Y891D01*
X178Y891D01*
X178Y890D01*
X180Y890D01*
X180Y889D01*
X182Y889D01*
X182Y888D01*
X184Y888D01*
X184Y887D01*
X186Y887D01*
X186Y886D01*
X188Y886D01*
X188Y885D01*
X190Y885D01*
X190Y884D01*
X193Y884D01*
X193Y883D01*
X195Y883D01*
X195Y882D01*
X197Y882D01*
X197Y881D01*
X200Y881D01*
X200Y880D01*
X202Y880D01*
X202Y879D01*
X205Y879D01*
X205Y878D01*
X207Y878D01*
X207Y877D01*
X270Y877D01*
X270Y878D01*
X261Y878D01*
X261Y879D01*
X254Y879D01*
X254Y880D01*
X248Y880D01*
X248Y881D01*
X243Y881D01*
X243Y882D01*
X238Y882D01*
X238Y883D01*
X234Y883D01*
X234Y884D01*
X230Y884D01*
X230Y885D01*
X227Y885D01*
X227Y886D01*
X223Y886D01*
X223Y887D01*
X220Y887D01*
X220Y888D01*
X217Y888D01*
X217Y889D01*
X214Y889D01*
X214Y890D01*
X211Y890D01*
X211Y891D01*
X208Y891D01*
X208Y892D01*
X206Y892D01*
X206Y893D01*
X203Y893D01*
X203Y894D01*
X201Y894D01*
X201Y895D01*
X198Y895D01*
X198Y896D01*
X196Y896D01*
X196Y897D01*
X194Y897D01*
X194Y898D01*
X192Y898D01*
X192Y899D01*
X190Y899D01*
X190Y900D01*
X188Y900D01*
X188Y901D01*
X186Y901D01*
X186Y902D01*
X184Y902D01*
X184Y903D01*
X182Y903D01*
X182Y904D01*
X180Y904D01*
X180Y905D01*
X178Y905D01*
X178Y906D01*
X176Y906D01*
X176Y907D01*
X174Y907D01*
X174Y908D01*
X173Y908D01*
X173Y909D01*
X171Y909D01*
X171Y910D01*
X169Y910D01*
X169Y911D01*
X168Y911D01*
X168Y912D01*
X166Y912D01*
X166Y913D01*
X165Y913D01*
X165Y914D01*
X163Y914D01*
X163Y915D01*
X161Y915D01*
X161Y916D01*
X160Y916D01*
X160Y917D01*
X159Y917D01*
X159Y918D01*
X157Y918D01*
X157Y919D01*
X156Y919D01*
X156Y920D01*
X154Y920D01*
X154Y921D01*
X153Y921D01*
X153Y922D01*
X152Y922D01*
X152Y923D01*
X150Y923D01*
X150Y924D01*
X149Y924D01*
X149Y925D01*
X148Y925D01*
X148Y926D01*
X146Y926D01*
X146Y927D01*
X145Y927D01*
X145Y928D01*
X144Y928D01*
X144Y929D01*
X143Y929D01*
X143Y930D01*
X141Y930D01*
X141Y931D01*
X140Y931D01*
X140Y932D01*
X139Y932D01*
X139Y933D01*
X138Y933D01*
X138Y934D01*
X137Y934D01*
X137Y935D01*
X136Y935D01*
X136Y936D01*
X135Y936D01*
X135Y937D01*
X133Y937D01*
X133Y938D01*
X132Y938D01*
X132Y939D01*
X131Y939D01*
X131Y940D01*
X130Y940D01*
X130Y941D01*
X129Y941D01*
X129Y942D01*
X128Y942D01*
X128Y943D01*
X127Y943D01*
X127Y944D01*
X126Y944D01*
X126Y945D01*
X125Y945D01*
X125Y946D01*
X124Y946D01*
X124Y947D01*
X123Y947D01*
X123Y948D01*
X122Y948D01*
X122Y949D01*
X121Y949D01*
X121Y950D01*
X120Y950D01*
X120Y951D01*
X119Y951D01*
X119Y952D01*
X118Y952D01*
X118Y954D01*
X117Y954D01*
X117Y955D01*
X116Y955D01*
X116Y956D01*
X115Y956D01*
X115Y957D01*
X114Y957D01*
X114Y958D01*
X113Y958D01*
X113Y959D01*
X112Y959D01*
X112Y961D01*
X111Y961D01*
X111Y962D01*
X110Y962D01*
X110Y963D01*
X109Y963D01*
X109Y964D01*
X108Y964D01*
X108Y966D01*
X107Y966D01*
X107Y967D01*
X106Y967D01*
X106Y968D01*
X105Y968D01*
X105Y969D01*
X104Y969D01*
X104Y971D01*
X103Y971D01*
X103Y972D01*
X102Y972D01*
X102Y974D01*
X101Y974D01*
X101Y975D01*
X100Y975D01*
X100Y976D01*
X99Y976D01*
X99Y978D01*
X98Y978D01*
X98Y979D01*
X97Y979D01*
X97Y981D01*
X96Y981D01*
X96Y982D01*
X95Y982D01*
X95Y984D01*
X94Y984D01*
X94Y986D01*
X93Y986D01*
X93Y987D01*
X92Y987D01*
X92Y989D01*
X91Y989D01*
X91Y991D01*
X90Y991D01*
X90Y992D01*
X89Y992D01*
X89Y994D01*
X88Y994D01*
X88Y996D01*
X87Y996D01*
X87Y998D01*
X86Y998D01*
X86Y999D01*
X85Y999D01*
X85Y1001D01*
X84Y1001D01*
X84Y1003D01*
X83Y1003D01*
X83Y1005D01*
X82Y1005D01*
X82Y1007D01*
X81Y1007D01*
X81Y1009D01*
X80Y1009D01*
X80Y1012D01*
X79Y1012D01*
X79Y1014D01*
X78Y1014D01*
X78Y1016D01*
X77Y1016D01*
X77Y1018D01*
X76Y1018D01*
X76Y1021D01*
X75Y1021D01*
X75Y1023D01*
X74Y1023D01*
X74Y1026D01*
X73Y1026D01*
X73Y1029D01*
X72Y1029D01*
X72Y1032D01*
X71Y1032D01*
X71Y1034D01*
X70Y1034D01*
X70Y1037D01*
X69Y1037D01*
X69Y1041D01*
X68Y1041D01*
X68Y1044D01*
X67Y1044D01*
X67Y1048D01*
X66Y1048D01*
X66Y1051D01*
X65Y1051D01*
X65Y1056D01*
X64Y1056D01*
X64Y1060D01*
X63Y1060D01*
X63Y1065D01*
X62Y1065D01*
X62Y1071D01*
X61Y1071D01*
X61Y1077D01*
X60Y1077D01*
X60Y1086D01*
X59Y1086D01*
X59Y1101D01*
X58Y1101D01*
X58Y1118D01*
X59Y1118D01*
X59Y1134D01*
X60Y1134D01*
X60Y1142D01*
X61Y1142D01*
X61Y1148D01*
X62Y1148D01*
X62Y1154D01*
X63Y1154D01*
X63Y1159D01*
X64Y1159D01*
X64Y1163D01*
X65Y1163D01*
X65Y1168D01*
X66Y1168D01*
X66Y1171D01*
X67Y1171D01*
X67Y1175D01*
X68Y1175D01*
X68Y1179D01*
X69Y1179D01*
X69Y1182D01*
X70Y1182D01*
X70Y1185D01*
X71Y1185D01*
X71Y1188D01*
X72Y1188D01*
X72Y1191D01*
X73Y1191D01*
X73Y1193D01*
X74Y1193D01*
X74Y1196D01*
X75Y1196D01*
X75Y1198D01*
X76Y1198D01*
X76Y1201D01*
X77Y1201D01*
X77Y1203D01*
X78Y1203D01*
X78Y1205D01*
X79Y1205D01*
X79Y1207D01*
X80Y1207D01*
X80Y1210D01*
X81Y1210D01*
X81Y1212D01*
X82Y1212D01*
X82Y1214D01*
X83Y1214D01*
X83Y1216D01*
X84Y1216D01*
X84Y1218D01*
X85Y1218D01*
X85Y1220D01*
X86Y1220D01*
X86Y1222D01*
X87Y1222D01*
X87Y1223D01*
X88Y1223D01*
X88Y1225D01*
X89Y1225D01*
X89Y1227D01*
X90Y1227D01*
X90Y1229D01*
X91Y1229D01*
X91Y1230D01*
X92Y1230D01*
X92Y1232D01*
X93Y1232D01*
X93Y1234D01*
X94Y1234D01*
X94Y1235D01*
X95Y1235D01*
X95Y1237D01*
X96Y1237D01*
X96Y1238D01*
X97Y1238D01*
X97Y1240D01*
X98Y1240D01*
X98Y1241D01*
X99Y1241D01*
X99Y1243D01*
X100Y1243D01*
X100Y1244D01*
X101Y1244D01*
X101Y1245D01*
X102Y1245D01*
X102Y1247D01*
X103Y1247D01*
X103Y1248D01*
X104Y1248D01*
X104Y1250D01*
X105Y1250D01*
X105Y1251D01*
X106Y1251D01*
X106Y1252D01*
X107Y1252D01*
X107Y1254D01*
X108Y1254D01*
X108Y1255D01*
X109Y1255D01*
X109Y1256D01*
X110Y1256D01*
X110Y1257D01*
X111Y1257D01*
X111Y1259D01*
X112Y1259D01*
X112Y1260D01*
X113Y1260D01*
X113Y1261D01*
X114Y1261D01*
X114Y1262D01*
X115Y1262D01*
X115Y1263D01*
X116Y1263D01*
X116Y1264D01*
X117Y1264D01*
X117Y1266D01*
X118Y1266D01*
X118Y1267D01*
X119Y1267D01*
X119Y1268D01*
X120Y1268D01*
X120Y1269D01*
X121Y1269D01*
X121Y1270D01*
X122Y1270D01*
X122Y1271D01*
X123Y1271D01*
X123Y1272D01*
X124Y1272D01*
X124Y1273D01*
X125Y1273D01*
X125Y1274D01*
X126Y1274D01*
X126Y1275D01*
X127Y1275D01*
X127Y1276D01*
X128Y1276D01*
X128Y1277D01*
X129Y1277D01*
X129Y1278D01*
X130Y1278D01*
X130Y1279D01*
X131Y1279D01*
X131Y1280D01*
X132Y1280D01*
X132Y1281D01*
X133Y1281D01*
X133Y1282D01*
X134Y1282D01*
X134Y1283D01*
X136Y1283D01*
X136Y1284D01*
X137Y1284D01*
X137Y1285D01*
X138Y1285D01*
X138Y1286D01*
X139Y1286D01*
X139Y1287D01*
X140Y1287D01*
X140Y1288D01*
X141Y1288D01*
X141Y1289D01*
X142Y1289D01*
X142Y1290D01*
X144Y1290D01*
X144Y1291D01*
X145Y1291D01*
X145Y1292D01*
X146Y1292D01*
X146Y1293D01*
X148Y1293D01*
X148Y1294D01*
X149Y1294D01*
X149Y1295D01*
X150Y1295D01*
X150Y1296D01*
X151Y1296D01*
X151Y1297D01*
X153Y1297D01*
X153Y1298D01*
X154Y1298D01*
X154Y1299D01*
X156Y1299D01*
X156Y1300D01*
X157Y1300D01*
X157Y1301D01*
X158Y1301D01*
X158Y1302D01*
X160Y1302D01*
X160Y1303D01*
X161Y1303D01*
X161Y1304D01*
X163Y1304D01*
X163Y1305D01*
X164Y1305D01*
X164Y1306D01*
X166Y1306D01*
X166Y1307D01*
X168Y1307D01*
X168Y1308D01*
X169Y1308D01*
X169Y1309D01*
X171Y1309D01*
X171Y1310D01*
X172Y1310D01*
X172Y1311D01*
X174Y1311D01*
X174Y1312D01*
X176Y1312D01*
X176Y1313D01*
X178Y1313D01*
X178Y1314D01*
X179Y1314D01*
X179Y1315D01*
X181Y1315D01*
X181Y1316D01*
X183Y1316D01*
X183Y1317D01*
X185Y1317D01*
X185Y1318D01*
X187Y1318D01*
X187Y1319D01*
X189Y1319D01*
X189Y1320D01*
X191Y1320D01*
X191Y1321D01*
X194Y1321D01*
X194Y1322D01*
X196Y1322D01*
X196Y1323D01*
X198Y1323D01*
X198Y1324D01*
X200Y1324D01*
X200Y1325D01*
X203Y1325D01*
X203Y1326D01*
X205Y1326D01*
X205Y1327D01*
X208Y1327D01*
X208Y1328D01*
X211Y1328D01*
X211Y1329D01*
X214Y1329D01*
X214Y1330D01*
X216Y1330D01*
X216Y1331D01*
X219Y1331D01*
X219Y1332D01*
X223Y1332D01*
X223Y1333D01*
X226Y1333D01*
X226Y1334D01*
X230Y1334D01*
X230Y1335D01*
X233Y1335D01*
X233Y1336D01*
X238Y1336D01*
X238Y1337D01*
X242Y1337D01*
X242Y1338D01*
X247Y1338D01*
X247Y1339D01*
X253Y1339D01*
X253Y1340D01*
X260Y1340D01*
X260Y1341D01*
X268Y1341D01*
X268Y1342D01*
X286Y1342D01*
X286Y1343D01*
X210Y1343D01*
G37*
D02*
G36*
X210Y877D02*
X210Y876D01*
X372Y876D01*
X372Y877D01*
X210Y877D01*
G37*
D02*
G36*
X210Y877D02*
X210Y876D01*
X372Y876D01*
X372Y877D01*
X210Y877D01*
G37*
D02*
G36*
X213Y876D02*
X213Y875D01*
X216Y875D01*
X216Y874D01*
X219Y874D01*
X219Y873D01*
X223Y873D01*
X223Y872D01*
X226Y872D01*
X226Y871D01*
X230Y871D01*
X230Y870D01*
X234Y870D01*
X234Y869D01*
X238Y869D01*
X238Y868D01*
X243Y868D01*
X243Y867D01*
X248Y867D01*
X248Y866D01*
X254Y866D01*
X254Y865D01*
X262Y865D01*
X262Y864D01*
X271Y864D01*
X271Y863D01*
X311Y863D01*
X311Y864D01*
X321Y864D01*
X321Y865D01*
X329Y865D01*
X329Y866D01*
X334Y866D01*
X334Y867D01*
X340Y867D01*
X340Y868D01*
X344Y868D01*
X344Y869D01*
X349Y869D01*
X349Y870D01*
X353Y870D01*
X353Y871D01*
X356Y871D01*
X356Y872D01*
X360Y872D01*
X360Y873D01*
X363Y873D01*
X363Y874D01*
X366Y874D01*
X366Y875D01*
X369Y875D01*
X369Y876D01*
X213Y876D01*
G37*
D02*
G36*
X1711Y1329D02*
X1711Y1323D01*
X1735Y1323D01*
X1735Y1322D01*
X1736Y1322D01*
X1736Y1321D01*
X1737Y1321D01*
X1737Y1314D01*
X1736Y1314D01*
X1736Y1313D01*
X1744Y1313D01*
X1744Y1322D01*
X1743Y1322D01*
X1743Y1324D01*
X1742Y1324D01*
X1742Y1326D01*
X1741Y1326D01*
X1741Y1327D01*
X1740Y1327D01*
X1740Y1328D01*
X1738Y1328D01*
X1738Y1329D01*
X1711Y1329D01*
G37*
D02*
G36*
X1711Y1323D02*
X1711Y1313D01*
X1718Y1313D01*
X1718Y1323D01*
X1711Y1323D01*
G37*
D02*
G36*
X1711Y1313D02*
X1711Y1312D01*
X1743Y1312D01*
X1743Y1313D01*
X1711Y1313D01*
G37*
D02*
G36*
X1711Y1313D02*
X1711Y1312D01*
X1743Y1312D01*
X1743Y1313D01*
X1711Y1313D01*
G37*
D02*
G36*
X1711Y1312D02*
X1711Y1306D01*
X1723Y1306D01*
X1723Y1304D01*
X1724Y1304D01*
X1724Y1302D01*
X1725Y1302D01*
X1725Y1301D01*
X1726Y1301D01*
X1726Y1299D01*
X1727Y1299D01*
X1727Y1297D01*
X1728Y1297D01*
X1728Y1295D01*
X1729Y1295D01*
X1729Y1294D01*
X1730Y1294D01*
X1730Y1292D01*
X1731Y1292D01*
X1731Y1290D01*
X1732Y1290D01*
X1732Y1289D01*
X1733Y1289D01*
X1733Y1287D01*
X1734Y1287D01*
X1734Y1285D01*
X1735Y1285D01*
X1735Y1283D01*
X1736Y1283D01*
X1736Y1282D01*
X1737Y1282D01*
X1737Y1280D01*
X1738Y1280D01*
X1738Y1279D01*
X1739Y1279D01*
X1739Y1278D01*
X1742Y1278D01*
X1742Y1279D01*
X1743Y1279D01*
X1743Y1280D01*
X1744Y1280D01*
X1744Y1283D01*
X1743Y1283D01*
X1743Y1285D01*
X1742Y1285D01*
X1742Y1286D01*
X1741Y1286D01*
X1741Y1288D01*
X1740Y1288D01*
X1740Y1290D01*
X1739Y1290D01*
X1739Y1291D01*
X1738Y1291D01*
X1738Y1293D01*
X1737Y1293D01*
X1737Y1295D01*
X1736Y1295D01*
X1736Y1297D01*
X1735Y1297D01*
X1735Y1298D01*
X1734Y1298D01*
X1734Y1300D01*
X1733Y1300D01*
X1733Y1302D01*
X1732Y1302D01*
X1732Y1303D01*
X1731Y1303D01*
X1731Y1305D01*
X1730Y1305D01*
X1730Y1306D01*
X1737Y1306D01*
X1737Y1307D01*
X1739Y1307D01*
X1739Y1308D01*
X1740Y1308D01*
X1740Y1309D01*
X1741Y1309D01*
X1741Y1310D01*
X1742Y1310D01*
X1742Y1311D01*
X1743Y1311D01*
X1743Y1312D01*
X1711Y1312D01*
G37*
D02*
G36*
X1711Y1306D02*
X1711Y1280D01*
X1712Y1280D01*
X1712Y1279D01*
X1713Y1279D01*
X1713Y1278D01*
X1716Y1278D01*
X1716Y1279D01*
X1717Y1279D01*
X1717Y1280D01*
X1718Y1280D01*
X1718Y1306D01*
X1711Y1306D01*
G37*
D02*
G36*
X1762Y1329D02*
X1762Y1328D01*
X1761Y1328D01*
X1761Y1323D01*
X1787Y1323D01*
X1787Y1313D01*
X1793Y1313D01*
X1793Y1328D01*
X1792Y1328D01*
X1792Y1329D01*
X1762Y1329D01*
G37*
D02*
G36*
X1761Y1323D02*
X1761Y1313D01*
X1767Y1313D01*
X1767Y1322D01*
X1768Y1322D01*
X1768Y1323D01*
X1761Y1323D01*
G37*
D02*
G36*
X1761Y1313D02*
X1761Y1312D01*
X1793Y1312D01*
X1793Y1313D01*
X1761Y1313D01*
G37*
D02*
G36*
X1761Y1313D02*
X1761Y1312D01*
X1793Y1312D01*
X1793Y1313D01*
X1761Y1313D01*
G37*
D02*
G36*
X1761Y1312D02*
X1761Y1307D01*
X1762Y1307D01*
X1762Y1306D01*
X1787Y1306D01*
X1787Y1285D01*
X1786Y1285D01*
X1786Y1284D01*
X1784Y1284D01*
X1784Y1279D01*
X1785Y1279D01*
X1785Y1278D01*
X1792Y1278D01*
X1792Y1279D01*
X1793Y1279D01*
X1793Y1312D01*
X1761Y1312D01*
G37*
D02*
G36*
X1638Y1312D02*
X1638Y1302D01*
X1672Y1302D01*
X1672Y1312D01*
X1638Y1312D01*
G37*
D02*
G36*
X1822Y1312D02*
X1822Y1302D01*
X1858Y1302D01*
X1858Y1304D01*
X1857Y1304D01*
X1857Y1311D01*
X1858Y1311D01*
X1858Y1312D01*
X1822Y1312D01*
G37*
D02*
G36*
X1480Y1213D02*
X1480Y1212D01*
X1478Y1212D01*
X1478Y1211D01*
X1476Y1211D01*
X1476Y1210D01*
X1475Y1210D01*
X1475Y1208D01*
X1474Y1208D01*
X1474Y1206D01*
X1489Y1206D01*
X1489Y1204D01*
X1490Y1204D01*
X1490Y1200D01*
X1496Y1200D01*
X1496Y1207D01*
X1495Y1207D01*
X1495Y1209D01*
X1494Y1209D01*
X1494Y1210D01*
X1493Y1210D01*
X1493Y1211D01*
X1492Y1211D01*
X1492Y1212D01*
X1490Y1212D01*
X1490Y1213D01*
X1480Y1213D01*
G37*
D02*
G36*
X1519Y1213D02*
X1519Y1212D01*
X1517Y1212D01*
X1517Y1211D01*
X1516Y1211D01*
X1516Y1210D01*
X1514Y1210D01*
X1514Y1209D01*
X1512Y1209D01*
X1512Y1208D01*
X1511Y1208D01*
X1511Y1207D01*
X1509Y1207D01*
X1509Y1206D01*
X1507Y1206D01*
X1507Y1205D01*
X1505Y1205D01*
X1505Y1204D01*
X1504Y1204D01*
X1504Y1203D01*
X1502Y1203D01*
X1502Y1202D01*
X1500Y1202D01*
X1500Y1201D01*
X1499Y1201D01*
X1499Y1200D01*
X1512Y1200D01*
X1512Y1201D01*
X1513Y1201D01*
X1513Y1202D01*
X1515Y1202D01*
X1515Y1203D01*
X1517Y1203D01*
X1517Y1204D01*
X1519Y1204D01*
X1519Y1205D01*
X1520Y1205D01*
X1520Y1206D01*
X1522Y1206D01*
X1522Y1207D01*
X1523Y1207D01*
X1523Y1208D01*
X1524Y1208D01*
X1524Y1212D01*
X1523Y1212D01*
X1523Y1213D01*
X1519Y1213D01*
G37*
D02*
G36*
X1473Y1206D02*
X1473Y1187D01*
X1480Y1187D01*
X1480Y1205D01*
X1481Y1205D01*
X1481Y1206D01*
X1473Y1206D01*
G37*
D02*
G36*
X1490Y1200D02*
X1490Y1199D01*
X1510Y1199D01*
X1510Y1200D01*
X1490Y1200D01*
G37*
D02*
G36*
X1490Y1200D02*
X1490Y1199D01*
X1510Y1199D01*
X1510Y1200D01*
X1490Y1200D01*
G37*
D02*
G36*
X1490Y1199D02*
X1490Y1187D01*
X1496Y1187D01*
X1496Y1191D01*
X1497Y1191D01*
X1497Y1192D01*
X1498Y1192D01*
X1498Y1193D01*
X1500Y1193D01*
X1500Y1194D01*
X1501Y1194D01*
X1501Y1195D01*
X1503Y1195D01*
X1503Y1196D01*
X1505Y1196D01*
X1505Y1197D01*
X1507Y1197D01*
X1507Y1198D01*
X1508Y1198D01*
X1508Y1199D01*
X1490Y1199D01*
G37*
D02*
G36*
X1473Y1187D02*
X1473Y1186D01*
X1523Y1186D01*
X1523Y1187D01*
X1473Y1187D01*
G37*
D02*
G36*
X1473Y1187D02*
X1473Y1186D01*
X1523Y1186D01*
X1523Y1187D01*
X1473Y1187D01*
G37*
D02*
G36*
X1473Y1186D02*
X1473Y1180D01*
X1522Y1180D01*
X1522Y1181D01*
X1523Y1181D01*
X1523Y1182D01*
X1524Y1182D01*
X1524Y1186D01*
X1473Y1186D01*
G37*
D02*
G36*
X1912Y1173D02*
X1912Y1172D01*
X1909Y1172D01*
X1909Y1171D01*
X1908Y1171D01*
X1908Y1169D01*
X1907Y1169D01*
X1907Y1151D01*
X1888Y1151D01*
X1888Y1150D01*
X1887Y1150D01*
X1887Y1148D01*
X1886Y1148D01*
X1886Y1144D01*
X1887Y1144D01*
X1887Y1143D01*
X1888Y1143D01*
X1888Y1142D01*
X1889Y1142D01*
X1889Y1141D01*
X1907Y1141D01*
X1907Y1123D01*
X1908Y1123D01*
X1908Y1122D01*
X1909Y1122D01*
X1909Y1121D01*
X1910Y1121D01*
X1910Y1120D01*
X1915Y1120D01*
X1915Y1121D01*
X1917Y1121D01*
X1917Y1123D01*
X1918Y1123D01*
X1918Y1141D01*
X1936Y1141D01*
X1936Y1142D01*
X1938Y1142D01*
X1938Y1144D01*
X1939Y1144D01*
X1939Y1148D01*
X1938Y1148D01*
X1938Y1150D01*
X1937Y1150D01*
X1937Y1151D01*
X1918Y1151D01*
X1918Y1169D01*
X1917Y1169D01*
X1917Y1171D01*
X1916Y1171D01*
X1916Y1172D01*
X1913Y1172D01*
X1913Y1173D01*
X1912Y1173D01*
G37*
D02*
G36*
X1474Y1163D02*
X1474Y1162D01*
X1473Y1162D01*
X1473Y1137D01*
X1480Y1137D01*
X1480Y1160D01*
X1479Y1160D01*
X1479Y1162D01*
X1478Y1162D01*
X1478Y1163D01*
X1474Y1163D01*
G37*
D02*
G36*
X1519Y1163D02*
X1519Y1162D01*
X1518Y1162D01*
X1518Y1138D01*
X1517Y1138D01*
X1517Y1137D01*
X1524Y1137D01*
X1524Y1162D01*
X1523Y1162D01*
X1523Y1163D01*
X1519Y1163D01*
G37*
D02*
G36*
X1496Y1150D02*
X1496Y1148D01*
X1495Y1148D01*
X1495Y1137D01*
X1502Y1137D01*
X1502Y1149D01*
X1501Y1149D01*
X1501Y1150D01*
X1496Y1150D01*
G37*
D02*
G36*
X1473Y1137D02*
X1473Y1136D01*
X1524Y1136D01*
X1524Y1137D01*
X1473Y1137D01*
G37*
D02*
G36*
X1473Y1137D02*
X1473Y1136D01*
X1524Y1136D01*
X1524Y1137D01*
X1473Y1137D01*
G37*
D02*
G36*
X1473Y1137D02*
X1473Y1136D01*
X1524Y1136D01*
X1524Y1137D01*
X1473Y1137D01*
G37*
D02*
G36*
X1473Y1136D02*
X1473Y1131D01*
X1524Y1131D01*
X1524Y1136D01*
X1473Y1136D01*
G37*
D02*
G36*
X1591Y1161D02*
X1591Y1160D01*
X1590Y1160D01*
X1590Y1159D01*
X1588Y1159D01*
X1588Y1158D01*
X1587Y1158D01*
X1587Y1157D01*
X1586Y1157D01*
X1586Y1156D01*
X1585Y1156D01*
X1585Y1155D01*
X1584Y1155D01*
X1584Y1154D01*
X1583Y1154D01*
X1583Y1153D01*
X1582Y1153D01*
X1582Y1152D01*
X1581Y1152D01*
X1581Y1151D01*
X1580Y1151D01*
X1580Y1150D01*
X1579Y1150D01*
X1579Y1149D01*
X1578Y1149D01*
X1578Y1148D01*
X1577Y1148D01*
X1577Y1147D01*
X1576Y1147D01*
X1576Y1145D01*
X1575Y1145D01*
X1575Y1144D01*
X1574Y1144D01*
X1574Y1142D01*
X1573Y1142D01*
X1573Y1141D01*
X1572Y1141D01*
X1572Y1139D01*
X1571Y1139D01*
X1571Y1138D01*
X1570Y1138D01*
X1570Y1136D01*
X1569Y1136D01*
X1569Y1134D01*
X1568Y1134D01*
X1568Y1132D01*
X1567Y1132D01*
X1567Y1130D01*
X1566Y1130D01*
X1566Y1128D01*
X1565Y1128D01*
X1565Y1125D01*
X1564Y1125D01*
X1564Y1122D01*
X1563Y1122D01*
X1563Y1119D01*
X1562Y1119D01*
X1562Y1115D01*
X1561Y1115D01*
X1561Y1110D01*
X1560Y1110D01*
X1560Y1099D01*
X1559Y1099D01*
X1559Y1096D01*
X1560Y1096D01*
X1560Y1085D01*
X1561Y1085D01*
X1561Y1079D01*
X1562Y1079D01*
X1562Y1076D01*
X1563Y1076D01*
X1563Y1072D01*
X1564Y1072D01*
X1564Y1069D01*
X1565Y1069D01*
X1565Y1067D01*
X1566Y1067D01*
X1566Y1064D01*
X1567Y1064D01*
X1567Y1062D01*
X1568Y1062D01*
X1568Y1060D01*
X1569Y1060D01*
X1569Y1058D01*
X1570Y1058D01*
X1570Y1057D01*
X1571Y1057D01*
X1571Y1055D01*
X1572Y1055D01*
X1572Y1053D01*
X1573Y1053D01*
X1573Y1052D01*
X1574Y1052D01*
X1574Y1051D01*
X1575Y1051D01*
X1575Y1049D01*
X1576Y1049D01*
X1576Y1048D01*
X1577Y1048D01*
X1577Y1047D01*
X1578Y1047D01*
X1578Y1045D01*
X1579Y1045D01*
X1579Y1044D01*
X1580Y1044D01*
X1580Y1043D01*
X1581Y1043D01*
X1581Y1042D01*
X1582Y1042D01*
X1582Y1041D01*
X1583Y1041D01*
X1583Y1040D01*
X1584Y1040D01*
X1584Y1039D01*
X1585Y1039D01*
X1585Y1038D01*
X1586Y1038D01*
X1586Y1037D01*
X1588Y1037D01*
X1588Y1036D01*
X1589Y1036D01*
X1589Y1035D01*
X1590Y1035D01*
X1590Y1034D01*
X1591Y1034D01*
X1591Y1033D01*
X1593Y1033D01*
X1593Y1032D01*
X1594Y1032D01*
X1594Y1031D01*
X1596Y1031D01*
X1596Y1030D01*
X1597Y1030D01*
X1597Y1029D01*
X1599Y1029D01*
X1599Y1028D01*
X1602Y1028D01*
X1602Y1029D01*
X1603Y1029D01*
X1603Y1032D01*
X1602Y1032D01*
X1602Y1033D01*
X1601Y1033D01*
X1601Y1034D01*
X1599Y1034D01*
X1599Y1035D01*
X1597Y1035D01*
X1597Y1036D01*
X1596Y1036D01*
X1596Y1037D01*
X1595Y1037D01*
X1595Y1038D01*
X1593Y1038D01*
X1593Y1039D01*
X1592Y1039D01*
X1592Y1040D01*
X1591Y1040D01*
X1591Y1041D01*
X1590Y1041D01*
X1590Y1042D01*
X1588Y1042D01*
X1588Y1043D01*
X1587Y1043D01*
X1587Y1044D01*
X1586Y1044D01*
X1586Y1045D01*
X1585Y1045D01*
X1585Y1046D01*
X1584Y1046D01*
X1584Y1047D01*
X1583Y1047D01*
X1583Y1049D01*
X1582Y1049D01*
X1582Y1050D01*
X1581Y1050D01*
X1581Y1051D01*
X1580Y1051D01*
X1580Y1052D01*
X1579Y1052D01*
X1579Y1054D01*
X1578Y1054D01*
X1578Y1055D01*
X1577Y1055D01*
X1577Y1056D01*
X1576Y1056D01*
X1576Y1058D01*
X1575Y1058D01*
X1575Y1060D01*
X1574Y1060D01*
X1574Y1061D01*
X1573Y1061D01*
X1573Y1063D01*
X1572Y1063D01*
X1572Y1065D01*
X1571Y1065D01*
X1571Y1067D01*
X1570Y1067D01*
X1570Y1070D01*
X1569Y1070D01*
X1569Y1072D01*
X1568Y1072D01*
X1568Y1076D01*
X1567Y1076D01*
X1567Y1079D01*
X1566Y1079D01*
X1566Y1084D01*
X1565Y1084D01*
X1565Y1091D01*
X1564Y1091D01*
X1564Y1103D01*
X1565Y1103D01*
X1565Y1111D01*
X1566Y1111D01*
X1566Y1115D01*
X1567Y1115D01*
X1567Y1119D01*
X1568Y1119D01*
X1568Y1122D01*
X1569Y1122D01*
X1569Y1124D01*
X1570Y1124D01*
X1570Y1127D01*
X1571Y1127D01*
X1571Y1129D01*
X1572Y1129D01*
X1572Y1131D01*
X1573Y1131D01*
X1573Y1133D01*
X1574Y1133D01*
X1574Y1135D01*
X1575Y1135D01*
X1575Y1136D01*
X1576Y1136D01*
X1576Y1138D01*
X1577Y1138D01*
X1577Y1139D01*
X1578Y1139D01*
X1578Y1141D01*
X1579Y1141D01*
X1579Y1142D01*
X1580Y1142D01*
X1580Y1143D01*
X1581Y1143D01*
X1581Y1145D01*
X1582Y1145D01*
X1582Y1146D01*
X1583Y1146D01*
X1583Y1147D01*
X1584Y1147D01*
X1584Y1148D01*
X1585Y1148D01*
X1585Y1149D01*
X1586Y1149D01*
X1586Y1150D01*
X1587Y1150D01*
X1587Y1151D01*
X1588Y1151D01*
X1588Y1152D01*
X1589Y1152D01*
X1589Y1153D01*
X1590Y1153D01*
X1590Y1154D01*
X1591Y1154D01*
X1591Y1155D01*
X1593Y1155D01*
X1593Y1156D01*
X1594Y1156D01*
X1594Y1157D01*
X1595Y1157D01*
X1595Y1160D01*
X1594Y1160D01*
X1594Y1161D01*
X1591Y1161D01*
G37*
D02*
G36*
X1683Y1161D02*
X1683Y1159D01*
X1682Y1159D01*
X1682Y1158D01*
X1683Y1158D01*
X1683Y1156D01*
X1685Y1156D01*
X1685Y1155D01*
X1686Y1155D01*
X1686Y1154D01*
X1687Y1154D01*
X1687Y1153D01*
X1688Y1153D01*
X1688Y1152D01*
X1689Y1152D01*
X1689Y1151D01*
X1690Y1151D01*
X1690Y1150D01*
X1691Y1150D01*
X1691Y1149D01*
X1692Y1149D01*
X1692Y1148D01*
X1693Y1148D01*
X1693Y1147D01*
X1694Y1147D01*
X1694Y1146D01*
X1695Y1146D01*
X1695Y1145D01*
X1696Y1145D01*
X1696Y1144D01*
X1697Y1144D01*
X1697Y1142D01*
X1698Y1142D01*
X1698Y1141D01*
X1699Y1141D01*
X1699Y1140D01*
X1700Y1140D01*
X1700Y1138D01*
X1701Y1138D01*
X1701Y1137D01*
X1702Y1137D01*
X1702Y1135D01*
X1703Y1135D01*
X1703Y1134D01*
X1704Y1134D01*
X1704Y1132D01*
X1705Y1132D01*
X1705Y1130D01*
X1706Y1130D01*
X1706Y1128D01*
X1707Y1128D01*
X1707Y1125D01*
X1708Y1125D01*
X1708Y1123D01*
X1709Y1123D01*
X1709Y1120D01*
X1710Y1120D01*
X1710Y1116D01*
X1711Y1116D01*
X1711Y1112D01*
X1712Y1112D01*
X1712Y1106D01*
X1713Y1106D01*
X1713Y1089D01*
X1712Y1089D01*
X1712Y1082D01*
X1711Y1082D01*
X1711Y1078D01*
X1710Y1078D01*
X1710Y1075D01*
X1709Y1075D01*
X1709Y1072D01*
X1708Y1072D01*
X1708Y1069D01*
X1707Y1069D01*
X1707Y1067D01*
X1706Y1067D01*
X1706Y1065D01*
X1705Y1065D01*
X1705Y1063D01*
X1704Y1063D01*
X1704Y1061D01*
X1703Y1061D01*
X1703Y1059D01*
X1702Y1059D01*
X1702Y1058D01*
X1701Y1058D01*
X1701Y1056D01*
X1700Y1056D01*
X1700Y1055D01*
X1699Y1055D01*
X1699Y1053D01*
X1698Y1053D01*
X1698Y1052D01*
X1697Y1052D01*
X1697Y1051D01*
X1696Y1051D01*
X1696Y1049D01*
X1695Y1049D01*
X1695Y1048D01*
X1694Y1048D01*
X1694Y1047D01*
X1693Y1047D01*
X1693Y1046D01*
X1692Y1046D01*
X1692Y1045D01*
X1691Y1045D01*
X1691Y1044D01*
X1690Y1044D01*
X1690Y1043D01*
X1689Y1043D01*
X1689Y1042D01*
X1688Y1042D01*
X1688Y1041D01*
X1687Y1041D01*
X1687Y1040D01*
X1685Y1040D01*
X1685Y1039D01*
X1684Y1039D01*
X1684Y1038D01*
X1683Y1038D01*
X1683Y1037D01*
X1681Y1037D01*
X1681Y1036D01*
X1680Y1036D01*
X1680Y1035D01*
X1678Y1035D01*
X1678Y1034D01*
X1677Y1034D01*
X1677Y1033D01*
X1676Y1033D01*
X1676Y1029D01*
X1680Y1029D01*
X1680Y1030D01*
X1682Y1030D01*
X1682Y1031D01*
X1683Y1031D01*
X1683Y1032D01*
X1685Y1032D01*
X1685Y1033D01*
X1686Y1033D01*
X1686Y1034D01*
X1687Y1034D01*
X1687Y1035D01*
X1689Y1035D01*
X1689Y1036D01*
X1690Y1036D01*
X1690Y1037D01*
X1691Y1037D01*
X1691Y1038D01*
X1692Y1038D01*
X1692Y1039D01*
X1693Y1039D01*
X1693Y1040D01*
X1694Y1040D01*
X1694Y1041D01*
X1695Y1041D01*
X1695Y1042D01*
X1696Y1042D01*
X1696Y1043D01*
X1697Y1043D01*
X1697Y1044D01*
X1698Y1044D01*
X1698Y1045D01*
X1699Y1045D01*
X1699Y1046D01*
X1700Y1046D01*
X1700Y1048D01*
X1701Y1048D01*
X1701Y1049D01*
X1702Y1049D01*
X1702Y1050D01*
X1703Y1050D01*
X1703Y1052D01*
X1704Y1052D01*
X1704Y1053D01*
X1705Y1053D01*
X1705Y1055D01*
X1706Y1055D01*
X1706Y1056D01*
X1707Y1056D01*
X1707Y1058D01*
X1708Y1058D01*
X1708Y1060D01*
X1709Y1060D01*
X1709Y1062D01*
X1710Y1062D01*
X1710Y1064D01*
X1711Y1064D01*
X1711Y1066D01*
X1712Y1066D01*
X1712Y1068D01*
X1713Y1068D01*
X1713Y1071D01*
X1714Y1071D01*
X1714Y1074D01*
X1715Y1074D01*
X1715Y1078D01*
X1716Y1078D01*
X1716Y1083D01*
X1717Y1083D01*
X1717Y1090D01*
X1718Y1090D01*
X1718Y1104D01*
X1717Y1104D01*
X1717Y1111D01*
X1716Y1111D01*
X1716Y1116D01*
X1715Y1116D01*
X1715Y1120D01*
X1714Y1120D01*
X1714Y1123D01*
X1713Y1123D01*
X1713Y1126D01*
X1712Y1126D01*
X1712Y1128D01*
X1711Y1128D01*
X1711Y1131D01*
X1710Y1131D01*
X1710Y1133D01*
X1709Y1133D01*
X1709Y1135D01*
X1708Y1135D01*
X1708Y1136D01*
X1707Y1136D01*
X1707Y1138D01*
X1706Y1138D01*
X1706Y1140D01*
X1705Y1140D01*
X1705Y1141D01*
X1704Y1141D01*
X1704Y1143D01*
X1703Y1143D01*
X1703Y1144D01*
X1702Y1144D01*
X1702Y1146D01*
X1701Y1146D01*
X1701Y1147D01*
X1700Y1147D01*
X1700Y1148D01*
X1699Y1148D01*
X1699Y1149D01*
X1698Y1149D01*
X1698Y1150D01*
X1697Y1150D01*
X1697Y1151D01*
X1696Y1151D01*
X1696Y1153D01*
X1695Y1153D01*
X1695Y1154D01*
X1693Y1154D01*
X1693Y1155D01*
X1692Y1155D01*
X1692Y1156D01*
X1691Y1156D01*
X1691Y1157D01*
X1690Y1157D01*
X1690Y1158D01*
X1689Y1158D01*
X1689Y1159D01*
X1688Y1159D01*
X1688Y1160D01*
X1686Y1160D01*
X1686Y1161D01*
X1683Y1161D01*
G37*
D02*
G36*
X1475Y1114D02*
X1475Y1113D01*
X1474Y1113D01*
X1474Y1112D01*
X1473Y1112D01*
X1473Y1109D01*
X1474Y1109D01*
X1474Y1108D01*
X1475Y1108D01*
X1475Y1107D01*
X1516Y1107D01*
X1516Y1106D01*
X1517Y1106D01*
X1517Y1105D01*
X1518Y1105D01*
X1518Y1103D01*
X1517Y1103D01*
X1517Y1102D01*
X1516Y1102D01*
X1516Y1101D01*
X1492Y1101D01*
X1492Y1100D01*
X1490Y1100D01*
X1490Y1095D01*
X1491Y1095D01*
X1491Y1094D01*
X1515Y1094D01*
X1515Y1093D01*
X1517Y1093D01*
X1517Y1092D01*
X1518Y1092D01*
X1518Y1090D01*
X1517Y1090D01*
X1517Y1089D01*
X1516Y1089D01*
X1516Y1088D01*
X1475Y1088D01*
X1475Y1087D01*
X1474Y1087D01*
X1474Y1086D01*
X1473Y1086D01*
X1473Y1083D01*
X1474Y1083D01*
X1474Y1082D01*
X1475Y1082D01*
X1475Y1081D01*
X1517Y1081D01*
X1517Y1082D01*
X1519Y1082D01*
X1519Y1083D01*
X1521Y1083D01*
X1521Y1084D01*
X1522Y1084D01*
X1522Y1085D01*
X1523Y1085D01*
X1523Y1086D01*
X1524Y1086D01*
X1524Y1096D01*
X1523Y1096D01*
X1523Y1097D01*
X1522Y1097D01*
X1522Y1098D01*
X1523Y1098D01*
X1523Y1099D01*
X1524Y1099D01*
X1524Y1109D01*
X1523Y1109D01*
X1523Y1110D01*
X1522Y1110D01*
X1522Y1111D01*
X1520Y1111D01*
X1520Y1112D01*
X1518Y1112D01*
X1518Y1113D01*
X1517Y1113D01*
X1517Y1114D01*
X1475Y1114D01*
G37*
D02*
G36*
X1909Y1073D02*
X1909Y1072D01*
X1907Y1072D01*
X1907Y1070D01*
X1906Y1070D01*
X1906Y1024D01*
X1907Y1024D01*
X1907Y1022D01*
X1908Y1022D01*
X1908Y1021D01*
X1910Y1021D01*
X1910Y1020D01*
X1917Y1020D01*
X1917Y1021D01*
X1919Y1021D01*
X1919Y1022D01*
X1920Y1022D01*
X1920Y1023D01*
X1921Y1023D01*
X1921Y1071D01*
X1920Y1071D01*
X1920Y1072D01*
X1919Y1072D01*
X1919Y1073D01*
X1909Y1073D01*
G37*
D02*
G36*
X1494Y1064D02*
X1494Y1063D01*
X1492Y1063D01*
X1492Y1062D01*
X1490Y1062D01*
X1490Y1061D01*
X1488Y1061D01*
X1488Y1060D01*
X1486Y1060D01*
X1486Y1059D01*
X1484Y1059D01*
X1484Y1058D01*
X1499Y1058D01*
X1499Y1057D01*
X1503Y1057D01*
X1503Y1056D01*
X1505Y1056D01*
X1505Y1055D01*
X1507Y1055D01*
X1507Y1054D01*
X1509Y1054D01*
X1509Y1053D01*
X1511Y1053D01*
X1511Y1052D01*
X1513Y1052D01*
X1513Y1051D01*
X1515Y1051D01*
X1515Y1050D01*
X1517Y1050D01*
X1517Y1048D01*
X1518Y1048D01*
X1518Y1047D01*
X1517Y1047D01*
X1517Y1046D01*
X1516Y1046D01*
X1516Y1045D01*
X1514Y1045D01*
X1514Y1044D01*
X1512Y1044D01*
X1512Y1043D01*
X1510Y1043D01*
X1510Y1042D01*
X1508Y1042D01*
X1508Y1041D01*
X1506Y1041D01*
X1506Y1040D01*
X1503Y1040D01*
X1503Y1039D01*
X1501Y1039D01*
X1501Y1038D01*
X1516Y1038D01*
X1516Y1039D01*
X1518Y1039D01*
X1518Y1040D01*
X1520Y1040D01*
X1520Y1041D01*
X1522Y1041D01*
X1522Y1043D01*
X1523Y1043D01*
X1523Y1044D01*
X1524Y1044D01*
X1524Y1051D01*
X1523Y1051D01*
X1523Y1053D01*
X1522Y1053D01*
X1522Y1054D01*
X1521Y1054D01*
X1521Y1055D01*
X1519Y1055D01*
X1519Y1056D01*
X1517Y1056D01*
X1517Y1057D01*
X1515Y1057D01*
X1515Y1058D01*
X1513Y1058D01*
X1513Y1059D01*
X1511Y1059D01*
X1511Y1060D01*
X1509Y1060D01*
X1509Y1061D01*
X1507Y1061D01*
X1507Y1062D01*
X1505Y1062D01*
X1505Y1063D01*
X1503Y1063D01*
X1503Y1064D01*
X1494Y1064D01*
G37*
D02*
G36*
X1482Y1058D02*
X1482Y1057D01*
X1480Y1057D01*
X1480Y1056D01*
X1478Y1056D01*
X1478Y1055D01*
X1476Y1055D01*
X1476Y1054D01*
X1475Y1054D01*
X1475Y1053D01*
X1474Y1053D01*
X1474Y1051D01*
X1473Y1051D01*
X1473Y1045D01*
X1474Y1045D01*
X1474Y1043D01*
X1475Y1043D01*
X1475Y1042D01*
X1476Y1042D01*
X1476Y1041D01*
X1477Y1041D01*
X1477Y1040D01*
X1479Y1040D01*
X1479Y1039D01*
X1481Y1039D01*
X1481Y1038D01*
X1496Y1038D01*
X1496Y1039D01*
X1494Y1039D01*
X1494Y1040D01*
X1492Y1040D01*
X1492Y1041D01*
X1490Y1041D01*
X1490Y1042D01*
X1488Y1042D01*
X1488Y1043D01*
X1486Y1043D01*
X1486Y1044D01*
X1484Y1044D01*
X1484Y1045D01*
X1482Y1045D01*
X1482Y1046D01*
X1480Y1046D01*
X1480Y1049D01*
X1481Y1049D01*
X1481Y1050D01*
X1483Y1050D01*
X1483Y1051D01*
X1485Y1051D01*
X1485Y1052D01*
X1487Y1052D01*
X1487Y1053D01*
X1489Y1053D01*
X1489Y1054D01*
X1491Y1054D01*
X1491Y1055D01*
X1493Y1055D01*
X1493Y1056D01*
X1495Y1056D01*
X1495Y1057D01*
X1498Y1057D01*
X1498Y1058D01*
X1482Y1058D01*
G37*
D02*
G36*
X1483Y1038D02*
X1483Y1037D01*
X1514Y1037D01*
X1514Y1038D01*
X1483Y1038D01*
G37*
D02*
G36*
X1483Y1038D02*
X1483Y1037D01*
X1514Y1037D01*
X1514Y1038D01*
X1483Y1038D01*
G37*
D02*
G36*
X1485Y1037D02*
X1485Y1036D01*
X1487Y1036D01*
X1487Y1035D01*
X1489Y1035D01*
X1489Y1034D01*
X1491Y1034D01*
X1491Y1033D01*
X1493Y1033D01*
X1493Y1032D01*
X1497Y1032D01*
X1497Y1031D01*
X1500Y1031D01*
X1500Y1032D01*
X1504Y1032D01*
X1504Y1033D01*
X1506Y1033D01*
X1506Y1034D01*
X1508Y1034D01*
X1508Y1035D01*
X1510Y1035D01*
X1510Y1036D01*
X1512Y1036D01*
X1512Y1037D01*
X1485Y1037D01*
G37*
D02*
G36*
X176Y1018D02*
X176Y1017D01*
X174Y1017D01*
X174Y1016D01*
X173Y1016D01*
X173Y1015D01*
X172Y1015D01*
X172Y1014D01*
X171Y1014D01*
X171Y1011D01*
X170Y1011D01*
X170Y987D01*
X146Y987D01*
X146Y986D01*
X143Y986D01*
X143Y985D01*
X142Y985D01*
X142Y984D01*
X141Y984D01*
X141Y983D01*
X140Y983D01*
X140Y981D01*
X139Y981D01*
X139Y976D01*
X140Y976D01*
X140Y974D01*
X141Y974D01*
X141Y973D01*
X142Y973D01*
X142Y972D01*
X143Y972D01*
X143Y971D01*
X170Y971D01*
X170Y946D01*
X171Y946D01*
X171Y943D01*
X172Y943D01*
X172Y942D01*
X173Y942D01*
X173Y941D01*
X174Y941D01*
X174Y940D01*
X176Y940D01*
X176Y939D01*
X180Y939D01*
X180Y940D01*
X183Y940D01*
X183Y941D01*
X184Y941D01*
X184Y942D01*
X185Y942D01*
X185Y944D01*
X186Y944D01*
X186Y970D01*
X187Y970D01*
X187Y971D01*
X213Y971D01*
X213Y972D01*
X215Y972D01*
X215Y973D01*
X216Y973D01*
X216Y975D01*
X217Y975D01*
X217Y977D01*
X218Y977D01*
X218Y980D01*
X217Y980D01*
X217Y983D01*
X216Y983D01*
X216Y984D01*
X215Y984D01*
X215Y985D01*
X214Y985D01*
X214Y986D01*
X210Y986D01*
X210Y987D01*
X186Y987D01*
X186Y1013D01*
X185Y1013D01*
X185Y1015D01*
X184Y1015D01*
X184Y1016D01*
X183Y1016D01*
X183Y1017D01*
X181Y1017D01*
X181Y1018D01*
X176Y1018D01*
G37*
D02*
G36*
X1482Y1015D02*
X1482Y1014D01*
X1478Y1014D01*
X1478Y1013D01*
X1477Y1013D01*
X1477Y1012D01*
X1476Y1012D01*
X1476Y1011D01*
X1475Y1011D01*
X1475Y1010D01*
X1474Y1010D01*
X1474Y1008D01*
X1496Y1008D01*
X1496Y1007D01*
X1497Y1007D01*
X1497Y1006D01*
X1498Y1006D01*
X1498Y988D01*
X1505Y988D01*
X1505Y1006D01*
X1504Y1006D01*
X1504Y1009D01*
X1503Y1009D01*
X1503Y1011D01*
X1502Y1011D01*
X1502Y1012D01*
X1501Y1012D01*
X1501Y1013D01*
X1499Y1013D01*
X1499Y1014D01*
X1496Y1014D01*
X1496Y1015D01*
X1482Y1015D01*
G37*
D02*
G36*
X1473Y1008D02*
X1473Y988D01*
X1480Y988D01*
X1480Y1007D01*
X1481Y1007D01*
X1481Y1008D01*
X1473Y1008D01*
G37*
D02*
G36*
X1473Y988D02*
X1473Y987D01*
X1523Y987D01*
X1523Y988D01*
X1473Y988D01*
G37*
D02*
G36*
X1473Y988D02*
X1473Y987D01*
X1523Y987D01*
X1523Y988D01*
X1473Y988D01*
G37*
D02*
G36*
X1473Y987D02*
X1473Y982D01*
X1523Y982D01*
X1523Y983D01*
X1524Y983D01*
X1524Y987D01*
X1473Y987D01*
G37*
D02*
G36*
X1607Y834D02*
X1607Y827D01*
X1629Y827D01*
X1629Y826D01*
X1631Y826D01*
X1631Y824D01*
X1632Y824D01*
X1632Y822D01*
X1633Y822D01*
X1633Y816D01*
X1632Y816D01*
X1632Y814D01*
X1631Y814D01*
X1631Y813D01*
X1630Y813D01*
X1630Y812D01*
X1627Y812D01*
X1627Y811D01*
X1638Y811D01*
X1638Y813D01*
X1639Y813D01*
X1639Y825D01*
X1638Y825D01*
X1638Y827D01*
X1637Y827D01*
X1637Y829D01*
X1636Y829D01*
X1636Y830D01*
X1635Y830D01*
X1635Y831D01*
X1634Y831D01*
X1634Y832D01*
X1632Y832D01*
X1632Y833D01*
X1629Y833D01*
X1629Y834D01*
X1607Y834D01*
G37*
D02*
G36*
X1607Y827D02*
X1607Y811D01*
X1614Y811D01*
X1614Y812D01*
X1613Y812D01*
X1613Y827D01*
X1607Y827D01*
G37*
D02*
G36*
X1607Y811D02*
X1607Y810D01*
X1637Y810D01*
X1637Y811D01*
X1607Y811D01*
G37*
D02*
G36*
X1607Y811D02*
X1607Y810D01*
X1637Y810D01*
X1637Y811D01*
X1607Y811D01*
G37*
D02*
G36*
X1607Y810D02*
X1607Y805D01*
X1628Y805D01*
X1628Y804D01*
X1630Y804D01*
X1630Y803D01*
X1631Y803D01*
X1631Y802D01*
X1632Y802D01*
X1632Y800D01*
X1633Y800D01*
X1633Y794D01*
X1632Y794D01*
X1632Y792D01*
X1631Y792D01*
X1631Y791D01*
X1630Y791D01*
X1630Y790D01*
X1628Y790D01*
X1628Y789D01*
X1638Y789D01*
X1638Y791D01*
X1639Y791D01*
X1639Y803D01*
X1638Y803D01*
X1638Y805D01*
X1637Y805D01*
X1637Y807D01*
X1636Y807D01*
X1636Y808D01*
X1635Y808D01*
X1635Y809D01*
X1636Y809D01*
X1636Y810D01*
X1607Y810D01*
G37*
D02*
G36*
X1607Y805D02*
X1607Y789D01*
X1613Y789D01*
X1613Y805D01*
X1607Y805D01*
G37*
D02*
G36*
X1607Y789D02*
X1607Y788D01*
X1637Y788D01*
X1637Y789D01*
X1607Y789D01*
G37*
D02*
G36*
X1607Y789D02*
X1607Y788D01*
X1637Y788D01*
X1637Y789D01*
X1607Y789D01*
G37*
D02*
G36*
X1607Y788D02*
X1607Y782D01*
X1627Y782D01*
X1627Y783D01*
X1631Y783D01*
X1631Y784D01*
X1633Y784D01*
X1633Y785D01*
X1635Y785D01*
X1635Y786D01*
X1636Y786D01*
X1636Y787D01*
X1637Y787D01*
X1637Y788D01*
X1607Y788D01*
G37*
D02*
G36*
X1658Y834D02*
X1658Y833D01*
X1657Y833D01*
X1657Y831D01*
X1656Y831D01*
X1656Y783D01*
X1657Y783D01*
X1657Y782D01*
X1686Y782D01*
X1686Y783D01*
X1688Y783D01*
X1688Y784D01*
X1689Y784D01*
X1689Y788D01*
X1688Y788D01*
X1688Y789D01*
X1663Y789D01*
X1663Y832D01*
X1662Y832D01*
X1662Y833D01*
X1661Y833D01*
X1661Y834D01*
X1658Y834D01*
G37*
D02*
G36*
X1708Y834D02*
X1708Y833D01*
X1707Y833D01*
X1707Y832D01*
X1706Y832D01*
X1706Y789D01*
X1714Y789D01*
X1714Y790D01*
X1713Y790D01*
X1713Y831D01*
X1712Y831D01*
X1712Y833D01*
X1711Y833D01*
X1711Y834D01*
X1708Y834D01*
G37*
D02*
G36*
X1734Y834D02*
X1734Y833D01*
X1733Y833D01*
X1733Y832D01*
X1732Y832D01*
X1732Y791D01*
X1731Y791D01*
X1731Y790D01*
X1730Y790D01*
X1730Y789D01*
X1738Y789D01*
X1738Y790D01*
X1739Y790D01*
X1739Y832D01*
X1738Y832D01*
X1738Y833D01*
X1737Y833D01*
X1737Y834D01*
X1734Y834D01*
G37*
D02*
G36*
X1707Y789D02*
X1707Y788D01*
X1738Y788D01*
X1738Y789D01*
X1707Y789D01*
G37*
D02*
G36*
X1707Y789D02*
X1707Y788D01*
X1738Y788D01*
X1738Y789D01*
X1707Y789D01*
G37*
D02*
G36*
X1707Y788D02*
X1707Y787D01*
X1708Y787D01*
X1708Y786D01*
X1709Y786D01*
X1709Y785D01*
X1710Y785D01*
X1710Y784D01*
X1711Y784D01*
X1711Y783D01*
X1715Y783D01*
X1715Y782D01*
X1730Y782D01*
X1730Y783D01*
X1733Y783D01*
X1733Y784D01*
X1735Y784D01*
X1735Y785D01*
X1736Y785D01*
X1736Y786D01*
X1737Y786D01*
X1737Y788D01*
X1707Y788D01*
G37*
D02*
G36*
X1756Y834D02*
X1756Y782D01*
X1786Y782D01*
X1786Y783D01*
X1787Y783D01*
X1787Y784D01*
X1788Y784D01*
X1788Y788D01*
X1787Y788D01*
X1787Y789D01*
X1762Y789D01*
X1762Y805D01*
X1774Y805D01*
X1774Y806D01*
X1775Y806D01*
X1775Y810D01*
X1774Y810D01*
X1774Y811D01*
X1763Y811D01*
X1763Y812D01*
X1762Y812D01*
X1762Y827D01*
X1786Y827D01*
X1786Y828D01*
X1788Y828D01*
X1788Y833D01*
X1786Y833D01*
X1786Y834D01*
X1756Y834D01*
G37*
D02*
G36*
X580Y832D02*
X580Y831D01*
X579Y831D01*
X579Y830D01*
X578Y830D01*
X578Y821D01*
X579Y821D01*
X579Y819D01*
X580Y819D01*
X580Y818D01*
X581Y818D01*
X581Y817D01*
X582Y817D01*
X582Y815D01*
X583Y815D01*
X583Y814D01*
X584Y814D01*
X584Y813D01*
X585Y813D01*
X585Y812D01*
X593Y812D01*
X593Y814D01*
X592Y814D01*
X592Y815D01*
X591Y815D01*
X591Y816D01*
X590Y816D01*
X590Y817D01*
X589Y817D01*
X589Y819D01*
X588Y819D01*
X588Y820D01*
X587Y820D01*
X587Y821D01*
X586Y821D01*
X586Y822D01*
X585Y822D01*
X585Y824D01*
X584Y824D01*
X584Y831D01*
X582Y831D01*
X582Y832D01*
X580Y832D01*
G37*
D02*
G36*
X606Y832D02*
X606Y831D01*
X605Y831D01*
X605Y830D01*
X604Y830D01*
X604Y824D01*
X603Y824D01*
X603Y822D01*
X602Y822D01*
X602Y821D01*
X601Y821D01*
X601Y820D01*
X600Y820D01*
X600Y818D01*
X599Y818D01*
X599Y817D01*
X598Y817D01*
X598Y816D01*
X597Y816D01*
X597Y815D01*
X596Y815D01*
X596Y813D01*
X595Y813D01*
X595Y812D01*
X603Y812D01*
X603Y813D01*
X604Y813D01*
X604Y814D01*
X605Y814D01*
X605Y815D01*
X606Y815D01*
X606Y817D01*
X607Y817D01*
X607Y818D01*
X608Y818D01*
X608Y819D01*
X609Y819D01*
X609Y820D01*
X610Y820D01*
X610Y822D01*
X611Y822D01*
X611Y825D01*
X610Y825D01*
X610Y831D01*
X608Y831D01*
X608Y832D01*
X606Y832D01*
G37*
D02*
G36*
X586Y812D02*
X586Y811D01*
X603Y811D01*
X603Y812D01*
X586Y812D01*
G37*
D02*
G36*
X586Y812D02*
X586Y811D01*
X603Y811D01*
X603Y812D01*
X586Y812D01*
G37*
D02*
G36*
X586Y811D02*
X586Y810D01*
X587Y810D01*
X587Y809D01*
X588Y809D01*
X588Y808D01*
X589Y808D01*
X589Y807D01*
X590Y807D01*
X590Y805D01*
X591Y805D01*
X591Y782D01*
X592Y782D01*
X592Y781D01*
X593Y781D01*
X593Y780D01*
X595Y780D01*
X595Y781D01*
X597Y781D01*
X597Y805D01*
X598Y805D01*
X598Y806D01*
X599Y806D01*
X599Y808D01*
X600Y808D01*
X600Y809D01*
X601Y809D01*
X601Y810D01*
X602Y810D01*
X602Y811D01*
X586Y811D01*
G37*
D02*
G36*
X628Y832D02*
X628Y831D01*
X627Y831D01*
X627Y781D01*
X628Y781D01*
X628Y780D01*
X658Y780D01*
X658Y781D01*
X659Y781D01*
X659Y782D01*
X660Y782D01*
X660Y786D01*
X659Y786D01*
X659Y787D01*
X634Y787D01*
X634Y803D01*
X646Y803D01*
X646Y804D01*
X647Y804D01*
X647Y808D01*
X646Y808D01*
X646Y809D01*
X634Y809D01*
X634Y825D01*
X658Y825D01*
X658Y826D01*
X659Y826D01*
X659Y827D01*
X660Y827D01*
X660Y830D01*
X659Y830D01*
X659Y831D01*
X658Y831D01*
X658Y832D01*
X628Y832D01*
G37*
D02*
G36*
X679Y832D02*
X679Y831D01*
X678Y831D01*
X678Y830D01*
X677Y830D01*
X677Y780D01*
X707Y780D01*
X707Y781D01*
X709Y781D01*
X709Y782D01*
X710Y782D01*
X710Y785D01*
X709Y785D01*
X709Y786D01*
X708Y786D01*
X708Y787D01*
X684Y787D01*
X684Y829D01*
X683Y829D01*
X683Y831D01*
X681Y831D01*
X681Y832D01*
X679Y832D01*
G37*
D02*
G36*
X729Y832D02*
X729Y831D01*
X727Y831D01*
X727Y780D01*
X757Y780D01*
X757Y781D01*
X759Y781D01*
X759Y786D01*
X758Y786D01*
X758Y787D01*
X733Y787D01*
X733Y830D01*
X732Y830D01*
X732Y831D01*
X731Y831D01*
X731Y832D01*
X729Y832D01*
G37*
D02*
G36*
X791Y832D02*
X791Y831D01*
X788Y831D01*
X788Y830D01*
X787Y830D01*
X787Y829D01*
X786Y829D01*
X786Y828D01*
X785Y828D01*
X785Y826D01*
X784Y826D01*
X784Y825D01*
X794Y825D01*
X794Y824D01*
X795Y824D01*
X795Y822D01*
X796Y822D01*
X796Y820D01*
X797Y820D01*
X797Y818D01*
X798Y818D01*
X798Y816D01*
X799Y816D01*
X799Y814D01*
X800Y814D01*
X800Y812D01*
X801Y812D01*
X801Y810D01*
X802Y810D01*
X802Y802D01*
X801Y802D01*
X801Y800D01*
X800Y800D01*
X800Y798D01*
X799Y798D01*
X799Y796D01*
X798Y796D01*
X798Y794D01*
X797Y794D01*
X797Y792D01*
X796Y792D01*
X796Y790D01*
X795Y790D01*
X795Y788D01*
X794Y788D01*
X794Y787D01*
X802Y787D01*
X802Y789D01*
X803Y789D01*
X803Y791D01*
X804Y791D01*
X804Y793D01*
X805Y793D01*
X805Y795D01*
X806Y795D01*
X806Y797D01*
X807Y797D01*
X807Y799D01*
X808Y799D01*
X808Y802D01*
X809Y802D01*
X809Y810D01*
X808Y810D01*
X808Y813D01*
X807Y813D01*
X807Y815D01*
X806Y815D01*
X806Y817D01*
X805Y817D01*
X805Y819D01*
X804Y819D01*
X804Y821D01*
X803Y821D01*
X803Y823D01*
X802Y823D01*
X802Y825D01*
X801Y825D01*
X801Y827D01*
X800Y827D01*
X800Y828D01*
X799Y828D01*
X799Y829D01*
X798Y829D01*
X798Y830D01*
X797Y830D01*
X797Y831D01*
X795Y831D01*
X795Y832D01*
X791Y832D01*
G37*
D02*
G36*
X784Y825D02*
X784Y824D01*
X783Y824D01*
X783Y822D01*
X782Y822D01*
X782Y820D01*
X781Y820D01*
X781Y818D01*
X780Y818D01*
X780Y816D01*
X779Y816D01*
X779Y814D01*
X778Y814D01*
X778Y812D01*
X777Y812D01*
X777Y809D01*
X776Y809D01*
X776Y803D01*
X777Y803D01*
X777Y800D01*
X778Y800D01*
X778Y798D01*
X779Y798D01*
X779Y796D01*
X780Y796D01*
X780Y794D01*
X781Y794D01*
X781Y792D01*
X782Y792D01*
X782Y790D01*
X783Y790D01*
X783Y788D01*
X784Y788D01*
X784Y787D01*
X791Y787D01*
X791Y789D01*
X790Y789D01*
X790Y791D01*
X789Y791D01*
X789Y793D01*
X788Y793D01*
X788Y795D01*
X787Y795D01*
X787Y797D01*
X786Y797D01*
X786Y799D01*
X785Y799D01*
X785Y801D01*
X784Y801D01*
X784Y803D01*
X783Y803D01*
X783Y809D01*
X784Y809D01*
X784Y811D01*
X785Y811D01*
X785Y813D01*
X786Y813D01*
X786Y815D01*
X787Y815D01*
X787Y817D01*
X788Y817D01*
X788Y819D01*
X789Y819D01*
X789Y821D01*
X790Y821D01*
X790Y823D01*
X791Y823D01*
X791Y825D01*
X784Y825D01*
G37*
D02*
G36*
X784Y787D02*
X784Y786D01*
X801Y786D01*
X801Y787D01*
X784Y787D01*
G37*
D02*
G36*
X784Y787D02*
X784Y786D01*
X801Y786D01*
X801Y787D01*
X784Y787D01*
G37*
D02*
G36*
X785Y786D02*
X785Y784D01*
X786Y784D01*
X786Y783D01*
X787Y783D01*
X787Y782D01*
X788Y782D01*
X788Y781D01*
X791Y781D01*
X791Y780D01*
X794Y780D01*
X794Y781D01*
X797Y781D01*
X797Y782D01*
X798Y782D01*
X798Y783D01*
X799Y783D01*
X799Y784D01*
X800Y784D01*
X800Y785D01*
X801Y785D01*
X801Y786D01*
X785Y786D01*
G37*
D02*
G36*
X828Y832D02*
X828Y831D01*
X827Y831D01*
X827Y830D01*
X826Y830D01*
X826Y787D01*
X834Y787D01*
X834Y789D01*
X833Y789D01*
X833Y829D01*
X832Y829D01*
X832Y831D01*
X830Y831D01*
X830Y832D01*
X828Y832D01*
G37*
D02*
G36*
X854Y832D02*
X854Y831D01*
X853Y831D01*
X853Y830D01*
X852Y830D01*
X852Y789D01*
X851Y789D01*
X851Y788D01*
X850Y788D01*
X850Y787D01*
X858Y787D01*
X858Y788D01*
X859Y788D01*
X859Y830D01*
X858Y830D01*
X858Y831D01*
X857Y831D01*
X857Y832D01*
X854Y832D01*
G37*
D02*
G36*
X841Y815D02*
X841Y814D01*
X840Y814D01*
X840Y813D01*
X839Y813D01*
X839Y789D01*
X838Y789D01*
X838Y788D01*
X837Y788D01*
X837Y787D01*
X847Y787D01*
X847Y789D01*
X846Y789D01*
X846Y812D01*
X845Y812D01*
X845Y814D01*
X844Y814D01*
X844Y815D01*
X841Y815D01*
G37*
D02*
G36*
X827Y787D02*
X827Y786D01*
X858Y786D01*
X858Y787D01*
X827Y787D01*
G37*
D02*
G36*
X827Y787D02*
X827Y786D01*
X858Y786D01*
X858Y787D01*
X827Y787D01*
G37*
D02*
G36*
X827Y787D02*
X827Y786D01*
X858Y786D01*
X858Y787D01*
X827Y787D01*
G37*
D02*
G36*
X828Y786D02*
X828Y784D01*
X829Y784D01*
X829Y782D01*
X843Y782D01*
X843Y781D01*
X845Y781D01*
X845Y780D01*
X853Y780D01*
X853Y781D01*
X855Y781D01*
X855Y783D01*
X856Y783D01*
X856Y785D01*
X857Y785D01*
X857Y786D01*
X828Y786D01*
G37*
D02*
G36*
X830Y782D02*
X830Y781D01*
X832Y781D01*
X832Y780D01*
X840Y780D01*
X840Y781D01*
X841Y781D01*
X841Y782D01*
X830Y782D01*
G37*
D02*
G36*
X179Y831D02*
X179Y825D01*
X203Y825D01*
X203Y824D01*
X204Y824D01*
X204Y823D01*
X205Y823D01*
X205Y816D01*
X204Y816D01*
X204Y815D01*
X212Y815D01*
X212Y824D01*
X211Y824D01*
X211Y826D01*
X210Y826D01*
X210Y828D01*
X209Y828D01*
X209Y829D01*
X208Y829D01*
X208Y830D01*
X206Y830D01*
X206Y831D01*
X179Y831D01*
G37*
D02*
G36*
X179Y825D02*
X179Y815D01*
X186Y815D01*
X186Y825D01*
X179Y825D01*
G37*
D02*
G36*
X179Y815D02*
X179Y814D01*
X211Y814D01*
X211Y815D01*
X179Y815D01*
G37*
D02*
G36*
X179Y815D02*
X179Y814D01*
X211Y814D01*
X211Y815D01*
X179Y815D01*
G37*
D02*
G36*
X179Y814D02*
X179Y808D01*
X191Y808D01*
X191Y806D01*
X192Y806D01*
X192Y804D01*
X193Y804D01*
X193Y802D01*
X194Y802D01*
X194Y801D01*
X195Y801D01*
X195Y799D01*
X196Y799D01*
X196Y797D01*
X197Y797D01*
X197Y796D01*
X198Y796D01*
X198Y794D01*
X199Y794D01*
X199Y792D01*
X200Y792D01*
X200Y790D01*
X201Y790D01*
X201Y789D01*
X202Y789D01*
X202Y787D01*
X203Y787D01*
X203Y785D01*
X204Y785D01*
X204Y784D01*
X205Y784D01*
X205Y782D01*
X206Y782D01*
X206Y781D01*
X207Y781D01*
X207Y780D01*
X210Y780D01*
X210Y781D01*
X211Y781D01*
X211Y782D01*
X212Y782D01*
X212Y785D01*
X211Y785D01*
X211Y786D01*
X210Y786D01*
X210Y788D01*
X209Y788D01*
X209Y790D01*
X208Y790D01*
X208Y792D01*
X207Y792D01*
X207Y793D01*
X206Y793D01*
X206Y795D01*
X205Y795D01*
X205Y797D01*
X204Y797D01*
X204Y799D01*
X203Y799D01*
X203Y800D01*
X202Y800D01*
X202Y802D01*
X201Y802D01*
X201Y804D01*
X200Y804D01*
X200Y805D01*
X199Y805D01*
X199Y807D01*
X198Y807D01*
X198Y808D01*
X205Y808D01*
X205Y809D01*
X207Y809D01*
X207Y810D01*
X208Y810D01*
X208Y811D01*
X209Y811D01*
X209Y812D01*
X210Y812D01*
X210Y813D01*
X211Y813D01*
X211Y814D01*
X179Y814D01*
G37*
D02*
G36*
X179Y808D02*
X179Y782D01*
X180Y782D01*
X180Y781D01*
X181Y781D01*
X181Y780D01*
X184Y780D01*
X184Y781D01*
X185Y781D01*
X185Y782D01*
X186Y782D01*
X186Y808D01*
X179Y808D01*
G37*
D02*
G36*
X229Y831D02*
X229Y780D01*
X260Y780D01*
X260Y781D01*
X261Y781D01*
X261Y786D01*
X259Y786D01*
X259Y787D01*
X235Y787D01*
X235Y802D01*
X246Y802D01*
X246Y803D01*
X248Y803D01*
X248Y808D01*
X247Y808D01*
X247Y809D01*
X235Y809D01*
X235Y824D01*
X236Y824D01*
X236Y825D01*
X260Y825D01*
X260Y826D01*
X261Y826D01*
X261Y830D01*
X260Y830D01*
X260Y831D01*
X229Y831D01*
G37*
D02*
G36*
X279Y831D02*
X279Y829D01*
X278Y829D01*
X278Y827D01*
X279Y827D01*
X279Y826D01*
X280Y826D01*
X280Y825D01*
X295Y825D01*
X295Y824D01*
X296Y824D01*
X296Y823D01*
X297Y823D01*
X297Y822D01*
X298Y822D01*
X298Y820D01*
X299Y820D01*
X299Y818D01*
X300Y818D01*
X300Y816D01*
X301Y816D01*
X301Y814D01*
X302Y814D01*
X302Y812D01*
X303Y812D01*
X303Y810D01*
X304Y810D01*
X304Y802D01*
X303Y802D01*
X303Y800D01*
X302Y800D01*
X302Y798D01*
X301Y798D01*
X301Y796D01*
X300Y796D01*
X300Y794D01*
X299Y794D01*
X299Y792D01*
X298Y792D01*
X298Y790D01*
X297Y790D01*
X297Y788D01*
X296Y788D01*
X296Y787D01*
X304Y787D01*
X304Y789D01*
X305Y789D01*
X305Y791D01*
X306Y791D01*
X306Y793D01*
X307Y793D01*
X307Y795D01*
X308Y795D01*
X308Y797D01*
X309Y797D01*
X309Y799D01*
X310Y799D01*
X310Y801D01*
X311Y801D01*
X311Y810D01*
X310Y810D01*
X310Y812D01*
X309Y812D01*
X309Y815D01*
X308Y815D01*
X308Y817D01*
X307Y817D01*
X307Y819D01*
X306Y819D01*
X306Y820D01*
X305Y820D01*
X305Y822D01*
X304Y822D01*
X304Y824D01*
X303Y824D01*
X303Y826D01*
X302Y826D01*
X302Y828D01*
X301Y828D01*
X301Y829D01*
X300Y829D01*
X300Y830D01*
X298Y830D01*
X298Y831D01*
X279Y831D01*
G37*
D02*
G36*
X285Y825D02*
X285Y787D01*
X292Y787D01*
X292Y825D01*
X285Y825D01*
G37*
D02*
G36*
X281Y787D02*
X281Y786D01*
X303Y786D01*
X303Y787D01*
X281Y787D01*
G37*
D02*
G36*
X281Y787D02*
X281Y786D01*
X303Y786D01*
X303Y787D01*
X281Y787D01*
G37*
D02*
G36*
X279Y786D02*
X279Y784D01*
X278Y784D01*
X278Y782D01*
X279Y782D01*
X279Y781D01*
X280Y781D01*
X280Y780D01*
X297Y780D01*
X297Y781D01*
X299Y781D01*
X299Y782D01*
X300Y782D01*
X300Y783D01*
X301Y783D01*
X301Y784D01*
X302Y784D01*
X302Y785D01*
X303Y785D01*
X303Y786D01*
X279Y786D01*
G37*
D02*
G36*
X1105Y830D02*
X1105Y829D01*
X1102Y829D01*
X1102Y828D01*
X1100Y828D01*
X1100Y827D01*
X1099Y827D01*
X1099Y826D01*
X1098Y826D01*
X1098Y825D01*
X1097Y825D01*
X1097Y823D01*
X1096Y823D01*
X1096Y822D01*
X1095Y822D01*
X1095Y821D01*
X1094Y821D01*
X1094Y820D01*
X1093Y820D01*
X1093Y818D01*
X1092Y818D01*
X1092Y817D01*
X1091Y817D01*
X1091Y816D01*
X1090Y816D01*
X1090Y814D01*
X1089Y814D01*
X1089Y813D01*
X1088Y813D01*
X1088Y811D01*
X1087Y811D01*
X1087Y785D01*
X1095Y785D01*
X1095Y786D01*
X1094Y786D01*
X1094Y787D01*
X1093Y787D01*
X1093Y808D01*
X1094Y808D01*
X1094Y810D01*
X1095Y810D01*
X1095Y811D01*
X1096Y811D01*
X1096Y813D01*
X1097Y813D01*
X1097Y814D01*
X1098Y814D01*
X1098Y815D01*
X1099Y815D01*
X1099Y816D01*
X1100Y816D01*
X1100Y818D01*
X1101Y818D01*
X1101Y819D01*
X1102Y819D01*
X1102Y820D01*
X1103Y820D01*
X1103Y822D01*
X1105Y822D01*
X1105Y823D01*
X1118Y823D01*
X1118Y824D01*
X1119Y824D01*
X1119Y828D01*
X1118Y828D01*
X1118Y829D01*
X1117Y829D01*
X1117Y830D01*
X1105Y830D01*
G37*
D02*
G36*
X1105Y802D02*
X1105Y801D01*
X1104Y801D01*
X1104Y800D01*
X1103Y800D01*
X1103Y797D01*
X1104Y797D01*
X1104Y796D01*
X1105Y796D01*
X1105Y795D01*
X1113Y795D01*
X1113Y787D01*
X1112Y787D01*
X1112Y786D01*
X1111Y786D01*
X1111Y785D01*
X1119Y785D01*
X1119Y802D01*
X1105Y802D01*
G37*
D02*
G36*
X1087Y785D02*
X1087Y784D01*
X1119Y784D01*
X1119Y785D01*
X1087Y785D01*
G37*
D02*
G36*
X1087Y785D02*
X1087Y784D01*
X1119Y784D01*
X1119Y785D01*
X1087Y785D01*
G37*
D02*
G36*
X1088Y784D02*
X1088Y782D01*
X1089Y782D01*
X1089Y781D01*
X1090Y781D01*
X1090Y780D01*
X1092Y780D01*
X1092Y779D01*
X1094Y779D01*
X1094Y778D01*
X1111Y778D01*
X1111Y779D01*
X1114Y779D01*
X1114Y780D01*
X1116Y780D01*
X1116Y781D01*
X1117Y781D01*
X1117Y782D01*
X1118Y782D01*
X1118Y784D01*
X1088Y784D01*
G37*
D02*
G36*
X1137Y830D02*
X1137Y829D01*
X1136Y829D01*
X1136Y823D01*
X1161Y823D01*
X1161Y822D01*
X1162Y822D01*
X1162Y814D01*
X1161Y814D01*
X1161Y813D01*
X1169Y813D01*
X1169Y823D01*
X1168Y823D01*
X1168Y825D01*
X1167Y825D01*
X1167Y826D01*
X1166Y826D01*
X1166Y827D01*
X1165Y827D01*
X1165Y828D01*
X1164Y828D01*
X1164Y829D01*
X1161Y829D01*
X1161Y830D01*
X1137Y830D01*
G37*
D02*
G36*
X1136Y823D02*
X1136Y813D01*
X1143Y813D01*
X1143Y823D01*
X1136Y823D01*
G37*
D02*
G36*
X1136Y813D02*
X1136Y812D01*
X1168Y812D01*
X1168Y813D01*
X1136Y813D01*
G37*
D02*
G36*
X1136Y813D02*
X1136Y812D01*
X1168Y812D01*
X1168Y813D01*
X1136Y813D01*
G37*
D02*
G36*
X1136Y812D02*
X1136Y806D01*
X1148Y806D01*
X1148Y804D01*
X1149Y804D01*
X1149Y803D01*
X1150Y803D01*
X1150Y801D01*
X1151Y801D01*
X1151Y799D01*
X1152Y799D01*
X1152Y798D01*
X1153Y798D01*
X1153Y796D01*
X1154Y796D01*
X1154Y794D01*
X1155Y794D01*
X1155Y792D01*
X1156Y792D01*
X1156Y791D01*
X1157Y791D01*
X1157Y789D01*
X1158Y789D01*
X1158Y787D01*
X1159Y787D01*
X1159Y786D01*
X1160Y786D01*
X1160Y784D01*
X1161Y784D01*
X1161Y782D01*
X1162Y782D01*
X1162Y780D01*
X1163Y780D01*
X1163Y779D01*
X1165Y779D01*
X1165Y778D01*
X1167Y778D01*
X1167Y779D01*
X1168Y779D01*
X1168Y780D01*
X1169Y780D01*
X1169Y783D01*
X1168Y783D01*
X1168Y785D01*
X1167Y785D01*
X1167Y787D01*
X1166Y787D01*
X1166Y788D01*
X1165Y788D01*
X1165Y790D01*
X1164Y790D01*
X1164Y792D01*
X1163Y792D01*
X1163Y794D01*
X1162Y794D01*
X1162Y795D01*
X1161Y795D01*
X1161Y797D01*
X1160Y797D01*
X1160Y799D01*
X1159Y799D01*
X1159Y800D01*
X1158Y800D01*
X1158Y802D01*
X1157Y802D01*
X1157Y804D01*
X1156Y804D01*
X1156Y806D01*
X1161Y806D01*
X1161Y807D01*
X1164Y807D01*
X1164Y808D01*
X1165Y808D01*
X1165Y809D01*
X1166Y809D01*
X1166Y810D01*
X1167Y810D01*
X1167Y811D01*
X1168Y811D01*
X1168Y812D01*
X1136Y812D01*
G37*
D02*
G36*
X1136Y806D02*
X1136Y780D01*
X1137Y780D01*
X1137Y779D01*
X1138Y779D01*
X1138Y778D01*
X1141Y778D01*
X1141Y779D01*
X1142Y779D01*
X1142Y780D01*
X1143Y780D01*
X1143Y806D01*
X1136Y806D01*
G37*
D02*
G36*
X1186Y830D02*
X1186Y778D01*
X1216Y778D01*
X1216Y779D01*
X1218Y779D01*
X1218Y781D01*
X1219Y781D01*
X1219Y782D01*
X1218Y782D01*
X1218Y784D01*
X1217Y784D01*
X1217Y785D01*
X1193Y785D01*
X1193Y801D01*
X1204Y801D01*
X1204Y802D01*
X1205Y802D01*
X1205Y806D01*
X1204Y806D01*
X1204Y807D01*
X1193Y807D01*
X1193Y823D01*
X1217Y823D01*
X1217Y824D01*
X1218Y824D01*
X1218Y826D01*
X1219Y826D01*
X1219Y827D01*
X1218Y827D01*
X1218Y829D01*
X1216Y829D01*
X1216Y830D01*
X1186Y830D01*
G37*
D02*
G36*
X1236Y830D02*
X1236Y829D01*
X1235Y829D01*
X1235Y779D01*
X1236Y779D01*
X1236Y778D01*
X1266Y778D01*
X1266Y779D01*
X1267Y779D01*
X1267Y780D01*
X1268Y780D01*
X1268Y784D01*
X1266Y784D01*
X1266Y785D01*
X1242Y785D01*
X1242Y801D01*
X1254Y801D01*
X1254Y802D01*
X1255Y802D01*
X1255Y806D01*
X1254Y806D01*
X1254Y807D01*
X1242Y807D01*
X1242Y823D01*
X1267Y823D01*
X1267Y824D01*
X1268Y824D01*
X1268Y828D01*
X1267Y828D01*
X1267Y829D01*
X1266Y829D01*
X1266Y830D01*
X1236Y830D01*
G37*
D02*
G36*
X1285Y830D02*
X1285Y816D01*
X1293Y816D01*
X1293Y814D01*
X1294Y814D01*
X1294Y812D01*
X1295Y812D01*
X1295Y809D01*
X1296Y809D01*
X1296Y807D01*
X1297Y807D01*
X1297Y805D01*
X1298Y805D01*
X1298Y803D01*
X1299Y803D01*
X1299Y800D01*
X1300Y800D01*
X1300Y798D01*
X1301Y798D01*
X1301Y796D01*
X1302Y796D01*
X1302Y793D01*
X1303Y793D01*
X1303Y792D01*
X1310Y792D01*
X1310Y794D01*
X1309Y794D01*
X1309Y796D01*
X1308Y796D01*
X1308Y799D01*
X1307Y799D01*
X1307Y801D01*
X1306Y801D01*
X1306Y803D01*
X1305Y803D01*
X1305Y805D01*
X1304Y805D01*
X1304Y808D01*
X1303Y808D01*
X1303Y810D01*
X1302Y810D01*
X1302Y812D01*
X1301Y812D01*
X1301Y815D01*
X1300Y815D01*
X1300Y817D01*
X1299Y817D01*
X1299Y819D01*
X1298Y819D01*
X1298Y821D01*
X1297Y821D01*
X1297Y824D01*
X1296Y824D01*
X1296Y826D01*
X1295Y826D01*
X1295Y828D01*
X1294Y828D01*
X1294Y830D01*
X1285Y830D01*
G37*
D02*
G36*
X1314Y830D02*
X1314Y829D01*
X1312Y829D01*
X1312Y827D01*
X1311Y827D01*
X1311Y792D01*
X1318Y792D01*
X1318Y828D01*
X1317Y828D01*
X1317Y829D01*
X1315Y829D01*
X1315Y830D01*
X1314Y830D01*
G37*
D02*
G36*
X1285Y816D02*
X1285Y780D01*
X1286Y780D01*
X1286Y779D01*
X1287Y779D01*
X1287Y778D01*
X1290Y778D01*
X1290Y779D01*
X1291Y779D01*
X1291Y780D01*
X1292Y780D01*
X1292Y816D01*
X1285Y816D01*
G37*
D02*
G36*
X1303Y792D02*
X1303Y791D01*
X1318Y791D01*
X1318Y792D01*
X1303Y792D01*
G37*
D02*
G36*
X1303Y792D02*
X1303Y791D01*
X1318Y791D01*
X1318Y792D01*
X1303Y792D01*
G37*
D02*
G36*
X1304Y791D02*
X1304Y789D01*
X1305Y789D01*
X1305Y787D01*
X1306Y787D01*
X1306Y784D01*
X1307Y784D01*
X1307Y782D01*
X1308Y782D01*
X1308Y780D01*
X1309Y780D01*
X1309Y778D01*
X1318Y778D01*
X1318Y791D01*
X1304Y791D01*
G37*
D02*
G36*
X1684Y767D02*
X1684Y766D01*
X1678Y766D01*
X1678Y765D01*
X1674Y765D01*
X1674Y764D01*
X1670Y764D01*
X1670Y763D01*
X1667Y763D01*
X1667Y762D01*
X1706Y762D01*
X1706Y761D01*
X1711Y761D01*
X1711Y760D01*
X1714Y760D01*
X1714Y759D01*
X1718Y759D01*
X1718Y758D01*
X1720Y758D01*
X1720Y757D01*
X1723Y757D01*
X1723Y756D01*
X1725Y756D01*
X1725Y755D01*
X1727Y755D01*
X1727Y754D01*
X1729Y754D01*
X1729Y753D01*
X1731Y753D01*
X1731Y752D01*
X1733Y752D01*
X1733Y751D01*
X1734Y751D01*
X1734Y750D01*
X1736Y750D01*
X1736Y749D01*
X1737Y749D01*
X1737Y748D01*
X1738Y748D01*
X1738Y747D01*
X1740Y747D01*
X1740Y746D01*
X1741Y746D01*
X1741Y745D01*
X1742Y745D01*
X1742Y744D01*
X1743Y744D01*
X1743Y743D01*
X1744Y743D01*
X1744Y742D01*
X1746Y742D01*
X1746Y741D01*
X1747Y741D01*
X1747Y740D01*
X1748Y740D01*
X1748Y738D01*
X1749Y738D01*
X1749Y737D01*
X1750Y737D01*
X1750Y736D01*
X1751Y736D01*
X1751Y735D01*
X1752Y735D01*
X1752Y734D01*
X1753Y734D01*
X1753Y732D01*
X1754Y732D01*
X1754Y731D01*
X1755Y731D01*
X1755Y730D01*
X1756Y730D01*
X1756Y728D01*
X1757Y728D01*
X1757Y727D01*
X1758Y727D01*
X1758Y725D01*
X1761Y725D01*
X1761Y726D01*
X1762Y726D01*
X1762Y730D01*
X1761Y730D01*
X1761Y731D01*
X1760Y731D01*
X1760Y733D01*
X1759Y733D01*
X1759Y734D01*
X1758Y734D01*
X1758Y736D01*
X1757Y736D01*
X1757Y737D01*
X1756Y737D01*
X1756Y738D01*
X1755Y738D01*
X1755Y739D01*
X1754Y739D01*
X1754Y741D01*
X1753Y741D01*
X1753Y742D01*
X1752Y742D01*
X1752Y743D01*
X1751Y743D01*
X1751Y744D01*
X1750Y744D01*
X1750Y745D01*
X1749Y745D01*
X1749Y746D01*
X1748Y746D01*
X1748Y747D01*
X1747Y747D01*
X1747Y748D01*
X1745Y748D01*
X1745Y749D01*
X1744Y749D01*
X1744Y750D01*
X1743Y750D01*
X1743Y751D01*
X1742Y751D01*
X1742Y752D01*
X1740Y752D01*
X1740Y753D01*
X1739Y753D01*
X1739Y754D01*
X1737Y754D01*
X1737Y755D01*
X1736Y755D01*
X1736Y756D01*
X1734Y756D01*
X1734Y757D01*
X1732Y757D01*
X1732Y758D01*
X1730Y758D01*
X1730Y759D01*
X1728Y759D01*
X1728Y760D01*
X1726Y760D01*
X1726Y761D01*
X1724Y761D01*
X1724Y762D01*
X1721Y762D01*
X1721Y763D01*
X1718Y763D01*
X1718Y764D01*
X1715Y764D01*
X1715Y765D01*
X1711Y765D01*
X1711Y766D01*
X1705Y766D01*
X1705Y767D01*
X1684Y767D01*
G37*
D02*
G36*
X1664Y762D02*
X1664Y761D01*
X1662Y761D01*
X1662Y760D01*
X1660Y760D01*
X1660Y759D01*
X1658Y759D01*
X1658Y758D01*
X1656Y758D01*
X1656Y757D01*
X1654Y757D01*
X1654Y756D01*
X1652Y756D01*
X1652Y755D01*
X1651Y755D01*
X1651Y754D01*
X1649Y754D01*
X1649Y753D01*
X1648Y753D01*
X1648Y752D01*
X1646Y752D01*
X1646Y751D01*
X1645Y751D01*
X1645Y750D01*
X1644Y750D01*
X1644Y749D01*
X1643Y749D01*
X1643Y748D01*
X1641Y748D01*
X1641Y747D01*
X1640Y747D01*
X1640Y746D01*
X1639Y746D01*
X1639Y745D01*
X1638Y745D01*
X1638Y744D01*
X1637Y744D01*
X1637Y743D01*
X1636Y743D01*
X1636Y742D01*
X1635Y742D01*
X1635Y740D01*
X1634Y740D01*
X1634Y739D01*
X1633Y739D01*
X1633Y738D01*
X1632Y738D01*
X1632Y737D01*
X1631Y737D01*
X1631Y736D01*
X1630Y736D01*
X1630Y720D01*
X1631Y720D01*
X1631Y719D01*
X1634Y719D01*
X1634Y720D01*
X1635Y720D01*
X1635Y734D01*
X1636Y734D01*
X1636Y735D01*
X1637Y735D01*
X1637Y736D01*
X1638Y736D01*
X1638Y737D01*
X1639Y737D01*
X1639Y738D01*
X1640Y738D01*
X1640Y739D01*
X1641Y739D01*
X1641Y741D01*
X1642Y741D01*
X1642Y742D01*
X1644Y742D01*
X1644Y743D01*
X1645Y743D01*
X1645Y744D01*
X1646Y744D01*
X1646Y745D01*
X1647Y745D01*
X1647Y746D01*
X1648Y746D01*
X1648Y747D01*
X1649Y747D01*
X1649Y748D01*
X1651Y748D01*
X1651Y749D01*
X1652Y749D01*
X1652Y750D01*
X1654Y750D01*
X1654Y751D01*
X1655Y751D01*
X1655Y752D01*
X1657Y752D01*
X1657Y753D01*
X1659Y753D01*
X1659Y754D01*
X1661Y754D01*
X1661Y755D01*
X1663Y755D01*
X1663Y756D01*
X1665Y756D01*
X1665Y757D01*
X1667Y757D01*
X1667Y758D01*
X1670Y758D01*
X1670Y759D01*
X1673Y759D01*
X1673Y760D01*
X1677Y760D01*
X1677Y761D01*
X1682Y761D01*
X1682Y762D01*
X1664Y762D01*
G37*
D02*
G36*
X697Y765D02*
X697Y764D01*
X690Y764D01*
X690Y763D01*
X685Y763D01*
X685Y762D01*
X682Y762D01*
X682Y761D01*
X678Y761D01*
X678Y760D01*
X713Y760D01*
X713Y759D01*
X719Y759D01*
X719Y758D01*
X723Y758D01*
X723Y757D01*
X727Y757D01*
X727Y756D01*
X730Y756D01*
X730Y755D01*
X732Y755D01*
X732Y754D01*
X734Y754D01*
X734Y753D01*
X737Y753D01*
X737Y752D01*
X739Y752D01*
X739Y751D01*
X740Y751D01*
X740Y750D01*
X742Y750D01*
X742Y749D01*
X744Y749D01*
X744Y748D01*
X745Y748D01*
X745Y747D01*
X747Y747D01*
X747Y746D01*
X748Y746D01*
X748Y745D01*
X750Y745D01*
X750Y744D01*
X751Y744D01*
X751Y743D01*
X752Y743D01*
X752Y742D01*
X753Y742D01*
X753Y741D01*
X754Y741D01*
X754Y740D01*
X755Y740D01*
X755Y739D01*
X756Y739D01*
X756Y738D01*
X757Y738D01*
X757Y737D01*
X758Y737D01*
X758Y736D01*
X759Y736D01*
X759Y735D01*
X760Y735D01*
X760Y734D01*
X761Y734D01*
X761Y733D01*
X762Y733D01*
X762Y732D01*
X763Y732D01*
X763Y730D01*
X764Y730D01*
X764Y729D01*
X765Y729D01*
X765Y728D01*
X766Y728D01*
X766Y726D01*
X767Y726D01*
X767Y725D01*
X768Y725D01*
X768Y723D01*
X772Y723D01*
X772Y724D01*
X773Y724D01*
X773Y726D01*
X772Y726D01*
X772Y728D01*
X771Y728D01*
X771Y729D01*
X770Y729D01*
X770Y731D01*
X769Y731D01*
X769Y732D01*
X768Y732D01*
X768Y734D01*
X767Y734D01*
X767Y735D01*
X766Y735D01*
X766Y736D01*
X765Y736D01*
X765Y737D01*
X764Y737D01*
X764Y738D01*
X763Y738D01*
X763Y740D01*
X762Y740D01*
X762Y741D01*
X761Y741D01*
X761Y742D01*
X760Y742D01*
X760Y743D01*
X759Y743D01*
X759Y744D01*
X758Y744D01*
X758Y745D01*
X756Y745D01*
X756Y746D01*
X755Y746D01*
X755Y747D01*
X754Y747D01*
X754Y748D01*
X753Y748D01*
X753Y749D01*
X751Y749D01*
X751Y750D01*
X750Y750D01*
X750Y751D01*
X749Y751D01*
X749Y752D01*
X747Y752D01*
X747Y753D01*
X745Y753D01*
X745Y754D01*
X744Y754D01*
X744Y755D01*
X742Y755D01*
X742Y756D01*
X740Y756D01*
X740Y757D01*
X738Y757D01*
X738Y758D01*
X736Y758D01*
X736Y759D01*
X733Y759D01*
X733Y760D01*
X730Y760D01*
X730Y761D01*
X727Y761D01*
X727Y762D01*
X724Y762D01*
X724Y763D01*
X719Y763D01*
X719Y764D01*
X712Y764D01*
X712Y765D01*
X697Y765D01*
G37*
D02*
G36*
X676Y760D02*
X676Y759D01*
X673Y759D01*
X673Y758D01*
X671Y758D01*
X671Y757D01*
X669Y757D01*
X669Y756D01*
X667Y756D01*
X667Y755D01*
X665Y755D01*
X665Y754D01*
X663Y754D01*
X663Y753D01*
X662Y753D01*
X662Y752D01*
X660Y752D01*
X660Y751D01*
X659Y751D01*
X659Y750D01*
X657Y750D01*
X657Y749D01*
X656Y749D01*
X656Y748D01*
X655Y748D01*
X655Y747D01*
X653Y747D01*
X653Y746D01*
X652Y746D01*
X652Y745D01*
X651Y745D01*
X651Y744D01*
X650Y744D01*
X650Y743D01*
X649Y743D01*
X649Y742D01*
X648Y742D01*
X648Y741D01*
X647Y741D01*
X647Y740D01*
X646Y740D01*
X646Y739D01*
X645Y739D01*
X645Y738D01*
X644Y738D01*
X644Y737D01*
X643Y737D01*
X643Y735D01*
X642Y735D01*
X642Y734D01*
X641Y734D01*
X641Y733D01*
X640Y733D01*
X640Y718D01*
X641Y718D01*
X641Y717D01*
X642Y717D01*
X642Y716D01*
X643Y716D01*
X643Y717D01*
X645Y717D01*
X645Y731D01*
X646Y731D01*
X646Y732D01*
X647Y732D01*
X647Y733D01*
X648Y733D01*
X648Y735D01*
X649Y735D01*
X649Y736D01*
X650Y736D01*
X650Y737D01*
X651Y737D01*
X651Y738D01*
X652Y738D01*
X652Y739D01*
X653Y739D01*
X653Y740D01*
X654Y740D01*
X654Y741D01*
X655Y741D01*
X655Y742D01*
X657Y742D01*
X657Y743D01*
X658Y743D01*
X658Y744D01*
X659Y744D01*
X659Y745D01*
X660Y745D01*
X660Y746D01*
X662Y746D01*
X662Y747D01*
X663Y747D01*
X663Y748D01*
X665Y748D01*
X665Y749D01*
X666Y749D01*
X666Y750D01*
X668Y750D01*
X668Y751D01*
X670Y751D01*
X670Y752D01*
X672Y752D01*
X672Y753D01*
X674Y753D01*
X674Y754D01*
X676Y754D01*
X676Y755D01*
X679Y755D01*
X679Y756D01*
X682Y756D01*
X682Y757D01*
X685Y757D01*
X685Y758D01*
X689Y758D01*
X689Y759D01*
X695Y759D01*
X695Y760D01*
X676Y760D01*
G37*
D02*
G36*
X1194Y764D02*
X1194Y763D01*
X1186Y763D01*
X1186Y762D01*
X1182Y762D01*
X1182Y761D01*
X1178Y761D01*
X1178Y760D01*
X1175Y760D01*
X1175Y759D01*
X1209Y759D01*
X1209Y758D01*
X1216Y758D01*
X1216Y757D01*
X1220Y757D01*
X1220Y756D01*
X1223Y756D01*
X1223Y755D01*
X1226Y755D01*
X1226Y754D01*
X1229Y754D01*
X1229Y753D01*
X1231Y753D01*
X1231Y752D01*
X1233Y752D01*
X1233Y751D01*
X1235Y751D01*
X1235Y750D01*
X1237Y750D01*
X1237Y749D01*
X1239Y749D01*
X1239Y748D01*
X1240Y748D01*
X1240Y747D01*
X1242Y747D01*
X1242Y746D01*
X1243Y746D01*
X1243Y745D01*
X1245Y745D01*
X1245Y744D01*
X1246Y744D01*
X1246Y743D01*
X1247Y743D01*
X1247Y742D01*
X1248Y742D01*
X1248Y741D01*
X1250Y741D01*
X1250Y740D01*
X1251Y740D01*
X1251Y739D01*
X1252Y739D01*
X1252Y738D01*
X1253Y738D01*
X1253Y737D01*
X1254Y737D01*
X1254Y736D01*
X1255Y736D01*
X1255Y735D01*
X1256Y735D01*
X1256Y734D01*
X1257Y734D01*
X1257Y733D01*
X1258Y733D01*
X1258Y731D01*
X1259Y731D01*
X1259Y730D01*
X1260Y730D01*
X1260Y729D01*
X1261Y729D01*
X1261Y727D01*
X1262Y727D01*
X1262Y726D01*
X1263Y726D01*
X1263Y724D01*
X1264Y724D01*
X1264Y723D01*
X1265Y723D01*
X1265Y722D01*
X1269Y722D01*
X1269Y726D01*
X1268Y726D01*
X1268Y728D01*
X1267Y728D01*
X1267Y729D01*
X1266Y729D01*
X1266Y731D01*
X1265Y731D01*
X1265Y732D01*
X1264Y732D01*
X1264Y733D01*
X1263Y733D01*
X1263Y735D01*
X1262Y735D01*
X1262Y736D01*
X1261Y736D01*
X1261Y737D01*
X1260Y737D01*
X1260Y738D01*
X1259Y738D01*
X1259Y739D01*
X1258Y739D01*
X1258Y740D01*
X1257Y740D01*
X1257Y741D01*
X1256Y741D01*
X1256Y742D01*
X1255Y742D01*
X1255Y743D01*
X1254Y743D01*
X1254Y744D01*
X1253Y744D01*
X1253Y745D01*
X1252Y745D01*
X1252Y746D01*
X1250Y746D01*
X1250Y747D01*
X1249Y747D01*
X1249Y748D01*
X1248Y748D01*
X1248Y749D01*
X1246Y749D01*
X1246Y750D01*
X1245Y750D01*
X1245Y751D01*
X1243Y751D01*
X1243Y752D01*
X1242Y752D01*
X1242Y753D01*
X1240Y753D01*
X1240Y754D01*
X1238Y754D01*
X1238Y755D01*
X1236Y755D01*
X1236Y756D01*
X1234Y756D01*
X1234Y757D01*
X1232Y757D01*
X1232Y758D01*
X1230Y758D01*
X1230Y759D01*
X1227Y759D01*
X1227Y760D01*
X1224Y760D01*
X1224Y761D01*
X1220Y761D01*
X1220Y762D01*
X1215Y762D01*
X1215Y763D01*
X1208Y763D01*
X1208Y764D01*
X1194Y764D01*
G37*
D02*
G36*
X1172Y759D02*
X1172Y758D01*
X1170Y758D01*
X1170Y757D01*
X1167Y757D01*
X1167Y756D01*
X1165Y756D01*
X1165Y755D01*
X1163Y755D01*
X1163Y754D01*
X1162Y754D01*
X1162Y753D01*
X1160Y753D01*
X1160Y752D01*
X1158Y752D01*
X1158Y751D01*
X1157Y751D01*
X1157Y750D01*
X1155Y750D01*
X1155Y749D01*
X1154Y749D01*
X1154Y748D01*
X1152Y748D01*
X1152Y747D01*
X1151Y747D01*
X1151Y746D01*
X1150Y746D01*
X1150Y745D01*
X1149Y745D01*
X1149Y744D01*
X1148Y744D01*
X1148Y743D01*
X1146Y743D01*
X1146Y742D01*
X1145Y742D01*
X1145Y741D01*
X1144Y741D01*
X1144Y740D01*
X1143Y740D01*
X1143Y739D01*
X1142Y739D01*
X1142Y737D01*
X1141Y737D01*
X1141Y736D01*
X1140Y736D01*
X1140Y735D01*
X1139Y735D01*
X1139Y734D01*
X1138Y734D01*
X1138Y733D01*
X1137Y733D01*
X1137Y716D01*
X1139Y716D01*
X1139Y715D01*
X1140Y715D01*
X1140Y716D01*
X1141Y716D01*
X1141Y717D01*
X1142Y717D01*
X1142Y731D01*
X1143Y731D01*
X1143Y732D01*
X1144Y732D01*
X1144Y733D01*
X1145Y733D01*
X1145Y734D01*
X1146Y734D01*
X1146Y735D01*
X1147Y735D01*
X1147Y736D01*
X1148Y736D01*
X1148Y737D01*
X1149Y737D01*
X1149Y738D01*
X1150Y738D01*
X1150Y739D01*
X1151Y739D01*
X1151Y740D01*
X1152Y740D01*
X1152Y741D01*
X1153Y741D01*
X1153Y742D01*
X1154Y742D01*
X1154Y743D01*
X1155Y743D01*
X1155Y744D01*
X1157Y744D01*
X1157Y745D01*
X1158Y745D01*
X1158Y746D01*
X1160Y746D01*
X1160Y747D01*
X1161Y747D01*
X1161Y748D01*
X1163Y748D01*
X1163Y749D01*
X1164Y749D01*
X1164Y750D01*
X1166Y750D01*
X1166Y751D01*
X1168Y751D01*
X1168Y752D01*
X1170Y752D01*
X1170Y753D01*
X1173Y753D01*
X1173Y754D01*
X1175Y754D01*
X1175Y755D01*
X1178Y755D01*
X1178Y756D01*
X1182Y756D01*
X1182Y757D01*
X1186Y757D01*
X1186Y758D01*
X1192Y758D01*
X1192Y759D01*
X1172Y759D01*
G37*
D02*
G36*
X229Y762D02*
X229Y761D01*
X223Y761D01*
X223Y760D01*
X218Y760D01*
X218Y759D01*
X215Y759D01*
X215Y758D01*
X212Y758D01*
X212Y757D01*
X251Y757D01*
X251Y756D01*
X256Y756D01*
X256Y755D01*
X259Y755D01*
X259Y754D01*
X263Y754D01*
X263Y753D01*
X265Y753D01*
X265Y752D01*
X268Y752D01*
X268Y751D01*
X270Y751D01*
X270Y750D01*
X272Y750D01*
X272Y749D01*
X274Y749D01*
X274Y748D01*
X276Y748D01*
X276Y747D01*
X278Y747D01*
X278Y746D01*
X279Y746D01*
X279Y745D01*
X281Y745D01*
X281Y744D01*
X282Y744D01*
X282Y743D01*
X283Y743D01*
X283Y742D01*
X285Y742D01*
X285Y741D01*
X286Y741D01*
X286Y740D01*
X287Y740D01*
X287Y739D01*
X288Y739D01*
X288Y738D01*
X289Y738D01*
X289Y737D01*
X291Y737D01*
X291Y736D01*
X292Y736D01*
X292Y735D01*
X293Y735D01*
X293Y734D01*
X294Y734D01*
X294Y732D01*
X295Y732D01*
X295Y731D01*
X296Y731D01*
X296Y730D01*
X297Y730D01*
X297Y729D01*
X298Y729D01*
X298Y728D01*
X299Y728D01*
X299Y726D01*
X300Y726D01*
X300Y725D01*
X301Y725D01*
X301Y723D01*
X302Y723D01*
X302Y722D01*
X303Y722D01*
X303Y720D01*
X306Y720D01*
X306Y721D01*
X307Y721D01*
X307Y725D01*
X306Y725D01*
X306Y726D01*
X305Y726D01*
X305Y728D01*
X304Y728D01*
X304Y729D01*
X303Y729D01*
X303Y731D01*
X302Y731D01*
X302Y732D01*
X301Y732D01*
X301Y733D01*
X300Y733D01*
X300Y734D01*
X299Y734D01*
X299Y736D01*
X298Y736D01*
X298Y737D01*
X297Y737D01*
X297Y738D01*
X296Y738D01*
X296Y739D01*
X295Y739D01*
X295Y740D01*
X294Y740D01*
X294Y741D01*
X293Y741D01*
X293Y742D01*
X292Y742D01*
X292Y743D01*
X290Y743D01*
X290Y744D01*
X289Y744D01*
X289Y745D01*
X288Y745D01*
X288Y746D01*
X287Y746D01*
X287Y747D01*
X285Y747D01*
X285Y748D01*
X284Y748D01*
X284Y749D01*
X282Y749D01*
X282Y750D01*
X281Y750D01*
X281Y751D01*
X279Y751D01*
X279Y752D01*
X277Y752D01*
X277Y753D01*
X275Y753D01*
X275Y754D01*
X273Y754D01*
X273Y755D01*
X271Y755D01*
X271Y756D01*
X269Y756D01*
X269Y757D01*
X266Y757D01*
X266Y758D01*
X263Y758D01*
X263Y759D01*
X260Y759D01*
X260Y760D01*
X256Y760D01*
X256Y761D01*
X250Y761D01*
X250Y762D01*
X229Y762D01*
G37*
D02*
G36*
X209Y757D02*
X209Y756D01*
X207Y756D01*
X207Y755D01*
X205Y755D01*
X205Y754D01*
X203Y754D01*
X203Y753D01*
X201Y753D01*
X201Y752D01*
X199Y752D01*
X199Y751D01*
X197Y751D01*
X197Y750D01*
X196Y750D01*
X196Y749D01*
X194Y749D01*
X194Y748D01*
X193Y748D01*
X193Y747D01*
X191Y747D01*
X191Y746D01*
X190Y746D01*
X190Y745D01*
X189Y745D01*
X189Y744D01*
X188Y744D01*
X188Y743D01*
X186Y743D01*
X186Y742D01*
X185Y742D01*
X185Y741D01*
X184Y741D01*
X184Y740D01*
X183Y740D01*
X183Y739D01*
X182Y739D01*
X182Y738D01*
X181Y738D01*
X181Y737D01*
X180Y737D01*
X180Y735D01*
X179Y735D01*
X179Y734D01*
X178Y734D01*
X178Y733D01*
X177Y733D01*
X177Y732D01*
X176Y732D01*
X176Y731D01*
X175Y731D01*
X175Y715D01*
X176Y715D01*
X176Y714D01*
X179Y714D01*
X179Y715D01*
X180Y715D01*
X180Y729D01*
X181Y729D01*
X181Y730D01*
X182Y730D01*
X182Y731D01*
X183Y731D01*
X183Y732D01*
X184Y732D01*
X184Y733D01*
X185Y733D01*
X185Y734D01*
X186Y734D01*
X186Y736D01*
X187Y736D01*
X187Y737D01*
X189Y737D01*
X189Y738D01*
X190Y738D01*
X190Y739D01*
X191Y739D01*
X191Y740D01*
X192Y740D01*
X192Y741D01*
X193Y741D01*
X193Y742D01*
X194Y742D01*
X194Y743D01*
X196Y743D01*
X196Y744D01*
X197Y744D01*
X197Y745D01*
X199Y745D01*
X199Y746D01*
X200Y746D01*
X200Y747D01*
X202Y747D01*
X202Y748D01*
X204Y748D01*
X204Y749D01*
X206Y749D01*
X206Y750D01*
X208Y750D01*
X208Y751D01*
X210Y751D01*
X210Y752D01*
X212Y752D01*
X212Y753D01*
X215Y753D01*
X215Y754D01*
X218Y754D01*
X218Y755D01*
X222Y755D01*
X222Y756D01*
X227Y756D01*
X227Y757D01*
X209Y757D01*
G37*
D02*
G36*
X1893Y700D02*
X1893Y699D01*
X1892Y699D01*
X1892Y698D01*
X1891Y698D01*
X1891Y696D01*
X1920Y696D01*
X1920Y683D01*
X1924Y683D01*
X1924Y698D01*
X1923Y698D01*
X1923Y699D01*
X1922Y699D01*
X1922Y700D01*
X1893Y700D01*
G37*
D02*
G36*
X1891Y696D02*
X1891Y683D01*
X1895Y683D01*
X1895Y696D01*
X1891Y696D01*
G37*
D02*
G36*
X1891Y683D02*
X1891Y682D01*
X1924Y682D01*
X1924Y683D01*
X1891Y683D01*
G37*
D02*
G36*
X1891Y683D02*
X1891Y682D01*
X1924Y682D01*
X1924Y683D01*
X1891Y683D01*
G37*
D02*
G36*
X1891Y682D02*
X1891Y681D01*
X1892Y681D01*
X1892Y680D01*
X1893Y680D01*
X1893Y679D01*
X1922Y679D01*
X1922Y680D01*
X1923Y680D01*
X1923Y681D01*
X1924Y681D01*
X1924Y682D01*
X1891Y682D01*
G37*
D02*
G36*
X1912Y662D02*
X1912Y661D01*
X1911Y661D01*
X1911Y654D01*
X1912Y654D01*
X1912Y653D01*
X1918Y653D01*
X1918Y654D01*
X1919Y654D01*
X1919Y661D01*
X1917Y661D01*
X1917Y662D01*
X1912Y662D01*
G37*
D02*
G36*
X1631Y657D02*
X1631Y656D01*
X1630Y656D01*
X1630Y641D01*
X1631Y641D01*
X1631Y639D01*
X1632Y639D01*
X1632Y638D01*
X1633Y638D01*
X1633Y637D01*
X1634Y637D01*
X1634Y636D01*
X1635Y636D01*
X1635Y635D01*
X1636Y635D01*
X1636Y633D01*
X1637Y633D01*
X1637Y632D01*
X1638Y632D01*
X1638Y631D01*
X1639Y631D01*
X1639Y630D01*
X1641Y630D01*
X1641Y629D01*
X1642Y629D01*
X1642Y628D01*
X1643Y628D01*
X1643Y627D01*
X1644Y627D01*
X1644Y626D01*
X1645Y626D01*
X1645Y625D01*
X1647Y625D01*
X1647Y624D01*
X1648Y624D01*
X1648Y623D01*
X1649Y623D01*
X1649Y622D01*
X1651Y622D01*
X1651Y621D01*
X1652Y621D01*
X1652Y620D01*
X1654Y620D01*
X1654Y619D01*
X1656Y619D01*
X1656Y618D01*
X1658Y618D01*
X1658Y617D01*
X1660Y617D01*
X1660Y616D01*
X1662Y616D01*
X1662Y615D01*
X1664Y615D01*
X1664Y614D01*
X1683Y614D01*
X1683Y615D01*
X1678Y615D01*
X1678Y616D01*
X1674Y616D01*
X1674Y617D01*
X1671Y617D01*
X1671Y618D01*
X1668Y618D01*
X1668Y619D01*
X1665Y619D01*
X1665Y620D01*
X1663Y620D01*
X1663Y621D01*
X1661Y621D01*
X1661Y622D01*
X1659Y622D01*
X1659Y623D01*
X1657Y623D01*
X1657Y624D01*
X1656Y624D01*
X1656Y625D01*
X1654Y625D01*
X1654Y626D01*
X1653Y626D01*
X1653Y627D01*
X1651Y627D01*
X1651Y628D01*
X1650Y628D01*
X1650Y629D01*
X1648Y629D01*
X1648Y630D01*
X1647Y630D01*
X1647Y631D01*
X1646Y631D01*
X1646Y632D01*
X1645Y632D01*
X1645Y633D01*
X1644Y633D01*
X1644Y634D01*
X1643Y634D01*
X1643Y635D01*
X1642Y635D01*
X1642Y636D01*
X1641Y636D01*
X1641Y637D01*
X1640Y637D01*
X1640Y638D01*
X1639Y638D01*
X1639Y639D01*
X1638Y639D01*
X1638Y640D01*
X1637Y640D01*
X1637Y641D01*
X1636Y641D01*
X1636Y642D01*
X1635Y642D01*
X1635Y656D01*
X1634Y656D01*
X1634Y657D01*
X1631Y657D01*
G37*
D02*
G36*
X1759Y652D02*
X1759Y651D01*
X1758Y651D01*
X1758Y650D01*
X1757Y650D01*
X1757Y648D01*
X1756Y648D01*
X1756Y646D01*
X1755Y646D01*
X1755Y645D01*
X1754Y645D01*
X1754Y644D01*
X1753Y644D01*
X1753Y642D01*
X1752Y642D01*
X1752Y641D01*
X1751Y641D01*
X1751Y640D01*
X1750Y640D01*
X1750Y639D01*
X1749Y639D01*
X1749Y638D01*
X1748Y638D01*
X1748Y637D01*
X1747Y637D01*
X1747Y636D01*
X1746Y636D01*
X1746Y635D01*
X1745Y635D01*
X1745Y634D01*
X1744Y634D01*
X1744Y633D01*
X1743Y633D01*
X1743Y632D01*
X1742Y632D01*
X1742Y631D01*
X1741Y631D01*
X1741Y630D01*
X1740Y630D01*
X1740Y629D01*
X1738Y629D01*
X1738Y628D01*
X1737Y628D01*
X1737Y627D01*
X1736Y627D01*
X1736Y626D01*
X1734Y626D01*
X1734Y625D01*
X1732Y625D01*
X1732Y624D01*
X1731Y624D01*
X1731Y623D01*
X1729Y623D01*
X1729Y622D01*
X1727Y622D01*
X1727Y621D01*
X1725Y621D01*
X1725Y620D01*
X1723Y620D01*
X1723Y619D01*
X1720Y619D01*
X1720Y618D01*
X1717Y618D01*
X1717Y617D01*
X1714Y617D01*
X1714Y616D01*
X1710Y616D01*
X1710Y615D01*
X1705Y615D01*
X1705Y614D01*
X1723Y614D01*
X1723Y615D01*
X1726Y615D01*
X1726Y616D01*
X1728Y616D01*
X1728Y617D01*
X1730Y617D01*
X1730Y618D01*
X1732Y618D01*
X1732Y619D01*
X1734Y619D01*
X1734Y620D01*
X1735Y620D01*
X1735Y621D01*
X1737Y621D01*
X1737Y622D01*
X1739Y622D01*
X1739Y623D01*
X1740Y623D01*
X1740Y624D01*
X1741Y624D01*
X1741Y625D01*
X1743Y625D01*
X1743Y626D01*
X1744Y626D01*
X1744Y627D01*
X1745Y627D01*
X1745Y628D01*
X1746Y628D01*
X1746Y629D01*
X1747Y629D01*
X1747Y630D01*
X1749Y630D01*
X1749Y631D01*
X1750Y631D01*
X1750Y632D01*
X1751Y632D01*
X1751Y633D01*
X1752Y633D01*
X1752Y634D01*
X1753Y634D01*
X1753Y636D01*
X1754Y636D01*
X1754Y637D01*
X1755Y637D01*
X1755Y638D01*
X1756Y638D01*
X1756Y639D01*
X1757Y639D01*
X1757Y640D01*
X1758Y640D01*
X1758Y642D01*
X1759Y642D01*
X1759Y643D01*
X1760Y643D01*
X1760Y645D01*
X1761Y645D01*
X1761Y646D01*
X1762Y646D01*
X1762Y648D01*
X1763Y648D01*
X1763Y651D01*
X1762Y651D01*
X1762Y652D01*
X1759Y652D01*
G37*
D02*
G36*
X1667Y614D02*
X1667Y613D01*
X1721Y613D01*
X1721Y614D01*
X1667Y614D01*
G37*
D02*
G36*
X1667Y614D02*
X1667Y613D01*
X1721Y613D01*
X1721Y614D01*
X1667Y614D01*
G37*
D02*
G36*
X1670Y613D02*
X1670Y612D01*
X1674Y612D01*
X1674Y611D01*
X1678Y611D01*
X1678Y610D01*
X1684Y610D01*
X1684Y609D01*
X1703Y609D01*
X1703Y610D01*
X1710Y610D01*
X1710Y611D01*
X1714Y611D01*
X1714Y612D01*
X1718Y612D01*
X1718Y613D01*
X1670Y613D01*
G37*
D02*
G36*
X642Y655D02*
X642Y654D01*
X641Y654D01*
X641Y653D01*
X640Y653D01*
X640Y639D01*
X641Y639D01*
X641Y637D01*
X642Y637D01*
X642Y636D01*
X643Y636D01*
X643Y635D01*
X644Y635D01*
X644Y634D01*
X645Y634D01*
X645Y632D01*
X646Y632D01*
X646Y631D01*
X647Y631D01*
X647Y630D01*
X648Y630D01*
X648Y629D01*
X649Y629D01*
X649Y628D01*
X650Y628D01*
X650Y627D01*
X651Y627D01*
X651Y626D01*
X653Y626D01*
X653Y625D01*
X654Y625D01*
X654Y624D01*
X655Y624D01*
X655Y623D01*
X656Y623D01*
X656Y622D01*
X658Y622D01*
X658Y621D01*
X659Y621D01*
X659Y620D01*
X661Y620D01*
X661Y619D01*
X662Y619D01*
X662Y618D01*
X664Y618D01*
X664Y617D01*
X666Y617D01*
X666Y616D01*
X667Y616D01*
X667Y615D01*
X669Y615D01*
X669Y614D01*
X671Y614D01*
X671Y613D01*
X674Y613D01*
X674Y612D01*
X676Y612D01*
X676Y611D01*
X699Y611D01*
X699Y612D01*
X691Y612D01*
X691Y613D01*
X686Y613D01*
X686Y614D01*
X683Y614D01*
X683Y615D01*
X680Y615D01*
X680Y616D01*
X677Y616D01*
X677Y617D01*
X675Y617D01*
X675Y618D01*
X673Y618D01*
X673Y619D01*
X671Y619D01*
X671Y620D01*
X669Y620D01*
X669Y621D01*
X667Y621D01*
X667Y622D01*
X665Y622D01*
X665Y623D01*
X664Y623D01*
X664Y624D01*
X662Y624D01*
X662Y625D01*
X661Y625D01*
X661Y626D01*
X660Y626D01*
X660Y627D01*
X658Y627D01*
X658Y628D01*
X657Y628D01*
X657Y629D01*
X656Y629D01*
X656Y630D01*
X655Y630D01*
X655Y631D01*
X654Y631D01*
X654Y632D01*
X653Y632D01*
X653Y633D01*
X652Y633D01*
X652Y634D01*
X651Y634D01*
X651Y635D01*
X650Y635D01*
X650Y636D01*
X649Y636D01*
X649Y637D01*
X648Y637D01*
X648Y638D01*
X647Y638D01*
X647Y639D01*
X646Y639D01*
X646Y640D01*
X645Y640D01*
X645Y654D01*
X644Y654D01*
X644Y655D01*
X642Y655D01*
G37*
D02*
G36*
X770Y650D02*
X770Y649D01*
X769Y649D01*
X769Y648D01*
X768Y648D01*
X768Y647D01*
X767Y647D01*
X767Y645D01*
X766Y645D01*
X766Y644D01*
X765Y644D01*
X765Y642D01*
X764Y642D01*
X764Y641D01*
X763Y641D01*
X763Y640D01*
X762Y640D01*
X762Y638D01*
X761Y638D01*
X761Y637D01*
X760Y637D01*
X760Y636D01*
X759Y636D01*
X759Y635D01*
X758Y635D01*
X758Y634D01*
X757Y634D01*
X757Y633D01*
X756Y633D01*
X756Y632D01*
X755Y632D01*
X755Y631D01*
X754Y631D01*
X754Y630D01*
X753Y630D01*
X753Y629D01*
X752Y629D01*
X752Y628D01*
X750Y628D01*
X750Y627D01*
X749Y627D01*
X749Y626D01*
X748Y626D01*
X748Y625D01*
X746Y625D01*
X746Y624D01*
X745Y624D01*
X745Y623D01*
X743Y623D01*
X743Y622D01*
X742Y622D01*
X742Y621D01*
X740Y621D01*
X740Y620D01*
X738Y620D01*
X738Y619D01*
X736Y619D01*
X736Y618D01*
X734Y618D01*
X734Y617D01*
X732Y617D01*
X732Y616D01*
X729Y616D01*
X729Y615D01*
X726Y615D01*
X726Y614D01*
X722Y614D01*
X722Y613D01*
X718Y613D01*
X718Y612D01*
X710Y612D01*
X710Y611D01*
X732Y611D01*
X732Y612D01*
X735Y612D01*
X735Y613D01*
X737Y613D01*
X737Y614D01*
X739Y614D01*
X739Y615D01*
X741Y615D01*
X741Y616D01*
X743Y616D01*
X743Y617D01*
X745Y617D01*
X745Y618D01*
X746Y618D01*
X746Y619D01*
X748Y619D01*
X748Y620D01*
X749Y620D01*
X749Y621D01*
X751Y621D01*
X751Y622D01*
X752Y622D01*
X752Y623D01*
X754Y623D01*
X754Y624D01*
X755Y624D01*
X755Y625D01*
X756Y625D01*
X756Y626D01*
X757Y626D01*
X757Y627D01*
X758Y627D01*
X758Y628D01*
X759Y628D01*
X759Y629D01*
X760Y629D01*
X760Y630D01*
X761Y630D01*
X761Y631D01*
X762Y631D01*
X762Y632D01*
X763Y632D01*
X763Y633D01*
X764Y633D01*
X764Y634D01*
X765Y634D01*
X765Y635D01*
X766Y635D01*
X766Y636D01*
X767Y636D01*
X767Y638D01*
X768Y638D01*
X768Y639D01*
X769Y639D01*
X769Y640D01*
X770Y640D01*
X770Y642D01*
X771Y642D01*
X771Y643D01*
X772Y643D01*
X772Y645D01*
X773Y645D01*
X773Y649D01*
X772Y649D01*
X772Y650D01*
X770Y650D01*
G37*
D02*
G36*
X679Y611D02*
X679Y610D01*
X729Y610D01*
X729Y611D01*
X679Y611D01*
G37*
D02*
G36*
X679Y611D02*
X679Y610D01*
X729Y610D01*
X729Y611D01*
X679Y611D01*
G37*
D02*
G36*
X682Y610D02*
X682Y609D01*
X686Y609D01*
X686Y608D01*
X692Y608D01*
X692Y607D01*
X717Y607D01*
X717Y608D01*
X722Y608D01*
X722Y609D01*
X726Y609D01*
X726Y610D01*
X682Y610D01*
G37*
D02*
G36*
X1138Y654D02*
X1138Y653D01*
X1137Y653D01*
X1137Y637D01*
X1138Y637D01*
X1138Y635D01*
X1139Y635D01*
X1139Y634D01*
X1140Y634D01*
X1140Y633D01*
X1141Y633D01*
X1141Y632D01*
X1142Y632D01*
X1142Y631D01*
X1143Y631D01*
X1143Y630D01*
X1144Y630D01*
X1144Y629D01*
X1145Y629D01*
X1145Y628D01*
X1146Y628D01*
X1146Y627D01*
X1147Y627D01*
X1147Y626D01*
X1148Y626D01*
X1148Y625D01*
X1149Y625D01*
X1149Y624D01*
X1150Y624D01*
X1150Y623D01*
X1151Y623D01*
X1151Y622D01*
X1153Y622D01*
X1153Y621D01*
X1154Y621D01*
X1154Y620D01*
X1156Y620D01*
X1156Y619D01*
X1157Y619D01*
X1157Y618D01*
X1159Y618D01*
X1159Y617D01*
X1160Y617D01*
X1160Y616D01*
X1162Y616D01*
X1162Y615D01*
X1164Y615D01*
X1164Y614D01*
X1166Y614D01*
X1166Y613D01*
X1168Y613D01*
X1168Y612D01*
X1170Y612D01*
X1170Y611D01*
X1173Y611D01*
X1173Y610D01*
X1195Y610D01*
X1195Y611D01*
X1188Y611D01*
X1188Y612D01*
X1183Y612D01*
X1183Y613D01*
X1179Y613D01*
X1179Y614D01*
X1176Y614D01*
X1176Y615D01*
X1174Y615D01*
X1174Y616D01*
X1171Y616D01*
X1171Y617D01*
X1169Y617D01*
X1169Y618D01*
X1167Y618D01*
X1167Y619D01*
X1165Y619D01*
X1165Y620D01*
X1163Y620D01*
X1163Y621D01*
X1162Y621D01*
X1162Y622D01*
X1160Y622D01*
X1160Y623D01*
X1159Y623D01*
X1159Y624D01*
X1157Y624D01*
X1157Y625D01*
X1156Y625D01*
X1156Y626D01*
X1155Y626D01*
X1155Y627D01*
X1153Y627D01*
X1153Y628D01*
X1152Y628D01*
X1152Y629D01*
X1151Y629D01*
X1151Y630D01*
X1150Y630D01*
X1150Y631D01*
X1149Y631D01*
X1149Y632D01*
X1148Y632D01*
X1148Y633D01*
X1147Y633D01*
X1147Y634D01*
X1146Y634D01*
X1146Y635D01*
X1145Y635D01*
X1145Y636D01*
X1144Y636D01*
X1144Y637D01*
X1143Y637D01*
X1143Y639D01*
X1142Y639D01*
X1142Y653D01*
X1141Y653D01*
X1141Y654D01*
X1138Y654D01*
G37*
D02*
G36*
X1266Y649D02*
X1266Y648D01*
X1265Y648D01*
X1265Y647D01*
X1264Y647D01*
X1264Y645D01*
X1263Y645D01*
X1263Y643D01*
X1262Y643D01*
X1262Y642D01*
X1261Y642D01*
X1261Y641D01*
X1260Y641D01*
X1260Y639D01*
X1259Y639D01*
X1259Y638D01*
X1258Y638D01*
X1258Y637D01*
X1257Y637D01*
X1257Y636D01*
X1256Y636D01*
X1256Y635D01*
X1255Y635D01*
X1255Y633D01*
X1254Y633D01*
X1254Y632D01*
X1253Y632D01*
X1253Y631D01*
X1252Y631D01*
X1252Y630D01*
X1250Y630D01*
X1250Y629D01*
X1249Y629D01*
X1249Y628D01*
X1248Y628D01*
X1248Y627D01*
X1247Y627D01*
X1247Y626D01*
X1246Y626D01*
X1246Y625D01*
X1244Y625D01*
X1244Y624D01*
X1243Y624D01*
X1243Y623D01*
X1241Y623D01*
X1241Y622D01*
X1240Y622D01*
X1240Y621D01*
X1238Y621D01*
X1238Y620D01*
X1236Y620D01*
X1236Y619D01*
X1235Y619D01*
X1235Y618D01*
X1233Y618D01*
X1233Y617D01*
X1230Y617D01*
X1230Y616D01*
X1228Y616D01*
X1228Y615D01*
X1225Y615D01*
X1225Y614D01*
X1222Y614D01*
X1222Y613D01*
X1219Y613D01*
X1219Y612D01*
X1214Y612D01*
X1214Y611D01*
X1206Y611D01*
X1206Y610D01*
X1228Y610D01*
X1228Y611D01*
X1231Y611D01*
X1231Y612D01*
X1233Y612D01*
X1233Y613D01*
X1236Y613D01*
X1236Y614D01*
X1238Y614D01*
X1238Y615D01*
X1239Y615D01*
X1239Y616D01*
X1241Y616D01*
X1241Y617D01*
X1243Y617D01*
X1243Y618D01*
X1244Y618D01*
X1244Y619D01*
X1246Y619D01*
X1246Y620D01*
X1247Y620D01*
X1247Y621D01*
X1249Y621D01*
X1249Y622D01*
X1250Y622D01*
X1250Y623D01*
X1251Y623D01*
X1251Y624D01*
X1252Y624D01*
X1252Y625D01*
X1254Y625D01*
X1254Y626D01*
X1255Y626D01*
X1255Y627D01*
X1256Y627D01*
X1256Y628D01*
X1257Y628D01*
X1257Y629D01*
X1258Y629D01*
X1258Y630D01*
X1259Y630D01*
X1259Y631D01*
X1260Y631D01*
X1260Y633D01*
X1261Y633D01*
X1261Y634D01*
X1262Y634D01*
X1262Y635D01*
X1263Y635D01*
X1263Y636D01*
X1264Y636D01*
X1264Y637D01*
X1265Y637D01*
X1265Y639D01*
X1266Y639D01*
X1266Y640D01*
X1267Y640D01*
X1267Y642D01*
X1268Y642D01*
X1268Y643D01*
X1269Y643D01*
X1269Y645D01*
X1270Y645D01*
X1270Y648D01*
X1269Y648D01*
X1269Y649D01*
X1266Y649D01*
G37*
D02*
G36*
X1176Y610D02*
X1176Y609D01*
X1226Y609D01*
X1226Y610D01*
X1176Y610D01*
G37*
D02*
G36*
X1176Y610D02*
X1176Y609D01*
X1226Y609D01*
X1226Y610D01*
X1176Y610D01*
G37*
D02*
G36*
X1179Y609D02*
X1179Y608D01*
X1183Y608D01*
X1183Y607D01*
X1188Y607D01*
X1188Y606D01*
X1213Y606D01*
X1213Y607D01*
X1218Y607D01*
X1218Y608D01*
X1222Y608D01*
X1222Y609D01*
X1179Y609D01*
G37*
D02*
G36*
X176Y652D02*
X176Y651D01*
X175Y651D01*
X175Y636D01*
X176Y636D01*
X176Y634D01*
X177Y634D01*
X177Y633D01*
X178Y633D01*
X178Y632D01*
X179Y632D01*
X179Y631D01*
X180Y631D01*
X180Y629D01*
X181Y629D01*
X181Y628D01*
X182Y628D01*
X182Y627D01*
X183Y627D01*
X183Y626D01*
X184Y626D01*
X184Y625D01*
X186Y625D01*
X186Y624D01*
X187Y624D01*
X187Y623D01*
X188Y623D01*
X188Y622D01*
X189Y622D01*
X189Y621D01*
X190Y621D01*
X190Y620D01*
X192Y620D01*
X192Y619D01*
X193Y619D01*
X193Y618D01*
X194Y618D01*
X194Y617D01*
X196Y617D01*
X196Y616D01*
X197Y616D01*
X197Y615D01*
X199Y615D01*
X199Y614D01*
X201Y614D01*
X201Y613D01*
X203Y613D01*
X203Y612D01*
X205Y612D01*
X205Y611D01*
X207Y611D01*
X207Y610D01*
X209Y610D01*
X209Y609D01*
X228Y609D01*
X228Y610D01*
X223Y610D01*
X223Y611D01*
X219Y611D01*
X219Y612D01*
X216Y612D01*
X216Y613D01*
X213Y613D01*
X213Y614D01*
X210Y614D01*
X210Y615D01*
X208Y615D01*
X208Y616D01*
X206Y616D01*
X206Y617D01*
X204Y617D01*
X204Y618D01*
X202Y618D01*
X202Y619D01*
X201Y619D01*
X201Y620D01*
X199Y620D01*
X199Y621D01*
X198Y621D01*
X198Y622D01*
X196Y622D01*
X196Y623D01*
X195Y623D01*
X195Y624D01*
X193Y624D01*
X193Y625D01*
X192Y625D01*
X192Y626D01*
X191Y626D01*
X191Y627D01*
X190Y627D01*
X190Y628D01*
X189Y628D01*
X189Y629D01*
X188Y629D01*
X188Y630D01*
X187Y630D01*
X187Y631D01*
X186Y631D01*
X186Y632D01*
X185Y632D01*
X185Y633D01*
X184Y633D01*
X184Y634D01*
X183Y634D01*
X183Y635D01*
X182Y635D01*
X182Y636D01*
X181Y636D01*
X181Y637D01*
X180Y637D01*
X180Y651D01*
X179Y651D01*
X179Y652D01*
X176Y652D01*
G37*
D02*
G36*
X304Y647D02*
X304Y646D01*
X303Y646D01*
X303Y645D01*
X302Y645D01*
X302Y643D01*
X301Y643D01*
X301Y642D01*
X300Y642D01*
X300Y640D01*
X299Y640D01*
X299Y639D01*
X298Y639D01*
X298Y637D01*
X297Y637D01*
X297Y636D01*
X296Y636D01*
X296Y635D01*
X295Y635D01*
X295Y634D01*
X294Y634D01*
X294Y633D01*
X293Y633D01*
X293Y632D01*
X292Y632D01*
X292Y631D01*
X291Y631D01*
X291Y630D01*
X290Y630D01*
X290Y629D01*
X289Y629D01*
X289Y628D01*
X288Y628D01*
X288Y627D01*
X287Y627D01*
X287Y626D01*
X286Y626D01*
X286Y625D01*
X285Y625D01*
X285Y624D01*
X283Y624D01*
X283Y623D01*
X282Y623D01*
X282Y622D01*
X281Y622D01*
X281Y621D01*
X279Y621D01*
X279Y620D01*
X277Y620D01*
X277Y619D01*
X276Y619D01*
X276Y618D01*
X274Y618D01*
X274Y617D01*
X272Y617D01*
X272Y616D01*
X270Y616D01*
X270Y615D01*
X268Y615D01*
X268Y614D01*
X265Y614D01*
X265Y613D01*
X262Y613D01*
X262Y612D01*
X259Y612D01*
X259Y611D01*
X255Y611D01*
X255Y610D01*
X250Y610D01*
X250Y609D01*
X268Y609D01*
X268Y610D01*
X271Y610D01*
X271Y611D01*
X273Y611D01*
X273Y612D01*
X275Y612D01*
X275Y613D01*
X277Y613D01*
X277Y614D01*
X279Y614D01*
X279Y615D01*
X280Y615D01*
X280Y616D01*
X282Y616D01*
X282Y617D01*
X284Y617D01*
X284Y618D01*
X285Y618D01*
X285Y619D01*
X286Y619D01*
X286Y620D01*
X288Y620D01*
X288Y621D01*
X289Y621D01*
X289Y622D01*
X290Y622D01*
X290Y623D01*
X291Y623D01*
X291Y624D01*
X292Y624D01*
X292Y625D01*
X294Y625D01*
X294Y626D01*
X295Y626D01*
X295Y627D01*
X296Y627D01*
X296Y628D01*
X297Y628D01*
X297Y629D01*
X298Y629D01*
X298Y631D01*
X299Y631D01*
X299Y632D01*
X300Y632D01*
X300Y633D01*
X301Y633D01*
X301Y634D01*
X302Y634D01*
X302Y635D01*
X303Y635D01*
X303Y637D01*
X304Y637D01*
X304Y638D01*
X305Y638D01*
X305Y640D01*
X306Y640D01*
X306Y641D01*
X307Y641D01*
X307Y643D01*
X308Y643D01*
X308Y646D01*
X307Y646D01*
X307Y647D01*
X304Y647D01*
G37*
D02*
G36*
X212Y609D02*
X212Y608D01*
X266Y608D01*
X266Y609D01*
X212Y609D01*
G37*
D02*
G36*
X212Y609D02*
X212Y608D01*
X266Y608D01*
X266Y609D01*
X212Y609D01*
G37*
D02*
G36*
X215Y608D02*
X215Y607D01*
X219Y607D01*
X219Y606D01*
X223Y606D01*
X223Y605D01*
X229Y605D01*
X229Y604D01*
X248Y604D01*
X248Y605D01*
X255Y605D01*
X255Y606D01*
X259Y606D01*
X259Y607D01*
X263Y607D01*
X263Y608D01*
X215Y608D01*
G37*
D02*
G36*
X1910Y636D02*
X1910Y635D01*
X1909Y635D01*
X1909Y633D01*
X1910Y633D01*
X1910Y632D01*
X1920Y632D01*
X1920Y627D01*
X1891Y627D01*
X1891Y623D01*
X1920Y623D01*
X1920Y615D01*
X1924Y615D01*
X1924Y635D01*
X1923Y635D01*
X1923Y636D01*
X1910Y636D01*
G37*
D02*
G36*
X1891Y623D02*
X1891Y615D01*
X1895Y615D01*
X1895Y623D01*
X1891Y623D01*
G37*
D02*
G36*
X1901Y604D02*
X1901Y603D01*
X1900Y603D01*
X1900Y600D01*
X1902Y600D01*
X1902Y599D01*
X1907Y599D01*
X1907Y598D01*
X1910Y598D01*
X1910Y597D01*
X1912Y597D01*
X1912Y596D01*
X1914Y596D01*
X1914Y595D01*
X1917Y595D01*
X1917Y594D01*
X1919Y594D01*
X1919Y593D01*
X1918Y593D01*
X1918Y592D01*
X1916Y592D01*
X1916Y591D01*
X1914Y591D01*
X1914Y590D01*
X1912Y590D01*
X1912Y589D01*
X1909Y589D01*
X1909Y588D01*
X1907Y588D01*
X1907Y587D01*
X1901Y587D01*
X1901Y586D01*
X1900Y586D01*
X1900Y583D01*
X1902Y583D01*
X1902Y582D01*
X1906Y582D01*
X1906Y583D01*
X1909Y583D01*
X1909Y584D01*
X1911Y584D01*
X1911Y585D01*
X1913Y585D01*
X1913Y586D01*
X1915Y586D01*
X1915Y587D01*
X1918Y587D01*
X1918Y588D01*
X1920Y588D01*
X1920Y589D01*
X1922Y589D01*
X1922Y590D01*
X1924Y590D01*
X1924Y596D01*
X1923Y596D01*
X1923Y597D01*
X1920Y597D01*
X1920Y598D01*
X1918Y598D01*
X1918Y599D01*
X1916Y599D01*
X1916Y600D01*
X1914Y600D01*
X1914Y601D01*
X1911Y601D01*
X1911Y602D01*
X1909Y602D01*
X1909Y603D01*
X1907Y603D01*
X1907Y604D01*
X1901Y604D01*
G37*
D02*
G36*
X677Y566D02*
X677Y559D01*
X701Y559D01*
X701Y558D01*
X702Y558D01*
X702Y557D01*
X703Y557D01*
X703Y551D01*
X702Y551D01*
X702Y550D01*
X701Y550D01*
X701Y549D01*
X709Y549D01*
X709Y554D01*
X710Y554D01*
X710Y555D01*
X709Y555D01*
X709Y560D01*
X708Y560D01*
X708Y562D01*
X707Y562D01*
X707Y563D01*
X706Y563D01*
X706Y564D01*
X704Y564D01*
X704Y565D01*
X702Y565D01*
X702Y566D01*
X677Y566D01*
G37*
D02*
G36*
X677Y559D02*
X677Y549D01*
X683Y549D01*
X683Y559D01*
X677Y559D01*
G37*
D02*
G36*
X677Y549D02*
X677Y548D01*
X709Y548D01*
X709Y549D01*
X677Y549D01*
G37*
D02*
G36*
X677Y549D02*
X677Y548D01*
X709Y548D01*
X709Y549D01*
X677Y549D01*
G37*
D02*
G36*
X677Y548D02*
X677Y542D01*
X688Y542D01*
X688Y541D01*
X689Y541D01*
X689Y540D01*
X690Y540D01*
X690Y538D01*
X691Y538D01*
X691Y536D01*
X692Y536D01*
X692Y534D01*
X693Y534D01*
X693Y533D01*
X694Y533D01*
X694Y531D01*
X695Y531D01*
X695Y529D01*
X696Y529D01*
X696Y528D01*
X697Y528D01*
X697Y526D01*
X698Y526D01*
X698Y524D01*
X699Y524D01*
X699Y522D01*
X700Y522D01*
X700Y521D01*
X701Y521D01*
X701Y519D01*
X702Y519D01*
X702Y517D01*
X703Y517D01*
X703Y516D01*
X704Y516D01*
X704Y515D01*
X705Y515D01*
X705Y514D01*
X707Y514D01*
X707Y515D01*
X709Y515D01*
X709Y520D01*
X708Y520D01*
X708Y522D01*
X707Y522D01*
X707Y524D01*
X706Y524D01*
X706Y525D01*
X705Y525D01*
X705Y527D01*
X704Y527D01*
X704Y529D01*
X703Y529D01*
X703Y531D01*
X702Y531D01*
X702Y532D01*
X701Y532D01*
X701Y534D01*
X700Y534D01*
X700Y536D01*
X699Y536D01*
X699Y537D01*
X698Y537D01*
X698Y539D01*
X697Y539D01*
X697Y541D01*
X696Y541D01*
X696Y542D01*
X701Y542D01*
X701Y543D01*
X704Y543D01*
X704Y544D01*
X706Y544D01*
X706Y545D01*
X707Y545D01*
X707Y546D01*
X708Y546D01*
X708Y548D01*
X677Y548D01*
G37*
D02*
G36*
X677Y542D02*
X677Y516D01*
X678Y516D01*
X678Y515D01*
X679Y515D01*
X679Y514D01*
X681Y514D01*
X681Y515D01*
X682Y515D01*
X682Y516D01*
X683Y516D01*
X683Y542D01*
X677Y542D01*
G37*
D02*
G36*
X729Y566D02*
X729Y565D01*
X727Y565D01*
X727Y563D01*
X726Y563D01*
X726Y561D01*
X727Y561D01*
X727Y560D01*
X728Y560D01*
X728Y559D01*
X752Y559D01*
X752Y544D01*
X750Y544D01*
X750Y543D01*
X734Y543D01*
X734Y542D01*
X733Y542D01*
X733Y538D01*
X734Y538D01*
X734Y537D01*
X750Y537D01*
X750Y536D01*
X752Y536D01*
X752Y521D01*
X728Y521D01*
X728Y520D01*
X727Y520D01*
X727Y519D01*
X726Y519D01*
X726Y517D01*
X727Y517D01*
X727Y515D01*
X729Y515D01*
X729Y514D01*
X754Y514D01*
X754Y515D01*
X756Y515D01*
X756Y516D01*
X757Y516D01*
X757Y517D01*
X758Y517D01*
X758Y518D01*
X759Y518D01*
X759Y537D01*
X758Y537D01*
X758Y539D01*
X757Y539D01*
X757Y541D01*
X758Y541D01*
X758Y543D01*
X759Y543D01*
X759Y562D01*
X758Y562D01*
X758Y563D01*
X757Y563D01*
X757Y564D01*
X756Y564D01*
X756Y565D01*
X754Y565D01*
X754Y566D01*
X729Y566D01*
G37*
D02*
G36*
X1646Y563D02*
X1646Y562D01*
X1645Y562D01*
X1645Y556D01*
X1670Y556D01*
X1670Y555D01*
X1671Y555D01*
X1671Y547D01*
X1670Y547D01*
X1670Y546D01*
X1678Y546D01*
X1678Y555D01*
X1677Y555D01*
X1677Y558D01*
X1676Y558D01*
X1676Y559D01*
X1675Y559D01*
X1675Y560D01*
X1674Y560D01*
X1674Y561D01*
X1672Y561D01*
X1672Y562D01*
X1669Y562D01*
X1669Y563D01*
X1646Y563D01*
G37*
D02*
G36*
X1645Y556D02*
X1645Y546D01*
X1652Y546D01*
X1652Y556D01*
X1645Y556D01*
G37*
D02*
G36*
X1645Y546D02*
X1645Y545D01*
X1677Y545D01*
X1677Y546D01*
X1645Y546D01*
G37*
D02*
G36*
X1645Y546D02*
X1645Y545D01*
X1677Y545D01*
X1677Y546D01*
X1645Y546D01*
G37*
D02*
G36*
X1645Y545D02*
X1645Y539D01*
X1657Y539D01*
X1657Y537D01*
X1658Y537D01*
X1658Y535D01*
X1659Y535D01*
X1659Y534D01*
X1660Y534D01*
X1660Y532D01*
X1661Y532D01*
X1661Y530D01*
X1662Y530D01*
X1662Y529D01*
X1663Y529D01*
X1663Y527D01*
X1664Y527D01*
X1664Y525D01*
X1665Y525D01*
X1665Y524D01*
X1666Y524D01*
X1666Y522D01*
X1667Y522D01*
X1667Y520D01*
X1668Y520D01*
X1668Y518D01*
X1669Y518D01*
X1669Y517D01*
X1670Y517D01*
X1670Y515D01*
X1671Y515D01*
X1671Y513D01*
X1672Y513D01*
X1672Y512D01*
X1673Y512D01*
X1673Y511D01*
X1676Y511D01*
X1676Y512D01*
X1677Y512D01*
X1677Y513D01*
X1678Y513D01*
X1678Y516D01*
X1677Y516D01*
X1677Y518D01*
X1676Y518D01*
X1676Y520D01*
X1675Y520D01*
X1675Y521D01*
X1674Y521D01*
X1674Y523D01*
X1673Y523D01*
X1673Y525D01*
X1672Y525D01*
X1672Y526D01*
X1671Y526D01*
X1671Y528D01*
X1670Y528D01*
X1670Y530D01*
X1669Y530D01*
X1669Y532D01*
X1668Y532D01*
X1668Y533D01*
X1667Y533D01*
X1667Y535D01*
X1666Y535D01*
X1666Y537D01*
X1665Y537D01*
X1665Y538D01*
X1664Y538D01*
X1664Y539D01*
X1671Y539D01*
X1671Y540D01*
X1673Y540D01*
X1673Y541D01*
X1674Y541D01*
X1674Y542D01*
X1675Y542D01*
X1675Y543D01*
X1676Y543D01*
X1676Y544D01*
X1677Y544D01*
X1677Y545D01*
X1645Y545D01*
G37*
D02*
G36*
X1645Y539D02*
X1645Y513D01*
X1646Y513D01*
X1646Y512D01*
X1647Y512D01*
X1647Y511D01*
X1650Y511D01*
X1650Y512D01*
X1651Y512D01*
X1651Y513D01*
X1652Y513D01*
X1652Y539D01*
X1645Y539D01*
G37*
D02*
G36*
X1698Y563D02*
X1698Y562D01*
X1696Y562D01*
X1696Y561D01*
X1695Y561D01*
X1695Y556D01*
X1721Y556D01*
X1721Y544D01*
X1720Y544D01*
X1720Y543D01*
X1719Y543D01*
X1719Y542D01*
X1718Y542D01*
X1718Y541D01*
X1717Y541D01*
X1717Y540D01*
X1716Y540D01*
X1716Y539D01*
X1714Y539D01*
X1714Y538D01*
X1713Y538D01*
X1713Y537D01*
X1712Y537D01*
X1712Y536D01*
X1711Y536D01*
X1711Y535D01*
X1710Y535D01*
X1710Y534D01*
X1709Y534D01*
X1709Y533D01*
X1708Y533D01*
X1708Y513D01*
X1709Y513D01*
X1709Y512D01*
X1710Y512D01*
X1710Y511D01*
X1712Y511D01*
X1712Y512D01*
X1714Y512D01*
X1714Y529D01*
X1715Y529D01*
X1715Y531D01*
X1717Y531D01*
X1717Y532D01*
X1718Y532D01*
X1718Y533D01*
X1719Y533D01*
X1719Y534D01*
X1720Y534D01*
X1720Y535D01*
X1721Y535D01*
X1721Y536D01*
X1722Y536D01*
X1722Y537D01*
X1724Y537D01*
X1724Y538D01*
X1725Y538D01*
X1725Y539D01*
X1726Y539D01*
X1726Y540D01*
X1727Y540D01*
X1727Y542D01*
X1728Y542D01*
X1728Y562D01*
X1727Y562D01*
X1727Y563D01*
X1698Y563D01*
G37*
D02*
G36*
X1695Y556D02*
X1695Y554D01*
X1697Y554D01*
X1697Y553D01*
X1700Y553D01*
X1700Y554D01*
X1701Y554D01*
X1701Y556D01*
X1695Y556D01*
G37*
D02*
G36*
X1146Y561D02*
X1146Y554D01*
X1170Y554D01*
X1170Y553D01*
X1171Y553D01*
X1171Y552D01*
X1172Y552D01*
X1172Y546D01*
X1171Y546D01*
X1171Y545D01*
X1170Y545D01*
X1170Y544D01*
X1178Y544D01*
X1178Y555D01*
X1177Y555D01*
X1177Y557D01*
X1176Y557D01*
X1176Y558D01*
X1175Y558D01*
X1175Y559D01*
X1173Y559D01*
X1173Y560D01*
X1170Y560D01*
X1170Y561D01*
X1146Y561D01*
G37*
D02*
G36*
X1146Y554D02*
X1146Y544D01*
X1152Y544D01*
X1152Y554D01*
X1146Y554D01*
G37*
D02*
G36*
X1146Y544D02*
X1146Y543D01*
X1178Y543D01*
X1178Y544D01*
X1146Y544D01*
G37*
D02*
G36*
X1146Y544D02*
X1146Y543D01*
X1178Y543D01*
X1178Y544D01*
X1146Y544D01*
G37*
D02*
G36*
X1146Y543D02*
X1146Y537D01*
X1157Y537D01*
X1157Y536D01*
X1158Y536D01*
X1158Y534D01*
X1159Y534D01*
X1159Y533D01*
X1160Y533D01*
X1160Y531D01*
X1161Y531D01*
X1161Y529D01*
X1162Y529D01*
X1162Y528D01*
X1163Y528D01*
X1163Y526D01*
X1164Y526D01*
X1164Y524D01*
X1165Y524D01*
X1165Y523D01*
X1166Y523D01*
X1166Y521D01*
X1167Y521D01*
X1167Y519D01*
X1168Y519D01*
X1168Y517D01*
X1169Y517D01*
X1169Y516D01*
X1170Y516D01*
X1170Y514D01*
X1171Y514D01*
X1171Y512D01*
X1172Y512D01*
X1172Y511D01*
X1173Y511D01*
X1173Y510D01*
X1174Y510D01*
X1174Y509D01*
X1176Y509D01*
X1176Y510D01*
X1178Y510D01*
X1178Y515D01*
X1177Y515D01*
X1177Y517D01*
X1176Y517D01*
X1176Y519D01*
X1175Y519D01*
X1175Y520D01*
X1174Y520D01*
X1174Y522D01*
X1173Y522D01*
X1173Y524D01*
X1172Y524D01*
X1172Y525D01*
X1171Y525D01*
X1171Y527D01*
X1170Y527D01*
X1170Y529D01*
X1169Y529D01*
X1169Y531D01*
X1168Y531D01*
X1168Y532D01*
X1167Y532D01*
X1167Y534D01*
X1166Y534D01*
X1166Y536D01*
X1165Y536D01*
X1165Y537D01*
X1171Y537D01*
X1171Y538D01*
X1173Y538D01*
X1173Y539D01*
X1175Y539D01*
X1175Y540D01*
X1176Y540D01*
X1176Y541D01*
X1177Y541D01*
X1177Y543D01*
X1146Y543D01*
G37*
D02*
G36*
X1146Y537D02*
X1146Y511D01*
X1147Y511D01*
X1147Y510D01*
X1148Y510D01*
X1148Y509D01*
X1150Y509D01*
X1150Y510D01*
X1152Y510D01*
X1152Y537D01*
X1146Y537D01*
G37*
D02*
G36*
X207Y558D02*
X207Y551D01*
X232Y551D01*
X232Y549D01*
X233Y549D01*
X233Y543D01*
X232Y543D01*
X232Y542D01*
X231Y542D01*
X231Y541D01*
X239Y541D01*
X239Y543D01*
X240Y543D01*
X240Y549D01*
X239Y549D01*
X239Y552D01*
X238Y552D01*
X238Y554D01*
X237Y554D01*
X237Y555D01*
X236Y555D01*
X236Y556D01*
X234Y556D01*
X234Y557D01*
X232Y557D01*
X232Y558D01*
X207Y558D01*
G37*
D02*
G36*
X207Y551D02*
X207Y541D01*
X213Y541D01*
X213Y551D01*
X207Y551D01*
G37*
D02*
G36*
X207Y541D02*
X207Y540D01*
X239Y540D01*
X239Y541D01*
X207Y541D01*
G37*
D02*
G36*
X207Y541D02*
X207Y540D01*
X239Y540D01*
X239Y541D01*
X207Y541D01*
G37*
D02*
G36*
X207Y540D02*
X207Y534D01*
X219Y534D01*
X219Y532D01*
X220Y532D01*
X220Y530D01*
X221Y530D01*
X221Y528D01*
X222Y528D01*
X222Y527D01*
X223Y527D01*
X223Y525D01*
X224Y525D01*
X224Y523D01*
X225Y523D01*
X225Y522D01*
X226Y522D01*
X226Y520D01*
X227Y520D01*
X227Y518D01*
X228Y518D01*
X228Y516D01*
X229Y516D01*
X229Y515D01*
X230Y515D01*
X230Y513D01*
X231Y513D01*
X231Y511D01*
X232Y511D01*
X232Y510D01*
X233Y510D01*
X233Y508D01*
X234Y508D01*
X234Y507D01*
X236Y507D01*
X236Y506D01*
X237Y506D01*
X237Y507D01*
X239Y507D01*
X239Y509D01*
X240Y509D01*
X240Y510D01*
X239Y510D01*
X239Y512D01*
X238Y512D01*
X238Y514D01*
X237Y514D01*
X237Y516D01*
X236Y516D01*
X236Y518D01*
X235Y518D01*
X235Y519D01*
X234Y519D01*
X234Y521D01*
X233Y521D01*
X233Y523D01*
X232Y523D01*
X232Y524D01*
X231Y524D01*
X231Y526D01*
X230Y526D01*
X230Y528D01*
X229Y528D01*
X229Y530D01*
X228Y530D01*
X228Y531D01*
X227Y531D01*
X227Y533D01*
X226Y533D01*
X226Y534D01*
X231Y534D01*
X231Y535D01*
X234Y535D01*
X234Y536D01*
X236Y536D01*
X236Y537D01*
X237Y537D01*
X237Y538D01*
X238Y538D01*
X238Y540D01*
X207Y540D01*
G37*
D02*
G36*
X207Y534D02*
X207Y508D01*
X208Y508D01*
X208Y507D01*
X210Y507D01*
X210Y506D01*
X211Y506D01*
X211Y507D01*
X213Y507D01*
X213Y534D01*
X207Y534D01*
G37*
D02*
G36*
X259Y558D02*
X259Y557D01*
X257Y557D01*
X257Y555D01*
X256Y555D01*
X256Y554D01*
X257Y554D01*
X257Y552D01*
X258Y552D01*
X258Y551D01*
X270Y551D01*
X270Y514D01*
X269Y514D01*
X269Y513D01*
X276Y513D01*
X276Y558D01*
X259Y558D01*
G37*
D02*
G36*
X285Y530D02*
X285Y529D01*
X283Y529D01*
X283Y513D01*
X289Y513D01*
X289Y529D01*
X287Y529D01*
X287Y530D01*
X285Y530D01*
G37*
D02*
G36*
X258Y513D02*
X258Y512D01*
X289Y512D01*
X289Y513D01*
X258Y513D01*
G37*
D02*
G36*
X258Y513D02*
X258Y512D01*
X289Y512D01*
X289Y513D01*
X258Y513D01*
G37*
D02*
G36*
X257Y512D02*
X257Y510D01*
X256Y510D01*
X256Y509D01*
X257Y509D01*
X257Y507D01*
X259Y507D01*
X259Y506D01*
X287Y506D01*
X287Y507D01*
X288Y507D01*
X288Y508D01*
X289Y508D01*
X289Y512D01*
X257Y512D01*
G37*
D02*
G36*
X598Y546D02*
X598Y536D01*
X632Y536D01*
X632Y546D01*
X598Y546D01*
G37*
D02*
G36*
X782Y546D02*
X782Y537D01*
X783Y537D01*
X783Y536D01*
X818Y536D01*
X818Y539D01*
X817Y539D01*
X817Y545D01*
X818Y545D01*
X818Y546D01*
X782Y546D01*
G37*
D02*
G36*
X1570Y543D02*
X1570Y533D01*
X1604Y533D01*
X1604Y543D01*
X1570Y543D01*
G37*
D02*
G36*
X1754Y543D02*
X1754Y533D01*
X1789Y533D01*
X1789Y543D01*
X1754Y543D01*
G37*
D02*
G36*
X1075Y542D02*
X1075Y532D01*
X1109Y532D01*
X1109Y542D01*
X1075Y542D01*
G37*
D02*
G36*
X1259Y542D02*
X1259Y532D01*
X1295Y532D01*
X1295Y534D01*
X1294Y534D01*
X1294Y541D01*
X1295Y541D01*
X1295Y542D01*
X1259Y542D01*
G37*
D02*
G36*
X133Y540D02*
X133Y530D01*
X167Y530D01*
X167Y540D01*
X133Y540D01*
G37*
D02*
G36*
X317Y540D02*
X317Y539D01*
X316Y539D01*
X316Y530D01*
X352Y530D01*
X352Y540D01*
X317Y540D01*
G37*
D02*
G36*
X1903Y539D02*
X1903Y538D01*
X1902Y538D01*
X1902Y537D01*
X1901Y537D01*
X1901Y536D01*
X1900Y536D01*
X1900Y523D01*
X1905Y523D01*
X1905Y524D01*
X1904Y524D01*
X1904Y534D01*
X1905Y534D01*
X1905Y535D01*
X1906Y535D01*
X1906Y538D01*
X1905Y538D01*
X1905Y539D01*
X1903Y539D01*
G37*
D02*
G36*
X1914Y539D02*
X1914Y538D01*
X1913Y538D01*
X1913Y537D01*
X1912Y537D01*
X1912Y535D01*
X1919Y535D01*
X1919Y534D01*
X1920Y534D01*
X1920Y523D01*
X1919Y523D01*
X1919Y521D01*
X1918Y521D01*
X1918Y519D01*
X1919Y519D01*
X1919Y518D01*
X1921Y518D01*
X1921Y519D01*
X1922Y519D01*
X1922Y520D01*
X1923Y520D01*
X1923Y521D01*
X1924Y521D01*
X1924Y536D01*
X1923Y536D01*
X1923Y537D01*
X1922Y537D01*
X1922Y538D01*
X1921Y538D01*
X1921Y539D01*
X1914Y539D01*
G37*
D02*
G36*
X1911Y535D02*
X1911Y533D01*
X1910Y533D01*
X1910Y530D01*
X1909Y530D01*
X1909Y528D01*
X1908Y528D01*
X1908Y526D01*
X1907Y526D01*
X1907Y524D01*
X1906Y524D01*
X1906Y523D01*
X1911Y523D01*
X1911Y524D01*
X1912Y524D01*
X1912Y526D01*
X1913Y526D01*
X1913Y529D01*
X1914Y529D01*
X1914Y531D01*
X1915Y531D01*
X1915Y533D01*
X1916Y533D01*
X1916Y535D01*
X1911Y535D01*
G37*
D02*
G36*
X1900Y523D02*
X1900Y522D01*
X1911Y522D01*
X1911Y523D01*
X1900Y523D01*
G37*
D02*
G36*
X1900Y523D02*
X1900Y522D01*
X1911Y522D01*
X1911Y523D01*
X1900Y523D01*
G37*
D02*
G36*
X1901Y522D02*
X1901Y520D01*
X1903Y520D01*
X1903Y519D01*
X1908Y519D01*
X1908Y520D01*
X1910Y520D01*
X1910Y522D01*
X1901Y522D01*
G37*
D02*
G36*
X1202Y561D02*
X1202Y532D01*
X1221Y532D01*
X1221Y516D01*
X1228Y516D01*
X1228Y534D01*
X1227Y534D01*
X1227Y536D01*
X1226Y536D01*
X1226Y537D01*
X1225Y537D01*
X1225Y538D01*
X1209Y538D01*
X1209Y554D01*
X1226Y554D01*
X1226Y555D01*
X1228Y555D01*
X1228Y559D01*
X1227Y559D01*
X1227Y560D01*
X1226Y560D01*
X1226Y561D01*
X1202Y561D01*
G37*
D02*
G36*
X1197Y519D02*
X1197Y518D01*
X1196Y518D01*
X1196Y516D01*
X1205Y516D01*
X1205Y517D01*
X1202Y517D01*
X1202Y518D01*
X1200Y518D01*
X1200Y519D01*
X1197Y519D01*
G37*
D02*
G36*
X1195Y516D02*
X1195Y515D01*
X1228Y515D01*
X1228Y516D01*
X1195Y516D01*
G37*
D02*
G36*
X1195Y516D02*
X1195Y515D01*
X1228Y515D01*
X1228Y516D01*
X1195Y516D01*
G37*
D02*
G36*
X1195Y515D02*
X1195Y514D01*
X1196Y514D01*
X1196Y513D01*
X1197Y513D01*
X1197Y512D01*
X1199Y512D01*
X1199Y511D01*
X1202Y511D01*
X1202Y510D01*
X1205Y510D01*
X1205Y509D01*
X1223Y509D01*
X1223Y510D01*
X1225Y510D01*
X1225Y511D01*
X1226Y511D01*
X1226Y512D01*
X1227Y512D01*
X1227Y513D01*
X1228Y513D01*
X1228Y515D01*
X1195Y515D01*
G37*
D02*
G36*
X1901Y507D02*
X1901Y506D01*
X1900Y506D01*
X1900Y504D01*
X1901Y504D01*
X1901Y503D01*
X1906Y503D01*
X1906Y502D01*
X1909Y502D01*
X1909Y501D01*
X1911Y501D01*
X1911Y500D01*
X1913Y500D01*
X1913Y499D01*
X1916Y499D01*
X1916Y498D01*
X1918Y498D01*
X1918Y496D01*
X1917Y496D01*
X1917Y495D01*
X1925Y495D01*
X1925Y494D01*
X1927Y494D01*
X1927Y493D01*
X1929Y493D01*
X1929Y487D01*
X1930Y487D01*
X1930Y486D01*
X1932Y486D01*
X1932Y487D01*
X1933Y487D01*
X1933Y496D01*
X1931Y496D01*
X1931Y497D01*
X1929Y497D01*
X1929Y498D01*
X1926Y498D01*
X1926Y499D01*
X1924Y499D01*
X1924Y500D01*
X1922Y500D01*
X1922Y501D01*
X1919Y501D01*
X1919Y502D01*
X1917Y502D01*
X1917Y503D01*
X1915Y503D01*
X1915Y504D01*
X1913Y504D01*
X1913Y505D01*
X1910Y505D01*
X1910Y506D01*
X1908Y506D01*
X1908Y507D01*
X1901Y507D01*
G37*
D02*
G36*
X1915Y495D02*
X1915Y494D01*
X1913Y494D01*
X1913Y493D01*
X1910Y493D01*
X1910Y492D01*
X1908Y492D01*
X1908Y491D01*
X1906Y491D01*
X1906Y490D01*
X1901Y490D01*
X1901Y489D01*
X1900Y489D01*
X1900Y487D01*
X1901Y487D01*
X1901Y486D01*
X1907Y486D01*
X1907Y487D01*
X1910Y487D01*
X1910Y488D01*
X1912Y488D01*
X1912Y489D01*
X1914Y489D01*
X1914Y490D01*
X1916Y490D01*
X1916Y491D01*
X1919Y491D01*
X1919Y492D01*
X1921Y492D01*
X1921Y493D01*
X1922Y493D01*
X1922Y495D01*
X1915Y495D01*
G37*
D02*
G36*
X1905Y475D02*
X1905Y474D01*
X1903Y474D01*
X1903Y473D01*
X1902Y473D01*
X1902Y472D01*
X1901Y472D01*
X1901Y471D01*
X1917Y471D01*
X1917Y470D01*
X1918Y470D01*
X1918Y469D01*
X1919Y469D01*
X1919Y467D01*
X1920Y467D01*
X1920Y459D01*
X1919Y459D01*
X1919Y458D01*
X1924Y458D01*
X1924Y469D01*
X1923Y469D01*
X1923Y470D01*
X1922Y470D01*
X1922Y471D01*
X1924Y471D01*
X1924Y475D01*
X1905Y475D01*
G37*
D02*
G36*
X1900Y471D02*
X1900Y470D01*
X1909Y470D01*
X1909Y458D01*
X1915Y458D01*
X1915Y459D01*
X1914Y459D01*
X1914Y460D01*
X1913Y460D01*
X1913Y469D01*
X1914Y469D01*
X1914Y470D01*
X1915Y470D01*
X1915Y471D01*
X1900Y471D01*
G37*
D02*
G36*
X1900Y470D02*
X1900Y459D01*
X1901Y459D01*
X1901Y458D01*
X1903Y458D01*
X1903Y459D01*
X1904Y459D01*
X1904Y469D01*
X1905Y469D01*
X1905Y470D01*
X1900Y470D01*
G37*
D02*
G36*
X1910Y458D02*
X1910Y457D01*
X1924Y457D01*
X1924Y458D01*
X1910Y458D01*
G37*
D02*
G36*
X1910Y458D02*
X1910Y457D01*
X1924Y457D01*
X1924Y458D01*
X1910Y458D01*
G37*
D02*
G36*
X1910Y457D02*
X1910Y456D01*
X1911Y456D01*
X1911Y455D01*
X1913Y455D01*
X1913Y454D01*
X1921Y454D01*
X1921Y455D01*
X1922Y455D01*
X1922Y456D01*
X1923Y456D01*
X1923Y457D01*
X1910Y457D01*
G37*
D02*
G36*
X208Y450D02*
X208Y443D01*
X233Y443D01*
X233Y442D01*
X234Y442D01*
X234Y441D01*
X235Y441D01*
X235Y436D01*
X234Y436D01*
X234Y434D01*
X232Y434D01*
X232Y433D01*
X241Y433D01*
X241Y444D01*
X240Y444D01*
X240Y446D01*
X239Y446D01*
X239Y447D01*
X238Y447D01*
X238Y448D01*
X236Y448D01*
X236Y449D01*
X234Y449D01*
X234Y450D01*
X208Y450D01*
G37*
D02*
G36*
X208Y443D02*
X208Y433D01*
X215Y433D01*
X215Y443D01*
X208Y443D01*
G37*
D02*
G36*
X208Y433D02*
X208Y432D01*
X240Y432D01*
X240Y433D01*
X208Y433D01*
G37*
D02*
G36*
X208Y433D02*
X208Y432D01*
X240Y432D01*
X240Y433D01*
X208Y433D01*
G37*
D02*
G36*
X208Y432D02*
X208Y427D01*
X219Y427D01*
X219Y426D01*
X220Y426D01*
X220Y425D01*
X221Y425D01*
X221Y423D01*
X222Y423D01*
X222Y422D01*
X223Y422D01*
X223Y420D01*
X224Y420D01*
X224Y418D01*
X225Y418D01*
X225Y417D01*
X226Y417D01*
X226Y415D01*
X227Y415D01*
X227Y413D01*
X228Y413D01*
X228Y411D01*
X229Y411D01*
X229Y410D01*
X230Y410D01*
X230Y408D01*
X231Y408D01*
X231Y406D01*
X232Y406D01*
X232Y405D01*
X233Y405D01*
X233Y403D01*
X234Y403D01*
X234Y401D01*
X235Y401D01*
X235Y400D01*
X236Y400D01*
X236Y399D01*
X240Y399D01*
X240Y400D01*
X241Y400D01*
X241Y404D01*
X240Y404D01*
X240Y406D01*
X239Y406D01*
X239Y407D01*
X238Y407D01*
X238Y409D01*
X237Y409D01*
X237Y411D01*
X236Y411D01*
X236Y413D01*
X235Y413D01*
X235Y414D01*
X234Y414D01*
X234Y416D01*
X233Y416D01*
X233Y418D01*
X232Y418D01*
X232Y419D01*
X231Y419D01*
X231Y421D01*
X230Y421D01*
X230Y423D01*
X229Y423D01*
X229Y425D01*
X228Y425D01*
X228Y427D01*
X235Y427D01*
X235Y428D01*
X237Y428D01*
X237Y429D01*
X238Y429D01*
X238Y430D01*
X239Y430D01*
X239Y431D01*
X240Y431D01*
X240Y432D01*
X208Y432D01*
G37*
D02*
G36*
X208Y427D02*
X208Y401D01*
X209Y401D01*
X209Y400D01*
X210Y400D01*
X210Y399D01*
X214Y399D01*
X214Y400D01*
X215Y400D01*
X215Y427D01*
X208Y427D01*
G37*
D02*
G36*
X260Y450D02*
X260Y449D01*
X259Y449D01*
X259Y448D01*
X258Y448D01*
X258Y445D01*
X259Y445D01*
X259Y444D01*
X260Y444D01*
X260Y443D01*
X284Y443D01*
X284Y428D01*
X263Y428D01*
X263Y427D01*
X261Y427D01*
X261Y426D01*
X260Y426D01*
X260Y425D01*
X259Y425D01*
X259Y423D01*
X258Y423D01*
X258Y399D01*
X290Y399D01*
X290Y401D01*
X291Y401D01*
X291Y403D01*
X290Y403D01*
X290Y405D01*
X265Y405D01*
X265Y421D01*
X287Y421D01*
X287Y422D01*
X288Y422D01*
X288Y423D01*
X289Y423D01*
X289Y424D01*
X290Y424D01*
X290Y426D01*
X291Y426D01*
X291Y445D01*
X290Y445D01*
X290Y447D01*
X289Y447D01*
X289Y448D01*
X288Y448D01*
X288Y449D01*
X287Y449D01*
X287Y450D01*
X260Y450D01*
G37*
D02*
G36*
X675Y448D02*
X675Y447D01*
X674Y447D01*
X674Y441D01*
X699Y441D01*
X699Y440D01*
X700Y440D01*
X700Y432D01*
X699Y432D01*
X699Y431D01*
X707Y431D01*
X707Y441D01*
X706Y441D01*
X706Y443D01*
X705Y443D01*
X705Y444D01*
X704Y444D01*
X704Y445D01*
X703Y445D01*
X703Y446D01*
X701Y446D01*
X701Y447D01*
X696Y447D01*
X696Y448D01*
X675Y448D01*
G37*
D02*
G36*
X674Y441D02*
X674Y431D01*
X681Y431D01*
X681Y441D01*
X674Y441D01*
G37*
D02*
G36*
X674Y431D02*
X674Y430D01*
X706Y430D01*
X706Y431D01*
X674Y431D01*
G37*
D02*
G36*
X674Y431D02*
X674Y430D01*
X706Y430D01*
X706Y431D01*
X674Y431D01*
G37*
D02*
G36*
X674Y430D02*
X674Y424D01*
X686Y424D01*
X686Y422D01*
X687Y422D01*
X687Y421D01*
X688Y421D01*
X688Y419D01*
X689Y419D01*
X689Y417D01*
X690Y417D01*
X690Y416D01*
X691Y416D01*
X691Y414D01*
X692Y414D01*
X692Y412D01*
X693Y412D01*
X693Y410D01*
X694Y410D01*
X694Y409D01*
X695Y409D01*
X695Y407D01*
X696Y407D01*
X696Y405D01*
X697Y405D01*
X697Y404D01*
X698Y404D01*
X698Y402D01*
X699Y402D01*
X699Y400D01*
X700Y400D01*
X700Y398D01*
X701Y398D01*
X701Y397D01*
X702Y397D01*
X702Y396D01*
X705Y396D01*
X705Y397D01*
X706Y397D01*
X706Y398D01*
X707Y398D01*
X707Y401D01*
X706Y401D01*
X706Y403D01*
X705Y403D01*
X705Y405D01*
X704Y405D01*
X704Y406D01*
X703Y406D01*
X703Y408D01*
X702Y408D01*
X702Y410D01*
X701Y410D01*
X701Y412D01*
X700Y412D01*
X700Y413D01*
X699Y413D01*
X699Y415D01*
X698Y415D01*
X698Y417D01*
X697Y417D01*
X697Y418D01*
X696Y418D01*
X696Y420D01*
X695Y420D01*
X695Y422D01*
X694Y422D01*
X694Y424D01*
X700Y424D01*
X700Y425D01*
X702Y425D01*
X702Y426D01*
X704Y426D01*
X704Y427D01*
X705Y427D01*
X705Y429D01*
X706Y429D01*
X706Y430D01*
X674Y430D01*
G37*
D02*
G36*
X674Y424D02*
X674Y398D01*
X675Y398D01*
X675Y397D01*
X676Y397D01*
X676Y396D01*
X679Y396D01*
X679Y397D01*
X680Y397D01*
X680Y398D01*
X681Y398D01*
X681Y424D01*
X674Y424D01*
G37*
D02*
G36*
X1155Y448D02*
X1155Y441D01*
X1180Y441D01*
X1180Y440D01*
X1181Y440D01*
X1181Y432D01*
X1179Y432D01*
X1179Y431D01*
X1188Y431D01*
X1188Y441D01*
X1187Y441D01*
X1187Y443D01*
X1186Y443D01*
X1186Y445D01*
X1185Y445D01*
X1185Y446D01*
X1183Y446D01*
X1183Y447D01*
X1181Y447D01*
X1181Y448D01*
X1155Y448D01*
G37*
D02*
G36*
X1155Y441D02*
X1155Y431D01*
X1162Y431D01*
X1162Y441D01*
X1155Y441D01*
G37*
D02*
G36*
X1155Y431D02*
X1155Y430D01*
X1187Y430D01*
X1187Y431D01*
X1155Y431D01*
G37*
D02*
G36*
X1155Y431D02*
X1155Y430D01*
X1187Y430D01*
X1187Y431D01*
X1155Y431D01*
G37*
D02*
G36*
X1155Y430D02*
X1155Y425D01*
X1166Y425D01*
X1166Y424D01*
X1167Y424D01*
X1167Y423D01*
X1168Y423D01*
X1168Y421D01*
X1169Y421D01*
X1169Y419D01*
X1170Y419D01*
X1170Y418D01*
X1171Y418D01*
X1171Y416D01*
X1172Y416D01*
X1172Y414D01*
X1173Y414D01*
X1173Y413D01*
X1174Y413D01*
X1174Y411D01*
X1175Y411D01*
X1175Y409D01*
X1176Y409D01*
X1176Y407D01*
X1177Y407D01*
X1177Y406D01*
X1178Y406D01*
X1178Y404D01*
X1179Y404D01*
X1179Y402D01*
X1180Y402D01*
X1180Y401D01*
X1181Y401D01*
X1181Y399D01*
X1182Y399D01*
X1182Y398D01*
X1183Y398D01*
X1183Y397D01*
X1187Y397D01*
X1187Y398D01*
X1188Y398D01*
X1188Y402D01*
X1187Y402D01*
X1187Y403D01*
X1186Y403D01*
X1186Y405D01*
X1185Y405D01*
X1185Y407D01*
X1184Y407D01*
X1184Y409D01*
X1183Y409D01*
X1183Y410D01*
X1182Y410D01*
X1182Y412D01*
X1181Y412D01*
X1181Y414D01*
X1180Y414D01*
X1180Y415D01*
X1179Y415D01*
X1179Y417D01*
X1178Y417D01*
X1178Y419D01*
X1177Y419D01*
X1177Y421D01*
X1176Y421D01*
X1176Y422D01*
X1175Y422D01*
X1175Y425D01*
X1182Y425D01*
X1182Y426D01*
X1184Y426D01*
X1184Y427D01*
X1185Y427D01*
X1185Y428D01*
X1186Y428D01*
X1186Y429D01*
X1187Y429D01*
X1187Y430D01*
X1155Y430D01*
G37*
D02*
G36*
X1155Y425D02*
X1155Y399D01*
X1156Y399D01*
X1156Y397D01*
X1161Y397D01*
X1161Y399D01*
X1162Y399D01*
X1162Y425D01*
X1155Y425D01*
G37*
D02*
G36*
X1206Y448D02*
X1206Y447D01*
X1205Y447D01*
X1205Y413D01*
X1231Y413D01*
X1231Y403D01*
X1238Y403D01*
X1238Y418D01*
X1237Y418D01*
X1237Y419D01*
X1236Y419D01*
X1236Y420D01*
X1212Y420D01*
X1212Y442D01*
X1214Y442D01*
X1214Y443D01*
X1215Y443D01*
X1215Y446D01*
X1214Y446D01*
X1214Y447D01*
X1213Y447D01*
X1213Y448D01*
X1206Y448D01*
G37*
D02*
G36*
X1205Y413D02*
X1205Y403D01*
X1212Y403D01*
X1212Y413D01*
X1205Y413D01*
G37*
D02*
G36*
X1205Y403D02*
X1205Y402D01*
X1238Y402D01*
X1238Y403D01*
X1205Y403D01*
G37*
D02*
G36*
X1205Y403D02*
X1205Y402D01*
X1238Y402D01*
X1238Y403D01*
X1205Y403D01*
G37*
D02*
G36*
X1205Y402D02*
X1205Y398D01*
X1206Y398D01*
X1206Y397D01*
X1236Y397D01*
X1236Y398D01*
X1237Y398D01*
X1237Y399D01*
X1238Y399D01*
X1238Y402D01*
X1205Y402D01*
G37*
D02*
G36*
X727Y447D02*
X727Y446D01*
X726Y446D01*
X726Y420D01*
X732Y420D01*
X732Y446D01*
X731Y446D01*
X731Y447D01*
X727Y447D01*
G37*
D02*
G36*
X747Y442D02*
X747Y441D01*
X746Y441D01*
X746Y440D01*
X745Y440D01*
X745Y420D01*
X752Y420D01*
X752Y440D01*
X751Y440D01*
X751Y441D01*
X750Y441D01*
X750Y442D01*
X747Y442D01*
G37*
D02*
G36*
X726Y420D02*
X726Y419D01*
X752Y419D01*
X752Y420D01*
X726Y420D01*
G37*
D02*
G36*
X726Y420D02*
X726Y419D01*
X752Y419D01*
X752Y420D01*
X726Y420D01*
G37*
D02*
G36*
X726Y419D02*
X726Y413D01*
X745Y413D01*
X745Y398D01*
X746Y398D01*
X746Y397D01*
X747Y397D01*
X747Y396D01*
X750Y396D01*
X750Y397D01*
X751Y397D01*
X751Y398D01*
X752Y398D01*
X752Y413D01*
X754Y413D01*
X754Y414D01*
X755Y414D01*
X755Y418D01*
X754Y418D01*
X754Y419D01*
X726Y419D01*
G37*
D02*
G36*
X1649Y447D02*
X1649Y440D01*
X1673Y440D01*
X1673Y439D01*
X1674Y439D01*
X1674Y438D01*
X1675Y438D01*
X1675Y432D01*
X1674Y432D01*
X1674Y431D01*
X1673Y431D01*
X1673Y430D01*
X1681Y430D01*
X1681Y441D01*
X1680Y441D01*
X1680Y443D01*
X1679Y443D01*
X1679Y444D01*
X1678Y444D01*
X1678Y445D01*
X1676Y445D01*
X1676Y446D01*
X1674Y446D01*
X1674Y447D01*
X1649Y447D01*
G37*
D02*
G36*
X1649Y440D02*
X1649Y430D01*
X1655Y430D01*
X1655Y440D01*
X1649Y440D01*
G37*
D02*
G36*
X1649Y430D02*
X1649Y429D01*
X1681Y429D01*
X1681Y430D01*
X1649Y430D01*
G37*
D02*
G36*
X1649Y430D02*
X1649Y429D01*
X1681Y429D01*
X1681Y430D01*
X1649Y430D01*
G37*
D02*
G36*
X1649Y429D02*
X1649Y423D01*
X1660Y423D01*
X1660Y422D01*
X1661Y422D01*
X1661Y421D01*
X1662Y421D01*
X1662Y419D01*
X1663Y419D01*
X1663Y417D01*
X1664Y417D01*
X1664Y415D01*
X1665Y415D01*
X1665Y414D01*
X1666Y414D01*
X1666Y412D01*
X1667Y412D01*
X1667Y410D01*
X1668Y410D01*
X1668Y409D01*
X1669Y409D01*
X1669Y407D01*
X1670Y407D01*
X1670Y405D01*
X1671Y405D01*
X1671Y403D01*
X1672Y403D01*
X1672Y402D01*
X1673Y402D01*
X1673Y400D01*
X1674Y400D01*
X1674Y398D01*
X1675Y398D01*
X1675Y397D01*
X1676Y397D01*
X1676Y396D01*
X1680Y396D01*
X1680Y397D01*
X1681Y397D01*
X1681Y401D01*
X1680Y401D01*
X1680Y403D01*
X1679Y403D01*
X1679Y405D01*
X1678Y405D01*
X1678Y406D01*
X1677Y406D01*
X1677Y408D01*
X1676Y408D01*
X1676Y410D01*
X1675Y410D01*
X1675Y411D01*
X1674Y411D01*
X1674Y413D01*
X1673Y413D01*
X1673Y415D01*
X1672Y415D01*
X1672Y417D01*
X1671Y417D01*
X1671Y418D01*
X1670Y418D01*
X1670Y420D01*
X1669Y420D01*
X1669Y422D01*
X1668Y422D01*
X1668Y423D01*
X1672Y423D01*
X1672Y424D01*
X1676Y424D01*
X1676Y425D01*
X1677Y425D01*
X1677Y426D01*
X1679Y426D01*
X1679Y428D01*
X1680Y428D01*
X1680Y429D01*
X1649Y429D01*
G37*
D02*
G36*
X1649Y423D02*
X1649Y397D01*
X1650Y397D01*
X1650Y396D01*
X1654Y396D01*
X1654Y397D01*
X1655Y397D01*
X1655Y423D01*
X1649Y423D01*
G37*
D02*
G36*
X1707Y447D02*
X1707Y446D01*
X1705Y446D01*
X1705Y440D01*
X1718Y440D01*
X1718Y425D01*
X1724Y425D01*
X1724Y446D01*
X1723Y446D01*
X1723Y447D01*
X1707Y447D01*
G37*
D02*
G36*
X1705Y440D02*
X1705Y425D01*
X1711Y425D01*
X1711Y440D01*
X1705Y440D01*
G37*
D02*
G36*
X1704Y425D02*
X1704Y424D01*
X1725Y424D01*
X1725Y425D01*
X1704Y425D01*
G37*
D02*
G36*
X1704Y425D02*
X1704Y424D01*
X1725Y424D01*
X1725Y425D01*
X1704Y425D01*
G37*
D02*
G36*
X1701Y424D02*
X1701Y423D01*
X1700Y423D01*
X1700Y422D01*
X1699Y422D01*
X1699Y420D01*
X1698Y420D01*
X1698Y418D01*
X1724Y418D01*
X1724Y402D01*
X1731Y402D01*
X1731Y420D01*
X1730Y420D01*
X1730Y422D01*
X1729Y422D01*
X1729Y423D01*
X1728Y423D01*
X1728Y424D01*
X1701Y424D01*
G37*
D02*
G36*
X1698Y418D02*
X1698Y402D01*
X1705Y402D01*
X1705Y418D01*
X1698Y418D01*
G37*
D02*
G36*
X1698Y402D02*
X1698Y401D01*
X1731Y401D01*
X1731Y402D01*
X1698Y402D01*
G37*
D02*
G36*
X1698Y402D02*
X1698Y401D01*
X1731Y401D01*
X1731Y402D01*
X1698Y402D01*
G37*
D02*
G36*
X1698Y401D02*
X1698Y400D01*
X1699Y400D01*
X1699Y398D01*
X1700Y398D01*
X1700Y397D01*
X1701Y397D01*
X1701Y396D01*
X1728Y396D01*
X1728Y397D01*
X1729Y397D01*
X1729Y398D01*
X1730Y398D01*
X1730Y400D01*
X1731Y400D01*
X1731Y401D01*
X1698Y401D01*
G37*
D02*
G36*
X1894Y443D02*
X1894Y442D01*
X1893Y442D01*
X1893Y441D01*
X1892Y441D01*
X1892Y440D01*
X1891Y440D01*
X1891Y426D01*
X1895Y426D01*
X1895Y438D01*
X1896Y438D01*
X1896Y439D01*
X1898Y439D01*
X1898Y440D01*
X1899Y440D01*
X1899Y442D01*
X1898Y442D01*
X1898Y443D01*
X1894Y443D01*
G37*
D02*
G36*
X1917Y443D02*
X1917Y442D01*
X1916Y442D01*
X1916Y441D01*
X1915Y441D01*
X1915Y440D01*
X1913Y440D01*
X1913Y439D01*
X1920Y439D01*
X1920Y427D01*
X1919Y427D01*
X1919Y426D01*
X1917Y426D01*
X1917Y425D01*
X1916Y425D01*
X1916Y423D01*
X1917Y423D01*
X1917Y422D01*
X1921Y422D01*
X1921Y423D01*
X1923Y423D01*
X1923Y425D01*
X1924Y425D01*
X1924Y441D01*
X1923Y441D01*
X1923Y442D01*
X1922Y442D01*
X1922Y443D01*
X1917Y443D01*
G37*
D02*
G36*
X1912Y439D02*
X1912Y438D01*
X1911Y438D01*
X1911Y437D01*
X1909Y437D01*
X1909Y436D01*
X1908Y436D01*
X1908Y435D01*
X1907Y435D01*
X1907Y434D01*
X1906Y434D01*
X1906Y433D01*
X1904Y433D01*
X1904Y432D01*
X1903Y432D01*
X1903Y431D01*
X1902Y431D01*
X1902Y430D01*
X1900Y430D01*
X1900Y429D01*
X1899Y429D01*
X1899Y428D01*
X1898Y428D01*
X1898Y427D01*
X1897Y427D01*
X1897Y426D01*
X1904Y426D01*
X1904Y427D01*
X1905Y427D01*
X1905Y428D01*
X1906Y428D01*
X1906Y429D01*
X1907Y429D01*
X1907Y430D01*
X1909Y430D01*
X1909Y431D01*
X1910Y431D01*
X1910Y432D01*
X1911Y432D01*
X1911Y433D01*
X1913Y433D01*
X1913Y434D01*
X1914Y434D01*
X1914Y435D01*
X1915Y435D01*
X1915Y436D01*
X1916Y436D01*
X1916Y437D01*
X1918Y437D01*
X1918Y438D01*
X1919Y438D01*
X1919Y439D01*
X1912Y439D01*
G37*
D02*
G36*
X1891Y426D02*
X1891Y425D01*
X1902Y425D01*
X1902Y426D01*
X1891Y426D01*
G37*
D02*
G36*
X1891Y426D02*
X1891Y425D01*
X1902Y425D01*
X1902Y426D01*
X1891Y426D01*
G37*
D02*
G36*
X1892Y425D02*
X1892Y423D01*
X1893Y423D01*
X1893Y422D01*
X1898Y422D01*
X1898Y423D01*
X1900Y423D01*
X1900Y424D01*
X1901Y424D01*
X1901Y425D01*
X1892Y425D01*
G37*
D02*
G36*
X136Y429D02*
X136Y419D01*
X170Y419D01*
X170Y429D01*
X136Y429D01*
G37*
D02*
G36*
X320Y429D02*
X320Y419D01*
X355Y419D01*
X355Y429D01*
X320Y429D01*
G37*
D02*
G36*
X600Y428D02*
X600Y418D01*
X634Y418D01*
X634Y427D01*
X633Y427D01*
X633Y428D01*
X600Y428D01*
G37*
D02*
G36*
X784Y428D02*
X784Y427D01*
X783Y427D01*
X783Y418D01*
X819Y418D01*
X819Y423D01*
X818Y423D01*
X818Y424D01*
X819Y424D01*
X819Y428D01*
X784Y428D01*
G37*
D02*
G36*
X1079Y428D02*
X1079Y418D01*
X1113Y418D01*
X1113Y428D01*
X1079Y428D01*
G37*
D02*
G36*
X1263Y428D02*
X1263Y418D01*
X1298Y418D01*
X1298Y428D01*
X1263Y428D01*
G37*
D02*
G36*
X1572Y428D02*
X1572Y418D01*
X1606Y418D01*
X1606Y428D01*
X1572Y428D01*
G37*
D02*
G36*
X1756Y428D02*
X1756Y418D01*
X1792Y418D01*
X1792Y419D01*
X1791Y419D01*
X1791Y428D01*
X1756Y428D01*
G37*
D02*
G36*
X1916Y379D02*
X1916Y378D01*
X1904Y378D01*
X1904Y377D01*
X1902Y377D01*
X1902Y376D01*
X1901Y376D01*
X1901Y374D01*
X1900Y374D01*
X1900Y367D01*
X1901Y367D01*
X1901Y365D01*
X1902Y365D01*
X1902Y364D01*
X1903Y364D01*
X1903Y362D01*
X1901Y362D01*
X1901Y361D01*
X1900Y361D01*
X1900Y358D01*
X1912Y358D01*
X1912Y357D01*
X1913Y357D01*
X1913Y358D01*
X1924Y358D01*
X1924Y361D01*
X1923Y361D01*
X1923Y362D01*
X1908Y362D01*
X1908Y364D01*
X1907Y364D01*
X1907Y365D01*
X1906Y365D01*
X1906Y367D01*
X1905Y367D01*
X1905Y369D01*
X1904Y369D01*
X1904Y372D01*
X1905Y372D01*
X1905Y374D01*
X1923Y374D01*
X1923Y375D01*
X1924Y375D01*
X1924Y378D01*
X1923Y378D01*
X1923Y379D01*
X1916Y379D01*
G37*
D02*
G36*
X1907Y347D02*
X1907Y346D01*
X1904Y346D01*
X1904Y345D01*
X1903Y345D01*
X1903Y344D01*
X1902Y344D01*
X1902Y343D01*
X1901Y343D01*
X1901Y342D01*
X1918Y342D01*
X1918Y341D01*
X1919Y341D01*
X1919Y340D01*
X1920Y340D01*
X1920Y332D01*
X1919Y332D01*
X1919Y331D01*
X1918Y331D01*
X1918Y330D01*
X1924Y330D01*
X1924Y342D01*
X1923Y342D01*
X1923Y343D01*
X1922Y343D01*
X1922Y344D01*
X1921Y344D01*
X1921Y345D01*
X1920Y345D01*
X1920Y346D01*
X1918Y346D01*
X1918Y347D01*
X1907Y347D01*
G37*
D02*
G36*
X1901Y342D02*
X1901Y341D01*
X1900Y341D01*
X1900Y331D01*
X1901Y331D01*
X1901Y330D01*
X1906Y330D01*
X1906Y331D01*
X1905Y331D01*
X1905Y333D01*
X1904Y333D01*
X1904Y339D01*
X1905Y339D01*
X1905Y341D01*
X1906Y341D01*
X1906Y342D01*
X1901Y342D01*
G37*
D02*
G36*
X1901Y330D02*
X1901Y329D01*
X1923Y329D01*
X1923Y330D01*
X1901Y330D01*
G37*
D02*
G36*
X1901Y330D02*
X1901Y329D01*
X1923Y329D01*
X1923Y330D01*
X1901Y330D01*
G37*
D02*
G36*
X1902Y329D02*
X1902Y328D01*
X1903Y328D01*
X1903Y327D01*
X1904Y327D01*
X1904Y326D01*
X1907Y326D01*
X1907Y325D01*
X1918Y325D01*
X1918Y326D01*
X1920Y326D01*
X1920Y327D01*
X1921Y327D01*
X1921Y328D01*
X1922Y328D01*
X1922Y329D01*
X1902Y329D01*
G37*
D02*
G36*
X1914Y315D02*
X1914Y314D01*
X1903Y314D01*
X1903Y313D01*
X1901Y313D01*
X1901Y311D01*
X1900Y311D01*
X1900Y307D01*
X1901Y307D01*
X1901Y306D01*
X1902Y306D01*
X1902Y304D01*
X1901Y304D01*
X1901Y303D01*
X1900Y303D01*
X1900Y299D01*
X1901Y299D01*
X1901Y296D01*
X1900Y296D01*
X1900Y294D01*
X1901Y294D01*
X1901Y293D01*
X1924Y293D01*
X1924Y297D01*
X1907Y297D01*
X1907Y298D01*
X1906Y298D01*
X1906Y299D01*
X1905Y299D01*
X1905Y300D01*
X1904Y300D01*
X1904Y301D01*
X1905Y301D01*
X1905Y302D01*
X1924Y302D01*
X1924Y305D01*
X1923Y305D01*
X1923Y306D01*
X1906Y306D01*
X1906Y308D01*
X1905Y308D01*
X1905Y310D01*
X1922Y310D01*
X1922Y311D01*
X1924Y311D01*
X1924Y314D01*
X1923Y314D01*
X1923Y315D01*
X1914Y315D01*
G37*
D02*
G36*
X1921Y280D02*
X1921Y279D01*
X1920Y279D01*
X1920Y274D01*
X1901Y274D01*
X1901Y273D01*
X1900Y273D01*
X1900Y270D01*
X1920Y270D01*
X1920Y264D01*
X1921Y264D01*
X1921Y263D01*
X1923Y263D01*
X1923Y264D01*
X1924Y264D01*
X1924Y280D01*
X1921Y280D01*
G37*
D02*
G36*
X1900Y270D02*
X1900Y264D01*
X1901Y264D01*
X1901Y263D01*
X1903Y263D01*
X1903Y264D01*
X1904Y264D01*
X1904Y269D01*
X1905Y269D01*
X1905Y270D01*
X1900Y270D01*
G37*
D02*
G36*
X1890Y274D02*
X1890Y273D01*
X1889Y273D01*
X1889Y269D01*
X1890Y269D01*
X1890Y268D01*
X1891Y268D01*
X1891Y267D01*
X1894Y267D01*
X1894Y268D01*
X1895Y268D01*
X1895Y273D01*
X1894Y273D01*
X1894Y274D01*
X1890Y274D01*
G37*
D02*
G36*
X1894Y250D02*
X1894Y249D01*
X1893Y249D01*
X1893Y248D01*
X1892Y248D01*
X1892Y247D01*
X1891Y247D01*
X1891Y234D01*
X1895Y234D01*
X1895Y245D01*
X1896Y245D01*
X1896Y246D01*
X1898Y246D01*
X1898Y247D01*
X1899Y247D01*
X1899Y249D01*
X1898Y249D01*
X1898Y250D01*
X1894Y250D01*
G37*
D02*
G36*
X1917Y250D02*
X1917Y249D01*
X1916Y249D01*
X1916Y248D01*
X1914Y248D01*
X1914Y247D01*
X1913Y247D01*
X1913Y246D01*
X1920Y246D01*
X1920Y234D01*
X1919Y234D01*
X1919Y233D01*
X1917Y233D01*
X1917Y232D01*
X1916Y232D01*
X1916Y230D01*
X1917Y230D01*
X1917Y229D01*
X1921Y229D01*
X1921Y230D01*
X1922Y230D01*
X1922Y231D01*
X1923Y231D01*
X1923Y232D01*
X1924Y232D01*
X1924Y248D01*
X1923Y248D01*
X1923Y249D01*
X1922Y249D01*
X1922Y250D01*
X1917Y250D01*
G37*
D02*
G36*
X1912Y246D02*
X1912Y245D01*
X1910Y245D01*
X1910Y244D01*
X1909Y244D01*
X1909Y243D01*
X1908Y243D01*
X1908Y242D01*
X1907Y242D01*
X1907Y241D01*
X1905Y241D01*
X1905Y240D01*
X1904Y240D01*
X1904Y239D01*
X1903Y239D01*
X1903Y238D01*
X1901Y238D01*
X1901Y237D01*
X1900Y237D01*
X1900Y236D01*
X1899Y236D01*
X1899Y235D01*
X1898Y235D01*
X1898Y234D01*
X1905Y234D01*
X1905Y235D01*
X1906Y235D01*
X1906Y236D01*
X1907Y236D01*
X1907Y237D01*
X1908Y237D01*
X1908Y238D01*
X1910Y238D01*
X1910Y239D01*
X1911Y239D01*
X1911Y240D01*
X1912Y240D01*
X1912Y241D01*
X1914Y241D01*
X1914Y242D01*
X1915Y242D01*
X1915Y243D01*
X1916Y243D01*
X1916Y244D01*
X1917Y244D01*
X1917Y245D01*
X1919Y245D01*
X1919Y246D01*
X1912Y246D01*
G37*
D02*
G36*
X1891Y234D02*
X1891Y233D01*
X1903Y233D01*
X1903Y234D01*
X1891Y234D01*
G37*
D02*
G36*
X1891Y234D02*
X1891Y233D01*
X1903Y233D01*
X1903Y234D01*
X1891Y234D01*
G37*
D02*
G36*
X1891Y233D02*
X1891Y232D01*
X1892Y232D01*
X1892Y230D01*
X1894Y230D01*
X1894Y229D01*
X1898Y229D01*
X1898Y230D01*
X1899Y230D01*
X1899Y231D01*
X1901Y231D01*
X1901Y232D01*
X1902Y232D01*
X1902Y233D01*
X1891Y233D01*
G37*
D02*
G54D12*
X1605Y1159D02*
X1593Y1159D01*
D02*
X1685Y1159D02*
X1673Y1159D01*
D02*
G04 End of Silk1*
M02*