G04 MADE WITH FRITZING*
G04 WWW.FRITZING.ORG*
G04 DOUBLE SIDED*
G04 HOLES PLATED*
G04 CONTOUR ON CENTER OF CONTOUR VECTOR*
%ASAXBY*%
%FSLAX23Y23*%
%MOIN*%
%OFA0B0*%
%SFA1.0B1.0*%
%ADD10C,0.075000*%
%ADD11C,0.062992*%
%ADD12C,0.078000*%
%ADD13C,0.078833*%
%ADD14R,0.075000X0.075000*%
%ADD15R,0.062992X0.062992*%
%ADD16R,0.078819X0.078847*%
%ADD17C,0.024000*%
%LNCOPPER1*%
G90*
G70*
G54D10*
X111Y1256D03*
X1277Y797D03*
X235Y529D03*
X1650Y514D03*
X1838Y872D03*
X1346Y1238D03*
X1346Y938D03*
X1246Y1238D03*
X1246Y938D03*
X1146Y1238D03*
X1146Y938D03*
X1046Y1238D03*
X1046Y938D03*
X946Y1238D03*
X946Y938D03*
X846Y1238D03*
X846Y938D03*
X746Y1238D03*
X746Y938D03*
G54D11*
X1254Y684D03*
X1156Y684D03*
X758Y685D03*
X659Y685D03*
X292Y682D03*
X194Y682D03*
X1748Y687D03*
X1649Y687D03*
G54D10*
X839Y95D03*
X583Y95D03*
X839Y272D03*
X583Y272D03*
X1315Y97D03*
X1059Y97D03*
X1315Y275D03*
X1059Y275D03*
X1806Y97D03*
X1550Y97D03*
X1806Y274D03*
X1550Y274D03*
X367Y94D03*
X111Y94D03*
X367Y271D03*
X111Y271D03*
X1530Y538D03*
X1830Y538D03*
X1035Y537D03*
X1335Y537D03*
X558Y541D03*
X858Y541D03*
X1532Y423D03*
X1832Y423D03*
X1039Y423D03*
X1339Y423D03*
X559Y423D03*
X859Y423D03*
X96Y424D03*
X396Y424D03*
X92Y535D03*
X392Y535D03*
G54D12*
X1818Y1046D03*
X1818Y1146D03*
G54D11*
X1639Y1044D03*
X1639Y1142D03*
G54D10*
X1598Y1307D03*
X1898Y1307D03*
G54D13*
X291Y976D03*
X291Y1244D03*
G54D14*
X1346Y1238D03*
G54D15*
X1254Y684D03*
X758Y685D03*
X292Y682D03*
X1748Y687D03*
G54D14*
X1530Y538D03*
X1035Y537D03*
X558Y541D03*
X1532Y423D03*
X1039Y423D03*
X559Y423D03*
X96Y424D03*
X92Y535D03*
G54D15*
X1639Y1044D03*
G54D14*
X1598Y1307D03*
G54D16*
X291Y976D03*
G54D17*
X1146Y913D02*
X1145Y877D01*
D02*
X1145Y877D02*
X926Y664D01*
D02*
X926Y664D02*
X926Y487D01*
D02*
X926Y487D02*
X877Y440D01*
D02*
X1247Y913D02*
X1247Y901D01*
D02*
X1247Y901D02*
X968Y623D01*
D02*
X968Y417D02*
X886Y336D01*
D02*
X968Y623D02*
X968Y417D01*
D02*
X886Y336D02*
X479Y337D01*
D02*
X479Y337D02*
X413Y406D01*
D02*
X847Y1213D02*
X847Y1192D01*
D02*
X890Y1149D02*
X1420Y1150D01*
D02*
X847Y1192D02*
X890Y1149D01*
D02*
X1420Y1150D02*
X1830Y740D01*
D02*
X1830Y740D02*
X1830Y563D01*
D02*
X1525Y274D02*
X1339Y275D01*
D02*
X1799Y1163D02*
X1718Y1237D01*
D02*
X1718Y1237D02*
X1371Y1238D01*
D02*
X748Y873D02*
X858Y767D01*
D02*
X747Y913D02*
X748Y873D01*
D02*
X858Y767D02*
X858Y566D01*
D02*
X1353Y554D02*
X1557Y757D01*
D02*
X1559Y955D02*
X1406Y1107D01*
D02*
X1557Y757D02*
X1559Y955D01*
D02*
X820Y1108D02*
X747Y1180D01*
D02*
X1406Y1107D02*
X820Y1108D01*
D02*
X747Y1180D02*
X747Y1213D01*
D02*
X1344Y973D02*
X1300Y1022D01*
D02*
X1345Y963D02*
X1344Y973D01*
D02*
X720Y1023D02*
X661Y968D01*
D02*
X661Y968D02*
X661Y907D01*
D02*
X1300Y1022D02*
X720Y1023D01*
D02*
X661Y907D02*
X822Y746D01*
D02*
X822Y623D02*
X621Y423D01*
D02*
X822Y746D02*
X822Y623D01*
D02*
X621Y423D02*
X584Y423D01*
D02*
X112Y140D02*
X112Y119D01*
D02*
X378Y406D02*
X112Y140D01*
D02*
X392Y271D02*
X558Y272D01*
D02*
X1898Y1012D02*
X1854Y967D01*
D02*
X1728Y967D02*
X1656Y1029D01*
D02*
X1854Y967D02*
X1728Y967D01*
D02*
X1898Y1282D02*
X1898Y1012D01*
D02*
X1410Y1307D02*
X1573Y1307D01*
D02*
X1363Y1256D02*
X1410Y1307D01*
D02*
X1668Y1140D02*
X1662Y1141D01*
D02*
X1763Y1050D02*
X1668Y1140D01*
D02*
X1792Y1048D02*
X1763Y1050D01*
D02*
X194Y642D02*
X109Y553D01*
D02*
X194Y659D02*
X194Y642D01*
D02*
X681Y753D02*
X740Y700D01*
D02*
X357Y753D02*
X681Y753D01*
D02*
X308Y699D02*
X357Y753D01*
D02*
X657Y633D02*
X576Y558D01*
D02*
X658Y662D02*
X657Y633D01*
D02*
X1255Y340D02*
X1254Y661D01*
D02*
X1298Y293D02*
X1255Y340D01*
D02*
X1648Y649D02*
X1648Y664D01*
D02*
X1548Y555D02*
X1648Y649D01*
D02*
X1745Y469D02*
X1567Y292D01*
D02*
X1747Y664D02*
X1745Y469D01*
D02*
X291Y951D02*
X292Y705D01*
G36*
X40Y1336D02*
X40Y1316D01*
X308Y1316D01*
X308Y1314D01*
X314Y1314D01*
X314Y1312D01*
X320Y1312D01*
X320Y1310D01*
X324Y1310D01*
X324Y1308D01*
X1162Y1308D01*
X1162Y1306D01*
X1170Y1306D01*
X1170Y1304D01*
X1174Y1304D01*
X1174Y1302D01*
X1178Y1302D01*
X1178Y1300D01*
X1182Y1300D01*
X1182Y1298D01*
X1184Y1298D01*
X1184Y1296D01*
X1208Y1296D01*
X1208Y1298D01*
X1210Y1298D01*
X1210Y1300D01*
X1214Y1300D01*
X1214Y1302D01*
X1218Y1302D01*
X1218Y1304D01*
X1222Y1304D01*
X1222Y1306D01*
X1230Y1306D01*
X1230Y1308D01*
X1348Y1308D01*
X1348Y1310D01*
X1350Y1310D01*
X1350Y1312D01*
X1352Y1312D01*
X1352Y1314D01*
X1354Y1314D01*
X1354Y1316D01*
X1356Y1316D01*
X1356Y1336D01*
X40Y1336D01*
G37*
D02*
G36*
X40Y1316D02*
X40Y1174D01*
X272Y1174D01*
X272Y1176D01*
X266Y1176D01*
X266Y1178D01*
X262Y1178D01*
X262Y1180D01*
X258Y1180D01*
X258Y1182D01*
X254Y1182D01*
X254Y1184D01*
X252Y1184D01*
X252Y1186D01*
X248Y1186D01*
X248Y1188D01*
X246Y1188D01*
X246Y1190D01*
X244Y1190D01*
X244Y1192D01*
X242Y1192D01*
X242Y1194D01*
X240Y1194D01*
X240Y1196D01*
X238Y1196D01*
X238Y1198D01*
X236Y1198D01*
X236Y1200D01*
X234Y1200D01*
X234Y1202D01*
X232Y1202D01*
X232Y1206D01*
X230Y1206D01*
X230Y1208D01*
X228Y1208D01*
X228Y1212D01*
X226Y1212D01*
X226Y1216D01*
X224Y1216D01*
X224Y1222D01*
X222Y1222D01*
X222Y1228D01*
X220Y1228D01*
X220Y1260D01*
X222Y1260D01*
X222Y1268D01*
X224Y1268D01*
X224Y1272D01*
X226Y1272D01*
X226Y1278D01*
X228Y1278D01*
X228Y1280D01*
X230Y1280D01*
X230Y1284D01*
X232Y1284D01*
X232Y1286D01*
X234Y1286D01*
X234Y1288D01*
X236Y1288D01*
X236Y1292D01*
X238Y1292D01*
X238Y1294D01*
X240Y1294D01*
X240Y1296D01*
X242Y1296D01*
X242Y1298D01*
X244Y1298D01*
X244Y1300D01*
X248Y1300D01*
X248Y1302D01*
X250Y1302D01*
X250Y1304D01*
X252Y1304D01*
X252Y1306D01*
X256Y1306D01*
X256Y1308D01*
X258Y1308D01*
X258Y1310D01*
X262Y1310D01*
X262Y1312D01*
X268Y1312D01*
X268Y1314D01*
X276Y1314D01*
X276Y1316D01*
X40Y1316D01*
G37*
D02*
G36*
X328Y1308D02*
X328Y1306D01*
X330Y1306D01*
X330Y1304D01*
X334Y1304D01*
X334Y1302D01*
X336Y1302D01*
X336Y1300D01*
X338Y1300D01*
X338Y1298D01*
X340Y1298D01*
X340Y1296D01*
X342Y1296D01*
X342Y1294D01*
X344Y1294D01*
X344Y1292D01*
X346Y1292D01*
X346Y1290D01*
X348Y1290D01*
X348Y1288D01*
X350Y1288D01*
X350Y1284D01*
X352Y1284D01*
X352Y1282D01*
X354Y1282D01*
X354Y1278D01*
X356Y1278D01*
X356Y1274D01*
X358Y1274D01*
X358Y1270D01*
X360Y1270D01*
X360Y1264D01*
X362Y1264D01*
X362Y1224D01*
X360Y1224D01*
X360Y1218D01*
X358Y1218D01*
X358Y1214D01*
X356Y1214D01*
X356Y1210D01*
X354Y1210D01*
X354Y1208D01*
X352Y1208D01*
X352Y1204D01*
X350Y1204D01*
X350Y1202D01*
X348Y1202D01*
X348Y1200D01*
X346Y1200D01*
X346Y1196D01*
X344Y1196D01*
X344Y1194D01*
X342Y1194D01*
X342Y1192D01*
X340Y1192D01*
X340Y1190D01*
X336Y1190D01*
X336Y1188D01*
X334Y1188D01*
X334Y1186D01*
X332Y1186D01*
X332Y1184D01*
X328Y1184D01*
X328Y1182D01*
X326Y1182D01*
X326Y1180D01*
X322Y1180D01*
X322Y1178D01*
X318Y1178D01*
X318Y1176D01*
X312Y1176D01*
X312Y1174D01*
X704Y1174D01*
X704Y1180D01*
X702Y1180D01*
X702Y1186D01*
X700Y1186D01*
X700Y1188D01*
X698Y1188D01*
X698Y1190D01*
X696Y1190D01*
X696Y1192D01*
X694Y1192D01*
X694Y1194D01*
X692Y1194D01*
X692Y1196D01*
X690Y1196D01*
X690Y1198D01*
X688Y1198D01*
X688Y1202D01*
X686Y1202D01*
X686Y1204D01*
X684Y1204D01*
X684Y1208D01*
X682Y1208D01*
X682Y1212D01*
X680Y1212D01*
X680Y1218D01*
X678Y1218D01*
X678Y1228D01*
X676Y1228D01*
X676Y1250D01*
X678Y1250D01*
X678Y1260D01*
X680Y1260D01*
X680Y1264D01*
X682Y1264D01*
X682Y1270D01*
X684Y1270D01*
X684Y1272D01*
X686Y1272D01*
X686Y1276D01*
X688Y1276D01*
X688Y1278D01*
X690Y1278D01*
X690Y1282D01*
X692Y1282D01*
X692Y1284D01*
X694Y1284D01*
X694Y1286D01*
X696Y1286D01*
X696Y1288D01*
X698Y1288D01*
X698Y1290D01*
X700Y1290D01*
X700Y1292D01*
X702Y1292D01*
X702Y1294D01*
X704Y1294D01*
X704Y1296D01*
X708Y1296D01*
X708Y1298D01*
X710Y1298D01*
X710Y1300D01*
X714Y1300D01*
X714Y1302D01*
X718Y1302D01*
X718Y1304D01*
X722Y1304D01*
X722Y1306D01*
X730Y1306D01*
X730Y1308D01*
X328Y1308D01*
G37*
D02*
G36*
X762Y1308D02*
X762Y1306D01*
X770Y1306D01*
X770Y1304D01*
X774Y1304D01*
X774Y1302D01*
X778Y1302D01*
X778Y1300D01*
X782Y1300D01*
X782Y1298D01*
X784Y1298D01*
X784Y1296D01*
X808Y1296D01*
X808Y1298D01*
X810Y1298D01*
X810Y1300D01*
X814Y1300D01*
X814Y1302D01*
X818Y1302D01*
X818Y1304D01*
X822Y1304D01*
X822Y1306D01*
X830Y1306D01*
X830Y1308D01*
X762Y1308D01*
G37*
D02*
G36*
X862Y1308D02*
X862Y1306D01*
X870Y1306D01*
X870Y1304D01*
X874Y1304D01*
X874Y1302D01*
X878Y1302D01*
X878Y1300D01*
X882Y1300D01*
X882Y1298D01*
X884Y1298D01*
X884Y1296D01*
X908Y1296D01*
X908Y1298D01*
X910Y1298D01*
X910Y1300D01*
X914Y1300D01*
X914Y1302D01*
X918Y1302D01*
X918Y1304D01*
X922Y1304D01*
X922Y1306D01*
X930Y1306D01*
X930Y1308D01*
X862Y1308D01*
G37*
D02*
G36*
X962Y1308D02*
X962Y1306D01*
X970Y1306D01*
X970Y1304D01*
X974Y1304D01*
X974Y1302D01*
X978Y1302D01*
X978Y1300D01*
X982Y1300D01*
X982Y1298D01*
X984Y1298D01*
X984Y1296D01*
X1008Y1296D01*
X1008Y1298D01*
X1010Y1298D01*
X1010Y1300D01*
X1014Y1300D01*
X1014Y1302D01*
X1018Y1302D01*
X1018Y1304D01*
X1022Y1304D01*
X1022Y1306D01*
X1030Y1306D01*
X1030Y1308D01*
X962Y1308D01*
G37*
D02*
G36*
X1062Y1308D02*
X1062Y1306D01*
X1070Y1306D01*
X1070Y1304D01*
X1074Y1304D01*
X1074Y1302D01*
X1078Y1302D01*
X1078Y1300D01*
X1082Y1300D01*
X1082Y1298D01*
X1084Y1298D01*
X1084Y1296D01*
X1108Y1296D01*
X1108Y1298D01*
X1110Y1298D01*
X1110Y1300D01*
X1114Y1300D01*
X1114Y1302D01*
X1118Y1302D01*
X1118Y1304D01*
X1122Y1304D01*
X1122Y1306D01*
X1130Y1306D01*
X1130Y1308D01*
X1062Y1308D01*
G37*
D02*
G36*
X40Y1174D02*
X40Y1172D01*
X704Y1172D01*
X704Y1174D01*
X40Y1174D01*
G37*
D02*
G36*
X40Y1174D02*
X40Y1172D01*
X704Y1172D01*
X704Y1174D01*
X40Y1174D01*
G37*
D02*
G36*
X40Y1172D02*
X40Y1048D01*
X362Y1048D01*
X362Y906D01*
X336Y906D01*
X336Y798D01*
X684Y798D01*
X684Y818D01*
X682Y818D01*
X682Y820D01*
X680Y820D01*
X680Y822D01*
X678Y822D01*
X678Y824D01*
X676Y824D01*
X676Y826D01*
X674Y826D01*
X674Y828D01*
X672Y828D01*
X672Y830D01*
X670Y830D01*
X670Y832D01*
X668Y832D01*
X668Y834D01*
X666Y834D01*
X666Y836D01*
X664Y836D01*
X664Y838D01*
X662Y838D01*
X662Y840D01*
X660Y840D01*
X660Y842D01*
X658Y842D01*
X658Y844D01*
X656Y844D01*
X656Y846D01*
X654Y846D01*
X654Y848D01*
X652Y848D01*
X652Y850D01*
X650Y850D01*
X650Y852D01*
X648Y852D01*
X648Y854D01*
X646Y854D01*
X646Y856D01*
X644Y856D01*
X644Y858D01*
X642Y858D01*
X642Y860D01*
X640Y860D01*
X640Y862D01*
X638Y862D01*
X638Y864D01*
X636Y864D01*
X636Y866D01*
X634Y866D01*
X634Y868D01*
X632Y868D01*
X632Y870D01*
X630Y870D01*
X630Y872D01*
X628Y872D01*
X628Y874D01*
X626Y874D01*
X626Y878D01*
X624Y878D01*
X624Y880D01*
X622Y880D01*
X622Y884D01*
X620Y884D01*
X620Y888D01*
X618Y888D01*
X618Y896D01*
X616Y896D01*
X616Y980D01*
X618Y980D01*
X618Y988D01*
X620Y988D01*
X620Y992D01*
X622Y992D01*
X622Y996D01*
X624Y996D01*
X624Y998D01*
X626Y998D01*
X626Y1000D01*
X628Y1000D01*
X628Y1002D01*
X630Y1002D01*
X630Y1004D01*
X632Y1004D01*
X632Y1006D01*
X634Y1006D01*
X634Y1008D01*
X636Y1008D01*
X636Y1010D01*
X638Y1010D01*
X638Y1012D01*
X640Y1012D01*
X640Y1014D01*
X642Y1014D01*
X642Y1016D01*
X644Y1016D01*
X644Y1018D01*
X646Y1018D01*
X646Y1020D01*
X648Y1020D01*
X648Y1022D01*
X650Y1022D01*
X650Y1024D01*
X652Y1024D01*
X652Y1026D01*
X654Y1026D01*
X654Y1028D01*
X656Y1028D01*
X656Y1030D01*
X658Y1030D01*
X658Y1032D01*
X662Y1032D01*
X662Y1034D01*
X664Y1034D01*
X664Y1036D01*
X666Y1036D01*
X666Y1038D01*
X668Y1038D01*
X668Y1040D01*
X670Y1040D01*
X670Y1042D01*
X672Y1042D01*
X672Y1044D01*
X674Y1044D01*
X674Y1046D01*
X676Y1046D01*
X676Y1048D01*
X678Y1048D01*
X678Y1050D01*
X680Y1050D01*
X680Y1052D01*
X682Y1052D01*
X682Y1054D01*
X684Y1054D01*
X684Y1056D01*
X686Y1056D01*
X686Y1058D01*
X688Y1058D01*
X688Y1060D01*
X692Y1060D01*
X692Y1062D01*
X694Y1062D01*
X694Y1064D01*
X698Y1064D01*
X698Y1066D01*
X704Y1066D01*
X704Y1068D01*
X774Y1068D01*
X774Y1088D01*
X772Y1088D01*
X772Y1090D01*
X770Y1090D01*
X770Y1092D01*
X768Y1092D01*
X768Y1094D01*
X766Y1094D01*
X766Y1096D01*
X764Y1096D01*
X764Y1098D01*
X762Y1098D01*
X762Y1100D01*
X760Y1100D01*
X760Y1102D01*
X758Y1102D01*
X758Y1104D01*
X756Y1104D01*
X756Y1106D01*
X754Y1106D01*
X754Y1108D01*
X752Y1108D01*
X752Y1110D01*
X750Y1110D01*
X750Y1112D01*
X748Y1112D01*
X748Y1114D01*
X746Y1114D01*
X746Y1116D01*
X744Y1116D01*
X744Y1118D01*
X742Y1118D01*
X742Y1120D01*
X740Y1120D01*
X740Y1122D01*
X738Y1122D01*
X738Y1124D01*
X736Y1124D01*
X736Y1126D01*
X734Y1126D01*
X734Y1128D01*
X732Y1128D01*
X732Y1130D01*
X730Y1130D01*
X730Y1132D01*
X728Y1132D01*
X728Y1134D01*
X726Y1134D01*
X726Y1136D01*
X724Y1136D01*
X724Y1138D01*
X722Y1138D01*
X722Y1140D01*
X720Y1140D01*
X720Y1142D01*
X718Y1142D01*
X718Y1144D01*
X716Y1144D01*
X716Y1146D01*
X714Y1146D01*
X714Y1148D01*
X712Y1148D01*
X712Y1150D01*
X710Y1150D01*
X710Y1154D01*
X708Y1154D01*
X708Y1156D01*
X706Y1156D01*
X706Y1162D01*
X704Y1162D01*
X704Y1172D01*
X40Y1172D01*
G37*
D02*
G36*
X40Y1048D02*
X40Y604D01*
X94Y604D01*
X94Y606D01*
X96Y606D01*
X96Y608D01*
X98Y608D01*
X98Y610D01*
X100Y610D01*
X100Y612D01*
X102Y612D01*
X102Y614D01*
X104Y614D01*
X104Y616D01*
X106Y616D01*
X106Y618D01*
X108Y618D01*
X108Y622D01*
X110Y622D01*
X110Y624D01*
X112Y624D01*
X112Y626D01*
X114Y626D01*
X114Y628D01*
X116Y628D01*
X116Y630D01*
X118Y630D01*
X118Y632D01*
X120Y632D01*
X120Y634D01*
X122Y634D01*
X122Y636D01*
X124Y636D01*
X124Y638D01*
X126Y638D01*
X126Y640D01*
X128Y640D01*
X128Y642D01*
X130Y642D01*
X130Y644D01*
X132Y644D01*
X132Y668D01*
X130Y668D01*
X130Y698D01*
X132Y698D01*
X132Y704D01*
X134Y704D01*
X134Y710D01*
X136Y710D01*
X136Y714D01*
X138Y714D01*
X138Y716D01*
X140Y716D01*
X140Y720D01*
X142Y720D01*
X142Y722D01*
X144Y722D01*
X144Y724D01*
X146Y724D01*
X146Y726D01*
X148Y726D01*
X148Y728D01*
X150Y728D01*
X150Y730D01*
X152Y730D01*
X152Y732D01*
X154Y732D01*
X154Y734D01*
X156Y734D01*
X156Y736D01*
X160Y736D01*
X160Y738D01*
X162Y738D01*
X162Y740D01*
X166Y740D01*
X166Y742D01*
X170Y742D01*
X170Y744D01*
X176Y744D01*
X176Y746D01*
X248Y746D01*
X248Y906D01*
X220Y906D01*
X220Y1048D01*
X40Y1048D01*
G37*
D02*
G36*
X1668Y1336D02*
X1668Y1282D01*
X1732Y1282D01*
X1732Y1280D01*
X1740Y1280D01*
X1740Y1278D01*
X1744Y1278D01*
X1744Y1276D01*
X1746Y1276D01*
X1746Y1274D01*
X1750Y1274D01*
X1750Y1272D01*
X1752Y1272D01*
X1752Y1270D01*
X1754Y1270D01*
X1754Y1268D01*
X1756Y1268D01*
X1756Y1266D01*
X1758Y1266D01*
X1758Y1264D01*
X1760Y1264D01*
X1760Y1262D01*
X1762Y1262D01*
X1762Y1260D01*
X1764Y1260D01*
X1764Y1258D01*
X1766Y1258D01*
X1766Y1256D01*
X1768Y1256D01*
X1768Y1254D01*
X1770Y1254D01*
X1770Y1252D01*
X1774Y1252D01*
X1774Y1250D01*
X1776Y1250D01*
X1776Y1248D01*
X1778Y1248D01*
X1778Y1246D01*
X1780Y1246D01*
X1780Y1244D01*
X1782Y1244D01*
X1782Y1242D01*
X1784Y1242D01*
X1784Y1240D01*
X1786Y1240D01*
X1786Y1238D01*
X1788Y1238D01*
X1788Y1236D01*
X1790Y1236D01*
X1790Y1234D01*
X1792Y1234D01*
X1792Y1232D01*
X1794Y1232D01*
X1794Y1230D01*
X1798Y1230D01*
X1798Y1228D01*
X1800Y1228D01*
X1800Y1226D01*
X1802Y1226D01*
X1802Y1224D01*
X1804Y1224D01*
X1804Y1222D01*
X1806Y1222D01*
X1806Y1220D01*
X1808Y1220D01*
X1808Y1218D01*
X1830Y1218D01*
X1830Y1216D01*
X1854Y1216D01*
X1854Y1254D01*
X1852Y1254D01*
X1852Y1256D01*
X1850Y1256D01*
X1850Y1258D01*
X1848Y1258D01*
X1848Y1260D01*
X1846Y1260D01*
X1846Y1262D01*
X1844Y1262D01*
X1844Y1264D01*
X1842Y1264D01*
X1842Y1268D01*
X1840Y1268D01*
X1840Y1270D01*
X1838Y1270D01*
X1838Y1274D01*
X1836Y1274D01*
X1836Y1278D01*
X1834Y1278D01*
X1834Y1282D01*
X1832Y1282D01*
X1832Y1286D01*
X1830Y1286D01*
X1830Y1296D01*
X1828Y1296D01*
X1828Y1336D01*
X1668Y1336D01*
G37*
D02*
G36*
X1462Y1194D02*
X1462Y1174D01*
X1464Y1174D01*
X1464Y1172D01*
X1466Y1172D01*
X1466Y1170D01*
X1468Y1170D01*
X1468Y1168D01*
X1470Y1168D01*
X1470Y1166D01*
X1472Y1166D01*
X1472Y1164D01*
X1474Y1164D01*
X1474Y1162D01*
X1476Y1162D01*
X1476Y1160D01*
X1478Y1160D01*
X1478Y1158D01*
X1480Y1158D01*
X1480Y1156D01*
X1482Y1156D01*
X1482Y1154D01*
X1484Y1154D01*
X1484Y1152D01*
X1486Y1152D01*
X1486Y1150D01*
X1488Y1150D01*
X1488Y1148D01*
X1490Y1148D01*
X1490Y1146D01*
X1492Y1146D01*
X1492Y1144D01*
X1494Y1144D01*
X1494Y1142D01*
X1496Y1142D01*
X1496Y1140D01*
X1498Y1140D01*
X1498Y1138D01*
X1500Y1138D01*
X1500Y1136D01*
X1502Y1136D01*
X1502Y1134D01*
X1504Y1134D01*
X1504Y1132D01*
X1506Y1132D01*
X1506Y1130D01*
X1508Y1130D01*
X1508Y1128D01*
X1510Y1128D01*
X1510Y1126D01*
X1512Y1126D01*
X1512Y1124D01*
X1514Y1124D01*
X1514Y1122D01*
X1516Y1122D01*
X1516Y1120D01*
X1518Y1120D01*
X1518Y1118D01*
X1520Y1118D01*
X1520Y1116D01*
X1522Y1116D01*
X1522Y1114D01*
X1524Y1114D01*
X1524Y1112D01*
X1526Y1112D01*
X1526Y1110D01*
X1528Y1110D01*
X1528Y1108D01*
X1530Y1108D01*
X1530Y1106D01*
X1532Y1106D01*
X1532Y1104D01*
X1534Y1104D01*
X1534Y1102D01*
X1536Y1102D01*
X1536Y1100D01*
X1538Y1100D01*
X1538Y1098D01*
X1540Y1098D01*
X1540Y1096D01*
X1542Y1096D01*
X1542Y1094D01*
X1544Y1094D01*
X1544Y1092D01*
X1546Y1092D01*
X1546Y1090D01*
X1548Y1090D01*
X1548Y1088D01*
X1550Y1088D01*
X1550Y1086D01*
X1552Y1086D01*
X1552Y1084D01*
X1554Y1084D01*
X1554Y1082D01*
X1556Y1082D01*
X1556Y1080D01*
X1576Y1080D01*
X1576Y1160D01*
X1578Y1160D01*
X1578Y1166D01*
X1580Y1166D01*
X1580Y1170D01*
X1582Y1170D01*
X1582Y1174D01*
X1584Y1174D01*
X1584Y1194D01*
X1462Y1194D01*
G37*
D02*
G36*
X886Y882D02*
X886Y880D01*
X884Y880D01*
X884Y878D01*
X880Y878D01*
X880Y876D01*
X876Y876D01*
X876Y874D01*
X872Y874D01*
X872Y872D01*
X866Y872D01*
X866Y870D01*
X926Y870D01*
X926Y872D01*
X920Y872D01*
X920Y874D01*
X916Y874D01*
X916Y876D01*
X912Y876D01*
X912Y878D01*
X910Y878D01*
X910Y880D01*
X906Y880D01*
X906Y882D01*
X886Y882D01*
G37*
D02*
G36*
X986Y882D02*
X986Y880D01*
X984Y880D01*
X984Y878D01*
X980Y878D01*
X980Y876D01*
X976Y876D01*
X976Y874D01*
X972Y874D01*
X972Y872D01*
X966Y872D01*
X966Y870D01*
X1026Y870D01*
X1026Y872D01*
X1020Y872D01*
X1020Y874D01*
X1016Y874D01*
X1016Y876D01*
X1012Y876D01*
X1012Y878D01*
X1010Y878D01*
X1010Y880D01*
X1006Y880D01*
X1006Y882D01*
X986Y882D01*
G37*
D02*
G36*
X840Y870D02*
X840Y868D01*
X1050Y868D01*
X1050Y870D01*
X840Y870D01*
G37*
D02*
G36*
X840Y870D02*
X840Y868D01*
X1050Y868D01*
X1050Y870D01*
X840Y870D01*
G37*
D02*
G36*
X840Y868D02*
X840Y850D01*
X842Y850D01*
X842Y848D01*
X844Y848D01*
X844Y846D01*
X846Y846D01*
X846Y844D01*
X848Y844D01*
X848Y842D01*
X850Y842D01*
X850Y840D01*
X852Y840D01*
X852Y838D01*
X854Y838D01*
X854Y836D01*
X856Y836D01*
X856Y834D01*
X858Y834D01*
X858Y832D01*
X860Y832D01*
X860Y830D01*
X862Y830D01*
X862Y828D01*
X864Y828D01*
X864Y826D01*
X866Y826D01*
X866Y824D01*
X868Y824D01*
X868Y822D01*
X870Y822D01*
X870Y820D01*
X872Y820D01*
X872Y818D01*
X874Y818D01*
X874Y816D01*
X876Y816D01*
X876Y814D01*
X878Y814D01*
X878Y812D01*
X880Y812D01*
X880Y810D01*
X882Y810D01*
X882Y808D01*
X884Y808D01*
X884Y806D01*
X888Y806D01*
X888Y804D01*
X890Y804D01*
X890Y802D01*
X892Y802D01*
X892Y800D01*
X894Y800D01*
X894Y796D01*
X896Y796D01*
X896Y794D01*
X898Y794D01*
X898Y790D01*
X900Y790D01*
X900Y784D01*
X902Y784D01*
X902Y724D01*
X922Y724D01*
X922Y726D01*
X924Y726D01*
X924Y728D01*
X926Y728D01*
X926Y730D01*
X928Y730D01*
X928Y732D01*
X930Y732D01*
X930Y734D01*
X932Y734D01*
X932Y736D01*
X934Y736D01*
X934Y738D01*
X936Y738D01*
X936Y740D01*
X938Y740D01*
X938Y742D01*
X940Y742D01*
X940Y744D01*
X942Y744D01*
X942Y746D01*
X944Y746D01*
X944Y748D01*
X946Y748D01*
X946Y750D01*
X948Y750D01*
X948Y752D01*
X950Y752D01*
X950Y754D01*
X952Y754D01*
X952Y756D01*
X954Y756D01*
X954Y758D01*
X956Y758D01*
X956Y760D01*
X958Y760D01*
X958Y762D01*
X960Y762D01*
X960Y764D01*
X962Y764D01*
X962Y766D01*
X964Y766D01*
X964Y768D01*
X966Y768D01*
X966Y770D01*
X968Y770D01*
X968Y772D01*
X970Y772D01*
X970Y774D01*
X972Y774D01*
X972Y776D01*
X974Y776D01*
X974Y778D01*
X978Y778D01*
X978Y780D01*
X980Y780D01*
X980Y782D01*
X982Y782D01*
X982Y784D01*
X984Y784D01*
X984Y786D01*
X986Y786D01*
X986Y788D01*
X988Y788D01*
X988Y790D01*
X990Y790D01*
X990Y792D01*
X992Y792D01*
X992Y794D01*
X994Y794D01*
X994Y796D01*
X996Y796D01*
X996Y798D01*
X998Y798D01*
X998Y800D01*
X1000Y800D01*
X1000Y802D01*
X1002Y802D01*
X1002Y804D01*
X1004Y804D01*
X1004Y806D01*
X1006Y806D01*
X1006Y808D01*
X1008Y808D01*
X1008Y810D01*
X1010Y810D01*
X1010Y812D01*
X1012Y812D01*
X1012Y814D01*
X1014Y814D01*
X1014Y816D01*
X1016Y816D01*
X1016Y818D01*
X1018Y818D01*
X1018Y820D01*
X1020Y820D01*
X1020Y822D01*
X1022Y822D01*
X1022Y824D01*
X1024Y824D01*
X1024Y826D01*
X1026Y826D01*
X1026Y828D01*
X1028Y828D01*
X1028Y830D01*
X1030Y830D01*
X1030Y832D01*
X1032Y832D01*
X1032Y834D01*
X1034Y834D01*
X1034Y836D01*
X1036Y836D01*
X1036Y838D01*
X1038Y838D01*
X1038Y840D01*
X1040Y840D01*
X1040Y842D01*
X1042Y842D01*
X1042Y844D01*
X1044Y844D01*
X1044Y846D01*
X1046Y846D01*
X1046Y848D01*
X1048Y848D01*
X1048Y850D01*
X1050Y850D01*
X1050Y868D01*
X840Y868D01*
G37*
D02*
G36*
X1602Y882D02*
X1602Y752D01*
X1660Y752D01*
X1660Y750D01*
X1684Y750D01*
X1684Y752D01*
X1732Y752D01*
X1732Y772D01*
X1730Y772D01*
X1730Y774D01*
X1728Y774D01*
X1728Y776D01*
X1726Y776D01*
X1726Y778D01*
X1724Y778D01*
X1724Y780D01*
X1722Y780D01*
X1722Y782D01*
X1720Y782D01*
X1720Y784D01*
X1718Y784D01*
X1718Y786D01*
X1716Y786D01*
X1716Y788D01*
X1714Y788D01*
X1714Y790D01*
X1712Y790D01*
X1712Y792D01*
X1710Y792D01*
X1710Y794D01*
X1708Y794D01*
X1708Y796D01*
X1706Y796D01*
X1706Y798D01*
X1704Y798D01*
X1704Y800D01*
X1702Y800D01*
X1702Y802D01*
X1700Y802D01*
X1700Y804D01*
X1698Y804D01*
X1698Y806D01*
X1696Y806D01*
X1696Y808D01*
X1694Y808D01*
X1694Y810D01*
X1692Y810D01*
X1692Y812D01*
X1690Y812D01*
X1690Y814D01*
X1688Y814D01*
X1688Y816D01*
X1686Y816D01*
X1686Y818D01*
X1684Y818D01*
X1684Y820D01*
X1682Y820D01*
X1682Y822D01*
X1680Y822D01*
X1680Y824D01*
X1678Y824D01*
X1678Y826D01*
X1676Y826D01*
X1676Y828D01*
X1674Y828D01*
X1674Y830D01*
X1672Y830D01*
X1672Y832D01*
X1670Y832D01*
X1670Y834D01*
X1668Y834D01*
X1668Y836D01*
X1666Y836D01*
X1666Y838D01*
X1664Y838D01*
X1664Y840D01*
X1662Y840D01*
X1662Y842D01*
X1660Y842D01*
X1660Y844D01*
X1658Y844D01*
X1658Y846D01*
X1656Y846D01*
X1656Y848D01*
X1654Y848D01*
X1654Y850D01*
X1652Y850D01*
X1652Y852D01*
X1650Y852D01*
X1650Y854D01*
X1648Y854D01*
X1648Y856D01*
X1646Y856D01*
X1646Y858D01*
X1644Y858D01*
X1644Y860D01*
X1642Y860D01*
X1642Y862D01*
X1640Y862D01*
X1640Y864D01*
X1638Y864D01*
X1638Y866D01*
X1636Y866D01*
X1636Y868D01*
X1634Y868D01*
X1634Y870D01*
X1632Y870D01*
X1632Y872D01*
X1630Y872D01*
X1630Y874D01*
X1628Y874D01*
X1628Y876D01*
X1626Y876D01*
X1626Y878D01*
X1624Y878D01*
X1624Y880D01*
X1622Y880D01*
X1622Y882D01*
X1602Y882D01*
G37*
D02*
G36*
X1602Y752D02*
X1602Y750D01*
X1600Y750D01*
X1600Y744D01*
X1620Y744D01*
X1620Y746D01*
X1624Y746D01*
X1624Y748D01*
X1628Y748D01*
X1628Y750D01*
X1638Y750D01*
X1638Y752D01*
X1602Y752D01*
G37*
D02*
G36*
X1342Y1064D02*
X1342Y1044D01*
X1344Y1044D01*
X1344Y1042D01*
X1346Y1042D01*
X1346Y1040D01*
X1348Y1040D01*
X1348Y1038D01*
X1350Y1038D01*
X1350Y1036D01*
X1352Y1036D01*
X1352Y1034D01*
X1354Y1034D01*
X1354Y1032D01*
X1356Y1032D01*
X1356Y1028D01*
X1358Y1028D01*
X1358Y1026D01*
X1360Y1026D01*
X1360Y1024D01*
X1362Y1024D01*
X1362Y1022D01*
X1364Y1022D01*
X1364Y1020D01*
X1366Y1020D01*
X1366Y1018D01*
X1368Y1018D01*
X1368Y1016D01*
X1370Y1016D01*
X1370Y1014D01*
X1372Y1014D01*
X1372Y1012D01*
X1374Y1012D01*
X1374Y1010D01*
X1376Y1010D01*
X1376Y1008D01*
X1378Y1008D01*
X1378Y1006D01*
X1380Y1006D01*
X1380Y1002D01*
X1382Y1002D01*
X1382Y1000D01*
X1384Y1000D01*
X1384Y996D01*
X1388Y996D01*
X1388Y994D01*
X1390Y994D01*
X1390Y992D01*
X1392Y992D01*
X1392Y990D01*
X1394Y990D01*
X1394Y988D01*
X1396Y988D01*
X1396Y986D01*
X1398Y986D01*
X1398Y984D01*
X1400Y984D01*
X1400Y982D01*
X1402Y982D01*
X1402Y980D01*
X1404Y980D01*
X1404Y976D01*
X1406Y976D01*
X1406Y974D01*
X1408Y974D01*
X1408Y970D01*
X1410Y970D01*
X1410Y966D01*
X1412Y966D01*
X1412Y962D01*
X1414Y962D01*
X1414Y954D01*
X1416Y954D01*
X1416Y924D01*
X1414Y924D01*
X1414Y916D01*
X1412Y916D01*
X1412Y912D01*
X1410Y912D01*
X1410Y906D01*
X1408Y906D01*
X1408Y904D01*
X1406Y904D01*
X1406Y900D01*
X1404Y900D01*
X1404Y898D01*
X1402Y898D01*
X1402Y896D01*
X1400Y896D01*
X1400Y892D01*
X1398Y892D01*
X1398Y890D01*
X1396Y890D01*
X1396Y888D01*
X1394Y888D01*
X1394Y886D01*
X1392Y886D01*
X1392Y884D01*
X1388Y884D01*
X1388Y882D01*
X1386Y882D01*
X1386Y880D01*
X1384Y880D01*
X1384Y878D01*
X1380Y878D01*
X1380Y876D01*
X1376Y876D01*
X1376Y874D01*
X1372Y874D01*
X1372Y872D01*
X1366Y872D01*
X1366Y870D01*
X1514Y870D01*
X1514Y934D01*
X1512Y934D01*
X1512Y936D01*
X1510Y936D01*
X1510Y938D01*
X1508Y938D01*
X1508Y940D01*
X1506Y940D01*
X1506Y942D01*
X1504Y942D01*
X1504Y944D01*
X1502Y944D01*
X1502Y946D01*
X1500Y946D01*
X1500Y948D01*
X1498Y948D01*
X1498Y950D01*
X1496Y950D01*
X1496Y952D01*
X1494Y952D01*
X1494Y954D01*
X1492Y954D01*
X1492Y956D01*
X1490Y956D01*
X1490Y958D01*
X1488Y958D01*
X1488Y960D01*
X1486Y960D01*
X1486Y962D01*
X1484Y962D01*
X1484Y964D01*
X1482Y964D01*
X1482Y966D01*
X1480Y966D01*
X1480Y968D01*
X1478Y968D01*
X1478Y970D01*
X1476Y970D01*
X1476Y972D01*
X1474Y972D01*
X1474Y974D01*
X1472Y974D01*
X1472Y976D01*
X1470Y976D01*
X1470Y978D01*
X1468Y978D01*
X1468Y980D01*
X1466Y980D01*
X1466Y982D01*
X1464Y982D01*
X1464Y984D01*
X1462Y984D01*
X1462Y986D01*
X1460Y986D01*
X1460Y988D01*
X1458Y988D01*
X1458Y990D01*
X1456Y990D01*
X1456Y992D01*
X1454Y992D01*
X1454Y994D01*
X1452Y994D01*
X1452Y996D01*
X1450Y996D01*
X1450Y998D01*
X1448Y998D01*
X1448Y1000D01*
X1446Y1000D01*
X1446Y1002D01*
X1444Y1002D01*
X1444Y1004D01*
X1442Y1004D01*
X1442Y1006D01*
X1440Y1006D01*
X1440Y1008D01*
X1438Y1008D01*
X1438Y1010D01*
X1436Y1010D01*
X1436Y1012D01*
X1434Y1012D01*
X1434Y1014D01*
X1432Y1014D01*
X1432Y1016D01*
X1430Y1016D01*
X1430Y1018D01*
X1428Y1018D01*
X1428Y1020D01*
X1426Y1020D01*
X1426Y1022D01*
X1424Y1022D01*
X1424Y1024D01*
X1422Y1024D01*
X1422Y1026D01*
X1420Y1026D01*
X1420Y1028D01*
X1418Y1028D01*
X1418Y1030D01*
X1416Y1030D01*
X1416Y1032D01*
X1414Y1032D01*
X1414Y1034D01*
X1412Y1034D01*
X1412Y1036D01*
X1410Y1036D01*
X1410Y1038D01*
X1408Y1038D01*
X1408Y1040D01*
X1406Y1040D01*
X1406Y1042D01*
X1404Y1042D01*
X1404Y1044D01*
X1402Y1044D01*
X1402Y1046D01*
X1400Y1046D01*
X1400Y1048D01*
X1398Y1048D01*
X1398Y1050D01*
X1396Y1050D01*
X1396Y1052D01*
X1394Y1052D01*
X1394Y1054D01*
X1392Y1054D01*
X1392Y1056D01*
X1390Y1056D01*
X1390Y1058D01*
X1388Y1058D01*
X1388Y1060D01*
X1386Y1060D01*
X1386Y1062D01*
X1384Y1062D01*
X1384Y1064D01*
X1342Y1064D01*
G37*
D02*
G36*
X1288Y880D02*
X1288Y878D01*
X1286Y878D01*
X1286Y874D01*
X1284Y874D01*
X1284Y872D01*
X1282Y872D01*
X1282Y870D01*
X1326Y870D01*
X1326Y872D01*
X1320Y872D01*
X1320Y874D01*
X1316Y874D01*
X1316Y876D01*
X1312Y876D01*
X1312Y878D01*
X1310Y878D01*
X1310Y880D01*
X1288Y880D01*
G37*
D02*
G36*
X1280Y870D02*
X1280Y868D01*
X1514Y868D01*
X1514Y870D01*
X1280Y870D01*
G37*
D02*
G36*
X1280Y870D02*
X1280Y868D01*
X1514Y868D01*
X1514Y870D01*
X1280Y870D01*
G37*
D02*
G36*
X1278Y868D02*
X1278Y866D01*
X1276Y866D01*
X1276Y864D01*
X1274Y864D01*
X1274Y862D01*
X1272Y862D01*
X1272Y860D01*
X1270Y860D01*
X1270Y858D01*
X1268Y858D01*
X1268Y856D01*
X1266Y856D01*
X1266Y854D01*
X1264Y854D01*
X1264Y852D01*
X1262Y852D01*
X1262Y850D01*
X1260Y850D01*
X1260Y848D01*
X1258Y848D01*
X1258Y846D01*
X1256Y846D01*
X1256Y844D01*
X1254Y844D01*
X1254Y842D01*
X1252Y842D01*
X1252Y840D01*
X1250Y840D01*
X1250Y838D01*
X1248Y838D01*
X1248Y836D01*
X1246Y836D01*
X1246Y834D01*
X1244Y834D01*
X1244Y832D01*
X1242Y832D01*
X1242Y830D01*
X1240Y830D01*
X1240Y828D01*
X1238Y828D01*
X1238Y826D01*
X1236Y826D01*
X1236Y824D01*
X1234Y824D01*
X1234Y822D01*
X1232Y822D01*
X1232Y820D01*
X1230Y820D01*
X1230Y818D01*
X1228Y818D01*
X1228Y816D01*
X1226Y816D01*
X1226Y814D01*
X1224Y814D01*
X1224Y812D01*
X1222Y812D01*
X1222Y810D01*
X1220Y810D01*
X1220Y808D01*
X1218Y808D01*
X1218Y806D01*
X1216Y806D01*
X1216Y804D01*
X1214Y804D01*
X1214Y802D01*
X1212Y802D01*
X1212Y800D01*
X1210Y800D01*
X1210Y798D01*
X1208Y798D01*
X1208Y796D01*
X1206Y796D01*
X1206Y794D01*
X1204Y794D01*
X1204Y792D01*
X1202Y792D01*
X1202Y790D01*
X1200Y790D01*
X1200Y788D01*
X1198Y788D01*
X1198Y786D01*
X1196Y786D01*
X1196Y784D01*
X1194Y784D01*
X1194Y782D01*
X1192Y782D01*
X1192Y780D01*
X1190Y780D01*
X1190Y778D01*
X1188Y778D01*
X1188Y776D01*
X1186Y776D01*
X1186Y774D01*
X1184Y774D01*
X1184Y772D01*
X1182Y772D01*
X1182Y770D01*
X1180Y770D01*
X1180Y768D01*
X1178Y768D01*
X1178Y766D01*
X1176Y766D01*
X1176Y748D01*
X1318Y748D01*
X1318Y606D01*
X1340Y606D01*
X1340Y608D01*
X1342Y608D01*
X1342Y610D01*
X1344Y610D01*
X1344Y612D01*
X1346Y612D01*
X1346Y614D01*
X1348Y614D01*
X1348Y616D01*
X1350Y616D01*
X1350Y618D01*
X1352Y618D01*
X1352Y620D01*
X1354Y620D01*
X1354Y622D01*
X1356Y622D01*
X1356Y624D01*
X1358Y624D01*
X1358Y626D01*
X1360Y626D01*
X1360Y628D01*
X1362Y628D01*
X1362Y630D01*
X1364Y630D01*
X1364Y632D01*
X1366Y632D01*
X1366Y634D01*
X1368Y634D01*
X1368Y636D01*
X1370Y636D01*
X1370Y638D01*
X1372Y638D01*
X1372Y640D01*
X1374Y640D01*
X1374Y642D01*
X1376Y642D01*
X1376Y644D01*
X1378Y644D01*
X1378Y646D01*
X1380Y646D01*
X1380Y648D01*
X1382Y648D01*
X1382Y650D01*
X1384Y650D01*
X1384Y652D01*
X1386Y652D01*
X1386Y654D01*
X1388Y654D01*
X1388Y656D01*
X1390Y656D01*
X1390Y658D01*
X1392Y658D01*
X1392Y660D01*
X1394Y660D01*
X1394Y662D01*
X1396Y662D01*
X1396Y664D01*
X1398Y664D01*
X1398Y666D01*
X1400Y666D01*
X1400Y668D01*
X1402Y668D01*
X1402Y670D01*
X1404Y670D01*
X1404Y672D01*
X1406Y672D01*
X1406Y674D01*
X1408Y674D01*
X1408Y676D01*
X1410Y676D01*
X1410Y678D01*
X1412Y678D01*
X1412Y680D01*
X1414Y680D01*
X1414Y682D01*
X1416Y682D01*
X1416Y684D01*
X1418Y684D01*
X1418Y686D01*
X1420Y686D01*
X1420Y688D01*
X1422Y688D01*
X1422Y690D01*
X1424Y690D01*
X1424Y692D01*
X1426Y692D01*
X1426Y694D01*
X1428Y694D01*
X1428Y696D01*
X1430Y696D01*
X1430Y698D01*
X1432Y698D01*
X1432Y700D01*
X1434Y700D01*
X1434Y702D01*
X1436Y702D01*
X1436Y704D01*
X1438Y704D01*
X1438Y706D01*
X1440Y706D01*
X1440Y708D01*
X1442Y708D01*
X1442Y710D01*
X1444Y710D01*
X1444Y712D01*
X1446Y712D01*
X1446Y714D01*
X1448Y714D01*
X1448Y716D01*
X1450Y716D01*
X1450Y718D01*
X1452Y718D01*
X1452Y720D01*
X1454Y720D01*
X1454Y722D01*
X1456Y722D01*
X1456Y724D01*
X1458Y724D01*
X1458Y726D01*
X1460Y726D01*
X1460Y728D01*
X1462Y728D01*
X1462Y730D01*
X1464Y730D01*
X1464Y732D01*
X1466Y732D01*
X1466Y734D01*
X1468Y734D01*
X1468Y736D01*
X1470Y736D01*
X1470Y738D01*
X1472Y738D01*
X1472Y740D01*
X1474Y740D01*
X1474Y742D01*
X1476Y742D01*
X1476Y744D01*
X1478Y744D01*
X1478Y746D01*
X1480Y746D01*
X1480Y748D01*
X1482Y748D01*
X1482Y750D01*
X1484Y750D01*
X1484Y752D01*
X1486Y752D01*
X1486Y754D01*
X1488Y754D01*
X1488Y756D01*
X1490Y756D01*
X1490Y758D01*
X1492Y758D01*
X1492Y760D01*
X1494Y760D01*
X1494Y762D01*
X1496Y762D01*
X1496Y764D01*
X1498Y764D01*
X1498Y766D01*
X1500Y766D01*
X1500Y768D01*
X1502Y768D01*
X1502Y770D01*
X1504Y770D01*
X1504Y772D01*
X1506Y772D01*
X1506Y774D01*
X1508Y774D01*
X1508Y776D01*
X1510Y776D01*
X1510Y778D01*
X1512Y778D01*
X1512Y780D01*
X1514Y780D01*
X1514Y868D01*
X1278Y868D01*
G37*
D02*
G36*
X380Y710D02*
X380Y708D01*
X378Y708D01*
X378Y706D01*
X376Y706D01*
X376Y704D01*
X374Y704D01*
X374Y702D01*
X372Y702D01*
X372Y700D01*
X370Y700D01*
X370Y698D01*
X368Y698D01*
X368Y696D01*
X366Y696D01*
X366Y692D01*
X364Y692D01*
X364Y690D01*
X362Y690D01*
X362Y688D01*
X360Y688D01*
X360Y686D01*
X358Y686D01*
X358Y684D01*
X356Y684D01*
X356Y620D01*
X234Y620D01*
X234Y616D01*
X232Y616D01*
X232Y614D01*
X230Y614D01*
X230Y612D01*
X228Y612D01*
X228Y610D01*
X226Y610D01*
X226Y606D01*
X224Y606D01*
X224Y604D01*
X410Y604D01*
X410Y602D01*
X416Y602D01*
X416Y600D01*
X422Y600D01*
X422Y598D01*
X426Y598D01*
X426Y596D01*
X428Y596D01*
X428Y594D01*
X432Y594D01*
X432Y592D01*
X434Y592D01*
X434Y590D01*
X436Y590D01*
X436Y588D01*
X438Y588D01*
X438Y586D01*
X440Y586D01*
X440Y584D01*
X442Y584D01*
X442Y582D01*
X444Y582D01*
X444Y580D01*
X446Y580D01*
X446Y578D01*
X448Y578D01*
X448Y576D01*
X450Y576D01*
X450Y572D01*
X452Y572D01*
X452Y570D01*
X454Y570D01*
X454Y566D01*
X456Y566D01*
X456Y562D01*
X458Y562D01*
X458Y558D01*
X460Y558D01*
X460Y550D01*
X462Y550D01*
X462Y522D01*
X460Y522D01*
X460Y514D01*
X458Y514D01*
X458Y508D01*
X456Y508D01*
X456Y504D01*
X454Y504D01*
X454Y500D01*
X452Y500D01*
X452Y498D01*
X450Y498D01*
X450Y494D01*
X448Y494D01*
X448Y492D01*
X446Y492D01*
X446Y472D01*
X448Y472D01*
X448Y470D01*
X450Y470D01*
X450Y466D01*
X452Y466D01*
X452Y464D01*
X454Y464D01*
X454Y462D01*
X456Y462D01*
X456Y458D01*
X458Y458D01*
X458Y454D01*
X460Y454D01*
X460Y450D01*
X462Y450D01*
X462Y444D01*
X464Y444D01*
X464Y434D01*
X466Y434D01*
X466Y418D01*
X468Y418D01*
X468Y416D01*
X470Y416D01*
X470Y414D01*
X490Y414D01*
X490Y472D01*
X488Y472D01*
X488Y610D01*
X490Y610D01*
X490Y612D01*
X566Y612D01*
X566Y614D01*
X568Y614D01*
X568Y616D01*
X570Y616D01*
X570Y618D01*
X572Y618D01*
X572Y620D01*
X574Y620D01*
X574Y622D01*
X576Y622D01*
X576Y624D01*
X580Y624D01*
X580Y626D01*
X582Y626D01*
X582Y628D01*
X584Y628D01*
X584Y630D01*
X586Y630D01*
X586Y632D01*
X588Y632D01*
X588Y634D01*
X590Y634D01*
X590Y636D01*
X592Y636D01*
X592Y638D01*
X594Y638D01*
X594Y640D01*
X596Y640D01*
X596Y642D01*
X598Y642D01*
X598Y668D01*
X596Y668D01*
X596Y710D01*
X380Y710D01*
G37*
D02*
G36*
X222Y604D02*
X222Y602D01*
X220Y602D01*
X220Y600D01*
X218Y600D01*
X218Y598D01*
X216Y598D01*
X216Y596D01*
X214Y596D01*
X214Y594D01*
X212Y594D01*
X212Y592D01*
X210Y592D01*
X210Y590D01*
X208Y590D01*
X208Y588D01*
X206Y588D01*
X206Y586D01*
X204Y586D01*
X204Y584D01*
X202Y584D01*
X202Y582D01*
X200Y582D01*
X200Y580D01*
X198Y580D01*
X198Y578D01*
X196Y578D01*
X196Y576D01*
X194Y576D01*
X194Y574D01*
X192Y574D01*
X192Y572D01*
X190Y572D01*
X190Y570D01*
X188Y570D01*
X188Y566D01*
X186Y566D01*
X186Y564D01*
X184Y564D01*
X184Y562D01*
X182Y562D01*
X182Y560D01*
X180Y560D01*
X180Y558D01*
X178Y558D01*
X178Y556D01*
X176Y556D01*
X176Y554D01*
X174Y554D01*
X174Y552D01*
X172Y552D01*
X172Y550D01*
X170Y550D01*
X170Y548D01*
X168Y548D01*
X168Y546D01*
X166Y546D01*
X166Y544D01*
X164Y544D01*
X164Y542D01*
X162Y542D01*
X162Y494D01*
X164Y494D01*
X164Y492D01*
X166Y492D01*
X166Y356D01*
X164Y356D01*
X164Y354D01*
X142Y354D01*
X142Y334D01*
X146Y334D01*
X146Y332D01*
X148Y332D01*
X148Y330D01*
X152Y330D01*
X152Y328D01*
X154Y328D01*
X154Y326D01*
X156Y326D01*
X156Y324D01*
X158Y324D01*
X158Y322D01*
X160Y322D01*
X160Y320D01*
X162Y320D01*
X162Y318D01*
X164Y318D01*
X164Y316D01*
X166Y316D01*
X166Y314D01*
X168Y314D01*
X168Y312D01*
X170Y312D01*
X170Y308D01*
X172Y308D01*
X172Y306D01*
X174Y306D01*
X174Y302D01*
X176Y302D01*
X176Y296D01*
X178Y296D01*
X178Y292D01*
X198Y292D01*
X198Y294D01*
X200Y294D01*
X200Y296D01*
X202Y296D01*
X202Y298D01*
X204Y298D01*
X204Y300D01*
X206Y300D01*
X206Y302D01*
X208Y302D01*
X208Y304D01*
X210Y304D01*
X210Y306D01*
X212Y306D01*
X212Y308D01*
X214Y308D01*
X214Y310D01*
X216Y310D01*
X216Y312D01*
X218Y312D01*
X218Y314D01*
X220Y314D01*
X220Y316D01*
X222Y316D01*
X222Y318D01*
X224Y318D01*
X224Y320D01*
X226Y320D01*
X226Y322D01*
X228Y322D01*
X228Y324D01*
X230Y324D01*
X230Y326D01*
X232Y326D01*
X232Y328D01*
X234Y328D01*
X234Y330D01*
X236Y330D01*
X236Y332D01*
X238Y332D01*
X238Y334D01*
X240Y334D01*
X240Y336D01*
X242Y336D01*
X242Y338D01*
X244Y338D01*
X244Y340D01*
X246Y340D01*
X246Y342D01*
X248Y342D01*
X248Y344D01*
X250Y344D01*
X250Y346D01*
X252Y346D01*
X252Y348D01*
X254Y348D01*
X254Y350D01*
X256Y350D01*
X256Y352D01*
X258Y352D01*
X258Y354D01*
X260Y354D01*
X260Y356D01*
X262Y356D01*
X262Y358D01*
X264Y358D01*
X264Y360D01*
X266Y360D01*
X266Y362D01*
X268Y362D01*
X268Y364D01*
X270Y364D01*
X270Y366D01*
X272Y366D01*
X272Y368D01*
X274Y368D01*
X274Y370D01*
X276Y370D01*
X276Y372D01*
X278Y372D01*
X278Y374D01*
X280Y374D01*
X280Y376D01*
X282Y376D01*
X282Y378D01*
X284Y378D01*
X284Y380D01*
X286Y380D01*
X286Y382D01*
X288Y382D01*
X288Y384D01*
X290Y384D01*
X290Y386D01*
X292Y386D01*
X292Y388D01*
X294Y388D01*
X294Y390D01*
X296Y390D01*
X296Y392D01*
X298Y392D01*
X298Y394D01*
X300Y394D01*
X300Y396D01*
X302Y396D01*
X302Y398D01*
X304Y398D01*
X304Y400D01*
X306Y400D01*
X306Y402D01*
X308Y402D01*
X308Y404D01*
X310Y404D01*
X310Y406D01*
X312Y406D01*
X312Y408D01*
X314Y408D01*
X314Y410D01*
X316Y410D01*
X316Y412D01*
X318Y412D01*
X318Y414D01*
X320Y414D01*
X320Y416D01*
X322Y416D01*
X322Y418D01*
X324Y418D01*
X324Y420D01*
X326Y420D01*
X326Y440D01*
X328Y440D01*
X328Y446D01*
X330Y446D01*
X330Y452D01*
X332Y452D01*
X332Y456D01*
X334Y456D01*
X334Y460D01*
X336Y460D01*
X336Y462D01*
X338Y462D01*
X338Y466D01*
X340Y466D01*
X340Y468D01*
X342Y468D01*
X342Y488D01*
X340Y488D01*
X340Y490D01*
X338Y490D01*
X338Y492D01*
X336Y492D01*
X336Y494D01*
X334Y494D01*
X334Y498D01*
X332Y498D01*
X332Y500D01*
X330Y500D01*
X330Y504D01*
X328Y504D01*
X328Y508D01*
X326Y508D01*
X326Y514D01*
X324Y514D01*
X324Y522D01*
X322Y522D01*
X322Y548D01*
X324Y548D01*
X324Y556D01*
X326Y556D01*
X326Y562D01*
X328Y562D01*
X328Y566D01*
X330Y566D01*
X330Y570D01*
X332Y570D01*
X332Y572D01*
X334Y572D01*
X334Y576D01*
X336Y576D01*
X336Y578D01*
X338Y578D01*
X338Y580D01*
X340Y580D01*
X340Y582D01*
X342Y582D01*
X342Y584D01*
X344Y584D01*
X344Y586D01*
X346Y586D01*
X346Y588D01*
X348Y588D01*
X348Y590D01*
X350Y590D01*
X350Y592D01*
X352Y592D01*
X352Y594D01*
X356Y594D01*
X356Y596D01*
X358Y596D01*
X358Y598D01*
X362Y598D01*
X362Y600D01*
X368Y600D01*
X368Y602D01*
X374Y602D01*
X374Y604D01*
X222Y604D01*
G37*
D02*
G36*
X1566Y702D02*
X1566Y700D01*
X1564Y700D01*
X1564Y698D01*
X1562Y698D01*
X1562Y696D01*
X1560Y696D01*
X1560Y694D01*
X1558Y694D01*
X1558Y692D01*
X1556Y692D01*
X1556Y690D01*
X1554Y690D01*
X1554Y688D01*
X1552Y688D01*
X1552Y686D01*
X1550Y686D01*
X1550Y684D01*
X1548Y684D01*
X1548Y682D01*
X1546Y682D01*
X1546Y680D01*
X1544Y680D01*
X1544Y678D01*
X1542Y678D01*
X1542Y676D01*
X1540Y676D01*
X1540Y674D01*
X1538Y674D01*
X1538Y672D01*
X1536Y672D01*
X1536Y670D01*
X1534Y670D01*
X1534Y668D01*
X1532Y668D01*
X1532Y666D01*
X1530Y666D01*
X1530Y664D01*
X1528Y664D01*
X1528Y662D01*
X1526Y662D01*
X1526Y660D01*
X1524Y660D01*
X1524Y658D01*
X1522Y658D01*
X1522Y656D01*
X1520Y656D01*
X1520Y654D01*
X1518Y654D01*
X1518Y652D01*
X1516Y652D01*
X1516Y650D01*
X1514Y650D01*
X1514Y648D01*
X1512Y648D01*
X1512Y646D01*
X1510Y646D01*
X1510Y644D01*
X1508Y644D01*
X1508Y642D01*
X1506Y642D01*
X1506Y640D01*
X1504Y640D01*
X1504Y638D01*
X1502Y638D01*
X1502Y636D01*
X1500Y636D01*
X1500Y634D01*
X1498Y634D01*
X1498Y632D01*
X1496Y632D01*
X1496Y630D01*
X1494Y630D01*
X1494Y628D01*
X1492Y628D01*
X1492Y608D01*
X1536Y608D01*
X1536Y610D01*
X1538Y610D01*
X1538Y612D01*
X1540Y612D01*
X1540Y614D01*
X1542Y614D01*
X1542Y616D01*
X1544Y616D01*
X1544Y618D01*
X1546Y618D01*
X1546Y620D01*
X1548Y620D01*
X1548Y622D01*
X1552Y622D01*
X1552Y624D01*
X1554Y624D01*
X1554Y626D01*
X1556Y626D01*
X1556Y628D01*
X1558Y628D01*
X1558Y630D01*
X1560Y630D01*
X1560Y632D01*
X1562Y632D01*
X1562Y634D01*
X1564Y634D01*
X1564Y636D01*
X1566Y636D01*
X1566Y638D01*
X1568Y638D01*
X1568Y640D01*
X1570Y640D01*
X1570Y642D01*
X1572Y642D01*
X1572Y644D01*
X1574Y644D01*
X1574Y646D01*
X1576Y646D01*
X1576Y648D01*
X1578Y648D01*
X1578Y650D01*
X1580Y650D01*
X1580Y652D01*
X1582Y652D01*
X1582Y654D01*
X1584Y654D01*
X1584Y656D01*
X1586Y656D01*
X1586Y702D01*
X1566Y702D01*
G37*
D02*
G36*
X700Y622D02*
X700Y614D01*
X698Y614D01*
X698Y610D01*
X696Y610D01*
X696Y606D01*
X694Y606D01*
X694Y604D01*
X692Y604D01*
X692Y600D01*
X690Y600D01*
X690Y598D01*
X686Y598D01*
X686Y596D01*
X684Y596D01*
X684Y594D01*
X682Y594D01*
X682Y592D01*
X680Y592D01*
X680Y590D01*
X678Y590D01*
X678Y588D01*
X676Y588D01*
X676Y586D01*
X674Y586D01*
X674Y584D01*
X672Y584D01*
X672Y582D01*
X670Y582D01*
X670Y580D01*
X668Y580D01*
X668Y578D01*
X666Y578D01*
X666Y576D01*
X664Y576D01*
X664Y574D01*
X662Y574D01*
X662Y572D01*
X658Y572D01*
X658Y570D01*
X656Y570D01*
X656Y568D01*
X654Y568D01*
X654Y566D01*
X652Y566D01*
X652Y564D01*
X650Y564D01*
X650Y562D01*
X648Y562D01*
X648Y560D01*
X646Y560D01*
X646Y558D01*
X644Y558D01*
X644Y556D01*
X642Y556D01*
X642Y554D01*
X640Y554D01*
X640Y552D01*
X638Y552D01*
X638Y550D01*
X636Y550D01*
X636Y548D01*
X632Y548D01*
X632Y546D01*
X630Y546D01*
X630Y544D01*
X628Y544D01*
X628Y514D01*
X648Y514D01*
X648Y516D01*
X650Y516D01*
X650Y518D01*
X652Y518D01*
X652Y520D01*
X654Y520D01*
X654Y522D01*
X656Y522D01*
X656Y524D01*
X658Y524D01*
X658Y526D01*
X660Y526D01*
X660Y528D01*
X662Y528D01*
X662Y530D01*
X664Y530D01*
X664Y532D01*
X666Y532D01*
X666Y534D01*
X668Y534D01*
X668Y536D01*
X670Y536D01*
X670Y538D01*
X672Y538D01*
X672Y540D01*
X674Y540D01*
X674Y542D01*
X676Y542D01*
X676Y544D01*
X678Y544D01*
X678Y546D01*
X680Y546D01*
X680Y548D01*
X682Y548D01*
X682Y550D01*
X684Y550D01*
X684Y552D01*
X686Y552D01*
X686Y554D01*
X688Y554D01*
X688Y556D01*
X690Y556D01*
X690Y558D01*
X692Y558D01*
X692Y560D01*
X694Y560D01*
X694Y562D01*
X696Y562D01*
X696Y564D01*
X698Y564D01*
X698Y566D01*
X700Y566D01*
X700Y568D01*
X702Y568D01*
X702Y570D01*
X704Y570D01*
X704Y572D01*
X706Y572D01*
X706Y574D01*
X708Y574D01*
X708Y576D01*
X710Y576D01*
X710Y578D01*
X712Y578D01*
X712Y580D01*
X714Y580D01*
X714Y582D01*
X716Y582D01*
X716Y584D01*
X718Y584D01*
X718Y586D01*
X720Y586D01*
X720Y588D01*
X722Y588D01*
X722Y590D01*
X724Y590D01*
X724Y592D01*
X726Y592D01*
X726Y594D01*
X728Y594D01*
X728Y596D01*
X730Y596D01*
X730Y598D01*
X732Y598D01*
X732Y600D01*
X734Y600D01*
X734Y602D01*
X736Y602D01*
X736Y622D01*
X700Y622D01*
G37*
D02*
G36*
X1682Y618D02*
X1682Y616D01*
X1680Y616D01*
X1680Y614D01*
X1678Y614D01*
X1678Y612D01*
X1674Y612D01*
X1674Y610D01*
X1672Y610D01*
X1672Y608D01*
X1670Y608D01*
X1670Y606D01*
X1668Y606D01*
X1668Y604D01*
X1666Y604D01*
X1666Y602D01*
X1664Y602D01*
X1664Y600D01*
X1662Y600D01*
X1662Y598D01*
X1660Y598D01*
X1660Y596D01*
X1658Y596D01*
X1658Y594D01*
X1656Y594D01*
X1656Y592D01*
X1654Y592D01*
X1654Y590D01*
X1652Y590D01*
X1652Y588D01*
X1650Y588D01*
X1650Y586D01*
X1648Y586D01*
X1648Y584D01*
X1646Y584D01*
X1646Y582D01*
X1644Y582D01*
X1644Y580D01*
X1642Y580D01*
X1642Y578D01*
X1638Y578D01*
X1638Y576D01*
X1636Y576D01*
X1636Y574D01*
X1634Y574D01*
X1634Y572D01*
X1632Y572D01*
X1632Y570D01*
X1630Y570D01*
X1630Y568D01*
X1628Y568D01*
X1628Y566D01*
X1626Y566D01*
X1626Y564D01*
X1624Y564D01*
X1624Y562D01*
X1622Y562D01*
X1622Y560D01*
X1620Y560D01*
X1620Y558D01*
X1618Y558D01*
X1618Y556D01*
X1616Y556D01*
X1616Y554D01*
X1614Y554D01*
X1614Y552D01*
X1612Y552D01*
X1612Y550D01*
X1610Y550D01*
X1610Y548D01*
X1608Y548D01*
X1608Y546D01*
X1606Y546D01*
X1606Y544D01*
X1602Y544D01*
X1602Y542D01*
X1600Y542D01*
X1600Y492D01*
X1602Y492D01*
X1602Y412D01*
X1622Y412D01*
X1622Y414D01*
X1624Y414D01*
X1624Y416D01*
X1626Y416D01*
X1626Y418D01*
X1628Y418D01*
X1628Y420D01*
X1630Y420D01*
X1630Y422D01*
X1632Y422D01*
X1632Y424D01*
X1634Y424D01*
X1634Y426D01*
X1636Y426D01*
X1636Y428D01*
X1638Y428D01*
X1638Y430D01*
X1640Y430D01*
X1640Y432D01*
X1642Y432D01*
X1642Y434D01*
X1644Y434D01*
X1644Y436D01*
X1646Y436D01*
X1646Y438D01*
X1648Y438D01*
X1648Y440D01*
X1650Y440D01*
X1650Y442D01*
X1652Y442D01*
X1652Y444D01*
X1654Y444D01*
X1654Y446D01*
X1656Y446D01*
X1656Y448D01*
X1658Y448D01*
X1658Y450D01*
X1660Y450D01*
X1660Y452D01*
X1662Y452D01*
X1662Y454D01*
X1664Y454D01*
X1664Y456D01*
X1666Y456D01*
X1666Y458D01*
X1668Y458D01*
X1668Y460D01*
X1670Y460D01*
X1670Y462D01*
X1672Y462D01*
X1672Y464D01*
X1674Y464D01*
X1674Y466D01*
X1676Y466D01*
X1676Y468D01*
X1678Y468D01*
X1678Y470D01*
X1680Y470D01*
X1680Y472D01*
X1682Y472D01*
X1682Y474D01*
X1684Y474D01*
X1684Y476D01*
X1686Y476D01*
X1686Y478D01*
X1688Y478D01*
X1688Y480D01*
X1690Y480D01*
X1690Y482D01*
X1692Y482D01*
X1692Y484D01*
X1694Y484D01*
X1694Y486D01*
X1696Y486D01*
X1696Y488D01*
X1698Y488D01*
X1698Y490D01*
X1700Y490D01*
X1700Y500D01*
X1702Y500D01*
X1702Y618D01*
X1682Y618D01*
G37*
D02*
G36*
X1440Y576D02*
X1440Y574D01*
X1438Y574D01*
X1438Y572D01*
X1436Y572D01*
X1436Y570D01*
X1434Y570D01*
X1434Y568D01*
X1432Y568D01*
X1432Y566D01*
X1430Y566D01*
X1430Y564D01*
X1428Y564D01*
X1428Y562D01*
X1426Y562D01*
X1426Y560D01*
X1424Y560D01*
X1424Y558D01*
X1422Y558D01*
X1422Y556D01*
X1420Y556D01*
X1420Y554D01*
X1418Y554D01*
X1418Y552D01*
X1416Y552D01*
X1416Y550D01*
X1414Y550D01*
X1414Y548D01*
X1412Y548D01*
X1412Y546D01*
X1410Y546D01*
X1410Y544D01*
X1408Y544D01*
X1408Y542D01*
X1406Y542D01*
X1406Y540D01*
X1404Y540D01*
X1404Y518D01*
X1402Y518D01*
X1402Y512D01*
X1400Y512D01*
X1400Y508D01*
X1398Y508D01*
X1398Y504D01*
X1396Y504D01*
X1396Y500D01*
X1394Y500D01*
X1394Y498D01*
X1392Y498D01*
X1392Y494D01*
X1390Y494D01*
X1390Y492D01*
X1388Y492D01*
X1388Y472D01*
X1390Y472D01*
X1390Y470D01*
X1392Y470D01*
X1392Y468D01*
X1394Y468D01*
X1394Y464D01*
X1396Y464D01*
X1396Y462D01*
X1398Y462D01*
X1398Y460D01*
X1400Y460D01*
X1400Y456D01*
X1402Y456D01*
X1402Y452D01*
X1404Y452D01*
X1404Y448D01*
X1406Y448D01*
X1406Y442D01*
X1408Y442D01*
X1408Y406D01*
X1406Y406D01*
X1406Y400D01*
X1404Y400D01*
X1404Y394D01*
X1402Y394D01*
X1402Y390D01*
X1400Y390D01*
X1400Y388D01*
X1398Y388D01*
X1398Y384D01*
X1396Y384D01*
X1396Y382D01*
X1394Y382D01*
X1394Y380D01*
X1392Y380D01*
X1392Y376D01*
X1390Y376D01*
X1390Y374D01*
X1388Y374D01*
X1388Y372D01*
X1386Y372D01*
X1386Y370D01*
X1382Y370D01*
X1382Y368D01*
X1380Y368D01*
X1380Y366D01*
X1378Y366D01*
X1378Y364D01*
X1374Y364D01*
X1374Y362D01*
X1372Y362D01*
X1372Y360D01*
X1368Y360D01*
X1368Y358D01*
X1362Y358D01*
X1362Y356D01*
X1356Y356D01*
X1356Y354D01*
X1350Y354D01*
X1350Y334D01*
X1354Y334D01*
X1354Y332D01*
X1356Y332D01*
X1356Y330D01*
X1358Y330D01*
X1358Y328D01*
X1362Y328D01*
X1362Y326D01*
X1364Y326D01*
X1364Y324D01*
X1366Y324D01*
X1366Y322D01*
X1368Y322D01*
X1368Y318D01*
X1496Y318D01*
X1496Y320D01*
X1498Y320D01*
X1498Y322D01*
X1500Y322D01*
X1500Y324D01*
X1502Y324D01*
X1502Y326D01*
X1504Y326D01*
X1504Y328D01*
X1506Y328D01*
X1506Y330D01*
X1508Y330D01*
X1508Y332D01*
X1512Y332D01*
X1512Y334D01*
X1514Y334D01*
X1514Y354D01*
X1462Y354D01*
X1462Y470D01*
X1460Y470D01*
X1460Y576D01*
X1440Y576D01*
G37*
D02*
G36*
X774Y510D02*
X774Y508D01*
X772Y508D01*
X772Y506D01*
X770Y506D01*
X770Y504D01*
X768Y504D01*
X768Y502D01*
X766Y502D01*
X766Y500D01*
X764Y500D01*
X764Y498D01*
X762Y498D01*
X762Y496D01*
X760Y496D01*
X760Y494D01*
X758Y494D01*
X758Y492D01*
X756Y492D01*
X756Y490D01*
X754Y490D01*
X754Y488D01*
X752Y488D01*
X752Y486D01*
X750Y486D01*
X750Y484D01*
X748Y484D01*
X748Y482D01*
X746Y482D01*
X746Y480D01*
X744Y480D01*
X744Y478D01*
X742Y478D01*
X742Y476D01*
X740Y476D01*
X740Y474D01*
X738Y474D01*
X738Y472D01*
X736Y472D01*
X736Y470D01*
X734Y470D01*
X734Y468D01*
X732Y468D01*
X732Y466D01*
X730Y466D01*
X730Y464D01*
X728Y464D01*
X728Y462D01*
X726Y462D01*
X726Y460D01*
X724Y460D01*
X724Y458D01*
X722Y458D01*
X722Y456D01*
X720Y456D01*
X720Y454D01*
X718Y454D01*
X718Y452D01*
X716Y452D01*
X716Y450D01*
X714Y450D01*
X714Y448D01*
X712Y448D01*
X712Y446D01*
X710Y446D01*
X710Y444D01*
X708Y444D01*
X708Y442D01*
X706Y442D01*
X706Y440D01*
X704Y440D01*
X704Y438D01*
X702Y438D01*
X702Y436D01*
X700Y436D01*
X700Y434D01*
X698Y434D01*
X698Y432D01*
X696Y432D01*
X696Y430D01*
X694Y430D01*
X694Y428D01*
X692Y428D01*
X692Y426D01*
X690Y426D01*
X690Y424D01*
X688Y424D01*
X688Y422D01*
X686Y422D01*
X686Y420D01*
X684Y420D01*
X684Y418D01*
X682Y418D01*
X682Y416D01*
X680Y416D01*
X680Y414D01*
X678Y414D01*
X678Y412D01*
X676Y412D01*
X676Y410D01*
X674Y410D01*
X674Y408D01*
X672Y408D01*
X672Y406D01*
X670Y406D01*
X670Y404D01*
X668Y404D01*
X668Y402D01*
X666Y402D01*
X666Y400D01*
X664Y400D01*
X664Y380D01*
X792Y380D01*
X792Y406D01*
X790Y406D01*
X790Y440D01*
X792Y440D01*
X792Y448D01*
X794Y448D01*
X794Y452D01*
X796Y452D01*
X796Y456D01*
X798Y456D01*
X798Y458D01*
X800Y458D01*
X800Y462D01*
X802Y462D01*
X802Y464D01*
X804Y464D01*
X804Y468D01*
X806Y468D01*
X806Y470D01*
X808Y470D01*
X808Y472D01*
X810Y472D01*
X810Y492D01*
X808Y492D01*
X808Y494D01*
X806Y494D01*
X806Y496D01*
X804Y496D01*
X804Y498D01*
X802Y498D01*
X802Y502D01*
X800Y502D01*
X800Y504D01*
X798Y504D01*
X798Y508D01*
X796Y508D01*
X796Y510D01*
X774Y510D01*
G37*
D02*
G36*
X1904Y952D02*
X1904Y950D01*
X1902Y950D01*
X1902Y948D01*
X1900Y948D01*
X1900Y946D01*
X1898Y946D01*
X1898Y944D01*
X1896Y944D01*
X1896Y942D01*
X1894Y942D01*
X1894Y940D01*
X1892Y940D01*
X1892Y938D01*
X1890Y938D01*
X1890Y936D01*
X1888Y936D01*
X1888Y934D01*
X1886Y934D01*
X1886Y932D01*
X1884Y932D01*
X1884Y930D01*
X1880Y930D01*
X1880Y928D01*
X1876Y928D01*
X1876Y926D01*
X1872Y926D01*
X1872Y924D01*
X1732Y924D01*
X1732Y904D01*
X1734Y904D01*
X1734Y902D01*
X1736Y902D01*
X1736Y900D01*
X1738Y900D01*
X1738Y898D01*
X1740Y898D01*
X1740Y896D01*
X1742Y896D01*
X1742Y894D01*
X1744Y894D01*
X1744Y892D01*
X1746Y892D01*
X1746Y890D01*
X1748Y890D01*
X1748Y888D01*
X1750Y888D01*
X1750Y886D01*
X1752Y886D01*
X1752Y884D01*
X1754Y884D01*
X1754Y882D01*
X1756Y882D01*
X1756Y880D01*
X1758Y880D01*
X1758Y878D01*
X1760Y878D01*
X1760Y876D01*
X1762Y876D01*
X1762Y874D01*
X1764Y874D01*
X1764Y872D01*
X1766Y872D01*
X1766Y870D01*
X1768Y870D01*
X1768Y868D01*
X1770Y868D01*
X1770Y866D01*
X1772Y866D01*
X1772Y864D01*
X1774Y864D01*
X1774Y862D01*
X1776Y862D01*
X1776Y860D01*
X1778Y860D01*
X1778Y858D01*
X1780Y858D01*
X1780Y856D01*
X1782Y856D01*
X1782Y854D01*
X1784Y854D01*
X1784Y852D01*
X1786Y852D01*
X1786Y850D01*
X1788Y850D01*
X1788Y848D01*
X1790Y848D01*
X1790Y846D01*
X1792Y846D01*
X1792Y844D01*
X1794Y844D01*
X1794Y842D01*
X1796Y842D01*
X1796Y840D01*
X1798Y840D01*
X1798Y838D01*
X1800Y838D01*
X1800Y836D01*
X1802Y836D01*
X1802Y834D01*
X1804Y834D01*
X1804Y832D01*
X1806Y832D01*
X1806Y830D01*
X1808Y830D01*
X1808Y828D01*
X1810Y828D01*
X1810Y826D01*
X1812Y826D01*
X1812Y824D01*
X1814Y824D01*
X1814Y822D01*
X1816Y822D01*
X1816Y820D01*
X1818Y820D01*
X1818Y818D01*
X1820Y818D01*
X1820Y816D01*
X1822Y816D01*
X1822Y814D01*
X1824Y814D01*
X1824Y812D01*
X1826Y812D01*
X1826Y810D01*
X1828Y810D01*
X1828Y808D01*
X1830Y808D01*
X1830Y806D01*
X1832Y806D01*
X1832Y804D01*
X1834Y804D01*
X1834Y802D01*
X1836Y802D01*
X1836Y800D01*
X1838Y800D01*
X1838Y798D01*
X1840Y798D01*
X1840Y796D01*
X1842Y796D01*
X1842Y794D01*
X1844Y794D01*
X1844Y792D01*
X1846Y792D01*
X1846Y790D01*
X1848Y790D01*
X1848Y788D01*
X1850Y788D01*
X1850Y786D01*
X1852Y786D01*
X1852Y784D01*
X1854Y784D01*
X1854Y782D01*
X1856Y782D01*
X1856Y780D01*
X1858Y780D01*
X1858Y778D01*
X1860Y778D01*
X1860Y776D01*
X1862Y776D01*
X1862Y774D01*
X1864Y774D01*
X1864Y772D01*
X1866Y772D01*
X1866Y768D01*
X1868Y768D01*
X1868Y766D01*
X1870Y766D01*
X1870Y762D01*
X1872Y762D01*
X1872Y756D01*
X1874Y756D01*
X1874Y592D01*
X1876Y592D01*
X1876Y590D01*
X1878Y590D01*
X1878Y588D01*
X1880Y588D01*
X1880Y586D01*
X1882Y586D01*
X1882Y584D01*
X1884Y584D01*
X1884Y582D01*
X1886Y582D01*
X1886Y578D01*
X1888Y578D01*
X1888Y576D01*
X1890Y576D01*
X1890Y572D01*
X1892Y572D01*
X1892Y570D01*
X1894Y570D01*
X1894Y564D01*
X1896Y564D01*
X1896Y560D01*
X1898Y560D01*
X1898Y550D01*
X1900Y550D01*
X1900Y526D01*
X1898Y526D01*
X1898Y518D01*
X1896Y518D01*
X1896Y512D01*
X1894Y512D01*
X1894Y508D01*
X1892Y508D01*
X1892Y504D01*
X1890Y504D01*
X1890Y500D01*
X1888Y500D01*
X1888Y498D01*
X1886Y498D01*
X1886Y496D01*
X1884Y496D01*
X1884Y494D01*
X1882Y494D01*
X1882Y472D01*
X1884Y472D01*
X1884Y468D01*
X1886Y468D01*
X1886Y466D01*
X1888Y466D01*
X1888Y464D01*
X1890Y464D01*
X1890Y462D01*
X1892Y462D01*
X1892Y458D01*
X1894Y458D01*
X1894Y454D01*
X1896Y454D01*
X1896Y450D01*
X1898Y450D01*
X1898Y446D01*
X1900Y446D01*
X1900Y438D01*
X1902Y438D01*
X1902Y410D01*
X1900Y410D01*
X1900Y402D01*
X1898Y402D01*
X1898Y396D01*
X1896Y396D01*
X1896Y392D01*
X1894Y392D01*
X1894Y388D01*
X1892Y388D01*
X1892Y386D01*
X1890Y386D01*
X1890Y382D01*
X1888Y382D01*
X1888Y380D01*
X1886Y380D01*
X1886Y378D01*
X1884Y378D01*
X1884Y376D01*
X1882Y376D01*
X1882Y374D01*
X1880Y374D01*
X1880Y372D01*
X1878Y372D01*
X1878Y370D01*
X1876Y370D01*
X1876Y368D01*
X1874Y368D01*
X1874Y366D01*
X1870Y366D01*
X1870Y364D01*
X1868Y364D01*
X1868Y362D01*
X1864Y362D01*
X1864Y360D01*
X1860Y360D01*
X1860Y358D01*
X1856Y358D01*
X1856Y356D01*
X1848Y356D01*
X1848Y354D01*
X1840Y354D01*
X1840Y334D01*
X1844Y334D01*
X1844Y332D01*
X1846Y332D01*
X1846Y330D01*
X1850Y330D01*
X1850Y328D01*
X1852Y328D01*
X1852Y326D01*
X1854Y326D01*
X1854Y324D01*
X1856Y324D01*
X1856Y322D01*
X1858Y322D01*
X1858Y320D01*
X1860Y320D01*
X1860Y316D01*
X1862Y316D01*
X1862Y314D01*
X1864Y314D01*
X1864Y312D01*
X1866Y312D01*
X1866Y308D01*
X1868Y308D01*
X1868Y304D01*
X1870Y304D01*
X1870Y300D01*
X1872Y300D01*
X1872Y294D01*
X1874Y294D01*
X1874Y254D01*
X1872Y254D01*
X1872Y248D01*
X1870Y248D01*
X1870Y244D01*
X1868Y244D01*
X1868Y240D01*
X1866Y240D01*
X1866Y238D01*
X1864Y238D01*
X1864Y234D01*
X1862Y234D01*
X1862Y232D01*
X1860Y232D01*
X1860Y230D01*
X1858Y230D01*
X1858Y228D01*
X1856Y228D01*
X1856Y226D01*
X1854Y226D01*
X1854Y224D01*
X1852Y224D01*
X1852Y222D01*
X1850Y222D01*
X1850Y220D01*
X1848Y220D01*
X1848Y218D01*
X1846Y218D01*
X1846Y216D01*
X1842Y216D01*
X1842Y214D01*
X1840Y214D01*
X1840Y212D01*
X1836Y212D01*
X1836Y210D01*
X1832Y210D01*
X1832Y208D01*
X1826Y208D01*
X1826Y206D01*
X1814Y206D01*
X1814Y204D01*
X1924Y204D01*
X1924Y952D01*
X1904Y952D01*
G37*
D02*
G36*
X1074Y664D02*
X1074Y662D01*
X1072Y662D01*
X1072Y660D01*
X1070Y660D01*
X1070Y658D01*
X1068Y658D01*
X1068Y656D01*
X1066Y656D01*
X1066Y654D01*
X1064Y654D01*
X1064Y652D01*
X1062Y652D01*
X1062Y650D01*
X1060Y650D01*
X1060Y648D01*
X1058Y648D01*
X1058Y646D01*
X1056Y646D01*
X1056Y644D01*
X1054Y644D01*
X1054Y642D01*
X1052Y642D01*
X1052Y640D01*
X1050Y640D01*
X1050Y638D01*
X1048Y638D01*
X1048Y636D01*
X1046Y636D01*
X1046Y634D01*
X1044Y634D01*
X1044Y632D01*
X1042Y632D01*
X1042Y630D01*
X1040Y630D01*
X1040Y628D01*
X1038Y628D01*
X1038Y626D01*
X1036Y626D01*
X1036Y620D01*
X1146Y620D01*
X1146Y622D01*
X1136Y622D01*
X1136Y624D01*
X1130Y624D01*
X1130Y626D01*
X1126Y626D01*
X1126Y628D01*
X1124Y628D01*
X1124Y630D01*
X1120Y630D01*
X1120Y632D01*
X1118Y632D01*
X1118Y634D01*
X1114Y634D01*
X1114Y636D01*
X1112Y636D01*
X1112Y638D01*
X1110Y638D01*
X1110Y640D01*
X1108Y640D01*
X1108Y642D01*
X1106Y642D01*
X1106Y646D01*
X1104Y646D01*
X1104Y648D01*
X1102Y648D01*
X1102Y650D01*
X1100Y650D01*
X1100Y654D01*
X1098Y654D01*
X1098Y658D01*
X1096Y658D01*
X1096Y662D01*
X1094Y662D01*
X1094Y664D01*
X1074Y664D01*
G37*
D02*
G36*
X1166Y622D02*
X1166Y620D01*
X1192Y620D01*
X1192Y622D01*
X1166Y622D01*
G37*
D02*
G36*
X1036Y620D02*
X1036Y618D01*
X1210Y618D01*
X1210Y620D01*
X1036Y620D01*
G37*
D02*
G36*
X1036Y620D02*
X1036Y618D01*
X1210Y618D01*
X1210Y620D01*
X1036Y620D01*
G37*
D02*
G36*
X1036Y618D02*
X1036Y606D01*
X1104Y606D01*
X1104Y492D01*
X1108Y492D01*
X1108Y354D01*
X1094Y354D01*
X1094Y334D01*
X1098Y334D01*
X1098Y332D01*
X1100Y332D01*
X1100Y330D01*
X1102Y330D01*
X1102Y328D01*
X1106Y328D01*
X1106Y326D01*
X1108Y326D01*
X1108Y324D01*
X1110Y324D01*
X1110Y322D01*
X1112Y322D01*
X1112Y318D01*
X1114Y318D01*
X1114Y316D01*
X1116Y316D01*
X1116Y314D01*
X1118Y314D01*
X1118Y310D01*
X1120Y310D01*
X1120Y308D01*
X1122Y308D01*
X1122Y304D01*
X1124Y304D01*
X1124Y298D01*
X1126Y298D01*
X1126Y292D01*
X1128Y292D01*
X1128Y258D01*
X1126Y258D01*
X1126Y252D01*
X1124Y252D01*
X1124Y246D01*
X1122Y246D01*
X1122Y242D01*
X1120Y242D01*
X1120Y240D01*
X1118Y240D01*
X1118Y236D01*
X1116Y236D01*
X1116Y234D01*
X1114Y234D01*
X1114Y232D01*
X1112Y232D01*
X1112Y228D01*
X1110Y228D01*
X1110Y226D01*
X1108Y226D01*
X1108Y224D01*
X1106Y224D01*
X1106Y222D01*
X1104Y222D01*
X1104Y220D01*
X1100Y220D01*
X1100Y218D01*
X1098Y218D01*
X1098Y216D01*
X1094Y216D01*
X1094Y214D01*
X1092Y214D01*
X1092Y212D01*
X1088Y212D01*
X1088Y210D01*
X1084Y210D01*
X1084Y208D01*
X1078Y208D01*
X1078Y206D01*
X1296Y206D01*
X1296Y208D01*
X1290Y208D01*
X1290Y210D01*
X1286Y210D01*
X1286Y212D01*
X1282Y212D01*
X1282Y214D01*
X1278Y214D01*
X1278Y216D01*
X1276Y216D01*
X1276Y218D01*
X1272Y218D01*
X1272Y220D01*
X1270Y220D01*
X1270Y222D01*
X1268Y222D01*
X1268Y224D01*
X1266Y224D01*
X1266Y226D01*
X1264Y226D01*
X1264Y228D01*
X1262Y228D01*
X1262Y230D01*
X1260Y230D01*
X1260Y232D01*
X1258Y232D01*
X1258Y236D01*
X1256Y236D01*
X1256Y238D01*
X1254Y238D01*
X1254Y242D01*
X1252Y242D01*
X1252Y246D01*
X1250Y246D01*
X1250Y250D01*
X1248Y250D01*
X1248Y256D01*
X1246Y256D01*
X1246Y282D01*
X1244Y282D01*
X1244Y284D01*
X1242Y284D01*
X1242Y286D01*
X1240Y286D01*
X1240Y288D01*
X1238Y288D01*
X1238Y290D01*
X1236Y290D01*
X1236Y292D01*
X1234Y292D01*
X1234Y296D01*
X1232Y296D01*
X1232Y298D01*
X1230Y298D01*
X1230Y300D01*
X1228Y300D01*
X1228Y302D01*
X1226Y302D01*
X1226Y304D01*
X1224Y304D01*
X1224Y306D01*
X1222Y306D01*
X1222Y308D01*
X1220Y308D01*
X1220Y310D01*
X1218Y310D01*
X1218Y314D01*
X1216Y314D01*
X1216Y318D01*
X1214Y318D01*
X1214Y322D01*
X1212Y322D01*
X1212Y384D01*
X1210Y384D01*
X1210Y618D01*
X1036Y618D01*
G37*
D02*
G36*
X1744Y404D02*
X1744Y402D01*
X1742Y402D01*
X1742Y400D01*
X1740Y400D01*
X1740Y398D01*
X1738Y398D01*
X1738Y396D01*
X1736Y396D01*
X1736Y394D01*
X1734Y394D01*
X1734Y392D01*
X1732Y392D01*
X1732Y390D01*
X1730Y390D01*
X1730Y388D01*
X1728Y388D01*
X1728Y386D01*
X1726Y386D01*
X1726Y384D01*
X1724Y384D01*
X1724Y382D01*
X1722Y382D01*
X1722Y380D01*
X1720Y380D01*
X1720Y378D01*
X1718Y378D01*
X1718Y376D01*
X1716Y376D01*
X1716Y374D01*
X1714Y374D01*
X1714Y372D01*
X1712Y372D01*
X1712Y370D01*
X1710Y370D01*
X1710Y368D01*
X1708Y368D01*
X1708Y366D01*
X1706Y366D01*
X1706Y364D01*
X1704Y364D01*
X1704Y362D01*
X1702Y362D01*
X1702Y360D01*
X1700Y360D01*
X1700Y358D01*
X1698Y358D01*
X1698Y356D01*
X1696Y356D01*
X1696Y354D01*
X1694Y354D01*
X1694Y352D01*
X1692Y352D01*
X1692Y350D01*
X1690Y350D01*
X1690Y348D01*
X1688Y348D01*
X1688Y346D01*
X1686Y346D01*
X1686Y344D01*
X1684Y344D01*
X1684Y342D01*
X1682Y342D01*
X1682Y340D01*
X1680Y340D01*
X1680Y338D01*
X1678Y338D01*
X1678Y336D01*
X1676Y336D01*
X1676Y334D01*
X1674Y334D01*
X1674Y332D01*
X1672Y332D01*
X1672Y330D01*
X1670Y330D01*
X1670Y328D01*
X1668Y328D01*
X1668Y326D01*
X1666Y326D01*
X1666Y324D01*
X1664Y324D01*
X1664Y322D01*
X1662Y322D01*
X1662Y320D01*
X1660Y320D01*
X1660Y318D01*
X1658Y318D01*
X1658Y316D01*
X1656Y316D01*
X1656Y314D01*
X1654Y314D01*
X1654Y312D01*
X1652Y312D01*
X1652Y310D01*
X1650Y310D01*
X1650Y308D01*
X1648Y308D01*
X1648Y306D01*
X1646Y306D01*
X1646Y304D01*
X1644Y304D01*
X1644Y302D01*
X1642Y302D01*
X1642Y300D01*
X1640Y300D01*
X1640Y298D01*
X1638Y298D01*
X1638Y296D01*
X1636Y296D01*
X1636Y294D01*
X1634Y294D01*
X1634Y292D01*
X1632Y292D01*
X1632Y290D01*
X1630Y290D01*
X1630Y288D01*
X1628Y288D01*
X1628Y286D01*
X1626Y286D01*
X1626Y284D01*
X1624Y284D01*
X1624Y282D01*
X1622Y282D01*
X1622Y280D01*
X1620Y280D01*
X1620Y264D01*
X1618Y264D01*
X1618Y254D01*
X1616Y254D01*
X1616Y248D01*
X1614Y248D01*
X1614Y244D01*
X1612Y244D01*
X1612Y240D01*
X1610Y240D01*
X1610Y238D01*
X1608Y238D01*
X1608Y234D01*
X1606Y234D01*
X1606Y232D01*
X1604Y232D01*
X1604Y230D01*
X1602Y230D01*
X1602Y228D01*
X1600Y228D01*
X1600Y226D01*
X1598Y226D01*
X1598Y224D01*
X1596Y224D01*
X1596Y222D01*
X1594Y222D01*
X1594Y220D01*
X1592Y220D01*
X1592Y218D01*
X1590Y218D01*
X1590Y216D01*
X1586Y216D01*
X1586Y214D01*
X1584Y214D01*
X1584Y212D01*
X1580Y212D01*
X1580Y210D01*
X1576Y210D01*
X1576Y208D01*
X1570Y208D01*
X1570Y206D01*
X1560Y206D01*
X1560Y204D01*
X1796Y204D01*
X1796Y206D01*
X1786Y206D01*
X1786Y208D01*
X1780Y208D01*
X1780Y210D01*
X1776Y210D01*
X1776Y212D01*
X1772Y212D01*
X1772Y214D01*
X1768Y214D01*
X1768Y216D01*
X1766Y216D01*
X1766Y218D01*
X1762Y218D01*
X1762Y220D01*
X1760Y220D01*
X1760Y222D01*
X1758Y222D01*
X1758Y224D01*
X1756Y224D01*
X1756Y226D01*
X1754Y226D01*
X1754Y228D01*
X1752Y228D01*
X1752Y230D01*
X1750Y230D01*
X1750Y234D01*
X1748Y234D01*
X1748Y236D01*
X1746Y236D01*
X1746Y238D01*
X1744Y238D01*
X1744Y242D01*
X1742Y242D01*
X1742Y246D01*
X1740Y246D01*
X1740Y252D01*
X1738Y252D01*
X1738Y258D01*
X1736Y258D01*
X1736Y290D01*
X1738Y290D01*
X1738Y298D01*
X1740Y298D01*
X1740Y302D01*
X1742Y302D01*
X1742Y306D01*
X1744Y306D01*
X1744Y310D01*
X1746Y310D01*
X1746Y312D01*
X1748Y312D01*
X1748Y316D01*
X1750Y316D01*
X1750Y318D01*
X1752Y318D01*
X1752Y320D01*
X1754Y320D01*
X1754Y322D01*
X1756Y322D01*
X1756Y324D01*
X1758Y324D01*
X1758Y326D01*
X1760Y326D01*
X1760Y328D01*
X1762Y328D01*
X1762Y330D01*
X1764Y330D01*
X1764Y332D01*
X1768Y332D01*
X1768Y334D01*
X1770Y334D01*
X1770Y336D01*
X1774Y336D01*
X1774Y338D01*
X1778Y338D01*
X1778Y340D01*
X1782Y340D01*
X1782Y342D01*
X1790Y342D01*
X1790Y344D01*
X1796Y344D01*
X1796Y364D01*
X1794Y364D01*
X1794Y366D01*
X1790Y366D01*
X1790Y368D01*
X1788Y368D01*
X1788Y370D01*
X1786Y370D01*
X1786Y372D01*
X1784Y372D01*
X1784Y374D01*
X1782Y374D01*
X1782Y376D01*
X1780Y376D01*
X1780Y378D01*
X1778Y378D01*
X1778Y380D01*
X1776Y380D01*
X1776Y382D01*
X1774Y382D01*
X1774Y386D01*
X1772Y386D01*
X1772Y388D01*
X1770Y388D01*
X1770Y392D01*
X1768Y392D01*
X1768Y396D01*
X1766Y396D01*
X1766Y402D01*
X1764Y402D01*
X1764Y404D01*
X1744Y404D01*
G37*
D02*
G36*
X970Y354D02*
X970Y352D01*
X968Y352D01*
X968Y350D01*
X966Y350D01*
X966Y348D01*
X964Y348D01*
X964Y346D01*
X962Y346D01*
X962Y344D01*
X960Y344D01*
X960Y342D01*
X958Y342D01*
X958Y340D01*
X956Y340D01*
X956Y338D01*
X954Y338D01*
X954Y336D01*
X952Y336D01*
X952Y334D01*
X950Y334D01*
X950Y332D01*
X948Y332D01*
X948Y330D01*
X946Y330D01*
X946Y328D01*
X944Y328D01*
X944Y326D01*
X942Y326D01*
X942Y324D01*
X940Y324D01*
X940Y322D01*
X938Y322D01*
X938Y320D01*
X936Y320D01*
X936Y318D01*
X934Y318D01*
X934Y316D01*
X932Y316D01*
X932Y314D01*
X930Y314D01*
X930Y312D01*
X928Y312D01*
X928Y310D01*
X926Y310D01*
X926Y308D01*
X924Y308D01*
X924Y306D01*
X922Y306D01*
X922Y304D01*
X920Y304D01*
X920Y302D01*
X916Y302D01*
X916Y300D01*
X914Y300D01*
X914Y298D01*
X912Y298D01*
X912Y296D01*
X908Y296D01*
X908Y254D01*
X906Y254D01*
X906Y248D01*
X904Y248D01*
X904Y242D01*
X902Y242D01*
X902Y238D01*
X900Y238D01*
X900Y236D01*
X898Y236D01*
X898Y232D01*
X896Y232D01*
X896Y230D01*
X894Y230D01*
X894Y228D01*
X892Y228D01*
X892Y226D01*
X890Y226D01*
X890Y224D01*
X888Y224D01*
X888Y222D01*
X886Y222D01*
X886Y220D01*
X884Y220D01*
X884Y218D01*
X882Y218D01*
X882Y216D01*
X880Y216D01*
X880Y214D01*
X876Y214D01*
X876Y212D01*
X874Y212D01*
X874Y210D01*
X870Y210D01*
X870Y208D01*
X866Y208D01*
X866Y206D01*
X1040Y206D01*
X1040Y208D01*
X1034Y208D01*
X1034Y210D01*
X1030Y210D01*
X1030Y212D01*
X1026Y212D01*
X1026Y214D01*
X1022Y214D01*
X1022Y216D01*
X1020Y216D01*
X1020Y218D01*
X1016Y218D01*
X1016Y220D01*
X1014Y220D01*
X1014Y222D01*
X1012Y222D01*
X1012Y224D01*
X1010Y224D01*
X1010Y226D01*
X1008Y226D01*
X1008Y228D01*
X1006Y228D01*
X1006Y230D01*
X1004Y230D01*
X1004Y232D01*
X1002Y232D01*
X1002Y236D01*
X1000Y236D01*
X1000Y238D01*
X998Y238D01*
X998Y242D01*
X996Y242D01*
X996Y246D01*
X994Y246D01*
X994Y250D01*
X992Y250D01*
X992Y256D01*
X990Y256D01*
X990Y294D01*
X992Y294D01*
X992Y300D01*
X994Y300D01*
X994Y304D01*
X996Y304D01*
X996Y308D01*
X998Y308D01*
X998Y312D01*
X1000Y312D01*
X1000Y314D01*
X1002Y314D01*
X1002Y318D01*
X1004Y318D01*
X1004Y320D01*
X1006Y320D01*
X1006Y322D01*
X1008Y322D01*
X1008Y324D01*
X1010Y324D01*
X1010Y326D01*
X1012Y326D01*
X1012Y328D01*
X1014Y328D01*
X1014Y330D01*
X1016Y330D01*
X1016Y332D01*
X1020Y332D01*
X1020Y334D01*
X1022Y334D01*
X1022Y354D01*
X970Y354D01*
G37*
D02*
G36*
X652Y292D02*
X652Y252D01*
X650Y252D01*
X650Y248D01*
X648Y248D01*
X648Y242D01*
X646Y242D01*
X646Y238D01*
X644Y238D01*
X644Y236D01*
X642Y236D01*
X642Y232D01*
X640Y232D01*
X640Y230D01*
X638Y230D01*
X638Y228D01*
X636Y228D01*
X636Y226D01*
X634Y226D01*
X634Y224D01*
X632Y224D01*
X632Y222D01*
X630Y222D01*
X630Y220D01*
X628Y220D01*
X628Y218D01*
X626Y218D01*
X626Y216D01*
X624Y216D01*
X624Y214D01*
X620Y214D01*
X620Y212D01*
X618Y212D01*
X618Y210D01*
X614Y210D01*
X614Y208D01*
X610Y208D01*
X610Y206D01*
X604Y206D01*
X604Y204D01*
X596Y204D01*
X596Y202D01*
X828Y202D01*
X828Y204D01*
X818Y204D01*
X818Y206D01*
X812Y206D01*
X812Y208D01*
X808Y208D01*
X808Y210D01*
X804Y210D01*
X804Y212D01*
X802Y212D01*
X802Y214D01*
X798Y214D01*
X798Y216D01*
X796Y216D01*
X796Y218D01*
X794Y218D01*
X794Y220D01*
X792Y220D01*
X792Y222D01*
X790Y222D01*
X790Y224D01*
X788Y224D01*
X788Y226D01*
X786Y226D01*
X786Y228D01*
X784Y228D01*
X784Y230D01*
X782Y230D01*
X782Y234D01*
X780Y234D01*
X780Y236D01*
X778Y236D01*
X778Y240D01*
X776Y240D01*
X776Y244D01*
X774Y244D01*
X774Y248D01*
X772Y248D01*
X772Y254D01*
X770Y254D01*
X770Y292D01*
X652Y292D01*
G37*
D02*
G36*
X282Y246D02*
X282Y244D01*
X280Y244D01*
X280Y242D01*
X278Y242D01*
X278Y240D01*
X276Y240D01*
X276Y238D01*
X274Y238D01*
X274Y236D01*
X272Y236D01*
X272Y234D01*
X270Y234D01*
X270Y232D01*
X268Y232D01*
X268Y230D01*
X266Y230D01*
X266Y228D01*
X264Y228D01*
X264Y226D01*
X262Y226D01*
X262Y224D01*
X260Y224D01*
X260Y222D01*
X258Y222D01*
X258Y220D01*
X256Y220D01*
X256Y218D01*
X254Y218D01*
X254Y216D01*
X252Y216D01*
X252Y214D01*
X250Y214D01*
X250Y212D01*
X248Y212D01*
X248Y210D01*
X246Y210D01*
X246Y208D01*
X244Y208D01*
X244Y206D01*
X242Y206D01*
X242Y204D01*
X240Y204D01*
X240Y202D01*
X350Y202D01*
X350Y204D01*
X344Y204D01*
X344Y206D01*
X340Y206D01*
X340Y208D01*
X336Y208D01*
X336Y210D01*
X332Y210D01*
X332Y212D01*
X328Y212D01*
X328Y214D01*
X326Y214D01*
X326Y216D01*
X324Y216D01*
X324Y218D01*
X322Y218D01*
X322Y220D01*
X320Y220D01*
X320Y222D01*
X318Y222D01*
X318Y224D01*
X316Y224D01*
X316Y226D01*
X314Y226D01*
X314Y228D01*
X312Y228D01*
X312Y230D01*
X310Y230D01*
X310Y232D01*
X308Y232D01*
X308Y236D01*
X306Y236D01*
X306Y240D01*
X304Y240D01*
X304Y244D01*
X302Y244D01*
X302Y246D01*
X282Y246D01*
G37*
D02*
G36*
X1368Y230D02*
X1368Y228D01*
X1366Y228D01*
X1366Y226D01*
X1364Y226D01*
X1364Y224D01*
X1362Y224D01*
X1362Y222D01*
X1358Y222D01*
X1358Y220D01*
X1356Y220D01*
X1356Y218D01*
X1354Y218D01*
X1354Y216D01*
X1350Y216D01*
X1350Y214D01*
X1348Y214D01*
X1348Y212D01*
X1344Y212D01*
X1344Y210D01*
X1340Y210D01*
X1340Y208D01*
X1332Y208D01*
X1332Y206D01*
X1530Y206D01*
X1530Y208D01*
X1524Y208D01*
X1524Y210D01*
X1520Y210D01*
X1520Y212D01*
X1516Y212D01*
X1516Y214D01*
X1512Y214D01*
X1512Y216D01*
X1510Y216D01*
X1510Y218D01*
X1506Y218D01*
X1506Y220D01*
X1504Y220D01*
X1504Y222D01*
X1502Y222D01*
X1502Y224D01*
X1500Y224D01*
X1500Y226D01*
X1498Y226D01*
X1498Y228D01*
X1496Y228D01*
X1496Y230D01*
X1368Y230D01*
G37*
D02*
G36*
X422Y228D02*
X422Y226D01*
X420Y226D01*
X420Y224D01*
X418Y224D01*
X418Y222D01*
X416Y222D01*
X416Y220D01*
X414Y220D01*
X414Y218D01*
X412Y218D01*
X412Y216D01*
X408Y216D01*
X408Y214D01*
X406Y214D01*
X406Y212D01*
X402Y212D01*
X402Y210D01*
X400Y210D01*
X400Y208D01*
X396Y208D01*
X396Y206D01*
X390Y206D01*
X390Y204D01*
X384Y204D01*
X384Y202D01*
X572Y202D01*
X572Y204D01*
X562Y204D01*
X562Y206D01*
X556Y206D01*
X556Y208D01*
X552Y208D01*
X552Y210D01*
X548Y210D01*
X548Y212D01*
X546Y212D01*
X546Y214D01*
X542Y214D01*
X542Y216D01*
X540Y216D01*
X540Y218D01*
X538Y218D01*
X538Y220D01*
X536Y220D01*
X536Y222D01*
X534Y222D01*
X534Y224D01*
X532Y224D01*
X532Y226D01*
X530Y226D01*
X530Y228D01*
X422Y228D01*
G37*
D02*
G36*
X860Y206D02*
X860Y204D01*
X1540Y204D01*
X1540Y206D01*
X860Y206D01*
G37*
D02*
G36*
X860Y206D02*
X860Y204D01*
X1540Y204D01*
X1540Y206D01*
X860Y206D01*
G37*
D02*
G36*
X860Y206D02*
X860Y204D01*
X1540Y204D01*
X1540Y206D01*
X860Y206D01*
G37*
D02*
G36*
X852Y204D02*
X852Y202D01*
X1924Y202D01*
X1924Y204D01*
X852Y204D01*
G37*
D02*
G36*
X852Y204D02*
X852Y202D01*
X1924Y202D01*
X1924Y204D01*
X852Y204D01*
G37*
D02*
G36*
X852Y204D02*
X852Y202D01*
X1924Y202D01*
X1924Y204D01*
X852Y204D01*
G37*
D02*
G36*
X238Y202D02*
X238Y200D01*
X1924Y200D01*
X1924Y202D01*
X238Y202D01*
G37*
D02*
G36*
X238Y202D02*
X238Y200D01*
X1924Y200D01*
X1924Y202D01*
X238Y202D01*
G37*
D02*
G36*
X238Y202D02*
X238Y200D01*
X1924Y200D01*
X1924Y202D01*
X238Y202D01*
G37*
D02*
G36*
X238Y202D02*
X238Y200D01*
X1924Y200D01*
X1924Y202D01*
X238Y202D01*
G37*
D02*
G36*
X236Y200D02*
X236Y198D01*
X234Y198D01*
X234Y196D01*
X232Y196D01*
X232Y194D01*
X230Y194D01*
X230Y192D01*
X228Y192D01*
X228Y190D01*
X226Y190D01*
X226Y188D01*
X224Y188D01*
X224Y186D01*
X222Y186D01*
X222Y184D01*
X220Y184D01*
X220Y182D01*
X218Y182D01*
X218Y180D01*
X216Y180D01*
X216Y178D01*
X214Y178D01*
X214Y176D01*
X212Y176D01*
X212Y174D01*
X210Y174D01*
X210Y172D01*
X208Y172D01*
X208Y170D01*
X206Y170D01*
X206Y168D01*
X1326Y168D01*
X1326Y166D01*
X1824Y166D01*
X1824Y164D01*
X1830Y164D01*
X1830Y162D01*
X1836Y162D01*
X1836Y160D01*
X1838Y160D01*
X1838Y158D01*
X1842Y158D01*
X1842Y156D01*
X1846Y156D01*
X1846Y154D01*
X1848Y154D01*
X1848Y152D01*
X1850Y152D01*
X1850Y150D01*
X1852Y150D01*
X1852Y148D01*
X1854Y148D01*
X1854Y146D01*
X1856Y146D01*
X1856Y144D01*
X1858Y144D01*
X1858Y142D01*
X1860Y142D01*
X1860Y140D01*
X1862Y140D01*
X1862Y138D01*
X1864Y138D01*
X1864Y134D01*
X1866Y134D01*
X1866Y130D01*
X1868Y130D01*
X1868Y128D01*
X1870Y128D01*
X1870Y122D01*
X1872Y122D01*
X1872Y118D01*
X1874Y118D01*
X1874Y78D01*
X1872Y78D01*
X1872Y72D01*
X1870Y72D01*
X1870Y68D01*
X1868Y68D01*
X1868Y64D01*
X1866Y64D01*
X1866Y42D01*
X1924Y42D01*
X1924Y200D01*
X236Y200D01*
G37*
D02*
G36*
X204Y168D02*
X204Y166D01*
X202Y166D01*
X202Y164D01*
X858Y164D01*
X858Y162D01*
X864Y162D01*
X864Y160D01*
X868Y160D01*
X868Y158D01*
X872Y158D01*
X872Y156D01*
X876Y156D01*
X876Y154D01*
X878Y154D01*
X878Y152D01*
X882Y152D01*
X882Y150D01*
X884Y150D01*
X884Y148D01*
X886Y148D01*
X886Y146D01*
X888Y146D01*
X888Y144D01*
X890Y144D01*
X890Y142D01*
X892Y142D01*
X892Y140D01*
X894Y140D01*
X894Y138D01*
X896Y138D01*
X896Y134D01*
X898Y134D01*
X898Y132D01*
X900Y132D01*
X900Y128D01*
X902Y128D01*
X902Y124D01*
X904Y124D01*
X904Y120D01*
X906Y120D01*
X906Y114D01*
X908Y114D01*
X908Y76D01*
X906Y76D01*
X906Y70D01*
X904Y70D01*
X904Y66D01*
X902Y66D01*
X902Y62D01*
X900Y62D01*
X900Y42D01*
X1000Y42D01*
X1000Y62D01*
X998Y62D01*
X998Y64D01*
X996Y64D01*
X996Y68D01*
X994Y68D01*
X994Y72D01*
X992Y72D01*
X992Y78D01*
X990Y78D01*
X990Y118D01*
X992Y118D01*
X992Y124D01*
X994Y124D01*
X994Y128D01*
X996Y128D01*
X996Y132D01*
X998Y132D01*
X998Y134D01*
X1000Y134D01*
X1000Y138D01*
X1002Y138D01*
X1002Y140D01*
X1004Y140D01*
X1004Y142D01*
X1006Y142D01*
X1006Y144D01*
X1008Y144D01*
X1008Y146D01*
X1010Y146D01*
X1010Y148D01*
X1012Y148D01*
X1012Y150D01*
X1014Y150D01*
X1014Y152D01*
X1016Y152D01*
X1016Y154D01*
X1018Y154D01*
X1018Y156D01*
X1022Y156D01*
X1022Y158D01*
X1024Y158D01*
X1024Y160D01*
X1028Y160D01*
X1028Y162D01*
X1032Y162D01*
X1032Y164D01*
X1038Y164D01*
X1038Y166D01*
X1046Y166D01*
X1046Y168D01*
X204Y168D01*
G37*
D02*
G36*
X1070Y168D02*
X1070Y166D01*
X1080Y166D01*
X1080Y164D01*
X1086Y164D01*
X1086Y162D01*
X1090Y162D01*
X1090Y160D01*
X1094Y160D01*
X1094Y158D01*
X1096Y158D01*
X1096Y156D01*
X1100Y156D01*
X1100Y154D01*
X1102Y154D01*
X1102Y152D01*
X1104Y152D01*
X1104Y150D01*
X1106Y150D01*
X1106Y148D01*
X1108Y148D01*
X1108Y146D01*
X1110Y146D01*
X1110Y144D01*
X1112Y144D01*
X1112Y142D01*
X1114Y142D01*
X1114Y140D01*
X1116Y140D01*
X1116Y136D01*
X1118Y136D01*
X1118Y134D01*
X1120Y134D01*
X1120Y130D01*
X1122Y130D01*
X1122Y126D01*
X1124Y126D01*
X1124Y122D01*
X1126Y122D01*
X1126Y114D01*
X1128Y114D01*
X1128Y80D01*
X1126Y80D01*
X1126Y74D01*
X1124Y74D01*
X1124Y70D01*
X1122Y70D01*
X1122Y66D01*
X1120Y66D01*
X1120Y62D01*
X1118Y62D01*
X1118Y42D01*
X1254Y42D01*
X1254Y64D01*
X1252Y64D01*
X1252Y68D01*
X1250Y68D01*
X1250Y72D01*
X1248Y72D01*
X1248Y78D01*
X1246Y78D01*
X1246Y118D01*
X1248Y118D01*
X1248Y124D01*
X1250Y124D01*
X1250Y128D01*
X1252Y128D01*
X1252Y132D01*
X1254Y132D01*
X1254Y134D01*
X1256Y134D01*
X1256Y138D01*
X1258Y138D01*
X1258Y140D01*
X1260Y140D01*
X1260Y142D01*
X1262Y142D01*
X1262Y144D01*
X1264Y144D01*
X1264Y146D01*
X1266Y146D01*
X1266Y148D01*
X1268Y148D01*
X1268Y150D01*
X1270Y150D01*
X1270Y152D01*
X1272Y152D01*
X1272Y154D01*
X1274Y154D01*
X1274Y156D01*
X1278Y156D01*
X1278Y158D01*
X1280Y158D01*
X1280Y160D01*
X1284Y160D01*
X1284Y162D01*
X1288Y162D01*
X1288Y164D01*
X1294Y164D01*
X1294Y166D01*
X1302Y166D01*
X1302Y168D01*
X1070Y168D01*
G37*
D02*
G36*
X1336Y166D02*
X1336Y164D01*
X1342Y164D01*
X1342Y162D01*
X1346Y162D01*
X1346Y160D01*
X1348Y160D01*
X1348Y158D01*
X1352Y158D01*
X1352Y156D01*
X1354Y156D01*
X1354Y154D01*
X1358Y154D01*
X1358Y152D01*
X1360Y152D01*
X1360Y150D01*
X1362Y150D01*
X1362Y148D01*
X1364Y148D01*
X1364Y146D01*
X1366Y146D01*
X1366Y144D01*
X1368Y144D01*
X1368Y142D01*
X1370Y142D01*
X1370Y140D01*
X1372Y140D01*
X1372Y136D01*
X1374Y136D01*
X1374Y134D01*
X1376Y134D01*
X1376Y130D01*
X1378Y130D01*
X1378Y126D01*
X1380Y126D01*
X1380Y122D01*
X1382Y122D01*
X1382Y114D01*
X1384Y114D01*
X1384Y82D01*
X1382Y82D01*
X1382Y74D01*
X1380Y74D01*
X1380Y70D01*
X1378Y70D01*
X1378Y66D01*
X1376Y66D01*
X1376Y62D01*
X1374Y62D01*
X1374Y42D01*
X1490Y42D01*
X1490Y62D01*
X1488Y62D01*
X1488Y66D01*
X1486Y66D01*
X1486Y70D01*
X1484Y70D01*
X1484Y74D01*
X1482Y74D01*
X1482Y82D01*
X1480Y82D01*
X1480Y112D01*
X1482Y112D01*
X1482Y120D01*
X1484Y120D01*
X1484Y126D01*
X1486Y126D01*
X1486Y130D01*
X1488Y130D01*
X1488Y132D01*
X1490Y132D01*
X1490Y136D01*
X1492Y136D01*
X1492Y138D01*
X1494Y138D01*
X1494Y140D01*
X1496Y140D01*
X1496Y144D01*
X1498Y144D01*
X1498Y146D01*
X1500Y146D01*
X1500Y148D01*
X1502Y148D01*
X1502Y150D01*
X1504Y150D01*
X1504Y152D01*
X1508Y152D01*
X1508Y154D01*
X1510Y154D01*
X1510Y156D01*
X1512Y156D01*
X1512Y158D01*
X1516Y158D01*
X1516Y160D01*
X1520Y160D01*
X1520Y162D01*
X1524Y162D01*
X1524Y164D01*
X1530Y164D01*
X1530Y166D01*
X1336Y166D01*
G37*
D02*
G36*
X1568Y166D02*
X1568Y164D01*
X1574Y164D01*
X1574Y162D01*
X1580Y162D01*
X1580Y160D01*
X1582Y160D01*
X1582Y158D01*
X1586Y158D01*
X1586Y156D01*
X1590Y156D01*
X1590Y154D01*
X1592Y154D01*
X1592Y152D01*
X1594Y152D01*
X1594Y150D01*
X1596Y150D01*
X1596Y148D01*
X1598Y148D01*
X1598Y146D01*
X1600Y146D01*
X1600Y144D01*
X1602Y144D01*
X1602Y142D01*
X1604Y142D01*
X1604Y140D01*
X1606Y140D01*
X1606Y138D01*
X1608Y138D01*
X1608Y134D01*
X1610Y134D01*
X1610Y132D01*
X1612Y132D01*
X1612Y128D01*
X1614Y128D01*
X1614Y124D01*
X1616Y124D01*
X1616Y118D01*
X1618Y118D01*
X1618Y106D01*
X1620Y106D01*
X1620Y88D01*
X1618Y88D01*
X1618Y76D01*
X1616Y76D01*
X1616Y72D01*
X1614Y72D01*
X1614Y66D01*
X1612Y66D01*
X1612Y64D01*
X1610Y64D01*
X1610Y42D01*
X1746Y42D01*
X1746Y62D01*
X1744Y62D01*
X1744Y66D01*
X1742Y66D01*
X1742Y70D01*
X1740Y70D01*
X1740Y74D01*
X1738Y74D01*
X1738Y82D01*
X1736Y82D01*
X1736Y114D01*
X1738Y114D01*
X1738Y120D01*
X1740Y120D01*
X1740Y126D01*
X1742Y126D01*
X1742Y130D01*
X1744Y130D01*
X1744Y132D01*
X1746Y132D01*
X1746Y136D01*
X1748Y136D01*
X1748Y138D01*
X1750Y138D01*
X1750Y140D01*
X1752Y140D01*
X1752Y144D01*
X1754Y144D01*
X1754Y146D01*
X1756Y146D01*
X1756Y148D01*
X1758Y148D01*
X1758Y150D01*
X1760Y150D01*
X1760Y152D01*
X1764Y152D01*
X1764Y154D01*
X1766Y154D01*
X1766Y156D01*
X1768Y156D01*
X1768Y158D01*
X1772Y158D01*
X1772Y160D01*
X1776Y160D01*
X1776Y162D01*
X1780Y162D01*
X1780Y164D01*
X1786Y164D01*
X1786Y166D01*
X1568Y166D01*
G37*
D02*
G36*
X200Y164D02*
X200Y162D01*
X198Y162D01*
X198Y160D01*
X196Y160D01*
X196Y158D01*
X194Y158D01*
X194Y156D01*
X192Y156D01*
X192Y154D01*
X190Y154D01*
X190Y152D01*
X188Y152D01*
X188Y150D01*
X186Y150D01*
X186Y148D01*
X184Y148D01*
X184Y146D01*
X182Y146D01*
X182Y144D01*
X180Y144D01*
X180Y142D01*
X178Y142D01*
X178Y140D01*
X176Y140D01*
X176Y120D01*
X178Y120D01*
X178Y114D01*
X180Y114D01*
X180Y74D01*
X178Y74D01*
X178Y68D01*
X176Y68D01*
X176Y64D01*
X174Y64D01*
X174Y42D01*
X306Y42D01*
X306Y62D01*
X304Y62D01*
X304Y66D01*
X302Y66D01*
X302Y70D01*
X300Y70D01*
X300Y78D01*
X298Y78D01*
X298Y112D01*
X300Y112D01*
X300Y118D01*
X302Y118D01*
X302Y122D01*
X304Y122D01*
X304Y126D01*
X306Y126D01*
X306Y130D01*
X308Y130D01*
X308Y134D01*
X310Y134D01*
X310Y136D01*
X312Y136D01*
X312Y138D01*
X314Y138D01*
X314Y140D01*
X316Y140D01*
X316Y142D01*
X318Y142D01*
X318Y144D01*
X320Y144D01*
X320Y146D01*
X322Y146D01*
X322Y148D01*
X324Y148D01*
X324Y150D01*
X326Y150D01*
X326Y152D01*
X330Y152D01*
X330Y154D01*
X332Y154D01*
X332Y156D01*
X336Y156D01*
X336Y158D01*
X340Y158D01*
X340Y160D01*
X344Y160D01*
X344Y162D01*
X352Y162D01*
X352Y164D01*
X200Y164D01*
G37*
D02*
G36*
X382Y164D02*
X382Y162D01*
X390Y162D01*
X390Y160D01*
X394Y160D01*
X394Y158D01*
X398Y158D01*
X398Y156D01*
X402Y156D01*
X402Y154D01*
X406Y154D01*
X406Y152D01*
X408Y152D01*
X408Y150D01*
X410Y150D01*
X410Y148D01*
X414Y148D01*
X414Y146D01*
X416Y146D01*
X416Y144D01*
X418Y144D01*
X418Y142D01*
X420Y142D01*
X420Y138D01*
X422Y138D01*
X422Y136D01*
X424Y136D01*
X424Y134D01*
X426Y134D01*
X426Y130D01*
X428Y130D01*
X428Y128D01*
X430Y128D01*
X430Y124D01*
X432Y124D01*
X432Y120D01*
X434Y120D01*
X434Y114D01*
X436Y114D01*
X436Y74D01*
X434Y74D01*
X434Y70D01*
X432Y70D01*
X432Y64D01*
X430Y64D01*
X430Y42D01*
X522Y42D01*
X522Y62D01*
X520Y62D01*
X520Y66D01*
X518Y66D01*
X518Y72D01*
X516Y72D01*
X516Y78D01*
X514Y78D01*
X514Y112D01*
X516Y112D01*
X516Y118D01*
X518Y118D01*
X518Y124D01*
X520Y124D01*
X520Y128D01*
X522Y128D01*
X522Y130D01*
X524Y130D01*
X524Y134D01*
X526Y134D01*
X526Y136D01*
X528Y136D01*
X528Y140D01*
X530Y140D01*
X530Y142D01*
X532Y142D01*
X532Y144D01*
X534Y144D01*
X534Y146D01*
X536Y146D01*
X536Y148D01*
X538Y148D01*
X538Y150D01*
X542Y150D01*
X542Y152D01*
X544Y152D01*
X544Y154D01*
X546Y154D01*
X546Y156D01*
X550Y156D01*
X550Y158D01*
X554Y158D01*
X554Y160D01*
X558Y160D01*
X558Y162D01*
X564Y162D01*
X564Y164D01*
X382Y164D01*
G37*
D02*
G36*
X602Y164D02*
X602Y162D01*
X608Y162D01*
X608Y160D01*
X612Y160D01*
X612Y158D01*
X616Y158D01*
X616Y156D01*
X620Y156D01*
X620Y154D01*
X622Y154D01*
X622Y152D01*
X626Y152D01*
X626Y150D01*
X628Y150D01*
X628Y148D01*
X630Y148D01*
X630Y146D01*
X632Y146D01*
X632Y144D01*
X634Y144D01*
X634Y142D01*
X636Y142D01*
X636Y140D01*
X638Y140D01*
X638Y138D01*
X640Y138D01*
X640Y134D01*
X642Y134D01*
X642Y132D01*
X644Y132D01*
X644Y128D01*
X646Y128D01*
X646Y124D01*
X648Y124D01*
X648Y120D01*
X650Y120D01*
X650Y114D01*
X652Y114D01*
X652Y76D01*
X650Y76D01*
X650Y70D01*
X648Y70D01*
X648Y66D01*
X646Y66D01*
X646Y62D01*
X644Y62D01*
X644Y42D01*
X778Y42D01*
X778Y62D01*
X776Y62D01*
X776Y66D01*
X774Y66D01*
X774Y70D01*
X772Y70D01*
X772Y78D01*
X770Y78D01*
X770Y112D01*
X772Y112D01*
X772Y120D01*
X774Y120D01*
X774Y124D01*
X776Y124D01*
X776Y128D01*
X778Y128D01*
X778Y130D01*
X780Y130D01*
X780Y134D01*
X782Y134D01*
X782Y136D01*
X784Y136D01*
X784Y140D01*
X786Y140D01*
X786Y142D01*
X788Y142D01*
X788Y144D01*
X790Y144D01*
X790Y146D01*
X792Y146D01*
X792Y148D01*
X794Y148D01*
X794Y150D01*
X798Y150D01*
X798Y152D01*
X800Y152D01*
X800Y154D01*
X802Y154D01*
X802Y156D01*
X806Y156D01*
X806Y158D01*
X810Y158D01*
X810Y160D01*
X814Y160D01*
X814Y162D01*
X820Y162D01*
X820Y164D01*
X602Y164D01*
G37*
D02*
G36*
X40Y226D02*
X40Y140D01*
X60Y140D01*
X60Y142D01*
X62Y142D01*
X62Y144D01*
X64Y144D01*
X64Y146D01*
X66Y146D01*
X66Y148D01*
X68Y148D01*
X68Y154D01*
X70Y154D01*
X70Y162D01*
X72Y162D01*
X72Y166D01*
X74Y166D01*
X74Y168D01*
X76Y168D01*
X76Y172D01*
X78Y172D01*
X78Y174D01*
X80Y174D01*
X80Y176D01*
X82Y176D01*
X82Y178D01*
X84Y178D01*
X84Y180D01*
X86Y180D01*
X86Y182D01*
X88Y182D01*
X88Y184D01*
X90Y184D01*
X90Y204D01*
X88Y204D01*
X88Y206D01*
X84Y206D01*
X84Y208D01*
X80Y208D01*
X80Y210D01*
X76Y210D01*
X76Y212D01*
X72Y212D01*
X72Y214D01*
X70Y214D01*
X70Y216D01*
X68Y216D01*
X68Y218D01*
X66Y218D01*
X66Y220D01*
X64Y220D01*
X64Y222D01*
X62Y222D01*
X62Y224D01*
X60Y224D01*
X60Y226D01*
X40Y226D01*
G37*
D02*
G04 End of Copper1*
M02*