M48
M72,TZ
T10C0.035000
T11C0.031497
T12C0.038000
T13C0.037167
%
T10
X1.898340Y1.307110
X1.598340Y1.307110
X0.392094Y0.534710
X0.092094Y0.534710
X0.395676Y0.423677
X0.095676Y0.423677
X0.859193Y0.422566
X0.559193Y0.422566
X1.338880Y0.422866
X1.038880Y0.422866
X1.832120Y0.422932
X1.532120Y0.422932
X0.858093Y0.541221
X0.558093Y0.541221
X1.335150Y0.536599
X1.035150Y0.536599
X1.829840Y0.538054
X1.529840Y0.538054
X0.111415Y0.271050
X0.367325Y0.271050
X0.111415Y0.093880
X0.367325Y0.093880
X1.549600Y0.273990
X1.805510Y0.273990
X1.549600Y0.096820
X1.805510Y0.096820
X1.058700Y0.274580
X1.314610Y0.274580
X1.058700Y0.097410
X1.314610Y0.097410
X0.583301Y0.271790
X0.839211Y0.271790
X0.583301Y0.094620
X0.839211Y0.094620
X0.746290Y0.938166
X0.746290Y1.238166
X0.846290Y0.938166
X0.846290Y1.238166
X0.946290Y0.938166
X0.946290Y1.238166
X1.046290Y0.938166
X1.046290Y1.238166
X1.146290Y0.938166
X1.146290Y1.238166
X1.246290Y0.938166
X1.246290Y1.238166
X1.346290Y0.938166
X1.346290Y1.238166
T11
X1.639070Y1.142021
X1.639070Y1.043588
X1.649110Y0.687365
X1.747540Y0.687365
X0.193734Y0.682365
X0.292167Y0.682365
X0.659149Y0.684954
X0.757582Y0.684954
X1.155720Y0.683954
X1.254150Y0.683954
T12
X1.817750Y1.146021
X1.817750Y1.046021
T13
X0.291429Y1.244166
X0.291429Y0.976444
T00
M30
