G04 MADE WITH FRITZING*
G04 WWW.FRITZING.ORG*
G04 DOUBLE SIDED*
G04 HOLES PLATED*
G04 CONTOUR ON CENTER OF CONTOUR VECTOR*
%ASAXBY*%
%FSLAX23Y23*%
%MOIN*%
%OFA0B0*%
%SFA1.0B1.0*%
%ADD10C,0.081000*%
%ADD11C,0.068992*%
%ADD12C,0.084000*%
%ADD13C,0.084833*%
%ADD14R,0.081000X0.081000*%
%ADD15R,0.068992X0.068992*%
%ADD16R,0.084819X0.084847*%
%LNMASK1*%
G90*
G70*
G54D10*
X1346Y1238D03*
X1346Y938D03*
X1246Y1238D03*
X1246Y938D03*
X1146Y1238D03*
X1146Y938D03*
X1046Y1238D03*
X1046Y938D03*
X946Y1238D03*
X946Y938D03*
X846Y1238D03*
X846Y938D03*
X746Y1238D03*
X746Y938D03*
G54D11*
X1254Y684D03*
X1156Y684D03*
X758Y685D03*
X659Y685D03*
X292Y682D03*
X194Y682D03*
X1748Y687D03*
X1649Y687D03*
G54D10*
X839Y95D03*
X583Y95D03*
X839Y272D03*
X583Y272D03*
X1315Y97D03*
X1059Y97D03*
X1315Y275D03*
X1059Y275D03*
X1806Y97D03*
X1550Y97D03*
X1806Y274D03*
X1550Y274D03*
X367Y94D03*
X111Y94D03*
X367Y271D03*
X111Y271D03*
X1530Y538D03*
X1830Y538D03*
X1035Y537D03*
X1335Y537D03*
X558Y541D03*
X858Y541D03*
X1532Y423D03*
X1832Y423D03*
X1039Y423D03*
X1339Y423D03*
X559Y423D03*
X859Y423D03*
X96Y424D03*
X396Y424D03*
X92Y535D03*
X392Y535D03*
G54D12*
X1818Y1046D03*
X1818Y1146D03*
G54D11*
X1639Y1044D03*
X1639Y1142D03*
G54D10*
X1598Y1307D03*
X1898Y1307D03*
G54D13*
X291Y976D03*
X291Y1244D03*
G54D14*
X1346Y1238D03*
G54D15*
X1254Y684D03*
X758Y685D03*
X292Y682D03*
X1748Y687D03*
G54D14*
X1530Y538D03*
X1035Y537D03*
X558Y541D03*
X1532Y423D03*
X1039Y423D03*
X559Y423D03*
X96Y424D03*
X92Y535D03*
G54D15*
X1639Y1044D03*
G54D14*
X1598Y1307D03*
G54D16*
X291Y976D03*
G04 End of Mask1*
M02*