G04 MADE WITH FRITZING*
G04 WWW.FRITZING.ORG*
G04 DOUBLE SIDED*
G04 HOLES PLATED*
G04 CONTOUR ON CENTER OF CONTOUR VECTOR*
%ASAXBY*%
%FSLAX23Y23*%
%MOIN*%
%OFA0B0*%
%SFA1.0B1.0*%
%ADD10C,0.075000*%
%ADD11C,0.062992*%
%ADD12C,0.078000*%
%ADD13C,0.078833*%
%ADD14R,0.075000X0.075000*%
%ADD15R,0.062992X0.062992*%
%ADD16R,0.078819X0.078847*%
%ADD17C,0.024000*%
%ADD18C,0.016000*%
%LNCOPPER0*%
G90*
G70*
G54D10*
X115Y1246D03*
X1516Y812D03*
X896Y784D03*
X678Y383D03*
X708Y107D03*
X1426Y147D03*
X247Y136D03*
X1346Y1238D03*
X1346Y938D03*
X1246Y1238D03*
X1246Y938D03*
X1146Y1238D03*
X1146Y938D03*
X1046Y1238D03*
X1046Y938D03*
X946Y1238D03*
X946Y938D03*
X846Y1238D03*
X846Y938D03*
X746Y1238D03*
X746Y938D03*
G54D11*
X1254Y684D03*
X1156Y684D03*
X758Y685D03*
X659Y685D03*
X292Y682D03*
X194Y682D03*
X1748Y687D03*
X1649Y687D03*
G54D10*
X839Y95D03*
X583Y95D03*
X839Y272D03*
X583Y272D03*
X1315Y97D03*
X1059Y97D03*
X1315Y275D03*
X1059Y275D03*
X1806Y97D03*
X1550Y97D03*
X1806Y274D03*
X1550Y274D03*
X367Y94D03*
X111Y94D03*
X367Y271D03*
X111Y271D03*
X1530Y538D03*
X1830Y538D03*
X1035Y537D03*
X1335Y537D03*
X558Y541D03*
X858Y541D03*
X1532Y423D03*
X1832Y423D03*
X1039Y423D03*
X1339Y423D03*
X559Y423D03*
X859Y423D03*
X96Y424D03*
X396Y424D03*
X92Y535D03*
X392Y535D03*
G54D12*
X1818Y1046D03*
X1818Y1146D03*
G54D11*
X1639Y1044D03*
X1639Y1142D03*
G54D10*
X1598Y1307D03*
X1898Y1307D03*
G54D13*
X291Y976D03*
X291Y1244D03*
G54D14*
X1346Y1238D03*
G54D15*
X1254Y684D03*
X758Y685D03*
X292Y682D03*
X1748Y687D03*
G54D14*
X1530Y538D03*
X1035Y537D03*
X558Y541D03*
X1532Y423D03*
X1039Y423D03*
X559Y423D03*
X96Y424D03*
X92Y535D03*
G54D15*
X1639Y1044D03*
G54D14*
X1598Y1307D03*
G54D16*
X291Y976D03*
G54D17*
X846Y913D02*
X846Y876D01*
D02*
X761Y798D02*
X656Y799D01*
D02*
X846Y876D02*
X761Y798D01*
D02*
X656Y799D02*
X410Y552D01*
D02*
X946Y878D02*
X1026Y805D01*
D02*
X946Y913D02*
X946Y878D01*
D02*
X1026Y805D02*
X1369Y802D01*
D02*
X1369Y802D02*
X1750Y422D01*
D02*
X1750Y422D02*
X1807Y423D01*
D02*
X864Y272D02*
X1034Y274D01*
D02*
X1815Y405D02*
X1548Y138D01*
D02*
X1548Y138D02*
X1549Y122D01*
D02*
X841Y405D02*
X585Y155D01*
D02*
X585Y155D02*
X584Y119D01*
D02*
X1798Y1030D02*
X1683Y938D01*
D02*
X1683Y938D02*
X1371Y938D01*
D02*
X113Y406D02*
X313Y208D01*
D02*
X424Y207D02*
X479Y262D01*
D02*
X313Y208D02*
X424Y207D01*
D02*
X479Y262D02*
X477Y340D01*
D02*
X477Y340D02*
X542Y405D01*
G54D18*
D02*
X1024Y435D02*
X971Y481D01*
D02*
X971Y481D02*
X620Y481D01*
D02*
X620Y481D02*
X573Y436D01*
G54D17*
D02*
X1515Y441D02*
X1427Y532D01*
D02*
X1427Y570D02*
X1395Y604D01*
D02*
X1427Y532D02*
X1427Y570D01*
D02*
X1395Y604D02*
X1289Y605D01*
D02*
X1105Y423D02*
X1064Y423D01*
D02*
X1289Y605D02*
X1105Y423D01*
D02*
X1057Y144D02*
X1058Y122D01*
D02*
X1321Y405D02*
X1057Y144D01*
G54D18*
D02*
X1114Y1080D02*
X1417Y1081D01*
D02*
X1046Y1012D02*
X1114Y1080D01*
D02*
X1417Y1081D02*
X1557Y1221D01*
D02*
X1557Y1221D02*
X1890Y1221D01*
D02*
X1927Y1186D02*
X1927Y108D01*
D02*
X1927Y108D02*
X1851Y32D01*
D02*
X1890Y1221D02*
X1927Y1186D01*
D02*
X1851Y32D02*
X1126Y31D01*
D02*
X1126Y31D02*
X1072Y84D01*
D02*
X1046Y957D02*
X1046Y1012D01*
G54D17*
D02*
X296Y342D02*
X350Y289D01*
D02*
X292Y659D02*
X296Y342D01*
D02*
X1155Y644D02*
X1054Y553D01*
D02*
X1155Y661D02*
X1155Y644D01*
G54D18*
D02*
X1838Y1146D02*
X1894Y1146D01*
D02*
X1894Y1146D02*
X1894Y834D01*
D02*
X1894Y834D02*
X1760Y700D01*
G54D17*
D02*
X310Y1226D02*
X429Y1107D01*
D02*
X900Y1107D02*
X947Y1153D01*
D02*
X429Y1107D02*
X900Y1107D01*
D02*
X947Y1153D02*
X947Y1213D01*
G36*
X1668Y1336D02*
X1668Y1262D01*
X1834Y1262D01*
X1834Y1282D01*
X1832Y1282D01*
X1832Y1286D01*
X1830Y1286D01*
X1830Y1296D01*
X1828Y1296D01*
X1828Y1336D01*
X1668Y1336D01*
G37*
D02*
G36*
X786Y1182D02*
X786Y1180D01*
X784Y1180D01*
X784Y1178D01*
X780Y1178D01*
X780Y1176D01*
X776Y1176D01*
X776Y1174D01*
X772Y1174D01*
X772Y1172D01*
X766Y1172D01*
X766Y1152D01*
X826Y1152D01*
X826Y1172D01*
X820Y1172D01*
X820Y1174D01*
X816Y1174D01*
X816Y1176D01*
X812Y1176D01*
X812Y1178D01*
X810Y1178D01*
X810Y1180D01*
X806Y1180D01*
X806Y1182D01*
X786Y1182D01*
G37*
D02*
G36*
X1700Y1182D02*
X1700Y1160D01*
X1702Y1160D01*
X1702Y1030D01*
X1724Y1030D01*
X1724Y1032D01*
X1726Y1032D01*
X1726Y1034D01*
X1728Y1034D01*
X1728Y1036D01*
X1730Y1036D01*
X1730Y1038D01*
X1734Y1038D01*
X1734Y1040D01*
X1736Y1040D01*
X1736Y1042D01*
X1738Y1042D01*
X1738Y1044D01*
X1740Y1044D01*
X1740Y1046D01*
X1744Y1046D01*
X1744Y1048D01*
X1746Y1048D01*
X1746Y1058D01*
X1748Y1058D01*
X1748Y1068D01*
X1750Y1068D01*
X1750Y1074D01*
X1752Y1074D01*
X1752Y1078D01*
X1754Y1078D01*
X1754Y1082D01*
X1756Y1082D01*
X1756Y1084D01*
X1758Y1084D01*
X1758Y1108D01*
X1756Y1108D01*
X1756Y1112D01*
X1754Y1112D01*
X1754Y1116D01*
X1752Y1116D01*
X1752Y1120D01*
X1750Y1120D01*
X1750Y1126D01*
X1748Y1126D01*
X1748Y1134D01*
X1746Y1134D01*
X1746Y1158D01*
X1748Y1158D01*
X1748Y1182D01*
X1700Y1182D01*
G37*
D02*
G36*
X40Y1336D02*
X40Y1316D01*
X308Y1316D01*
X308Y1314D01*
X314Y1314D01*
X314Y1312D01*
X320Y1312D01*
X320Y1310D01*
X324Y1310D01*
X324Y1308D01*
X1416Y1308D01*
X1416Y1170D01*
X1446Y1170D01*
X1446Y1172D01*
X1448Y1172D01*
X1448Y1174D01*
X1450Y1174D01*
X1450Y1176D01*
X1452Y1176D01*
X1452Y1178D01*
X1454Y1178D01*
X1454Y1180D01*
X1456Y1180D01*
X1456Y1182D01*
X1458Y1182D01*
X1458Y1184D01*
X1460Y1184D01*
X1460Y1186D01*
X1462Y1186D01*
X1462Y1188D01*
X1464Y1188D01*
X1464Y1190D01*
X1466Y1190D01*
X1466Y1192D01*
X1468Y1192D01*
X1468Y1194D01*
X1470Y1194D01*
X1470Y1196D01*
X1472Y1196D01*
X1472Y1198D01*
X1474Y1198D01*
X1474Y1200D01*
X1476Y1200D01*
X1476Y1202D01*
X1478Y1202D01*
X1478Y1204D01*
X1480Y1204D01*
X1480Y1206D01*
X1482Y1206D01*
X1482Y1208D01*
X1484Y1208D01*
X1484Y1210D01*
X1486Y1210D01*
X1486Y1212D01*
X1488Y1212D01*
X1488Y1214D01*
X1490Y1214D01*
X1490Y1216D01*
X1492Y1216D01*
X1492Y1218D01*
X1494Y1218D01*
X1494Y1220D01*
X1496Y1220D01*
X1496Y1222D01*
X1498Y1222D01*
X1498Y1224D01*
X1500Y1224D01*
X1500Y1226D01*
X1502Y1226D01*
X1502Y1228D01*
X1504Y1228D01*
X1504Y1230D01*
X1506Y1230D01*
X1506Y1232D01*
X1508Y1232D01*
X1508Y1234D01*
X1510Y1234D01*
X1510Y1236D01*
X1512Y1236D01*
X1512Y1238D01*
X1514Y1238D01*
X1514Y1240D01*
X1516Y1240D01*
X1516Y1242D01*
X1518Y1242D01*
X1518Y1244D01*
X1520Y1244D01*
X1520Y1246D01*
X1522Y1246D01*
X1522Y1248D01*
X1524Y1248D01*
X1524Y1250D01*
X1526Y1250D01*
X1526Y1252D01*
X1528Y1252D01*
X1528Y1336D01*
X40Y1336D01*
G37*
D02*
G36*
X40Y1316D02*
X40Y1064D01*
X410Y1064D01*
X410Y1066D01*
X406Y1066D01*
X406Y1068D01*
X402Y1068D01*
X402Y1070D01*
X400Y1070D01*
X400Y1072D01*
X398Y1072D01*
X398Y1074D01*
X396Y1074D01*
X396Y1076D01*
X394Y1076D01*
X394Y1078D01*
X392Y1078D01*
X392Y1080D01*
X390Y1080D01*
X390Y1082D01*
X388Y1082D01*
X388Y1084D01*
X386Y1084D01*
X386Y1086D01*
X384Y1086D01*
X384Y1088D01*
X382Y1088D01*
X382Y1090D01*
X380Y1090D01*
X380Y1092D01*
X378Y1092D01*
X378Y1094D01*
X376Y1094D01*
X376Y1096D01*
X374Y1096D01*
X374Y1098D01*
X372Y1098D01*
X372Y1100D01*
X370Y1100D01*
X370Y1102D01*
X368Y1102D01*
X368Y1104D01*
X366Y1104D01*
X366Y1106D01*
X364Y1106D01*
X364Y1108D01*
X362Y1108D01*
X362Y1110D01*
X360Y1110D01*
X360Y1112D01*
X358Y1112D01*
X358Y1114D01*
X354Y1114D01*
X354Y1116D01*
X352Y1116D01*
X352Y1118D01*
X350Y1118D01*
X350Y1120D01*
X348Y1120D01*
X348Y1122D01*
X346Y1122D01*
X346Y1124D01*
X344Y1124D01*
X344Y1126D01*
X342Y1126D01*
X342Y1128D01*
X340Y1128D01*
X340Y1130D01*
X338Y1130D01*
X338Y1132D01*
X336Y1132D01*
X336Y1134D01*
X334Y1134D01*
X334Y1136D01*
X332Y1136D01*
X332Y1138D01*
X330Y1138D01*
X330Y1140D01*
X328Y1140D01*
X328Y1142D01*
X326Y1142D01*
X326Y1144D01*
X324Y1144D01*
X324Y1146D01*
X322Y1146D01*
X322Y1148D01*
X320Y1148D01*
X320Y1150D01*
X318Y1150D01*
X318Y1152D01*
X316Y1152D01*
X316Y1154D01*
X314Y1154D01*
X314Y1156D01*
X312Y1156D01*
X312Y1158D01*
X310Y1158D01*
X310Y1160D01*
X308Y1160D01*
X308Y1162D01*
X306Y1162D01*
X306Y1164D01*
X304Y1164D01*
X304Y1166D01*
X302Y1166D01*
X302Y1168D01*
X300Y1168D01*
X300Y1170D01*
X298Y1170D01*
X298Y1172D01*
X296Y1172D01*
X296Y1174D01*
X272Y1174D01*
X272Y1176D01*
X266Y1176D01*
X266Y1178D01*
X262Y1178D01*
X262Y1180D01*
X258Y1180D01*
X258Y1182D01*
X254Y1182D01*
X254Y1184D01*
X252Y1184D01*
X252Y1186D01*
X248Y1186D01*
X248Y1188D01*
X246Y1188D01*
X246Y1190D01*
X244Y1190D01*
X244Y1192D01*
X242Y1192D01*
X242Y1194D01*
X240Y1194D01*
X240Y1196D01*
X238Y1196D01*
X238Y1198D01*
X236Y1198D01*
X236Y1200D01*
X234Y1200D01*
X234Y1202D01*
X232Y1202D01*
X232Y1206D01*
X230Y1206D01*
X230Y1208D01*
X228Y1208D01*
X228Y1212D01*
X226Y1212D01*
X226Y1216D01*
X224Y1216D01*
X224Y1222D01*
X222Y1222D01*
X222Y1228D01*
X220Y1228D01*
X220Y1260D01*
X222Y1260D01*
X222Y1268D01*
X224Y1268D01*
X224Y1272D01*
X226Y1272D01*
X226Y1278D01*
X228Y1278D01*
X228Y1280D01*
X230Y1280D01*
X230Y1284D01*
X232Y1284D01*
X232Y1286D01*
X234Y1286D01*
X234Y1288D01*
X236Y1288D01*
X236Y1292D01*
X238Y1292D01*
X238Y1294D01*
X240Y1294D01*
X240Y1296D01*
X242Y1296D01*
X242Y1298D01*
X244Y1298D01*
X244Y1300D01*
X248Y1300D01*
X248Y1302D01*
X250Y1302D01*
X250Y1304D01*
X252Y1304D01*
X252Y1306D01*
X256Y1306D01*
X256Y1308D01*
X258Y1308D01*
X258Y1310D01*
X262Y1310D01*
X262Y1312D01*
X268Y1312D01*
X268Y1314D01*
X276Y1314D01*
X276Y1316D01*
X40Y1316D01*
G37*
D02*
G36*
X328Y1308D02*
X328Y1306D01*
X330Y1306D01*
X330Y1304D01*
X334Y1304D01*
X334Y1302D01*
X336Y1302D01*
X336Y1300D01*
X338Y1300D01*
X338Y1298D01*
X340Y1298D01*
X340Y1296D01*
X342Y1296D01*
X342Y1294D01*
X344Y1294D01*
X344Y1292D01*
X346Y1292D01*
X346Y1290D01*
X348Y1290D01*
X348Y1288D01*
X350Y1288D01*
X350Y1284D01*
X352Y1284D01*
X352Y1282D01*
X354Y1282D01*
X354Y1278D01*
X356Y1278D01*
X356Y1274D01*
X358Y1274D01*
X358Y1270D01*
X360Y1270D01*
X360Y1264D01*
X362Y1264D01*
X362Y1240D01*
X364Y1240D01*
X364Y1238D01*
X366Y1238D01*
X366Y1236D01*
X368Y1236D01*
X368Y1234D01*
X370Y1234D01*
X370Y1232D01*
X372Y1232D01*
X372Y1230D01*
X374Y1230D01*
X374Y1228D01*
X376Y1228D01*
X376Y1226D01*
X378Y1226D01*
X378Y1224D01*
X380Y1224D01*
X380Y1222D01*
X382Y1222D01*
X382Y1220D01*
X384Y1220D01*
X384Y1218D01*
X386Y1218D01*
X386Y1216D01*
X388Y1216D01*
X388Y1214D01*
X390Y1214D01*
X390Y1212D01*
X392Y1212D01*
X392Y1210D01*
X394Y1210D01*
X394Y1208D01*
X396Y1208D01*
X396Y1206D01*
X398Y1206D01*
X398Y1204D01*
X400Y1204D01*
X400Y1202D01*
X402Y1202D01*
X402Y1200D01*
X404Y1200D01*
X404Y1198D01*
X406Y1198D01*
X406Y1196D01*
X408Y1196D01*
X408Y1194D01*
X410Y1194D01*
X410Y1192D01*
X412Y1192D01*
X412Y1190D01*
X414Y1190D01*
X414Y1188D01*
X416Y1188D01*
X416Y1186D01*
X418Y1186D01*
X418Y1184D01*
X420Y1184D01*
X420Y1182D01*
X422Y1182D01*
X422Y1180D01*
X424Y1180D01*
X424Y1178D01*
X426Y1178D01*
X426Y1176D01*
X428Y1176D01*
X428Y1174D01*
X430Y1174D01*
X430Y1172D01*
X432Y1172D01*
X432Y1170D01*
X434Y1170D01*
X434Y1168D01*
X436Y1168D01*
X436Y1166D01*
X438Y1166D01*
X438Y1164D01*
X440Y1164D01*
X440Y1162D01*
X442Y1162D01*
X442Y1160D01*
X444Y1160D01*
X444Y1158D01*
X446Y1158D01*
X446Y1156D01*
X448Y1156D01*
X448Y1154D01*
X450Y1154D01*
X450Y1152D01*
X726Y1152D01*
X726Y1172D01*
X720Y1172D01*
X720Y1174D01*
X716Y1174D01*
X716Y1176D01*
X712Y1176D01*
X712Y1178D01*
X710Y1178D01*
X710Y1180D01*
X706Y1180D01*
X706Y1182D01*
X704Y1182D01*
X704Y1184D01*
X702Y1184D01*
X702Y1186D01*
X700Y1186D01*
X700Y1188D01*
X698Y1188D01*
X698Y1190D01*
X696Y1190D01*
X696Y1192D01*
X694Y1192D01*
X694Y1194D01*
X692Y1194D01*
X692Y1196D01*
X690Y1196D01*
X690Y1198D01*
X688Y1198D01*
X688Y1202D01*
X686Y1202D01*
X686Y1204D01*
X684Y1204D01*
X684Y1208D01*
X682Y1208D01*
X682Y1212D01*
X680Y1212D01*
X680Y1218D01*
X678Y1218D01*
X678Y1228D01*
X676Y1228D01*
X676Y1250D01*
X678Y1250D01*
X678Y1260D01*
X680Y1260D01*
X680Y1264D01*
X682Y1264D01*
X682Y1270D01*
X684Y1270D01*
X684Y1272D01*
X686Y1272D01*
X686Y1276D01*
X688Y1276D01*
X688Y1278D01*
X690Y1278D01*
X690Y1282D01*
X692Y1282D01*
X692Y1284D01*
X694Y1284D01*
X694Y1286D01*
X696Y1286D01*
X696Y1288D01*
X698Y1288D01*
X698Y1290D01*
X700Y1290D01*
X700Y1292D01*
X702Y1292D01*
X702Y1294D01*
X704Y1294D01*
X704Y1296D01*
X708Y1296D01*
X708Y1298D01*
X710Y1298D01*
X710Y1300D01*
X714Y1300D01*
X714Y1302D01*
X718Y1302D01*
X718Y1304D01*
X722Y1304D01*
X722Y1306D01*
X730Y1306D01*
X730Y1308D01*
X328Y1308D01*
G37*
D02*
G36*
X762Y1308D02*
X762Y1306D01*
X770Y1306D01*
X770Y1304D01*
X774Y1304D01*
X774Y1302D01*
X778Y1302D01*
X778Y1300D01*
X782Y1300D01*
X782Y1298D01*
X784Y1298D01*
X784Y1296D01*
X808Y1296D01*
X808Y1298D01*
X810Y1298D01*
X810Y1300D01*
X814Y1300D01*
X814Y1302D01*
X818Y1302D01*
X818Y1304D01*
X822Y1304D01*
X822Y1306D01*
X830Y1306D01*
X830Y1308D01*
X762Y1308D01*
G37*
D02*
G36*
X862Y1308D02*
X862Y1306D01*
X870Y1306D01*
X870Y1304D01*
X874Y1304D01*
X874Y1302D01*
X878Y1302D01*
X878Y1300D01*
X882Y1300D01*
X882Y1298D01*
X884Y1298D01*
X884Y1296D01*
X908Y1296D01*
X908Y1298D01*
X910Y1298D01*
X910Y1300D01*
X914Y1300D01*
X914Y1302D01*
X918Y1302D01*
X918Y1304D01*
X922Y1304D01*
X922Y1306D01*
X930Y1306D01*
X930Y1308D01*
X862Y1308D01*
G37*
D02*
G36*
X962Y1308D02*
X962Y1306D01*
X970Y1306D01*
X970Y1304D01*
X974Y1304D01*
X974Y1302D01*
X978Y1302D01*
X978Y1300D01*
X982Y1300D01*
X982Y1298D01*
X984Y1298D01*
X984Y1296D01*
X1008Y1296D01*
X1008Y1298D01*
X1010Y1298D01*
X1010Y1300D01*
X1014Y1300D01*
X1014Y1302D01*
X1018Y1302D01*
X1018Y1304D01*
X1022Y1304D01*
X1022Y1306D01*
X1030Y1306D01*
X1030Y1308D01*
X962Y1308D01*
G37*
D02*
G36*
X1062Y1308D02*
X1062Y1306D01*
X1070Y1306D01*
X1070Y1304D01*
X1074Y1304D01*
X1074Y1302D01*
X1078Y1302D01*
X1078Y1300D01*
X1082Y1300D01*
X1082Y1298D01*
X1084Y1298D01*
X1084Y1296D01*
X1108Y1296D01*
X1108Y1298D01*
X1110Y1298D01*
X1110Y1300D01*
X1114Y1300D01*
X1114Y1302D01*
X1118Y1302D01*
X1118Y1304D01*
X1122Y1304D01*
X1122Y1306D01*
X1130Y1306D01*
X1130Y1308D01*
X1062Y1308D01*
G37*
D02*
G36*
X1162Y1308D02*
X1162Y1306D01*
X1170Y1306D01*
X1170Y1304D01*
X1174Y1304D01*
X1174Y1302D01*
X1178Y1302D01*
X1178Y1300D01*
X1182Y1300D01*
X1182Y1298D01*
X1184Y1298D01*
X1184Y1296D01*
X1208Y1296D01*
X1208Y1298D01*
X1210Y1298D01*
X1210Y1300D01*
X1214Y1300D01*
X1214Y1302D01*
X1218Y1302D01*
X1218Y1304D01*
X1222Y1304D01*
X1222Y1306D01*
X1230Y1306D01*
X1230Y1308D01*
X1162Y1308D01*
G37*
D02*
G36*
X1086Y1182D02*
X1086Y1180D01*
X1084Y1180D01*
X1084Y1178D01*
X1080Y1178D01*
X1080Y1176D01*
X1076Y1176D01*
X1076Y1174D01*
X1072Y1174D01*
X1072Y1172D01*
X1066Y1172D01*
X1066Y1170D01*
X1126Y1170D01*
X1126Y1172D01*
X1120Y1172D01*
X1120Y1174D01*
X1116Y1174D01*
X1116Y1176D01*
X1112Y1176D01*
X1112Y1178D01*
X1110Y1178D01*
X1110Y1180D01*
X1106Y1180D01*
X1106Y1182D01*
X1086Y1182D01*
G37*
D02*
G36*
X1186Y1182D02*
X1186Y1180D01*
X1184Y1180D01*
X1184Y1178D01*
X1180Y1178D01*
X1180Y1176D01*
X1176Y1176D01*
X1176Y1174D01*
X1172Y1174D01*
X1172Y1172D01*
X1166Y1172D01*
X1166Y1170D01*
X1226Y1170D01*
X1226Y1172D01*
X1220Y1172D01*
X1220Y1174D01*
X1216Y1174D01*
X1216Y1176D01*
X1212Y1176D01*
X1212Y1178D01*
X1210Y1178D01*
X1210Y1180D01*
X1206Y1180D01*
X1206Y1182D01*
X1186Y1182D01*
G37*
D02*
G36*
X992Y1178D02*
X992Y1170D01*
X1026Y1170D01*
X1026Y1172D01*
X1020Y1172D01*
X1020Y1174D01*
X1016Y1174D01*
X1016Y1176D01*
X1012Y1176D01*
X1012Y1178D01*
X992Y1178D01*
G37*
D02*
G36*
X992Y1170D02*
X992Y1168D01*
X1444Y1168D01*
X1444Y1170D01*
X992Y1170D01*
G37*
D02*
G36*
X992Y1170D02*
X992Y1168D01*
X1444Y1168D01*
X1444Y1170D01*
X992Y1170D01*
G37*
D02*
G36*
X992Y1170D02*
X992Y1168D01*
X1444Y1168D01*
X1444Y1170D01*
X992Y1170D01*
G37*
D02*
G36*
X992Y1170D02*
X992Y1168D01*
X1444Y1168D01*
X1444Y1170D01*
X992Y1170D01*
G37*
D02*
G36*
X992Y1168D02*
X992Y1142D01*
X990Y1142D01*
X990Y1134D01*
X988Y1134D01*
X988Y1128D01*
X986Y1128D01*
X986Y1126D01*
X984Y1126D01*
X984Y1122D01*
X982Y1122D01*
X982Y1120D01*
X980Y1120D01*
X980Y1118D01*
X978Y1118D01*
X978Y1116D01*
X976Y1116D01*
X976Y1114D01*
X974Y1114D01*
X974Y1112D01*
X972Y1112D01*
X972Y1110D01*
X970Y1110D01*
X970Y1108D01*
X968Y1108D01*
X968Y1106D01*
X966Y1106D01*
X966Y1104D01*
X964Y1104D01*
X964Y1102D01*
X960Y1102D01*
X960Y1100D01*
X958Y1100D01*
X958Y1098D01*
X956Y1098D01*
X956Y1096D01*
X954Y1096D01*
X954Y1094D01*
X952Y1094D01*
X952Y1092D01*
X950Y1092D01*
X950Y1090D01*
X948Y1090D01*
X948Y1088D01*
X946Y1088D01*
X946Y1086D01*
X944Y1086D01*
X944Y1084D01*
X942Y1084D01*
X942Y1082D01*
X940Y1082D01*
X940Y1080D01*
X938Y1080D01*
X938Y1078D01*
X936Y1078D01*
X936Y1076D01*
X934Y1076D01*
X934Y1074D01*
X932Y1074D01*
X932Y1072D01*
X930Y1072D01*
X930Y1070D01*
X926Y1070D01*
X926Y1068D01*
X924Y1068D01*
X924Y1066D01*
X918Y1066D01*
X918Y1064D01*
X1038Y1064D01*
X1038Y1066D01*
X1040Y1066D01*
X1040Y1068D01*
X1042Y1068D01*
X1042Y1070D01*
X1044Y1070D01*
X1044Y1072D01*
X1046Y1072D01*
X1046Y1074D01*
X1048Y1074D01*
X1048Y1076D01*
X1050Y1076D01*
X1050Y1078D01*
X1052Y1078D01*
X1052Y1080D01*
X1054Y1080D01*
X1054Y1082D01*
X1056Y1082D01*
X1056Y1084D01*
X1058Y1084D01*
X1058Y1086D01*
X1060Y1086D01*
X1060Y1088D01*
X1062Y1088D01*
X1062Y1090D01*
X1064Y1090D01*
X1064Y1092D01*
X1066Y1092D01*
X1066Y1094D01*
X1068Y1094D01*
X1068Y1096D01*
X1070Y1096D01*
X1070Y1098D01*
X1072Y1098D01*
X1072Y1100D01*
X1074Y1100D01*
X1074Y1102D01*
X1076Y1102D01*
X1076Y1104D01*
X1078Y1104D01*
X1078Y1106D01*
X1080Y1106D01*
X1080Y1108D01*
X1082Y1108D01*
X1082Y1110D01*
X1084Y1110D01*
X1084Y1112D01*
X1086Y1112D01*
X1086Y1114D01*
X1090Y1114D01*
X1090Y1116D01*
X1092Y1116D01*
X1092Y1118D01*
X1098Y1118D01*
X1098Y1120D01*
X1386Y1120D01*
X1386Y1122D01*
X1398Y1122D01*
X1398Y1124D01*
X1400Y1124D01*
X1400Y1126D01*
X1402Y1126D01*
X1402Y1128D01*
X1404Y1128D01*
X1404Y1130D01*
X1406Y1130D01*
X1406Y1132D01*
X1408Y1132D01*
X1408Y1134D01*
X1410Y1134D01*
X1410Y1136D01*
X1412Y1136D01*
X1412Y1138D01*
X1414Y1138D01*
X1414Y1140D01*
X1416Y1140D01*
X1416Y1142D01*
X1418Y1142D01*
X1418Y1144D01*
X1420Y1144D01*
X1420Y1146D01*
X1422Y1146D01*
X1422Y1148D01*
X1424Y1148D01*
X1424Y1150D01*
X1426Y1150D01*
X1426Y1152D01*
X1428Y1152D01*
X1428Y1154D01*
X1430Y1154D01*
X1430Y1156D01*
X1432Y1156D01*
X1432Y1158D01*
X1434Y1158D01*
X1434Y1160D01*
X1436Y1160D01*
X1436Y1162D01*
X1438Y1162D01*
X1438Y1164D01*
X1440Y1164D01*
X1440Y1166D01*
X1442Y1166D01*
X1442Y1168D01*
X992Y1168D01*
G37*
D02*
G36*
X40Y1064D02*
X40Y1062D01*
X1036Y1062D01*
X1036Y1064D01*
X40Y1064D01*
G37*
D02*
G36*
X40Y1064D02*
X40Y1062D01*
X1036Y1062D01*
X1036Y1064D01*
X40Y1064D01*
G37*
D02*
G36*
X40Y1062D02*
X40Y1048D01*
X362Y1048D01*
X362Y1008D01*
X962Y1008D01*
X962Y1006D01*
X970Y1006D01*
X970Y1004D01*
X974Y1004D01*
X974Y1002D01*
X978Y1002D01*
X978Y1000D01*
X982Y1000D01*
X982Y998D01*
X984Y998D01*
X984Y996D01*
X1006Y996D01*
X1006Y1028D01*
X1008Y1028D01*
X1008Y1034D01*
X1010Y1034D01*
X1010Y1036D01*
X1012Y1036D01*
X1012Y1040D01*
X1014Y1040D01*
X1014Y1042D01*
X1016Y1042D01*
X1016Y1044D01*
X1018Y1044D01*
X1018Y1046D01*
X1020Y1046D01*
X1020Y1048D01*
X1022Y1048D01*
X1022Y1050D01*
X1024Y1050D01*
X1024Y1052D01*
X1026Y1052D01*
X1026Y1054D01*
X1028Y1054D01*
X1028Y1056D01*
X1030Y1056D01*
X1030Y1058D01*
X1032Y1058D01*
X1032Y1060D01*
X1034Y1060D01*
X1034Y1062D01*
X40Y1062D01*
G37*
D02*
G36*
X40Y1048D02*
X40Y906D01*
X220Y906D01*
X220Y1048D01*
X40Y1048D01*
G37*
D02*
G36*
X362Y1008D02*
X362Y906D01*
X684Y906D01*
X684Y908D01*
X682Y908D01*
X682Y912D01*
X680Y912D01*
X680Y918D01*
X678Y918D01*
X678Y928D01*
X676Y928D01*
X676Y950D01*
X678Y950D01*
X678Y960D01*
X680Y960D01*
X680Y964D01*
X682Y964D01*
X682Y970D01*
X684Y970D01*
X684Y972D01*
X686Y972D01*
X686Y976D01*
X688Y976D01*
X688Y978D01*
X690Y978D01*
X690Y982D01*
X692Y982D01*
X692Y984D01*
X694Y984D01*
X694Y986D01*
X696Y986D01*
X696Y988D01*
X698Y988D01*
X698Y990D01*
X700Y990D01*
X700Y992D01*
X702Y992D01*
X702Y994D01*
X704Y994D01*
X704Y996D01*
X708Y996D01*
X708Y998D01*
X710Y998D01*
X710Y1000D01*
X714Y1000D01*
X714Y1002D01*
X718Y1002D01*
X718Y1004D01*
X722Y1004D01*
X722Y1006D01*
X730Y1006D01*
X730Y1008D01*
X362Y1008D01*
G37*
D02*
G36*
X762Y1008D02*
X762Y1006D01*
X770Y1006D01*
X770Y1004D01*
X774Y1004D01*
X774Y1002D01*
X778Y1002D01*
X778Y1000D01*
X782Y1000D01*
X782Y998D01*
X784Y998D01*
X784Y996D01*
X808Y996D01*
X808Y998D01*
X810Y998D01*
X810Y1000D01*
X814Y1000D01*
X814Y1002D01*
X818Y1002D01*
X818Y1004D01*
X822Y1004D01*
X822Y1006D01*
X830Y1006D01*
X830Y1008D01*
X762Y1008D01*
G37*
D02*
G36*
X862Y1008D02*
X862Y1006D01*
X870Y1006D01*
X870Y1004D01*
X874Y1004D01*
X874Y1002D01*
X878Y1002D01*
X878Y1000D01*
X882Y1000D01*
X882Y998D01*
X884Y998D01*
X884Y996D01*
X908Y996D01*
X908Y998D01*
X910Y998D01*
X910Y1000D01*
X914Y1000D01*
X914Y1002D01*
X918Y1002D01*
X918Y1004D01*
X922Y1004D01*
X922Y1006D01*
X930Y1006D01*
X930Y1008D01*
X862Y1008D01*
G37*
D02*
G36*
X40Y906D02*
X40Y904D01*
X684Y904D01*
X684Y906D01*
X40Y906D01*
G37*
D02*
G36*
X40Y906D02*
X40Y904D01*
X684Y904D01*
X684Y906D01*
X40Y906D01*
G37*
D02*
G36*
X40Y904D02*
X40Y844D01*
X664Y844D01*
X664Y842D01*
X740Y842D01*
X740Y844D01*
X742Y844D01*
X742Y846D01*
X746Y846D01*
X746Y848D01*
X748Y848D01*
X748Y850D01*
X750Y850D01*
X750Y870D01*
X726Y870D01*
X726Y872D01*
X720Y872D01*
X720Y874D01*
X716Y874D01*
X716Y876D01*
X712Y876D01*
X712Y878D01*
X710Y878D01*
X710Y880D01*
X706Y880D01*
X706Y882D01*
X704Y882D01*
X704Y884D01*
X702Y884D01*
X702Y886D01*
X700Y886D01*
X700Y888D01*
X698Y888D01*
X698Y890D01*
X696Y890D01*
X696Y892D01*
X694Y892D01*
X694Y894D01*
X692Y894D01*
X692Y896D01*
X690Y896D01*
X690Y898D01*
X688Y898D01*
X688Y902D01*
X686Y902D01*
X686Y904D01*
X40Y904D01*
G37*
D02*
G36*
X40Y844D02*
X40Y746D01*
X356Y746D01*
X356Y620D01*
X338Y620D01*
X338Y596D01*
X358Y596D01*
X358Y598D01*
X362Y598D01*
X362Y600D01*
X368Y600D01*
X368Y602D01*
X374Y602D01*
X374Y604D01*
X396Y604D01*
X396Y606D01*
X398Y606D01*
X398Y608D01*
X400Y608D01*
X400Y610D01*
X402Y610D01*
X402Y612D01*
X404Y612D01*
X404Y614D01*
X406Y614D01*
X406Y616D01*
X408Y616D01*
X408Y618D01*
X410Y618D01*
X410Y620D01*
X412Y620D01*
X412Y622D01*
X414Y622D01*
X414Y624D01*
X416Y624D01*
X416Y626D01*
X418Y626D01*
X418Y628D01*
X420Y628D01*
X420Y630D01*
X422Y630D01*
X422Y632D01*
X424Y632D01*
X424Y634D01*
X426Y634D01*
X426Y636D01*
X428Y636D01*
X428Y638D01*
X430Y638D01*
X430Y640D01*
X432Y640D01*
X432Y642D01*
X434Y642D01*
X434Y644D01*
X436Y644D01*
X436Y646D01*
X438Y646D01*
X438Y648D01*
X440Y648D01*
X440Y650D01*
X442Y650D01*
X442Y652D01*
X444Y652D01*
X444Y654D01*
X446Y654D01*
X446Y656D01*
X448Y656D01*
X448Y658D01*
X450Y658D01*
X450Y660D01*
X452Y660D01*
X452Y662D01*
X454Y662D01*
X454Y664D01*
X456Y664D01*
X456Y666D01*
X458Y666D01*
X458Y668D01*
X460Y668D01*
X460Y670D01*
X462Y670D01*
X462Y672D01*
X464Y672D01*
X464Y674D01*
X466Y674D01*
X466Y676D01*
X468Y676D01*
X468Y678D01*
X470Y678D01*
X470Y680D01*
X472Y680D01*
X472Y682D01*
X474Y682D01*
X474Y684D01*
X476Y684D01*
X476Y686D01*
X478Y686D01*
X478Y688D01*
X480Y688D01*
X480Y690D01*
X482Y690D01*
X482Y692D01*
X484Y692D01*
X484Y694D01*
X486Y694D01*
X486Y696D01*
X488Y696D01*
X488Y698D01*
X490Y698D01*
X490Y700D01*
X492Y700D01*
X492Y702D01*
X494Y702D01*
X494Y704D01*
X496Y704D01*
X496Y706D01*
X498Y706D01*
X498Y708D01*
X500Y708D01*
X500Y710D01*
X502Y710D01*
X502Y712D01*
X504Y712D01*
X504Y714D01*
X506Y714D01*
X506Y716D01*
X508Y716D01*
X508Y718D01*
X510Y718D01*
X510Y720D01*
X512Y720D01*
X512Y722D01*
X514Y722D01*
X514Y724D01*
X516Y724D01*
X516Y726D01*
X518Y726D01*
X518Y728D01*
X520Y728D01*
X520Y730D01*
X522Y730D01*
X522Y732D01*
X524Y732D01*
X524Y734D01*
X526Y734D01*
X526Y736D01*
X528Y736D01*
X528Y738D01*
X530Y738D01*
X530Y740D01*
X532Y740D01*
X532Y742D01*
X534Y742D01*
X534Y744D01*
X536Y744D01*
X536Y746D01*
X538Y746D01*
X538Y748D01*
X540Y748D01*
X540Y750D01*
X542Y750D01*
X542Y752D01*
X544Y752D01*
X544Y754D01*
X546Y754D01*
X546Y756D01*
X548Y756D01*
X548Y758D01*
X550Y758D01*
X550Y760D01*
X552Y760D01*
X552Y762D01*
X554Y762D01*
X554Y764D01*
X556Y764D01*
X556Y766D01*
X558Y766D01*
X558Y768D01*
X560Y768D01*
X560Y770D01*
X562Y770D01*
X562Y772D01*
X564Y772D01*
X564Y774D01*
X566Y774D01*
X566Y776D01*
X568Y776D01*
X568Y778D01*
X570Y778D01*
X570Y780D01*
X572Y780D01*
X572Y782D01*
X574Y782D01*
X574Y784D01*
X576Y784D01*
X576Y786D01*
X578Y786D01*
X578Y788D01*
X580Y788D01*
X580Y790D01*
X582Y790D01*
X582Y792D01*
X584Y792D01*
X584Y794D01*
X586Y794D01*
X586Y796D01*
X588Y796D01*
X588Y798D01*
X590Y798D01*
X590Y800D01*
X592Y800D01*
X592Y802D01*
X594Y802D01*
X594Y804D01*
X596Y804D01*
X596Y806D01*
X598Y806D01*
X598Y808D01*
X600Y808D01*
X600Y810D01*
X602Y810D01*
X602Y812D01*
X604Y812D01*
X604Y814D01*
X606Y814D01*
X606Y816D01*
X608Y816D01*
X608Y818D01*
X610Y818D01*
X610Y820D01*
X612Y820D01*
X612Y822D01*
X614Y822D01*
X614Y824D01*
X616Y824D01*
X616Y826D01*
X618Y826D01*
X618Y828D01*
X620Y828D01*
X620Y830D01*
X622Y830D01*
X622Y832D01*
X624Y832D01*
X624Y834D01*
X626Y834D01*
X626Y836D01*
X628Y836D01*
X628Y838D01*
X632Y838D01*
X632Y840D01*
X636Y840D01*
X636Y842D01*
X648Y842D01*
X648Y844D01*
X40Y844D01*
G37*
D02*
G36*
X40Y746D02*
X40Y604D01*
X162Y604D01*
X162Y494D01*
X164Y494D01*
X164Y492D01*
X166Y492D01*
X166Y420D01*
X168Y420D01*
X168Y418D01*
X170Y418D01*
X170Y416D01*
X172Y416D01*
X172Y414D01*
X174Y414D01*
X174Y412D01*
X176Y412D01*
X176Y410D01*
X178Y410D01*
X178Y408D01*
X180Y408D01*
X180Y406D01*
X182Y406D01*
X182Y404D01*
X184Y404D01*
X184Y402D01*
X186Y402D01*
X186Y400D01*
X188Y400D01*
X188Y398D01*
X190Y398D01*
X190Y396D01*
X192Y396D01*
X192Y394D01*
X194Y394D01*
X194Y392D01*
X196Y392D01*
X196Y390D01*
X198Y390D01*
X198Y388D01*
X200Y388D01*
X200Y386D01*
X202Y386D01*
X202Y384D01*
X204Y384D01*
X204Y382D01*
X206Y382D01*
X206Y380D01*
X208Y380D01*
X208Y378D01*
X210Y378D01*
X210Y376D01*
X212Y376D01*
X212Y374D01*
X214Y374D01*
X214Y372D01*
X216Y372D01*
X216Y370D01*
X218Y370D01*
X218Y368D01*
X220Y368D01*
X220Y366D01*
X222Y366D01*
X222Y364D01*
X224Y364D01*
X224Y362D01*
X226Y362D01*
X226Y360D01*
X228Y360D01*
X228Y358D01*
X230Y358D01*
X230Y356D01*
X232Y356D01*
X232Y354D01*
X252Y354D01*
X252Y416D01*
X250Y416D01*
X250Y598D01*
X248Y598D01*
X248Y620D01*
X176Y620D01*
X176Y622D01*
X170Y622D01*
X170Y624D01*
X166Y624D01*
X166Y626D01*
X162Y626D01*
X162Y628D01*
X158Y628D01*
X158Y630D01*
X156Y630D01*
X156Y632D01*
X154Y632D01*
X154Y634D01*
X152Y634D01*
X152Y636D01*
X150Y636D01*
X150Y638D01*
X148Y638D01*
X148Y640D01*
X146Y640D01*
X146Y642D01*
X144Y642D01*
X144Y644D01*
X142Y644D01*
X142Y646D01*
X140Y646D01*
X140Y650D01*
X138Y650D01*
X138Y652D01*
X136Y652D01*
X136Y656D01*
X134Y656D01*
X134Y662D01*
X132Y662D01*
X132Y668D01*
X130Y668D01*
X130Y698D01*
X132Y698D01*
X132Y704D01*
X134Y704D01*
X134Y710D01*
X136Y710D01*
X136Y714D01*
X138Y714D01*
X138Y716D01*
X140Y716D01*
X140Y720D01*
X142Y720D01*
X142Y722D01*
X144Y722D01*
X144Y724D01*
X146Y724D01*
X146Y726D01*
X148Y726D01*
X148Y728D01*
X150Y728D01*
X150Y730D01*
X152Y730D01*
X152Y732D01*
X154Y732D01*
X154Y734D01*
X156Y734D01*
X156Y736D01*
X160Y736D01*
X160Y738D01*
X162Y738D01*
X162Y740D01*
X166Y740D01*
X166Y742D01*
X170Y742D01*
X170Y744D01*
X176Y744D01*
X176Y746D01*
X40Y746D01*
G37*
D02*
G36*
X1558Y1162D02*
X1558Y1160D01*
X1556Y1160D01*
X1556Y1158D01*
X1554Y1158D01*
X1554Y1156D01*
X1552Y1156D01*
X1552Y1154D01*
X1550Y1154D01*
X1550Y1152D01*
X1548Y1152D01*
X1548Y1150D01*
X1546Y1150D01*
X1546Y1148D01*
X1544Y1148D01*
X1544Y1146D01*
X1542Y1146D01*
X1542Y1144D01*
X1540Y1144D01*
X1540Y1142D01*
X1538Y1142D01*
X1538Y1140D01*
X1536Y1140D01*
X1536Y1138D01*
X1534Y1138D01*
X1534Y1136D01*
X1532Y1136D01*
X1532Y1134D01*
X1530Y1134D01*
X1530Y1132D01*
X1528Y1132D01*
X1528Y1130D01*
X1526Y1130D01*
X1526Y1128D01*
X1524Y1128D01*
X1524Y1126D01*
X1522Y1126D01*
X1522Y1124D01*
X1520Y1124D01*
X1520Y1122D01*
X1518Y1122D01*
X1518Y1120D01*
X1516Y1120D01*
X1516Y1118D01*
X1514Y1118D01*
X1514Y1116D01*
X1512Y1116D01*
X1512Y1114D01*
X1510Y1114D01*
X1510Y1112D01*
X1508Y1112D01*
X1508Y1110D01*
X1506Y1110D01*
X1506Y1108D01*
X1504Y1108D01*
X1504Y1106D01*
X1502Y1106D01*
X1502Y1104D01*
X1500Y1104D01*
X1500Y1102D01*
X1498Y1102D01*
X1498Y1100D01*
X1496Y1100D01*
X1496Y1098D01*
X1494Y1098D01*
X1494Y1096D01*
X1492Y1096D01*
X1492Y1094D01*
X1490Y1094D01*
X1490Y1092D01*
X1488Y1092D01*
X1488Y1090D01*
X1486Y1090D01*
X1486Y1088D01*
X1484Y1088D01*
X1484Y1086D01*
X1482Y1086D01*
X1482Y1084D01*
X1480Y1084D01*
X1480Y1082D01*
X1478Y1082D01*
X1478Y1080D01*
X1476Y1080D01*
X1476Y1078D01*
X1474Y1078D01*
X1474Y1076D01*
X1472Y1076D01*
X1472Y1074D01*
X1470Y1074D01*
X1470Y1072D01*
X1468Y1072D01*
X1468Y1070D01*
X1466Y1070D01*
X1466Y1068D01*
X1464Y1068D01*
X1464Y1066D01*
X1462Y1066D01*
X1462Y1064D01*
X1460Y1064D01*
X1460Y1062D01*
X1458Y1062D01*
X1458Y1060D01*
X1456Y1060D01*
X1456Y1058D01*
X1454Y1058D01*
X1454Y1056D01*
X1452Y1056D01*
X1452Y1054D01*
X1450Y1054D01*
X1450Y1052D01*
X1448Y1052D01*
X1448Y1050D01*
X1444Y1050D01*
X1444Y1048D01*
X1442Y1048D01*
X1442Y1046D01*
X1440Y1046D01*
X1440Y1044D01*
X1434Y1044D01*
X1434Y1042D01*
X1406Y1042D01*
X1406Y1040D01*
X1134Y1040D01*
X1134Y1038D01*
X1132Y1038D01*
X1132Y1036D01*
X1130Y1036D01*
X1130Y1034D01*
X1128Y1034D01*
X1128Y1032D01*
X1126Y1032D01*
X1126Y1030D01*
X1124Y1030D01*
X1124Y1028D01*
X1122Y1028D01*
X1122Y1026D01*
X1120Y1026D01*
X1120Y1024D01*
X1118Y1024D01*
X1118Y1022D01*
X1116Y1022D01*
X1116Y1008D01*
X1362Y1008D01*
X1362Y1006D01*
X1370Y1006D01*
X1370Y1004D01*
X1374Y1004D01*
X1374Y1002D01*
X1378Y1002D01*
X1378Y1000D01*
X1382Y1000D01*
X1382Y998D01*
X1384Y998D01*
X1384Y996D01*
X1388Y996D01*
X1388Y994D01*
X1390Y994D01*
X1390Y992D01*
X1392Y992D01*
X1392Y990D01*
X1394Y990D01*
X1394Y988D01*
X1396Y988D01*
X1396Y986D01*
X1398Y986D01*
X1398Y984D01*
X1400Y984D01*
X1400Y982D01*
X1576Y982D01*
X1576Y1160D01*
X1578Y1160D01*
X1578Y1162D01*
X1558Y1162D01*
G37*
D02*
G36*
X1162Y1008D02*
X1162Y1006D01*
X1170Y1006D01*
X1170Y1004D01*
X1174Y1004D01*
X1174Y1002D01*
X1178Y1002D01*
X1178Y1000D01*
X1182Y1000D01*
X1182Y998D01*
X1184Y998D01*
X1184Y996D01*
X1208Y996D01*
X1208Y998D01*
X1210Y998D01*
X1210Y1000D01*
X1214Y1000D01*
X1214Y1002D01*
X1218Y1002D01*
X1218Y1004D01*
X1222Y1004D01*
X1222Y1006D01*
X1230Y1006D01*
X1230Y1008D01*
X1162Y1008D01*
G37*
D02*
G36*
X1262Y1008D02*
X1262Y1006D01*
X1270Y1006D01*
X1270Y1004D01*
X1274Y1004D01*
X1274Y1002D01*
X1278Y1002D01*
X1278Y1000D01*
X1282Y1000D01*
X1282Y998D01*
X1284Y998D01*
X1284Y996D01*
X1308Y996D01*
X1308Y998D01*
X1310Y998D01*
X1310Y1000D01*
X1314Y1000D01*
X1314Y1002D01*
X1318Y1002D01*
X1318Y1004D01*
X1322Y1004D01*
X1322Y1006D01*
X1330Y1006D01*
X1330Y1008D01*
X1262Y1008D01*
G37*
D02*
G36*
X1804Y976D02*
X1804Y974D01*
X1800Y974D01*
X1800Y972D01*
X1798Y972D01*
X1798Y970D01*
X1796Y970D01*
X1796Y968D01*
X1794Y968D01*
X1794Y966D01*
X1790Y966D01*
X1790Y964D01*
X1788Y964D01*
X1788Y962D01*
X1786Y962D01*
X1786Y960D01*
X1784Y960D01*
X1784Y958D01*
X1780Y958D01*
X1780Y956D01*
X1778Y956D01*
X1778Y954D01*
X1776Y954D01*
X1776Y952D01*
X1774Y952D01*
X1774Y950D01*
X1770Y950D01*
X1770Y948D01*
X1768Y948D01*
X1768Y946D01*
X1766Y946D01*
X1766Y944D01*
X1764Y944D01*
X1764Y942D01*
X1760Y942D01*
X1760Y940D01*
X1758Y940D01*
X1758Y938D01*
X1756Y938D01*
X1756Y936D01*
X1754Y936D01*
X1754Y934D01*
X1750Y934D01*
X1750Y932D01*
X1748Y932D01*
X1748Y930D01*
X1746Y930D01*
X1746Y928D01*
X1744Y928D01*
X1744Y926D01*
X1740Y926D01*
X1740Y924D01*
X1738Y924D01*
X1738Y922D01*
X1736Y922D01*
X1736Y920D01*
X1734Y920D01*
X1734Y918D01*
X1730Y918D01*
X1730Y916D01*
X1728Y916D01*
X1728Y914D01*
X1726Y914D01*
X1726Y912D01*
X1724Y912D01*
X1724Y910D01*
X1720Y910D01*
X1720Y908D01*
X1718Y908D01*
X1718Y906D01*
X1716Y906D01*
X1716Y904D01*
X1714Y904D01*
X1714Y902D01*
X1710Y902D01*
X1710Y900D01*
X1708Y900D01*
X1708Y898D01*
X1704Y898D01*
X1704Y896D01*
X1696Y896D01*
X1696Y894D01*
X1400Y894D01*
X1400Y892D01*
X1398Y892D01*
X1398Y890D01*
X1396Y890D01*
X1396Y888D01*
X1394Y888D01*
X1394Y886D01*
X1392Y886D01*
X1392Y884D01*
X1388Y884D01*
X1388Y882D01*
X1386Y882D01*
X1386Y880D01*
X1384Y880D01*
X1384Y878D01*
X1380Y878D01*
X1380Y876D01*
X1376Y876D01*
X1376Y874D01*
X1372Y874D01*
X1372Y872D01*
X1366Y872D01*
X1366Y870D01*
X1854Y870D01*
X1854Y976D01*
X1804Y976D01*
G37*
D02*
G36*
X1086Y882D02*
X1086Y880D01*
X1084Y880D01*
X1084Y878D01*
X1080Y878D01*
X1080Y876D01*
X1076Y876D01*
X1076Y874D01*
X1072Y874D01*
X1072Y872D01*
X1066Y872D01*
X1066Y870D01*
X1126Y870D01*
X1126Y872D01*
X1120Y872D01*
X1120Y874D01*
X1116Y874D01*
X1116Y876D01*
X1112Y876D01*
X1112Y878D01*
X1110Y878D01*
X1110Y880D01*
X1106Y880D01*
X1106Y882D01*
X1086Y882D01*
G37*
D02*
G36*
X1186Y882D02*
X1186Y880D01*
X1184Y880D01*
X1184Y878D01*
X1180Y878D01*
X1180Y876D01*
X1176Y876D01*
X1176Y874D01*
X1172Y874D01*
X1172Y872D01*
X1166Y872D01*
X1166Y870D01*
X1226Y870D01*
X1226Y872D01*
X1220Y872D01*
X1220Y874D01*
X1216Y874D01*
X1216Y876D01*
X1212Y876D01*
X1212Y878D01*
X1210Y878D01*
X1210Y880D01*
X1206Y880D01*
X1206Y882D01*
X1186Y882D01*
G37*
D02*
G36*
X1286Y882D02*
X1286Y880D01*
X1284Y880D01*
X1284Y878D01*
X1280Y878D01*
X1280Y876D01*
X1276Y876D01*
X1276Y874D01*
X1272Y874D01*
X1272Y872D01*
X1266Y872D01*
X1266Y870D01*
X1326Y870D01*
X1326Y872D01*
X1320Y872D01*
X1320Y874D01*
X1316Y874D01*
X1316Y876D01*
X1312Y876D01*
X1312Y878D01*
X1310Y878D01*
X1310Y880D01*
X1306Y880D01*
X1306Y882D01*
X1286Y882D01*
G37*
D02*
G36*
X1046Y870D02*
X1046Y868D01*
X1854Y868D01*
X1854Y870D01*
X1046Y870D01*
G37*
D02*
G36*
X1046Y870D02*
X1046Y868D01*
X1854Y868D01*
X1854Y870D01*
X1046Y870D01*
G37*
D02*
G36*
X1046Y870D02*
X1046Y868D01*
X1854Y868D01*
X1854Y870D01*
X1046Y870D01*
G37*
D02*
G36*
X1046Y870D02*
X1046Y868D01*
X1854Y868D01*
X1854Y870D01*
X1046Y870D01*
G37*
D02*
G36*
X1046Y868D02*
X1046Y850D01*
X1048Y850D01*
X1048Y848D01*
X1320Y848D01*
X1320Y846D01*
X1386Y846D01*
X1386Y844D01*
X1392Y844D01*
X1392Y842D01*
X1396Y842D01*
X1396Y840D01*
X1398Y840D01*
X1398Y838D01*
X1400Y838D01*
X1400Y836D01*
X1404Y836D01*
X1404Y834D01*
X1406Y834D01*
X1406Y832D01*
X1408Y832D01*
X1408Y830D01*
X1410Y830D01*
X1410Y828D01*
X1412Y828D01*
X1412Y826D01*
X1414Y826D01*
X1414Y824D01*
X1416Y824D01*
X1416Y822D01*
X1418Y822D01*
X1418Y820D01*
X1420Y820D01*
X1420Y818D01*
X1422Y818D01*
X1422Y816D01*
X1424Y816D01*
X1424Y814D01*
X1426Y814D01*
X1426Y812D01*
X1428Y812D01*
X1428Y810D01*
X1430Y810D01*
X1430Y808D01*
X1432Y808D01*
X1432Y806D01*
X1434Y806D01*
X1434Y804D01*
X1436Y804D01*
X1436Y802D01*
X1438Y802D01*
X1438Y800D01*
X1440Y800D01*
X1440Y798D01*
X1442Y798D01*
X1442Y796D01*
X1444Y796D01*
X1444Y794D01*
X1446Y794D01*
X1446Y792D01*
X1448Y792D01*
X1448Y790D01*
X1450Y790D01*
X1450Y788D01*
X1452Y788D01*
X1452Y786D01*
X1454Y786D01*
X1454Y784D01*
X1456Y784D01*
X1456Y782D01*
X1458Y782D01*
X1458Y780D01*
X1460Y780D01*
X1460Y778D01*
X1462Y778D01*
X1462Y776D01*
X1464Y776D01*
X1464Y774D01*
X1466Y774D01*
X1466Y772D01*
X1468Y772D01*
X1468Y770D01*
X1470Y770D01*
X1470Y768D01*
X1472Y768D01*
X1472Y766D01*
X1474Y766D01*
X1474Y764D01*
X1476Y764D01*
X1476Y762D01*
X1478Y762D01*
X1478Y760D01*
X1480Y760D01*
X1480Y758D01*
X1482Y758D01*
X1482Y756D01*
X1484Y756D01*
X1484Y754D01*
X1486Y754D01*
X1486Y752D01*
X1660Y752D01*
X1660Y750D01*
X1684Y750D01*
X1684Y752D01*
X1752Y752D01*
X1752Y754D01*
X1754Y754D01*
X1754Y756D01*
X1756Y756D01*
X1756Y758D01*
X1758Y758D01*
X1758Y760D01*
X1760Y760D01*
X1760Y762D01*
X1762Y762D01*
X1762Y764D01*
X1764Y764D01*
X1764Y766D01*
X1766Y766D01*
X1766Y768D01*
X1768Y768D01*
X1768Y770D01*
X1770Y770D01*
X1770Y772D01*
X1772Y772D01*
X1772Y774D01*
X1774Y774D01*
X1774Y776D01*
X1776Y776D01*
X1776Y778D01*
X1778Y778D01*
X1778Y780D01*
X1780Y780D01*
X1780Y782D01*
X1782Y782D01*
X1782Y784D01*
X1784Y784D01*
X1784Y786D01*
X1786Y786D01*
X1786Y788D01*
X1788Y788D01*
X1788Y790D01*
X1790Y790D01*
X1790Y792D01*
X1792Y792D01*
X1792Y794D01*
X1794Y794D01*
X1794Y796D01*
X1796Y796D01*
X1796Y798D01*
X1798Y798D01*
X1798Y800D01*
X1800Y800D01*
X1800Y802D01*
X1802Y802D01*
X1802Y804D01*
X1804Y804D01*
X1804Y806D01*
X1806Y806D01*
X1806Y808D01*
X1808Y808D01*
X1808Y810D01*
X1810Y810D01*
X1810Y812D01*
X1812Y812D01*
X1812Y814D01*
X1814Y814D01*
X1814Y816D01*
X1816Y816D01*
X1816Y818D01*
X1818Y818D01*
X1818Y820D01*
X1820Y820D01*
X1820Y822D01*
X1822Y822D01*
X1822Y824D01*
X1824Y824D01*
X1824Y826D01*
X1826Y826D01*
X1826Y828D01*
X1828Y828D01*
X1828Y830D01*
X1830Y830D01*
X1830Y832D01*
X1832Y832D01*
X1832Y834D01*
X1834Y834D01*
X1834Y836D01*
X1836Y836D01*
X1836Y838D01*
X1838Y838D01*
X1838Y840D01*
X1840Y840D01*
X1840Y842D01*
X1842Y842D01*
X1842Y844D01*
X1844Y844D01*
X1844Y846D01*
X1846Y846D01*
X1846Y848D01*
X1848Y848D01*
X1848Y850D01*
X1850Y850D01*
X1850Y852D01*
X1852Y852D01*
X1852Y854D01*
X1854Y854D01*
X1854Y868D01*
X1046Y868D01*
G37*
D02*
G36*
X1488Y752D02*
X1488Y750D01*
X1490Y750D01*
X1490Y748D01*
X1492Y748D01*
X1492Y746D01*
X1494Y746D01*
X1494Y744D01*
X1496Y744D01*
X1496Y742D01*
X1498Y742D01*
X1498Y740D01*
X1500Y740D01*
X1500Y738D01*
X1502Y738D01*
X1502Y736D01*
X1504Y736D01*
X1504Y734D01*
X1506Y734D01*
X1506Y732D01*
X1508Y732D01*
X1508Y730D01*
X1510Y730D01*
X1510Y728D01*
X1512Y728D01*
X1512Y726D01*
X1514Y726D01*
X1514Y724D01*
X1516Y724D01*
X1516Y722D01*
X1518Y722D01*
X1518Y720D01*
X1520Y720D01*
X1520Y718D01*
X1522Y718D01*
X1522Y716D01*
X1524Y716D01*
X1524Y714D01*
X1526Y714D01*
X1526Y712D01*
X1528Y712D01*
X1528Y710D01*
X1530Y710D01*
X1530Y708D01*
X1532Y708D01*
X1532Y706D01*
X1534Y706D01*
X1534Y704D01*
X1536Y704D01*
X1536Y702D01*
X1538Y702D01*
X1538Y700D01*
X1540Y700D01*
X1540Y698D01*
X1542Y698D01*
X1542Y696D01*
X1544Y696D01*
X1544Y694D01*
X1546Y694D01*
X1546Y692D01*
X1548Y692D01*
X1548Y690D01*
X1550Y690D01*
X1550Y688D01*
X1552Y688D01*
X1552Y686D01*
X1554Y686D01*
X1554Y684D01*
X1556Y684D01*
X1556Y682D01*
X1558Y682D01*
X1558Y680D01*
X1560Y680D01*
X1560Y678D01*
X1562Y678D01*
X1562Y676D01*
X1564Y676D01*
X1564Y674D01*
X1566Y674D01*
X1566Y672D01*
X1586Y672D01*
X1586Y706D01*
X1588Y706D01*
X1588Y712D01*
X1590Y712D01*
X1590Y716D01*
X1592Y716D01*
X1592Y720D01*
X1594Y720D01*
X1594Y722D01*
X1596Y722D01*
X1596Y726D01*
X1598Y726D01*
X1598Y728D01*
X1600Y728D01*
X1600Y730D01*
X1602Y730D01*
X1602Y732D01*
X1604Y732D01*
X1604Y734D01*
X1606Y734D01*
X1606Y736D01*
X1608Y736D01*
X1608Y738D01*
X1610Y738D01*
X1610Y740D01*
X1614Y740D01*
X1614Y742D01*
X1616Y742D01*
X1616Y744D01*
X1620Y744D01*
X1620Y746D01*
X1624Y746D01*
X1624Y748D01*
X1628Y748D01*
X1628Y750D01*
X1638Y750D01*
X1638Y752D01*
X1488Y752D01*
G37*
D02*
G36*
X1318Y758D02*
X1318Y650D01*
X1364Y650D01*
X1364Y648D01*
X1414Y648D01*
X1414Y646D01*
X1418Y646D01*
X1418Y644D01*
X1422Y644D01*
X1422Y642D01*
X1424Y642D01*
X1424Y640D01*
X1428Y640D01*
X1428Y638D01*
X1430Y638D01*
X1430Y636D01*
X1432Y636D01*
X1432Y634D01*
X1434Y634D01*
X1434Y630D01*
X1436Y630D01*
X1436Y628D01*
X1438Y628D01*
X1438Y626D01*
X1440Y626D01*
X1440Y624D01*
X1442Y624D01*
X1442Y622D01*
X1444Y622D01*
X1444Y620D01*
X1446Y620D01*
X1446Y618D01*
X1448Y618D01*
X1448Y616D01*
X1450Y616D01*
X1450Y614D01*
X1452Y614D01*
X1452Y612D01*
X1454Y612D01*
X1454Y610D01*
X1456Y610D01*
X1456Y608D01*
X1478Y608D01*
X1478Y628D01*
X1476Y628D01*
X1476Y630D01*
X1474Y630D01*
X1474Y632D01*
X1472Y632D01*
X1472Y634D01*
X1470Y634D01*
X1470Y636D01*
X1468Y636D01*
X1468Y638D01*
X1466Y638D01*
X1466Y640D01*
X1464Y640D01*
X1464Y642D01*
X1462Y642D01*
X1462Y644D01*
X1460Y644D01*
X1460Y646D01*
X1458Y646D01*
X1458Y648D01*
X1456Y648D01*
X1456Y650D01*
X1454Y650D01*
X1454Y652D01*
X1452Y652D01*
X1452Y654D01*
X1450Y654D01*
X1450Y656D01*
X1448Y656D01*
X1448Y658D01*
X1446Y658D01*
X1446Y660D01*
X1444Y660D01*
X1444Y662D01*
X1442Y662D01*
X1442Y664D01*
X1440Y664D01*
X1440Y666D01*
X1438Y666D01*
X1438Y668D01*
X1436Y668D01*
X1436Y670D01*
X1434Y670D01*
X1434Y672D01*
X1432Y672D01*
X1432Y674D01*
X1430Y674D01*
X1430Y676D01*
X1428Y676D01*
X1428Y678D01*
X1426Y678D01*
X1426Y680D01*
X1424Y680D01*
X1424Y682D01*
X1422Y682D01*
X1422Y684D01*
X1420Y684D01*
X1420Y686D01*
X1418Y686D01*
X1418Y688D01*
X1416Y688D01*
X1416Y690D01*
X1414Y690D01*
X1414Y692D01*
X1412Y692D01*
X1412Y694D01*
X1410Y694D01*
X1410Y696D01*
X1408Y696D01*
X1408Y698D01*
X1406Y698D01*
X1406Y700D01*
X1404Y700D01*
X1404Y702D01*
X1402Y702D01*
X1402Y704D01*
X1400Y704D01*
X1400Y706D01*
X1398Y706D01*
X1398Y708D01*
X1396Y708D01*
X1396Y710D01*
X1394Y710D01*
X1394Y712D01*
X1392Y712D01*
X1392Y714D01*
X1390Y714D01*
X1390Y716D01*
X1388Y716D01*
X1388Y718D01*
X1386Y718D01*
X1386Y720D01*
X1384Y720D01*
X1384Y722D01*
X1382Y722D01*
X1382Y724D01*
X1380Y724D01*
X1380Y726D01*
X1378Y726D01*
X1378Y728D01*
X1376Y728D01*
X1376Y730D01*
X1374Y730D01*
X1374Y732D01*
X1372Y732D01*
X1372Y734D01*
X1370Y734D01*
X1370Y736D01*
X1368Y736D01*
X1368Y738D01*
X1366Y738D01*
X1366Y740D01*
X1364Y740D01*
X1364Y742D01*
X1362Y742D01*
X1362Y744D01*
X1360Y744D01*
X1360Y746D01*
X1358Y746D01*
X1358Y748D01*
X1356Y748D01*
X1356Y750D01*
X1354Y750D01*
X1354Y752D01*
X1352Y752D01*
X1352Y754D01*
X1350Y754D01*
X1350Y756D01*
X1348Y756D01*
X1348Y758D01*
X1318Y758D01*
G37*
D02*
G36*
X1868Y748D02*
X1868Y746D01*
X1866Y746D01*
X1866Y744D01*
X1864Y744D01*
X1864Y742D01*
X1862Y742D01*
X1862Y740D01*
X1860Y740D01*
X1860Y738D01*
X1858Y738D01*
X1858Y736D01*
X1856Y736D01*
X1856Y734D01*
X1854Y734D01*
X1854Y732D01*
X1852Y732D01*
X1852Y730D01*
X1850Y730D01*
X1850Y728D01*
X1848Y728D01*
X1848Y726D01*
X1846Y726D01*
X1846Y724D01*
X1844Y724D01*
X1844Y722D01*
X1842Y722D01*
X1842Y720D01*
X1840Y720D01*
X1840Y718D01*
X1838Y718D01*
X1838Y716D01*
X1836Y716D01*
X1836Y714D01*
X1834Y714D01*
X1834Y712D01*
X1832Y712D01*
X1832Y710D01*
X1830Y710D01*
X1830Y708D01*
X1828Y708D01*
X1828Y706D01*
X1826Y706D01*
X1826Y704D01*
X1824Y704D01*
X1824Y702D01*
X1822Y702D01*
X1822Y700D01*
X1820Y700D01*
X1820Y698D01*
X1818Y698D01*
X1818Y696D01*
X1816Y696D01*
X1816Y694D01*
X1814Y694D01*
X1814Y692D01*
X1812Y692D01*
X1812Y626D01*
X1810Y626D01*
X1810Y608D01*
X1846Y608D01*
X1846Y606D01*
X1852Y606D01*
X1852Y604D01*
X1858Y604D01*
X1858Y602D01*
X1862Y602D01*
X1862Y600D01*
X1866Y600D01*
X1866Y598D01*
X1868Y598D01*
X1868Y596D01*
X1888Y596D01*
X1888Y748D01*
X1868Y748D01*
G37*
D02*
G36*
X886Y854D02*
X886Y850D01*
X884Y850D01*
X884Y848D01*
X882Y848D01*
X882Y846D01*
X880Y846D01*
X880Y842D01*
X876Y842D01*
X876Y840D01*
X874Y840D01*
X874Y838D01*
X872Y838D01*
X872Y836D01*
X870Y836D01*
X870Y834D01*
X868Y834D01*
X868Y832D01*
X866Y832D01*
X866Y830D01*
X864Y830D01*
X864Y828D01*
X862Y828D01*
X862Y826D01*
X860Y826D01*
X860Y824D01*
X858Y824D01*
X858Y822D01*
X856Y822D01*
X856Y820D01*
X854Y820D01*
X854Y818D01*
X850Y818D01*
X850Y816D01*
X848Y816D01*
X848Y814D01*
X846Y814D01*
X846Y812D01*
X844Y812D01*
X844Y810D01*
X842Y810D01*
X842Y808D01*
X840Y808D01*
X840Y806D01*
X838Y806D01*
X838Y804D01*
X836Y804D01*
X836Y802D01*
X834Y802D01*
X834Y800D01*
X832Y800D01*
X832Y798D01*
X830Y798D01*
X830Y796D01*
X828Y796D01*
X828Y794D01*
X824Y794D01*
X824Y792D01*
X822Y792D01*
X822Y790D01*
X820Y790D01*
X820Y788D01*
X818Y788D01*
X818Y786D01*
X816Y786D01*
X816Y784D01*
X814Y784D01*
X814Y782D01*
X812Y782D01*
X812Y780D01*
X810Y780D01*
X810Y778D01*
X808Y778D01*
X808Y776D01*
X806Y776D01*
X806Y774D01*
X804Y774D01*
X804Y772D01*
X800Y772D01*
X800Y770D01*
X798Y770D01*
X798Y768D01*
X796Y768D01*
X796Y748D01*
X822Y748D01*
X822Y622D01*
X1062Y622D01*
X1062Y624D01*
X1064Y624D01*
X1064Y626D01*
X1066Y626D01*
X1066Y628D01*
X1068Y628D01*
X1068Y630D01*
X1070Y630D01*
X1070Y632D01*
X1072Y632D01*
X1072Y634D01*
X1074Y634D01*
X1074Y636D01*
X1076Y636D01*
X1076Y638D01*
X1078Y638D01*
X1078Y640D01*
X1082Y640D01*
X1082Y642D01*
X1084Y642D01*
X1084Y644D01*
X1086Y644D01*
X1086Y646D01*
X1088Y646D01*
X1088Y648D01*
X1090Y648D01*
X1090Y650D01*
X1092Y650D01*
X1092Y700D01*
X1094Y700D01*
X1094Y706D01*
X1096Y706D01*
X1096Y710D01*
X1098Y710D01*
X1098Y714D01*
X1100Y714D01*
X1100Y718D01*
X1102Y718D01*
X1102Y720D01*
X1104Y720D01*
X1104Y724D01*
X1106Y724D01*
X1106Y726D01*
X1108Y726D01*
X1108Y728D01*
X1110Y728D01*
X1110Y730D01*
X1112Y730D01*
X1112Y732D01*
X1114Y732D01*
X1114Y734D01*
X1116Y734D01*
X1116Y736D01*
X1120Y736D01*
X1120Y738D01*
X1122Y738D01*
X1122Y740D01*
X1126Y740D01*
X1126Y760D01*
X1018Y760D01*
X1018Y762D01*
X1006Y762D01*
X1006Y764D01*
X1002Y764D01*
X1002Y766D01*
X998Y766D01*
X998Y768D01*
X996Y768D01*
X996Y770D01*
X994Y770D01*
X994Y772D01*
X992Y772D01*
X992Y774D01*
X990Y774D01*
X990Y776D01*
X988Y776D01*
X988Y778D01*
X984Y778D01*
X984Y780D01*
X982Y780D01*
X982Y782D01*
X980Y782D01*
X980Y784D01*
X978Y784D01*
X978Y786D01*
X976Y786D01*
X976Y788D01*
X974Y788D01*
X974Y790D01*
X972Y790D01*
X972Y792D01*
X970Y792D01*
X970Y794D01*
X968Y794D01*
X968Y796D01*
X966Y796D01*
X966Y798D01*
X964Y798D01*
X964Y800D01*
X960Y800D01*
X960Y802D01*
X958Y802D01*
X958Y804D01*
X956Y804D01*
X956Y806D01*
X954Y806D01*
X954Y808D01*
X952Y808D01*
X952Y810D01*
X950Y810D01*
X950Y812D01*
X948Y812D01*
X948Y814D01*
X946Y814D01*
X946Y816D01*
X944Y816D01*
X944Y818D01*
X942Y818D01*
X942Y820D01*
X940Y820D01*
X940Y822D01*
X936Y822D01*
X936Y824D01*
X934Y824D01*
X934Y826D01*
X932Y826D01*
X932Y828D01*
X930Y828D01*
X930Y830D01*
X928Y830D01*
X928Y832D01*
X926Y832D01*
X926Y834D01*
X924Y834D01*
X924Y836D01*
X922Y836D01*
X922Y838D01*
X920Y838D01*
X920Y840D01*
X918Y840D01*
X918Y842D01*
X916Y842D01*
X916Y844D01*
X912Y844D01*
X912Y848D01*
X910Y848D01*
X910Y850D01*
X908Y850D01*
X908Y852D01*
X906Y852D01*
X906Y854D01*
X886Y854D01*
G37*
D02*
G36*
X580Y658D02*
X580Y656D01*
X578Y656D01*
X578Y654D01*
X576Y654D01*
X576Y652D01*
X574Y652D01*
X574Y650D01*
X572Y650D01*
X572Y648D01*
X570Y648D01*
X570Y646D01*
X568Y646D01*
X568Y644D01*
X566Y644D01*
X566Y642D01*
X564Y642D01*
X564Y640D01*
X562Y640D01*
X562Y638D01*
X560Y638D01*
X560Y636D01*
X558Y636D01*
X558Y634D01*
X556Y634D01*
X556Y632D01*
X554Y632D01*
X554Y622D01*
X642Y622D01*
X642Y624D01*
X636Y624D01*
X636Y626D01*
X632Y626D01*
X632Y628D01*
X628Y628D01*
X628Y630D01*
X626Y630D01*
X626Y632D01*
X622Y632D01*
X622Y634D01*
X620Y634D01*
X620Y636D01*
X618Y636D01*
X618Y638D01*
X616Y638D01*
X616Y640D01*
X614Y640D01*
X614Y642D01*
X612Y642D01*
X612Y644D01*
X610Y644D01*
X610Y646D01*
X608Y646D01*
X608Y648D01*
X606Y648D01*
X606Y650D01*
X604Y650D01*
X604Y654D01*
X602Y654D01*
X602Y658D01*
X580Y658D01*
G37*
D02*
G36*
X554Y622D02*
X554Y620D01*
X1058Y620D01*
X1058Y622D01*
X554Y622D01*
G37*
D02*
G36*
X554Y622D02*
X554Y620D01*
X1058Y620D01*
X1058Y622D01*
X554Y622D01*
G37*
D02*
G36*
X554Y620D02*
X554Y612D01*
X868Y612D01*
X868Y610D01*
X878Y610D01*
X878Y608D01*
X884Y608D01*
X884Y606D01*
X888Y606D01*
X888Y604D01*
X892Y604D01*
X892Y602D01*
X896Y602D01*
X896Y600D01*
X898Y600D01*
X898Y598D01*
X900Y598D01*
X900Y596D01*
X904Y596D01*
X904Y594D01*
X906Y594D01*
X906Y592D01*
X908Y592D01*
X908Y590D01*
X910Y590D01*
X910Y588D01*
X912Y588D01*
X912Y584D01*
X914Y584D01*
X914Y582D01*
X916Y582D01*
X916Y580D01*
X918Y580D01*
X918Y576D01*
X920Y576D01*
X920Y572D01*
X922Y572D01*
X922Y568D01*
X924Y568D01*
X924Y564D01*
X926Y564D01*
X926Y556D01*
X928Y556D01*
X928Y522D01*
X966Y522D01*
X966Y606D01*
X1044Y606D01*
X1044Y608D01*
X1046Y608D01*
X1046Y610D01*
X1048Y610D01*
X1048Y612D01*
X1050Y612D01*
X1050Y614D01*
X1052Y614D01*
X1052Y616D01*
X1054Y616D01*
X1054Y618D01*
X1056Y618D01*
X1056Y620D01*
X554Y620D01*
G37*
D02*
G36*
X626Y612D02*
X626Y610D01*
X628Y610D01*
X628Y522D01*
X788Y522D01*
X788Y554D01*
X790Y554D01*
X790Y564D01*
X792Y564D01*
X792Y568D01*
X794Y568D01*
X794Y572D01*
X796Y572D01*
X796Y576D01*
X798Y576D01*
X798Y580D01*
X800Y580D01*
X800Y582D01*
X802Y582D01*
X802Y584D01*
X804Y584D01*
X804Y588D01*
X806Y588D01*
X806Y590D01*
X808Y590D01*
X808Y592D01*
X810Y592D01*
X810Y594D01*
X812Y594D01*
X812Y596D01*
X816Y596D01*
X816Y598D01*
X818Y598D01*
X818Y600D01*
X820Y600D01*
X820Y602D01*
X824Y602D01*
X824Y604D01*
X828Y604D01*
X828Y606D01*
X832Y606D01*
X832Y608D01*
X838Y608D01*
X838Y610D01*
X848Y610D01*
X848Y612D01*
X626Y612D01*
G37*
D02*
G36*
X1664Y626D02*
X1664Y624D01*
X1632Y624D01*
X1632Y606D01*
X1634Y606D01*
X1634Y604D01*
X1636Y604D01*
X1636Y602D01*
X1638Y602D01*
X1638Y600D01*
X1640Y600D01*
X1640Y598D01*
X1642Y598D01*
X1642Y596D01*
X1644Y596D01*
X1644Y594D01*
X1646Y594D01*
X1646Y592D01*
X1648Y592D01*
X1648Y590D01*
X1650Y590D01*
X1650Y588D01*
X1652Y588D01*
X1652Y586D01*
X1654Y586D01*
X1654Y584D01*
X1656Y584D01*
X1656Y582D01*
X1658Y582D01*
X1658Y580D01*
X1660Y580D01*
X1660Y578D01*
X1662Y578D01*
X1662Y576D01*
X1664Y576D01*
X1664Y574D01*
X1666Y574D01*
X1666Y572D01*
X1668Y572D01*
X1668Y570D01*
X1670Y570D01*
X1670Y568D01*
X1672Y568D01*
X1672Y566D01*
X1674Y566D01*
X1674Y564D01*
X1676Y564D01*
X1676Y562D01*
X1678Y562D01*
X1678Y560D01*
X1680Y560D01*
X1680Y558D01*
X1682Y558D01*
X1682Y556D01*
X1684Y556D01*
X1684Y554D01*
X1686Y554D01*
X1686Y552D01*
X1688Y552D01*
X1688Y550D01*
X1690Y550D01*
X1690Y548D01*
X1692Y548D01*
X1692Y546D01*
X1694Y546D01*
X1694Y544D01*
X1696Y544D01*
X1696Y542D01*
X1698Y542D01*
X1698Y540D01*
X1700Y540D01*
X1700Y538D01*
X1702Y538D01*
X1702Y536D01*
X1704Y536D01*
X1704Y534D01*
X1706Y534D01*
X1706Y532D01*
X1708Y532D01*
X1708Y530D01*
X1710Y530D01*
X1710Y528D01*
X1712Y528D01*
X1712Y526D01*
X1714Y526D01*
X1714Y524D01*
X1716Y524D01*
X1716Y522D01*
X1718Y522D01*
X1718Y520D01*
X1720Y520D01*
X1720Y518D01*
X1722Y518D01*
X1722Y516D01*
X1724Y516D01*
X1724Y514D01*
X1726Y514D01*
X1726Y512D01*
X1728Y512D01*
X1728Y510D01*
X1730Y510D01*
X1730Y508D01*
X1732Y508D01*
X1732Y506D01*
X1734Y506D01*
X1734Y504D01*
X1736Y504D01*
X1736Y502D01*
X1738Y502D01*
X1738Y500D01*
X1740Y500D01*
X1740Y498D01*
X1742Y498D01*
X1742Y496D01*
X1744Y496D01*
X1744Y494D01*
X1746Y494D01*
X1746Y492D01*
X1748Y492D01*
X1748Y490D01*
X1750Y490D01*
X1750Y488D01*
X1752Y488D01*
X1752Y486D01*
X1754Y486D01*
X1754Y484D01*
X1756Y484D01*
X1756Y482D01*
X1758Y482D01*
X1758Y480D01*
X1760Y480D01*
X1760Y478D01*
X1780Y478D01*
X1780Y490D01*
X1778Y490D01*
X1778Y492D01*
X1776Y492D01*
X1776Y496D01*
X1774Y496D01*
X1774Y498D01*
X1772Y498D01*
X1772Y500D01*
X1770Y500D01*
X1770Y504D01*
X1768Y504D01*
X1768Y508D01*
X1766Y508D01*
X1766Y512D01*
X1764Y512D01*
X1764Y516D01*
X1762Y516D01*
X1762Y524D01*
X1760Y524D01*
X1760Y554D01*
X1762Y554D01*
X1762Y560D01*
X1764Y560D01*
X1764Y566D01*
X1766Y566D01*
X1766Y570D01*
X1768Y570D01*
X1768Y574D01*
X1770Y574D01*
X1770Y576D01*
X1772Y576D01*
X1772Y580D01*
X1774Y580D01*
X1774Y582D01*
X1776Y582D01*
X1776Y584D01*
X1778Y584D01*
X1778Y586D01*
X1780Y586D01*
X1780Y588D01*
X1782Y588D01*
X1782Y590D01*
X1784Y590D01*
X1784Y592D01*
X1786Y592D01*
X1786Y594D01*
X1788Y594D01*
X1788Y596D01*
X1792Y596D01*
X1792Y598D01*
X1794Y598D01*
X1794Y600D01*
X1798Y600D01*
X1798Y602D01*
X1802Y602D01*
X1802Y604D01*
X1806Y604D01*
X1806Y624D01*
X1684Y624D01*
X1684Y626D01*
X1664Y626D01*
G37*
D02*
G36*
X1194Y620D02*
X1194Y616D01*
X1192Y616D01*
X1192Y614D01*
X1190Y614D01*
X1190Y612D01*
X1188Y612D01*
X1188Y610D01*
X1186Y610D01*
X1186Y608D01*
X1184Y608D01*
X1184Y606D01*
X1182Y606D01*
X1182Y604D01*
X1180Y604D01*
X1180Y602D01*
X1178Y602D01*
X1178Y600D01*
X1174Y600D01*
X1174Y598D01*
X1172Y598D01*
X1172Y596D01*
X1170Y596D01*
X1170Y594D01*
X1168Y594D01*
X1168Y592D01*
X1166Y592D01*
X1166Y590D01*
X1164Y590D01*
X1164Y588D01*
X1162Y588D01*
X1162Y586D01*
X1160Y586D01*
X1160Y584D01*
X1156Y584D01*
X1156Y582D01*
X1154Y582D01*
X1154Y580D01*
X1152Y580D01*
X1152Y578D01*
X1150Y578D01*
X1150Y576D01*
X1148Y576D01*
X1148Y574D01*
X1146Y574D01*
X1146Y572D01*
X1144Y572D01*
X1144Y570D01*
X1142Y570D01*
X1142Y568D01*
X1140Y568D01*
X1140Y566D01*
X1136Y566D01*
X1136Y564D01*
X1134Y564D01*
X1134Y562D01*
X1132Y562D01*
X1132Y560D01*
X1130Y560D01*
X1130Y558D01*
X1128Y558D01*
X1128Y556D01*
X1126Y556D01*
X1126Y554D01*
X1124Y554D01*
X1124Y552D01*
X1122Y552D01*
X1122Y550D01*
X1118Y550D01*
X1118Y548D01*
X1116Y548D01*
X1116Y546D01*
X1114Y546D01*
X1114Y544D01*
X1112Y544D01*
X1112Y542D01*
X1110Y542D01*
X1110Y540D01*
X1108Y540D01*
X1108Y538D01*
X1106Y538D01*
X1106Y536D01*
X1104Y536D01*
X1104Y508D01*
X1124Y508D01*
X1124Y510D01*
X1126Y510D01*
X1126Y512D01*
X1128Y512D01*
X1128Y514D01*
X1130Y514D01*
X1130Y516D01*
X1132Y516D01*
X1132Y518D01*
X1134Y518D01*
X1134Y520D01*
X1136Y520D01*
X1136Y522D01*
X1138Y522D01*
X1138Y524D01*
X1142Y524D01*
X1142Y526D01*
X1144Y526D01*
X1144Y528D01*
X1146Y528D01*
X1146Y530D01*
X1148Y530D01*
X1148Y532D01*
X1150Y532D01*
X1150Y534D01*
X1152Y534D01*
X1152Y536D01*
X1154Y536D01*
X1154Y538D01*
X1156Y538D01*
X1156Y540D01*
X1158Y540D01*
X1158Y542D01*
X1160Y542D01*
X1160Y544D01*
X1162Y544D01*
X1162Y546D01*
X1164Y546D01*
X1164Y548D01*
X1166Y548D01*
X1166Y550D01*
X1168Y550D01*
X1168Y552D01*
X1170Y552D01*
X1170Y554D01*
X1172Y554D01*
X1172Y556D01*
X1174Y556D01*
X1174Y558D01*
X1176Y558D01*
X1176Y560D01*
X1178Y560D01*
X1178Y562D01*
X1180Y562D01*
X1180Y564D01*
X1182Y564D01*
X1182Y566D01*
X1184Y566D01*
X1184Y568D01*
X1186Y568D01*
X1186Y570D01*
X1188Y570D01*
X1188Y572D01*
X1190Y572D01*
X1190Y574D01*
X1192Y574D01*
X1192Y576D01*
X1194Y576D01*
X1194Y578D01*
X1196Y578D01*
X1196Y580D01*
X1198Y580D01*
X1198Y582D01*
X1200Y582D01*
X1200Y584D01*
X1202Y584D01*
X1202Y586D01*
X1204Y586D01*
X1204Y588D01*
X1206Y588D01*
X1206Y590D01*
X1208Y590D01*
X1208Y592D01*
X1210Y592D01*
X1210Y594D01*
X1212Y594D01*
X1212Y596D01*
X1214Y596D01*
X1214Y598D01*
X1216Y598D01*
X1216Y600D01*
X1218Y600D01*
X1218Y620D01*
X1194Y620D01*
G37*
D02*
G36*
X468Y546D02*
X468Y544D01*
X466Y544D01*
X466Y542D01*
X464Y542D01*
X464Y540D01*
X462Y540D01*
X462Y522D01*
X460Y522D01*
X460Y514D01*
X458Y514D01*
X458Y508D01*
X456Y508D01*
X456Y504D01*
X454Y504D01*
X454Y500D01*
X452Y500D01*
X452Y498D01*
X450Y498D01*
X450Y494D01*
X448Y494D01*
X448Y492D01*
X446Y492D01*
X446Y472D01*
X448Y472D01*
X448Y470D01*
X450Y470D01*
X450Y466D01*
X452Y466D01*
X452Y464D01*
X454Y464D01*
X454Y462D01*
X456Y462D01*
X456Y458D01*
X458Y458D01*
X458Y454D01*
X460Y454D01*
X460Y450D01*
X462Y450D01*
X462Y444D01*
X464Y444D01*
X464Y434D01*
X466Y434D01*
X466Y416D01*
X486Y416D01*
X486Y418D01*
X488Y418D01*
X488Y420D01*
X490Y420D01*
X490Y472D01*
X488Y472D01*
X488Y546D01*
X468Y546D01*
G37*
D02*
G36*
X1252Y504D02*
X1252Y502D01*
X1250Y502D01*
X1250Y500D01*
X1248Y500D01*
X1248Y498D01*
X1246Y498D01*
X1246Y496D01*
X1244Y496D01*
X1244Y494D01*
X1242Y494D01*
X1242Y492D01*
X1240Y492D01*
X1240Y490D01*
X1238Y490D01*
X1238Y488D01*
X1236Y488D01*
X1236Y486D01*
X1234Y486D01*
X1234Y484D01*
X1232Y484D01*
X1232Y482D01*
X1230Y482D01*
X1230Y480D01*
X1228Y480D01*
X1228Y478D01*
X1226Y478D01*
X1226Y476D01*
X1224Y476D01*
X1224Y474D01*
X1222Y474D01*
X1222Y472D01*
X1220Y472D01*
X1220Y470D01*
X1218Y470D01*
X1218Y468D01*
X1216Y468D01*
X1216Y466D01*
X1214Y466D01*
X1214Y464D01*
X1212Y464D01*
X1212Y462D01*
X1210Y462D01*
X1210Y460D01*
X1208Y460D01*
X1208Y458D01*
X1206Y458D01*
X1206Y456D01*
X1204Y456D01*
X1204Y454D01*
X1202Y454D01*
X1202Y452D01*
X1200Y452D01*
X1200Y450D01*
X1198Y450D01*
X1198Y448D01*
X1196Y448D01*
X1196Y446D01*
X1194Y446D01*
X1194Y444D01*
X1192Y444D01*
X1192Y442D01*
X1190Y442D01*
X1190Y440D01*
X1188Y440D01*
X1188Y438D01*
X1186Y438D01*
X1186Y436D01*
X1184Y436D01*
X1184Y434D01*
X1182Y434D01*
X1182Y432D01*
X1180Y432D01*
X1180Y430D01*
X1178Y430D01*
X1178Y428D01*
X1176Y428D01*
X1176Y426D01*
X1174Y426D01*
X1174Y424D01*
X1172Y424D01*
X1172Y422D01*
X1170Y422D01*
X1170Y420D01*
X1168Y420D01*
X1168Y418D01*
X1166Y418D01*
X1166Y416D01*
X1164Y416D01*
X1164Y414D01*
X1162Y414D01*
X1162Y412D01*
X1160Y412D01*
X1160Y410D01*
X1158Y410D01*
X1158Y408D01*
X1156Y408D01*
X1156Y406D01*
X1154Y406D01*
X1154Y404D01*
X1152Y404D01*
X1152Y402D01*
X1150Y402D01*
X1150Y400D01*
X1148Y400D01*
X1148Y398D01*
X1146Y398D01*
X1146Y396D01*
X1144Y396D01*
X1144Y394D01*
X1142Y394D01*
X1142Y392D01*
X1140Y392D01*
X1140Y390D01*
X1138Y390D01*
X1138Y388D01*
X1134Y388D01*
X1134Y386D01*
X1132Y386D01*
X1132Y384D01*
X1128Y384D01*
X1128Y382D01*
X1124Y382D01*
X1124Y380D01*
X1108Y380D01*
X1108Y354D01*
X1094Y354D01*
X1094Y334D01*
X1098Y334D01*
X1098Y332D01*
X1100Y332D01*
X1100Y330D01*
X1102Y330D01*
X1102Y328D01*
X1106Y328D01*
X1106Y326D01*
X1108Y326D01*
X1108Y324D01*
X1110Y324D01*
X1110Y322D01*
X1112Y322D01*
X1112Y318D01*
X1114Y318D01*
X1114Y316D01*
X1116Y316D01*
X1116Y314D01*
X1118Y314D01*
X1118Y310D01*
X1120Y310D01*
X1120Y308D01*
X1122Y308D01*
X1122Y304D01*
X1124Y304D01*
X1124Y298D01*
X1146Y298D01*
X1146Y300D01*
X1148Y300D01*
X1148Y302D01*
X1150Y302D01*
X1150Y304D01*
X1152Y304D01*
X1152Y306D01*
X1154Y306D01*
X1154Y308D01*
X1156Y308D01*
X1156Y310D01*
X1158Y310D01*
X1158Y312D01*
X1160Y312D01*
X1160Y314D01*
X1162Y314D01*
X1162Y316D01*
X1164Y316D01*
X1164Y318D01*
X1166Y318D01*
X1166Y320D01*
X1168Y320D01*
X1168Y322D01*
X1170Y322D01*
X1170Y324D01*
X1172Y324D01*
X1172Y326D01*
X1174Y326D01*
X1174Y328D01*
X1176Y328D01*
X1176Y330D01*
X1178Y330D01*
X1178Y332D01*
X1182Y332D01*
X1182Y334D01*
X1184Y334D01*
X1184Y336D01*
X1186Y336D01*
X1186Y338D01*
X1188Y338D01*
X1188Y340D01*
X1190Y340D01*
X1190Y342D01*
X1192Y342D01*
X1192Y344D01*
X1194Y344D01*
X1194Y346D01*
X1196Y346D01*
X1196Y348D01*
X1198Y348D01*
X1198Y350D01*
X1200Y350D01*
X1200Y352D01*
X1202Y352D01*
X1202Y354D01*
X1204Y354D01*
X1204Y356D01*
X1206Y356D01*
X1206Y358D01*
X1208Y358D01*
X1208Y360D01*
X1210Y360D01*
X1210Y362D01*
X1212Y362D01*
X1212Y364D01*
X1214Y364D01*
X1214Y366D01*
X1216Y366D01*
X1216Y368D01*
X1218Y368D01*
X1218Y370D01*
X1220Y370D01*
X1220Y372D01*
X1222Y372D01*
X1222Y374D01*
X1224Y374D01*
X1224Y376D01*
X1226Y376D01*
X1226Y378D01*
X1228Y378D01*
X1228Y380D01*
X1230Y380D01*
X1230Y382D01*
X1232Y382D01*
X1232Y384D01*
X1234Y384D01*
X1234Y386D01*
X1236Y386D01*
X1236Y388D01*
X1238Y388D01*
X1238Y390D01*
X1240Y390D01*
X1240Y392D01*
X1242Y392D01*
X1242Y394D01*
X1244Y394D01*
X1244Y396D01*
X1246Y396D01*
X1246Y398D01*
X1248Y398D01*
X1248Y400D01*
X1250Y400D01*
X1250Y402D01*
X1252Y402D01*
X1252Y404D01*
X1254Y404D01*
X1254Y406D01*
X1256Y406D01*
X1256Y408D01*
X1258Y408D01*
X1258Y410D01*
X1260Y410D01*
X1260Y412D01*
X1262Y412D01*
X1262Y414D01*
X1264Y414D01*
X1264Y416D01*
X1266Y416D01*
X1266Y418D01*
X1268Y418D01*
X1268Y420D01*
X1270Y420D01*
X1270Y442D01*
X1272Y442D01*
X1272Y448D01*
X1274Y448D01*
X1274Y452D01*
X1276Y452D01*
X1276Y456D01*
X1278Y456D01*
X1278Y460D01*
X1280Y460D01*
X1280Y462D01*
X1282Y462D01*
X1282Y466D01*
X1284Y466D01*
X1284Y468D01*
X1286Y468D01*
X1286Y488D01*
X1284Y488D01*
X1284Y490D01*
X1282Y490D01*
X1282Y492D01*
X1280Y492D01*
X1280Y496D01*
X1278Y496D01*
X1278Y498D01*
X1276Y498D01*
X1276Y500D01*
X1274Y500D01*
X1274Y504D01*
X1252Y504D01*
G37*
D02*
G36*
X1602Y484D02*
X1602Y354D01*
X1584Y354D01*
X1584Y334D01*
X1588Y334D01*
X1588Y332D01*
X1590Y332D01*
X1590Y330D01*
X1594Y330D01*
X1594Y328D01*
X1596Y328D01*
X1596Y326D01*
X1598Y326D01*
X1598Y324D01*
X1600Y324D01*
X1600Y322D01*
X1602Y322D01*
X1602Y320D01*
X1604Y320D01*
X1604Y318D01*
X1606Y318D01*
X1606Y314D01*
X1608Y314D01*
X1608Y312D01*
X1610Y312D01*
X1610Y308D01*
X1612Y308D01*
X1612Y304D01*
X1614Y304D01*
X1614Y300D01*
X1616Y300D01*
X1616Y294D01*
X1638Y294D01*
X1638Y296D01*
X1640Y296D01*
X1640Y298D01*
X1642Y298D01*
X1642Y300D01*
X1644Y300D01*
X1644Y302D01*
X1646Y302D01*
X1646Y304D01*
X1648Y304D01*
X1648Y306D01*
X1650Y306D01*
X1650Y308D01*
X1652Y308D01*
X1652Y310D01*
X1654Y310D01*
X1654Y312D01*
X1656Y312D01*
X1656Y314D01*
X1658Y314D01*
X1658Y316D01*
X1660Y316D01*
X1660Y318D01*
X1662Y318D01*
X1662Y320D01*
X1664Y320D01*
X1664Y322D01*
X1666Y322D01*
X1666Y324D01*
X1668Y324D01*
X1668Y326D01*
X1670Y326D01*
X1670Y328D01*
X1672Y328D01*
X1672Y330D01*
X1674Y330D01*
X1674Y332D01*
X1676Y332D01*
X1676Y334D01*
X1678Y334D01*
X1678Y336D01*
X1680Y336D01*
X1680Y338D01*
X1682Y338D01*
X1682Y340D01*
X1684Y340D01*
X1684Y342D01*
X1686Y342D01*
X1686Y344D01*
X1688Y344D01*
X1688Y346D01*
X1690Y346D01*
X1690Y348D01*
X1692Y348D01*
X1692Y350D01*
X1694Y350D01*
X1694Y352D01*
X1696Y352D01*
X1696Y354D01*
X1698Y354D01*
X1698Y356D01*
X1700Y356D01*
X1700Y358D01*
X1702Y358D01*
X1702Y360D01*
X1704Y360D01*
X1704Y362D01*
X1706Y362D01*
X1706Y364D01*
X1708Y364D01*
X1708Y366D01*
X1710Y366D01*
X1710Y368D01*
X1712Y368D01*
X1712Y370D01*
X1714Y370D01*
X1714Y392D01*
X1712Y392D01*
X1712Y394D01*
X1710Y394D01*
X1710Y396D01*
X1708Y396D01*
X1708Y398D01*
X1706Y398D01*
X1706Y400D01*
X1704Y400D01*
X1704Y402D01*
X1702Y402D01*
X1702Y404D01*
X1700Y404D01*
X1700Y406D01*
X1698Y406D01*
X1698Y408D01*
X1696Y408D01*
X1696Y410D01*
X1694Y410D01*
X1694Y412D01*
X1692Y412D01*
X1692Y414D01*
X1690Y414D01*
X1690Y416D01*
X1688Y416D01*
X1688Y418D01*
X1686Y418D01*
X1686Y420D01*
X1684Y420D01*
X1684Y422D01*
X1682Y422D01*
X1682Y424D01*
X1680Y424D01*
X1680Y426D01*
X1678Y426D01*
X1678Y428D01*
X1676Y428D01*
X1676Y430D01*
X1674Y430D01*
X1674Y432D01*
X1672Y432D01*
X1672Y434D01*
X1670Y434D01*
X1670Y436D01*
X1668Y436D01*
X1668Y438D01*
X1666Y438D01*
X1666Y440D01*
X1664Y440D01*
X1664Y442D01*
X1662Y442D01*
X1662Y444D01*
X1660Y444D01*
X1660Y446D01*
X1658Y446D01*
X1658Y448D01*
X1656Y448D01*
X1656Y450D01*
X1654Y450D01*
X1654Y452D01*
X1652Y452D01*
X1652Y454D01*
X1650Y454D01*
X1650Y456D01*
X1648Y456D01*
X1648Y458D01*
X1646Y458D01*
X1646Y460D01*
X1644Y460D01*
X1644Y462D01*
X1642Y462D01*
X1642Y464D01*
X1640Y464D01*
X1640Y466D01*
X1638Y466D01*
X1638Y468D01*
X1636Y468D01*
X1636Y470D01*
X1634Y470D01*
X1634Y472D01*
X1632Y472D01*
X1632Y474D01*
X1630Y474D01*
X1630Y476D01*
X1628Y476D01*
X1628Y478D01*
X1626Y478D01*
X1626Y480D01*
X1624Y480D01*
X1624Y482D01*
X1622Y482D01*
X1622Y484D01*
X1602Y484D01*
G37*
D02*
G36*
X640Y442D02*
X640Y440D01*
X638Y440D01*
X638Y438D01*
X636Y438D01*
X636Y436D01*
X634Y436D01*
X634Y434D01*
X632Y434D01*
X632Y432D01*
X630Y432D01*
X630Y430D01*
X628Y430D01*
X628Y354D01*
X614Y354D01*
X614Y334D01*
X618Y334D01*
X618Y332D01*
X622Y332D01*
X622Y330D01*
X624Y330D01*
X624Y328D01*
X626Y328D01*
X626Y326D01*
X628Y326D01*
X628Y324D01*
X632Y324D01*
X632Y322D01*
X634Y322D01*
X634Y320D01*
X636Y320D01*
X636Y316D01*
X638Y316D01*
X638Y314D01*
X640Y314D01*
X640Y312D01*
X642Y312D01*
X642Y308D01*
X644Y308D01*
X644Y306D01*
X646Y306D01*
X646Y302D01*
X668Y302D01*
X668Y304D01*
X672Y304D01*
X672Y306D01*
X674Y306D01*
X674Y308D01*
X676Y308D01*
X676Y310D01*
X678Y310D01*
X678Y312D01*
X680Y312D01*
X680Y314D01*
X682Y314D01*
X682Y316D01*
X684Y316D01*
X684Y318D01*
X686Y318D01*
X686Y320D01*
X688Y320D01*
X688Y322D01*
X690Y322D01*
X690Y324D01*
X692Y324D01*
X692Y326D01*
X694Y326D01*
X694Y328D01*
X696Y328D01*
X696Y330D01*
X698Y330D01*
X698Y332D01*
X700Y332D01*
X700Y334D01*
X702Y334D01*
X702Y336D01*
X704Y336D01*
X704Y338D01*
X706Y338D01*
X706Y340D01*
X708Y340D01*
X708Y342D01*
X710Y342D01*
X710Y344D01*
X712Y344D01*
X712Y346D01*
X714Y346D01*
X714Y348D01*
X716Y348D01*
X716Y350D01*
X718Y350D01*
X718Y352D01*
X720Y352D01*
X720Y354D01*
X722Y354D01*
X722Y356D01*
X724Y356D01*
X724Y358D01*
X726Y358D01*
X726Y360D01*
X728Y360D01*
X728Y362D01*
X730Y362D01*
X730Y364D01*
X732Y364D01*
X732Y366D01*
X734Y366D01*
X734Y368D01*
X736Y368D01*
X736Y370D01*
X738Y370D01*
X738Y372D01*
X740Y372D01*
X740Y374D01*
X742Y374D01*
X742Y376D01*
X744Y376D01*
X744Y378D01*
X746Y378D01*
X746Y380D01*
X748Y380D01*
X748Y382D01*
X752Y382D01*
X752Y384D01*
X754Y384D01*
X754Y386D01*
X756Y386D01*
X756Y388D01*
X758Y388D01*
X758Y390D01*
X760Y390D01*
X760Y392D01*
X762Y392D01*
X762Y394D01*
X764Y394D01*
X764Y396D01*
X766Y396D01*
X766Y398D01*
X768Y398D01*
X768Y400D01*
X770Y400D01*
X770Y402D01*
X772Y402D01*
X772Y404D01*
X774Y404D01*
X774Y406D01*
X776Y406D01*
X776Y408D01*
X778Y408D01*
X778Y410D01*
X780Y410D01*
X780Y412D01*
X782Y412D01*
X782Y414D01*
X784Y414D01*
X784Y416D01*
X786Y416D01*
X786Y418D01*
X788Y418D01*
X788Y420D01*
X790Y420D01*
X790Y442D01*
X640Y442D01*
G37*
D02*
G36*
X928Y442D02*
X928Y404D01*
X926Y404D01*
X926Y398D01*
X924Y398D01*
X924Y394D01*
X922Y394D01*
X922Y390D01*
X920Y390D01*
X920Y386D01*
X918Y386D01*
X918Y384D01*
X916Y384D01*
X916Y380D01*
X914Y380D01*
X914Y378D01*
X912Y378D01*
X912Y376D01*
X910Y376D01*
X910Y374D01*
X908Y374D01*
X908Y372D01*
X906Y372D01*
X906Y370D01*
X904Y370D01*
X904Y368D01*
X902Y368D01*
X902Y366D01*
X898Y366D01*
X898Y364D01*
X896Y364D01*
X896Y362D01*
X892Y362D01*
X892Y360D01*
X888Y360D01*
X888Y358D01*
X884Y358D01*
X884Y356D01*
X878Y356D01*
X878Y354D01*
X870Y354D01*
X870Y334D01*
X874Y334D01*
X874Y332D01*
X878Y332D01*
X878Y330D01*
X880Y330D01*
X880Y328D01*
X882Y328D01*
X882Y326D01*
X884Y326D01*
X884Y324D01*
X888Y324D01*
X888Y322D01*
X890Y322D01*
X890Y320D01*
X892Y320D01*
X892Y318D01*
X1004Y318D01*
X1004Y320D01*
X1006Y320D01*
X1006Y322D01*
X1008Y322D01*
X1008Y324D01*
X1010Y324D01*
X1010Y326D01*
X1012Y326D01*
X1012Y328D01*
X1014Y328D01*
X1014Y330D01*
X1016Y330D01*
X1016Y332D01*
X1020Y332D01*
X1020Y334D01*
X1022Y334D01*
X1022Y354D01*
X970Y354D01*
X970Y426D01*
X968Y426D01*
X968Y428D01*
X966Y428D01*
X966Y430D01*
X964Y430D01*
X964Y432D01*
X962Y432D01*
X962Y434D01*
X958Y434D01*
X958Y436D01*
X956Y436D01*
X956Y438D01*
X954Y438D01*
X954Y440D01*
X952Y440D01*
X952Y442D01*
X928Y442D01*
G37*
D02*
G36*
X1868Y364D02*
X1868Y362D01*
X1864Y362D01*
X1864Y360D01*
X1860Y360D01*
X1860Y358D01*
X1856Y358D01*
X1856Y356D01*
X1848Y356D01*
X1848Y354D01*
X1840Y354D01*
X1840Y334D01*
X1844Y334D01*
X1844Y332D01*
X1846Y332D01*
X1846Y330D01*
X1850Y330D01*
X1850Y328D01*
X1852Y328D01*
X1852Y326D01*
X1854Y326D01*
X1854Y324D01*
X1856Y324D01*
X1856Y322D01*
X1858Y322D01*
X1858Y320D01*
X1860Y320D01*
X1860Y316D01*
X1862Y316D01*
X1862Y314D01*
X1864Y314D01*
X1864Y312D01*
X1866Y312D01*
X1866Y308D01*
X1868Y308D01*
X1868Y304D01*
X1888Y304D01*
X1888Y364D01*
X1868Y364D01*
G37*
D02*
G36*
X752Y254D02*
X752Y252D01*
X750Y252D01*
X750Y250D01*
X748Y250D01*
X748Y248D01*
X746Y248D01*
X746Y246D01*
X744Y246D01*
X744Y244D01*
X742Y244D01*
X742Y242D01*
X740Y242D01*
X740Y240D01*
X738Y240D01*
X738Y238D01*
X736Y238D01*
X736Y236D01*
X734Y236D01*
X734Y234D01*
X732Y234D01*
X732Y232D01*
X730Y232D01*
X730Y230D01*
X728Y230D01*
X728Y228D01*
X726Y228D01*
X726Y226D01*
X724Y226D01*
X724Y224D01*
X722Y224D01*
X722Y222D01*
X720Y222D01*
X720Y220D01*
X718Y220D01*
X718Y218D01*
X716Y218D01*
X716Y216D01*
X714Y216D01*
X714Y214D01*
X712Y214D01*
X712Y212D01*
X708Y212D01*
X708Y210D01*
X706Y210D01*
X706Y208D01*
X704Y208D01*
X704Y206D01*
X702Y206D01*
X702Y204D01*
X700Y204D01*
X700Y202D01*
X828Y202D01*
X828Y204D01*
X818Y204D01*
X818Y206D01*
X812Y206D01*
X812Y208D01*
X808Y208D01*
X808Y210D01*
X804Y210D01*
X804Y212D01*
X802Y212D01*
X802Y214D01*
X798Y214D01*
X798Y216D01*
X796Y216D01*
X796Y218D01*
X794Y218D01*
X794Y220D01*
X792Y220D01*
X792Y222D01*
X790Y222D01*
X790Y224D01*
X788Y224D01*
X788Y226D01*
X786Y226D01*
X786Y228D01*
X784Y228D01*
X784Y230D01*
X782Y230D01*
X782Y234D01*
X780Y234D01*
X780Y236D01*
X778Y236D01*
X778Y240D01*
X776Y240D01*
X776Y244D01*
X774Y244D01*
X774Y248D01*
X772Y248D01*
X772Y254D01*
X752Y254D01*
G37*
D02*
G36*
X912Y230D02*
X912Y228D01*
X892Y228D01*
X892Y226D01*
X890Y226D01*
X890Y224D01*
X888Y224D01*
X888Y222D01*
X886Y222D01*
X886Y220D01*
X884Y220D01*
X884Y218D01*
X882Y218D01*
X882Y216D01*
X880Y216D01*
X880Y214D01*
X876Y214D01*
X876Y212D01*
X874Y212D01*
X874Y210D01*
X870Y210D01*
X870Y208D01*
X866Y208D01*
X866Y206D01*
X860Y206D01*
X860Y204D01*
X852Y204D01*
X852Y202D01*
X1036Y202D01*
X1036Y208D01*
X1034Y208D01*
X1034Y210D01*
X1030Y210D01*
X1030Y212D01*
X1026Y212D01*
X1026Y214D01*
X1022Y214D01*
X1022Y216D01*
X1020Y216D01*
X1020Y218D01*
X1016Y218D01*
X1016Y220D01*
X1014Y220D01*
X1014Y222D01*
X1012Y222D01*
X1012Y224D01*
X1010Y224D01*
X1010Y226D01*
X1008Y226D01*
X1008Y228D01*
X1006Y228D01*
X1006Y230D01*
X912Y230D01*
G37*
D02*
G36*
X698Y202D02*
X698Y200D01*
X1036Y200D01*
X1036Y202D01*
X698Y202D01*
G37*
D02*
G36*
X698Y202D02*
X698Y200D01*
X1036Y200D01*
X1036Y202D01*
X698Y202D01*
G37*
D02*
G36*
X696Y200D02*
X696Y198D01*
X694Y198D01*
X694Y196D01*
X692Y196D01*
X692Y194D01*
X690Y194D01*
X690Y192D01*
X688Y192D01*
X688Y190D01*
X686Y190D01*
X686Y188D01*
X684Y188D01*
X684Y186D01*
X682Y186D01*
X682Y184D01*
X680Y184D01*
X680Y182D01*
X678Y182D01*
X678Y180D01*
X676Y180D01*
X676Y178D01*
X674Y178D01*
X674Y176D01*
X672Y176D01*
X672Y174D01*
X670Y174D01*
X670Y172D01*
X668Y172D01*
X668Y170D01*
X666Y170D01*
X666Y168D01*
X664Y168D01*
X664Y166D01*
X662Y166D01*
X662Y164D01*
X858Y164D01*
X858Y162D01*
X864Y162D01*
X864Y160D01*
X868Y160D01*
X868Y158D01*
X872Y158D01*
X872Y156D01*
X876Y156D01*
X876Y154D01*
X878Y154D01*
X878Y152D01*
X882Y152D01*
X882Y150D01*
X884Y150D01*
X884Y148D01*
X886Y148D01*
X886Y146D01*
X888Y146D01*
X888Y144D01*
X890Y144D01*
X890Y142D01*
X892Y142D01*
X892Y140D01*
X894Y140D01*
X894Y138D01*
X896Y138D01*
X896Y134D01*
X898Y134D01*
X898Y132D01*
X900Y132D01*
X900Y128D01*
X902Y128D01*
X902Y124D01*
X904Y124D01*
X904Y120D01*
X906Y120D01*
X906Y114D01*
X908Y114D01*
X908Y76D01*
X906Y76D01*
X906Y70D01*
X904Y70D01*
X904Y66D01*
X902Y66D01*
X902Y62D01*
X900Y62D01*
X900Y42D01*
X1000Y42D01*
X1000Y62D01*
X998Y62D01*
X998Y64D01*
X996Y64D01*
X996Y68D01*
X994Y68D01*
X994Y72D01*
X992Y72D01*
X992Y78D01*
X990Y78D01*
X990Y118D01*
X992Y118D01*
X992Y124D01*
X994Y124D01*
X994Y128D01*
X996Y128D01*
X996Y132D01*
X998Y132D01*
X998Y134D01*
X1000Y134D01*
X1000Y138D01*
X1002Y138D01*
X1002Y140D01*
X1004Y140D01*
X1004Y142D01*
X1006Y142D01*
X1006Y144D01*
X1008Y144D01*
X1008Y146D01*
X1010Y146D01*
X1010Y148D01*
X1012Y148D01*
X1012Y150D01*
X1014Y150D01*
X1014Y164D01*
X1016Y164D01*
X1016Y168D01*
X1018Y168D01*
X1018Y172D01*
X1020Y172D01*
X1020Y174D01*
X1022Y174D01*
X1022Y176D01*
X1024Y176D01*
X1024Y178D01*
X1026Y178D01*
X1026Y180D01*
X1028Y180D01*
X1028Y182D01*
X1030Y182D01*
X1030Y184D01*
X1032Y184D01*
X1032Y186D01*
X1034Y186D01*
X1034Y188D01*
X1036Y188D01*
X1036Y200D01*
X696Y200D01*
G37*
D02*
G36*
X660Y164D02*
X660Y162D01*
X658Y162D01*
X658Y160D01*
X656Y160D01*
X656Y158D01*
X654Y158D01*
X654Y156D01*
X652Y156D01*
X652Y154D01*
X650Y154D01*
X650Y152D01*
X648Y152D01*
X648Y150D01*
X646Y150D01*
X646Y148D01*
X644Y148D01*
X644Y128D01*
X646Y128D01*
X646Y124D01*
X648Y124D01*
X648Y120D01*
X650Y120D01*
X650Y114D01*
X652Y114D01*
X652Y76D01*
X650Y76D01*
X650Y70D01*
X648Y70D01*
X648Y66D01*
X646Y66D01*
X646Y62D01*
X644Y62D01*
X644Y42D01*
X778Y42D01*
X778Y62D01*
X776Y62D01*
X776Y66D01*
X774Y66D01*
X774Y70D01*
X772Y70D01*
X772Y78D01*
X770Y78D01*
X770Y112D01*
X772Y112D01*
X772Y120D01*
X774Y120D01*
X774Y124D01*
X776Y124D01*
X776Y128D01*
X778Y128D01*
X778Y130D01*
X780Y130D01*
X780Y134D01*
X782Y134D01*
X782Y136D01*
X784Y136D01*
X784Y140D01*
X786Y140D01*
X786Y142D01*
X788Y142D01*
X788Y144D01*
X790Y144D01*
X790Y146D01*
X792Y146D01*
X792Y148D01*
X794Y148D01*
X794Y150D01*
X798Y150D01*
X798Y152D01*
X800Y152D01*
X800Y154D01*
X802Y154D01*
X802Y156D01*
X806Y156D01*
X806Y158D01*
X810Y158D01*
X810Y160D01*
X814Y160D01*
X814Y162D01*
X820Y162D01*
X820Y164D01*
X660Y164D01*
G37*
D02*
G36*
X1388Y486D02*
X1388Y472D01*
X1390Y472D01*
X1390Y470D01*
X1392Y470D01*
X1392Y468D01*
X1394Y468D01*
X1394Y464D01*
X1396Y464D01*
X1396Y462D01*
X1398Y462D01*
X1398Y460D01*
X1400Y460D01*
X1400Y456D01*
X1402Y456D01*
X1402Y452D01*
X1404Y452D01*
X1404Y448D01*
X1406Y448D01*
X1406Y442D01*
X1408Y442D01*
X1408Y406D01*
X1406Y406D01*
X1406Y400D01*
X1404Y400D01*
X1404Y394D01*
X1402Y394D01*
X1402Y390D01*
X1400Y390D01*
X1400Y388D01*
X1398Y388D01*
X1398Y384D01*
X1396Y384D01*
X1396Y382D01*
X1394Y382D01*
X1394Y380D01*
X1392Y380D01*
X1392Y376D01*
X1390Y376D01*
X1390Y374D01*
X1388Y374D01*
X1388Y372D01*
X1386Y372D01*
X1386Y370D01*
X1382Y370D01*
X1382Y368D01*
X1380Y368D01*
X1380Y366D01*
X1378Y366D01*
X1378Y364D01*
X1374Y364D01*
X1374Y362D01*
X1372Y362D01*
X1372Y360D01*
X1368Y360D01*
X1368Y358D01*
X1362Y358D01*
X1362Y356D01*
X1356Y356D01*
X1356Y354D01*
X1350Y354D01*
X1350Y334D01*
X1354Y334D01*
X1354Y332D01*
X1356Y332D01*
X1356Y330D01*
X1358Y330D01*
X1358Y328D01*
X1362Y328D01*
X1362Y326D01*
X1364Y326D01*
X1364Y324D01*
X1366Y324D01*
X1366Y322D01*
X1368Y322D01*
X1368Y318D01*
X1370Y318D01*
X1370Y316D01*
X1372Y316D01*
X1372Y314D01*
X1374Y314D01*
X1374Y310D01*
X1376Y310D01*
X1376Y308D01*
X1378Y308D01*
X1378Y304D01*
X1380Y304D01*
X1380Y298D01*
X1382Y298D01*
X1382Y292D01*
X1384Y292D01*
X1384Y258D01*
X1382Y258D01*
X1382Y252D01*
X1380Y252D01*
X1380Y246D01*
X1378Y246D01*
X1378Y242D01*
X1376Y242D01*
X1376Y240D01*
X1374Y240D01*
X1374Y236D01*
X1372Y236D01*
X1372Y234D01*
X1370Y234D01*
X1370Y232D01*
X1368Y232D01*
X1368Y228D01*
X1366Y228D01*
X1366Y226D01*
X1364Y226D01*
X1364Y224D01*
X1362Y224D01*
X1362Y222D01*
X1358Y222D01*
X1358Y220D01*
X1356Y220D01*
X1356Y218D01*
X1354Y218D01*
X1354Y216D01*
X1350Y216D01*
X1350Y214D01*
X1348Y214D01*
X1348Y212D01*
X1344Y212D01*
X1344Y210D01*
X1340Y210D01*
X1340Y208D01*
X1332Y208D01*
X1332Y206D01*
X1530Y206D01*
X1530Y208D01*
X1524Y208D01*
X1524Y210D01*
X1520Y210D01*
X1520Y212D01*
X1516Y212D01*
X1516Y214D01*
X1512Y214D01*
X1512Y216D01*
X1510Y216D01*
X1510Y218D01*
X1506Y218D01*
X1506Y220D01*
X1504Y220D01*
X1504Y222D01*
X1502Y222D01*
X1502Y224D01*
X1500Y224D01*
X1500Y226D01*
X1498Y226D01*
X1498Y228D01*
X1496Y228D01*
X1496Y230D01*
X1494Y230D01*
X1494Y234D01*
X1492Y234D01*
X1492Y236D01*
X1490Y236D01*
X1490Y240D01*
X1488Y240D01*
X1488Y242D01*
X1486Y242D01*
X1486Y246D01*
X1484Y246D01*
X1484Y252D01*
X1482Y252D01*
X1482Y258D01*
X1480Y258D01*
X1480Y290D01*
X1482Y290D01*
X1482Y298D01*
X1484Y298D01*
X1484Y302D01*
X1486Y302D01*
X1486Y306D01*
X1488Y306D01*
X1488Y310D01*
X1490Y310D01*
X1490Y312D01*
X1492Y312D01*
X1492Y316D01*
X1494Y316D01*
X1494Y318D01*
X1496Y318D01*
X1496Y320D01*
X1498Y320D01*
X1498Y322D01*
X1500Y322D01*
X1500Y324D01*
X1502Y324D01*
X1502Y326D01*
X1504Y326D01*
X1504Y328D01*
X1506Y328D01*
X1506Y330D01*
X1508Y330D01*
X1508Y332D01*
X1512Y332D01*
X1512Y334D01*
X1514Y334D01*
X1514Y354D01*
X1462Y354D01*
X1462Y430D01*
X1460Y430D01*
X1460Y432D01*
X1458Y432D01*
X1458Y434D01*
X1456Y434D01*
X1456Y436D01*
X1454Y436D01*
X1454Y438D01*
X1452Y438D01*
X1452Y440D01*
X1450Y440D01*
X1450Y442D01*
X1448Y442D01*
X1448Y444D01*
X1446Y444D01*
X1446Y446D01*
X1444Y446D01*
X1444Y448D01*
X1442Y448D01*
X1442Y450D01*
X1440Y450D01*
X1440Y452D01*
X1438Y452D01*
X1438Y454D01*
X1436Y454D01*
X1436Y456D01*
X1434Y456D01*
X1434Y458D01*
X1432Y458D01*
X1432Y460D01*
X1430Y460D01*
X1430Y462D01*
X1428Y462D01*
X1428Y464D01*
X1426Y464D01*
X1426Y466D01*
X1424Y466D01*
X1424Y468D01*
X1422Y468D01*
X1422Y470D01*
X1420Y470D01*
X1420Y474D01*
X1418Y474D01*
X1418Y476D01*
X1416Y476D01*
X1416Y478D01*
X1414Y478D01*
X1414Y480D01*
X1412Y480D01*
X1412Y482D01*
X1410Y482D01*
X1410Y484D01*
X1408Y484D01*
X1408Y486D01*
X1388Y486D01*
G37*
D02*
G36*
X1230Y250D02*
X1230Y248D01*
X1228Y248D01*
X1228Y246D01*
X1226Y246D01*
X1226Y244D01*
X1224Y244D01*
X1224Y242D01*
X1222Y242D01*
X1222Y240D01*
X1220Y240D01*
X1220Y238D01*
X1218Y238D01*
X1218Y236D01*
X1216Y236D01*
X1216Y234D01*
X1214Y234D01*
X1214Y232D01*
X1212Y232D01*
X1212Y230D01*
X1210Y230D01*
X1210Y228D01*
X1208Y228D01*
X1208Y226D01*
X1206Y226D01*
X1206Y224D01*
X1204Y224D01*
X1204Y222D01*
X1202Y222D01*
X1202Y220D01*
X1200Y220D01*
X1200Y218D01*
X1198Y218D01*
X1198Y216D01*
X1196Y216D01*
X1196Y214D01*
X1194Y214D01*
X1194Y212D01*
X1192Y212D01*
X1192Y210D01*
X1190Y210D01*
X1190Y208D01*
X1188Y208D01*
X1188Y206D01*
X1296Y206D01*
X1296Y208D01*
X1290Y208D01*
X1290Y210D01*
X1286Y210D01*
X1286Y212D01*
X1282Y212D01*
X1282Y214D01*
X1278Y214D01*
X1278Y216D01*
X1276Y216D01*
X1276Y218D01*
X1272Y218D01*
X1272Y220D01*
X1270Y220D01*
X1270Y222D01*
X1268Y222D01*
X1268Y224D01*
X1266Y224D01*
X1266Y226D01*
X1264Y226D01*
X1264Y228D01*
X1262Y228D01*
X1262Y230D01*
X1260Y230D01*
X1260Y232D01*
X1258Y232D01*
X1258Y236D01*
X1256Y236D01*
X1256Y238D01*
X1254Y238D01*
X1254Y242D01*
X1252Y242D01*
X1252Y246D01*
X1250Y246D01*
X1250Y250D01*
X1230Y250D01*
G37*
D02*
G36*
X1186Y206D02*
X1186Y204D01*
X1530Y204D01*
X1530Y206D01*
X1186Y206D01*
G37*
D02*
G36*
X1186Y206D02*
X1186Y204D01*
X1530Y204D01*
X1530Y206D01*
X1186Y206D01*
G37*
D02*
G36*
X1184Y204D02*
X1184Y202D01*
X1180Y202D01*
X1180Y200D01*
X1178Y200D01*
X1178Y198D01*
X1176Y198D01*
X1176Y196D01*
X1174Y196D01*
X1174Y194D01*
X1172Y194D01*
X1172Y192D01*
X1170Y192D01*
X1170Y190D01*
X1168Y190D01*
X1168Y188D01*
X1166Y188D01*
X1166Y186D01*
X1164Y186D01*
X1164Y184D01*
X1162Y184D01*
X1162Y182D01*
X1160Y182D01*
X1160Y180D01*
X1158Y180D01*
X1158Y178D01*
X1156Y178D01*
X1156Y176D01*
X1154Y176D01*
X1154Y174D01*
X1152Y174D01*
X1152Y172D01*
X1150Y172D01*
X1150Y170D01*
X1148Y170D01*
X1148Y168D01*
X1326Y168D01*
X1326Y166D01*
X1336Y166D01*
X1336Y164D01*
X1342Y164D01*
X1342Y162D01*
X1346Y162D01*
X1346Y160D01*
X1348Y160D01*
X1348Y158D01*
X1352Y158D01*
X1352Y156D01*
X1354Y156D01*
X1354Y154D01*
X1358Y154D01*
X1358Y152D01*
X1360Y152D01*
X1360Y150D01*
X1362Y150D01*
X1362Y148D01*
X1364Y148D01*
X1364Y146D01*
X1366Y146D01*
X1366Y144D01*
X1368Y144D01*
X1368Y142D01*
X1370Y142D01*
X1370Y140D01*
X1372Y140D01*
X1372Y136D01*
X1374Y136D01*
X1374Y134D01*
X1376Y134D01*
X1376Y130D01*
X1378Y130D01*
X1378Y126D01*
X1380Y126D01*
X1380Y122D01*
X1382Y122D01*
X1382Y114D01*
X1384Y114D01*
X1384Y72D01*
X1480Y72D01*
X1480Y112D01*
X1482Y112D01*
X1482Y120D01*
X1484Y120D01*
X1484Y126D01*
X1486Y126D01*
X1486Y130D01*
X1488Y130D01*
X1488Y132D01*
X1490Y132D01*
X1490Y136D01*
X1492Y136D01*
X1492Y138D01*
X1494Y138D01*
X1494Y140D01*
X1496Y140D01*
X1496Y144D01*
X1498Y144D01*
X1498Y146D01*
X1500Y146D01*
X1500Y148D01*
X1502Y148D01*
X1502Y150D01*
X1504Y150D01*
X1504Y156D01*
X1506Y156D01*
X1506Y160D01*
X1508Y160D01*
X1508Y164D01*
X1510Y164D01*
X1510Y168D01*
X1512Y168D01*
X1512Y170D01*
X1514Y170D01*
X1514Y172D01*
X1516Y172D01*
X1516Y174D01*
X1518Y174D01*
X1518Y176D01*
X1520Y176D01*
X1520Y178D01*
X1522Y178D01*
X1522Y180D01*
X1524Y180D01*
X1524Y182D01*
X1526Y182D01*
X1526Y184D01*
X1528Y184D01*
X1528Y186D01*
X1530Y186D01*
X1530Y204D01*
X1184Y204D01*
G37*
D02*
G36*
X1146Y168D02*
X1146Y166D01*
X1144Y166D01*
X1144Y164D01*
X1142Y164D01*
X1142Y162D01*
X1140Y162D01*
X1140Y160D01*
X1138Y160D01*
X1138Y158D01*
X1136Y158D01*
X1136Y156D01*
X1134Y156D01*
X1134Y154D01*
X1132Y154D01*
X1132Y152D01*
X1130Y152D01*
X1130Y150D01*
X1128Y150D01*
X1128Y148D01*
X1126Y148D01*
X1126Y146D01*
X1124Y146D01*
X1124Y122D01*
X1126Y122D01*
X1126Y114D01*
X1128Y114D01*
X1128Y88D01*
X1130Y88D01*
X1130Y86D01*
X1132Y86D01*
X1132Y84D01*
X1134Y84D01*
X1134Y82D01*
X1136Y82D01*
X1136Y80D01*
X1138Y80D01*
X1138Y78D01*
X1140Y78D01*
X1140Y76D01*
X1142Y76D01*
X1142Y74D01*
X1144Y74D01*
X1144Y72D01*
X1246Y72D01*
X1246Y118D01*
X1248Y118D01*
X1248Y124D01*
X1250Y124D01*
X1250Y128D01*
X1252Y128D01*
X1252Y132D01*
X1254Y132D01*
X1254Y134D01*
X1256Y134D01*
X1256Y138D01*
X1258Y138D01*
X1258Y140D01*
X1260Y140D01*
X1260Y142D01*
X1262Y142D01*
X1262Y144D01*
X1264Y144D01*
X1264Y146D01*
X1266Y146D01*
X1266Y148D01*
X1268Y148D01*
X1268Y150D01*
X1270Y150D01*
X1270Y152D01*
X1272Y152D01*
X1272Y154D01*
X1274Y154D01*
X1274Y156D01*
X1278Y156D01*
X1278Y158D01*
X1280Y158D01*
X1280Y160D01*
X1284Y160D01*
X1284Y162D01*
X1288Y162D01*
X1288Y164D01*
X1294Y164D01*
X1294Y166D01*
X1302Y166D01*
X1302Y168D01*
X1146Y168D01*
G37*
D02*
G36*
X1720Y246D02*
X1720Y244D01*
X1742Y244D01*
X1742Y246D01*
X1720Y246D01*
G37*
D02*
G36*
X1718Y244D02*
X1718Y242D01*
X1716Y242D01*
X1716Y240D01*
X1714Y240D01*
X1714Y238D01*
X1712Y238D01*
X1712Y236D01*
X1710Y236D01*
X1710Y234D01*
X1708Y234D01*
X1708Y232D01*
X1706Y232D01*
X1706Y230D01*
X1704Y230D01*
X1704Y228D01*
X1702Y228D01*
X1702Y226D01*
X1700Y226D01*
X1700Y224D01*
X1698Y224D01*
X1698Y222D01*
X1696Y222D01*
X1696Y220D01*
X1694Y220D01*
X1694Y218D01*
X1692Y218D01*
X1692Y216D01*
X1690Y216D01*
X1690Y214D01*
X1688Y214D01*
X1688Y212D01*
X1686Y212D01*
X1686Y210D01*
X1684Y210D01*
X1684Y208D01*
X1682Y208D01*
X1682Y206D01*
X1680Y206D01*
X1680Y204D01*
X1796Y204D01*
X1796Y206D01*
X1786Y206D01*
X1786Y208D01*
X1780Y208D01*
X1780Y210D01*
X1776Y210D01*
X1776Y212D01*
X1772Y212D01*
X1772Y214D01*
X1768Y214D01*
X1768Y216D01*
X1766Y216D01*
X1766Y218D01*
X1762Y218D01*
X1762Y220D01*
X1760Y220D01*
X1760Y222D01*
X1758Y222D01*
X1758Y224D01*
X1756Y224D01*
X1756Y226D01*
X1754Y226D01*
X1754Y228D01*
X1752Y228D01*
X1752Y230D01*
X1750Y230D01*
X1750Y234D01*
X1748Y234D01*
X1748Y236D01*
X1746Y236D01*
X1746Y238D01*
X1744Y238D01*
X1744Y242D01*
X1742Y242D01*
X1742Y244D01*
X1718Y244D01*
G37*
D02*
G36*
X1868Y244D02*
X1868Y240D01*
X1866Y240D01*
X1866Y238D01*
X1864Y238D01*
X1864Y234D01*
X1862Y234D01*
X1862Y232D01*
X1860Y232D01*
X1860Y230D01*
X1858Y230D01*
X1858Y228D01*
X1856Y228D01*
X1856Y226D01*
X1854Y226D01*
X1854Y224D01*
X1852Y224D01*
X1852Y222D01*
X1850Y222D01*
X1850Y220D01*
X1848Y220D01*
X1848Y218D01*
X1846Y218D01*
X1846Y216D01*
X1842Y216D01*
X1842Y214D01*
X1840Y214D01*
X1840Y212D01*
X1836Y212D01*
X1836Y210D01*
X1832Y210D01*
X1832Y208D01*
X1826Y208D01*
X1826Y206D01*
X1814Y206D01*
X1814Y204D01*
X1888Y204D01*
X1888Y244D01*
X1868Y244D01*
G37*
D02*
G36*
X1678Y204D02*
X1678Y202D01*
X1888Y202D01*
X1888Y204D01*
X1678Y204D01*
G37*
D02*
G36*
X1678Y204D02*
X1678Y202D01*
X1888Y202D01*
X1888Y204D01*
X1678Y204D01*
G37*
D02*
G36*
X1676Y202D02*
X1676Y200D01*
X1674Y200D01*
X1674Y198D01*
X1672Y198D01*
X1672Y196D01*
X1670Y196D01*
X1670Y194D01*
X1668Y194D01*
X1668Y192D01*
X1666Y192D01*
X1666Y190D01*
X1664Y190D01*
X1664Y188D01*
X1662Y188D01*
X1662Y186D01*
X1660Y186D01*
X1660Y184D01*
X1658Y184D01*
X1658Y182D01*
X1656Y182D01*
X1656Y180D01*
X1654Y180D01*
X1654Y178D01*
X1652Y178D01*
X1652Y176D01*
X1650Y176D01*
X1650Y174D01*
X1648Y174D01*
X1648Y172D01*
X1646Y172D01*
X1646Y170D01*
X1644Y170D01*
X1644Y168D01*
X1642Y168D01*
X1642Y166D01*
X1824Y166D01*
X1824Y164D01*
X1830Y164D01*
X1830Y162D01*
X1836Y162D01*
X1836Y160D01*
X1838Y160D01*
X1838Y158D01*
X1842Y158D01*
X1842Y156D01*
X1846Y156D01*
X1846Y154D01*
X1848Y154D01*
X1848Y152D01*
X1850Y152D01*
X1850Y150D01*
X1852Y150D01*
X1852Y148D01*
X1854Y148D01*
X1854Y146D01*
X1856Y146D01*
X1856Y144D01*
X1858Y144D01*
X1858Y142D01*
X1860Y142D01*
X1860Y140D01*
X1862Y140D01*
X1862Y138D01*
X1864Y138D01*
X1864Y134D01*
X1866Y134D01*
X1866Y130D01*
X1868Y130D01*
X1868Y128D01*
X1888Y128D01*
X1888Y202D01*
X1676Y202D01*
G37*
D02*
G36*
X1640Y166D02*
X1640Y164D01*
X1638Y164D01*
X1638Y162D01*
X1636Y162D01*
X1636Y160D01*
X1634Y160D01*
X1634Y158D01*
X1632Y158D01*
X1632Y156D01*
X1630Y156D01*
X1630Y154D01*
X1628Y154D01*
X1628Y152D01*
X1626Y152D01*
X1626Y150D01*
X1624Y150D01*
X1624Y148D01*
X1622Y148D01*
X1622Y146D01*
X1620Y146D01*
X1620Y144D01*
X1618Y144D01*
X1618Y142D01*
X1616Y142D01*
X1616Y118D01*
X1618Y118D01*
X1618Y106D01*
X1620Y106D01*
X1620Y72D01*
X1736Y72D01*
X1736Y114D01*
X1738Y114D01*
X1738Y120D01*
X1740Y120D01*
X1740Y126D01*
X1742Y126D01*
X1742Y130D01*
X1744Y130D01*
X1744Y132D01*
X1746Y132D01*
X1746Y136D01*
X1748Y136D01*
X1748Y138D01*
X1750Y138D01*
X1750Y140D01*
X1752Y140D01*
X1752Y144D01*
X1754Y144D01*
X1754Y146D01*
X1756Y146D01*
X1756Y148D01*
X1758Y148D01*
X1758Y150D01*
X1760Y150D01*
X1760Y152D01*
X1764Y152D01*
X1764Y154D01*
X1766Y154D01*
X1766Y156D01*
X1768Y156D01*
X1768Y158D01*
X1772Y158D01*
X1772Y160D01*
X1776Y160D01*
X1776Y162D01*
X1780Y162D01*
X1780Y164D01*
X1786Y164D01*
X1786Y166D01*
X1640Y166D01*
G37*
D02*
G36*
X510Y228D02*
X510Y226D01*
X508Y226D01*
X508Y224D01*
X506Y224D01*
X506Y222D01*
X504Y222D01*
X504Y220D01*
X502Y220D01*
X502Y218D01*
X500Y218D01*
X500Y216D01*
X498Y216D01*
X498Y214D01*
X496Y214D01*
X496Y212D01*
X494Y212D01*
X494Y210D01*
X492Y210D01*
X492Y208D01*
X490Y208D01*
X490Y206D01*
X488Y206D01*
X488Y204D01*
X486Y204D01*
X486Y202D01*
X484Y202D01*
X484Y200D01*
X482Y200D01*
X482Y198D01*
X480Y198D01*
X480Y196D01*
X478Y196D01*
X478Y194D01*
X476Y194D01*
X476Y192D01*
X474Y192D01*
X474Y190D01*
X472Y190D01*
X472Y188D01*
X470Y188D01*
X470Y186D01*
X468Y186D01*
X468Y184D01*
X466Y184D01*
X466Y182D01*
X464Y182D01*
X464Y180D01*
X462Y180D01*
X462Y178D01*
X460Y178D01*
X460Y176D01*
X458Y176D01*
X458Y174D01*
X456Y174D01*
X456Y172D01*
X454Y172D01*
X454Y170D01*
X450Y170D01*
X450Y168D01*
X446Y168D01*
X446Y166D01*
X442Y166D01*
X442Y164D01*
X416Y164D01*
X416Y144D01*
X418Y144D01*
X418Y142D01*
X420Y142D01*
X420Y138D01*
X422Y138D01*
X422Y136D01*
X424Y136D01*
X424Y134D01*
X426Y134D01*
X426Y130D01*
X428Y130D01*
X428Y128D01*
X430Y128D01*
X430Y124D01*
X432Y124D01*
X432Y120D01*
X434Y120D01*
X434Y114D01*
X436Y114D01*
X436Y74D01*
X434Y74D01*
X434Y70D01*
X432Y70D01*
X432Y64D01*
X430Y64D01*
X430Y42D01*
X522Y42D01*
X522Y62D01*
X520Y62D01*
X520Y66D01*
X518Y66D01*
X518Y72D01*
X516Y72D01*
X516Y78D01*
X514Y78D01*
X514Y112D01*
X516Y112D01*
X516Y118D01*
X518Y118D01*
X518Y124D01*
X520Y124D01*
X520Y128D01*
X522Y128D01*
X522Y130D01*
X524Y130D01*
X524Y134D01*
X526Y134D01*
X526Y136D01*
X528Y136D01*
X528Y140D01*
X530Y140D01*
X530Y142D01*
X532Y142D01*
X532Y144D01*
X534Y144D01*
X534Y146D01*
X536Y146D01*
X536Y148D01*
X538Y148D01*
X538Y150D01*
X540Y150D01*
X540Y166D01*
X542Y166D01*
X542Y176D01*
X544Y176D01*
X544Y180D01*
X546Y180D01*
X546Y182D01*
X548Y182D01*
X548Y186D01*
X550Y186D01*
X550Y188D01*
X552Y188D01*
X552Y210D01*
X548Y210D01*
X548Y212D01*
X546Y212D01*
X546Y214D01*
X542Y214D01*
X542Y216D01*
X540Y216D01*
X540Y218D01*
X538Y218D01*
X538Y220D01*
X536Y220D01*
X536Y222D01*
X534Y222D01*
X534Y224D01*
X532Y224D01*
X532Y226D01*
X530Y226D01*
X530Y228D01*
X510Y228D01*
G37*
D02*
G36*
X180Y256D02*
X180Y252D01*
X178Y252D01*
X178Y246D01*
X176Y246D01*
X176Y242D01*
X174Y242D01*
X174Y238D01*
X172Y238D01*
X172Y234D01*
X170Y234D01*
X170Y232D01*
X168Y232D01*
X168Y230D01*
X166Y230D01*
X166Y226D01*
X164Y226D01*
X164Y224D01*
X162Y224D01*
X162Y222D01*
X160Y222D01*
X160Y220D01*
X158Y220D01*
X158Y218D01*
X156Y218D01*
X156Y216D01*
X152Y216D01*
X152Y214D01*
X150Y214D01*
X150Y212D01*
X146Y212D01*
X146Y210D01*
X144Y210D01*
X144Y208D01*
X140Y208D01*
X140Y206D01*
X134Y206D01*
X134Y204D01*
X128Y204D01*
X128Y202D01*
X252Y202D01*
X252Y204D01*
X250Y204D01*
X250Y206D01*
X248Y206D01*
X248Y208D01*
X246Y208D01*
X246Y210D01*
X244Y210D01*
X244Y212D01*
X242Y212D01*
X242Y214D01*
X240Y214D01*
X240Y216D01*
X238Y216D01*
X238Y218D01*
X236Y218D01*
X236Y220D01*
X234Y220D01*
X234Y222D01*
X232Y222D01*
X232Y224D01*
X230Y224D01*
X230Y226D01*
X228Y226D01*
X228Y228D01*
X226Y228D01*
X226Y230D01*
X224Y230D01*
X224Y232D01*
X222Y232D01*
X222Y234D01*
X220Y234D01*
X220Y236D01*
X218Y236D01*
X218Y238D01*
X216Y238D01*
X216Y240D01*
X214Y240D01*
X214Y242D01*
X212Y242D01*
X212Y244D01*
X210Y244D01*
X210Y246D01*
X208Y246D01*
X208Y248D01*
X206Y248D01*
X206Y250D01*
X204Y250D01*
X204Y252D01*
X202Y252D01*
X202Y254D01*
X200Y254D01*
X200Y256D01*
X180Y256D01*
G37*
D02*
G36*
X40Y226D02*
X40Y202D01*
X96Y202D01*
X96Y204D01*
X88Y204D01*
X88Y206D01*
X84Y206D01*
X84Y208D01*
X80Y208D01*
X80Y210D01*
X76Y210D01*
X76Y212D01*
X72Y212D01*
X72Y214D01*
X70Y214D01*
X70Y216D01*
X68Y216D01*
X68Y218D01*
X66Y218D01*
X66Y220D01*
X64Y220D01*
X64Y222D01*
X62Y222D01*
X62Y224D01*
X60Y224D01*
X60Y226D01*
X40Y226D01*
G37*
D02*
G36*
X40Y202D02*
X40Y200D01*
X254Y200D01*
X254Y202D01*
X40Y202D01*
G37*
D02*
G36*
X40Y202D02*
X40Y200D01*
X254Y200D01*
X254Y202D01*
X40Y202D01*
G37*
D02*
G36*
X40Y200D02*
X40Y164D01*
X126Y164D01*
X126Y162D01*
X134Y162D01*
X134Y160D01*
X138Y160D01*
X138Y158D01*
X144Y158D01*
X144Y156D01*
X146Y156D01*
X146Y154D01*
X150Y154D01*
X150Y152D01*
X152Y152D01*
X152Y150D01*
X154Y150D01*
X154Y148D01*
X158Y148D01*
X158Y146D01*
X160Y146D01*
X160Y144D01*
X162Y144D01*
X162Y142D01*
X164Y142D01*
X164Y140D01*
X166Y140D01*
X166Y136D01*
X168Y136D01*
X168Y134D01*
X170Y134D01*
X170Y132D01*
X172Y132D01*
X172Y128D01*
X174Y128D01*
X174Y124D01*
X176Y124D01*
X176Y120D01*
X178Y120D01*
X178Y114D01*
X180Y114D01*
X180Y74D01*
X178Y74D01*
X178Y68D01*
X176Y68D01*
X176Y64D01*
X174Y64D01*
X174Y42D01*
X306Y42D01*
X306Y62D01*
X304Y62D01*
X304Y66D01*
X302Y66D01*
X302Y70D01*
X300Y70D01*
X300Y78D01*
X298Y78D01*
X298Y112D01*
X300Y112D01*
X300Y118D01*
X302Y118D01*
X302Y122D01*
X304Y122D01*
X304Y126D01*
X306Y126D01*
X306Y130D01*
X308Y130D01*
X308Y134D01*
X310Y134D01*
X310Y136D01*
X312Y136D01*
X312Y138D01*
X314Y138D01*
X314Y140D01*
X316Y140D01*
X316Y142D01*
X318Y142D01*
X318Y144D01*
X320Y144D01*
X320Y164D01*
X300Y164D01*
X300Y166D01*
X292Y166D01*
X292Y168D01*
X288Y168D01*
X288Y170D01*
X284Y170D01*
X284Y172D01*
X282Y172D01*
X282Y174D01*
X280Y174D01*
X280Y176D01*
X278Y176D01*
X278Y178D01*
X276Y178D01*
X276Y180D01*
X274Y180D01*
X274Y182D01*
X272Y182D01*
X272Y184D01*
X270Y184D01*
X270Y186D01*
X268Y186D01*
X268Y188D01*
X266Y188D01*
X266Y190D01*
X264Y190D01*
X264Y192D01*
X262Y192D01*
X262Y194D01*
X260Y194D01*
X260Y196D01*
X258Y196D01*
X258Y198D01*
X256Y198D01*
X256Y200D01*
X40Y200D01*
G37*
D02*
G36*
X40Y164D02*
X40Y140D01*
X60Y140D01*
X60Y142D01*
X62Y142D01*
X62Y144D01*
X64Y144D01*
X64Y146D01*
X66Y146D01*
X66Y148D01*
X68Y148D01*
X68Y150D01*
X70Y150D01*
X70Y152D01*
X74Y152D01*
X74Y154D01*
X76Y154D01*
X76Y156D01*
X80Y156D01*
X80Y158D01*
X84Y158D01*
X84Y160D01*
X88Y160D01*
X88Y162D01*
X96Y162D01*
X96Y164D01*
X40Y164D01*
G37*
D02*
G04 End of Copper0*
M02*